ISO-10303-21;
HEADER;
/* Generated by software containing ST-Developer
 * from STEP Tools, Inc. (www.steptools.com) 
 */

FILE_DESCRIPTION(
/* description */ (''),
/* implementation_level */ '2;1');

FILE_NAME(
/* name */ 'extention cover.step',
/* time_stamp */ '2025-12-22T09:30:58+01:00',
/* author */ (''),
/* organization */ (''),
/* preprocessor_version */ 'ST-DEVELOPER v20.1',
/* originating_system */ 'Autodesk Translation Framework v14.21.0.0',
/* authorisation */ '');

FILE_SCHEMA (('AUTOMOTIVE_DESIGN { 1 0 10303 214 3 1 1 }'));
ENDSEC;

DATA;
#10=MECHANICAL_DESIGN_GEOMETRIC_PRESENTATION_REPRESENTATION('',(#13),#1685);
#11=SHAPE_REPRESENTATION_RELATIONSHIP('SRR','None',#1692,#12);
#12=ADVANCED_BREP_SHAPE_REPRESENTATION('',(#14),#1684);
#13=STYLED_ITEM('',(#1702),#14);
#14=MANIFOLD_SOLID_BREP('extention cover',#905);
#15=(
BOUNDED_SURFACE()
B_SPLINE_SURFACE(2,2,((#1538,#1539,#1540),(#1541,#1542,#1543),(#1544,#1545,
#1546)),.UNSPECIFIED.,.F.,.F.,.F.)
B_SPLINE_SURFACE_WITH_KNOTS((3,3),(3,3),(0.848062078981469,1.57079632679491),
(0.,1.5707963267949),.UNSPECIFIED.)
GEOMETRIC_REPRESENTATION_ITEM()
RATIONAL_B_SPLINE_SURFACE(((1.,0.707106781186548,1.),(0.935414346693602,
0.66143782776623,0.935414346693602),(1.,0.707106781186548,1.)))
REPRESENTATION_ITEM('')
SURFACE()
);
#16=(
BOUNDED_SURFACE()
B_SPLINE_SURFACE(2,2,((#1561,#1562,#1563),(#1564,#1565,#1566),(#1567,#1568,
#1569)),.UNSPECIFIED.,.F.,.F.,.F.)
B_SPLINE_SURFACE_WITH_KNOTS((3,3),(3,3),(0.848062078981469,1.5707963267949),
(1.5707963267949,3.14159265358979),.UNSPECIFIED.)
GEOMETRIC_REPRESENTATION_ITEM()
RATIONAL_B_SPLINE_SURFACE(((1.,0.707106781186547,1.),(0.935414346693589,
0.661437827766221,0.935414346693589),(1.,0.707106781186547,1.)))
REPRESENTATION_ITEM('')
SURFACE()
);
#17=(
BOUNDED_SURFACE()
B_SPLINE_SURFACE(2,2,((#1581,#1582,#1583),(#1584,#1585,#1586),(#1587,#1588,
#1589)),.UNSPECIFIED.,.F.,.F.,.F.)
B_SPLINE_SURFACE_WITH_KNOTS((3,3),(3,3),(0.848062078981466,1.5707963267949),
(-3.14159265358979,-1.5707963267949),.UNSPECIFIED.)
GEOMETRIC_REPRESENTATION_ITEM()
RATIONAL_B_SPLINE_SURFACE(((1.,0.707106781186548,1.),(0.935414346693575,
0.661437827766211,0.935414346693575),(1.,0.707106781186548,1.)))
REPRESENTATION_ITEM('')
SURFACE()
);
#18=(
BOUNDED_SURFACE()
B_SPLINE_SURFACE(2,2,((#1601,#1602,#1603),(#1604,#1605,#1606),(#1607,#1608,
#1609)),.UNSPECIFIED.,.F.,.F.,.F.)
B_SPLINE_SURFACE_WITH_KNOTS((3,3),(3,3),(0.848062078981483,1.5707963267949),
(-1.5707963267949,0.),.UNSPECIFIED.)
GEOMETRIC_REPRESENTATION_ITEM()
RATIONAL_B_SPLINE_SURFACE(((1.,0.707106781186546,1.),(0.935414346693503,
0.661437827766159,0.935414346693503),(1.,0.707106781186546,1.)))
REPRESENTATION_ITEM('')
SURFACE()
);
#19=FACE_BOUND('',#231,.T.);
#20=FACE_BOUND('',#232,.T.);
#21=FACE_BOUND('',#233,.T.);
#22=FACE_BOUND('',#234,.T.);
#23=FACE_BOUND('',#235,.T.);
#24=FACE_BOUND('',#266,.T.);
#25=FACE_BOUND('',#267,.T.);
#26=FACE_BOUND('',#268,.T.);
#27=FACE_BOUND('',#269,.T.);
#28=PLANE('',#977);
#29=PLANE('',#984);
#30=PLANE('',#989);
#31=PLANE('',#1027);
#32=PLANE('',#1045);
#33=PLANE('',#1052);
#34=PLANE('',#1057);
#35=LINE('',#1402,#79);
#36=LINE('',#1403,#80);
#37=LINE('',#1426,#81);
#38=LINE('',#1427,#82);
#39=LINE('',#1450,#83);
#40=LINE('',#1451,#84);
#41=LINE('',#1474,#85);
#42=LINE('',#1475,#86);
#43=LINE('',#1481,#87);
#44=LINE('',#1484,#88);
#45=LINE('',#1487,#89);
#46=LINE('',#1488,#90);
#47=LINE('',#1491,#91);
#48=LINE('',#1495,#92);
#49=LINE('',#1499,#93);
#50=LINE('',#1503,#94);
#51=LINE('',#1504,#95);
#52=LINE('',#1507,#96);
#53=LINE('',#1511,#97);
#54=LINE('',#1516,#98);
#55=LINE('',#1520,#99);
#56=LINE('',#1524,#100);
#57=LINE('',#1528,#101);
#58=LINE('',#1559,#102);
#59=LINE('',#1560,#103);
#60=LINE('',#1579,#104);
#61=LINE('',#1580,#105);
#62=LINE('',#1599,#106);
#63=LINE('',#1600,#107);
#64=LINE('',#1616,#108);
#65=LINE('',#1617,#109);
#66=LINE('',#1637,#110);
#67=LINE('',#1641,#111);
#68=LINE('',#1645,#112);
#69=LINE('',#1649,#113);
#70=LINE('',#1653,#114);
#71=LINE('',#1657,#115);
#72=LINE('',#1658,#116);
#73=LINE('',#1661,#117);
#74=LINE('',#1665,#118);
#75=LINE('',#1669,#119);
#76=LINE('',#1673,#120);
#77=LINE('',#1674,#121);
#78=LINE('',#1677,#122);
#79=VECTOR('',#1082,10.);
#80=VECTOR('',#1083,10.);
#81=VECTOR('',#1112,10.);
#82=VECTOR('',#1113,10.);
#83=VECTOR('',#1142,10.);
#84=VECTOR('',#1143,10.);
#85=VECTOR('',#1172,10.);
#86=VECTOR('',#1173,10.);
#87=VECTOR('',#1182,10.);
#88=VECTOR('',#1185,10.);
#89=VECTOR('',#1188,10.);
#90=VECTOR('',#1189,10.);
#91=VECTOR('',#1192,10.);
#92=VECTOR('',#1197,10.);
#93=VECTOR('',#1202,10.);
#94=VECTOR('',#1207,10.);
#95=VECTOR('',#1208,10.);
#96=VECTOR('',#1211,10.);
#97=VECTOR('',#1216,10.);
#98=VECTOR('',#1221,10.);
#99=VECTOR('',#1224,10.);
#100=VECTOR('',#1227,10.);
#101=VECTOR('',#1230,10.);
#102=VECTOR('',#1253,10.);
#103=VECTOR('',#1254,10.);
#104=VECTOR('',#1265,10.);
#105=VECTOR('',#1266,10.);
#106=VECTOR('',#1277,10.);
#107=VECTOR('',#1278,10.);
#108=VECTOR('',#1287,10.);
#109=VECTOR('',#1288,10.);
#110=VECTOR('',#1325,1.6);
#111=VECTOR('',#1330,1.6);
#112=VECTOR('',#1335,1.6);
#113=VECTOR('',#1340,1.6);
#114=VECTOR('',#1345,10.);
#115=VECTOR('',#1350,10.);
#116=VECTOR('',#1351,10.);
#117=VECTOR('',#1354,10.);
#118=VECTOR('',#1359,10.);
#119=VECTOR('',#1364,10.);
#120=VECTOR('',#1369,10.);
#121=VECTOR('',#1370,10.);
#122=VECTOR('',#1373,10.);
#123=CYLINDRICAL_SURFACE('',#928,0.5);
#124=CYLINDRICAL_SURFACE('',#942,0.5);
#125=CYLINDRICAL_SURFACE('',#956,0.5);
#126=CYLINDRICAL_SURFACE('',#970,0.5);
#127=CYLINDRICAL_SURFACE('',#975,12.5);
#128=CYLINDRICAL_SURFACE('',#978,12.5);
#129=CYLINDRICAL_SURFACE('',#980,3.50000000000001);
#130=CYLINDRICAL_SURFACE('',#982,12.4999999999998);
#131=CYLINDRICAL_SURFACE('',#985,12.5);
#132=CYLINDRICAL_SURFACE('',#987,3.50000000000006);
#133=CYLINDRICAL_SURFACE('',#1002,3.);
#134=CYLINDRICAL_SURFACE('',#1007,3.);
#135=CYLINDRICAL_SURFACE('',#1012,3.);
#136=CYLINDRICAL_SURFACE('',#1017,3.);
#137=CYLINDRICAL_SURFACE('',#1018,1.);
#138=CYLINDRICAL_SURFACE('',#1023,1.);
#139=CYLINDRICAL_SURFACE('',#1028,1.);
#140=CYLINDRICAL_SURFACE('',#1032,1.);
#141=CYLINDRICAL_SURFACE('',#1035,1.6);
#142=CYLINDRICAL_SURFACE('',#1037,1.6);
#143=CYLINDRICAL_SURFACE('',#1039,1.6);
#144=CYLINDRICAL_SURFACE('',#1041,1.6);
#145=CYLINDRICAL_SURFACE('',#1043,12.5);
#146=CYLINDRICAL_SURFACE('',#1046,12.5);
#147=CYLINDRICAL_SURFACE('',#1048,3.49999999999998);
#148=CYLINDRICAL_SURFACE('',#1050,12.5);
#149=CYLINDRICAL_SURFACE('',#1053,12.5);
#150=CYLINDRICAL_SURFACE('',#1055,3.49999999999997);
#151=FACE_OUTER_BOUND('',#206,.T.);
#152=FACE_OUTER_BOUND('',#207,.T.);
#153=FACE_OUTER_BOUND('',#208,.T.);
#154=FACE_OUTER_BOUND('',#209,.T.);
#155=FACE_OUTER_BOUND('',#210,.T.);
#156=FACE_OUTER_BOUND('',#211,.T.);
#157=FACE_OUTER_BOUND('',#212,.T.);
#158=FACE_OUTER_BOUND('',#213,.T.);
#159=FACE_OUTER_BOUND('',#214,.T.);
#160=FACE_OUTER_BOUND('',#215,.T.);
#161=FACE_OUTER_BOUND('',#216,.T.);
#162=FACE_OUTER_BOUND('',#217,.T.);
#163=FACE_OUTER_BOUND('',#218,.T.);
#164=FACE_OUTER_BOUND('',#219,.T.);
#165=FACE_OUTER_BOUND('',#220,.T.);
#166=FACE_OUTER_BOUND('',#221,.T.);
#167=FACE_OUTER_BOUND('',#222,.T.);
#168=FACE_OUTER_BOUND('',#223,.T.);
#169=FACE_OUTER_BOUND('',#224,.T.);
#170=FACE_OUTER_BOUND('',#225,.T.);
#171=FACE_OUTER_BOUND('',#226,.T.);
#172=FACE_OUTER_BOUND('',#227,.T.);
#173=FACE_OUTER_BOUND('',#228,.T.);
#174=FACE_OUTER_BOUND('',#229,.T.);
#175=FACE_OUTER_BOUND('',#230,.T.);
#176=FACE_OUTER_BOUND('',#236,.T.);
#177=FACE_OUTER_BOUND('',#237,.T.);
#178=FACE_OUTER_BOUND('',#238,.T.);
#179=FACE_OUTER_BOUND('',#239,.T.);
#180=FACE_OUTER_BOUND('',#240,.T.);
#181=FACE_OUTER_BOUND('',#241,.T.);
#182=FACE_OUTER_BOUND('',#242,.T.);
#183=FACE_OUTER_BOUND('',#243,.T.);
#184=FACE_OUTER_BOUND('',#244,.T.);
#185=FACE_OUTER_BOUND('',#245,.T.);
#186=FACE_OUTER_BOUND('',#246,.T.);
#187=FACE_OUTER_BOUND('',#247,.T.);
#188=FACE_OUTER_BOUND('',#248,.T.);
#189=FACE_OUTER_BOUND('',#249,.T.);
#190=FACE_OUTER_BOUND('',#250,.T.);
#191=FACE_OUTER_BOUND('',#251,.T.);
#192=FACE_OUTER_BOUND('',#252,.T.);
#193=FACE_OUTER_BOUND('',#253,.T.);
#194=FACE_OUTER_BOUND('',#254,.T.);
#195=FACE_OUTER_BOUND('',#255,.T.);
#196=FACE_OUTER_BOUND('',#256,.T.);
#197=FACE_OUTER_BOUND('',#257,.T.);
#198=FACE_OUTER_BOUND('',#258,.T.);
#199=FACE_OUTER_BOUND('',#259,.T.);
#200=FACE_OUTER_BOUND('',#260,.T.);
#201=FACE_OUTER_BOUND('',#261,.T.);
#202=FACE_OUTER_BOUND('',#262,.T.);
#203=FACE_OUTER_BOUND('',#263,.T.);
#204=FACE_OUTER_BOUND('',#264,.T.);
#205=FACE_OUTER_BOUND('',#265,.T.);
#206=EDGE_LOOP('',(#570,#571,#572,#573));
#207=EDGE_LOOP('',(#574,#575,#576,#577));
#208=EDGE_LOOP('',(#578,#579,#580,#581));
#209=EDGE_LOOP('',(#582,#583,#584,#585));
#210=EDGE_LOOP('',(#586,#587,#588,#589));
#211=EDGE_LOOP('',(#590,#591,#592,#593));
#212=EDGE_LOOP('',(#594,#595,#596,#597));
#213=EDGE_LOOP('',(#598,#599,#600,#601));
#214=EDGE_LOOP('',(#602,#603,#604,#605));
#215=EDGE_LOOP('',(#606,#607,#608,#609));
#216=EDGE_LOOP('',(#610,#611,#612,#613));
#217=EDGE_LOOP('',(#614,#615,#616,#617));
#218=EDGE_LOOP('',(#618,#619,#620,#621));
#219=EDGE_LOOP('',(#622,#623,#624,#625));
#220=EDGE_LOOP('',(#626,#627,#628,#629));
#221=EDGE_LOOP('',(#630,#631,#632,#633));
#222=EDGE_LOOP('',(#634,#635,#636,#637));
#223=EDGE_LOOP('',(#638,#639,#640,#641));
#224=EDGE_LOOP('',(#642,#643,#644,#645));
#225=EDGE_LOOP('',(#646,#647,#648,#649));
#226=EDGE_LOOP('',(#650,#651,#652,#653));
#227=EDGE_LOOP('',(#654,#655,#656,#657));
#228=EDGE_LOOP('',(#658,#659,#660,#661));
#229=EDGE_LOOP('',(#662,#663,#664,#665));
#230=EDGE_LOOP('',(#666,#667,#668,#669,#670,#671,#672,#673,#674,#675,#676,
#677,#678,#679,#680,#681));
#231=EDGE_LOOP('',(#682,#683,#684,#685,#686,#687,#688,#689));
#232=EDGE_LOOP('',(#690));
#233=EDGE_LOOP('',(#691));
#234=EDGE_LOOP('',(#692));
#235=EDGE_LOOP('',(#693));
#236=EDGE_LOOP('',(#694,#695,#696,#697));
#237=EDGE_LOOP('',(#698,#699,#700,#701));
#238=EDGE_LOOP('',(#702,#703,#704,#705));
#239=EDGE_LOOP('',(#706,#707,#708,#709));
#240=EDGE_LOOP('',(#710,#711,#712,#713));
#241=EDGE_LOOP('',(#714,#715,#716,#717));
#242=EDGE_LOOP('',(#718,#719,#720,#721));
#243=EDGE_LOOP('',(#722,#723,#724,#725));
#244=EDGE_LOOP('',(#726,#727,#728,#729));
#245=EDGE_LOOP('',(#730,#731,#732,#733));
#246=EDGE_LOOP('',(#734,#735,#736,#737));
#247=EDGE_LOOP('',(#738,#739,#740,#741));
#248=EDGE_LOOP('',(#742,#743,#744,#745,#746,#747,#748,#749));
#249=EDGE_LOOP('',(#750,#751,#752,#753));
#250=EDGE_LOOP('',(#754,#755,#756,#757));
#251=EDGE_LOOP('',(#758,#759,#760,#761));
#252=EDGE_LOOP('',(#762,#763,#764,#765));
#253=EDGE_LOOP('',(#766,#767,#768,#769));
#254=EDGE_LOOP('',(#770,#771,#772,#773));
#255=EDGE_LOOP('',(#774,#775,#776,#777));
#256=EDGE_LOOP('',(#778,#779,#780,#781));
#257=EDGE_LOOP('',(#782,#783,#784,#785));
#258=EDGE_LOOP('',(#786,#787,#788,#789));
#259=EDGE_LOOP('',(#790,#791,#792,#793));
#260=EDGE_LOOP('',(#794,#795,#796,#797));
#261=EDGE_LOOP('',(#798,#799,#800,#801));
#262=EDGE_LOOP('',(#802,#803,#804,#805));
#263=EDGE_LOOP('',(#806,#807,#808,#809));
#264=EDGE_LOOP('',(#810,#811,#812,#813));
#265=EDGE_LOOP('',(#814,#815,#816,#817,#818,#819,#820,#821,#822,#823,#824,
#825,#826,#827,#828,#829));
#266=EDGE_LOOP('',(#830));
#267=EDGE_LOOP('',(#831));
#268=EDGE_LOOP('',(#832));
#269=EDGE_LOOP('',(#833));
#270=CIRCLE('',#920,0.500000000000007);
#271=CIRCLE('',#921,3.50000000000006);
#272=CIRCLE('',#922,0.499999999999979);
#273=CIRCLE('',#923,3.00000000000006);
#274=CIRCLE('',#925,0.500000000000043);
#275=CIRCLE('',#926,13.);
#276=CIRCLE('',#927,12.5);
#277=CIRCLE('',#929,0.499999999999972);
#278=CIRCLE('',#931,0.500000000000001);
#279=CIRCLE('',#932,12.9999999999998);
#280=CIRCLE('',#933,12.4999999999998);
#281=CIRCLE('',#935,0.500000000000007);
#282=CIRCLE('',#936,3.00000000000001);
#283=CIRCLE('',#937,3.50000000000001);
#284=CIRCLE('',#939,0.499999999999999);
#285=CIRCLE('',#940,13.);
#286=CIRCLE('',#941,12.5);
#287=CIRCLE('',#943,0.499999999999993);
#288=CIRCLE('',#945,0.499999999999994);
#289=CIRCLE('',#946,13.);
#290=CIRCLE('',#947,12.5);
#291=CIRCLE('',#949,0.50000000000008);
#292=CIRCLE('',#950,2.99999999999997);
#293=CIRCLE('',#951,3.49999999999997);
#294=CIRCLE('',#953,0.499999999999972);
#295=CIRCLE('',#954,13.);
#296=CIRCLE('',#955,12.5);
#297=CIRCLE('',#957,0.500000000000007);
#298=CIRCLE('',#959,0.500000000000001);
#299=CIRCLE('',#960,13.);
#300=CIRCLE('',#961,12.5);
#301=CIRCLE('',#963,0.500000000000139);
#302=CIRCLE('',#964,2.99999999999998);
#303=CIRCLE('',#965,3.49999999999998);
#304=CIRCLE('',#967,0.499999999999998);
#305=CIRCLE('',#968,13.);
#306=CIRCLE('',#969,12.5);
#307=CIRCLE('',#971,0.499999999999976);
#308=CIRCLE('',#973,13.);
#309=CIRCLE('',#974,12.5);
#310=CIRCLE('',#976,12.5);
#311=CIRCLE('',#979,12.5);
#312=CIRCLE('',#981,3.50000000000001);
#313=CIRCLE('',#983,12.4999999999998);
#314=CIRCLE('',#986,12.5);
#315=CIRCLE('',#988,3.50000000000006);
#316=CIRCLE('',#990,5.00000000000002);
#317=CIRCLE('',#991,5.);
#318=CIRCLE('',#992,4.99999999999998);
#319=CIRCLE('',#993,5.);
#320=CIRCLE('',#994,1.6);
#321=CIRCLE('',#995,1.6);
#322=CIRCLE('',#996,1.6);
#323=CIRCLE('',#997,1.6);
#324=CIRCLE('',#998,3.00000000000001);
#325=CIRCLE('',#999,4.33856217223388);
#326=CIRCLE('',#1000,2.99999999999996);
#327=CIRCLE('',#1001,2.35424868893542);
#328=CIRCLE('',#1003,3.00000000000001);
#329=CIRCLE('',#1004,3.);
#330=CIRCLE('',#1005,2.3542486889354);
#331=CIRCLE('',#1006,4.33856217223387);
#332=CIRCLE('',#1008,3.);
#333=CIRCLE('',#1009,2.99999999999996);
#334=CIRCLE('',#1010,2.35424868893541);
#335=CIRCLE('',#1011,4.33856217223386);
#336=CIRCLE('',#1013,2.99999999999996);
#337=CIRCLE('',#1014,3.00000000000001);
#338=CIRCLE('',#1015,2.35424868893544);
#339=CIRCLE('',#1016,4.33856217223388);
#340=CIRCLE('',#1019,1.00000000000002);
#341=CIRCLE('',#1020,1.);
#342=CIRCLE('',#1022,1.00000000000001);
#343=CIRCLE('',#1024,1.00000000000001);
#344=CIRCLE('',#1026,1.00000000000001);
#345=CIRCLE('',#1029,0.999999999999983);
#346=CIRCLE('',#1031,1.00000000000001);
#347=CIRCLE('',#1033,1.00000000000005);
#348=CIRCLE('',#1036,1.6);
#349=CIRCLE('',#1038,1.6);
#350=CIRCLE('',#1040,1.6);
#351=CIRCLE('',#1042,1.6);
#352=CIRCLE('',#1044,12.5);
#353=CIRCLE('',#1047,12.5);
#354=CIRCLE('',#1049,3.49999999999998);
#355=CIRCLE('',#1051,12.5);
#356=CIRCLE('',#1054,12.5);
#357=CIRCLE('',#1056,3.49999999999997);
#358=VERTEX_POINT('',#1384);
#359=VERTEX_POINT('',#1385);
#360=VERTEX_POINT('',#1387);
#361=VERTEX_POINT('',#1389);
#362=VERTEX_POINT('',#1393);
#363=VERTEX_POINT('',#1394);
#364=VERTEX_POINT('',#1399);
#365=VERTEX_POINT('',#1400);
#366=VERTEX_POINT('',#1405);
#367=VERTEX_POINT('',#1406);
#368=VERTEX_POINT('',#1411);
#369=VERTEX_POINT('',#1412);
#370=VERTEX_POINT('',#1417);
#371=VERTEX_POINT('',#1418);
#372=VERTEX_POINT('',#1423);
#373=VERTEX_POINT('',#1424);
#374=VERTEX_POINT('',#1429);
#375=VERTEX_POINT('',#1430);
#376=VERTEX_POINT('',#1435);
#377=VERTEX_POINT('',#1436);
#378=VERTEX_POINT('',#1441);
#379=VERTEX_POINT('',#1442);
#380=VERTEX_POINT('',#1447);
#381=VERTEX_POINT('',#1448);
#382=VERTEX_POINT('',#1453);
#383=VERTEX_POINT('',#1454);
#384=VERTEX_POINT('',#1459);
#385=VERTEX_POINT('',#1460);
#386=VERTEX_POINT('',#1465);
#387=VERTEX_POINT('',#1466);
#388=VERTEX_POINT('',#1471);
#389=VERTEX_POINT('',#1472);
#390=VERTEX_POINT('',#1480);
#391=VERTEX_POINT('',#1482);
#392=VERTEX_POINT('',#1486);
#393=VERTEX_POINT('',#1490);
#394=VERTEX_POINT('',#1494);
#395=VERTEX_POINT('',#1498);
#396=VERTEX_POINT('',#1502);
#397=VERTEX_POINT('',#1506);
#398=VERTEX_POINT('',#1510);
#399=VERTEX_POINT('',#1514);
#400=VERTEX_POINT('',#1515);
#401=VERTEX_POINT('',#1517);
#402=VERTEX_POINT('',#1519);
#403=VERTEX_POINT('',#1521);
#404=VERTEX_POINT('',#1523);
#405=VERTEX_POINT('',#1525);
#406=VERTEX_POINT('',#1527);
#407=VERTEX_POINT('',#1530);
#408=VERTEX_POINT('',#1532);
#409=VERTEX_POINT('',#1534);
#410=VERTEX_POINT('',#1536);
#411=VERTEX_POINT('',#1547);
#412=VERTEX_POINT('',#1548);
#413=VERTEX_POINT('',#1550);
#414=VERTEX_POINT('',#1552);
#415=VERTEX_POINT('',#1556);
#416=VERTEX_POINT('',#1557);
#417=VERTEX_POINT('',#1570);
#418=VERTEX_POINT('',#1571);
#419=VERTEX_POINT('',#1576);
#420=VERTEX_POINT('',#1577);
#421=VERTEX_POINT('',#1590);
#422=VERTEX_POINT('',#1591);
#423=VERTEX_POINT('',#1596);
#424=VERTEX_POINT('',#1597);
#425=VERTEX_POINT('',#1610);
#426=VERTEX_POINT('',#1611);
#427=VERTEX_POINT('',#1636);
#428=VERTEX_POINT('',#1640);
#429=VERTEX_POINT('',#1644);
#430=VERTEX_POINT('',#1648);
#431=VERTEX_POINT('',#1652);
#432=VERTEX_POINT('',#1656);
#433=VERTEX_POINT('',#1660);
#434=VERTEX_POINT('',#1664);
#435=VERTEX_POINT('',#1668);
#436=VERTEX_POINT('',#1672);
#437=VERTEX_POINT('',#1676);
#438=EDGE_CURVE('',#358,#359,#270,.T.);
#439=EDGE_CURVE('',#359,#360,#271,.T.);
#440=EDGE_CURVE('',#360,#361,#272,.T.);
#441=EDGE_CURVE('',#361,#358,#273,.T.);
#442=EDGE_CURVE('',#362,#363,#274,.T.);
#443=EDGE_CURVE('',#363,#361,#275,.T.);
#444=EDGE_CURVE('',#360,#362,#276,.T.);
#445=EDGE_CURVE('',#364,#365,#277,.T.);
#446=EDGE_CURVE('',#365,#363,#35,.T.);
#447=EDGE_CURVE('',#362,#364,#36,.T.);
#448=EDGE_CURVE('',#366,#367,#278,.T.);
#449=EDGE_CURVE('',#367,#365,#279,.T.);
#450=EDGE_CURVE('',#364,#366,#280,.T.);
#451=EDGE_CURVE('',#368,#369,#281,.T.);
#452=EDGE_CURVE('',#369,#367,#282,.T.);
#453=EDGE_CURVE('',#366,#368,#283,.T.);
#454=EDGE_CURVE('',#370,#371,#284,.T.);
#455=EDGE_CURVE('',#371,#369,#285,.T.);
#456=EDGE_CURVE('',#368,#370,#286,.T.);
#457=EDGE_CURVE('',#372,#373,#287,.T.);
#458=EDGE_CURVE('',#373,#371,#37,.T.);
#459=EDGE_CURVE('',#370,#372,#38,.T.);
#460=EDGE_CURVE('',#374,#375,#288,.T.);
#461=EDGE_CURVE('',#375,#373,#289,.T.);
#462=EDGE_CURVE('',#372,#374,#290,.T.);
#463=EDGE_CURVE('',#376,#377,#291,.T.);
#464=EDGE_CURVE('',#377,#375,#292,.T.);
#465=EDGE_CURVE('',#374,#376,#293,.T.);
#466=EDGE_CURVE('',#378,#379,#294,.T.);
#467=EDGE_CURVE('',#379,#377,#295,.T.);
#468=EDGE_CURVE('',#376,#378,#296,.T.);
#469=EDGE_CURVE('',#380,#381,#297,.T.);
#470=EDGE_CURVE('',#381,#379,#39,.T.);
#471=EDGE_CURVE('',#378,#380,#40,.T.);
#472=EDGE_CURVE('',#382,#383,#298,.T.);
#473=EDGE_CURVE('',#383,#381,#299,.T.);
#474=EDGE_CURVE('',#380,#382,#300,.T.);
#475=EDGE_CURVE('',#384,#385,#301,.T.);
#476=EDGE_CURVE('',#385,#383,#302,.T.);
#477=EDGE_CURVE('',#382,#384,#303,.T.);
#478=EDGE_CURVE('',#386,#387,#304,.T.);
#479=EDGE_CURVE('',#387,#385,#305,.T.);
#480=EDGE_CURVE('',#384,#386,#306,.T.);
#481=EDGE_CURVE('',#388,#389,#307,.T.);
#482=EDGE_CURVE('',#389,#387,#41,.T.);
#483=EDGE_CURVE('',#386,#388,#42,.T.);
#484=EDGE_CURVE('',#358,#389,#308,.T.);
#485=EDGE_CURVE('',#388,#359,#309,.T.);
#486=EDGE_CURVE('',#390,#372,#43,.T.);
#487=EDGE_CURVE('',#391,#390,#310,.T.);
#488=EDGE_CURVE('',#391,#374,#44,.T.);
#489=EDGE_CURVE('',#392,#370,#45,.T.);
#490=EDGE_CURVE('',#390,#392,#46,.T.);
#491=EDGE_CURVE('',#393,#368,#47,.T.);
#492=EDGE_CURVE('',#392,#393,#311,.T.);
#493=EDGE_CURVE('',#394,#366,#48,.T.);
#494=EDGE_CURVE('',#394,#393,#312,.T.);
#495=EDGE_CURVE('',#395,#364,#49,.T.);
#496=EDGE_CURVE('',#394,#395,#313,.T.);
#497=EDGE_CURVE('',#396,#362,#50,.T.);
#498=EDGE_CURVE('',#395,#396,#51,.T.);
#499=EDGE_CURVE('',#397,#360,#52,.T.);
#500=EDGE_CURVE('',#396,#397,#314,.T.);
#501=EDGE_CURVE('',#398,#359,#53,.T.);
#502=EDGE_CURVE('',#398,#397,#315,.T.);
#503=EDGE_CURVE('',#399,#400,#54,.T.);
#504=EDGE_CURVE('',#401,#399,#316,.T.);
#505=EDGE_CURVE('',#402,#401,#55,.T.);
#506=EDGE_CURVE('',#403,#402,#317,.T.);
#507=EDGE_CURVE('',#404,#403,#56,.T.);
#508=EDGE_CURVE('',#405,#404,#318,.T.);
#509=EDGE_CURVE('',#406,#405,#57,.T.);
#510=EDGE_CURVE('',#400,#406,#319,.T.);
#511=EDGE_CURVE('',#407,#407,#320,.T.);
#512=EDGE_CURVE('',#408,#408,#321,.T.);
#513=EDGE_CURVE('',#409,#409,#322,.T.);
#514=EDGE_CURVE('',#410,#410,#323,.T.);
#515=EDGE_CURVE('',#411,#412,#324,.T.);
#516=EDGE_CURVE('',#412,#413,#325,.T.);
#517=EDGE_CURVE('',#413,#414,#326,.T.);
#518=EDGE_CURVE('',#414,#411,#327,.T.);
#519=EDGE_CURVE('',#415,#416,#328,.T.);
#520=EDGE_CURVE('',#416,#414,#58,.T.);
#521=EDGE_CURVE('',#413,#415,#59,.T.);
#522=EDGE_CURVE('',#417,#418,#329,.T.);
#523=EDGE_CURVE('',#418,#416,#330,.T.);
#524=EDGE_CURVE('',#415,#417,#331,.T.);
#525=EDGE_CURVE('',#419,#420,#332,.T.);
#526=EDGE_CURVE('',#420,#418,#60,.T.);
#527=EDGE_CURVE('',#417,#419,#61,.T.);
#528=EDGE_CURVE('',#421,#422,#333,.T.);
#529=EDGE_CURVE('',#422,#420,#334,.T.);
#530=EDGE_CURVE('',#419,#421,#335,.T.);
#531=EDGE_CURVE('',#423,#424,#336,.T.);
#532=EDGE_CURVE('',#424,#422,#62,.T.);
#533=EDGE_CURVE('',#421,#423,#63,.T.);
#534=EDGE_CURVE('',#425,#426,#337,.T.);
#535=EDGE_CURVE('',#426,#424,#338,.T.);
#536=EDGE_CURVE('',#423,#425,#339,.T.);
#537=EDGE_CURVE('',#411,#426,#64,.T.);
#538=EDGE_CURVE('',#425,#412,#65,.T.);
#539=EDGE_CURVE('',#417,#404,#340,.T.);
#540=EDGE_CURVE('',#419,#403,#341,.T.);
#541=EDGE_CURVE('',#415,#405,#342,.T.);
#542=EDGE_CURVE('',#413,#406,#343,.T.);
#543=EDGE_CURVE('',#400,#412,#344,.T.);
#544=EDGE_CURVE('',#425,#399,#345,.T.);
#545=EDGE_CURVE('',#423,#401,#346,.T.);
#546=EDGE_CURVE('',#421,#402,#347,.T.);
#547=EDGE_CURVE('',#410,#427,#66,.T.);
#548=EDGE_CURVE('',#427,#427,#348,.T.);
#549=EDGE_CURVE('',#409,#428,#67,.T.);
#550=EDGE_CURVE('',#428,#428,#349,.T.);
#551=EDGE_CURVE('',#408,#429,#68,.T.);
#552=EDGE_CURVE('',#429,#429,#350,.T.);
#553=EDGE_CURVE('',#407,#430,#69,.T.);
#554=EDGE_CURVE('',#430,#430,#351,.T.);
#555=EDGE_CURVE('',#431,#388,#70,.T.);
#556=EDGE_CURVE('',#398,#431,#352,.T.);
#557=EDGE_CURVE('',#432,#386,#71,.T.);
#558=EDGE_CURVE('',#431,#432,#72,.T.);
#559=EDGE_CURVE('',#433,#384,#73,.T.);
#560=EDGE_CURVE('',#432,#433,#353,.T.);
#561=EDGE_CURVE('',#434,#382,#74,.T.);
#562=EDGE_CURVE('',#434,#433,#354,.T.);
#563=EDGE_CURVE('',#435,#380,#75,.T.);
#564=EDGE_CURVE('',#434,#435,#355,.T.);
#565=EDGE_CURVE('',#436,#378,#76,.T.);
#566=EDGE_CURVE('',#435,#436,#77,.T.);
#567=EDGE_CURVE('',#437,#376,#78,.T.);
#568=EDGE_CURVE('',#436,#437,#356,.T.);
#569=EDGE_CURVE('',#391,#437,#357,.T.);
#570=ORIENTED_EDGE('',*,*,#438,.T.);
#571=ORIENTED_EDGE('',*,*,#439,.T.);
#572=ORIENTED_EDGE('',*,*,#440,.T.);
#573=ORIENTED_EDGE('',*,*,#441,.T.);
#574=ORIENTED_EDGE('',*,*,#442,.T.);
#575=ORIENTED_EDGE('',*,*,#443,.T.);
#576=ORIENTED_EDGE('',*,*,#440,.F.);
#577=ORIENTED_EDGE('',*,*,#444,.T.);
#578=ORIENTED_EDGE('',*,*,#445,.T.);
#579=ORIENTED_EDGE('',*,*,#446,.T.);
#580=ORIENTED_EDGE('',*,*,#442,.F.);
#581=ORIENTED_EDGE('',*,*,#447,.T.);
#582=ORIENTED_EDGE('',*,*,#448,.T.);
#583=ORIENTED_EDGE('',*,*,#449,.T.);
#584=ORIENTED_EDGE('',*,*,#445,.F.);
#585=ORIENTED_EDGE('',*,*,#450,.T.);
#586=ORIENTED_EDGE('',*,*,#451,.T.);
#587=ORIENTED_EDGE('',*,*,#452,.T.);
#588=ORIENTED_EDGE('',*,*,#448,.F.);
#589=ORIENTED_EDGE('',*,*,#453,.T.);
#590=ORIENTED_EDGE('',*,*,#454,.T.);
#591=ORIENTED_EDGE('',*,*,#455,.T.);
#592=ORIENTED_EDGE('',*,*,#451,.F.);
#593=ORIENTED_EDGE('',*,*,#456,.T.);
#594=ORIENTED_EDGE('',*,*,#457,.T.);
#595=ORIENTED_EDGE('',*,*,#458,.T.);
#596=ORIENTED_EDGE('',*,*,#454,.F.);
#597=ORIENTED_EDGE('',*,*,#459,.T.);
#598=ORIENTED_EDGE('',*,*,#460,.T.);
#599=ORIENTED_EDGE('',*,*,#461,.T.);
#600=ORIENTED_EDGE('',*,*,#457,.F.);
#601=ORIENTED_EDGE('',*,*,#462,.T.);
#602=ORIENTED_EDGE('',*,*,#463,.T.);
#603=ORIENTED_EDGE('',*,*,#464,.T.);
#604=ORIENTED_EDGE('',*,*,#460,.F.);
#605=ORIENTED_EDGE('',*,*,#465,.T.);
#606=ORIENTED_EDGE('',*,*,#466,.T.);
#607=ORIENTED_EDGE('',*,*,#467,.T.);
#608=ORIENTED_EDGE('',*,*,#463,.F.);
#609=ORIENTED_EDGE('',*,*,#468,.T.);
#610=ORIENTED_EDGE('',*,*,#469,.T.);
#611=ORIENTED_EDGE('',*,*,#470,.T.);
#612=ORIENTED_EDGE('',*,*,#466,.F.);
#613=ORIENTED_EDGE('',*,*,#471,.T.);
#614=ORIENTED_EDGE('',*,*,#472,.T.);
#615=ORIENTED_EDGE('',*,*,#473,.T.);
#616=ORIENTED_EDGE('',*,*,#469,.F.);
#617=ORIENTED_EDGE('',*,*,#474,.T.);
#618=ORIENTED_EDGE('',*,*,#475,.T.);
#619=ORIENTED_EDGE('',*,*,#476,.T.);
#620=ORIENTED_EDGE('',*,*,#472,.F.);
#621=ORIENTED_EDGE('',*,*,#477,.T.);
#622=ORIENTED_EDGE('',*,*,#478,.T.);
#623=ORIENTED_EDGE('',*,*,#479,.T.);
#624=ORIENTED_EDGE('',*,*,#475,.F.);
#625=ORIENTED_EDGE('',*,*,#480,.T.);
#626=ORIENTED_EDGE('',*,*,#481,.T.);
#627=ORIENTED_EDGE('',*,*,#482,.T.);
#628=ORIENTED_EDGE('',*,*,#478,.F.);
#629=ORIENTED_EDGE('',*,*,#483,.T.);
#630=ORIENTED_EDGE('',*,*,#438,.F.);
#631=ORIENTED_EDGE('',*,*,#484,.T.);
#632=ORIENTED_EDGE('',*,*,#481,.F.);
#633=ORIENTED_EDGE('',*,*,#485,.T.);
#634=ORIENTED_EDGE('',*,*,#462,.F.);
#635=ORIENTED_EDGE('',*,*,#486,.F.);
#636=ORIENTED_EDGE('',*,*,#487,.F.);
#637=ORIENTED_EDGE('',*,*,#488,.T.);
#638=ORIENTED_EDGE('',*,*,#459,.F.);
#639=ORIENTED_EDGE('',*,*,#489,.F.);
#640=ORIENTED_EDGE('',*,*,#490,.F.);
#641=ORIENTED_EDGE('',*,*,#486,.T.);
#642=ORIENTED_EDGE('',*,*,#456,.F.);
#643=ORIENTED_EDGE('',*,*,#491,.F.);
#644=ORIENTED_EDGE('',*,*,#492,.F.);
#645=ORIENTED_EDGE('',*,*,#489,.T.);
#646=ORIENTED_EDGE('',*,*,#453,.F.);
#647=ORIENTED_EDGE('',*,*,#493,.F.);
#648=ORIENTED_EDGE('',*,*,#494,.T.);
#649=ORIENTED_EDGE('',*,*,#491,.T.);
#650=ORIENTED_EDGE('',*,*,#450,.F.);
#651=ORIENTED_EDGE('',*,*,#495,.F.);
#652=ORIENTED_EDGE('',*,*,#496,.F.);
#653=ORIENTED_EDGE('',*,*,#493,.T.);
#654=ORIENTED_EDGE('',*,*,#447,.F.);
#655=ORIENTED_EDGE('',*,*,#497,.F.);
#656=ORIENTED_EDGE('',*,*,#498,.F.);
#657=ORIENTED_EDGE('',*,*,#495,.T.);
#658=ORIENTED_EDGE('',*,*,#444,.F.);
#659=ORIENTED_EDGE('',*,*,#499,.F.);
#660=ORIENTED_EDGE('',*,*,#500,.F.);
#661=ORIENTED_EDGE('',*,*,#497,.T.);
#662=ORIENTED_EDGE('',*,*,#439,.F.);
#663=ORIENTED_EDGE('',*,*,#501,.F.);
#664=ORIENTED_EDGE('',*,*,#502,.T.);
#665=ORIENTED_EDGE('',*,*,#499,.T.);
#666=ORIENTED_EDGE('',*,*,#441,.F.);
#667=ORIENTED_EDGE('',*,*,#443,.F.);
#668=ORIENTED_EDGE('',*,*,#446,.F.);
#669=ORIENTED_EDGE('',*,*,#449,.F.);
#670=ORIENTED_EDGE('',*,*,#452,.F.);
#671=ORIENTED_EDGE('',*,*,#455,.F.);
#672=ORIENTED_EDGE('',*,*,#458,.F.);
#673=ORIENTED_EDGE('',*,*,#461,.F.);
#674=ORIENTED_EDGE('',*,*,#464,.F.);
#675=ORIENTED_EDGE('',*,*,#467,.F.);
#676=ORIENTED_EDGE('',*,*,#470,.F.);
#677=ORIENTED_EDGE('',*,*,#473,.F.);
#678=ORIENTED_EDGE('',*,*,#476,.F.);
#679=ORIENTED_EDGE('',*,*,#479,.F.);
#680=ORIENTED_EDGE('',*,*,#482,.F.);
#681=ORIENTED_EDGE('',*,*,#484,.F.);
#682=ORIENTED_EDGE('',*,*,#503,.F.);
#683=ORIENTED_EDGE('',*,*,#504,.F.);
#684=ORIENTED_EDGE('',*,*,#505,.F.);
#685=ORIENTED_EDGE('',*,*,#506,.F.);
#686=ORIENTED_EDGE('',*,*,#507,.F.);
#687=ORIENTED_EDGE('',*,*,#508,.F.);
#688=ORIENTED_EDGE('',*,*,#509,.F.);
#689=ORIENTED_EDGE('',*,*,#510,.F.);
#690=ORIENTED_EDGE('',*,*,#511,.T.);
#691=ORIENTED_EDGE('',*,*,#512,.T.);
#692=ORIENTED_EDGE('',*,*,#513,.T.);
#693=ORIENTED_EDGE('',*,*,#514,.T.);
#694=ORIENTED_EDGE('',*,*,#515,.T.);
#695=ORIENTED_EDGE('',*,*,#516,.T.);
#696=ORIENTED_EDGE('',*,*,#517,.T.);
#697=ORIENTED_EDGE('',*,*,#518,.T.);
#698=ORIENTED_EDGE('',*,*,#519,.T.);
#699=ORIENTED_EDGE('',*,*,#520,.T.);
#700=ORIENTED_EDGE('',*,*,#517,.F.);
#701=ORIENTED_EDGE('',*,*,#521,.T.);
#702=ORIENTED_EDGE('',*,*,#522,.T.);
#703=ORIENTED_EDGE('',*,*,#523,.T.);
#704=ORIENTED_EDGE('',*,*,#519,.F.);
#705=ORIENTED_EDGE('',*,*,#524,.T.);
#706=ORIENTED_EDGE('',*,*,#525,.T.);
#707=ORIENTED_EDGE('',*,*,#526,.T.);
#708=ORIENTED_EDGE('',*,*,#522,.F.);
#709=ORIENTED_EDGE('',*,*,#527,.T.);
#710=ORIENTED_EDGE('',*,*,#528,.T.);
#711=ORIENTED_EDGE('',*,*,#529,.T.);
#712=ORIENTED_EDGE('',*,*,#525,.F.);
#713=ORIENTED_EDGE('',*,*,#530,.T.);
#714=ORIENTED_EDGE('',*,*,#531,.T.);
#715=ORIENTED_EDGE('',*,*,#532,.T.);
#716=ORIENTED_EDGE('',*,*,#528,.F.);
#717=ORIENTED_EDGE('',*,*,#533,.T.);
#718=ORIENTED_EDGE('',*,*,#534,.T.);
#719=ORIENTED_EDGE('',*,*,#535,.T.);
#720=ORIENTED_EDGE('',*,*,#531,.F.);
#721=ORIENTED_EDGE('',*,*,#536,.T.);
#722=ORIENTED_EDGE('',*,*,#515,.F.);
#723=ORIENTED_EDGE('',*,*,#537,.T.);
#724=ORIENTED_EDGE('',*,*,#534,.F.);
#725=ORIENTED_EDGE('',*,*,#538,.T.);
#726=ORIENTED_EDGE('',*,*,#527,.F.);
#727=ORIENTED_EDGE('',*,*,#539,.T.);
#728=ORIENTED_EDGE('',*,*,#507,.T.);
#729=ORIENTED_EDGE('',*,*,#540,.F.);
#730=ORIENTED_EDGE('',*,*,#524,.F.);
#731=ORIENTED_EDGE('',*,*,#541,.T.);
#732=ORIENTED_EDGE('',*,*,#508,.T.);
#733=ORIENTED_EDGE('',*,*,#539,.F.);
#734=ORIENTED_EDGE('',*,*,#521,.F.);
#735=ORIENTED_EDGE('',*,*,#542,.T.);
#736=ORIENTED_EDGE('',*,*,#509,.T.);
#737=ORIENTED_EDGE('',*,*,#541,.F.);
#738=ORIENTED_EDGE('',*,*,#516,.F.);
#739=ORIENTED_EDGE('',*,*,#543,.F.);
#740=ORIENTED_EDGE('',*,*,#510,.T.);
#741=ORIENTED_EDGE('',*,*,#542,.F.);
#742=ORIENTED_EDGE('',*,*,#518,.F.);
#743=ORIENTED_EDGE('',*,*,#520,.F.);
#744=ORIENTED_EDGE('',*,*,#523,.F.);
#745=ORIENTED_EDGE('',*,*,#526,.F.);
#746=ORIENTED_EDGE('',*,*,#529,.F.);
#747=ORIENTED_EDGE('',*,*,#532,.F.);
#748=ORIENTED_EDGE('',*,*,#535,.F.);
#749=ORIENTED_EDGE('',*,*,#537,.F.);
#750=ORIENTED_EDGE('',*,*,#538,.F.);
#751=ORIENTED_EDGE('',*,*,#544,.T.);
#752=ORIENTED_EDGE('',*,*,#503,.T.);
#753=ORIENTED_EDGE('',*,*,#543,.T.);
#754=ORIENTED_EDGE('',*,*,#536,.F.);
#755=ORIENTED_EDGE('',*,*,#545,.T.);
#756=ORIENTED_EDGE('',*,*,#504,.T.);
#757=ORIENTED_EDGE('',*,*,#544,.F.);
#758=ORIENTED_EDGE('',*,*,#533,.F.);
#759=ORIENTED_EDGE('',*,*,#546,.T.);
#760=ORIENTED_EDGE('',*,*,#505,.T.);
#761=ORIENTED_EDGE('',*,*,#545,.F.);
#762=ORIENTED_EDGE('',*,*,#530,.F.);
#763=ORIENTED_EDGE('',*,*,#540,.T.);
#764=ORIENTED_EDGE('',*,*,#506,.T.);
#765=ORIENTED_EDGE('',*,*,#546,.F.);
#766=ORIENTED_EDGE('',*,*,#514,.F.);
#767=ORIENTED_EDGE('',*,*,#547,.T.);
#768=ORIENTED_EDGE('',*,*,#548,.T.);
#769=ORIENTED_EDGE('',*,*,#547,.F.);
#770=ORIENTED_EDGE('',*,*,#513,.F.);
#771=ORIENTED_EDGE('',*,*,#549,.T.);
#772=ORIENTED_EDGE('',*,*,#550,.T.);
#773=ORIENTED_EDGE('',*,*,#549,.F.);
#774=ORIENTED_EDGE('',*,*,#512,.F.);
#775=ORIENTED_EDGE('',*,*,#551,.T.);
#776=ORIENTED_EDGE('',*,*,#552,.T.);
#777=ORIENTED_EDGE('',*,*,#551,.F.);
#778=ORIENTED_EDGE('',*,*,#511,.F.);
#779=ORIENTED_EDGE('',*,*,#553,.T.);
#780=ORIENTED_EDGE('',*,*,#554,.T.);
#781=ORIENTED_EDGE('',*,*,#553,.F.);
#782=ORIENTED_EDGE('',*,*,#485,.F.);
#783=ORIENTED_EDGE('',*,*,#555,.F.);
#784=ORIENTED_EDGE('',*,*,#556,.F.);
#785=ORIENTED_EDGE('',*,*,#501,.T.);
#786=ORIENTED_EDGE('',*,*,#483,.F.);
#787=ORIENTED_EDGE('',*,*,#557,.F.);
#788=ORIENTED_EDGE('',*,*,#558,.F.);
#789=ORIENTED_EDGE('',*,*,#555,.T.);
#790=ORIENTED_EDGE('',*,*,#480,.F.);
#791=ORIENTED_EDGE('',*,*,#559,.F.);
#792=ORIENTED_EDGE('',*,*,#560,.F.);
#793=ORIENTED_EDGE('',*,*,#557,.T.);
#794=ORIENTED_EDGE('',*,*,#477,.F.);
#795=ORIENTED_EDGE('',*,*,#561,.F.);
#796=ORIENTED_EDGE('',*,*,#562,.T.);
#797=ORIENTED_EDGE('',*,*,#559,.T.);
#798=ORIENTED_EDGE('',*,*,#474,.F.);
#799=ORIENTED_EDGE('',*,*,#563,.F.);
#800=ORIENTED_EDGE('',*,*,#564,.F.);
#801=ORIENTED_EDGE('',*,*,#561,.T.);
#802=ORIENTED_EDGE('',*,*,#471,.F.);
#803=ORIENTED_EDGE('',*,*,#565,.F.);
#804=ORIENTED_EDGE('',*,*,#566,.F.);
#805=ORIENTED_EDGE('',*,*,#563,.T.);
#806=ORIENTED_EDGE('',*,*,#468,.F.);
#807=ORIENTED_EDGE('',*,*,#567,.F.);
#808=ORIENTED_EDGE('',*,*,#568,.F.);
#809=ORIENTED_EDGE('',*,*,#565,.T.);
#810=ORIENTED_EDGE('',*,*,#465,.F.);
#811=ORIENTED_EDGE('',*,*,#488,.F.);
#812=ORIENTED_EDGE('',*,*,#569,.T.);
#813=ORIENTED_EDGE('',*,*,#567,.T.);
#814=ORIENTED_EDGE('',*,*,#494,.F.);
#815=ORIENTED_EDGE('',*,*,#496,.T.);
#816=ORIENTED_EDGE('',*,*,#498,.T.);
#817=ORIENTED_EDGE('',*,*,#500,.T.);
#818=ORIENTED_EDGE('',*,*,#502,.F.);
#819=ORIENTED_EDGE('',*,*,#556,.T.);
#820=ORIENTED_EDGE('',*,*,#558,.T.);
#821=ORIENTED_EDGE('',*,*,#560,.T.);
#822=ORIENTED_EDGE('',*,*,#562,.F.);
#823=ORIENTED_EDGE('',*,*,#564,.T.);
#824=ORIENTED_EDGE('',*,*,#566,.T.);
#825=ORIENTED_EDGE('',*,*,#568,.T.);
#826=ORIENTED_EDGE('',*,*,#569,.F.);
#827=ORIENTED_EDGE('',*,*,#487,.T.);
#828=ORIENTED_EDGE('',*,*,#490,.T.);
#829=ORIENTED_EDGE('',*,*,#492,.T.);
#830=ORIENTED_EDGE('',*,*,#554,.F.);
#831=ORIENTED_EDGE('',*,*,#552,.F.);
#832=ORIENTED_EDGE('',*,*,#550,.F.);
#833=ORIENTED_EDGE('',*,*,#548,.F.);
#834=TOROIDAL_SURFACE('',#919,3.00000000000006,0.5);
#835=TOROIDAL_SURFACE('',#924,13.,0.5);
#836=TOROIDAL_SURFACE('',#930,12.9999999999998,0.5);
#837=TOROIDAL_SURFACE('',#934,3.00000000000001,0.5);
#838=TOROIDAL_SURFACE('',#938,13.,0.5);
#839=TOROIDAL_SURFACE('',#944,13.,0.5);
#840=TOROIDAL_SURFACE('',#948,2.99999999999997,0.5);
#841=TOROIDAL_SURFACE('',#952,13.,0.5);
#842=TOROIDAL_SURFACE('',#958,13.,0.5);
#843=TOROIDAL_SURFACE('',#962,2.99999999999998,0.5);
#844=TOROIDAL_SURFACE('',#966,13.,0.5);
#845=TOROIDAL_SURFACE('',#972,13.,0.5);
#846=TOROIDAL_SURFACE('',#1021,4.99999999999999,1.);
#847=TOROIDAL_SURFACE('',#1025,5.,1.);
#848=TOROIDAL_SURFACE('',#1030,5.00000000000002,1.);
#849=TOROIDAL_SURFACE('',#1034,5.,1.);
#850=ADVANCED_FACE('',(#151),#834,.T.);
#851=ADVANCED_FACE('',(#152),#835,.T.);
#852=ADVANCED_FACE('',(#153),#123,.T.);
#853=ADVANCED_FACE('',(#154),#836,.T.);
#854=ADVANCED_FACE('',(#155),#837,.T.);
#855=ADVANCED_FACE('',(#156),#838,.T.);
#856=ADVANCED_FACE('',(#157),#124,.T.);
#857=ADVANCED_FACE('',(#158),#839,.T.);
#858=ADVANCED_FACE('',(#159),#840,.T.);
#859=ADVANCED_FACE('',(#160),#841,.T.);
#860=ADVANCED_FACE('',(#161),#125,.T.);
#861=ADVANCED_FACE('',(#162),#842,.T.);
#862=ADVANCED_FACE('',(#163),#843,.T.);
#863=ADVANCED_FACE('',(#164),#844,.T.);
#864=ADVANCED_FACE('',(#165),#126,.T.);
#865=ADVANCED_FACE('',(#166),#845,.T.);
#866=ADVANCED_FACE('',(#167),#127,.F.);
#867=ADVANCED_FACE('',(#168),#28,.T.);
#868=ADVANCED_FACE('',(#169),#128,.F.);
#869=ADVANCED_FACE('',(#170),#129,.T.);
#870=ADVANCED_FACE('',(#171),#130,.F.);
#871=ADVANCED_FACE('',(#172),#29,.T.);
#872=ADVANCED_FACE('',(#173),#131,.F.);
#873=ADVANCED_FACE('',(#174),#132,.T.);
#874=ADVANCED_FACE('',(#175,#19,#20,#21,#22,#23),#30,.T.);
#875=ADVANCED_FACE('',(#176),#15,.F.);
#876=ADVANCED_FACE('',(#177),#133,.T.);
#877=ADVANCED_FACE('',(#178),#16,.F.);
#878=ADVANCED_FACE('',(#179),#134,.T.);
#879=ADVANCED_FACE('',(#180),#17,.F.);
#880=ADVANCED_FACE('',(#181),#135,.T.);
#881=ADVANCED_FACE('',(#182),#18,.F.);
#882=ADVANCED_FACE('',(#183),#136,.T.);
#883=ADVANCED_FACE('',(#184),#137,.F.);
#884=ADVANCED_FACE('',(#185),#846,.F.);
#885=ADVANCED_FACE('',(#186),#138,.F.);
#886=ADVANCED_FACE('',(#187),#847,.F.);
#887=ADVANCED_FACE('',(#188),#31,.T.);
#888=ADVANCED_FACE('',(#189),#139,.F.);
#889=ADVANCED_FACE('',(#190),#848,.F.);
#890=ADVANCED_FACE('',(#191),#140,.F.);
#891=ADVANCED_FACE('',(#192),#849,.F.);
#892=ADVANCED_FACE('',(#193),#141,.F.);
#893=ADVANCED_FACE('',(#194),#142,.F.);
#894=ADVANCED_FACE('',(#195),#143,.F.);
#895=ADVANCED_FACE('',(#196),#144,.F.);
#896=ADVANCED_FACE('',(#197),#145,.F.);
#897=ADVANCED_FACE('',(#198),#32,.T.);
#898=ADVANCED_FACE('',(#199),#146,.F.);
#899=ADVANCED_FACE('',(#200),#147,.T.);
#900=ADVANCED_FACE('',(#201),#148,.F.);
#901=ADVANCED_FACE('',(#202),#33,.T.);
#902=ADVANCED_FACE('',(#203),#149,.F.);
#903=ADVANCED_FACE('',(#204),#150,.T.);
#904=ADVANCED_FACE('',(#205,#24,#25,#26,#27),#34,.F.);
#905=CLOSED_SHELL('',(#850,#851,#852,#853,#854,#855,#856,#857,#858,#859,
#860,#861,#862,#863,#864,#865,#866,#867,#868,#869,#870,#871,#872,#873,#874,
#875,#876,#877,#878,#879,#880,#881,#882,#883,#884,#885,#886,#887,#888,#889,
#890,#891,#892,#893,#894,#895,#896,#897,#898,#899,#900,#901,#902,#903,#904));
#906=DERIVED_UNIT_ELEMENT(#908,1.);
#907=DERIVED_UNIT_ELEMENT(#1687,-3.);
#908=(
MASS_UNIT()
NAMED_UNIT(*)
SI_UNIT(.KILO.,.GRAM.)
);
#909=DERIVED_UNIT((#906,#907));
#910=MEASURE_REPRESENTATION_ITEM('density measure',
POSITIVE_RATIO_MEASURE(7850.),#909);
#911=PROPERTY_DEFINITION_REPRESENTATION(#916,#913);
#912=PROPERTY_DEFINITION_REPRESENTATION(#917,#914);
#913=REPRESENTATION('material name',(#915),#1684);
#914=REPRESENTATION('density',(#910),#1684);
#915=DESCRIPTIVE_REPRESENTATION_ITEM('Steel','Steel');
#916=PROPERTY_DEFINITION('material property','material name',#1694);
#917=PROPERTY_DEFINITION('material property','density of part',#1694);
#918=AXIS2_PLACEMENT_3D('',#1382,#1058,#1059);
#919=AXIS2_PLACEMENT_3D('',#1383,#1060,#1061);
#920=AXIS2_PLACEMENT_3D('',#1386,#1062,#1063);
#921=AXIS2_PLACEMENT_3D('',#1388,#1064,#1065);
#922=AXIS2_PLACEMENT_3D('',#1390,#1066,#1067);
#923=AXIS2_PLACEMENT_3D('',#1391,#1068,#1069);
#924=AXIS2_PLACEMENT_3D('',#1392,#1070,#1071);
#925=AXIS2_PLACEMENT_3D('',#1395,#1072,#1073);
#926=AXIS2_PLACEMENT_3D('',#1396,#1074,#1075);
#927=AXIS2_PLACEMENT_3D('',#1397,#1076,#1077);
#928=AXIS2_PLACEMENT_3D('',#1398,#1078,#1079);
#929=AXIS2_PLACEMENT_3D('',#1401,#1080,#1081);
#930=AXIS2_PLACEMENT_3D('',#1404,#1084,#1085);
#931=AXIS2_PLACEMENT_3D('',#1407,#1086,#1087);
#932=AXIS2_PLACEMENT_3D('',#1408,#1088,#1089);
#933=AXIS2_PLACEMENT_3D('',#1409,#1090,#1091);
#934=AXIS2_PLACEMENT_3D('',#1410,#1092,#1093);
#935=AXIS2_PLACEMENT_3D('',#1413,#1094,#1095);
#936=AXIS2_PLACEMENT_3D('',#1414,#1096,#1097);
#937=AXIS2_PLACEMENT_3D('',#1415,#1098,#1099);
#938=AXIS2_PLACEMENT_3D('',#1416,#1100,#1101);
#939=AXIS2_PLACEMENT_3D('',#1419,#1102,#1103);
#940=AXIS2_PLACEMENT_3D('',#1420,#1104,#1105);
#941=AXIS2_PLACEMENT_3D('',#1421,#1106,#1107);
#942=AXIS2_PLACEMENT_3D('',#1422,#1108,#1109);
#943=AXIS2_PLACEMENT_3D('',#1425,#1110,#1111);
#944=AXIS2_PLACEMENT_3D('',#1428,#1114,#1115);
#945=AXIS2_PLACEMENT_3D('',#1431,#1116,#1117);
#946=AXIS2_PLACEMENT_3D('',#1432,#1118,#1119);
#947=AXIS2_PLACEMENT_3D('',#1433,#1120,#1121);
#948=AXIS2_PLACEMENT_3D('',#1434,#1122,#1123);
#949=AXIS2_PLACEMENT_3D('',#1437,#1124,#1125);
#950=AXIS2_PLACEMENT_3D('',#1438,#1126,#1127);
#951=AXIS2_PLACEMENT_3D('',#1439,#1128,#1129);
#952=AXIS2_PLACEMENT_3D('',#1440,#1130,#1131);
#953=AXIS2_PLACEMENT_3D('',#1443,#1132,#1133);
#954=AXIS2_PLACEMENT_3D('',#1444,#1134,#1135);
#955=AXIS2_PLACEMENT_3D('',#1445,#1136,#1137);
#956=AXIS2_PLACEMENT_3D('',#1446,#1138,#1139);
#957=AXIS2_PLACEMENT_3D('',#1449,#1140,#1141);
#958=AXIS2_PLACEMENT_3D('',#1452,#1144,#1145);
#959=AXIS2_PLACEMENT_3D('',#1455,#1146,#1147);
#960=AXIS2_PLACEMENT_3D('',#1456,#1148,#1149);
#961=AXIS2_PLACEMENT_3D('',#1457,#1150,#1151);
#962=AXIS2_PLACEMENT_3D('',#1458,#1152,#1153);
#963=AXIS2_PLACEMENT_3D('',#1461,#1154,#1155);
#964=AXIS2_PLACEMENT_3D('',#1462,#1156,#1157);
#965=AXIS2_PLACEMENT_3D('',#1463,#1158,#1159);
#966=AXIS2_PLACEMENT_3D('',#1464,#1160,#1161);
#967=AXIS2_PLACEMENT_3D('',#1467,#1162,#1163);
#968=AXIS2_PLACEMENT_3D('',#1468,#1164,#1165);
#969=AXIS2_PLACEMENT_3D('',#1469,#1166,#1167);
#970=AXIS2_PLACEMENT_3D('',#1470,#1168,#1169);
#971=AXIS2_PLACEMENT_3D('',#1473,#1170,#1171);
#972=AXIS2_PLACEMENT_3D('',#1476,#1174,#1175);
#973=AXIS2_PLACEMENT_3D('',#1477,#1176,#1177);
#974=AXIS2_PLACEMENT_3D('',#1478,#1178,#1179);
#975=AXIS2_PLACEMENT_3D('',#1479,#1180,#1181);
#976=AXIS2_PLACEMENT_3D('',#1483,#1183,#1184);
#977=AXIS2_PLACEMENT_3D('',#1485,#1186,#1187);
#978=AXIS2_PLACEMENT_3D('',#1489,#1190,#1191);
#979=AXIS2_PLACEMENT_3D('',#1492,#1193,#1194);
#980=AXIS2_PLACEMENT_3D('',#1493,#1195,#1196);
#981=AXIS2_PLACEMENT_3D('',#1496,#1198,#1199);
#982=AXIS2_PLACEMENT_3D('',#1497,#1200,#1201);
#983=AXIS2_PLACEMENT_3D('',#1500,#1203,#1204);
#984=AXIS2_PLACEMENT_3D('',#1501,#1205,#1206);
#985=AXIS2_PLACEMENT_3D('',#1505,#1209,#1210);
#986=AXIS2_PLACEMENT_3D('',#1508,#1212,#1213);
#987=AXIS2_PLACEMENT_3D('',#1509,#1214,#1215);
#988=AXIS2_PLACEMENT_3D('',#1512,#1217,#1218);
#989=AXIS2_PLACEMENT_3D('',#1513,#1219,#1220);
#990=AXIS2_PLACEMENT_3D('',#1518,#1222,#1223);
#991=AXIS2_PLACEMENT_3D('',#1522,#1225,#1226);
#992=AXIS2_PLACEMENT_3D('',#1526,#1228,#1229);
#993=AXIS2_PLACEMENT_3D('',#1529,#1231,#1232);
#994=AXIS2_PLACEMENT_3D('',#1531,#1233,#1234);
#995=AXIS2_PLACEMENT_3D('',#1533,#1235,#1236);
#996=AXIS2_PLACEMENT_3D('',#1535,#1237,#1238);
#997=AXIS2_PLACEMENT_3D('',#1537,#1239,#1240);
#998=AXIS2_PLACEMENT_3D('',#1549,#1241,#1242);
#999=AXIS2_PLACEMENT_3D('',#1551,#1243,#1244);
#1000=AXIS2_PLACEMENT_3D('',#1553,#1245,#1246);
#1001=AXIS2_PLACEMENT_3D('',#1554,#1247,#1248);
#1002=AXIS2_PLACEMENT_3D('',#1555,#1249,#1250);
#1003=AXIS2_PLACEMENT_3D('',#1558,#1251,#1252);
#1004=AXIS2_PLACEMENT_3D('',#1572,#1255,#1256);
#1005=AXIS2_PLACEMENT_3D('',#1573,#1257,#1258);
#1006=AXIS2_PLACEMENT_3D('',#1574,#1259,#1260);
#1007=AXIS2_PLACEMENT_3D('',#1575,#1261,#1262);
#1008=AXIS2_PLACEMENT_3D('',#1578,#1263,#1264);
#1009=AXIS2_PLACEMENT_3D('',#1592,#1267,#1268);
#1010=AXIS2_PLACEMENT_3D('',#1593,#1269,#1270);
#1011=AXIS2_PLACEMENT_3D('',#1594,#1271,#1272);
#1012=AXIS2_PLACEMENT_3D('',#1595,#1273,#1274);
#1013=AXIS2_PLACEMENT_3D('',#1598,#1275,#1276);
#1014=AXIS2_PLACEMENT_3D('',#1612,#1279,#1280);
#1015=AXIS2_PLACEMENT_3D('',#1613,#1281,#1282);
#1016=AXIS2_PLACEMENT_3D('',#1614,#1283,#1284);
#1017=AXIS2_PLACEMENT_3D('',#1615,#1285,#1286);
#1018=AXIS2_PLACEMENT_3D('',#1618,#1289,#1290);
#1019=AXIS2_PLACEMENT_3D('',#1619,#1291,#1292);
#1020=AXIS2_PLACEMENT_3D('',#1620,#1293,#1294);
#1021=AXIS2_PLACEMENT_3D('',#1621,#1295,#1296);
#1022=AXIS2_PLACEMENT_3D('',#1622,#1297,#1298);
#1023=AXIS2_PLACEMENT_3D('',#1623,#1299,#1300);
#1024=AXIS2_PLACEMENT_3D('',#1624,#1301,#1302);
#1025=AXIS2_PLACEMENT_3D('',#1625,#1303,#1304);
#1026=AXIS2_PLACEMENT_3D('',#1626,#1305,#1306);
#1027=AXIS2_PLACEMENT_3D('',#1627,#1307,#1308);
#1028=AXIS2_PLACEMENT_3D('',#1628,#1309,#1310);
#1029=AXIS2_PLACEMENT_3D('',#1629,#1311,#1312);
#1030=AXIS2_PLACEMENT_3D('',#1630,#1313,#1314);
#1031=AXIS2_PLACEMENT_3D('',#1631,#1315,#1316);
#1032=AXIS2_PLACEMENT_3D('',#1632,#1317,#1318);
#1033=AXIS2_PLACEMENT_3D('',#1633,#1319,#1320);
#1034=AXIS2_PLACEMENT_3D('',#1634,#1321,#1322);
#1035=AXIS2_PLACEMENT_3D('',#1635,#1323,#1324);
#1036=AXIS2_PLACEMENT_3D('',#1638,#1326,#1327);
#1037=AXIS2_PLACEMENT_3D('',#1639,#1328,#1329);
#1038=AXIS2_PLACEMENT_3D('',#1642,#1331,#1332);
#1039=AXIS2_PLACEMENT_3D('',#1643,#1333,#1334);
#1040=AXIS2_PLACEMENT_3D('',#1646,#1336,#1337);
#1041=AXIS2_PLACEMENT_3D('',#1647,#1338,#1339);
#1042=AXIS2_PLACEMENT_3D('',#1650,#1341,#1342);
#1043=AXIS2_PLACEMENT_3D('',#1651,#1343,#1344);
#1044=AXIS2_PLACEMENT_3D('',#1654,#1346,#1347);
#1045=AXIS2_PLACEMENT_3D('',#1655,#1348,#1349);
#1046=AXIS2_PLACEMENT_3D('',#1659,#1352,#1353);
#1047=AXIS2_PLACEMENT_3D('',#1662,#1355,#1356);
#1048=AXIS2_PLACEMENT_3D('',#1663,#1357,#1358);
#1049=AXIS2_PLACEMENT_3D('',#1666,#1360,#1361);
#1050=AXIS2_PLACEMENT_3D('',#1667,#1362,#1363);
#1051=AXIS2_PLACEMENT_3D('',#1670,#1365,#1366);
#1052=AXIS2_PLACEMENT_3D('',#1671,#1367,#1368);
#1053=AXIS2_PLACEMENT_3D('',#1675,#1371,#1372);
#1054=AXIS2_PLACEMENT_3D('',#1678,#1374,#1375);
#1055=AXIS2_PLACEMENT_3D('',#1679,#1376,#1377);
#1056=AXIS2_PLACEMENT_3D('',#1680,#1378,#1379);
#1057=AXIS2_PLACEMENT_3D('',#1681,#1380,#1381);
#1058=DIRECTION('axis',(0.,0.,1.));
#1059=DIRECTION('refdir',(1.,0.,0.));
#1060=DIRECTION('center_axis',(0.,0.,1.));
#1061=DIRECTION('ref_axis',(1.,0.,0.));
#1062=DIRECTION('center_axis',(0.62421826110747,0.781249999999979,0.));
#1063=DIRECTION('ref_axis',(0.,0.,1.));
#1064=DIRECTION('center_axis',(0.,0.,1.));
#1065=DIRECTION('ref_axis',(0.707106781186572,0.707106781186523,0.));
#1066=DIRECTION('center_axis',(0.781250000000033,0.624218261107403,0.));
#1067=DIRECTION('ref_axis',(-0.624218261107402,0.781250000000032,0.));
#1068=DIRECTION('center_axis',(0.,0.,-1.));
#1069=DIRECTION('ref_axis',(0.707106781186572,0.707106781186523,0.));
#1070=DIRECTION('center_axis',(0.,0.,-1.));
#1071=DIRECTION('ref_axis',(-1.,0.,0.));
#1072=DIRECTION('center_axis',(1.,0.,0.));
#1073=DIRECTION('ref_axis',(0.,1.,0.));
#1074=DIRECTION('center_axis',(0.,0.,1.));
#1075=DIRECTION('ref_axis',(0.330718913883077,-0.943729304408843,0.));
#1076=DIRECTION('center_axis',(0.,0.,-1.));
#1077=DIRECTION('ref_axis',(0.330718913883077,-0.943729304408843,0.));
#1078=DIRECTION('center_axis',(-1.,0.,0.));
#1079=DIRECTION('ref_axis',(0.,0.707106781186497,0.707106781186598));
#1080=DIRECTION('center_axis',(1.,0.,0.));
#1081=DIRECTION('ref_axis',(0.,1.,0.));
#1082=DIRECTION('',(1.,0.,0.));
#1083=DIRECTION('',(-1.,0.,0.));
#1084=DIRECTION('center_axis',(0.,0.,-1.));
#1085=DIRECTION('ref_axis',(-1.,0.,0.));
#1086=DIRECTION('center_axis',(0.781249999999998,-0.624218261107446,0.));
#1087=DIRECTION('ref_axis',(0.624218261107446,0.781249999999998,0.));
#1088=DIRECTION('center_axis',(0.,0.,1.));
#1089=DIRECTION('ref_axis',(-0.330718913883073,-0.943729304408844,0.));
#1090=DIRECTION('center_axis',(0.,0.,-1.));
#1091=DIRECTION('ref_axis',(-0.330718913883073,-0.943729304408844,0.));
#1092=DIRECTION('center_axis',(0.,0.,1.));
#1093=DIRECTION('ref_axis',(-0.707106781186547,0.707106781186548,0.));
#1094=DIRECTION('center_axis',(-0.624218261107493,0.781249999999961,0.));
#1095=DIRECTION('ref_axis',(-0.781249999999961,-0.624218261107492,0.));
#1096=DIRECTION('center_axis',(0.,0.,-1.));
#1097=DIRECTION('ref_axis',(-0.707106781186555,0.70710678118654,0.));
#1098=DIRECTION('center_axis',(0.,0.,1.));
#1099=DIRECTION('ref_axis',(-0.707106781186555,0.70710678118654,0.));
#1100=DIRECTION('center_axis',(0.,0.,-1.));
#1101=DIRECTION('ref_axis',(-1.,0.,0.));
#1102=DIRECTION('center_axis',(0.,1.,0.));
#1103=DIRECTION('ref_axis',(-1.,0.,0.));
#1104=DIRECTION('center_axis',(0.,0.,1.));
#1105=DIRECTION('ref_axis',(0.943729304408844,0.330718913883072,0.));
#1106=DIRECTION('center_axis',(0.,0.,-1.));
#1107=DIRECTION('ref_axis',(0.943729304408844,0.330718913883072,0.));
#1108=DIRECTION('center_axis',(2.20939217537889E-16,-1.,0.));
#1109=DIRECTION('ref_axis',(-0.707106781186518,0.,0.707106781186577));
#1110=DIRECTION('center_axis',(0.,1.,0.));
#1111=DIRECTION('ref_axis',(-1.,0.,0.));
#1112=DIRECTION('',(-2.20939217537889E-16,1.,0.));
#1113=DIRECTION('',(2.20939217537889E-16,-1.,0.));
#1114=DIRECTION('center_axis',(0.,0.,-1.));
#1115=DIRECTION('ref_axis',(-1.,0.,0.));
#1116=DIRECTION('center_axis',(0.624218261107437,0.781250000000005,0.));
#1117=DIRECTION('ref_axis',(-0.781250000000005,0.624218261107437,0.));
#1118=DIRECTION('center_axis',(0.,0.,1.));
#1119=DIRECTION('ref_axis',(0.943729304408843,-0.330718913883075,0.));
#1120=DIRECTION('center_axis',(0.,0.,-1.));
#1121=DIRECTION('ref_axis',(0.943729304408843,-0.330718913883075,0.));
#1122=DIRECTION('center_axis',(0.,0.,1.));
#1123=DIRECTION('ref_axis',(-0.707106781186553,-0.707106781186542,0.));
#1124=DIRECTION('center_axis',(-0.781250000000017,-0.624218261107421,0.));
#1125=DIRECTION('ref_axis',(0.624218261107421,-0.781250000000018,0.));
#1126=DIRECTION('center_axis',(0.,0.,-1.));
#1127=DIRECTION('ref_axis',(-0.707106781186545,-0.70710678118655,0.));
#1128=DIRECTION('center_axis',(0.,0.,1.));
#1129=DIRECTION('ref_axis',(-0.707106781186545,-0.70710678118655,0.));
#1130=DIRECTION('center_axis',(0.,0.,-1.));
#1131=DIRECTION('ref_axis',(-1.,0.,0.));
#1132=DIRECTION('center_axis',(-1.,0.,0.));
#1133=DIRECTION('ref_axis',(0.,-1.,0.));
#1134=DIRECTION('center_axis',(0.,0.,1.));
#1135=DIRECTION('ref_axis',(-0.330718913883078,0.943729304408842,0.));
#1136=DIRECTION('center_axis',(0.,0.,-1.));
#1137=DIRECTION('ref_axis',(-0.330718913883078,0.943729304408842,0.));
#1138=DIRECTION('center_axis',(1.,0.,0.));
#1139=DIRECTION('ref_axis',(0.,-0.707106781186548,0.707106781186548));
#1140=DIRECTION('center_axis',(-1.,0.,0.));
#1141=DIRECTION('ref_axis',(0.,-1.,0.));
#1142=DIRECTION('',(-1.,0.,0.));
#1143=DIRECTION('',(1.,0.,0.));
#1144=DIRECTION('center_axis',(0.,0.,-1.));
#1145=DIRECTION('ref_axis',(-1.,0.,0.));
#1146=DIRECTION('center_axis',(-0.781249999999998,0.624218261107446,0.));
#1147=DIRECTION('ref_axis',(-0.624218261107446,-0.781249999999998,0.));
#1148=DIRECTION('center_axis',(0.,0.,1.));
#1149=DIRECTION('ref_axis',(0.330718913883074,0.943729304408844,0.));
#1150=DIRECTION('center_axis',(0.,0.,-1.));
#1151=DIRECTION('ref_axis',(0.330718913883074,0.943729304408844,0.));
#1152=DIRECTION('center_axis',(0.,0.,1.));
#1153=DIRECTION('ref_axis',(1.,0.,0.));
#1154=DIRECTION('center_axis',(0.62421826110747,-0.781249999999979,0.));
#1155=DIRECTION('ref_axis',(0.781249999999979,0.62421826110747,0.));
#1156=DIRECTION('center_axis',(0.,0.,-1.));
#1157=DIRECTION('ref_axis',(0.707106781186558,-0.707106781186537,0.));
#1158=DIRECTION('center_axis',(0.,0.,1.));
#1159=DIRECTION('ref_axis',(0.707106781186558,-0.707106781186537,0.));
#1160=DIRECTION('center_axis',(0.,0.,-1.));
#1161=DIRECTION('ref_axis',(-1.,0.,0.));
#1162=DIRECTION('center_axis',(0.,-1.,0.));
#1163=DIRECTION('ref_axis',(1.,0.,0.));
#1164=DIRECTION('center_axis',(0.,0.,1.));
#1165=DIRECTION('ref_axis',(-0.943729304408843,-0.330718913883075,0.));
#1166=DIRECTION('center_axis',(0.,0.,-1.));
#1167=DIRECTION('ref_axis',(-0.943729304408843,-0.330718913883075,0.));
#1168=DIRECTION('center_axis',(0.,1.,0.));
#1169=DIRECTION('ref_axis',(0.707106781186516,0.,0.707106781186579));
#1170=DIRECTION('center_axis',(0.,-1.,0.));
#1171=DIRECTION('ref_axis',(1.,0.,0.));
#1172=DIRECTION('',(0.,-1.,0.));
#1173=DIRECTION('',(0.,1.,0.));
#1174=DIRECTION('center_axis',(0.,0.,-1.));
#1175=DIRECTION('ref_axis',(-1.,0.,0.));
#1176=DIRECTION('center_axis',(0.,0.,1.));
#1177=DIRECTION('ref_axis',(-0.943729304408843,0.330718913883077,0.));
#1178=DIRECTION('center_axis',(0.,0.,-1.));
#1179=DIRECTION('ref_axis',(-0.943729304408843,0.330718913883077,0.));
#1180=DIRECTION('center_axis',(0.,0.,1.));
#1181=DIRECTION('ref_axis',(0.781249999999999,-0.624218261107444,0.));
#1182=DIRECTION('',(0.,0.,1.));
#1183=DIRECTION('center_axis',(0.,0.,1.));
#1184=DIRECTION('ref_axis',(0.781249999999999,-0.624218261107444,0.));
#1185=DIRECTION('',(0.,0.,1.));
#1186=DIRECTION('center_axis',(-1.,-2.20939217537889E-16,0.));
#1187=DIRECTION('ref_axis',(2.20939217537889E-16,-1.,0.));
#1188=DIRECTION('',(0.,0.,1.));
#1189=DIRECTION('',(-2.20939217537889E-16,1.,0.));
#1190=DIRECTION('center_axis',(0.,0.,1.));
#1191=DIRECTION('ref_axis',(1.,0.,0.));
#1192=DIRECTION('',(0.,0.,1.));
#1193=DIRECTION('center_axis',(0.,0.,1.));
#1194=DIRECTION('ref_axis',(1.,0.,0.));
#1195=DIRECTION('center_axis',(0.,0.,1.));
#1196=DIRECTION('ref_axis',(-1.52259157662878E-14,1.,0.));
#1197=DIRECTION('',(0.,0.,1.));
#1198=DIRECTION('center_axis',(0.,0.,1.));
#1199=DIRECTION('ref_axis',(-1.52259157662878E-14,1.,0.));
#1200=DIRECTION('center_axis',(0.,0.,1.));
#1201=DIRECTION('ref_axis',(-0.624218261107447,-0.781249999999997,0.));
#1202=DIRECTION('',(0.,0.,1.));
#1203=DIRECTION('center_axis',(0.,0.,1.));
#1204=DIRECTION('ref_axis',(-0.624218261107447,-0.781249999999997,0.));
#1205=DIRECTION('center_axis',(0.,1.,0.));
#1206=DIRECTION('ref_axis',(-1.,0.,0.));
#1207=DIRECTION('',(0.,0.,1.));
#1208=DIRECTION('',(1.,0.,0.));
#1209=DIRECTION('center_axis',(0.,0.,1.));
#1210=DIRECTION('ref_axis',(0.,-1.,0.));
#1211=DIRECTION('',(0.,0.,1.));
#1212=DIRECTION('center_axis',(0.,0.,1.));
#1213=DIRECTION('ref_axis',(0.,-1.,0.));
#1214=DIRECTION('center_axis',(0.,0.,1.));
#1215=DIRECTION('ref_axis',(0.781250000000011,-0.624218261107429,0.));
#1216=DIRECTION('',(0.,0.,1.));
#1217=DIRECTION('center_axis',(0.,0.,1.));
#1218=DIRECTION('ref_axis',(0.781250000000011,-0.624218261107429,0.));
#1219=DIRECTION('center_axis',(0.,0.,1.));
#1220=DIRECTION('ref_axis',(-1.,0.,0.));
#1221=DIRECTION('',(0.,1.,0.));
#1222=DIRECTION('center_axis',(0.,0.,1.));
#1223=DIRECTION('ref_axis',(0.707106781186545,-0.70710678118655,0.));
#1224=DIRECTION('',(1.,0.,0.));
#1225=DIRECTION('center_axis',(0.,0.,1.));
#1226=DIRECTION('ref_axis',(-0.707106781186551,-0.707106781186544,0.));
#1227=DIRECTION('',(4.03717463500058E-16,-1.,0.));
#1228=DIRECTION('center_axis',(0.,0.,1.));
#1229=DIRECTION('ref_axis',(-0.707106781186547,0.707106781186548,0.));
#1230=DIRECTION('',(-1.,0.,0.));
#1231=DIRECTION('center_axis',(0.,0.,1.));
#1232=DIRECTION('ref_axis',(0.707106781186549,0.707106781186546,0.));
#1233=DIRECTION('center_axis',(0.,0.,-1.));
#1234=DIRECTION('ref_axis',(-1.,0.,0.));
#1235=DIRECTION('center_axis',(0.,0.,-1.));
#1236=DIRECTION('ref_axis',(-1.,0.,0.));
#1237=DIRECTION('center_axis',(0.,0.,-1.));
#1238=DIRECTION('ref_axis',(-1.,0.,0.));
#1239=DIRECTION('center_axis',(0.,0.,-1.));
#1240=DIRECTION('ref_axis',(-1.,0.,0.));
#1241=DIRECTION('center_axis',(0.,1.,0.));
#1242=DIRECTION('ref_axis',(0.,0.,1.));
#1243=DIRECTION('center_axis',(0.,0.,1.));
#1244=DIRECTION('ref_axis',(0.707106781186545,0.70710678118655,0.));
#1245=DIRECTION('center_axis',(1.,4.47599851120176E-15,0.));
#1246=DIRECTION('ref_axis',(-2.96059473233379E-15,0.661437827766145,0.750000000000003));
#1247=DIRECTION('center_axis',(0.,0.,-1.));
#1248=DIRECTION('ref_axis',(0.707106781186549,0.707106781186546,0.));
#1249=DIRECTION('center_axis',(-1.,0.,0.));
#1250=DIRECTION('ref_axis',(0.,0.35355339059328,0.935414346693483));
#1251=DIRECTION('center_axis',(1.,0.,0.));
#1252=DIRECTION('ref_axis',(0.,0.661437827766158,0.749999999999991));
#1253=DIRECTION('',(1.,0.,0.));
#1254=DIRECTION('',(-1.,0.,0.));
#1255=DIRECTION('center_axis',(0.,1.,0.));
#1256=DIRECTION('ref_axis',(-0.661437827766155,0.,0.749999999999993));
#1257=DIRECTION('center_axis',(0.,0.,-1.));
#1258=DIRECTION('ref_axis',(-0.707106781186547,0.707106781186548,0.));
#1259=DIRECTION('center_axis',(0.,0.,1.));
#1260=DIRECTION('ref_axis',(-0.707106781186543,0.707106781186552,0.));
#1261=DIRECTION('center_axis',(4.03717463500058E-16,-1.,0.));
#1262=DIRECTION('ref_axis',(-0.353553390593272,0.,0.935414346693486));
#1263=DIRECTION('center_axis',(0.,1.,0.));
#1264=DIRECTION('ref_axis',(-0.661437827766142,0.,0.750000000000005));
#1265=DIRECTION('',(-4.03717463500058E-16,1.,0.));
#1266=DIRECTION('',(4.03717463500058E-16,-1.,0.));
#1267=DIRECTION('center_axis',(-1.,-3.35699888340126E-15,0.));
#1268=DIRECTION('ref_axis',(2.22044604925034E-15,-0.661437827766157,0.749999999999992));
#1269=DIRECTION('center_axis',(0.,0.,-1.));
#1270=DIRECTION('ref_axis',(-0.707106781186551,-0.707106781186544,0.));
#1271=DIRECTION('center_axis',(0.,0.,1.));
#1272=DIRECTION('ref_axis',(-0.70710678118655,-0.707106781186545,0.));
#1273=DIRECTION('center_axis',(1.,0.,0.));
#1274=DIRECTION('ref_axis',(0.,-0.353553390593269,0.935414346693487));
#1275=DIRECTION('center_axis',(-1.,0.,0.));
#1276=DIRECTION('ref_axis',(0.,-0.661437827766145,0.750000000000003));
#1277=DIRECTION('',(-1.,0.,0.));
#1278=DIRECTION('',(1.,0.,0.));
#1279=DIRECTION('center_axis',(0.,-1.,0.));
#1280=DIRECTION('ref_axis',(0.661437827766145,0.,0.750000000000002));
#1281=DIRECTION('center_axis',(0.,0.,-1.));
#1282=DIRECTION('ref_axis',(0.707106781186545,-0.70710678118655,0.));
#1283=DIRECTION('center_axis',(0.,0.,1.));
#1284=DIRECTION('ref_axis',(0.707106781186544,-0.707106781186551,0.));
#1285=DIRECTION('center_axis',(0.,1.,0.));
#1286=DIRECTION('ref_axis',(0.353553390593272,0.,0.935414346693486));
#1287=DIRECTION('',(0.,-1.,0.));
#1288=DIRECTION('',(0.,1.,0.));
#1289=DIRECTION('center_axis',(-4.03717463500058E-16,1.,0.));
#1290=DIRECTION('ref_axis',(0.707106781186543,0.,-0.707106781186552));
#1291=DIRECTION('center_axis',(0.,1.,0.));
#1292=DIRECTION('ref_axis',(1.,0.,0.));
#1293=DIRECTION('center_axis',(0.,1.,0.));
#1294=DIRECTION('ref_axis',(1.,0.,0.));
#1295=DIRECTION('center_axis',(0.,0.,-1.));
#1296=DIRECTION('ref_axis',(-1.,0.,0.));
#1297=DIRECTION('center_axis',(1.,0.,0.));
#1298=DIRECTION('ref_axis',(0.,-1.,0.));
#1299=DIRECTION('center_axis',(1.,0.,0.));
#1300=DIRECTION('ref_axis',(0.,-0.707106781186522,-0.707106781186573));
#1301=DIRECTION('center_axis',(1.,0.,0.));
#1302=DIRECTION('ref_axis',(0.,-1.,0.));
#1303=DIRECTION('center_axis',(0.,0.,-1.));
#1304=DIRECTION('ref_axis',(-1.,0.,0.));
#1305=DIRECTION('center_axis',(0.,1.,0.));
#1306=DIRECTION('ref_axis',(0.,0.,-1.));
#1307=DIRECTION('center_axis',(0.,0.,1.));
#1308=DIRECTION('ref_axis',(-1.,0.,0.));
#1309=DIRECTION('center_axis',(0.,-1.,0.));
#1310=DIRECTION('ref_axis',(-0.707106781186544,0.,-0.707106781186551));
#1311=DIRECTION('center_axis',(0.,-1.,0.));
#1312=DIRECTION('ref_axis',(-1.,0.,0.));
#1313=DIRECTION('center_axis',(0.,0.,-1.));
#1314=DIRECTION('ref_axis',(-1.,0.,0.));
#1315=DIRECTION('center_axis',(-1.,4.44089209850056E-15,0.));
#1316=DIRECTION('ref_axis',(4.44089209850056E-15,1.,0.));
#1317=DIRECTION('center_axis',(-1.,0.,0.));
#1318=DIRECTION('ref_axis',(0.,0.707106781186548,-0.707106781186548));
#1319=DIRECTION('center_axis',(-1.,0.,0.));
#1320=DIRECTION('ref_axis',(0.,1.,0.));
#1321=DIRECTION('center_axis',(0.,0.,-1.));
#1322=DIRECTION('ref_axis',(-1.,0.,0.));
#1323=DIRECTION('center_axis',(0.,0.,1.));
#1324=DIRECTION('ref_axis',(-1.,0.,0.));
#1325=DIRECTION('',(0.,0.,-1.));
#1326=DIRECTION('center_axis',(0.,0.,-1.));
#1327=DIRECTION('ref_axis',(-1.,0.,0.));
#1328=DIRECTION('center_axis',(0.,0.,1.));
#1329=DIRECTION('ref_axis',(-1.,0.,0.));
#1330=DIRECTION('',(0.,0.,-1.));
#1331=DIRECTION('center_axis',(0.,0.,-1.));
#1332=DIRECTION('ref_axis',(-1.,0.,0.));
#1333=DIRECTION('center_axis',(0.,0.,1.));
#1334=DIRECTION('ref_axis',(-1.,0.,0.));
#1335=DIRECTION('',(0.,0.,-1.));
#1336=DIRECTION('center_axis',(0.,0.,-1.));
#1337=DIRECTION('ref_axis',(-1.,0.,0.));
#1338=DIRECTION('center_axis',(0.,0.,1.));
#1339=DIRECTION('ref_axis',(-1.,0.,0.));
#1340=DIRECTION('',(0.,0.,-1.));
#1341=DIRECTION('center_axis',(0.,0.,-1.));
#1342=DIRECTION('ref_axis',(-1.,0.,0.));
#1343=DIRECTION('center_axis',(0.,0.,1.));
#1344=DIRECTION('ref_axis',(-0.781249999999996,0.624218261107449,0.));
#1345=DIRECTION('',(0.,0.,1.));
#1346=DIRECTION('center_axis',(0.,0.,1.));
#1347=DIRECTION('ref_axis',(-0.781249999999996,0.624218261107449,0.));
#1348=DIRECTION('center_axis',(1.,0.,0.));
#1349=DIRECTION('ref_axis',(0.,1.,0.));
#1350=DIRECTION('',(0.,0.,1.));
#1351=DIRECTION('',(0.,-1.,0.));
#1352=DIRECTION('center_axis',(0.,0.,1.));
#1353=DIRECTION('ref_axis',(-1.,0.,0.));
#1354=DIRECTION('',(0.,0.,1.));
#1355=DIRECTION('center_axis',(0.,0.,1.));
#1356=DIRECTION('ref_axis',(-1.,0.,0.));
#1357=DIRECTION('center_axis',(0.,0.,1.));
#1358=DIRECTION('ref_axis',(-0.624218261107451,-0.781249999999994,0.));
#1359=DIRECTION('',(0.,0.,1.));
#1360=DIRECTION('center_axis',(0.,0.,1.));
#1361=DIRECTION('ref_axis',(-0.624218261107451,-0.781249999999994,0.));
#1362=DIRECTION('center_axis',(0.,0.,1.));
#1363=DIRECTION('ref_axis',(0.624218261107443,0.78125,0.));
#1364=DIRECTION('',(0.,0.,1.));
#1365=DIRECTION('center_axis',(0.,0.,1.));
#1366=DIRECTION('ref_axis',(0.624218261107443,0.78125,0.));
#1367=DIRECTION('center_axis',(0.,-1.,0.));
#1368=DIRECTION('ref_axis',(1.,0.,0.));
#1369=DIRECTION('',(0.,0.,1.));
#1370=DIRECTION('',(-1.,0.,0.));
#1371=DIRECTION('center_axis',(0.,0.,1.));
#1372=DIRECTION('ref_axis',(0.,1.,0.));
#1373=DIRECTION('',(0.,0.,1.));
#1374=DIRECTION('center_axis',(0.,0.,1.));
#1375=DIRECTION('ref_axis',(0.,1.,0.));
#1376=DIRECTION('center_axis',(0.,0.,1.));
#1377=DIRECTION('ref_axis',(-0.781250000000006,0.624218261107436,0.));
#1378=DIRECTION('center_axis',(0.,0.,1.));
#1379=DIRECTION('ref_axis',(-0.781250000000006,0.624218261107436,0.));
#1380=DIRECTION('center_axis',(0.,0.,1.));
#1381=DIRECTION('ref_axis',(-1.,0.,0.));
#1382=CARTESIAN_POINT('',(0.,0.,0.));
#1383=CARTESIAN_POINT('Origin',(32.999999612144,336.017890710305,179.431729987896));
#1384=CARTESIAN_POINT('',(35.3437496121441,334.145235926983,179.931729987896));
#1385=CARTESIAN_POINT('',(35.7343746121441,333.833126796429,179.431729987896));
#1386=CARTESIAN_POINT('Origin',(35.3437496121441,334.145235926983,179.431729987896));
#1387=CARTESIAN_POINT('',(30.815235698268,338.752265710305,179.431729987896));
#1388=CARTESIAN_POINT('Origin',(32.999999612144,336.017890710305,179.431729987896));
#1389=CARTESIAN_POINT('',(31.1273448288217,338.361640710305,179.931729987896));
#1390=CARTESIAN_POINT('Origin',(31.1273448288217,338.361640710305,179.431729987896));
#1391=CARTESIAN_POINT('Origin',(32.999999612144,336.017890710305,179.931729987896));
#1392=CARTESIAN_POINT('Origin',(23.0125074344249,348.517890710305,179.431729987896));
#1393=CARTESIAN_POINT('',(23.0125074344249,336.017890710305,179.431729987896));
#1394=CARTESIAN_POINT('',(23.0125074344249,335.517890710305,179.931729987896));
#1395=CARTESIAN_POINT('Origin',(23.0125074344249,335.517890710305,179.431729987896));
#1396=CARTESIAN_POINT('Origin',(23.0125074344249,348.517890710305,179.931729987896));
#1397=CARTESIAN_POINT('Origin',(23.0125074344249,348.517890710305,179.431729987896));
#1398=CARTESIAN_POINT('Origin',(21.7562535232845,335.517890710305,179.431729987896));
#1399=CARTESIAN_POINT('',(17.9874917898632,336.017890710305,179.431729987896));
#1400=CARTESIAN_POINT('',(17.9874917898632,335.517890710305,179.931729987896));
#1401=CARTESIAN_POINT('Origin',(17.9874917898632,335.517890710305,179.431729987896));
#1402=CARTESIAN_POINT('',(21.7562535232845,335.517890710305,179.931729987896));
#1403=CARTESIAN_POINT('',(21.7562535232845,336.017890710305,179.431729987896));
#1404=CARTESIAN_POINT('Origin',(17.9874917898631,348.517890710305,179.431729987896));
#1405=CARTESIAN_POINT('',(10.1847635260202,338.752265710305,179.431729987896));
#1406=CARTESIAN_POINT('',(9.87265439546645,338.361640710305,179.931729987896));
#1407=CARTESIAN_POINT('Origin',(9.87265439546645,338.361640710305,179.431729987896));
#1408=CARTESIAN_POINT('Origin',(17.9874917898631,348.517890710305,179.931729987896));
#1409=CARTESIAN_POINT('Origin',(17.9874917898631,348.517890710305,179.431729987896));
#1410=CARTESIAN_POINT('Origin',(7.99999961214413,336.017890710305,179.431729987896));
#1411=CARTESIAN_POINT('',(5.26562461214412,333.833126796429,179.431729987896));
#1412=CARTESIAN_POINT('',(5.65624961214411,334.145235926983,179.931729987896));
#1413=CARTESIAN_POINT('Origin',(5.65624961214411,334.145235926983,179.431729987896));
#1414=CARTESIAN_POINT('Origin',(7.99999961214413,336.017890710305,179.931729987896));
#1415=CARTESIAN_POINT('Origin',(7.99999961214413,336.017890710305,179.431729987896));
#1416=CARTESIAN_POINT('Origin',(-4.50000038785593,326.030398532586,179.431729987896));
#1417=CARTESIAN_POINT('',(7.99999961214407,326.030398532586,179.431729987896));
#1418=CARTESIAN_POINT('',(8.49999961214407,326.030398532586,179.931729987896));
#1419=CARTESIAN_POINT('Origin',(8.49999961214407,326.030398532586,179.431729987896));
#1420=CARTESIAN_POINT('Origin',(-4.50000038785593,326.030398532586,179.931729987896));
#1421=CARTESIAN_POINT('Origin',(-4.50000038785593,326.030398532586,179.431729987896));
#1422=CARTESIAN_POINT('Origin',(8.49999961214407,324.774144621445,179.431729987896));
#1423=CARTESIAN_POINT('',(7.99999961214408,321.005382888024,179.431729987896));
#1424=CARTESIAN_POINT('',(8.49999961214407,321.005382888024,179.931729987896));
#1425=CARTESIAN_POINT('Origin',(8.49999961214407,321.005382888024,179.431729987896));
#1426=CARTESIAN_POINT('',(8.49999961214407,324.774144621445,179.931729987896));
#1427=CARTESIAN_POINT('',(7.99999961214407,324.774144621445,179.431729987896));
#1428=CARTESIAN_POINT('Origin',(-4.50000038785592,321.005382888024,179.431729987896));
#1429=CARTESIAN_POINT('',(5.26562461214407,313.202654624181,179.431729987896));
#1430=CARTESIAN_POINT('',(5.65624961214407,312.890545493627,179.931729987896));
#1431=CARTESIAN_POINT('Origin',(5.65624961214407,312.890545493627,179.431729987896));
#1432=CARTESIAN_POINT('Origin',(-4.50000038785592,321.005382888024,179.931729987896));
#1433=CARTESIAN_POINT('Origin',(-4.50000038785592,321.005382888024,179.431729987896));
#1434=CARTESIAN_POINT('Origin',(7.99999961214407,311.017890710305,179.431729987896));
#1435=CARTESIAN_POINT('',(10.1847635260201,308.283515710305,179.431729987896));
#1436=CARTESIAN_POINT('',(9.87265439546631,308.674140710305,179.931729987896));
#1437=CARTESIAN_POINT('Origin',(9.87265439546631,308.674140710305,179.431729987896));
#1438=CARTESIAN_POINT('Origin',(7.99999961214407,311.017890710305,179.931729987896));
#1439=CARTESIAN_POINT('Origin',(7.99999961214407,311.017890710305,179.431729987896));
#1440=CARTESIAN_POINT('Origin',(17.9874917898632,298.517890710305,179.431729987896));
#1441=CARTESIAN_POINT('',(17.9874917898632,311.017890710305,179.431729987896));
#1442=CARTESIAN_POINT('',(17.9874917898632,311.517890710305,179.931729987896));
#1443=CARTESIAN_POINT('Origin',(17.9874917898632,311.517890710305,179.431729987896));
#1444=CARTESIAN_POINT('Origin',(17.9874917898632,298.517890710305,179.931729987896));
#1445=CARTESIAN_POINT('Origin',(17.9874917898632,298.517890710305,179.431729987896));
#1446=CARTESIAN_POINT('Origin',(19.2437457010036,311.517890710305,179.431729987896));
#1447=CARTESIAN_POINT('',(23.012507434425,311.017890710305,179.431729987896));
#1448=CARTESIAN_POINT('',(23.012507434425,311.517890710305,179.931729987896));
#1449=CARTESIAN_POINT('Origin',(23.012507434425,311.517890710305,179.431729987896));
#1450=CARTESIAN_POINT('',(19.2437457010036,311.517890710305,179.931729987896));
#1451=CARTESIAN_POINT('',(19.2437457010036,311.017890710305,179.431729987896));
#1452=CARTESIAN_POINT('Origin',(23.012507434425,298.517890710305,179.431729987896));
#1453=CARTESIAN_POINT('',(30.815235698268,308.283515710305,179.431729987896));
#1454=CARTESIAN_POINT('',(31.1273448288217,308.674140710305,179.931729987896));
#1455=CARTESIAN_POINT('Origin',(31.1273448288217,308.674140710305,179.431729987896));
#1456=CARTESIAN_POINT('Origin',(23.012507434425,298.517890710305,179.931729987896));
#1457=CARTESIAN_POINT('Origin',(23.012507434425,298.517890710305,179.431729987896));
#1458=CARTESIAN_POINT('Origin',(32.9999996121441,311.017890710305,179.431729987896));
#1459=CARTESIAN_POINT('',(35.7343746121441,313.202654624181,179.431729987896));
#1460=CARTESIAN_POINT('',(35.343749612144,312.890545493627,179.931729987896));
#1461=CARTESIAN_POINT('Origin',(35.343749612144,312.890545493627,179.431729987896));
#1462=CARTESIAN_POINT('Origin',(32.9999996121441,311.017890710305,179.931729987896));
#1463=CARTESIAN_POINT('Origin',(32.9999996121441,311.017890710305,179.431729987896));
#1464=CARTESIAN_POINT('Origin',(45.4999996121441,321.005382888024,179.431729987896));
#1465=CARTESIAN_POINT('',(32.9999996121441,321.005382888024,179.431729987896));
#1466=CARTESIAN_POINT('',(32.4999996121441,321.005382888024,179.931729987896));
#1467=CARTESIAN_POINT('Origin',(32.4999996121441,321.005382888024,179.431729987896));
#1468=CARTESIAN_POINT('Origin',(45.4999996121441,321.005382888024,179.931729987896));
#1469=CARTESIAN_POINT('Origin',(45.4999996121441,321.005382888024,179.431729987896));
#1470=CARTESIAN_POINT('Origin',(32.4999996121441,322.261636799165,179.431729987896));
#1471=CARTESIAN_POINT('',(32.9999996121441,326.030398532586,179.431729987896));
#1472=CARTESIAN_POINT('',(32.4999996121441,326.030398532586,179.931729987896));
#1473=CARTESIAN_POINT('Origin',(32.4999996121441,326.030398532586,179.431729987896));
#1474=CARTESIAN_POINT('',(32.4999996121441,322.261636799165,179.931729987896));
#1475=CARTESIAN_POINT('',(32.9999996121441,322.261636799165,179.431729987896));
#1476=CARTESIAN_POINT('Origin',(45.4999996121441,326.030398532586,179.431729987896));
#1477=CARTESIAN_POINT('Origin',(45.4999996121441,326.030398532586,179.931729987896));
#1478=CARTESIAN_POINT('Origin',(45.4999996121441,326.030398532586,179.431729987896));
#1479=CARTESIAN_POINT('Origin',(-4.50000038785592,321.005382888024,177.931729987896));
#1480=CARTESIAN_POINT('',(7.99999961214408,321.005382888024,177.931729987896));
#1481=CARTESIAN_POINT('',(7.99999961214408,321.005382888024,177.931729987896));
#1482=CARTESIAN_POINT('',(5.26562461214407,313.202654624181,177.931729987896));
#1483=CARTESIAN_POINT('Origin',(-4.50000038785592,321.005382888024,177.931729987896));
#1484=CARTESIAN_POINT('',(5.26562461214407,313.202654624181,177.931729987896));
#1485=CARTESIAN_POINT('Origin',(7.99999961214407,326.030398532586,177.931729987896));
#1486=CARTESIAN_POINT('',(7.99999961214407,326.030398532586,177.931729987896));
#1487=CARTESIAN_POINT('',(7.99999961214407,326.030398532586,177.931729987896));
#1488=CARTESIAN_POINT('',(7.99999961214407,321.005382888024,177.931729987896));
#1489=CARTESIAN_POINT('Origin',(-4.50000038785593,326.030398532586,177.931729987896));
#1490=CARTESIAN_POINT('',(5.26562461214412,333.833126796429,177.931729987896));
#1491=CARTESIAN_POINT('',(5.26562461214412,333.833126796429,177.931729987896));
#1492=CARTESIAN_POINT('Origin',(-4.50000038785593,326.030398532586,177.931729987896));
#1493=CARTESIAN_POINT('Origin',(7.99999961214413,336.017890710305,177.931729987896));
#1494=CARTESIAN_POINT('',(10.1847635260202,338.752265710305,177.931729987896));
#1495=CARTESIAN_POINT('',(10.1847635260202,338.752265710305,177.931729987896));
#1496=CARTESIAN_POINT('Origin',(7.99999961214413,336.017890710305,177.931729987896));
#1497=CARTESIAN_POINT('Origin',(17.9874917898631,348.517890710305,177.931729987896));
#1498=CARTESIAN_POINT('',(17.9874917898632,336.017890710305,177.931729987896));
#1499=CARTESIAN_POINT('',(17.9874917898632,336.017890710305,177.931729987896));
#1500=CARTESIAN_POINT('Origin',(17.9874917898631,348.517890710305,177.931729987896));
#1501=CARTESIAN_POINT('Origin',(23.0125074344249,336.017890710305,177.931729987896));
#1502=CARTESIAN_POINT('',(23.0125074344249,336.017890710305,177.931729987896));
#1503=CARTESIAN_POINT('',(23.0125074344249,336.017890710305,177.931729987896));
#1504=CARTESIAN_POINT('',(17.9874917898632,336.017890710305,177.931729987896));
#1505=CARTESIAN_POINT('Origin',(23.0125074344249,348.517890710305,177.931729987896));
#1506=CARTESIAN_POINT('',(30.815235698268,338.752265710305,177.931729987896));
#1507=CARTESIAN_POINT('',(30.815235698268,338.752265710305,177.931729987896));
#1508=CARTESIAN_POINT('Origin',(23.0125074344249,348.517890710305,177.931729987896));
#1509=CARTESIAN_POINT('Origin',(32.999999612144,336.017890710305,177.931729987896));
#1510=CARTESIAN_POINT('',(35.7343746121441,333.833126796429,177.931729987896));
#1511=CARTESIAN_POINT('',(35.7343746121441,333.833126796429,177.931729987896));
#1512=CARTESIAN_POINT('Origin',(32.999999612144,336.017890710305,177.931729987896));
#1513=CARTESIAN_POINT('Origin',(20.4999996121441,323.517890710305,179.931729987896));
#1514=CARTESIAN_POINT('',(30.9999996121441,318.017890710305,179.931729987896));
#1515=CARTESIAN_POINT('',(30.9999996121441,329.017890710305,179.931729987896));
#1516=CARTESIAN_POINT('',(30.9999996121441,320.767890710305,179.931729987896));
#1517=CARTESIAN_POINT('',(25.9999996121441,313.017890710305,179.931729987896));
#1518=CARTESIAN_POINT('Origin',(25.9999996121441,318.017890710305,179.931729987896));
#1519=CARTESIAN_POINT('',(14.9999996121441,313.017890710305,179.931729987896));
#1520=CARTESIAN_POINT('',(17.7499996121441,313.017890710305,179.931729987896));
#1521=CARTESIAN_POINT('',(9.99999961214408,318.017890710305,179.931729987896));
#1522=CARTESIAN_POINT('Origin',(14.9999996121441,318.017890710305,179.931729987896));
#1523=CARTESIAN_POINT('',(9.99999961214408,329.017890710305,179.931729987896));
#1524=CARTESIAN_POINT('',(9.99999961214408,326.267890710305,179.931729987896));
#1525=CARTESIAN_POINT('',(14.9999996121441,334.017890710305,179.931729987896));
#1526=CARTESIAN_POINT('Origin',(14.9999996121441,329.017890710305,179.931729987896));
#1527=CARTESIAN_POINT('',(25.9999996121441,334.017890710305,179.931729987896));
#1528=CARTESIAN_POINT('',(23.2499996121441,334.017890710305,179.931729987896));
#1529=CARTESIAN_POINT('Origin',(25.9999996121441,329.017890710305,179.931729987896));
#1530=CARTESIAN_POINT('',(34.5999996121441,311.017890710305,179.931729987896));
#1531=CARTESIAN_POINT('Origin',(32.9999996121441,311.017890710305,179.931729987896));
#1532=CARTESIAN_POINT('',(34.5999996121441,336.017890710305,179.931729987896));
#1533=CARTESIAN_POINT('Origin',(32.9999996121441,336.017890710305,179.931729987896));
#1534=CARTESIAN_POINT('',(9.59999961214407,311.017890710305,179.931729987896));
#1535=CARTESIAN_POINT('Origin',(7.99999961214407,311.017890710305,179.931729987896));
#1536=CARTESIAN_POINT('',(9.59999961214407,336.017890710305,179.931729987896));
#1537=CARTESIAN_POINT('Origin',(7.99999961214407,336.017890710305,179.931729987896));
#1538=CARTESIAN_POINT('Ctrl Pts',(30.338561784378,329.017890710305,180.181729987896));
#1539=CARTESIAN_POINT('Ctrl Pts',(30.338561784378,333.356452882539,180.181729987896));
#1540=CARTESIAN_POINT('Ctrl Pts',(25.9999996121441,333.356452882539,180.181729987896));
#1541=CARTESIAN_POINT('Ctrl Pts',(29.4881417201072,329.017890710305,180.931729987896));
#1542=CARTESIAN_POINT('Ctrl Pts',(29.4881417201072,332.506032818268,180.931729987896));
#1543=CARTESIAN_POINT('Ctrl Pts',(25.9999996121441,332.506032818268,180.931729987896));
#1544=CARTESIAN_POINT('Ctrl Pts',(28.3542483010795,329.017890710305,180.931729987896));
#1545=CARTESIAN_POINT('Ctrl Pts',(28.3542483010795,331.37213939924,180.931729987896));
#1546=CARTESIAN_POINT('Ctrl Pts',(25.9999996121441,331.37213939924,180.931729987896));
#1547=CARTESIAN_POINT('',(28.3542483010795,329.017890710305,180.931729987896));
#1548=CARTESIAN_POINT('',(30.338561784378,329.017890710305,180.181729987896));
#1549=CARTESIAN_POINT('Origin',(28.3542483010795,329.017890710305,177.931729987896));
#1550=CARTESIAN_POINT('',(25.9999996121441,333.356452882539,180.181729987896));
#1551=CARTESIAN_POINT('Origin',(25.9999996121441,329.017890710305,180.181729987896));
#1552=CARTESIAN_POINT('',(25.9999996121441,331.37213939924,180.931729987896));
#1553=CARTESIAN_POINT('Origin',(25.9999996121441,331.37213939924,177.931729987896));
#1554=CARTESIAN_POINT('Origin',(25.9999996121441,329.017890710305,180.931729987896));
#1555=CARTESIAN_POINT('Origin',(23.2499996121441,331.37213939924,177.931729987896));
#1556=CARTESIAN_POINT('',(14.9999996121441,333.356452882539,180.181729987896));
#1557=CARTESIAN_POINT('',(14.9999996121441,331.37213939924,180.931729987896));
#1558=CARTESIAN_POINT('Origin',(14.9999996121441,331.37213939924,177.931729987896));
#1559=CARTESIAN_POINT('',(23.2499996121441,331.37213939924,180.931729987896));
#1560=CARTESIAN_POINT('',(23.2499996121441,333.356452882539,180.181729987896));
#1561=CARTESIAN_POINT('Ctrl Pts',(14.9999996121441,333.356452882539,180.181729987896));
#1562=CARTESIAN_POINT('Ctrl Pts',(10.6614374399102,333.356452882539,180.181729987896));
#1563=CARTESIAN_POINT('Ctrl Pts',(10.6614374399102,329.017890710305,180.181729987896));
#1564=CARTESIAN_POINT('Ctrl Pts',(14.9999996121441,332.506032818268,180.931729987896));
#1565=CARTESIAN_POINT('Ctrl Pts',(11.511857504181,332.506032818268,180.931729987896));
#1566=CARTESIAN_POINT('Ctrl Pts',(11.511857504181,329.017890710305,180.931729987896));
#1567=CARTESIAN_POINT('Ctrl Pts',(14.9999996121441,331.37213939924,180.931729987896));
#1568=CARTESIAN_POINT('Ctrl Pts',(12.6457509232087,331.37213939924,180.931729987896));
#1569=CARTESIAN_POINT('Ctrl Pts',(12.6457509232087,329.017890710305,180.931729987896));
#1570=CARTESIAN_POINT('',(10.6614374399102,329.017890710305,180.181729987896));
#1571=CARTESIAN_POINT('',(12.6457509232087,329.017890710305,180.931729987896));
#1572=CARTESIAN_POINT('Origin',(12.6457509232087,329.017890710305,177.931729987896));
#1573=CARTESIAN_POINT('Origin',(14.9999996121441,329.017890710305,180.931729987896));
#1574=CARTESIAN_POINT('Origin',(14.9999996121441,329.017890710305,180.181729987896));
#1575=CARTESIAN_POINT('Origin',(12.6457509232086,326.267890710305,177.931729987896));
#1576=CARTESIAN_POINT('',(10.6614374399102,318.017890710305,180.181729987896));
#1577=CARTESIAN_POINT('',(12.6457509232087,318.017890710305,180.931729987896));
#1578=CARTESIAN_POINT('Origin',(12.6457509232087,318.017890710305,177.931729987896));
#1579=CARTESIAN_POINT('',(12.6457509232086,326.267890710305,180.931729987896));
#1580=CARTESIAN_POINT('',(10.6614374399102,326.267890710305,180.181729987896));
#1581=CARTESIAN_POINT('Ctrl Pts',(10.6614374399102,318.017890710305,180.181729987896));
#1582=CARTESIAN_POINT('Ctrl Pts',(10.6614374399102,313.679328538071,180.181729987896));
#1583=CARTESIAN_POINT('Ctrl Pts',(14.9999996121441,313.679328538071,180.181729987896));
#1584=CARTESIAN_POINT('Ctrl Pts',(11.511857504181,318.017890710305,180.931729987896));
#1585=CARTESIAN_POINT('Ctrl Pts',(11.511857504181,314.529748602342,180.931729987896));
#1586=CARTESIAN_POINT('Ctrl Pts',(14.9999996121441,314.529748602342,180.931729987896));
#1587=CARTESIAN_POINT('Ctrl Pts',(12.6457509232087,318.017890710305,180.931729987896));
#1588=CARTESIAN_POINT('Ctrl Pts',(12.6457509232087,315.663642021369,180.931729987896));
#1589=CARTESIAN_POINT('Ctrl Pts',(14.9999996121441,315.663642021369,180.931729987896));
#1590=CARTESIAN_POINT('',(14.9999996121441,313.679328538071,180.181729987896));
#1591=CARTESIAN_POINT('',(14.9999996121441,315.663642021369,180.931729987896));
#1592=CARTESIAN_POINT('Origin',(14.9999996121441,315.663642021369,177.931729987896));
#1593=CARTESIAN_POINT('Origin',(14.9999996121441,318.017890710305,180.931729987896));
#1594=CARTESIAN_POINT('Origin',(14.9999996121441,318.017890710305,180.181729987896));
#1595=CARTESIAN_POINT('Origin',(17.7499996121441,315.663642021369,177.931729987896));
#1596=CARTESIAN_POINT('',(25.9999996121441,313.679328538071,180.181729987896));
#1597=CARTESIAN_POINT('',(25.9999996121441,315.663642021369,180.931729987896));
#1598=CARTESIAN_POINT('Origin',(25.9999996121441,315.663642021369,177.931729987896));
#1599=CARTESIAN_POINT('',(17.7499996121441,315.663642021369,180.931729987896));
#1600=CARTESIAN_POINT('',(17.7499996121441,313.679328538071,180.181729987896));
#1601=CARTESIAN_POINT('Ctrl Pts',(25.9999996121441,313.679328538071,180.181729987896));
#1602=CARTESIAN_POINT('Ctrl Pts',(30.338561784378,313.679328538071,180.181729987896));
#1603=CARTESIAN_POINT('Ctrl Pts',(30.3385617843779,318.017890710305,180.181729987896));
#1604=CARTESIAN_POINT('Ctrl Pts',(25.9999996121441,314.529748602342,180.931729987896));
#1605=CARTESIAN_POINT('Ctrl Pts',(29.4881417201072,314.529748602342,180.931729987896));
#1606=CARTESIAN_POINT('Ctrl Pts',(29.4881417201072,318.017890710305,180.931729987896));
#1607=CARTESIAN_POINT('Ctrl Pts',(25.9999996121441,315.663642021369,180.931729987896));
#1608=CARTESIAN_POINT('Ctrl Pts',(28.3542483010795,315.663642021369,180.931729987896));
#1609=CARTESIAN_POINT('Ctrl Pts',(28.3542483010795,318.017890710305,180.931729987896));
#1610=CARTESIAN_POINT('',(30.338561784378,318.017890710305,180.181729987896));
#1611=CARTESIAN_POINT('',(28.3542483010795,318.017890710305,180.931729987896));
#1612=CARTESIAN_POINT('Origin',(28.3542483010795,318.017890710305,177.931729987896));
#1613=CARTESIAN_POINT('Origin',(25.9999996121441,318.017890710305,180.931729987896));
#1614=CARTESIAN_POINT('Origin',(25.9999996121441,318.017890710305,180.181729987896));
#1615=CARTESIAN_POINT('Origin',(28.3542483010795,320.767890710305,177.931729987896));
#1616=CARTESIAN_POINT('',(28.3542483010795,320.767890710305,180.931729987896));
#1617=CARTESIAN_POINT('',(30.3385617843779,320.767890710305,180.181729987896));
#1618=CARTESIAN_POINT('Origin',(9.99999961214408,326.267890710305,180.931729987896));
#1619=CARTESIAN_POINT('Origin',(9.99999961214408,329.017890710305,180.931729987896));
#1620=CARTESIAN_POINT('Origin',(9.99999961214408,318.017890710305,180.931729987896));
#1621=CARTESIAN_POINT('Origin',(14.9999996121441,329.017890710305,180.931729987896));
#1622=CARTESIAN_POINT('Origin',(14.9999996121441,334.017890710305,180.931729987896));
#1623=CARTESIAN_POINT('Origin',(23.2499996121441,334.017890710305,180.931729987896));
#1624=CARTESIAN_POINT('Origin',(25.9999996121441,334.017890710305,180.931729987896));
#1625=CARTESIAN_POINT('Origin',(25.9999996121441,329.017890710305,180.931729987896));
#1626=CARTESIAN_POINT('Origin',(30.9999996121441,329.017890710305,180.931729987896));
#1627=CARTESIAN_POINT('Origin',(20.4999996121441,323.517890710305,180.931729987896));
#1628=CARTESIAN_POINT('Origin',(30.9999996121441,320.767890710305,180.931729987896));
#1629=CARTESIAN_POINT('Origin',(30.9999996121441,318.017890710305,180.931729987896));
#1630=CARTESIAN_POINT('Origin',(25.9999996121441,318.017890710305,180.931729987896));
#1631=CARTESIAN_POINT('Origin',(25.9999996121441,313.017890710305,180.931729987896));
#1632=CARTESIAN_POINT('Origin',(17.7499996121441,313.017890710305,180.931729987896));
#1633=CARTESIAN_POINT('Origin',(14.9999996121441,313.017890710305,180.931729987896));
#1634=CARTESIAN_POINT('Origin',(14.9999996121441,318.017890710305,180.931729987896));
#1635=CARTESIAN_POINT('Origin',(7.99999961214407,336.017890710305,177.931729987896));
#1636=CARTESIAN_POINT('',(9.59999961214408,336.017890710305,177.931729987896));
#1637=CARTESIAN_POINT('',(9.59999961214408,336.017890710305,177.931729987896));
#1638=CARTESIAN_POINT('Origin',(7.99999961214407,336.017890710305,177.931729987896));
#1639=CARTESIAN_POINT('Origin',(7.99999961214407,311.017890710305,177.931729987896));
#1640=CARTESIAN_POINT('',(9.59999961214408,311.017890710305,177.931729987896));
#1641=CARTESIAN_POINT('',(9.59999961214408,311.017890710305,177.931729987896));
#1642=CARTESIAN_POINT('Origin',(7.99999961214407,311.017890710305,177.931729987896));
#1643=CARTESIAN_POINT('Origin',(32.9999996121441,336.017890710305,177.931729987896));
#1644=CARTESIAN_POINT('',(34.5999996121441,336.017890710305,177.931729987896));
#1645=CARTESIAN_POINT('',(34.5999996121441,336.017890710305,177.931729987896));
#1646=CARTESIAN_POINT('Origin',(32.9999996121441,336.017890710305,177.931729987896));
#1647=CARTESIAN_POINT('Origin',(32.9999996121441,311.017890710305,177.931729987896));
#1648=CARTESIAN_POINT('',(34.5999996121441,311.017890710305,177.931729987896));
#1649=CARTESIAN_POINT('',(34.5999996121441,311.017890710305,177.931729987896));
#1650=CARTESIAN_POINT('Origin',(32.9999996121441,311.017890710305,177.931729987896));
#1651=CARTESIAN_POINT('Origin',(45.4999996121441,326.030398532586,177.931729987896));
#1652=CARTESIAN_POINT('',(32.9999996121441,326.030398532586,177.931729987896));
#1653=CARTESIAN_POINT('',(32.9999996121441,326.030398532586,177.931729987896));
#1654=CARTESIAN_POINT('Origin',(45.4999996121441,326.030398532586,177.931729987896));
#1655=CARTESIAN_POINT('Origin',(32.9999996121441,321.005382888024,177.931729987896));
#1656=CARTESIAN_POINT('',(32.9999996121441,321.005382888024,177.931729987896));
#1657=CARTESIAN_POINT('',(32.9999996121441,321.005382888024,177.931729987896));
#1658=CARTESIAN_POINT('',(32.9999996121441,326.030398532586,177.931729987896));
#1659=CARTESIAN_POINT('Origin',(45.4999996121441,321.005382888024,177.931729987896));
#1660=CARTESIAN_POINT('',(35.7343746121441,313.202654624181,177.931729987896));
#1661=CARTESIAN_POINT('',(35.7343746121441,313.202654624181,177.931729987896));
#1662=CARTESIAN_POINT('Origin',(45.4999996121441,321.005382888024,177.931729987896));
#1663=CARTESIAN_POINT('Origin',(32.9999996121441,311.017890710305,177.931729987896));
#1664=CARTESIAN_POINT('',(30.815235698268,308.283515710305,177.931729987896));
#1665=CARTESIAN_POINT('',(30.815235698268,308.283515710305,177.931729987896));
#1666=CARTESIAN_POINT('Origin',(32.9999996121441,311.017890710305,177.931729987896));
#1667=CARTESIAN_POINT('Origin',(23.012507434425,298.517890710305,177.931729987896));
#1668=CARTESIAN_POINT('',(23.012507434425,311.017890710305,177.931729987896));
#1669=CARTESIAN_POINT('',(23.012507434425,311.017890710305,177.931729987896));
#1670=CARTESIAN_POINT('Origin',(23.012507434425,298.517890710305,177.931729987896));
#1671=CARTESIAN_POINT('Origin',(17.9874917898632,311.017890710305,177.931729987896));
#1672=CARTESIAN_POINT('',(17.9874917898632,311.017890710305,177.931729987896));
#1673=CARTESIAN_POINT('',(17.9874917898632,311.017890710305,177.931729987896));
#1674=CARTESIAN_POINT('',(23.012507434425,311.017890710305,177.931729987896));
#1675=CARTESIAN_POINT('Origin',(17.9874917898632,298.517890710305,177.931729987896));
#1676=CARTESIAN_POINT('',(10.1847635260201,308.283515710305,177.931729987896));
#1677=CARTESIAN_POINT('',(10.1847635260201,308.283515710305,177.931729987896));
#1678=CARTESIAN_POINT('Origin',(17.9874917898632,298.517890710305,177.931729987896));
#1679=CARTESIAN_POINT('Origin',(7.99999961214407,311.017890710305,177.931729987896));
#1680=CARTESIAN_POINT('Origin',(7.99999961214407,311.017890710305,177.931729987896));
#1681=CARTESIAN_POINT('Origin',(20.4999996121441,323.517890710305,177.931729987896));
#1682=UNCERTAINTY_MEASURE_WITH_UNIT(LENGTH_MEASURE(0.01),#1686,
'DISTANCE_ACCURACY_VALUE',
'Maximum model space distance between geometric entities at asserted c
onnectivities');
#1683=UNCERTAINTY_MEASURE_WITH_UNIT(LENGTH_MEASURE(0.01),#1686,
'DISTANCE_ACCURACY_VALUE',
'Maximum model space distance between geometric entities at asserted c
onnectivities');
#1684=(
GEOMETRIC_REPRESENTATION_CONTEXT(3)
GLOBAL_UNCERTAINTY_ASSIGNED_CONTEXT((#1682))
GLOBAL_UNIT_ASSIGNED_CONTEXT((#1686,#1688,#1689))
REPRESENTATION_CONTEXT('','3D')
);
#1685=(
GEOMETRIC_REPRESENTATION_CONTEXT(3)
GLOBAL_UNCERTAINTY_ASSIGNED_CONTEXT((#1683))
GLOBAL_UNIT_ASSIGNED_CONTEXT((#1686,#1688,#1689))
REPRESENTATION_CONTEXT('','3D')
);
#1686=(
LENGTH_UNIT()
NAMED_UNIT(*)
SI_UNIT(.MILLI.,.METRE.)
);
#1687=(
LENGTH_UNIT()
NAMED_UNIT(*)
SI_UNIT($,.METRE.)
);
#1688=(
NAMED_UNIT(*)
PLANE_ANGLE_UNIT()
SI_UNIT($,.RADIAN.)
);
#1689=(
NAMED_UNIT(*)
SI_UNIT($,.STERADIAN.)
SOLID_ANGLE_UNIT()
);
#1690=SHAPE_DEFINITION_REPRESENTATION(#1691,#1692);
#1691=PRODUCT_DEFINITION_SHAPE('',$,#1694);
#1692=SHAPE_REPRESENTATION('',(#918),#1684);
#1693=PRODUCT_DEFINITION_CONTEXT('part definition',#1698,'design');
#1694=PRODUCT_DEFINITION('extention cover','extention cover',#1695,#1693);
#1695=PRODUCT_DEFINITION_FORMATION('',$,#1700);
#1696=PRODUCT_RELATED_PRODUCT_CATEGORY('extention cover',
'extention cover',(#1700));
#1697=APPLICATION_PROTOCOL_DEFINITION('international standard',
'automotive_design',2009,#1698);
#1698=APPLICATION_CONTEXT(
'Core Data for Automotive Mechanical Design Process');
#1699=PRODUCT_CONTEXT('part definition',#1698,'mechanical');
#1700=PRODUCT('extention cover','extention cover',$,(#1699));
#1701=PRESENTATION_STYLE_ASSIGNMENT((#1703));
#1702=PRESENTATION_STYLE_ASSIGNMENT((#1704));
#1703=SURFACE_STYLE_USAGE(.BOTH.,#1705);
#1704=SURFACE_STYLE_USAGE(.BOTH.,#1706);
#1705=SURFACE_SIDE_STYLE('',(#1707));
#1706=SURFACE_SIDE_STYLE('',(#1708));
#1707=SURFACE_STYLE_FILL_AREA(#1709);
#1708=SURFACE_STYLE_FILL_AREA(#1710);
#1709=FILL_AREA_STYLE('Steel - Satin',(#1711));
#1710=FILL_AREA_STYLE('ABS (White)',(#1712));
#1711=FILL_AREA_STYLE_COLOUR('Steel - Satin',#1713);
#1712=FILL_AREA_STYLE_COLOUR('ABS (White)',#1714);
#1713=COLOUR_RGB('Steel - Satin',0.627450980392157,0.627450980392157,0.627450980392157);
#1714=COLOUR_RGB('ABS (White)',0.964705882352941,0.964705882352941,0.952941176470588);
ENDSEC;
END-ISO-10303-21;
