ISO-10303-21;
HEADER;
/* Generated by software containing ST-Developer
 * from STEP Tools, Inc. (www.steptools.com) 
 */

FILE_DESCRIPTION(
/* description */ (''),
/* implementation_level */ '2;1');

FILE_NAME(
/* name */ 'Lower Leg hoop left.step',
/* time_stamp */ '2025-09-22T17:46:52+02:00',
/* author */ (''),
/* organization */ (''),
/* preprocessor_version */ 'ST-DEVELOPER v20.1',
/* originating_system */ 'Autodesk Translation Framework v14.17.0.0',
/* authorisation */ '');

FILE_SCHEMA (('AUTOMOTIVE_DESIGN { 1 0 10303 214 3 1 1 }'));
ENDSEC;

DATA;
#10=MECHANICAL_DESIGN_GEOMETRIC_PRESENTATION_REPRESENTATION('',(#17),#355);
#11=ITEM_DEFINED_TRANSFORMATION($,$,#215,#236);
#12=(
REPRESENTATION_RELATIONSHIP($,$,#366,#365)
REPRESENTATION_RELATIONSHIP_WITH_TRANSFORMATION(#11)
SHAPE_REPRESENTATION_RELATIONSHIP()
);
#13=CONTEXT_DEPENDENT_SHAPE_REPRESENTATION(#12,#364);
#14=NEXT_ASSEMBLY_USAGE_OCCURRENCE('Lower Leg hoop left:1',
'Lower Leg hoop left:1','Lower Leg hoop left:1',#368,#369,
'Lower Leg hoop left:1');
#15=SHAPE_REPRESENTATION_RELATIONSHIP('SRR','None',#366,#16);
#16=ADVANCED_BREP_SHAPE_REPRESENTATION('',(#18),#354);
#17=STYLED_ITEM('',(#380),#18);
#18=MANIFOLD_SOLID_BREP('Lower Leg',#201);
#19=CYLINDRICAL_SURFACE('',#224,2.);
#20=CYLINDRICAL_SURFACE('',#226,2.);
#21=CYLINDRICAL_SURFACE('',#228,2.);
#22=CYLINDRICAL_SURFACE('',#234,15.);
#23=CYLINDRICAL_SURFACE('',#235,7.99999999999999);
#24=FACE_BOUND('',#54,.T.);
#25=FACE_BOUND('',#55,.T.);
#26=FACE_BOUND('',#56,.T.);
#27=FACE_BOUND('',#57,.T.);
#28=FACE_BOUND('',#63,.T.);
#29=FACE_BOUND('',#64,.T.);
#30=FACE_BOUND('',#65,.T.);
#31=FACE_BOUND('',#66,.T.);
#32=CIRCLE('',#218,15.);
#33=CIRCLE('',#219,7.99999999999999);
#34=CIRCLE('',#220,2.);
#35=CIRCLE('',#221,2.);
#36=CIRCLE('',#222,2.);
#37=CIRCLE('',#225,2.);
#38=CIRCLE('',#227,2.);
#39=CIRCLE('',#229,2.);
#40=CIRCLE('',#231,15.);
#41=CIRCLE('',#232,7.99999999999999);
#42=FACE_OUTER_BOUND('',#52,.T.);
#43=FACE_OUTER_BOUND('',#53,.T.);
#44=FACE_OUTER_BOUND('',#58,.T.);
#45=FACE_OUTER_BOUND('',#59,.T.);
#46=FACE_OUTER_BOUND('',#60,.T.);
#47=FACE_OUTER_BOUND('',#61,.T.);
#48=FACE_OUTER_BOUND('',#62,.T.);
#49=FACE_OUTER_BOUND('',#67,.T.);
#50=FACE_OUTER_BOUND('',#68,.T.);
#51=FACE_OUTER_BOUND('',#69,.T.);
#52=EDGE_LOOP('',(#138,#139,#140,#141));
#53=EDGE_LOOP('',(#142,#143,#144,#145));
#54=EDGE_LOOP('',(#146));
#55=EDGE_LOOP('',(#147));
#56=EDGE_LOOP('',(#148));
#57=EDGE_LOOP('',(#149));
#58=EDGE_LOOP('',(#150,#151,#152,#153));
#59=EDGE_LOOP('',(#154,#155,#156,#157));
#60=EDGE_LOOP('',(#158,#159,#160,#161));
#61=EDGE_LOOP('',(#162,#163,#164,#165));
#62=EDGE_LOOP('',(#166,#167,#168,#169));
#63=EDGE_LOOP('',(#170));
#64=EDGE_LOOP('',(#171));
#65=EDGE_LOOP('',(#172));
#66=EDGE_LOOP('',(#173));
#67=EDGE_LOOP('',(#174,#175,#176,#177));
#68=EDGE_LOOP('',(#178,#179,#180,#181));
#69=EDGE_LOOP('',(#182,#183,#184,#185));
#70=LINE('',#302,#84);
#71=LINE('',#304,#85);
#72=LINE('',#306,#86);
#73=LINE('',#307,#87);
#74=LINE('',#310,#88);
#75=LINE('',#313,#89);
#76=LINE('',#324,#90);
#77=LINE('',#325,#91);
#78=LINE('',#328,#92);
#79=LINE('',#332,#93);
#80=LINE('',#336,#94);
#81=LINE('',#340,#95);
#82=LINE('',#345,#96);
#83=LINE('',#348,#97);
#84=VECTOR('',#243,10.);
#85=VECTOR('',#244,10.);
#86=VECTOR('',#245,10.);
#87=VECTOR('',#246,10.);
#88=VECTOR('',#249,10.);
#89=VECTOR('',#252,10.);
#90=VECTOR('',#263,10.);
#91=VECTOR('',#264,10.);
#92=VECTOR('',#267,2.);
#93=VECTOR('',#272,2.);
#94=VECTOR('',#277,2.);
#95=VECTOR('',#282,10.);
#96=VECTOR('',#289,10.);
#97=VECTOR('',#294,7.99999999999999);
#98=VERTEX_POINT('',#300);
#99=VERTEX_POINT('',#301);
#100=VERTEX_POINT('',#303);
#101=VERTEX_POINT('',#305);
#102=VERTEX_POINT('',#309);
#103=VERTEX_POINT('',#311);
#104=VERTEX_POINT('',#314);
#105=VERTEX_POINT('',#316);
#106=VERTEX_POINT('',#318);
#107=VERTEX_POINT('',#320);
#108=VERTEX_POINT('',#323);
#109=VERTEX_POINT('',#327);
#110=VERTEX_POINT('',#331);
#111=VERTEX_POINT('',#335);
#112=VERTEX_POINT('',#339);
#113=VERTEX_POINT('',#342);
#114=EDGE_CURVE('',#98,#99,#70,.T.);
#115=EDGE_CURVE('',#99,#100,#71,.T.);
#116=EDGE_CURVE('',#100,#101,#72,.T.);
#117=EDGE_CURVE('',#101,#98,#73,.T.);
#118=EDGE_CURVE('',#102,#101,#74,.T.);
#119=EDGE_CURVE('',#103,#102,#32,.T.);
#120=EDGE_CURVE('',#98,#103,#75,.T.);
#121=EDGE_CURVE('',#104,#104,#33,.T.);
#122=EDGE_CURVE('',#105,#105,#34,.T.);
#123=EDGE_CURVE('',#106,#106,#35,.T.);
#124=EDGE_CURVE('',#107,#107,#36,.T.);
#125=EDGE_CURVE('',#100,#108,#76,.T.);
#126=EDGE_CURVE('',#102,#108,#77,.T.);
#127=EDGE_CURVE('',#107,#109,#78,.T.);
#128=EDGE_CURVE('',#109,#109,#37,.T.);
#129=EDGE_CURVE('',#106,#110,#79,.T.);
#130=EDGE_CURVE('',#110,#110,#38,.T.);
#131=EDGE_CURVE('',#105,#111,#80,.T.);
#132=EDGE_CURVE('',#111,#111,#39,.T.);
#133=EDGE_CURVE('',#112,#99,#81,.T.);
#134=EDGE_CURVE('',#112,#108,#40,.T.);
#135=EDGE_CURVE('',#113,#113,#41,.T.);
#136=EDGE_CURVE('',#103,#112,#82,.T.);
#137=EDGE_CURVE('',#104,#113,#83,.T.);
#138=ORIENTED_EDGE('',*,*,#114,.T.);
#139=ORIENTED_EDGE('',*,*,#115,.T.);
#140=ORIENTED_EDGE('',*,*,#116,.T.);
#141=ORIENTED_EDGE('',*,*,#117,.T.);
#142=ORIENTED_EDGE('',*,*,#117,.F.);
#143=ORIENTED_EDGE('',*,*,#118,.F.);
#144=ORIENTED_EDGE('',*,*,#119,.F.);
#145=ORIENTED_EDGE('',*,*,#120,.F.);
#146=ORIENTED_EDGE('',*,*,#121,.F.);
#147=ORIENTED_EDGE('',*,*,#122,.T.);
#148=ORIENTED_EDGE('',*,*,#123,.T.);
#149=ORIENTED_EDGE('',*,*,#124,.T.);
#150=ORIENTED_EDGE('',*,*,#116,.F.);
#151=ORIENTED_EDGE('',*,*,#125,.T.);
#152=ORIENTED_EDGE('',*,*,#126,.F.);
#153=ORIENTED_EDGE('',*,*,#118,.T.);
#154=ORIENTED_EDGE('',*,*,#124,.F.);
#155=ORIENTED_EDGE('',*,*,#127,.T.);
#156=ORIENTED_EDGE('',*,*,#128,.F.);
#157=ORIENTED_EDGE('',*,*,#127,.F.);
#158=ORIENTED_EDGE('',*,*,#123,.F.);
#159=ORIENTED_EDGE('',*,*,#129,.T.);
#160=ORIENTED_EDGE('',*,*,#130,.F.);
#161=ORIENTED_EDGE('',*,*,#129,.F.);
#162=ORIENTED_EDGE('',*,*,#122,.F.);
#163=ORIENTED_EDGE('',*,*,#131,.T.);
#164=ORIENTED_EDGE('',*,*,#132,.F.);
#165=ORIENTED_EDGE('',*,*,#131,.F.);
#166=ORIENTED_EDGE('',*,*,#133,.F.);
#167=ORIENTED_EDGE('',*,*,#134,.T.);
#168=ORIENTED_EDGE('',*,*,#125,.F.);
#169=ORIENTED_EDGE('',*,*,#115,.F.);
#170=ORIENTED_EDGE('',*,*,#128,.T.);
#171=ORIENTED_EDGE('',*,*,#130,.T.);
#172=ORIENTED_EDGE('',*,*,#132,.T.);
#173=ORIENTED_EDGE('',*,*,#135,.T.);
#174=ORIENTED_EDGE('',*,*,#114,.F.);
#175=ORIENTED_EDGE('',*,*,#120,.T.);
#176=ORIENTED_EDGE('',*,*,#136,.T.);
#177=ORIENTED_EDGE('',*,*,#133,.T.);
#178=ORIENTED_EDGE('',*,*,#134,.F.);
#179=ORIENTED_EDGE('',*,*,#136,.F.);
#180=ORIENTED_EDGE('',*,*,#119,.T.);
#181=ORIENTED_EDGE('',*,*,#126,.T.);
#182=ORIENTED_EDGE('',*,*,#121,.T.);
#183=ORIENTED_EDGE('',*,*,#137,.T.);
#184=ORIENTED_EDGE('',*,*,#135,.F.);
#185=ORIENTED_EDGE('',*,*,#137,.F.);
#186=PLANE('',#216);
#187=PLANE('',#217);
#188=PLANE('',#223);
#189=PLANE('',#230);
#190=PLANE('',#233);
#191=ADVANCED_FACE('',(#42),#186,.T.);
#192=ADVANCED_FACE('',(#43,#24,#25,#26,#27),#187,.F.);
#193=ADVANCED_FACE('',(#44),#188,.F.);
#194=ADVANCED_FACE('',(#45),#19,.F.);
#195=ADVANCED_FACE('',(#46),#20,.F.);
#196=ADVANCED_FACE('',(#47),#21,.F.);
#197=ADVANCED_FACE('',(#48,#28,#29,#30,#31),#189,.T.);
#198=ADVANCED_FACE('',(#49),#190,.F.);
#199=ADVANCED_FACE('',(#50),#22,.T.);
#200=ADVANCED_FACE('',(#51),#23,.F.);
#201=CLOSED_SHELL('',(#191,#192,#193,#194,#195,#196,#197,#198,#199,#200));
#202=DERIVED_UNIT_ELEMENT(#204,1.);
#203=DERIVED_UNIT_ELEMENT(#357,-3.);
#204=(
MASS_UNIT()
NAMED_UNIT(*)
SI_UNIT(.KILO.,.GRAM.)
);
#205=DERIVED_UNIT((#202,#203));
#206=MEASURE_REPRESENTATION_ITEM('density measure',
POSITIVE_RATIO_MEASURE(7850.),#205);
#207=PROPERTY_DEFINITION_REPRESENTATION(#212,#209);
#208=PROPERTY_DEFINITION_REPRESENTATION(#213,#210);
#209=REPRESENTATION('material name',(#211),#354);
#210=REPRESENTATION('density',(#206),#354);
#211=DESCRIPTIVE_REPRESENTATION_ITEM('Steel','Steel');
#212=PROPERTY_DEFINITION('material property','material name',#369);
#213=PROPERTY_DEFINITION('material property','density of part',#369);
#214=AXIS2_PLACEMENT_3D('',#297,#237,#238);
#215=AXIS2_PLACEMENT_3D('',#298,#239,#240);
#216=AXIS2_PLACEMENT_3D('',#299,#241,#242);
#217=AXIS2_PLACEMENT_3D('',#308,#247,#248);
#218=AXIS2_PLACEMENT_3D('',#312,#250,#251);
#219=AXIS2_PLACEMENT_3D('',#315,#253,#254);
#220=AXIS2_PLACEMENT_3D('',#317,#255,#256);
#221=AXIS2_PLACEMENT_3D('',#319,#257,#258);
#222=AXIS2_PLACEMENT_3D('',#321,#259,#260);
#223=AXIS2_PLACEMENT_3D('',#322,#261,#262);
#224=AXIS2_PLACEMENT_3D('',#326,#265,#266);
#225=AXIS2_PLACEMENT_3D('',#329,#268,#269);
#226=AXIS2_PLACEMENT_3D('',#330,#270,#271);
#227=AXIS2_PLACEMENT_3D('',#333,#273,#274);
#228=AXIS2_PLACEMENT_3D('',#334,#275,#276);
#229=AXIS2_PLACEMENT_3D('',#337,#278,#279);
#230=AXIS2_PLACEMENT_3D('',#338,#280,#281);
#231=AXIS2_PLACEMENT_3D('',#341,#283,#284);
#232=AXIS2_PLACEMENT_3D('',#343,#285,#286);
#233=AXIS2_PLACEMENT_3D('',#344,#287,#288);
#234=AXIS2_PLACEMENT_3D('',#346,#290,#291);
#235=AXIS2_PLACEMENT_3D('',#347,#292,#293);
#236=AXIS2_PLACEMENT_3D('',#349,#295,#296);
#237=DIRECTION('axis',(0.,0.,1.));
#238=DIRECTION('refdir',(1.,0.,0.));
#239=DIRECTION('axis',(0.,0.,1.));
#240=DIRECTION('refdir',(1.,0.,0.));
#241=DIRECTION('center_axis',(-0.341743063086701,0.,-0.939793423488438));
#242=DIRECTION('ref_axis',(-0.939793423488438,0.,0.341743063086701));
#243=DIRECTION('',(0.939793423488438,0.,-0.341743063086701));
#244=DIRECTION('',(0.,-1.,0.));
#245=DIRECTION('',(-0.939793423488438,0.,0.341743063086701));
#246=DIRECTION('',(0.,1.,0.));
#247=DIRECTION('center_axis',(1.,0.,0.));
#248=DIRECTION('ref_axis',(0.,1.,0.));
#249=DIRECTION('',(0.,0.,-1.));
#250=DIRECTION('center_axis',(1.,0.,0.));
#251=DIRECTION('ref_axis',(0.,1.,0.));
#252=DIRECTION('',(0.,0.,1.));
#253=DIRECTION('center_axis',(-1.,0.,0.));
#254=DIRECTION('ref_axis',(0.,1.,0.));
#255=DIRECTION('center_axis',(1.,0.,0.));
#256=DIRECTION('ref_axis',(0.,-1.,-1.80411241501588E-16));
#257=DIRECTION('center_axis',(1.,0.,0.));
#258=DIRECTION('ref_axis',(0.,-1.,-1.80411241501588E-16));
#259=DIRECTION('center_axis',(1.,0.,0.));
#260=DIRECTION('ref_axis',(0.,-1.,-1.80411241501588E-16));
#261=DIRECTION('center_axis',(0.,1.,0.));
#262=DIRECTION('ref_axis',(0.,0.,1.));
#263=DIRECTION('',(0.,0.,1.));
#264=DIRECTION('',(1.,0.,0.));
#265=DIRECTION('center_axis',(1.,0.,0.));
#266=DIRECTION('ref_axis',(0.,-1.,-1.80411241501588E-16));
#267=DIRECTION('',(1.,0.,0.));
#268=DIRECTION('center_axis',(-1.,0.,0.));
#269=DIRECTION('ref_axis',(0.,-1.,-1.80411241501588E-16));
#270=DIRECTION('center_axis',(1.,0.,0.));
#271=DIRECTION('ref_axis',(0.,-1.,-1.80411241501588E-16));
#272=DIRECTION('',(1.,0.,0.));
#273=DIRECTION('center_axis',(-1.,0.,0.));
#274=DIRECTION('ref_axis',(0.,-1.,-1.80411241501588E-16));
#275=DIRECTION('center_axis',(1.,0.,0.));
#276=DIRECTION('ref_axis',(0.,-1.,-1.80411241501588E-16));
#277=DIRECTION('',(1.,0.,0.));
#278=DIRECTION('center_axis',(-1.,0.,0.));
#279=DIRECTION('ref_axis',(0.,-1.,-1.80411241501588E-16));
#280=DIRECTION('center_axis',(1.,0.,0.));
#281=DIRECTION('ref_axis',(0.,0.,1.));
#282=DIRECTION('',(0.,0.,-1.));
#283=DIRECTION('center_axis',(1.,0.,0.));
#284=DIRECTION('ref_axis',(0.,1.,0.));
#285=DIRECTION('center_axis',(-1.,0.,0.));
#286=DIRECTION('ref_axis',(0.,1.,0.));
#287=DIRECTION('center_axis',(0.,-1.,0.));
#288=DIRECTION('ref_axis',(0.,0.,-1.));
#289=DIRECTION('',(1.,0.,0.));
#290=DIRECTION('center_axis',(-1.,0.,0.));
#291=DIRECTION('ref_axis',(0.,1.,0.));
#292=DIRECTION('center_axis',(-1.,0.,0.));
#293=DIRECTION('ref_axis',(0.,1.,0.));
#294=DIRECTION('',(1.,0.,0.));
#295=DIRECTION('',(0.,0.,1.));
#296=DIRECTION('',(1.,0.,0.));
#297=CARTESIAN_POINT('',(0.,0.,0.));
#298=CARTESIAN_POINT('',(0.,0.,0.));
#299=CARTESIAN_POINT('Origin',(-57.25,7.5,119.));
#300=CARTESIAN_POINT('',(-60.,30.,120.));
#301=CARTESIAN_POINT('',(-54.5,30.,118.));
#302=CARTESIAN_POINT('',(-65.3695255474452,30.,121.952554744525));
#303=CARTESIAN_POINT('',(-54.5,0.,118.000002250075));
#304=CARTESIAN_POINT('',(-54.5,0.,118.));
#305=CARTESIAN_POINT('',(-60.,0.,120.));
#306=CARTESIAN_POINT('',(-60.5520072992701,0.,120.200729927007));
#307=CARTESIAN_POINT('',(-60.,7.5,120.));
#308=CARTESIAN_POINT('Origin',(-60.,15.,93.939784837187));
#309=CARTESIAN_POINT('',(-60.,0.,162.));
#310=CARTESIAN_POINT('',(-60.,0.,132.));
#311=CARTESIAN_POINT('',(-60.,30.,162.));
#312=CARTESIAN_POINT('Origin',(-60.,15.,162.));
#313=CARTESIAN_POINT('',(-60.,30.,132.));
#314=CARTESIAN_POINT('',(-60.,7.00000000000001,162.));
#315=CARTESIAN_POINT('Origin',(-60.,15.,162.));
#316=CARTESIAN_POINT('',(-60.,7.0000000745058,123.));
#317=CARTESIAN_POINT('Origin',(-60.,5.00000007450581,123.));
#318=CARTESIAN_POINT('',(-60.,17.0000000745058,123.));
#319=CARTESIAN_POINT('Origin',(-60.,15.0000000745058,123.));
#320=CARTESIAN_POINT('',(-60.,27.,123.));
#321=CARTESIAN_POINT('Origin',(-60.,25.,123.));
#322=CARTESIAN_POINT('Origin',(-60.,0.,132.));
#323=CARTESIAN_POINT('',(-54.5,0.,162.));
#324=CARTESIAN_POINT('',(-54.5,0.,130.500001125038));
#325=CARTESIAN_POINT('',(-60.,0.,162.));
#326=CARTESIAN_POINT('Origin',(-60.,25.,123.));
#327=CARTESIAN_POINT('',(-54.5,27.,123.));
#328=CARTESIAN_POINT('',(-60.,27.,123.));
#329=CARTESIAN_POINT('Origin',(-54.5,25.,123.));
#330=CARTESIAN_POINT('Origin',(-60.,15.0000000745058,123.));
#331=CARTESIAN_POINT('',(-54.5,17.0000000745058,123.));
#332=CARTESIAN_POINT('',(-60.,17.0000000745058,123.));
#333=CARTESIAN_POINT('Origin',(-54.5,15.0000000745058,123.));
#334=CARTESIAN_POINT('Origin',(-60.,5.00000007450581,123.));
#335=CARTESIAN_POINT('',(-54.5,7.0000000745058,123.));
#336=CARTESIAN_POINT('',(-60.,7.0000000745058,123.));
#337=CARTESIAN_POINT('Origin',(-54.5,5.00000007450581,123.));
#338=CARTESIAN_POINT('Origin',(-54.5,30.,138.000002250075));
#339=CARTESIAN_POINT('',(-54.5,30.,162.));
#340=CARTESIAN_POINT('',(-54.5,30.,135.500001125038));
#341=CARTESIAN_POINT('Origin',(-54.5,15.,162.));
#342=CARTESIAN_POINT('',(-54.5,7.00000000000001,162.));
#343=CARTESIAN_POINT('Origin',(-54.5,15.,162.));
#344=CARTESIAN_POINT('Origin',(-60.,30.,162.));
#345=CARTESIAN_POINT('',(-60.,30.,162.));
#346=CARTESIAN_POINT('Origin',(-60.,15.,162.));
#347=CARTESIAN_POINT('Origin',(-60.,15.,162.));
#348=CARTESIAN_POINT('',(-60.,7.00000000000001,162.));
#349=CARTESIAN_POINT('',(0.,0.,0.));
#350=UNCERTAINTY_MEASURE_WITH_UNIT(LENGTH_MEASURE(0.01),#356,
'DISTANCE_ACCURACY_VALUE',
'Maximum model space distance between geometric entities at asserted c
onnectivities');
#351=UNCERTAINTY_MEASURE_WITH_UNIT(LENGTH_MEASURE(0.01),#356,
'DISTANCE_ACCURACY_VALUE',
'Maximum model space distance between geometric entities at asserted c
onnectivities');
#352=UNCERTAINTY_MEASURE_WITH_UNIT(LENGTH_MEASURE(0.01),#356,
'DISTANCE_ACCURACY_VALUE',
'Maximum model space distance between geometric entities at asserted c
onnectivities');
#353=(
GEOMETRIC_REPRESENTATION_CONTEXT(3)
GLOBAL_UNCERTAINTY_ASSIGNED_CONTEXT((#350))
GLOBAL_UNIT_ASSIGNED_CONTEXT((#356,#358,#359))
REPRESENTATION_CONTEXT('','3D')
);
#354=(
GEOMETRIC_REPRESENTATION_CONTEXT(3)
GLOBAL_UNCERTAINTY_ASSIGNED_CONTEXT((#351))
GLOBAL_UNIT_ASSIGNED_CONTEXT((#356,#358,#359))
REPRESENTATION_CONTEXT('','3D')
);
#355=(
GEOMETRIC_REPRESENTATION_CONTEXT(3)
GLOBAL_UNCERTAINTY_ASSIGNED_CONTEXT((#352))
GLOBAL_UNIT_ASSIGNED_CONTEXT((#356,#358,#359))
REPRESENTATION_CONTEXT('','3D')
);
#356=(
LENGTH_UNIT()
NAMED_UNIT(*)
SI_UNIT(.MILLI.,.METRE.)
);
#357=(
LENGTH_UNIT()
NAMED_UNIT(*)
SI_UNIT($,.METRE.)
);
#358=(
NAMED_UNIT(*)
PLANE_ANGLE_UNIT()
SI_UNIT($,.RADIAN.)
);
#359=(
NAMED_UNIT(*)
SI_UNIT($,.STERADIAN.)
SOLID_ANGLE_UNIT()
);
#360=SHAPE_DEFINITION_REPRESENTATION(#362,#365);
#361=SHAPE_DEFINITION_REPRESENTATION(#363,#366);
#362=PRODUCT_DEFINITION_SHAPE('',$,#368);
#363=PRODUCT_DEFINITION_SHAPE('',$,#369);
#364=PRODUCT_DEFINITION_SHAPE($,$,#14);
#365=SHAPE_REPRESENTATION('',(#214,#236),#353);
#366=SHAPE_REPRESENTATION('',(#215),#354);
#367=PRODUCT_DEFINITION_CONTEXT('part definition',#375,'design');
#368=PRODUCT_DEFINITION('Leg V1','Leg V1 v19',#370,#367);
#369=PRODUCT_DEFINITION('Lower Leg hoop left','Lower Leg hoop left',#371,
#367);
#370=PRODUCT_DEFINITION_FORMATION('',$,#377);
#371=PRODUCT_DEFINITION_FORMATION('',$,#378);
#372=PRODUCT_RELATED_PRODUCT_CATEGORY('Leg V1 v19','Leg V1 v19',(#377));
#373=PRODUCT_RELATED_PRODUCT_CATEGORY('Lower Leg hoop left',
'Lower Leg hoop left',(#378));
#374=APPLICATION_PROTOCOL_DEFINITION('international standard',
'automotive_design',2009,#375);
#375=APPLICATION_CONTEXT(
'Core Data for Automotive Mechanical Design Process');
#376=PRODUCT_CONTEXT('part definition',#375,'mechanical');
#377=PRODUCT('Leg V1','Leg V1 v19',$,(#376));
#378=PRODUCT('Lower Leg hoop left','Lower Leg hoop left',$,(#376));
#379=PRESENTATION_STYLE_ASSIGNMENT((#381));
#380=PRESENTATION_STYLE_ASSIGNMENT((#382));
#381=SURFACE_STYLE_USAGE(.BOTH.,#383);
#382=SURFACE_STYLE_USAGE(.BOTH.,#384);
#383=SURFACE_SIDE_STYLE('',(#385));
#384=SURFACE_SIDE_STYLE('',(#386));
#385=SURFACE_STYLE_FILL_AREA(#387);
#386=SURFACE_STYLE_FILL_AREA(#388);
#387=FILL_AREA_STYLE('Steel - Satin',(#389));
#388=FILL_AREA_STYLE('ABS (White)',(#390));
#389=FILL_AREA_STYLE_COLOUR('Steel - Satin',#391);
#390=FILL_AREA_STYLE_COLOUR('ABS (White)',#392);
#391=COLOUR_RGB('Steel - Satin',0.627450980392157,0.627450980392157,0.627450980392157);
#392=COLOUR_RGB('ABS (White)',0.964705882352941,0.964705882352941,0.952941176470588);
ENDSEC;
END-ISO-10303-21;
