ISO-10303-21;
HEADER;
/* Generated by software containing ST-Developer
 * from STEP Tools, Inc. (www.steptools.com) 
 */

FILE_DESCRIPTION(
/* description */ (''),
/* implementation_level */ '2;1');

FILE_NAME(
/* name */ 'Lower Leg hoop right.step',
/* time_stamp */ '2025-09-22T17:46:45+02:00',
/* author */ (''),
/* organization */ (''),
/* preprocessor_version */ 'ST-DEVELOPER v20.1',
/* originating_system */ 'Autodesk Translation Framework v14.17.0.0',
/* authorisation */ '');

FILE_SCHEMA (('AUTOMOTIVE_DESIGN { 1 0 10303 214 3 1 1 }'));
ENDSEC;

DATA;
#10=MECHANICAL_DESIGN_GEOMETRIC_PRESENTATION_REPRESENTATION('',(#17),#868);
#11=ITEM_DEFINED_TRANSFORMATION($,$,#516,#577);
#12=(
REPRESENTATION_RELATIONSHIP($,$,#879,#878)
REPRESENTATION_RELATIONSHIP_WITH_TRANSFORMATION(#11)
SHAPE_REPRESENTATION_RELATIONSHIP()
);
#13=CONTEXT_DEPENDENT_SHAPE_REPRESENTATION(#12,#877);
#14=NEXT_ASSEMBLY_USAGE_OCCURRENCE('Lower Leg hoop right:1',
'Lower Leg hoop right:1','Lower Leg hoop right:1',#881,#882,
'Lower Leg hoop right:1');
#15=SHAPE_REPRESENTATION_RELATIONSHIP('SRR','None',#879,#16);
#16=ADVANCED_BREP_SHAPE_REPRESENTATION('',(#18),#867);
#17=STYLED_ITEM('',(#893),#18);
#18=MANIFOLD_SOLID_BREP('Lower Leg (2)',#502);
#19=CYLINDRICAL_SURFACE('',#525,2.);
#20=CYLINDRICAL_SURFACE('',#527,2.);
#21=CYLINDRICAL_SURFACE('',#529,2.);
#22=CYLINDRICAL_SURFACE('',#531,0.849999999999995);
#23=CYLINDRICAL_SURFACE('',#534,0.849999999999997);
#24=CYLINDRICAL_SURFACE('',#537,0.850000000000002);
#25=CYLINDRICAL_SURFACE('',#540,0.849999999999995);
#26=CYLINDRICAL_SURFACE('',#543,0.849999999999997);
#27=CYLINDRICAL_SURFACE('',#546,0.850000000000002);
#28=CYLINDRICAL_SURFACE('',#549,0.849999999999995);
#29=CYLINDRICAL_SURFACE('',#552,0.85);
#30=CYLINDRICAL_SURFACE('',#555,0.849999999999995);
#31=CYLINDRICAL_SURFACE('',#558,0.849999999999995);
#32=CYLINDRICAL_SURFACE('',#561,0.850000000000001);
#33=CYLINDRICAL_SURFACE('',#564,0.849999999999996);
#34=CYLINDRICAL_SURFACE('',#567,11.);
#35=CYLINDRICAL_SURFACE('',#571,5.5);
#36=CYLINDRICAL_SURFACE('',#573,15.);
#37=FACE_BOUND('',#132,.T.);
#38=FACE_BOUND('',#133,.T.);
#39=FACE_BOUND('',#134,.T.);
#40=FACE_BOUND('',#135,.T.);
#41=FACE_BOUND('',#154,.T.);
#42=FACE_BOUND('',#155,.T.);
#43=FACE_BOUND('',#156,.T.);
#44=FACE_BOUND('',#157,.T.);
#45=FACE_BOUND('',#158,.T.);
#46=FACE_BOUND('',#159,.T.);
#47=FACE_BOUND('',#160,.T.);
#48=FACE_BOUND('',#161,.T.);
#49=FACE_BOUND('',#162,.T.);
#50=FACE_BOUND('',#163,.T.);
#51=FACE_BOUND('',#164,.T.);
#52=FACE_BOUND('',#165,.T.);
#53=FACE_BOUND('',#166,.T.);
#54=FACE_BOUND('',#170,.T.);
#55=FACE_BOUND('',#171,.T.);
#56=FACE_BOUND('',#172,.T.);
#57=FACE_BOUND('',#173,.T.);
#58=FACE_BOUND('',#174,.T.);
#59=FACE_BOUND('',#175,.T.);
#60=FACE_BOUND('',#176,.T.);
#61=FACE_BOUND('',#177,.T.);
#62=FACE_BOUND('',#178,.T.);
#63=FACE_BOUND('',#179,.T.);
#64=FACE_BOUND('',#180,.T.);
#65=FACE_BOUND('',#181,.T.);
#66=FACE_BOUND('',#182,.T.);
#67=FACE_BOUND('',#183,.T.);
#68=FACE_BOUND('',#184,.T.);
#69=FACE_BOUND('',#185,.T.);
#70=CIRCLE('',#519,15.);
#71=CIRCLE('',#520,11.);
#72=CIRCLE('',#521,2.);
#73=CIRCLE('',#522,2.);
#74=CIRCLE('',#523,2.);
#75=CIRCLE('',#526,2.);
#76=CIRCLE('',#528,2.);
#77=CIRCLE('',#530,2.);
#78=CIRCLE('',#532,0.849999999999995);
#79=CIRCLE('',#533,0.849999999999995);
#80=CIRCLE('',#535,0.849999999999997);
#81=CIRCLE('',#536,0.849999999999997);
#82=CIRCLE('',#538,0.850000000000002);
#83=CIRCLE('',#539,0.850000000000002);
#84=CIRCLE('',#541,0.849999999999995);
#85=CIRCLE('',#542,0.849999999999995);
#86=CIRCLE('',#544,0.849999999999997);
#87=CIRCLE('',#545,0.849999999999997);
#88=CIRCLE('',#547,0.850000000000002);
#89=CIRCLE('',#548,0.850000000000002);
#90=CIRCLE('',#550,0.849999999999995);
#91=CIRCLE('',#551,0.849999999999995);
#92=CIRCLE('',#553,0.85);
#93=CIRCLE('',#554,0.85);
#94=CIRCLE('',#556,0.849999999999995);
#95=CIRCLE('',#557,0.849999999999995);
#96=CIRCLE('',#559,0.849999999999995);
#97=CIRCLE('',#560,0.849999999999995);
#98=CIRCLE('',#562,0.850000000000001);
#99=CIRCLE('',#563,0.850000000000001);
#100=CIRCLE('',#565,0.849999999999996);
#101=CIRCLE('',#566,0.849999999999996);
#102=CIRCLE('',#568,11.);
#103=CIRCLE('',#570,5.5);
#104=CIRCLE('',#572,5.5);
#105=CIRCLE('',#574,15.);
#106=FACE_OUTER_BOUND('',#130,.T.);
#107=FACE_OUTER_BOUND('',#131,.T.);
#108=FACE_OUTER_BOUND('',#136,.T.);
#109=FACE_OUTER_BOUND('',#137,.T.);
#110=FACE_OUTER_BOUND('',#138,.T.);
#111=FACE_OUTER_BOUND('',#139,.T.);
#112=FACE_OUTER_BOUND('',#140,.T.);
#113=FACE_OUTER_BOUND('',#141,.T.);
#114=FACE_OUTER_BOUND('',#142,.T.);
#115=FACE_OUTER_BOUND('',#143,.T.);
#116=FACE_OUTER_BOUND('',#144,.T.);
#117=FACE_OUTER_BOUND('',#145,.T.);
#118=FACE_OUTER_BOUND('',#146,.T.);
#119=FACE_OUTER_BOUND('',#147,.T.);
#120=FACE_OUTER_BOUND('',#148,.T.);
#121=FACE_OUTER_BOUND('',#149,.T.);
#122=FACE_OUTER_BOUND('',#150,.T.);
#123=FACE_OUTER_BOUND('',#151,.T.);
#124=FACE_OUTER_BOUND('',#152,.T.);
#125=FACE_OUTER_BOUND('',#153,.T.);
#126=FACE_OUTER_BOUND('',#167,.T.);
#127=FACE_OUTER_BOUND('',#168,.T.);
#128=FACE_OUTER_BOUND('',#169,.T.);
#129=FACE_OUTER_BOUND('',#186,.T.);
#130=EDGE_LOOP('',(#346,#347,#348,#349));
#131=EDGE_LOOP('',(#350,#351,#352,#353));
#132=EDGE_LOOP('',(#354));
#133=EDGE_LOOP('',(#355));
#134=EDGE_LOOP('',(#356));
#135=EDGE_LOOP('',(#357));
#136=EDGE_LOOP('',(#358,#359,#360,#361));
#137=EDGE_LOOP('',(#362,#363,#364,#365));
#138=EDGE_LOOP('',(#366,#367,#368,#369));
#139=EDGE_LOOP('',(#370,#371,#372,#373));
#140=EDGE_LOOP('',(#374,#375,#376,#377));
#141=EDGE_LOOP('',(#378,#379,#380,#381));
#142=EDGE_LOOP('',(#382,#383,#384,#385));
#143=EDGE_LOOP('',(#386,#387,#388,#389));
#144=EDGE_LOOP('',(#390,#391,#392,#393));
#145=EDGE_LOOP('',(#394,#395,#396,#397));
#146=EDGE_LOOP('',(#398,#399,#400,#401));
#147=EDGE_LOOP('',(#402,#403,#404,#405));
#148=EDGE_LOOP('',(#406,#407,#408,#409));
#149=EDGE_LOOP('',(#410,#411,#412,#413));
#150=EDGE_LOOP('',(#414,#415,#416,#417));
#151=EDGE_LOOP('',(#418,#419,#420,#421));
#152=EDGE_LOOP('',(#422,#423,#424,#425));
#153=EDGE_LOOP('',(#426));
#154=EDGE_LOOP('',(#427));
#155=EDGE_LOOP('',(#428));
#156=EDGE_LOOP('',(#429));
#157=EDGE_LOOP('',(#430));
#158=EDGE_LOOP('',(#431));
#159=EDGE_LOOP('',(#432));
#160=EDGE_LOOP('',(#433));
#161=EDGE_LOOP('',(#434));
#162=EDGE_LOOP('',(#435));
#163=EDGE_LOOP('',(#436));
#164=EDGE_LOOP('',(#437));
#165=EDGE_LOOP('',(#438));
#166=EDGE_LOOP('',(#439));
#167=EDGE_LOOP('',(#440,#441,#442,#443));
#168=EDGE_LOOP('',(#444,#445,#446,#447));
#169=EDGE_LOOP('',(#448,#449,#450,#451));
#170=EDGE_LOOP('',(#452));
#171=EDGE_LOOP('',(#453));
#172=EDGE_LOOP('',(#454));
#173=EDGE_LOOP('',(#455));
#174=EDGE_LOOP('',(#456));
#175=EDGE_LOOP('',(#457));
#176=EDGE_LOOP('',(#458));
#177=EDGE_LOOP('',(#459));
#178=EDGE_LOOP('',(#460));
#179=EDGE_LOOP('',(#461));
#180=EDGE_LOOP('',(#462));
#181=EDGE_LOOP('',(#463));
#182=EDGE_LOOP('',(#464));
#183=EDGE_LOOP('',(#465));
#184=EDGE_LOOP('',(#466));
#185=EDGE_LOOP('',(#467));
#186=EDGE_LOOP('',(#468,#469,#470,#471));
#187=LINE('',#736,#214);
#188=LINE('',#738,#215);
#189=LINE('',#740,#216);
#190=LINE('',#741,#217);
#191=LINE('',#744,#218);
#192=LINE('',#747,#219);
#193=LINE('',#758,#220);
#194=LINE('',#759,#221);
#195=LINE('',#762,#222);
#196=LINE('',#766,#223);
#197=LINE('',#770,#224);
#198=LINE('',#776,#225);
#199=LINE('',#782,#226);
#200=LINE('',#788,#227);
#201=LINE('',#794,#228);
#202=LINE('',#800,#229);
#203=LINE('',#806,#230);
#204=LINE('',#812,#231);
#205=LINE('',#818,#232);
#206=LINE('',#824,#233);
#207=LINE('',#830,#234);
#208=LINE('',#836,#235);
#209=LINE('',#842,#236);
#210=LINE('',#846,#237);
#211=LINE('',#854,#238);
#212=LINE('',#858,#239);
#213=LINE('',#860,#240);
#214=VECTOR('',#584,10.);
#215=VECTOR('',#585,10.);
#216=VECTOR('',#586,10.);
#217=VECTOR('',#587,10.);
#218=VECTOR('',#590,10.);
#219=VECTOR('',#593,10.);
#220=VECTOR('',#604,10.);
#221=VECTOR('',#605,10.);
#222=VECTOR('',#608,2.);
#223=VECTOR('',#613,2.);
#224=VECTOR('',#618,2.);
#225=VECTOR('',#625,0.849999999999995);
#226=VECTOR('',#632,0.849999999999997);
#227=VECTOR('',#639,0.850000000000002);
#228=VECTOR('',#646,0.849999999999995);
#229=VECTOR('',#653,0.849999999999997);
#230=VECTOR('',#660,0.850000000000002);
#231=VECTOR('',#667,0.849999999999995);
#232=VECTOR('',#674,0.85);
#233=VECTOR('',#681,0.849999999999995);
#234=VECTOR('',#688,0.849999999999995);
#235=VECTOR('',#695,0.850000000000001);
#236=VECTOR('',#702,0.849999999999996);
#237=VECTOR('',#707,11.);
#238=VECTOR('',#718,5.5);
#239=VECTOR('',#723,10.);
#240=VECTOR('',#726,10.);
#241=VERTEX_POINT('',#734);
#242=VERTEX_POINT('',#735);
#243=VERTEX_POINT('',#737);
#244=VERTEX_POINT('',#739);
#245=VERTEX_POINT('',#743);
#246=VERTEX_POINT('',#745);
#247=VERTEX_POINT('',#748);
#248=VERTEX_POINT('',#750);
#249=VERTEX_POINT('',#752);
#250=VERTEX_POINT('',#754);
#251=VERTEX_POINT('',#757);
#252=VERTEX_POINT('',#761);
#253=VERTEX_POINT('',#765);
#254=VERTEX_POINT('',#769);
#255=VERTEX_POINT('',#773);
#256=VERTEX_POINT('',#775);
#257=VERTEX_POINT('',#779);
#258=VERTEX_POINT('',#781);
#259=VERTEX_POINT('',#785);
#260=VERTEX_POINT('',#787);
#261=VERTEX_POINT('',#791);
#262=VERTEX_POINT('',#793);
#263=VERTEX_POINT('',#797);
#264=VERTEX_POINT('',#799);
#265=VERTEX_POINT('',#803);
#266=VERTEX_POINT('',#805);
#267=VERTEX_POINT('',#809);
#268=VERTEX_POINT('',#811);
#269=VERTEX_POINT('',#815);
#270=VERTEX_POINT('',#817);
#271=VERTEX_POINT('',#821);
#272=VERTEX_POINT('',#823);
#273=VERTEX_POINT('',#827);
#274=VERTEX_POINT('',#829);
#275=VERTEX_POINT('',#833);
#276=VERTEX_POINT('',#835);
#277=VERTEX_POINT('',#839);
#278=VERTEX_POINT('',#841);
#279=VERTEX_POINT('',#845);
#280=VERTEX_POINT('',#849);
#281=VERTEX_POINT('',#852);
#282=VERTEX_POINT('',#856);
#283=EDGE_CURVE('',#241,#242,#187,.T.);
#284=EDGE_CURVE('',#242,#243,#188,.T.);
#285=EDGE_CURVE('',#243,#244,#189,.T.);
#286=EDGE_CURVE('',#244,#241,#190,.T.);
#287=EDGE_CURVE('',#244,#245,#191,.T.);
#288=EDGE_CURVE('',#245,#246,#70,.T.);
#289=EDGE_CURVE('',#246,#241,#192,.T.);
#290=EDGE_CURVE('',#247,#247,#71,.T.);
#291=EDGE_CURVE('',#248,#248,#72,.T.);
#292=EDGE_CURVE('',#249,#249,#73,.T.);
#293=EDGE_CURVE('',#250,#250,#74,.T.);
#294=EDGE_CURVE('',#243,#251,#193,.T.);
#295=EDGE_CURVE('',#245,#251,#194,.T.);
#296=EDGE_CURVE('',#250,#252,#195,.T.);
#297=EDGE_CURVE('',#252,#252,#75,.T.);
#298=EDGE_CURVE('',#249,#253,#196,.T.);
#299=EDGE_CURVE('',#253,#253,#76,.T.);
#300=EDGE_CURVE('',#248,#254,#197,.T.);
#301=EDGE_CURVE('',#254,#254,#77,.T.);
#302=EDGE_CURVE('',#255,#255,#78,.T.);
#303=EDGE_CURVE('',#255,#256,#198,.T.);
#304=EDGE_CURVE('',#256,#256,#79,.T.);
#305=EDGE_CURVE('',#257,#257,#80,.T.);
#306=EDGE_CURVE('',#257,#258,#199,.T.);
#307=EDGE_CURVE('',#258,#258,#81,.T.);
#308=EDGE_CURVE('',#259,#259,#82,.T.);
#309=EDGE_CURVE('',#259,#260,#200,.T.);
#310=EDGE_CURVE('',#260,#260,#83,.T.);
#311=EDGE_CURVE('',#261,#261,#84,.T.);
#312=EDGE_CURVE('',#261,#262,#201,.T.);
#313=EDGE_CURVE('',#262,#262,#85,.T.);
#314=EDGE_CURVE('',#263,#263,#86,.T.);
#315=EDGE_CURVE('',#263,#264,#202,.T.);
#316=EDGE_CURVE('',#264,#264,#87,.T.);
#317=EDGE_CURVE('',#265,#265,#88,.T.);
#318=EDGE_CURVE('',#265,#266,#203,.T.);
#319=EDGE_CURVE('',#266,#266,#89,.T.);
#320=EDGE_CURVE('',#267,#267,#90,.T.);
#321=EDGE_CURVE('',#267,#268,#204,.T.);
#322=EDGE_CURVE('',#268,#268,#91,.T.);
#323=EDGE_CURVE('',#269,#269,#92,.T.);
#324=EDGE_CURVE('',#269,#270,#205,.T.);
#325=EDGE_CURVE('',#270,#270,#93,.T.);
#326=EDGE_CURVE('',#271,#271,#94,.T.);
#327=EDGE_CURVE('',#271,#272,#206,.T.);
#328=EDGE_CURVE('',#272,#272,#95,.T.);
#329=EDGE_CURVE('',#273,#273,#96,.T.);
#330=EDGE_CURVE('',#273,#274,#207,.T.);
#331=EDGE_CURVE('',#274,#274,#97,.T.);
#332=EDGE_CURVE('',#275,#275,#98,.T.);
#333=EDGE_CURVE('',#275,#276,#208,.T.);
#334=EDGE_CURVE('',#276,#276,#99,.T.);
#335=EDGE_CURVE('',#277,#277,#100,.T.);
#336=EDGE_CURVE('',#277,#278,#209,.T.);
#337=EDGE_CURVE('',#278,#278,#101,.T.);
#338=EDGE_CURVE('',#247,#279,#210,.T.);
#339=EDGE_CURVE('',#279,#279,#102,.T.);
#340=EDGE_CURVE('',#280,#280,#103,.T.);
#341=EDGE_CURVE('',#281,#281,#104,.T.);
#342=EDGE_CURVE('',#281,#280,#211,.T.);
#343=EDGE_CURVE('',#251,#282,#105,.T.);
#344=EDGE_CURVE('',#246,#282,#212,.T.);
#345=EDGE_CURVE('',#282,#242,#213,.T.);
#346=ORIENTED_EDGE('',*,*,#283,.T.);
#347=ORIENTED_EDGE('',*,*,#284,.T.);
#348=ORIENTED_EDGE('',*,*,#285,.T.);
#349=ORIENTED_EDGE('',*,*,#286,.T.);
#350=ORIENTED_EDGE('',*,*,#286,.F.);
#351=ORIENTED_EDGE('',*,*,#287,.T.);
#352=ORIENTED_EDGE('',*,*,#288,.T.);
#353=ORIENTED_EDGE('',*,*,#289,.T.);
#354=ORIENTED_EDGE('',*,*,#290,.T.);
#355=ORIENTED_EDGE('',*,*,#291,.T.);
#356=ORIENTED_EDGE('',*,*,#292,.T.);
#357=ORIENTED_EDGE('',*,*,#293,.T.);
#358=ORIENTED_EDGE('',*,*,#285,.F.);
#359=ORIENTED_EDGE('',*,*,#294,.T.);
#360=ORIENTED_EDGE('',*,*,#295,.F.);
#361=ORIENTED_EDGE('',*,*,#287,.F.);
#362=ORIENTED_EDGE('',*,*,#293,.F.);
#363=ORIENTED_EDGE('',*,*,#296,.T.);
#364=ORIENTED_EDGE('',*,*,#297,.F.);
#365=ORIENTED_EDGE('',*,*,#296,.F.);
#366=ORIENTED_EDGE('',*,*,#292,.F.);
#367=ORIENTED_EDGE('',*,*,#298,.T.);
#368=ORIENTED_EDGE('',*,*,#299,.F.);
#369=ORIENTED_EDGE('',*,*,#298,.F.);
#370=ORIENTED_EDGE('',*,*,#291,.F.);
#371=ORIENTED_EDGE('',*,*,#300,.T.);
#372=ORIENTED_EDGE('',*,*,#301,.F.);
#373=ORIENTED_EDGE('',*,*,#300,.F.);
#374=ORIENTED_EDGE('',*,*,#302,.T.);
#375=ORIENTED_EDGE('',*,*,#303,.T.);
#376=ORIENTED_EDGE('',*,*,#304,.F.);
#377=ORIENTED_EDGE('',*,*,#303,.F.);
#378=ORIENTED_EDGE('',*,*,#305,.T.);
#379=ORIENTED_EDGE('',*,*,#306,.T.);
#380=ORIENTED_EDGE('',*,*,#307,.F.);
#381=ORIENTED_EDGE('',*,*,#306,.F.);
#382=ORIENTED_EDGE('',*,*,#308,.T.);
#383=ORIENTED_EDGE('',*,*,#309,.T.);
#384=ORIENTED_EDGE('',*,*,#310,.F.);
#385=ORIENTED_EDGE('',*,*,#309,.F.);
#386=ORIENTED_EDGE('',*,*,#311,.T.);
#387=ORIENTED_EDGE('',*,*,#312,.T.);
#388=ORIENTED_EDGE('',*,*,#313,.F.);
#389=ORIENTED_EDGE('',*,*,#312,.F.);
#390=ORIENTED_EDGE('',*,*,#314,.T.);
#391=ORIENTED_EDGE('',*,*,#315,.T.);
#392=ORIENTED_EDGE('',*,*,#316,.F.);
#393=ORIENTED_EDGE('',*,*,#315,.F.);
#394=ORIENTED_EDGE('',*,*,#317,.T.);
#395=ORIENTED_EDGE('',*,*,#318,.T.);
#396=ORIENTED_EDGE('',*,*,#319,.F.);
#397=ORIENTED_EDGE('',*,*,#318,.F.);
#398=ORIENTED_EDGE('',*,*,#320,.T.);
#399=ORIENTED_EDGE('',*,*,#321,.T.);
#400=ORIENTED_EDGE('',*,*,#322,.F.);
#401=ORIENTED_EDGE('',*,*,#321,.F.);
#402=ORIENTED_EDGE('',*,*,#323,.T.);
#403=ORIENTED_EDGE('',*,*,#324,.T.);
#404=ORIENTED_EDGE('',*,*,#325,.F.);
#405=ORIENTED_EDGE('',*,*,#324,.F.);
#406=ORIENTED_EDGE('',*,*,#326,.T.);
#407=ORIENTED_EDGE('',*,*,#327,.T.);
#408=ORIENTED_EDGE('',*,*,#328,.F.);
#409=ORIENTED_EDGE('',*,*,#327,.F.);
#410=ORIENTED_EDGE('',*,*,#329,.T.);
#411=ORIENTED_EDGE('',*,*,#330,.T.);
#412=ORIENTED_EDGE('',*,*,#331,.F.);
#413=ORIENTED_EDGE('',*,*,#330,.F.);
#414=ORIENTED_EDGE('',*,*,#332,.T.);
#415=ORIENTED_EDGE('',*,*,#333,.T.);
#416=ORIENTED_EDGE('',*,*,#334,.F.);
#417=ORIENTED_EDGE('',*,*,#333,.F.);
#418=ORIENTED_EDGE('',*,*,#335,.T.);
#419=ORIENTED_EDGE('',*,*,#336,.T.);
#420=ORIENTED_EDGE('',*,*,#337,.F.);
#421=ORIENTED_EDGE('',*,*,#336,.F.);
#422=ORIENTED_EDGE('',*,*,#290,.F.);
#423=ORIENTED_EDGE('',*,*,#338,.T.);
#424=ORIENTED_EDGE('',*,*,#339,.T.);
#425=ORIENTED_EDGE('',*,*,#338,.F.);
#426=ORIENTED_EDGE('',*,*,#339,.F.);
#427=ORIENTED_EDGE('',*,*,#311,.F.);
#428=ORIENTED_EDGE('',*,*,#302,.F.);
#429=ORIENTED_EDGE('',*,*,#329,.F.);
#430=ORIENTED_EDGE('',*,*,#340,.F.);
#431=ORIENTED_EDGE('',*,*,#323,.F.);
#432=ORIENTED_EDGE('',*,*,#308,.F.);
#433=ORIENTED_EDGE('',*,*,#335,.F.);
#434=ORIENTED_EDGE('',*,*,#314,.F.);
#435=ORIENTED_EDGE('',*,*,#320,.F.);
#436=ORIENTED_EDGE('',*,*,#317,.F.);
#437=ORIENTED_EDGE('',*,*,#332,.F.);
#438=ORIENTED_EDGE('',*,*,#326,.F.);
#439=ORIENTED_EDGE('',*,*,#305,.F.);
#440=ORIENTED_EDGE('',*,*,#341,.F.);
#441=ORIENTED_EDGE('',*,*,#342,.T.);
#442=ORIENTED_EDGE('',*,*,#340,.T.);
#443=ORIENTED_EDGE('',*,*,#342,.F.);
#444=ORIENTED_EDGE('',*,*,#343,.T.);
#445=ORIENTED_EDGE('',*,*,#344,.F.);
#446=ORIENTED_EDGE('',*,*,#288,.F.);
#447=ORIENTED_EDGE('',*,*,#295,.T.);
#448=ORIENTED_EDGE('',*,*,#294,.F.);
#449=ORIENTED_EDGE('',*,*,#284,.F.);
#450=ORIENTED_EDGE('',*,*,#345,.F.);
#451=ORIENTED_EDGE('',*,*,#343,.F.);
#452=ORIENTED_EDGE('',*,*,#297,.T.);
#453=ORIENTED_EDGE('',*,*,#299,.T.);
#454=ORIENTED_EDGE('',*,*,#301,.T.);
#455=ORIENTED_EDGE('',*,*,#304,.T.);
#456=ORIENTED_EDGE('',*,*,#307,.T.);
#457=ORIENTED_EDGE('',*,*,#310,.T.);
#458=ORIENTED_EDGE('',*,*,#313,.T.);
#459=ORIENTED_EDGE('',*,*,#316,.T.);
#460=ORIENTED_EDGE('',*,*,#319,.T.);
#461=ORIENTED_EDGE('',*,*,#322,.T.);
#462=ORIENTED_EDGE('',*,*,#325,.T.);
#463=ORIENTED_EDGE('',*,*,#328,.T.);
#464=ORIENTED_EDGE('',*,*,#331,.T.);
#465=ORIENTED_EDGE('',*,*,#334,.T.);
#466=ORIENTED_EDGE('',*,*,#337,.T.);
#467=ORIENTED_EDGE('',*,*,#341,.T.);
#468=ORIENTED_EDGE('',*,*,#283,.F.);
#469=ORIENTED_EDGE('',*,*,#289,.F.);
#470=ORIENTED_EDGE('',*,*,#344,.T.);
#471=ORIENTED_EDGE('',*,*,#345,.T.);
#472=PLANE('',#517);
#473=PLANE('',#518);
#474=PLANE('',#524);
#475=PLANE('',#569);
#476=PLANE('',#575);
#477=PLANE('',#576);
#478=ADVANCED_FACE('',(#106),#472,.T.);
#479=ADVANCED_FACE('',(#107,#37,#38,#39,#40),#473,.T.);
#480=ADVANCED_FACE('',(#108),#474,.F.);
#481=ADVANCED_FACE('',(#109),#19,.F.);
#482=ADVANCED_FACE('',(#110),#20,.F.);
#483=ADVANCED_FACE('',(#111),#21,.F.);
#484=ADVANCED_FACE('',(#112),#22,.F.);
#485=ADVANCED_FACE('',(#113),#23,.F.);
#486=ADVANCED_FACE('',(#114),#24,.F.);
#487=ADVANCED_FACE('',(#115),#25,.F.);
#488=ADVANCED_FACE('',(#116),#26,.F.);
#489=ADVANCED_FACE('',(#117),#27,.F.);
#490=ADVANCED_FACE('',(#118),#28,.F.);
#491=ADVANCED_FACE('',(#119),#29,.F.);
#492=ADVANCED_FACE('',(#120),#30,.F.);
#493=ADVANCED_FACE('',(#121),#31,.F.);
#494=ADVANCED_FACE('',(#122),#32,.F.);
#495=ADVANCED_FACE('',(#123),#33,.F.);
#496=ADVANCED_FACE('',(#124),#34,.F.);
#497=ADVANCED_FACE('',(#125,#41,#42,#43,#44,#45,#46,#47,#48,#49,#50,#51,
#52,#53),#475,.T.);
#498=ADVANCED_FACE('',(#126),#35,.F.);
#499=ADVANCED_FACE('',(#127),#36,.T.);
#500=ADVANCED_FACE('',(#128,#54,#55,#56,#57,#58,#59,#60,#61,#62,#63,#64,
#65,#66,#67,#68,#69),#476,.F.);
#501=ADVANCED_FACE('',(#129),#477,.F.);
#502=CLOSED_SHELL('',(#478,#479,#480,#481,#482,#483,#484,#485,#486,#487,
#488,#489,#490,#491,#492,#493,#494,#495,#496,#497,#498,#499,#500,#501));
#503=DERIVED_UNIT_ELEMENT(#505,1.);
#504=DERIVED_UNIT_ELEMENT(#870,-3.);
#505=(
MASS_UNIT()
NAMED_UNIT(*)
SI_UNIT(.KILO.,.GRAM.)
);
#506=DERIVED_UNIT((#503,#504));
#507=MEASURE_REPRESENTATION_ITEM('density measure',
POSITIVE_RATIO_MEASURE(7850.),#506);
#508=PROPERTY_DEFINITION_REPRESENTATION(#513,#510);
#509=PROPERTY_DEFINITION_REPRESENTATION(#514,#511);
#510=REPRESENTATION('material name',(#512),#867);
#511=REPRESENTATION('density',(#507),#867);
#512=DESCRIPTIVE_REPRESENTATION_ITEM('Steel','Steel');
#513=PROPERTY_DEFINITION('material property','material name',#882);
#514=PROPERTY_DEFINITION('material property','density of part',#882);
#515=AXIS2_PLACEMENT_3D('',#731,#578,#579);
#516=AXIS2_PLACEMENT_3D('',#732,#580,#581);
#517=AXIS2_PLACEMENT_3D('',#733,#582,#583);
#518=AXIS2_PLACEMENT_3D('',#742,#588,#589);
#519=AXIS2_PLACEMENT_3D('',#746,#591,#592);
#520=AXIS2_PLACEMENT_3D('',#749,#594,#595);
#521=AXIS2_PLACEMENT_3D('',#751,#596,#597);
#522=AXIS2_PLACEMENT_3D('',#753,#598,#599);
#523=AXIS2_PLACEMENT_3D('',#755,#600,#601);
#524=AXIS2_PLACEMENT_3D('',#756,#602,#603);
#525=AXIS2_PLACEMENT_3D('',#760,#606,#607);
#526=AXIS2_PLACEMENT_3D('',#763,#609,#610);
#527=AXIS2_PLACEMENT_3D('',#764,#611,#612);
#528=AXIS2_PLACEMENT_3D('',#767,#614,#615);
#529=AXIS2_PLACEMENT_3D('',#768,#616,#617);
#530=AXIS2_PLACEMENT_3D('',#771,#619,#620);
#531=AXIS2_PLACEMENT_3D('',#772,#621,#622);
#532=AXIS2_PLACEMENT_3D('',#774,#623,#624);
#533=AXIS2_PLACEMENT_3D('',#777,#626,#627);
#534=AXIS2_PLACEMENT_3D('',#778,#628,#629);
#535=AXIS2_PLACEMENT_3D('',#780,#630,#631);
#536=AXIS2_PLACEMENT_3D('',#783,#633,#634);
#537=AXIS2_PLACEMENT_3D('',#784,#635,#636);
#538=AXIS2_PLACEMENT_3D('',#786,#637,#638);
#539=AXIS2_PLACEMENT_3D('',#789,#640,#641);
#540=AXIS2_PLACEMENT_3D('',#790,#642,#643);
#541=AXIS2_PLACEMENT_3D('',#792,#644,#645);
#542=AXIS2_PLACEMENT_3D('',#795,#647,#648);
#543=AXIS2_PLACEMENT_3D('',#796,#649,#650);
#544=AXIS2_PLACEMENT_3D('',#798,#651,#652);
#545=AXIS2_PLACEMENT_3D('',#801,#654,#655);
#546=AXIS2_PLACEMENT_3D('',#802,#656,#657);
#547=AXIS2_PLACEMENT_3D('',#804,#658,#659);
#548=AXIS2_PLACEMENT_3D('',#807,#661,#662);
#549=AXIS2_PLACEMENT_3D('',#808,#663,#664);
#550=AXIS2_PLACEMENT_3D('',#810,#665,#666);
#551=AXIS2_PLACEMENT_3D('',#813,#668,#669);
#552=AXIS2_PLACEMENT_3D('',#814,#670,#671);
#553=AXIS2_PLACEMENT_3D('',#816,#672,#673);
#554=AXIS2_PLACEMENT_3D('',#819,#675,#676);
#555=AXIS2_PLACEMENT_3D('',#820,#677,#678);
#556=AXIS2_PLACEMENT_3D('',#822,#679,#680);
#557=AXIS2_PLACEMENT_3D('',#825,#682,#683);
#558=AXIS2_PLACEMENT_3D('',#826,#684,#685);
#559=AXIS2_PLACEMENT_3D('',#828,#686,#687);
#560=AXIS2_PLACEMENT_3D('',#831,#689,#690);
#561=AXIS2_PLACEMENT_3D('',#832,#691,#692);
#562=AXIS2_PLACEMENT_3D('',#834,#693,#694);
#563=AXIS2_PLACEMENT_3D('',#837,#696,#697);
#564=AXIS2_PLACEMENT_3D('',#838,#698,#699);
#565=AXIS2_PLACEMENT_3D('',#840,#700,#701);
#566=AXIS2_PLACEMENT_3D('',#843,#703,#704);
#567=AXIS2_PLACEMENT_3D('',#844,#705,#706);
#568=AXIS2_PLACEMENT_3D('',#847,#708,#709);
#569=AXIS2_PLACEMENT_3D('',#848,#710,#711);
#570=AXIS2_PLACEMENT_3D('',#850,#712,#713);
#571=AXIS2_PLACEMENT_3D('',#851,#714,#715);
#572=AXIS2_PLACEMENT_3D('',#853,#716,#717);
#573=AXIS2_PLACEMENT_3D('',#855,#719,#720);
#574=AXIS2_PLACEMENT_3D('',#857,#721,#722);
#575=AXIS2_PLACEMENT_3D('',#859,#724,#725);
#576=AXIS2_PLACEMENT_3D('',#861,#727,#728);
#577=AXIS2_PLACEMENT_3D('',#862,#729,#730);
#578=DIRECTION('axis',(0.,0.,1.));
#579=DIRECTION('refdir',(1.,0.,0.));
#580=DIRECTION('axis',(0.,0.,1.));
#581=DIRECTION('refdir',(1.,0.,0.));
#582=DIRECTION('center_axis',(0.341743063086703,0.,-0.939793423488438));
#583=DIRECTION('ref_axis',(-0.939793423488437,0.,-0.341743063086703));
#584=DIRECTION('',(-0.939793423488437,0.,-0.341743063086703));
#585=DIRECTION('',(0.,1.,0.));
#586=DIRECTION('',(0.939793423488437,0.,0.341743063086703));
#587=DIRECTION('',(0.,-1.,0.));
#588=DIRECTION('center_axis',(1.,0.,0.));
#589=DIRECTION('ref_axis',(0.,1.,0.));
#590=DIRECTION('',(0.,0.,1.));
#591=DIRECTION('center_axis',(1.,0.,0.));
#592=DIRECTION('ref_axis',(0.,1.,0.));
#593=DIRECTION('',(0.,0.,-1.));
#594=DIRECTION('center_axis',(-1.,0.,0.));
#595=DIRECTION('ref_axis',(0.,1.,0.));
#596=DIRECTION('center_axis',(-1.,0.,0.));
#597=DIRECTION('ref_axis',(0.,1.,2.08166817117217E-16));
#598=DIRECTION('center_axis',(-1.,0.,0.));
#599=DIRECTION('ref_axis',(0.,1.,2.08166817117217E-16));
#600=DIRECTION('center_axis',(-1.,0.,0.));
#601=DIRECTION('ref_axis',(0.,1.,2.08166817117217E-16));
#602=DIRECTION('center_axis',(0.,-1.,0.));
#603=DIRECTION('ref_axis',(0.,0.,-1.));
#604=DIRECTION('',(0.,0.,1.));
#605=DIRECTION('',(-1.,0.,0.));
#606=DIRECTION('center_axis',(-1.,0.,0.));
#607=DIRECTION('ref_axis',(0.,1.,2.08166817117217E-16));
#608=DIRECTION('',(-1.,0.,0.));
#609=DIRECTION('center_axis',(1.,0.,0.));
#610=DIRECTION('ref_axis',(0.,1.,2.08166817117217E-16));
#611=DIRECTION('center_axis',(-1.,0.,0.));
#612=DIRECTION('ref_axis',(0.,1.,2.08166817117217E-16));
#613=DIRECTION('',(-1.,0.,0.));
#614=DIRECTION('center_axis',(1.,0.,0.));
#615=DIRECTION('ref_axis',(0.,1.,2.08166817117217E-16));
#616=DIRECTION('center_axis',(-1.,0.,0.));
#617=DIRECTION('ref_axis',(0.,1.,2.08166817117217E-16));
#618=DIRECTION('',(-1.,0.,0.));
#619=DIRECTION('center_axis',(1.,0.,0.));
#620=DIRECTION('ref_axis',(0.,1.,2.08166817117217E-16));
#621=DIRECTION('center_axis',(-1.,0.,0.));
#622=DIRECTION('ref_axis',(0.,1.,0.));
#623=DIRECTION('center_axis',(1.,0.,0.));
#624=DIRECTION('ref_axis',(0.,1.,0.));
#625=DIRECTION('',(-1.,0.,0.));
#626=DIRECTION('center_axis',(1.,0.,0.));
#627=DIRECTION('ref_axis',(0.,1.,0.));
#628=DIRECTION('center_axis',(-1.,0.,0.));
#629=DIRECTION('ref_axis',(0.,1.,0.));
#630=DIRECTION('center_axis',(1.,0.,0.));
#631=DIRECTION('ref_axis',(0.,1.,0.));
#632=DIRECTION('',(-1.,0.,0.));
#633=DIRECTION('center_axis',(1.,0.,0.));
#634=DIRECTION('ref_axis',(0.,1.,0.));
#635=DIRECTION('center_axis',(-1.,0.,0.));
#636=DIRECTION('ref_axis',(0.,1.,0.));
#637=DIRECTION('center_axis',(1.,0.,0.));
#638=DIRECTION('ref_axis',(0.,1.,0.));
#639=DIRECTION('',(-1.,0.,0.));
#640=DIRECTION('center_axis',(1.,0.,0.));
#641=DIRECTION('ref_axis',(0.,1.,0.));
#642=DIRECTION('center_axis',(-1.,0.,0.));
#643=DIRECTION('ref_axis',(0.,1.,0.));
#644=DIRECTION('center_axis',(1.,0.,0.));
#645=DIRECTION('ref_axis',(0.,1.,0.));
#646=DIRECTION('',(-1.,0.,0.));
#647=DIRECTION('center_axis',(1.,0.,0.));
#648=DIRECTION('ref_axis',(0.,1.,0.));
#649=DIRECTION('center_axis',(-1.,0.,0.));
#650=DIRECTION('ref_axis',(0.,1.,0.));
#651=DIRECTION('center_axis',(1.,0.,0.));
#652=DIRECTION('ref_axis',(0.,1.,0.));
#653=DIRECTION('',(-1.,0.,0.));
#654=DIRECTION('center_axis',(1.,0.,0.));
#655=DIRECTION('ref_axis',(0.,1.,0.));
#656=DIRECTION('center_axis',(-1.,0.,0.));
#657=DIRECTION('ref_axis',(0.,1.,0.));
#658=DIRECTION('center_axis',(1.,0.,0.));
#659=DIRECTION('ref_axis',(0.,1.,0.));
#660=DIRECTION('',(-1.,0.,0.));
#661=DIRECTION('center_axis',(1.,0.,0.));
#662=DIRECTION('ref_axis',(0.,1.,0.));
#663=DIRECTION('center_axis',(-1.,0.,0.));
#664=DIRECTION('ref_axis',(0.,1.,0.));
#665=DIRECTION('center_axis',(1.,0.,0.));
#666=DIRECTION('ref_axis',(0.,1.,0.));
#667=DIRECTION('',(-1.,0.,0.));
#668=DIRECTION('center_axis',(1.,0.,0.));
#669=DIRECTION('ref_axis',(0.,1.,0.));
#670=DIRECTION('center_axis',(-1.,0.,0.));
#671=DIRECTION('ref_axis',(0.,1.,0.));
#672=DIRECTION('center_axis',(1.,0.,0.));
#673=DIRECTION('ref_axis',(0.,1.,0.));
#674=DIRECTION('',(-1.,0.,0.));
#675=DIRECTION('center_axis',(1.,0.,0.));
#676=DIRECTION('ref_axis',(0.,1.,0.));
#677=DIRECTION('center_axis',(-1.,0.,0.));
#678=DIRECTION('ref_axis',(0.,1.,0.));
#679=DIRECTION('center_axis',(1.,0.,0.));
#680=DIRECTION('ref_axis',(0.,1.,0.));
#681=DIRECTION('',(-1.,0.,0.));
#682=DIRECTION('center_axis',(1.,0.,0.));
#683=DIRECTION('ref_axis',(0.,1.,0.));
#684=DIRECTION('center_axis',(-1.,0.,0.));
#685=DIRECTION('ref_axis',(0.,1.,0.));
#686=DIRECTION('center_axis',(1.,0.,0.));
#687=DIRECTION('ref_axis',(0.,1.,0.));
#688=DIRECTION('',(-1.,0.,0.));
#689=DIRECTION('center_axis',(1.,0.,0.));
#690=DIRECTION('ref_axis',(0.,1.,0.));
#691=DIRECTION('center_axis',(-1.,0.,0.));
#692=DIRECTION('ref_axis',(0.,1.,0.));
#693=DIRECTION('center_axis',(1.,0.,0.));
#694=DIRECTION('ref_axis',(0.,1.,0.));
#695=DIRECTION('',(-1.,0.,0.));
#696=DIRECTION('center_axis',(1.,0.,0.));
#697=DIRECTION('ref_axis',(0.,1.,0.));
#698=DIRECTION('center_axis',(-1.,0.,0.));
#699=DIRECTION('ref_axis',(0.,1.,0.));
#700=DIRECTION('center_axis',(1.,0.,0.));
#701=DIRECTION('ref_axis',(0.,1.,0.));
#702=DIRECTION('',(-1.,0.,0.));
#703=DIRECTION('center_axis',(1.,0.,0.));
#704=DIRECTION('ref_axis',(0.,1.,0.));
#705=DIRECTION('center_axis',(-1.,0.,0.));
#706=DIRECTION('ref_axis',(0.,1.,0.));
#707=DIRECTION('',(-1.,0.,0.));
#708=DIRECTION('center_axis',(-1.,0.,0.));
#709=DIRECTION('ref_axis',(0.,1.,0.));
#710=DIRECTION('center_axis',(1.,0.,0.));
#711=DIRECTION('ref_axis',(0.,1.,0.));
#712=DIRECTION('center_axis',(1.,0.,0.));
#713=DIRECTION('ref_axis',(0.,1.,0.));
#714=DIRECTION('center_axis',(-1.,0.,0.));
#715=DIRECTION('ref_axis',(0.,1.,0.));
#716=DIRECTION('center_axis',(1.,0.,0.));
#717=DIRECTION('ref_axis',(0.,1.,0.));
#718=DIRECTION('',(1.,0.,0.));
#719=DIRECTION('center_axis',(-1.,0.,0.));
#720=DIRECTION('ref_axis',(0.,1.,0.));
#721=DIRECTION('center_axis',(1.,0.,0.));
#722=DIRECTION('ref_axis',(0.,1.,0.));
#723=DIRECTION('',(-1.,0.,0.));
#724=DIRECTION('center_axis',(1.,0.,0.));
#725=DIRECTION('ref_axis',(0.,0.,1.));
#726=DIRECTION('',(0.,0.,-1.));
#727=DIRECTION('center_axis',(0.,1.,0.));
#728=DIRECTION('ref_axis',(0.,0.,1.));
#729=DIRECTION('',(0.,0.,1.));
#730=DIRECTION('',(1.,0.,0.));
#731=CARTESIAN_POINT('',(0.,0.,0.));
#732=CARTESIAN_POINT('',(0.,0.,0.));
#733=CARTESIAN_POINT('Origin',(-2.75,7.5,119.000002250075));
#734=CARTESIAN_POINT('',(0.,0.,120.000002250075));
#735=CARTESIAN_POINT('',(-5.50000008195639,0.,118.000002250075));
#736=CARTESIAN_POINT('',(-27.5501828430778,5.55111512312578E-16,109.981753943502));
#737=CARTESIAN_POINT('',(-5.50000008195639,30.,118.000002250075));
#738=CARTESIAN_POINT('',(-5.50000008195639,0.,118.));
#739=CARTESIAN_POINT('',(0.,30.,120.000002250075));
#740=CARTESIAN_POINT('',(-22.7326645949026,30.,111.73357876102));
#741=CARTESIAN_POINT('',(0.,7.5,120.000002250075));
#742=CARTESIAN_POINT('Origin',(0.,15.,83.939784837187));
#743=CARTESIAN_POINT('',(0.,30.,162.));
#744=CARTESIAN_POINT('',(0.,30.,132.));
#745=CARTESIAN_POINT('',(0.,0.,162.));
#746=CARTESIAN_POINT('Origin',(0.,15.,162.));
#747=CARTESIAN_POINT('',(0.,0.,152.));
#748=CARTESIAN_POINT('',(0.,4.,162.));
#749=CARTESIAN_POINT('Origin',(0.,15.,162.));
#750=CARTESIAN_POINT('',(-1.0347801936458E-14,23.000000372529,123.));
#751=CARTESIAN_POINT('Origin',(0.,25.000000372529,123.));
#752=CARTESIAN_POINT('',(-1.0347801936458E-14,13.0000001490116,123.));
#753=CARTESIAN_POINT('Origin',(0.,15.0000001490116,123.));
#754=CARTESIAN_POINT('',(-1.0347801936458E-14,3.,123.));
#755=CARTESIAN_POINT('Origin',(0.,4.99999999999999,123.));
#756=CARTESIAN_POINT('Origin',(-60.,30.,152.));
#757=CARTESIAN_POINT('',(-5.5,30.,162.));
#758=CARTESIAN_POINT('',(-5.5,30.,150.000001125038));
#759=CARTESIAN_POINT('',(0.,30.,162.));
#760=CARTESIAN_POINT('Origin',(-1.0347801936458E-14,4.99999999999999,123.));
#761=CARTESIAN_POINT('',(-5.5,3.,123.));
#762=CARTESIAN_POINT('',(-1.0347801936458E-14,3.,123.));
#763=CARTESIAN_POINT('Origin',(-5.5,4.99999999999999,123.));
#764=CARTESIAN_POINT('Origin',(-1.0347801936458E-14,15.0000001490116,123.));
#765=CARTESIAN_POINT('',(-5.5,13.0000001490116,123.));
#766=CARTESIAN_POINT('',(-1.0347801936458E-14,13.0000001490116,123.));
#767=CARTESIAN_POINT('Origin',(-5.5,15.0000001490116,123.));
#768=CARTESIAN_POINT('Origin',(-1.0347801936458E-14,25.000000372529,123.));
#769=CARTESIAN_POINT('',(-5.5,23.000000372529,123.));
#770=CARTESIAN_POINT('',(-1.0347801936458E-14,23.000000372529,123.));
#771=CARTESIAN_POINT('Origin',(-5.5,25.000000372529,123.));
#772=CARTESIAN_POINT('Origin',(0.,8.00000000000002,162.));
#773=CARTESIAN_POINT('',(-3.,7.15000000000003,162.));
#774=CARTESIAN_POINT('Origin',(-3.,8.00000000000002,162.));
#775=CARTESIAN_POINT('',(-5.5,7.15000000000003,162.));
#776=CARTESIAN_POINT('',(0.,7.15000000000003,162.));
#777=CARTESIAN_POINT('Origin',(-5.5,8.00000000000002,162.));
#778=CARTESIAN_POINT('Origin',(0.,12.,155.));
#779=CARTESIAN_POINT('',(-3.,11.15,155.));
#780=CARTESIAN_POINT('Origin',(-3.,12.,155.));
#781=CARTESIAN_POINT('',(-5.5,11.15,155.));
#782=CARTESIAN_POINT('',(0.,11.15,155.));
#783=CARTESIAN_POINT('Origin',(-5.5,12.,155.));
#784=CARTESIAN_POINT('Origin',(0.,18.,155.));
#785=CARTESIAN_POINT('',(-3.,17.15,155.));
#786=CARTESIAN_POINT('Origin',(-3.,18.,155.));
#787=CARTESIAN_POINT('',(-5.5,17.15,155.));
#788=CARTESIAN_POINT('',(0.,17.15,155.));
#789=CARTESIAN_POINT('Origin',(-5.5,18.,155.));
#790=CARTESIAN_POINT('Origin',(0.,22.,162.));
#791=CARTESIAN_POINT('',(-3.,21.15,162.));
#792=CARTESIAN_POINT('Origin',(-3.,22.,162.));
#793=CARTESIAN_POINT('',(-5.5,21.15,162.));
#794=CARTESIAN_POINT('',(0.,21.15,162.));
#795=CARTESIAN_POINT('Origin',(-5.5,22.,162.));
#796=CARTESIAN_POINT('Origin',(0.,18.,169.));
#797=CARTESIAN_POINT('',(-3.,17.15,169.));
#798=CARTESIAN_POINT('Origin',(-3.,18.,169.));
#799=CARTESIAN_POINT('',(-5.5,17.15,169.));
#800=CARTESIAN_POINT('',(0.,17.15,169.));
#801=CARTESIAN_POINT('Origin',(-5.5,18.,169.));
#802=CARTESIAN_POINT('Origin',(0.,12.,169.));
#803=CARTESIAN_POINT('',(-3.,11.15,169.));
#804=CARTESIAN_POINT('Origin',(-3.,12.,169.));
#805=CARTESIAN_POINT('',(-5.5,11.15,169.));
#806=CARTESIAN_POINT('',(0.,11.15,169.));
#807=CARTESIAN_POINT('Origin',(-5.5,12.,169.));
#808=CARTESIAN_POINT('Origin',(0.,15.,169.));
#809=CARTESIAN_POINT('',(-3.,14.15,169.));
#810=CARTESIAN_POINT('Origin',(-3.,15.,169.));
#811=CARTESIAN_POINT('',(-5.5,14.15,169.));
#812=CARTESIAN_POINT('',(0.,14.15,169.));
#813=CARTESIAN_POINT('Origin',(-5.5,15.,169.));
#814=CARTESIAN_POINT('Origin',(0.,22.,165.));
#815=CARTESIAN_POINT('',(-3.,21.15,165.));
#816=CARTESIAN_POINT('Origin',(-3.,22.,165.));
#817=CARTESIAN_POINT('',(-5.5,21.15,165.));
#818=CARTESIAN_POINT('',(0.,21.15,165.));
#819=CARTESIAN_POINT('Origin',(-5.5,22.,165.));
#820=CARTESIAN_POINT('Origin',(0.,22.,159.));
#821=CARTESIAN_POINT('',(-3.,21.15,159.));
#822=CARTESIAN_POINT('Origin',(-3.,22.,159.));
#823=CARTESIAN_POINT('',(-5.5,21.15,159.));
#824=CARTESIAN_POINT('',(0.,21.15,159.));
#825=CARTESIAN_POINT('Origin',(-5.5,22.,159.));
#826=CARTESIAN_POINT('Origin',(0.,15.,155.));
#827=CARTESIAN_POINT('',(-3.,14.15,155.));
#828=CARTESIAN_POINT('Origin',(-3.,15.,155.));
#829=CARTESIAN_POINT('',(-5.5,14.15,155.));
#830=CARTESIAN_POINT('',(0.,14.15,155.));
#831=CARTESIAN_POINT('Origin',(-5.5,15.,155.));
#832=CARTESIAN_POINT('Origin',(0.,8.00000000000002,159.));
#833=CARTESIAN_POINT('',(-3.,7.15000000000002,159.));
#834=CARTESIAN_POINT('Origin',(-3.,8.00000000000002,159.));
#835=CARTESIAN_POINT('',(-5.5,7.15000000000002,159.));
#836=CARTESIAN_POINT('',(0.,7.15000000000002,159.));
#837=CARTESIAN_POINT('Origin',(-5.5,8.00000000000002,159.));
#838=CARTESIAN_POINT('Origin',(0.,8.00000000000002,165.));
#839=CARTESIAN_POINT('',(-3.,7.15000000000003,165.));
#840=CARTESIAN_POINT('Origin',(-3.,8.00000000000002,165.));
#841=CARTESIAN_POINT('',(-5.5,7.15000000000003,165.));
#842=CARTESIAN_POINT('',(0.,7.15000000000003,165.));
#843=CARTESIAN_POINT('Origin',(-5.5,8.00000000000002,165.));
#844=CARTESIAN_POINT('Origin',(0.,15.,162.));
#845=CARTESIAN_POINT('',(-3.,4.,162.));
#846=CARTESIAN_POINT('',(0.,4.,162.));
#847=CARTESIAN_POINT('Origin',(-3.,15.,162.));
#848=CARTESIAN_POINT('Origin',(-3.,15.,162.));
#849=CARTESIAN_POINT('',(-3.,9.5,162.));
#850=CARTESIAN_POINT('Origin',(-3.,15.,162.));
#851=CARTESIAN_POINT('Origin',(0.,15.,162.));
#852=CARTESIAN_POINT('',(-5.5,9.5,162.));
#853=CARTESIAN_POINT('Origin',(-5.5,15.,162.));
#854=CARTESIAN_POINT('',(0.,9.5,162.));
#855=CARTESIAN_POINT('Origin',(0.,15.,162.));
#856=CARTESIAN_POINT('',(-5.5,0.,162.));
#857=CARTESIAN_POINT('Origin',(-5.5,15.,162.));
#858=CARTESIAN_POINT('',(0.,0.,162.));
#859=CARTESIAN_POINT('Origin',(-5.5,30.,128.000002250075));
#860=CARTESIAN_POINT('',(-5.5,0.,125.000001125038));
#861=CARTESIAN_POINT('Origin',(-60.,0.,122.));
#862=CARTESIAN_POINT('',(0.,0.,0.));
#863=UNCERTAINTY_MEASURE_WITH_UNIT(LENGTH_MEASURE(0.01),#869,
'DISTANCE_ACCURACY_VALUE',
'Maximum model space distance between geometric entities at asserted c
onnectivities');
#864=UNCERTAINTY_MEASURE_WITH_UNIT(LENGTH_MEASURE(0.01),#869,
'DISTANCE_ACCURACY_VALUE',
'Maximum model space distance between geometric entities at asserted c
onnectivities');
#865=UNCERTAINTY_MEASURE_WITH_UNIT(LENGTH_MEASURE(0.01),#869,
'DISTANCE_ACCURACY_VALUE',
'Maximum model space distance between geometric entities at asserted c
onnectivities');
#866=(
GEOMETRIC_REPRESENTATION_CONTEXT(3)
GLOBAL_UNCERTAINTY_ASSIGNED_CONTEXT((#863))
GLOBAL_UNIT_ASSIGNED_CONTEXT((#869,#871,#872))
REPRESENTATION_CONTEXT('','3D')
);
#867=(
GEOMETRIC_REPRESENTATION_CONTEXT(3)
GLOBAL_UNCERTAINTY_ASSIGNED_CONTEXT((#864))
GLOBAL_UNIT_ASSIGNED_CONTEXT((#869,#871,#872))
REPRESENTATION_CONTEXT('','3D')
);
#868=(
GEOMETRIC_REPRESENTATION_CONTEXT(3)
GLOBAL_UNCERTAINTY_ASSIGNED_CONTEXT((#865))
GLOBAL_UNIT_ASSIGNED_CONTEXT((#869,#871,#872))
REPRESENTATION_CONTEXT('','3D')
);
#869=(
LENGTH_UNIT()
NAMED_UNIT(*)
SI_UNIT(.MILLI.,.METRE.)
);
#870=(
LENGTH_UNIT()
NAMED_UNIT(*)
SI_UNIT($,.METRE.)
);
#871=(
NAMED_UNIT(*)
PLANE_ANGLE_UNIT()
SI_UNIT($,.RADIAN.)
);
#872=(
NAMED_UNIT(*)
SI_UNIT($,.STERADIAN.)
SOLID_ANGLE_UNIT()
);
#873=SHAPE_DEFINITION_REPRESENTATION(#875,#878);
#874=SHAPE_DEFINITION_REPRESENTATION(#876,#879);
#875=PRODUCT_DEFINITION_SHAPE('',$,#881);
#876=PRODUCT_DEFINITION_SHAPE('',$,#882);
#877=PRODUCT_DEFINITION_SHAPE($,$,#14);
#878=SHAPE_REPRESENTATION('',(#515,#577),#866);
#879=SHAPE_REPRESENTATION('',(#516),#867);
#880=PRODUCT_DEFINITION_CONTEXT('part definition',#888,'design');
#881=PRODUCT_DEFINITION('Leg V1','Leg V1 v19',#883,#880);
#882=PRODUCT_DEFINITION('Lower Leg hoop right','Lower Leg hoop right',#884,
#880);
#883=PRODUCT_DEFINITION_FORMATION('',$,#890);
#884=PRODUCT_DEFINITION_FORMATION('',$,#891);
#885=PRODUCT_RELATED_PRODUCT_CATEGORY('Leg V1 v19','Leg V1 v19',(#890));
#886=PRODUCT_RELATED_PRODUCT_CATEGORY('Lower Leg hoop right',
'Lower Leg hoop right',(#891));
#887=APPLICATION_PROTOCOL_DEFINITION('international standard',
'automotive_design',2009,#888);
#888=APPLICATION_CONTEXT(
'Core Data for Automotive Mechanical Design Process');
#889=PRODUCT_CONTEXT('part definition',#888,'mechanical');
#890=PRODUCT('Leg V1','Leg V1 v19',$,(#889));
#891=PRODUCT('Lower Leg hoop right','Lower Leg hoop right',$,(#889));
#892=PRESENTATION_STYLE_ASSIGNMENT((#894));
#893=PRESENTATION_STYLE_ASSIGNMENT((#895));
#894=SURFACE_STYLE_USAGE(.BOTH.,#896);
#895=SURFACE_STYLE_USAGE(.BOTH.,#897);
#896=SURFACE_SIDE_STYLE('',(#898));
#897=SURFACE_SIDE_STYLE('',(#899));
#898=SURFACE_STYLE_FILL_AREA(#900);
#899=SURFACE_STYLE_FILL_AREA(#901);
#900=FILL_AREA_STYLE('Steel - Satin',(#902));
#901=FILL_AREA_STYLE('ABS (White)',(#903));
#902=FILL_AREA_STYLE_COLOUR('Steel - Satin',#904);
#903=FILL_AREA_STYLE_COLOUR('ABS (White)',#905);
#904=COLOUR_RGB('Steel - Satin',0.627450980392157,0.627450980392157,0.627450980392157);
#905=COLOUR_RGB('ABS (White)',0.964705882352941,0.964705882352941,0.952941176470588);
ENDSEC;
END-ISO-10303-21;
