ISO-10303-21;
HEADER;
/* Generated by software containing ST-Developer
 * from STEP Tools, Inc. (www.steptools.com) 
 */

FILE_DESCRIPTION(
/* description */ (''),
/* implementation_level */ '2;1');

FILE_NAME(
/* name */ 'Middle Leg Front.step',
/* time_stamp */ '2025-09-22T17:46:20+02:00',
/* author */ (''),
/* organization */ (''),
/* preprocessor_version */ 'ST-DEVELOPER v20.1',
/* originating_system */ 'Autodesk Translation Framework v14.17.0.0',
/* authorisation */ '');

FILE_SCHEMA (('AUTOMOTIVE_DESIGN { 1 0 10303 214 3 1 1 }'));
ENDSEC;

DATA;
#10=MECHANICAL_DESIGN_GEOMETRIC_PRESENTATION_REPRESENTATION('',(#17),#1482);
#11=ITEM_DEFINED_TRANSFORMATION($,$,#914,#988);
#12=(
REPRESENTATION_RELATIONSHIP($,$,#1493,#1492)
REPRESENTATION_RELATIONSHIP_WITH_TRANSFORMATION(#11)
SHAPE_REPRESENTATION_RELATIONSHIP()
);
#13=CONTEXT_DEPENDENT_SHAPE_REPRESENTATION(#12,#1491);
#14=NEXT_ASSEMBLY_USAGE_OCCURRENCE('Middle Leg Front:1',
'Middle Leg Front:1','Middle Leg Front:1',#1495,#1496,
'Middle Leg Front:1');
#15=SHAPE_REPRESENTATION_RELATIONSHIP('SRR','None',#1493,#16);
#16=ADVANCED_BREP_SHAPE_REPRESENTATION('',(#18),#1481);
#17=STYLED_ITEM('',(#1507),#18);
#18=MANIFOLD_SOLID_BREP('Middle Leg Front',#900);
#19=CONICAL_SURFACE('',#946,3.7,0.785398163397437);
#20=CONICAL_SURFACE('',#950,3.70000005215406,0.785398163397437);
#21=CYLINDRICAL_SURFACE('',#921,3.50000005215406);
#22=CYLINDRICAL_SURFACE('',#952,3.50000000000001);
#23=CYLINDRICAL_SURFACE('',#969,2.25000000000001);
#24=CYLINDRICAL_SURFACE('',#970,2.25);
#25=CYLINDRICAL_SURFACE('',#971,2.25);
#26=CYLINDRICAL_SURFACE('',#972,2.25);
#27=CYLINDRICAL_SURFACE('',#973,2.25000000000001);
#28=CYLINDRICAL_SURFACE('',#974,2.25);
#29=CYLINDRICAL_SURFACE('',#975,2.25);
#30=CYLINDRICAL_SURFACE('',#976,2.25000000000001);
#31=CYLINDRICAL_SURFACE('',#977,1.6);
#32=CYLINDRICAL_SURFACE('',#978,1.6);
#33=CYLINDRICAL_SURFACE('',#979,1.59999999999999);
#34=FACE_BOUND('',#108,.T.);
#35=FACE_BOUND('',#109,.T.);
#36=FACE_BOUND('',#110,.T.);
#37=FACE_BOUND('',#118,.T.);
#38=FACE_BOUND('',#119,.T.);
#39=FACE_BOUND('',#120,.T.);
#40=FACE_BOUND('',#124,.T.);
#41=FACE_BOUND('',#125,.T.);
#42=FACE_BOUND('',#126,.T.);
#43=FACE_BOUND('',#127,.T.);
#44=FACE_BOUND('',#128,.T.);
#45=FACE_BOUND('',#129,.T.);
#46=FACE_BOUND('',#130,.T.);
#47=FACE_BOUND('',#131,.T.);
#48=FACE_BOUND('',#132,.T.);
#49=FACE_BOUND('',#133,.T.);
#50=FACE_BOUND('',#134,.T.);
#51=FACE_BOUND('',#143,.T.);
#52=FACE_BOUND('',#144,.T.);
#53=FACE_BOUND('',#145,.T.);
#54=FACE_BOUND('',#146,.T.);
#55=FACE_BOUND('',#147,.T.);
#56=FACE_BOUND('',#148,.T.);
#57=FACE_BOUND('',#149,.T.);
#58=FACE_BOUND('',#150,.T.);
#59=FACE_BOUND('',#151,.T.);
#60=FACE_BOUND('',#152,.T.);
#61=FACE_BOUND('',#153,.T.);
#62=FACE_OUTER_BOUND('',#107,.T.);
#63=FACE_OUTER_BOUND('',#111,.T.);
#64=FACE_OUTER_BOUND('',#112,.T.);
#65=FACE_OUTER_BOUND('',#113,.T.);
#66=FACE_OUTER_BOUND('',#114,.T.);
#67=FACE_OUTER_BOUND('',#115,.T.);
#68=FACE_OUTER_BOUND('',#116,.T.);
#69=FACE_OUTER_BOUND('',#117,.T.);
#70=FACE_OUTER_BOUND('',#121,.T.);
#71=FACE_OUTER_BOUND('',#122,.T.);
#72=FACE_OUTER_BOUND('',#123,.T.);
#73=FACE_OUTER_BOUND('',#135,.T.);
#74=FACE_OUTER_BOUND('',#136,.T.);
#75=FACE_OUTER_BOUND('',#137,.T.);
#76=FACE_OUTER_BOUND('',#138,.T.);
#77=FACE_OUTER_BOUND('',#139,.T.);
#78=FACE_OUTER_BOUND('',#140,.T.);
#79=FACE_OUTER_BOUND('',#141,.T.);
#80=FACE_OUTER_BOUND('',#142,.T.);
#81=FACE_OUTER_BOUND('',#154,.T.);
#82=FACE_OUTER_BOUND('',#155,.T.);
#83=FACE_OUTER_BOUND('',#156,.T.);
#84=FACE_OUTER_BOUND('',#157,.T.);
#85=FACE_OUTER_BOUND('',#158,.T.);
#86=FACE_OUTER_BOUND('',#159,.T.);
#87=FACE_OUTER_BOUND('',#160,.T.);
#88=FACE_OUTER_BOUND('',#161,.T.);
#89=FACE_OUTER_BOUND('',#162,.T.);
#90=FACE_OUTER_BOUND('',#163,.T.);
#91=FACE_OUTER_BOUND('',#164,.T.);
#92=FACE_OUTER_BOUND('',#165,.T.);
#93=FACE_OUTER_BOUND('',#166,.T.);
#94=FACE_OUTER_BOUND('',#167,.T.);
#95=FACE_OUTER_BOUND('',#168,.T.);
#96=FACE_OUTER_BOUND('',#169,.T.);
#97=FACE_OUTER_BOUND('',#170,.T.);
#98=FACE_OUTER_BOUND('',#171,.T.);
#99=FACE_OUTER_BOUND('',#172,.T.);
#100=FACE_OUTER_BOUND('',#173,.T.);
#101=FACE_OUTER_BOUND('',#174,.T.);
#102=FACE_OUTER_BOUND('',#175,.T.);
#103=FACE_OUTER_BOUND('',#176,.T.);
#104=FACE_OUTER_BOUND('',#177,.T.);
#105=FACE_OUTER_BOUND('',#178,.T.);
#106=FACE_OUTER_BOUND('',#179,.T.);
#107=EDGE_LOOP('',(#587,#588,#589,#590));
#108=EDGE_LOOP('',(#591));
#109=EDGE_LOOP('',(#592));
#110=EDGE_LOOP('',(#593));
#111=EDGE_LOOP('',(#594,#595,#596,#597));
#112=EDGE_LOOP('',(#598,#599,#600,#601));
#113=EDGE_LOOP('',(#602,#603,#604,#605));
#114=EDGE_LOOP('',(#606,#607,#608,#609));
#115=EDGE_LOOP('',(#610,#611,#612,#613));
#116=EDGE_LOOP('',(#614,#615,#616,#617));
#117=EDGE_LOOP('',(#618,#619,#620,#621));
#118=EDGE_LOOP('',(#622));
#119=EDGE_LOOP('',(#623));
#120=EDGE_LOOP('',(#624));
#121=EDGE_LOOP('',(#625,#626,#627,#628));
#122=EDGE_LOOP('',(#629,#630,#631,#632,#633));
#123=EDGE_LOOP('',(#634,#635,#636,#637,#638,#639,#640,#641));
#124=EDGE_LOOP('',(#642,#643,#644,#645));
#125=EDGE_LOOP('',(#646));
#126=EDGE_LOOP('',(#647));
#127=EDGE_LOOP('',(#648));
#128=EDGE_LOOP('',(#649));
#129=EDGE_LOOP('',(#650));
#130=EDGE_LOOP('',(#651));
#131=EDGE_LOOP('',(#652));
#132=EDGE_LOOP('',(#653));
#133=EDGE_LOOP('',(#654,#655,#656,#657));
#134=EDGE_LOOP('',(#658,#659,#660,#661));
#135=EDGE_LOOP('',(#662,#663,#664,#665));
#136=EDGE_LOOP('',(#666,#667,#668,#669,#670));
#137=EDGE_LOOP('',(#671,#672,#673,#674));
#138=EDGE_LOOP('',(#675,#676,#677,#678));
#139=EDGE_LOOP('',(#679,#680,#681,#682));
#140=EDGE_LOOP('',(#683,#684,#685,#686));
#141=EDGE_LOOP('',(#687,#688,#689,#690));
#142=EDGE_LOOP('',(#691,#692,#693,#694,#695,#696,#697,#698));
#143=EDGE_LOOP('',(#699,#700,#701,#702));
#144=EDGE_LOOP('',(#703,#704,#705,#706));
#145=EDGE_LOOP('',(#707));
#146=EDGE_LOOP('',(#708));
#147=EDGE_LOOP('',(#709));
#148=EDGE_LOOP('',(#710));
#149=EDGE_LOOP('',(#711));
#150=EDGE_LOOP('',(#712));
#151=EDGE_LOOP('',(#713));
#152=EDGE_LOOP('',(#714));
#153=EDGE_LOOP('',(#715,#716,#717,#718));
#154=EDGE_LOOP('',(#719,#720,#721,#722));
#155=EDGE_LOOP('',(#723,#724,#725,#726,#727));
#156=EDGE_LOOP('',(#728,#729,#730,#731));
#157=EDGE_LOOP('',(#732,#733,#734,#735));
#158=EDGE_LOOP('',(#736,#737,#738,#739,#740));
#159=EDGE_LOOP('',(#741,#742,#743,#744));
#160=EDGE_LOOP('',(#745,#746,#747,#748));
#161=EDGE_LOOP('',(#749,#750,#751,#752));
#162=EDGE_LOOP('',(#753,#754,#755,#756));
#163=EDGE_LOOP('',(#757,#758,#759,#760));
#164=EDGE_LOOP('',(#761,#762,#763,#764));
#165=EDGE_LOOP('',(#765,#766,#767,#768));
#166=EDGE_LOOP('',(#769,#770,#771,#772));
#167=EDGE_LOOP('',(#773,#774,#775,#776));
#168=EDGE_LOOP('',(#777,#778,#779,#780));
#169=EDGE_LOOP('',(#781,#782,#783,#784));
#170=EDGE_LOOP('',(#785,#786,#787,#788));
#171=EDGE_LOOP('',(#789,#790,#791,#792));
#172=EDGE_LOOP('',(#793,#794,#795,#796));
#173=EDGE_LOOP('',(#797,#798,#799,#800));
#174=EDGE_LOOP('',(#801,#802,#803,#804));
#175=EDGE_LOOP('',(#805,#806,#807,#808));
#176=EDGE_LOOP('',(#809,#810,#811,#812));
#177=EDGE_LOOP('',(#813,#814,#815,#816));
#178=EDGE_LOOP('',(#817,#818,#819,#820));
#179=EDGE_LOOP('',(#821,#822,#823,#824));
#180=LINE('',#1239,#271);
#181=LINE('',#1242,#272);
#182=LINE('',#1251,#273);
#183=LINE('',#1254,#274);
#184=LINE('',#1257,#275);
#185=LINE('',#1258,#276);
#186=LINE('',#1262,#277);
#187=LINE('',#1264,#278);
#188=LINE('',#1266,#279);
#189=LINE('',#1267,#280);
#190=LINE('',#1270,#281);
#191=LINE('',#1272,#282);
#192=LINE('',#1273,#283);
#193=LINE('',#1276,#284);
#194=LINE('',#1278,#285);
#195=LINE('',#1279,#286);
#196=LINE('',#1281,#287);
#197=LINE('',#1282,#288);
#198=LINE('',#1293,#289);
#199=LINE('',#1295,#290);
#200=LINE('',#1297,#291);
#201=LINE('',#1298,#292);
#202=LINE('',#1301,#293);
#203=LINE('',#1303,#294);
#204=LINE('',#1305,#295);
#205=LINE('',#1306,#296);
#206=LINE('',#1309,#297);
#207=LINE('',#1311,#298);
#208=LINE('',#1313,#299);
#209=LINE('',#1315,#300);
#210=LINE('',#1317,#301);
#211=LINE('',#1318,#302);
#212=LINE('',#1337,#303);
#213=LINE('',#1339,#304);
#214=LINE('',#1341,#305);
#215=LINE('',#1342,#306);
#216=LINE('',#1345,#307);
#217=LINE('',#1347,#308);
#218=LINE('',#1349,#309);
#219=LINE('',#1350,#310);
#220=LINE('',#1353,#311);
#221=LINE('',#1355,#312);
#222=LINE('',#1356,#313);
#223=LINE('',#1359,#314);
#224=LINE('',#1361,#315);
#225=LINE('',#1362,#316);
#226=LINE('',#1365,#317);
#227=LINE('',#1367,#318);
#228=LINE('',#1368,#319);
#229=LINE('',#1372,#320);
#230=LINE('',#1377,#321);
#231=LINE('',#1378,#322);
#232=LINE('',#1379,#323);
#233=LINE('',#1383,#324);
#234=LINE('',#1387,#325);
#235=LINE('',#1388,#326);
#236=LINE('',#1390,#327);
#237=LINE('',#1392,#328);
#238=LINE('',#1393,#329);
#239=LINE('',#1394,#330);
#240=LINE('',#1397,#331);
#241=LINE('',#1399,#332);
#242=LINE('',#1401,#333);
#243=LINE('',#1402,#334);
#244=LINE('',#1405,#335);
#245=LINE('',#1407,#336);
#246=LINE('',#1409,#337);
#247=LINE('',#1410,#338);
#248=LINE('',#1429,#339);
#249=LINE('',#1430,#340);
#250=LINE('',#1433,#341);
#251=LINE('',#1435,#342);
#252=LINE('',#1439,#343);
#253=LINE('',#1441,#344);
#254=LINE('',#1443,#345);
#255=LINE('',#1445,#346);
#256=LINE('',#1447,#347);
#257=LINE('',#1449,#348);
#258=LINE('',#1451,#349);
#259=LINE('',#1453,#350);
#260=LINE('',#1455,#351);
#261=LINE('',#1457,#352);
#262=LINE('',#1459,#353);
#263=LINE('',#1461,#354);
#264=LINE('',#1462,#355);
#265=LINE('',#1464,#356);
#266=LINE('',#1466,#357);
#267=LINE('',#1469,#358);
#268=LINE('',#1470,#359);
#269=LINE('',#1472,#360);
#270=LINE('',#1474,#361);
#271=VECTOR('',#997,10.);
#272=VECTOR('',#1000,10.);
#273=VECTOR('',#1009,10.);
#274=VECTOR('',#1012,10.);
#275=VECTOR('',#1015,10.);
#276=VECTOR('',#1016,10.);
#277=VECTOR('',#1019,10.);
#278=VECTOR('',#1020,10.);
#279=VECTOR('',#1021,10.);
#280=VECTOR('',#1022,10.);
#281=VECTOR('',#1025,10.);
#282=VECTOR('',#1026,10.);
#283=VECTOR('',#1027,10.);
#284=VECTOR('',#1030,10.);
#285=VECTOR('',#1031,10.);
#286=VECTOR('',#1032,10.);
#287=VECTOR('',#1035,10.);
#288=VECTOR('',#1036,10.);
#289=VECTOR('',#1047,10.);
#290=VECTOR('',#1048,10.);
#291=VECTOR('',#1049,10.);
#292=VECTOR('',#1050,10.);
#293=VECTOR('',#1053,10.);
#294=VECTOR('',#1054,10.);
#295=VECTOR('',#1055,10.);
#296=VECTOR('',#1056,10.);
#297=VECTOR('',#1059,10.);
#298=VECTOR('',#1060,10.);
#299=VECTOR('',#1061,10.);
#300=VECTOR('',#1062,10.);
#301=VECTOR('',#1063,10.);
#302=VECTOR('',#1064,10.);
#303=VECTOR('',#1081,10.);
#304=VECTOR('',#1082,10.);
#305=VECTOR('',#1083,10.);
#306=VECTOR('',#1084,10.);
#307=VECTOR('',#1085,10.);
#308=VECTOR('',#1086,10.);
#309=VECTOR('',#1087,10.);
#310=VECTOR('',#1088,10.);
#311=VECTOR('',#1091,10.);
#312=VECTOR('',#1092,10.);
#313=VECTOR('',#1093,10.);
#314=VECTOR('',#1096,10.);
#315=VECTOR('',#1097,10.);
#316=VECTOR('',#1098,10.);
#317=VECTOR('',#1101,10.);
#318=VECTOR('',#1102,10.);
#319=VECTOR('',#1103,10.);
#320=VECTOR('',#1106,10.);
#321=VECTOR('',#1113,10.);
#322=VECTOR('',#1114,10.);
#323=VECTOR('',#1115,10.);
#324=VECTOR('',#1122,10.);
#325=VECTOR('',#1125,10.);
#326=VECTOR('',#1126,10.);
#327=VECTOR('',#1127,10.);
#328=VECTOR('',#1128,10.);
#329=VECTOR('',#1129,10.);
#330=VECTOR('',#1130,10.);
#331=VECTOR('',#1131,10.);
#332=VECTOR('',#1132,10.);
#333=VECTOR('',#1133,10.);
#334=VECTOR('',#1134,10.);
#335=VECTOR('',#1135,10.);
#336=VECTOR('',#1136,10.);
#337=VECTOR('',#1137,10.);
#338=VECTOR('',#1138,10.);
#339=VECTOR('',#1159,10.);
#340=VECTOR('',#1160,10.);
#341=VECTOR('',#1165,10.);
#342=VECTOR('',#1168,10.);
#343=VECTOR('',#1175,2.25000000000001);
#344=VECTOR('',#1178,2.25);
#345=VECTOR('',#1181,2.25);
#346=VECTOR('',#1184,2.25);
#347=VECTOR('',#1187,2.25000000000001);
#348=VECTOR('',#1190,2.25);
#349=VECTOR('',#1193,2.25);
#350=VECTOR('',#1196,2.25000000000001);
#351=VECTOR('',#1199,1.6);
#352=VECTOR('',#1202,1.6);
#353=VECTOR('',#1205,1.59999999999999);
#354=VECTOR('',#1208,10.);
#355=VECTOR('',#1209,10.);
#356=VECTOR('',#1212,10.);
#357=VECTOR('',#1215,10.);
#358=VECTOR('',#1220,10.);
#359=VECTOR('',#1221,10.);
#360=VECTOR('',#1224,10.);
#361=VECTOR('',#1227,10.);
#362=CIRCLE('',#916,3.50000000000001);
#363=CIRCLE('',#917,3.50000005215406);
#364=CIRCLE('',#918,1.59999999999999);
#365=CIRCLE('',#919,1.6);
#366=CIRCLE('',#920,1.6);
#367=CIRCLE('',#922,3.50000005215406);
#368=CIRCLE('',#929,1.59999999999999);
#369=CIRCLE('',#930,1.6);
#370=CIRCLE('',#931,1.6);
#371=CIRCLE('',#935,2.25000000000001);
#372=CIRCLE('',#936,2.25);
#373=CIRCLE('',#937,2.25);
#374=CIRCLE('',#938,2.25);
#375=CIRCLE('',#939,2.25000000000001);
#376=CIRCLE('',#940,2.25);
#377=CIRCLE('',#941,2.25);
#378=CIRCLE('',#942,2.25000000000001);
#379=CIRCLE('',#947,3.9);
#380=CIRCLE('',#948,3.50000000000001);
#381=CIRCLE('',#951,3.90000005215406);
#382=CIRCLE('',#954,2.25000000000001);
#383=CIRCLE('',#955,2.25);
#384=CIRCLE('',#956,2.25);
#385=CIRCLE('',#957,2.25000000000001);
#386=CIRCLE('',#958,2.25);
#387=CIRCLE('',#959,2.25);
#388=CIRCLE('',#960,2.25);
#389=CIRCLE('',#961,2.25000000000001);
#390=VERTEX_POINT('',#1235);
#391=VERTEX_POINT('',#1236);
#392=VERTEX_POINT('',#1238);
#393=VERTEX_POINT('',#1240);
#394=VERTEX_POINT('',#1243);
#395=VERTEX_POINT('',#1245);
#396=VERTEX_POINT('',#1247);
#397=VERTEX_POINT('',#1250);
#398=VERTEX_POINT('',#1252);
#399=VERTEX_POINT('',#1256);
#400=VERTEX_POINT('',#1260);
#401=VERTEX_POINT('',#1261);
#402=VERTEX_POINT('',#1263);
#403=VERTEX_POINT('',#1265);
#404=VERTEX_POINT('',#1269);
#405=VERTEX_POINT('',#1271);
#406=VERTEX_POINT('',#1275);
#407=VERTEX_POINT('',#1277);
#408=VERTEX_POINT('',#1284);
#409=VERTEX_POINT('',#1286);
#410=VERTEX_POINT('',#1288);
#411=VERTEX_POINT('',#1291);
#412=VERTEX_POINT('',#1292);
#413=VERTEX_POINT('',#1294);
#414=VERTEX_POINT('',#1296);
#415=VERTEX_POINT('',#1300);
#416=VERTEX_POINT('',#1302);
#417=VERTEX_POINT('',#1304);
#418=VERTEX_POINT('',#1308);
#419=VERTEX_POINT('',#1310);
#420=VERTEX_POINT('',#1312);
#421=VERTEX_POINT('',#1314);
#422=VERTEX_POINT('',#1316);
#423=VERTEX_POINT('',#1319);
#424=VERTEX_POINT('',#1321);
#425=VERTEX_POINT('',#1323);
#426=VERTEX_POINT('',#1325);
#427=VERTEX_POINT('',#1327);
#428=VERTEX_POINT('',#1329);
#429=VERTEX_POINT('',#1331);
#430=VERTEX_POINT('',#1333);
#431=VERTEX_POINT('',#1335);
#432=VERTEX_POINT('',#1336);
#433=VERTEX_POINT('',#1338);
#434=VERTEX_POINT('',#1340);
#435=VERTEX_POINT('',#1343);
#436=VERTEX_POINT('',#1344);
#437=VERTEX_POINT('',#1346);
#438=VERTEX_POINT('',#1348);
#439=VERTEX_POINT('',#1352);
#440=VERTEX_POINT('',#1354);
#441=VERTEX_POINT('',#1358);
#442=VERTEX_POINT('',#1360);
#443=VERTEX_POINT('',#1364);
#444=VERTEX_POINT('',#1366);
#445=VERTEX_POINT('',#1370);
#446=VERTEX_POINT('',#1371);
#447=VERTEX_POINT('',#1376);
#448=VERTEX_POINT('',#1385);
#449=VERTEX_POINT('',#1386);
#450=VERTEX_POINT('',#1389);
#451=VERTEX_POINT('',#1391);
#452=VERTEX_POINT('',#1395);
#453=VERTEX_POINT('',#1396);
#454=VERTEX_POINT('',#1398);
#455=VERTEX_POINT('',#1400);
#456=VERTEX_POINT('',#1403);
#457=VERTEX_POINT('',#1404);
#458=VERTEX_POINT('',#1406);
#459=VERTEX_POINT('',#1408);
#460=VERTEX_POINT('',#1411);
#461=VERTEX_POINT('',#1413);
#462=VERTEX_POINT('',#1415);
#463=VERTEX_POINT('',#1417);
#464=VERTEX_POINT('',#1419);
#465=VERTEX_POINT('',#1421);
#466=VERTEX_POINT('',#1423);
#467=VERTEX_POINT('',#1425);
#468=EDGE_CURVE('',#390,#391,#362,.T.);
#469=EDGE_CURVE('',#392,#390,#180,.T.);
#470=EDGE_CURVE('',#393,#392,#363,.T.);
#471=EDGE_CURVE('',#391,#393,#181,.T.);
#472=EDGE_CURVE('',#394,#394,#364,.T.);
#473=EDGE_CURVE('',#395,#395,#365,.T.);
#474=EDGE_CURVE('',#396,#396,#366,.T.);
#475=EDGE_CURVE('',#397,#392,#182,.T.);
#476=EDGE_CURVE('',#398,#397,#367,.T.);
#477=EDGE_CURVE('',#398,#393,#183,.T.);
#478=EDGE_CURVE('',#399,#390,#184,.T.);
#479=EDGE_CURVE('',#397,#399,#185,.T.);
#480=EDGE_CURVE('',#400,#401,#186,.T.);
#481=EDGE_CURVE('',#400,#402,#187,.T.);
#482=EDGE_CURVE('',#402,#403,#188,.T.);
#483=EDGE_CURVE('',#401,#403,#189,.T.);
#484=EDGE_CURVE('',#404,#400,#190,.T.);
#485=EDGE_CURVE('',#404,#405,#191,.T.);
#486=EDGE_CURVE('',#405,#402,#192,.T.);
#487=EDGE_CURVE('',#406,#404,#193,.T.);
#488=EDGE_CURVE('',#406,#407,#194,.T.);
#489=EDGE_CURVE('',#407,#405,#195,.T.);
#490=EDGE_CURVE('',#401,#406,#196,.T.);
#491=EDGE_CURVE('',#403,#407,#197,.T.);
#492=EDGE_CURVE('',#408,#408,#368,.T.);
#493=EDGE_CURVE('',#409,#409,#369,.T.);
#494=EDGE_CURVE('',#410,#410,#370,.T.);
#495=EDGE_CURVE('',#411,#412,#198,.T.);
#496=EDGE_CURVE('',#412,#413,#199,.T.);
#497=EDGE_CURVE('',#413,#414,#200,.T.);
#498=EDGE_CURVE('',#414,#411,#201,.T.);
#499=EDGE_CURVE('',#411,#415,#202,.T.);
#500=EDGE_CURVE('',#415,#416,#203,.T.);
#501=EDGE_CURVE('',#416,#417,#204,.T.);
#502=EDGE_CURVE('',#417,#412,#205,.T.);
#503=EDGE_CURVE('',#418,#414,#206,.T.);
#504=EDGE_CURVE('',#418,#419,#207,.T.);
#505=EDGE_CURVE('',#420,#419,#208,.T.);
#506=EDGE_CURVE('',#421,#420,#209,.T.);
#507=EDGE_CURVE('',#422,#421,#210,.T.);
#508=EDGE_CURVE('',#422,#415,#211,.T.);
#509=EDGE_CURVE('',#423,#423,#371,.T.);
#510=EDGE_CURVE('',#424,#424,#372,.T.);
#511=EDGE_CURVE('',#425,#425,#373,.T.);
#512=EDGE_CURVE('',#426,#426,#374,.T.);
#513=EDGE_CURVE('',#427,#427,#375,.T.);
#514=EDGE_CURVE('',#428,#428,#376,.T.);
#515=EDGE_CURVE('',#429,#429,#377,.T.);
#516=EDGE_CURVE('',#430,#430,#378,.T.);
#517=EDGE_CURVE('',#431,#432,#212,.T.);
#518=EDGE_CURVE('',#432,#433,#213,.T.);
#519=EDGE_CURVE('',#433,#434,#214,.T.);
#520=EDGE_CURVE('',#434,#431,#215,.T.);
#521=EDGE_CURVE('',#435,#436,#216,.T.);
#522=EDGE_CURVE('',#436,#437,#217,.T.);
#523=EDGE_CURVE('',#437,#438,#218,.T.);
#524=EDGE_CURVE('',#438,#435,#219,.T.);
#525=EDGE_CURVE('',#420,#439,#220,.T.);
#526=EDGE_CURVE('',#439,#440,#221,.T.);
#527=EDGE_CURVE('',#440,#421,#222,.T.);
#528=EDGE_CURVE('',#419,#441,#223,.T.);
#529=EDGE_CURVE('',#441,#442,#224,.T.);
#530=EDGE_CURVE('',#442,#439,#225,.T.);
#531=EDGE_CURVE('',#399,#443,#226,.T.);
#532=EDGE_CURVE('',#443,#444,#227,.T.);
#533=EDGE_CURVE('',#444,#397,#228,.T.);
#534=EDGE_CURVE('',#445,#446,#229,.T.);
#535=EDGE_CURVE('',#446,#443,#379,.T.);
#536=EDGE_CURVE('',#399,#445,#380,.T.);
#537=EDGE_CURVE('',#398,#447,#230,.T.);
#538=EDGE_CURVE('',#447,#446,#231,.T.);
#539=EDGE_CURVE('',#445,#398,#232,.T.);
#540=EDGE_CURVE('',#444,#447,#381,.T.);
#541=EDGE_CURVE('',#445,#391,#233,.T.);
#542=EDGE_CURVE('',#448,#449,#234,.T.);
#543=EDGE_CURVE('',#417,#448,#235,.T.);
#544=EDGE_CURVE('',#416,#450,#236,.T.);
#545=EDGE_CURVE('',#451,#450,#237,.T.);
#546=EDGE_CURVE('',#442,#451,#238,.T.);
#547=EDGE_CURVE('',#441,#449,#239,.T.);
#548=EDGE_CURVE('',#452,#453,#240,.T.);
#549=EDGE_CURVE('',#453,#454,#241,.T.);
#550=EDGE_CURVE('',#454,#455,#242,.T.);
#551=EDGE_CURVE('',#455,#452,#243,.T.);
#552=EDGE_CURVE('',#456,#457,#244,.T.);
#553=EDGE_CURVE('',#457,#458,#245,.T.);
#554=EDGE_CURVE('',#458,#459,#246,.T.);
#555=EDGE_CURVE('',#459,#456,#247,.T.);
#556=EDGE_CURVE('',#460,#460,#382,.T.);
#557=EDGE_CURVE('',#461,#461,#383,.T.);
#558=EDGE_CURVE('',#462,#462,#384,.T.);
#559=EDGE_CURVE('',#463,#463,#385,.T.);
#560=EDGE_CURVE('',#464,#464,#386,.T.);
#561=EDGE_CURVE('',#465,#465,#387,.T.);
#562=EDGE_CURVE('',#466,#466,#388,.T.);
#563=EDGE_CURVE('',#467,#467,#389,.T.);
#564=EDGE_CURVE('',#413,#448,#248,.T.);
#565=EDGE_CURVE('',#449,#418,#249,.T.);
#566=EDGE_CURVE('',#450,#422,#250,.T.);
#567=EDGE_CURVE('',#440,#451,#251,.T.);
#568=EDGE_CURVE('',#423,#467,#252,.T.);
#569=EDGE_CURVE('',#424,#466,#253,.T.);
#570=EDGE_CURVE('',#425,#465,#254,.T.);
#571=EDGE_CURVE('',#426,#464,#255,.T.);
#572=EDGE_CURVE('',#427,#463,#256,.T.);
#573=EDGE_CURVE('',#428,#462,#257,.T.);
#574=EDGE_CURVE('',#429,#461,#258,.T.);
#575=EDGE_CURVE('',#430,#460,#259,.T.);
#576=EDGE_CURVE('',#409,#396,#260,.T.);
#577=EDGE_CURVE('',#410,#395,#261,.T.);
#578=EDGE_CURVE('',#408,#394,#262,.T.);
#579=EDGE_CURVE('',#459,#433,#263,.T.);
#580=EDGE_CURVE('',#458,#434,#264,.T.);
#581=EDGE_CURVE('',#457,#431,#265,.T.);
#582=EDGE_CURVE('',#456,#432,#266,.T.);
#583=EDGE_CURVE('',#455,#437,#267,.T.);
#584=EDGE_CURVE('',#454,#438,#268,.T.);
#585=EDGE_CURVE('',#453,#435,#269,.T.);
#586=EDGE_CURVE('',#452,#436,#270,.T.);
#587=ORIENTED_EDGE('',*,*,#468,.F.);
#588=ORIENTED_EDGE('',*,*,#469,.F.);
#589=ORIENTED_EDGE('',*,*,#470,.F.);
#590=ORIENTED_EDGE('',*,*,#471,.F.);
#591=ORIENTED_EDGE('',*,*,#472,.T.);
#592=ORIENTED_EDGE('',*,*,#473,.T.);
#593=ORIENTED_EDGE('',*,*,#474,.T.);
#594=ORIENTED_EDGE('',*,*,#470,.T.);
#595=ORIENTED_EDGE('',*,*,#475,.F.);
#596=ORIENTED_EDGE('',*,*,#476,.F.);
#597=ORIENTED_EDGE('',*,*,#477,.T.);
#598=ORIENTED_EDGE('',*,*,#469,.T.);
#599=ORIENTED_EDGE('',*,*,#478,.F.);
#600=ORIENTED_EDGE('',*,*,#479,.F.);
#601=ORIENTED_EDGE('',*,*,#475,.T.);
#602=ORIENTED_EDGE('',*,*,#480,.F.);
#603=ORIENTED_EDGE('',*,*,#481,.T.);
#604=ORIENTED_EDGE('',*,*,#482,.T.);
#605=ORIENTED_EDGE('',*,*,#483,.F.);
#606=ORIENTED_EDGE('',*,*,#484,.F.);
#607=ORIENTED_EDGE('',*,*,#485,.T.);
#608=ORIENTED_EDGE('',*,*,#486,.T.);
#609=ORIENTED_EDGE('',*,*,#481,.F.);
#610=ORIENTED_EDGE('',*,*,#487,.F.);
#611=ORIENTED_EDGE('',*,*,#488,.T.);
#612=ORIENTED_EDGE('',*,*,#489,.T.);
#613=ORIENTED_EDGE('',*,*,#485,.F.);
#614=ORIENTED_EDGE('',*,*,#490,.F.);
#615=ORIENTED_EDGE('',*,*,#483,.T.);
#616=ORIENTED_EDGE('',*,*,#491,.T.);
#617=ORIENTED_EDGE('',*,*,#488,.F.);
#618=ORIENTED_EDGE('',*,*,#491,.F.);
#619=ORIENTED_EDGE('',*,*,#482,.F.);
#620=ORIENTED_EDGE('',*,*,#486,.F.);
#621=ORIENTED_EDGE('',*,*,#489,.F.);
#622=ORIENTED_EDGE('',*,*,#492,.F.);
#623=ORIENTED_EDGE('',*,*,#493,.F.);
#624=ORIENTED_EDGE('',*,*,#494,.F.);
#625=ORIENTED_EDGE('',*,*,#495,.T.);
#626=ORIENTED_EDGE('',*,*,#496,.T.);
#627=ORIENTED_EDGE('',*,*,#497,.T.);
#628=ORIENTED_EDGE('',*,*,#498,.T.);
#629=ORIENTED_EDGE('',*,*,#495,.F.);
#630=ORIENTED_EDGE('',*,*,#499,.T.);
#631=ORIENTED_EDGE('',*,*,#500,.T.);
#632=ORIENTED_EDGE('',*,*,#501,.T.);
#633=ORIENTED_EDGE('',*,*,#502,.T.);
#634=ORIENTED_EDGE('',*,*,#498,.F.);
#635=ORIENTED_EDGE('',*,*,#503,.F.);
#636=ORIENTED_EDGE('',*,*,#504,.T.);
#637=ORIENTED_EDGE('',*,*,#505,.F.);
#638=ORIENTED_EDGE('',*,*,#506,.F.);
#639=ORIENTED_EDGE('',*,*,#507,.F.);
#640=ORIENTED_EDGE('',*,*,#508,.T.);
#641=ORIENTED_EDGE('',*,*,#499,.F.);
#642=ORIENTED_EDGE('',*,*,#480,.T.);
#643=ORIENTED_EDGE('',*,*,#490,.T.);
#644=ORIENTED_EDGE('',*,*,#487,.T.);
#645=ORIENTED_EDGE('',*,*,#484,.T.);
#646=ORIENTED_EDGE('',*,*,#509,.T.);
#647=ORIENTED_EDGE('',*,*,#510,.T.);
#648=ORIENTED_EDGE('',*,*,#511,.T.);
#649=ORIENTED_EDGE('',*,*,#512,.T.);
#650=ORIENTED_EDGE('',*,*,#513,.T.);
#651=ORIENTED_EDGE('',*,*,#514,.T.);
#652=ORIENTED_EDGE('',*,*,#515,.T.);
#653=ORIENTED_EDGE('',*,*,#516,.T.);
#654=ORIENTED_EDGE('',*,*,#517,.T.);
#655=ORIENTED_EDGE('',*,*,#518,.T.);
#656=ORIENTED_EDGE('',*,*,#519,.T.);
#657=ORIENTED_EDGE('',*,*,#520,.T.);
#658=ORIENTED_EDGE('',*,*,#521,.T.);
#659=ORIENTED_EDGE('',*,*,#522,.T.);
#660=ORIENTED_EDGE('',*,*,#523,.T.);
#661=ORIENTED_EDGE('',*,*,#524,.T.);
#662=ORIENTED_EDGE('',*,*,#525,.T.);
#663=ORIENTED_EDGE('',*,*,#526,.T.);
#664=ORIENTED_EDGE('',*,*,#527,.T.);
#665=ORIENTED_EDGE('',*,*,#506,.T.);
#666=ORIENTED_EDGE('',*,*,#525,.F.);
#667=ORIENTED_EDGE('',*,*,#505,.T.);
#668=ORIENTED_EDGE('',*,*,#528,.T.);
#669=ORIENTED_EDGE('',*,*,#529,.T.);
#670=ORIENTED_EDGE('',*,*,#530,.T.);
#671=ORIENTED_EDGE('',*,*,#531,.T.);
#672=ORIENTED_EDGE('',*,*,#532,.T.);
#673=ORIENTED_EDGE('',*,*,#533,.T.);
#674=ORIENTED_EDGE('',*,*,#479,.T.);
#675=ORIENTED_EDGE('',*,*,#534,.T.);
#676=ORIENTED_EDGE('',*,*,#535,.T.);
#677=ORIENTED_EDGE('',*,*,#531,.F.);
#678=ORIENTED_EDGE('',*,*,#536,.T.);
#679=ORIENTED_EDGE('',*,*,#537,.T.);
#680=ORIENTED_EDGE('',*,*,#538,.T.);
#681=ORIENTED_EDGE('',*,*,#534,.F.);
#682=ORIENTED_EDGE('',*,*,#539,.T.);
#683=ORIENTED_EDGE('',*,*,#533,.F.);
#684=ORIENTED_EDGE('',*,*,#540,.T.);
#685=ORIENTED_EDGE('',*,*,#537,.F.);
#686=ORIENTED_EDGE('',*,*,#476,.T.);
#687=ORIENTED_EDGE('',*,*,#468,.T.);
#688=ORIENTED_EDGE('',*,*,#541,.F.);
#689=ORIENTED_EDGE('',*,*,#536,.F.);
#690=ORIENTED_EDGE('',*,*,#478,.T.);
#691=ORIENTED_EDGE('',*,*,#542,.F.);
#692=ORIENTED_EDGE('',*,*,#543,.F.);
#693=ORIENTED_EDGE('',*,*,#501,.F.);
#694=ORIENTED_EDGE('',*,*,#544,.T.);
#695=ORIENTED_EDGE('',*,*,#545,.F.);
#696=ORIENTED_EDGE('',*,*,#546,.F.);
#697=ORIENTED_EDGE('',*,*,#529,.F.);
#698=ORIENTED_EDGE('',*,*,#547,.T.);
#699=ORIENTED_EDGE('',*,*,#548,.T.);
#700=ORIENTED_EDGE('',*,*,#549,.T.);
#701=ORIENTED_EDGE('',*,*,#550,.T.);
#702=ORIENTED_EDGE('',*,*,#551,.T.);
#703=ORIENTED_EDGE('',*,*,#552,.T.);
#704=ORIENTED_EDGE('',*,*,#553,.T.);
#705=ORIENTED_EDGE('',*,*,#554,.T.);
#706=ORIENTED_EDGE('',*,*,#555,.T.);
#707=ORIENTED_EDGE('',*,*,#556,.T.);
#708=ORIENTED_EDGE('',*,*,#557,.T.);
#709=ORIENTED_EDGE('',*,*,#558,.T.);
#710=ORIENTED_EDGE('',*,*,#559,.T.);
#711=ORIENTED_EDGE('',*,*,#560,.T.);
#712=ORIENTED_EDGE('',*,*,#561,.T.);
#713=ORIENTED_EDGE('',*,*,#562,.T.);
#714=ORIENTED_EDGE('',*,*,#563,.T.);
#715=ORIENTED_EDGE('',*,*,#532,.F.);
#716=ORIENTED_EDGE('',*,*,#535,.F.);
#717=ORIENTED_EDGE('',*,*,#538,.F.);
#718=ORIENTED_EDGE('',*,*,#540,.F.);
#719=ORIENTED_EDGE('',*,*,#471,.T.);
#720=ORIENTED_EDGE('',*,*,#477,.F.);
#721=ORIENTED_EDGE('',*,*,#539,.F.);
#722=ORIENTED_EDGE('',*,*,#541,.T.);
#723=ORIENTED_EDGE('',*,*,#497,.F.);
#724=ORIENTED_EDGE('',*,*,#564,.T.);
#725=ORIENTED_EDGE('',*,*,#542,.T.);
#726=ORIENTED_EDGE('',*,*,#565,.T.);
#727=ORIENTED_EDGE('',*,*,#503,.T.);
#728=ORIENTED_EDGE('',*,*,#565,.F.);
#729=ORIENTED_EDGE('',*,*,#547,.F.);
#730=ORIENTED_EDGE('',*,*,#528,.F.);
#731=ORIENTED_EDGE('',*,*,#504,.F.);
#732=ORIENTED_EDGE('',*,*,#500,.F.);
#733=ORIENTED_EDGE('',*,*,#508,.F.);
#734=ORIENTED_EDGE('',*,*,#566,.F.);
#735=ORIENTED_EDGE('',*,*,#544,.F.);
#736=ORIENTED_EDGE('',*,*,#527,.F.);
#737=ORIENTED_EDGE('',*,*,#567,.T.);
#738=ORIENTED_EDGE('',*,*,#545,.T.);
#739=ORIENTED_EDGE('',*,*,#566,.T.);
#740=ORIENTED_EDGE('',*,*,#507,.T.);
#741=ORIENTED_EDGE('',*,*,#496,.F.);
#742=ORIENTED_EDGE('',*,*,#502,.F.);
#743=ORIENTED_EDGE('',*,*,#543,.T.);
#744=ORIENTED_EDGE('',*,*,#564,.F.);
#745=ORIENTED_EDGE('',*,*,#526,.F.);
#746=ORIENTED_EDGE('',*,*,#530,.F.);
#747=ORIENTED_EDGE('',*,*,#546,.T.);
#748=ORIENTED_EDGE('',*,*,#567,.F.);
#749=ORIENTED_EDGE('',*,*,#509,.F.);
#750=ORIENTED_EDGE('',*,*,#568,.T.);
#751=ORIENTED_EDGE('',*,*,#563,.F.);
#752=ORIENTED_EDGE('',*,*,#568,.F.);
#753=ORIENTED_EDGE('',*,*,#510,.F.);
#754=ORIENTED_EDGE('',*,*,#569,.T.);
#755=ORIENTED_EDGE('',*,*,#562,.F.);
#756=ORIENTED_EDGE('',*,*,#569,.F.);
#757=ORIENTED_EDGE('',*,*,#511,.F.);
#758=ORIENTED_EDGE('',*,*,#570,.T.);
#759=ORIENTED_EDGE('',*,*,#561,.F.);
#760=ORIENTED_EDGE('',*,*,#570,.F.);
#761=ORIENTED_EDGE('',*,*,#512,.F.);
#762=ORIENTED_EDGE('',*,*,#571,.T.);
#763=ORIENTED_EDGE('',*,*,#560,.F.);
#764=ORIENTED_EDGE('',*,*,#571,.F.);
#765=ORIENTED_EDGE('',*,*,#513,.F.);
#766=ORIENTED_EDGE('',*,*,#572,.T.);
#767=ORIENTED_EDGE('',*,*,#559,.F.);
#768=ORIENTED_EDGE('',*,*,#572,.F.);
#769=ORIENTED_EDGE('',*,*,#514,.F.);
#770=ORIENTED_EDGE('',*,*,#573,.T.);
#771=ORIENTED_EDGE('',*,*,#558,.F.);
#772=ORIENTED_EDGE('',*,*,#573,.F.);
#773=ORIENTED_EDGE('',*,*,#515,.F.);
#774=ORIENTED_EDGE('',*,*,#574,.T.);
#775=ORIENTED_EDGE('',*,*,#557,.F.);
#776=ORIENTED_EDGE('',*,*,#574,.F.);
#777=ORIENTED_EDGE('',*,*,#516,.F.);
#778=ORIENTED_EDGE('',*,*,#575,.T.);
#779=ORIENTED_EDGE('',*,*,#556,.F.);
#780=ORIENTED_EDGE('',*,*,#575,.F.);
#781=ORIENTED_EDGE('',*,*,#493,.T.);
#782=ORIENTED_EDGE('',*,*,#576,.T.);
#783=ORIENTED_EDGE('',*,*,#474,.F.);
#784=ORIENTED_EDGE('',*,*,#576,.F.);
#785=ORIENTED_EDGE('',*,*,#494,.T.);
#786=ORIENTED_EDGE('',*,*,#577,.T.);
#787=ORIENTED_EDGE('',*,*,#473,.F.);
#788=ORIENTED_EDGE('',*,*,#577,.F.);
#789=ORIENTED_EDGE('',*,*,#492,.T.);
#790=ORIENTED_EDGE('',*,*,#578,.T.);
#791=ORIENTED_EDGE('',*,*,#472,.F.);
#792=ORIENTED_EDGE('',*,*,#578,.F.);
#793=ORIENTED_EDGE('',*,*,#519,.F.);
#794=ORIENTED_EDGE('',*,*,#579,.F.);
#795=ORIENTED_EDGE('',*,*,#554,.F.);
#796=ORIENTED_EDGE('',*,*,#580,.T.);
#797=ORIENTED_EDGE('',*,*,#520,.F.);
#798=ORIENTED_EDGE('',*,*,#580,.F.);
#799=ORIENTED_EDGE('',*,*,#553,.F.);
#800=ORIENTED_EDGE('',*,*,#581,.T.);
#801=ORIENTED_EDGE('',*,*,#517,.F.);
#802=ORIENTED_EDGE('',*,*,#581,.F.);
#803=ORIENTED_EDGE('',*,*,#552,.F.);
#804=ORIENTED_EDGE('',*,*,#582,.T.);
#805=ORIENTED_EDGE('',*,*,#518,.F.);
#806=ORIENTED_EDGE('',*,*,#582,.F.);
#807=ORIENTED_EDGE('',*,*,#555,.F.);
#808=ORIENTED_EDGE('',*,*,#579,.T.);
#809=ORIENTED_EDGE('',*,*,#523,.F.);
#810=ORIENTED_EDGE('',*,*,#583,.F.);
#811=ORIENTED_EDGE('',*,*,#550,.F.);
#812=ORIENTED_EDGE('',*,*,#584,.T.);
#813=ORIENTED_EDGE('',*,*,#524,.F.);
#814=ORIENTED_EDGE('',*,*,#584,.F.);
#815=ORIENTED_EDGE('',*,*,#549,.F.);
#816=ORIENTED_EDGE('',*,*,#585,.T.);
#817=ORIENTED_EDGE('',*,*,#521,.F.);
#818=ORIENTED_EDGE('',*,*,#585,.F.);
#819=ORIENTED_EDGE('',*,*,#548,.F.);
#820=ORIENTED_EDGE('',*,*,#586,.T.);
#821=ORIENTED_EDGE('',*,*,#522,.F.);
#822=ORIENTED_EDGE('',*,*,#586,.F.);
#823=ORIENTED_EDGE('',*,*,#551,.F.);
#824=ORIENTED_EDGE('',*,*,#583,.T.);
#825=PLANE('',#915);
#826=PLANE('',#923);
#827=PLANE('',#924);
#828=PLANE('',#925);
#829=PLANE('',#926);
#830=PLANE('',#927);
#831=PLANE('',#928);
#832=PLANE('',#932);
#833=PLANE('',#933);
#834=PLANE('',#934);
#835=PLANE('',#943);
#836=PLANE('',#944);
#837=PLANE('',#945);
#838=PLANE('',#949);
#839=PLANE('',#953);
#840=PLANE('',#962);
#841=PLANE('',#963);
#842=PLANE('',#964);
#843=PLANE('',#965);
#844=PLANE('',#966);
#845=PLANE('',#967);
#846=PLANE('',#968);
#847=PLANE('',#980);
#848=PLANE('',#981);
#849=PLANE('',#982);
#850=PLANE('',#983);
#851=PLANE('',#984);
#852=PLANE('',#985);
#853=PLANE('',#986);
#854=PLANE('',#987);
#855=ADVANCED_FACE('',(#62,#34,#35,#36),#825,.T.);
#856=ADVANCED_FACE('',(#63),#21,.F.);
#857=ADVANCED_FACE('',(#64),#826,.F.);
#858=ADVANCED_FACE('',(#65),#827,.F.);
#859=ADVANCED_FACE('',(#66),#828,.F.);
#860=ADVANCED_FACE('',(#67),#829,.F.);
#861=ADVANCED_FACE('',(#68),#830,.F.);
#862=ADVANCED_FACE('',(#69,#37,#38,#39),#831,.F.);
#863=ADVANCED_FACE('',(#70),#832,.T.);
#864=ADVANCED_FACE('',(#71),#833,.T.);
#865=ADVANCED_FACE('',(#72,#40,#41,#42,#43,#44,#45,#46,#47,#48,#49,#50),
#834,.T.);
#866=ADVANCED_FACE('',(#73),#835,.T.);
#867=ADVANCED_FACE('',(#74),#836,.T.);
#868=ADVANCED_FACE('',(#75),#837,.T.);
#869=ADVANCED_FACE('',(#76),#19,.F.);
#870=ADVANCED_FACE('',(#77),#838,.T.);
#871=ADVANCED_FACE('',(#78),#20,.F.);
#872=ADVANCED_FACE('',(#79),#22,.F.);
#873=ADVANCED_FACE('',(#80,#51,#52,#53,#54,#55,#56,#57,#58,#59,#60,#61),
#839,.F.);
#874=ADVANCED_FACE('',(#81),#840,.F.);
#875=ADVANCED_FACE('',(#82),#841,.T.);
#876=ADVANCED_FACE('',(#83),#842,.F.);
#877=ADVANCED_FACE('',(#84),#843,.F.);
#878=ADVANCED_FACE('',(#85),#844,.T.);
#879=ADVANCED_FACE('',(#86),#845,.T.);
#880=ADVANCED_FACE('',(#87),#846,.T.);
#881=ADVANCED_FACE('',(#88),#23,.F.);
#882=ADVANCED_FACE('',(#89),#24,.F.);
#883=ADVANCED_FACE('',(#90),#25,.F.);
#884=ADVANCED_FACE('',(#91),#26,.F.);
#885=ADVANCED_FACE('',(#92),#27,.F.);
#886=ADVANCED_FACE('',(#93),#28,.F.);
#887=ADVANCED_FACE('',(#94),#29,.F.);
#888=ADVANCED_FACE('',(#95),#30,.F.);
#889=ADVANCED_FACE('',(#96),#31,.F.);
#890=ADVANCED_FACE('',(#97),#32,.F.);
#891=ADVANCED_FACE('',(#98),#33,.F.);
#892=ADVANCED_FACE('',(#99),#847,.F.);
#893=ADVANCED_FACE('',(#100),#848,.F.);
#894=ADVANCED_FACE('',(#101),#849,.F.);
#895=ADVANCED_FACE('',(#102),#850,.F.);
#896=ADVANCED_FACE('',(#103),#851,.F.);
#897=ADVANCED_FACE('',(#104),#852,.F.);
#898=ADVANCED_FACE('',(#105),#853,.F.);
#899=ADVANCED_FACE('',(#106),#854,.F.);
#900=CLOSED_SHELL('',(#855,#856,#857,#858,#859,#860,#861,#862,#863,#864,
#865,#866,#867,#868,#869,#870,#871,#872,#873,#874,#875,#876,#877,#878,#879,
#880,#881,#882,#883,#884,#885,#886,#887,#888,#889,#890,#891,#892,#893,#894,
#895,#896,#897,#898,#899));
#901=DERIVED_UNIT_ELEMENT(#903,1.);
#902=DERIVED_UNIT_ELEMENT(#1484,-3.);
#903=(
MASS_UNIT()
NAMED_UNIT(*)
SI_UNIT(.KILO.,.GRAM.)
);
#904=DERIVED_UNIT((#901,#902));
#905=MEASURE_REPRESENTATION_ITEM('density measure',
POSITIVE_RATIO_MEASURE(7850.),#904);
#906=PROPERTY_DEFINITION_REPRESENTATION(#911,#908);
#907=PROPERTY_DEFINITION_REPRESENTATION(#912,#909);
#908=REPRESENTATION('material name',(#910),#1481);
#909=REPRESENTATION('density',(#905),#1481);
#910=DESCRIPTIVE_REPRESENTATION_ITEM('Steel','Steel');
#911=PROPERTY_DEFINITION('material property','material name',#1496);
#912=PROPERTY_DEFINITION('material property','density of part',#1496);
#913=AXIS2_PLACEMENT_3D('',#1232,#989,#990);
#914=AXIS2_PLACEMENT_3D('',#1233,#991,#992);
#915=AXIS2_PLACEMENT_3D('',#1234,#993,#994);
#916=AXIS2_PLACEMENT_3D('',#1237,#995,#996);
#917=AXIS2_PLACEMENT_3D('',#1241,#998,#999);
#918=AXIS2_PLACEMENT_3D('',#1244,#1001,#1002);
#919=AXIS2_PLACEMENT_3D('',#1246,#1003,#1004);
#920=AXIS2_PLACEMENT_3D('',#1248,#1005,#1006);
#921=AXIS2_PLACEMENT_3D('',#1249,#1007,#1008);
#922=AXIS2_PLACEMENT_3D('',#1253,#1010,#1011);
#923=AXIS2_PLACEMENT_3D('',#1255,#1013,#1014);
#924=AXIS2_PLACEMENT_3D('',#1259,#1017,#1018);
#925=AXIS2_PLACEMENT_3D('',#1268,#1023,#1024);
#926=AXIS2_PLACEMENT_3D('',#1274,#1028,#1029);
#927=AXIS2_PLACEMENT_3D('',#1280,#1033,#1034);
#928=AXIS2_PLACEMENT_3D('',#1283,#1037,#1038);
#929=AXIS2_PLACEMENT_3D('',#1285,#1039,#1040);
#930=AXIS2_PLACEMENT_3D('',#1287,#1041,#1042);
#931=AXIS2_PLACEMENT_3D('',#1289,#1043,#1044);
#932=AXIS2_PLACEMENT_3D('',#1290,#1045,#1046);
#933=AXIS2_PLACEMENT_3D('',#1299,#1051,#1052);
#934=AXIS2_PLACEMENT_3D('',#1307,#1057,#1058);
#935=AXIS2_PLACEMENT_3D('',#1320,#1065,#1066);
#936=AXIS2_PLACEMENT_3D('',#1322,#1067,#1068);
#937=AXIS2_PLACEMENT_3D('',#1324,#1069,#1070);
#938=AXIS2_PLACEMENT_3D('',#1326,#1071,#1072);
#939=AXIS2_PLACEMENT_3D('',#1328,#1073,#1074);
#940=AXIS2_PLACEMENT_3D('',#1330,#1075,#1076);
#941=AXIS2_PLACEMENT_3D('',#1332,#1077,#1078);
#942=AXIS2_PLACEMENT_3D('',#1334,#1079,#1080);
#943=AXIS2_PLACEMENT_3D('',#1351,#1089,#1090);
#944=AXIS2_PLACEMENT_3D('',#1357,#1094,#1095);
#945=AXIS2_PLACEMENT_3D('',#1363,#1099,#1100);
#946=AXIS2_PLACEMENT_3D('',#1369,#1104,#1105);
#947=AXIS2_PLACEMENT_3D('',#1373,#1107,#1108);
#948=AXIS2_PLACEMENT_3D('',#1374,#1109,#1110);
#949=AXIS2_PLACEMENT_3D('',#1375,#1111,#1112);
#950=AXIS2_PLACEMENT_3D('',#1380,#1116,#1117);
#951=AXIS2_PLACEMENT_3D('',#1381,#1118,#1119);
#952=AXIS2_PLACEMENT_3D('',#1382,#1120,#1121);
#953=AXIS2_PLACEMENT_3D('',#1384,#1123,#1124);
#954=AXIS2_PLACEMENT_3D('',#1412,#1139,#1140);
#955=AXIS2_PLACEMENT_3D('',#1414,#1141,#1142);
#956=AXIS2_PLACEMENT_3D('',#1416,#1143,#1144);
#957=AXIS2_PLACEMENT_3D('',#1418,#1145,#1146);
#958=AXIS2_PLACEMENT_3D('',#1420,#1147,#1148);
#959=AXIS2_PLACEMENT_3D('',#1422,#1149,#1150);
#960=AXIS2_PLACEMENT_3D('',#1424,#1151,#1152);
#961=AXIS2_PLACEMENT_3D('',#1426,#1153,#1154);
#962=AXIS2_PLACEMENT_3D('',#1427,#1155,#1156);
#963=AXIS2_PLACEMENT_3D('',#1428,#1157,#1158);
#964=AXIS2_PLACEMENT_3D('',#1431,#1161,#1162);
#965=AXIS2_PLACEMENT_3D('',#1432,#1163,#1164);
#966=AXIS2_PLACEMENT_3D('',#1434,#1166,#1167);
#967=AXIS2_PLACEMENT_3D('',#1436,#1169,#1170);
#968=AXIS2_PLACEMENT_3D('',#1437,#1171,#1172);
#969=AXIS2_PLACEMENT_3D('',#1438,#1173,#1174);
#970=AXIS2_PLACEMENT_3D('',#1440,#1176,#1177);
#971=AXIS2_PLACEMENT_3D('',#1442,#1179,#1180);
#972=AXIS2_PLACEMENT_3D('',#1444,#1182,#1183);
#973=AXIS2_PLACEMENT_3D('',#1446,#1185,#1186);
#974=AXIS2_PLACEMENT_3D('',#1448,#1188,#1189);
#975=AXIS2_PLACEMENT_3D('',#1450,#1191,#1192);
#976=AXIS2_PLACEMENT_3D('',#1452,#1194,#1195);
#977=AXIS2_PLACEMENT_3D('',#1454,#1197,#1198);
#978=AXIS2_PLACEMENT_3D('',#1456,#1200,#1201);
#979=AXIS2_PLACEMENT_3D('',#1458,#1203,#1204);
#980=AXIS2_PLACEMENT_3D('',#1460,#1206,#1207);
#981=AXIS2_PLACEMENT_3D('',#1463,#1210,#1211);
#982=AXIS2_PLACEMENT_3D('',#1465,#1213,#1214);
#983=AXIS2_PLACEMENT_3D('',#1467,#1216,#1217);
#984=AXIS2_PLACEMENT_3D('',#1468,#1218,#1219);
#985=AXIS2_PLACEMENT_3D('',#1471,#1222,#1223);
#986=AXIS2_PLACEMENT_3D('',#1473,#1225,#1226);
#987=AXIS2_PLACEMENT_3D('',#1475,#1228,#1229);
#988=AXIS2_PLACEMENT_3D('',#1476,#1230,#1231);
#989=DIRECTION('axis',(0.,0.,1.));
#990=DIRECTION('refdir',(1.,0.,0.));
#991=DIRECTION('axis',(0.,0.,1.));
#992=DIRECTION('refdir',(1.,0.,0.));
#993=DIRECTION('center_axis',(1.,0.,0.));
#994=DIRECTION('ref_axis',(0.,1.,0.));
#995=DIRECTION('center_axis',(-1.,0.,0.));
#996=DIRECTION('ref_axis',(0.,1.,0.));
#997=DIRECTION('',(0.,-4.01185068938926E-9,-1.));
#998=DIRECTION('center_axis',(-1.,0.,0.));
#999=DIRECTION('ref_axis',(0.,1.,0.));
#1000=DIRECTION('',(0.,-4.01185068505604E-9,1.));
#1001=DIRECTION('center_axis',(-1.,0.,0.));
#1002=DIRECTION('ref_axis',(0.,1.,0.));
#1003=DIRECTION('center_axis',(-1.,0.,0.));
#1004=DIRECTION('ref_axis',(0.,1.,0.));
#1005=DIRECTION('center_axis',(-1.,0.,0.));
#1006=DIRECTION('ref_axis',(0.,1.,0.));
#1007=DIRECTION('center_axis',(-1.,0.,0.));
#1008=DIRECTION('ref_axis',(0.,-1.52827301547742E-14,1.));
#1009=DIRECTION('',(-1.,0.,0.));
#1010=DIRECTION('center_axis',(-1.,0.,0.));
#1011=DIRECTION('ref_axis',(0.,1.,0.));
#1012=DIRECTION('',(-1.,0.,0.));
#1013=DIRECTION('center_axis',(0.,1.,-4.01185068938926E-9));
#1014=DIRECTION('ref_axis',(0.,-4.01185068938926E-9,-1.));
#1015=DIRECTION('',(-1.,0.,0.));
#1016=DIRECTION('',(0.,-4.01185068938926E-9,-1.));
#1017=DIRECTION('center_axis',(0.,-1.,0.));
#1018=DIRECTION('ref_axis',(0.,0.,-1.));
#1019=DIRECTION('',(0.,0.,-1.));
#1020=DIRECTION('',(1.,0.,0.));
#1021=DIRECTION('',(0.,0.,-1.));
#1022=DIRECTION('',(1.,0.,0.));
#1023=DIRECTION('center_axis',(0.,0.,1.));
#1024=DIRECTION('ref_axis',(0.,-1.,0.));
#1025=DIRECTION('',(0.,-1.,0.));
#1026=DIRECTION('',(1.,0.,0.));
#1027=DIRECTION('',(0.,-1.,0.));
#1028=DIRECTION('center_axis',(0.,1.,0.));
#1029=DIRECTION('ref_axis',(0.,0.,1.));
#1030=DIRECTION('',(0.,0.,1.));
#1031=DIRECTION('',(1.,0.,0.));
#1032=DIRECTION('',(0.,0.,1.));
#1033=DIRECTION('center_axis',(0.,0.,-1.));
#1034=DIRECTION('ref_axis',(0.,1.,0.));
#1035=DIRECTION('',(0.,1.,0.));
#1036=DIRECTION('',(0.,1.,0.));
#1037=DIRECTION('center_axis',(1.,0.,0.));
#1038=DIRECTION('ref_axis',(0.,1.,0.));
#1039=DIRECTION('center_axis',(-1.,0.,0.));
#1040=DIRECTION('ref_axis',(0.,1.,0.));
#1041=DIRECTION('center_axis',(-1.,0.,0.));
#1042=DIRECTION('ref_axis',(0.,1.,0.));
#1043=DIRECTION('center_axis',(-1.,0.,0.));
#1044=DIRECTION('ref_axis',(0.,1.,0.));
#1045=DIRECTION('center_axis',(-0.707106781186546,0.,-0.707106781186549));
#1046=DIRECTION('ref_axis',(-0.707106781186549,0.,0.707106781186546));
#1047=DIRECTION('',(0.577350269189629,-0.577350269189622,-0.577350269189627));
#1048=DIRECTION('',(0.,-1.,0.));
#1049=DIRECTION('',(-0.577350269189628,-0.577350269189623,0.577350269189626));
#1050=DIRECTION('',(0.,1.,0.));
#1051=DIRECTION('center_axis',(0.,0.707106781186551,-0.707106781186544));
#1052=DIRECTION('ref_axis',(-1.,0.,0.));
#1053=DIRECTION('',(0.,0.707106781186544,0.707106781186551));
#1054=DIRECTION('',(1.,0.,0.));
#1055=DIRECTION('',(0.,-0.707106781186544,-0.707106781186551));
#1056=DIRECTION('',(-1.,0.,0.));
#1057=DIRECTION('center_axis',(-1.,0.,0.));
#1058=DIRECTION('ref_axis',(0.,0.,1.));
#1059=DIRECTION('',(0.,0.707106781186546,-0.707106781186549));
#1060=DIRECTION('',(0.,0.,1.));
#1061=DIRECTION('',(0.,-0.707106781186549,-0.707106781186546));
#1062=DIRECTION('',(0.,-1.,0.));
#1063=DIRECTION('',(0.,-0.707106781186554,0.707106781186541));
#1064=DIRECTION('',(0.,0.,-1.));
#1065=DIRECTION('center_axis',(1.,0.,0.));
#1066=DIRECTION('ref_axis',(0.,-1.,0.));
#1067=DIRECTION('center_axis',(1.,0.,0.));
#1068=DIRECTION('ref_axis',(0.,-1.,0.));
#1069=DIRECTION('center_axis',(1.,0.,0.));
#1070=DIRECTION('ref_axis',(0.,-1.,0.));
#1071=DIRECTION('center_axis',(1.,0.,0.));
#1072=DIRECTION('ref_axis',(0.,-1.,0.));
#1073=DIRECTION('center_axis',(1.,0.,0.));
#1074=DIRECTION('ref_axis',(0.,-1.,0.));
#1075=DIRECTION('center_axis',(1.,0.,0.));
#1076=DIRECTION('ref_axis',(0.,-1.,0.));
#1077=DIRECTION('center_axis',(1.,0.,0.));
#1078=DIRECTION('ref_axis',(0.,-1.,0.));
#1079=DIRECTION('center_axis',(1.,0.,0.));
#1080=DIRECTION('ref_axis',(0.,-1.,0.));
#1081=DIRECTION('',(0.,-1.,0.));
#1082=DIRECTION('',(0.,0.,-1.));
#1083=DIRECTION('',(0.,1.,0.));
#1084=DIRECTION('',(0.,0.,1.));
#1085=DIRECTION('',(0.,0.,1.));
#1086=DIRECTION('',(0.,-1.,0.));
#1087=DIRECTION('',(0.,0.,-1.));
#1088=DIRECTION('',(0.,1.,0.));
#1089=DIRECTION('center_axis',(-0.707106781186552,0.,0.707106781186543));
#1090=DIRECTION('ref_axis',(0.707106781186543,0.,0.707106781186552));
#1091=DIRECTION('',(0.57735026918962,0.57735026918963,0.577350269189628));
#1092=DIRECTION('',(0.,1.,0.));
#1093=DIRECTION('',(-0.577350269189617,0.577350269189635,-0.577350269189625));
#1094=DIRECTION('center_axis',(0.,-0.707106781186546,0.707106781186549));
#1095=DIRECTION('ref_axis',(1.,0.,0.));
#1096=DIRECTION('',(1.,0.,0.));
#1097=DIRECTION('',(0.,0.707106781186549,0.707106781186546));
#1098=DIRECTION('',(-1.,0.,0.));
#1099=DIRECTION('center_axis',(0.707106781186548,-0.707106781186548,2.83680682757507E-9));
#1100=DIRECTION('ref_axis',(4.01185068938926E-9,0.,-1.));
#1101=DIRECTION('',(0.707106781186548,0.707106781186548,-2.83681165250067E-9));
#1102=DIRECTION('',(0.,4.01185068938926E-9,1.));
#1103=DIRECTION('',(-0.707106781186548,-0.707106781186548,2.83681165250067E-9));
#1104=DIRECTION('center_axis',(1.,0.,0.));
#1105=DIRECTION('ref_axis',(0.,1.,0.));
#1106=DIRECTION('',(0.707106781186555,-0.70710678118654,0.));
#1107=DIRECTION('center_axis',(1.,0.,0.));
#1108=DIRECTION('ref_axis',(0.,1.,0.));
#1109=DIRECTION('center_axis',(-1.,0.,0.));
#1110=DIRECTION('ref_axis',(0.,1.,0.));
#1111=DIRECTION('center_axis',(0.707106781186555,0.70710678118654,2.83680682451099E-9));
#1112=DIRECTION('ref_axis',(4.01185068505595E-9,0.,-1.));
#1113=DIRECTION('',(0.70710678118654,-0.707106781186555,-2.83681165250064E-9));
#1114=DIRECTION('',(0.,4.01185068505604E-9,-1.));
#1115=DIRECTION('',(0.,-4.01185068505604E-9,1.));
#1116=DIRECTION('center_axis',(1.,0.,0.));
#1117=DIRECTION('ref_axis',(0.,-1.34834885604695E-14,1.));
#1118=DIRECTION('center_axis',(1.,0.,0.));
#1119=DIRECTION('ref_axis',(0.,1.,0.));
#1120=DIRECTION('center_axis',(-1.,0.,0.));
#1121=DIRECTION('ref_axis',(0.,1.,0.));
#1122=DIRECTION('',(-1.,0.,0.));
#1123=DIRECTION('center_axis',(-1.,0.,0.));
#1124=DIRECTION('ref_axis',(0.,-1.,0.));
#1125=DIRECTION('',(0.,-0.707106781186546,0.707106781186549));
#1126=DIRECTION('',(0.,-1.,0.));
#1127=DIRECTION('',(0.,0.,1.));
#1128=DIRECTION('',(0.,0.707106781186554,-0.707106781186541));
#1129=DIRECTION('',(0.,1.,0.));
#1130=DIRECTION('',(0.,0.,-1.));
#1131=DIRECTION('',(0.,0.,-1.));
#1132=DIRECTION('',(0.,-1.,0.));
#1133=DIRECTION('',(0.,0.,1.));
#1134=DIRECTION('',(0.,1.,0.));
#1135=DIRECTION('',(0.,1.,0.));
#1136=DIRECTION('',(0.,0.,-1.));
#1137=DIRECTION('',(0.,-1.,0.));
#1138=DIRECTION('',(0.,0.,1.));
#1139=DIRECTION('center_axis',(-1.,0.,0.));
#1140=DIRECTION('ref_axis',(0.,-1.,0.));
#1141=DIRECTION('center_axis',(-1.,0.,0.));
#1142=DIRECTION('ref_axis',(0.,-1.,0.));
#1143=DIRECTION('center_axis',(-1.,0.,0.));
#1144=DIRECTION('ref_axis',(0.,-1.,0.));
#1145=DIRECTION('center_axis',(-1.,0.,0.));
#1146=DIRECTION('ref_axis',(0.,-1.,0.));
#1147=DIRECTION('center_axis',(-1.,0.,0.));
#1148=DIRECTION('ref_axis',(0.,-1.,0.));
#1149=DIRECTION('center_axis',(-1.,0.,0.));
#1150=DIRECTION('ref_axis',(0.,-1.,0.));
#1151=DIRECTION('center_axis',(-1.,0.,0.));
#1152=DIRECTION('ref_axis',(0.,-1.,0.));
#1153=DIRECTION('center_axis',(-1.,0.,0.));
#1154=DIRECTION('ref_axis',(0.,-1.,0.));
#1155=DIRECTION('center_axis',(0.,-1.,-4.01185068505604E-9));
#1156=DIRECTION('ref_axis',(0.,-4.01185068505604E-9,1.));
#1157=DIRECTION('center_axis',(0.,-0.707106781186549,-0.707106781186546));
#1158=DIRECTION('ref_axis',(-1.,0.,0.));
#1159=DIRECTION('',(1.,0.,0.));
#1160=DIRECTION('',(-1.,0.,0.));
#1161=DIRECTION('center_axis',(0.,1.,0.));
#1162=DIRECTION('ref_axis',(0.,0.,1.));
#1163=DIRECTION('center_axis',(0.,-1.,0.));
#1164=DIRECTION('ref_axis',(0.,0.,-1.));
#1165=DIRECTION('',(-1.,0.,0.));
#1166=DIRECTION('center_axis',(0.,0.707106781186541,0.707106781186554));
#1167=DIRECTION('ref_axis',(1.,0.,0.));
#1168=DIRECTION('',(1.,0.,0.));
#1169=DIRECTION('center_axis',(0.,0.,-1.));
#1170=DIRECTION('ref_axis',(-1.,0.,0.));
#1171=DIRECTION('center_axis',(0.,0.,1.));
#1172=DIRECTION('ref_axis',(1.,0.,0.));
#1173=DIRECTION('center_axis',(1.,0.,0.));
#1174=DIRECTION('ref_axis',(0.,-1.,0.));
#1175=DIRECTION('',(1.,0.,0.));
#1176=DIRECTION('center_axis',(1.,0.,0.));
#1177=DIRECTION('ref_axis',(0.,-1.,0.));
#1178=DIRECTION('',(1.,0.,0.));
#1179=DIRECTION('center_axis',(1.,0.,0.));
#1180=DIRECTION('ref_axis',(0.,-1.,0.));
#1181=DIRECTION('',(1.,0.,0.));
#1182=DIRECTION('center_axis',(1.,0.,0.));
#1183=DIRECTION('ref_axis',(0.,-1.,0.));
#1184=DIRECTION('',(1.,0.,0.));
#1185=DIRECTION('center_axis',(1.,0.,0.));
#1186=DIRECTION('ref_axis',(0.,-1.,0.));
#1187=DIRECTION('',(1.,0.,0.));
#1188=DIRECTION('center_axis',(1.,0.,0.));
#1189=DIRECTION('ref_axis',(0.,-1.,0.));
#1190=DIRECTION('',(1.,0.,0.));
#1191=DIRECTION('center_axis',(1.,0.,0.));
#1192=DIRECTION('ref_axis',(0.,-1.,0.));
#1193=DIRECTION('',(1.,0.,0.));
#1194=DIRECTION('center_axis',(1.,0.,0.));
#1195=DIRECTION('ref_axis',(0.,-1.,0.));
#1196=DIRECTION('',(1.,0.,0.));
#1197=DIRECTION('center_axis',(1.,0.,0.));
#1198=DIRECTION('ref_axis',(0.,1.,0.));
#1199=DIRECTION('',(1.,0.,0.));
#1200=DIRECTION('center_axis',(1.,0.,0.));
#1201=DIRECTION('ref_axis',(0.,1.,0.));
#1202=DIRECTION('',(1.,0.,0.));
#1203=DIRECTION('center_axis',(1.,0.,0.));
#1204=DIRECTION('ref_axis',(0.,1.,0.));
#1205=DIRECTION('',(1.,0.,0.));
#1206=DIRECTION('center_axis',(0.,0.,-1.));
#1207=DIRECTION('ref_axis',(0.,-1.,0.));
#1208=DIRECTION('',(-1.,0.,0.));
#1209=DIRECTION('',(-1.,0.,0.));
#1210=DIRECTION('center_axis',(0.,1.,0.));
#1211=DIRECTION('ref_axis',(0.,0.,-1.));
#1212=DIRECTION('',(-1.,0.,0.));
#1213=DIRECTION('center_axis',(0.,0.,1.));
#1214=DIRECTION('ref_axis',(0.,1.,0.));
#1215=DIRECTION('',(-1.,0.,0.));
#1216=DIRECTION('center_axis',(0.,-1.,0.));
#1217=DIRECTION('ref_axis',(0.,0.,1.));
#1218=DIRECTION('center_axis',(0.,-1.,0.));
#1219=DIRECTION('ref_axis',(0.,0.,1.));
#1220=DIRECTION('',(-1.,0.,0.));
#1221=DIRECTION('',(-1.,0.,0.));
#1222=DIRECTION('center_axis',(0.,0.,-1.));
#1223=DIRECTION('ref_axis',(0.,-1.,0.));
#1224=DIRECTION('',(-1.,0.,0.));
#1225=DIRECTION('center_axis',(0.,1.,0.));
#1226=DIRECTION('ref_axis',(0.,0.,-1.));
#1227=DIRECTION('',(-1.,0.,0.));
#1228=DIRECTION('center_axis',(0.,0.,1.));
#1229=DIRECTION('ref_axis',(0.,1.,0.));
#1230=DIRECTION('',(0.,0.,1.));
#1231=DIRECTION('',(1.,0.,0.));
#1232=CARTESIAN_POINT('',(0.,0.,0.));
#1233=CARTESIAN_POINT('',(0.,0.,0.));
#1234=CARTESIAN_POINT('Origin',(-8.80000000000004,60.0000008940697,163.000002305955));
#1235=CARTESIAN_POINT('',(-8.80000000000004,63.5000008940697,156.500002293919));
#1236=CARTESIAN_POINT('',(-8.80000000000004,56.5000008940697,156.500002279878));
#1237=CARTESIAN_POINT('Origin',(-8.80000000000004,60.0000008940697,156.500002279878));
#1238=CARTESIAN_POINT('',(-8.80000000000004,63.5000009462237,169.500002265836));
#1239=CARTESIAN_POINT('',(-8.80000000000004,63.5000009331852,166.250002278875));
#1240=CARTESIAN_POINT('',(-8.80000000000004,56.5000008419156,169.500002265836));
#1241=CARTESIAN_POINT('Origin',(-8.80000000000004,60.0000008940697,169.500002279878));
#1242=CARTESIAN_POINT('',(-8.80000000000004,56.5000008810312,159.750002285895));
#1243=CARTESIAN_POINT('',(-8.80000000000004,58.4000008940697,156.500002279878));
#1244=CARTESIAN_POINT('Origin',(-8.80000000000004,60.0000008940697,156.500002279878));
#1245=CARTESIAN_POINT('',(-8.80000000000004,58.4000008940697,163.000002279878));
#1246=CARTESIAN_POINT('Origin',(-8.80000000000004,60.0000008940697,163.000002279878));
#1247=CARTESIAN_POINT('',(-8.80000000000004,58.4000008940697,169.500002279878));
#1248=CARTESIAN_POINT('Origin',(-8.80000000000004,60.0000008940697,169.500002279878));
#1249=CARTESIAN_POINT('Origin',(-6.80000000000004,60.0000008940697,169.500002279878));
#1250=CARTESIAN_POINT('',(-7.20000000000004,63.5000009462237,169.500002265836));
#1251=CARTESIAN_POINT('',(-6.80000000000004,63.5000009462237,169.500002265836));
#1252=CARTESIAN_POINT('',(-7.20000000000004,56.5000008419156,169.500002265836));
#1253=CARTESIAN_POINT('Origin',(-7.20000000000004,60.0000008940697,169.500002279878));
#1254=CARTESIAN_POINT('',(-6.80000000000004,56.5000008419156,169.500002265836));
#1255=CARTESIAN_POINT('Origin',(-6.80000000000004,63.5000009462237,169.500002265836));
#1256=CARTESIAN_POINT('',(-7.20000000000004,63.5000008940697,156.500002293919));
#1257=CARTESIAN_POINT('',(-6.80000000000004,63.5000008940697,156.500002293919));
#1258=CARTESIAN_POINT('',(-7.20000000000004,63.5000009311793,165.750002258386));
#1259=CARTESIAN_POINT('Origin',(-12.8,55.0000008195639,172.000002413988));
#1260=CARTESIAN_POINT('',(-12.8,55.0000008195639,172.000002413988));
#1261=CARTESIAN_POINT('',(-12.8,55.0000008195639,152.000002115965));
#1262=CARTESIAN_POINT('',(-12.8,55.0000008195639,167.000002339482));
#1263=CARTESIAN_POINT('',(-10.6,55.0000008195639,172.000002413988));
#1264=CARTESIAN_POINT('',(-12.8,55.0000008195639,172.000002413988));
#1265=CARTESIAN_POINT('',(-10.6,55.0000008195639,152.000002115965));
#1266=CARTESIAN_POINT('',(-10.6,55.0000008195639,152.000002115965));
#1267=CARTESIAN_POINT('',(-12.8,55.0000008195639,152.000002115965));
#1268=CARTESIAN_POINT('Origin',(-12.8,65.0000009685755,172.000002413988));
#1269=CARTESIAN_POINT('',(-12.8,65.0000009685755,172.000002413988));
#1270=CARTESIAN_POINT('',(-12.8,62.5000009313226,172.000002413988));
#1271=CARTESIAN_POINT('',(-10.6,65.0000009685755,172.000002413988));
#1272=CARTESIAN_POINT('',(-12.8,65.0000009685755,172.000002413988));
#1273=CARTESIAN_POINT('',(-10.6,55.0000008195639,172.000002413988));
#1274=CARTESIAN_POINT('Origin',(-12.8,65.0000009685755,152.000002115965));
#1275=CARTESIAN_POINT('',(-12.8,65.0000009685755,152.000002115965));
#1276=CARTESIAN_POINT('',(-12.8,65.0000009685755,157.000002190471));
#1277=CARTESIAN_POINT('',(-10.6,65.0000009685755,152.000002115965));
#1278=CARTESIAN_POINT('',(-12.8,65.0000009685755,152.000002115965));
#1279=CARTESIAN_POINT('',(-10.6,65.0000009685755,172.000002413988));
#1280=CARTESIAN_POINT('Origin',(-12.8,55.0000008195639,152.000002115965));
#1281=CARTESIAN_POINT('',(-12.8,57.5000008568168,152.000002115965));
#1282=CARTESIAN_POINT('',(-10.6,65.0000009685755,152.000002115965));
#1283=CARTESIAN_POINT('Origin',(-10.6,60.0000008940697,162.000002264977));
#1284=CARTESIAN_POINT('',(-10.6,58.4000008940697,156.500002279878));
#1285=CARTESIAN_POINT('Origin',(-10.6,60.0000008940697,156.500002279878));
#1286=CARTESIAN_POINT('',(-10.6,58.4000008940697,169.500002279878));
#1287=CARTESIAN_POINT('Origin',(-10.6,60.0000008940697,169.500002279878));
#1288=CARTESIAN_POINT('',(-10.6,58.4000008940697,163.000002279878));
#1289=CARTESIAN_POINT('Origin',(-10.6,60.0000008940697,163.000002279878));
#1290=CARTESIAN_POINT('Origin',(-12.3,91.9999990612268,150.499996848404));
#1291=CARTESIAN_POINT('',(-12.8,122.999997228384,150.999996848404));
#1292=CARTESIAN_POINT('',(-11.8,121.999997228384,149.999996848404));
#1293=CARTESIAN_POINT('',(-7.46666697214052,117.666664200525,145.666663820545));
#1294=CARTESIAN_POINT('',(-11.8,-0.999999932944773,149.999996848404));
#1295=CARTESIAN_POINT('',(-11.8,91.9999990612268,149.999996848404));
#1296=CARTESIAN_POINT('',(-12.8,-1.99999993294477,150.999996848404));
#1297=CARTESIAN_POINT('',(3.03333316569522,13.8333332327504,135.166663682709));
#1298=CARTESIAN_POINT('',(-12.8,91.9999990612268,150.999996848404));
#1299=CARTESIAN_POINT('Origin',(-12.8,122.999997228384,150.999996848404));
#1300=CARTESIAN_POINT('',(-12.8,123.999997228384,151.999996848404));
#1301=CARTESIAN_POINT('',(-12.8,109.999999498949,137.999999118969));
#1302=CARTESIAN_POINT('',(-6.80000000000004,123.999997228384,151.999996848404));
#1303=CARTESIAN_POINT('',(-12.8,123.999997228384,151.999996848404));
#1304=CARTESIAN_POINT('',(-6.80000000000004,121.999997228384,149.999996848404));
#1305=CARTESIAN_POINT('',(-6.80000000000004,109.999999498949,137.999999118969));
#1306=CARTESIAN_POINT('',(-12.8,121.999997228384,149.999996848404));
#1307=CARTESIAN_POINT('Origin',(-12.8,60.0000008940697,162.000002264977));
#1308=CARTESIAN_POINT('',(-12.8,-2.99999993294477,151.999996848404));
#1309=CARTESIAN_POINT('',(-12.8,10.7499989196657,138.249997995794));
#1310=CARTESIAN_POINT('',(-12.8,-2.99999993294477,171.999996356666));
#1311=CARTESIAN_POINT('',(-12.8,-2.99999993294477,172.999996356666));
#1312=CARTESIAN_POINT('',(-12.8,-1.99999993294478,172.999996356666));
#1313=CARTESIAN_POINT('',(-12.8,10.7500017508865,185.749998040497));
#1314=CARTESIAN_POINT('',(-12.8,122.999997228384,172.999996356666));
#1315=CARTESIAN_POINT('',(-12.8,28.5000004805624,172.999996356666));
#1316=CARTESIAN_POINT('',(-12.8,123.999997228384,171.999996356666));
#1317=CARTESIAN_POINT('',(-12.8,109.999996667728,185.999996917322));
#1318=CARTESIAN_POINT('',(-12.8,123.999997228384,167.499999310821));
#1319=CARTESIAN_POINT('',(-12.8,51.45,168.2));
#1320=CARTESIAN_POINT('Origin',(-12.8,49.2,168.2));
#1321=CARTESIAN_POINT('',(-12.8,3.25,168.2));
#1322=CARTESIAN_POINT('Origin',(-12.8,1.,168.2));
#1323=CARTESIAN_POINT('',(-12.8,121.25,167.991729985377));
#1324=CARTESIAN_POINT('Origin',(-12.8,119.,167.991729985377));
#1325=CARTESIAN_POINT('',(-12.8,73.05,167.991729985377));
#1326=CARTESIAN_POINT('Origin',(-12.8,70.8,167.991729985377));
#1327=CARTESIAN_POINT('',(-12.8,73.05,155.791729985377));
#1328=CARTESIAN_POINT('Origin',(-12.8,70.8,155.791729985377));
#1329=CARTESIAN_POINT('',(-12.8,121.25,155.791729985377));
#1330=CARTESIAN_POINT('Origin',(-12.8,119.,155.791729985377));
#1331=CARTESIAN_POINT('',(-12.8,3.25,156.));
#1332=CARTESIAN_POINT('Origin',(-12.8,1.,156.));
#1333=CARTESIAN_POINT('',(-12.8,51.45,156.));
#1334=CARTESIAN_POINT('Origin',(-12.8,49.2,156.));
#1335=CARTESIAN_POINT('',(-12.8,115.500001721084,172.500002421439));
#1336=CARTESIAN_POINT('',(-12.8,74.0000017210841,172.500002421439));
#1337=CARTESIAN_POINT('',(-12.8,67.0000013075769,172.500002421439));
#1338=CARTESIAN_POINT('',(-12.8,74.0000017210841,151.500002421439));
#1339=CARTESIAN_POINT('',(-12.8,74.0000017210841,156.750002343208));
#1340=CARTESIAN_POINT('',(-12.8,115.500001721084,151.500002421439));
#1341=CARTESIAN_POINT('',(-12.8,87.7500013075769,151.500002421439));
#1342=CARTESIAN_POINT('',(-12.8,115.500001721084,167.250002343208));
#1343=CARTESIAN_POINT('',(-12.8,46.0000006854534,151.500002108514));
#1344=CARTESIAN_POINT('',(-12.8,46.0000006854534,172.500002421439));
#1345=CARTESIAN_POINT('',(-12.8,46.0000006854534,167.250002343208));
#1346=CARTESIAN_POINT('',(-12.8,4.50000006705523,172.500002421439));
#1347=CARTESIAN_POINT('',(-12.8,32.2500004805624,172.500002421439));
#1348=CARTESIAN_POINT('',(-12.8,4.50000006705523,151.500002108514));
#1349=CARTESIAN_POINT('',(-12.8,4.50000006705523,156.750002186745));
#1350=CARTESIAN_POINT('',(-12.8,53.0000007897615,151.500002108514));
#1351=CARTESIAN_POINT('Origin',(-12.3,28.5000004805624,173.499996356666));
#1352=CARTESIAN_POINT('',(-11.8,-0.999999932944775,173.999996356666));
#1353=CARTESIAN_POINT('',(-7.54999993108218,3.25000013597316,178.249996425584));
#1354=CARTESIAN_POINT('',(-11.8,121.999997228384,173.999996356666));
#1355=CARTESIAN_POINT('',(-11.8,28.5000004805624,173.999996356666));
#1356=CARTESIAN_POINT('',(3.11666612463693,107.083331103747,188.916662481303));
#1357=CARTESIAN_POINT('Origin',(-12.8,-1.99999993294477,172.999996356666));
#1358=CARTESIAN_POINT('',(-6.80000000000004,-2.99999993294477,171.999996356666));
#1359=CARTESIAN_POINT('',(-12.8,-2.99999993294477,171.999996356666));
#1360=CARTESIAN_POINT('',(-6.80000000000004,-0.999999932944773,173.999996356666));
#1361=CARTESIAN_POINT('',(-6.80000000000004,10.7500017508865,185.749998040497));
#1362=CARTESIAN_POINT('',(-12.8,-0.999999932944775,173.999996356666));
#1363=CARTESIAN_POINT('Origin',(-7.00000000000004,63.7000009311793,165.750002257583));
#1364=CARTESIAN_POINT('',(-6.80000000000004,63.9000008940697,156.500002292314));
#1365=CARTESIAN_POINT('',(-7.20000000000004,63.5000008940697,156.500002293919));
#1366=CARTESIAN_POINT('',(-6.80000000000004,63.9000009462237,169.500002264232));
#1367=CARTESIAN_POINT('',(-6.80000000000004,63.9000009311793,165.750002256781));
#1368=CARTESIAN_POINT('',(-6.80000000000004,63.9000009462237,169.500002264232));
#1369=CARTESIAN_POINT('Origin',(-7.00000000000004,60.0000008940697,156.500002279878));
#1370=CARTESIAN_POINT('',(-7.20000000000004,56.5000008940697,156.500002279878));
#1371=CARTESIAN_POINT('',(-6.80000000000004,56.1000008940697,156.500002279878));
#1372=CARTESIAN_POINT('',(-7.20000000000004,56.5000008940697,156.500002279878));
#1373=CARTESIAN_POINT('Origin',(-6.80000000000004,60.0000008940697,156.500002279878));
#1374=CARTESIAN_POINT('Origin',(-7.20000000000004,60.0000008940697,156.500002279878));
#1375=CARTESIAN_POINT('Origin',(-7.00000000000004,56.3000008830371,159.250002264604));
#1376=CARTESIAN_POINT('',(-6.80000000000004,56.1000008419156,169.500002264231));
#1377=CARTESIAN_POINT('',(-7.20000000000004,56.5000008419156,169.500002265836));
#1378=CARTESIAN_POINT('',(-6.80000000000004,56.1000008830371,159.250002263802));
#1379=CARTESIAN_POINT('',(-7.20000000000004,56.5000008830371,159.250002265406));
#1380=CARTESIAN_POINT('Origin',(-7.00000000000004,60.0000008940697,169.500002279878));
#1381=CARTESIAN_POINT('Origin',(-6.80000000000004,60.0000008940697,169.500002279878));
#1382=CARTESIAN_POINT('Origin',(-6.80000000000004,60.0000008940697,156.500002279878));
#1383=CARTESIAN_POINT('',(-6.80000000000004,56.5000008940697,156.500002279878));
#1384=CARTESIAN_POINT('Origin',(-6.80000000000004,60.0000008940697,162.000002264977));
#1385=CARTESIAN_POINT('',(-6.80000000000004,-0.999999932944782,149.999996848404));
#1386=CARTESIAN_POINT('',(-6.80000000000004,-2.99999993294477,151.999996848404));
#1387=CARTESIAN_POINT('',(-6.80000000000004,10.7499989196657,138.249997995794));
#1388=CARTESIAN_POINT('',(-6.80000000000004,91.9999990612268,149.999996848404));
#1389=CARTESIAN_POINT('',(-6.80000000000004,123.999997228384,171.999996356666));
#1390=CARTESIAN_POINT('',(-6.80000000000004,123.999997228384,167.499999310821));
#1391=CARTESIAN_POINT('',(-6.80000000000004,121.999997228384,173.999996356666));
#1392=CARTESIAN_POINT('',(-6.80000000000004,109.999996667728,185.999996917322));
#1393=CARTESIAN_POINT('',(-6.80000000000004,28.5000004805624,173.999996356666));
#1394=CARTESIAN_POINT('',(-6.80000000000004,-2.99999993294477,156.49999955669));
#1395=CARTESIAN_POINT('',(-6.80000000000004,46.0000006854534,172.500002421439));
#1396=CARTESIAN_POINT('',(-6.80000000000004,46.0000006854534,151.500002108514));
#1397=CARTESIAN_POINT('',(-6.80000000000004,46.0000006854534,167.250002343208));
#1398=CARTESIAN_POINT('',(-6.80000000000004,4.50000006705523,151.500002108514));
#1399=CARTESIAN_POINT('',(-6.80000000000004,53.0000007897615,151.500002108514));
#1400=CARTESIAN_POINT('',(-6.80000000000004,4.50000006705523,172.500002421439));
#1401=CARTESIAN_POINT('',(-6.80000000000004,4.50000006705523,156.750002186745));
#1402=CARTESIAN_POINT('',(-6.80000000000004,32.2500004805624,172.500002421439));
#1403=CARTESIAN_POINT('',(-6.80000000000004,74.0000017210841,172.500002421439));
#1404=CARTESIAN_POINT('',(-6.80000000000004,115.500001721084,172.500002421439));
#1405=CARTESIAN_POINT('',(-6.80000000000004,67.0000013075769,172.500002421439));
#1406=CARTESIAN_POINT('',(-6.80000000000004,115.500001721084,151.500002421439));
#1407=CARTESIAN_POINT('',(-6.80000000000004,115.500001721084,167.250002343208));
#1408=CARTESIAN_POINT('',(-6.80000000000004,74.0000017210841,151.500002421439));
#1409=CARTESIAN_POINT('',(-6.80000000000004,87.7500013075769,151.500002421439));
#1410=CARTESIAN_POINT('',(-6.80000000000004,74.0000017210841,156.750002343208));
#1411=CARTESIAN_POINT('',(-6.80000000000004,51.45,156.));
#1412=CARTESIAN_POINT('Origin',(-6.80000000000004,49.2,156.));
#1413=CARTESIAN_POINT('',(-6.80000000000004,3.25,156.));
#1414=CARTESIAN_POINT('Origin',(-6.80000000000004,1.,156.));
#1415=CARTESIAN_POINT('',(-6.80000000000004,121.25,155.791729985377));
#1416=CARTESIAN_POINT('Origin',(-6.80000000000004,119.,155.791729985377));
#1417=CARTESIAN_POINT('',(-6.80000000000004,73.05,155.791729985377));
#1418=CARTESIAN_POINT('Origin',(-6.80000000000004,70.8,155.791729985377));
#1419=CARTESIAN_POINT('',(-6.80000000000004,73.05,167.991729985377));
#1420=CARTESIAN_POINT('Origin',(-6.80000000000004,70.8,167.991729985377));
#1421=CARTESIAN_POINT('',(-6.80000000000004,121.25,167.991729985377));
#1422=CARTESIAN_POINT('Origin',(-6.80000000000004,119.,167.991729985377));
#1423=CARTESIAN_POINT('',(-6.80000000000004,3.25,168.2));
#1424=CARTESIAN_POINT('Origin',(-6.80000000000004,1.,168.2));
#1425=CARTESIAN_POINT('',(-6.80000000000004,51.45,168.2));
#1426=CARTESIAN_POINT('Origin',(-6.80000000000004,49.2,168.2));
#1427=CARTESIAN_POINT('Origin',(-6.80000000000004,56.5000008940697,156.500002279878));
#1428=CARTESIAN_POINT('Origin',(-12.8,-1.99999993294477,150.999996848404));
#1429=CARTESIAN_POINT('',(-12.8,-0.999999932944773,149.999996848404));
#1430=CARTESIAN_POINT('',(-12.8,-2.99999993294477,151.999996848404));
#1431=CARTESIAN_POINT('Origin',(-12.8,-2.99999993294477,150.999996848404));
#1432=CARTESIAN_POINT('Origin',(-12.8,123.999997228384,172.999996356666));
#1433=CARTESIAN_POINT('',(-12.8,123.999997228384,171.999996356666));
#1434=CARTESIAN_POINT('Origin',(-12.8,122.999997228384,172.999996356666));
#1435=CARTESIAN_POINT('',(-12.8,121.999997228384,173.999996356666));
#1436=CARTESIAN_POINT('Origin',(-12.8,123.999997228384,149.999996848404));
#1437=CARTESIAN_POINT('Origin',(-12.8,-2.99999993294477,173.999996356666));
#1438=CARTESIAN_POINT('Origin',(-15.7,49.2,168.2));
#1439=CARTESIAN_POINT('',(-15.7,51.45,168.2));
#1440=CARTESIAN_POINT('Origin',(-15.7,1.,168.2));
#1441=CARTESIAN_POINT('',(-15.7,3.25,168.2));
#1442=CARTESIAN_POINT('Origin',(-15.7,119.,167.991729985377));
#1443=CARTESIAN_POINT('',(-15.7,121.25,167.991729985377));
#1444=CARTESIAN_POINT('Origin',(-15.7,70.8,167.991729985377));
#1445=CARTESIAN_POINT('',(-15.7,73.05,167.991729985377));
#1446=CARTESIAN_POINT('Origin',(-15.7,70.8,155.791729985377));
#1447=CARTESIAN_POINT('',(-15.7,73.05,155.791729985377));
#1448=CARTESIAN_POINT('Origin',(-15.7,119.,155.791729985377));
#1449=CARTESIAN_POINT('',(-15.7,121.25,155.791729985377));
#1450=CARTESIAN_POINT('Origin',(-15.7,1.,156.));
#1451=CARTESIAN_POINT('',(-15.7,3.25,156.));
#1452=CARTESIAN_POINT('Origin',(-15.7,49.2,156.));
#1453=CARTESIAN_POINT('',(-15.7,51.45,156.));
#1454=CARTESIAN_POINT('Origin',(-12.8,60.0000008940697,169.500002279878));
#1455=CARTESIAN_POINT('',(-12.8,58.4000008940697,169.500002279878));
#1456=CARTESIAN_POINT('Origin',(-12.8,60.0000008940697,163.000002279878));
#1457=CARTESIAN_POINT('',(-12.8,58.4000008940697,163.000002279878));
#1458=CARTESIAN_POINT('Origin',(-12.8,60.0000008940697,156.500002279878));
#1459=CARTESIAN_POINT('',(-12.8,58.4000008940697,156.500002279878));
#1460=CARTESIAN_POINT('Origin',(-6.80000000000004,115.500001721084,151.500002421439));
#1461=CARTESIAN_POINT('',(-6.80000000000004,74.0000017210841,151.500002421439));
#1462=CARTESIAN_POINT('',(-6.80000000000004,115.500001721084,151.500002421439));
#1463=CARTESIAN_POINT('Origin',(-6.80000000000004,115.500001721084,172.500002421439));
#1464=CARTESIAN_POINT('',(-6.80000000000004,115.500001721084,172.500002421439));
#1465=CARTESIAN_POINT('Origin',(-6.80000000000004,74.0000017210841,172.500002421439));
#1466=CARTESIAN_POINT('',(-6.80000000000004,74.0000017210841,172.500002421439));
#1467=CARTESIAN_POINT('Origin',(-6.80000000000004,74.0000017210841,151.500002421439));
#1468=CARTESIAN_POINT('Origin',(-6.80000000000004,4.50000006705523,151.500002108514));
#1469=CARTESIAN_POINT('',(-6.80000000000004,4.50000006705523,172.500002421439));
#1470=CARTESIAN_POINT('',(-6.80000000000004,4.50000006705523,151.500002108514));
#1471=CARTESIAN_POINT('Origin',(-6.80000000000004,46.0000006854534,151.500002108514));
#1472=CARTESIAN_POINT('',(-6.80000000000004,46.0000006854534,151.500002108514));
#1473=CARTESIAN_POINT('Origin',(-6.80000000000004,46.0000006854534,172.500002421439));
#1474=CARTESIAN_POINT('',(-6.80000000000004,46.0000006854534,172.500002421439));
#1475=CARTESIAN_POINT('Origin',(-6.80000000000004,4.50000006705523,172.500002421439));
#1476=CARTESIAN_POINT('',(0.,0.,0.));
#1477=UNCERTAINTY_MEASURE_WITH_UNIT(LENGTH_MEASURE(0.01),#1483,
'DISTANCE_ACCURACY_VALUE',
'Maximum model space distance between geometric entities at asserted c
onnectivities');
#1478=UNCERTAINTY_MEASURE_WITH_UNIT(LENGTH_MEASURE(0.01),#1483,
'DISTANCE_ACCURACY_VALUE',
'Maximum model space distance between geometric entities at asserted c
onnectivities');
#1479=UNCERTAINTY_MEASURE_WITH_UNIT(LENGTH_MEASURE(0.01),#1483,
'DISTANCE_ACCURACY_VALUE',
'Maximum model space distance between geometric entities at asserted c
onnectivities');
#1480=(
GEOMETRIC_REPRESENTATION_CONTEXT(3)
GLOBAL_UNCERTAINTY_ASSIGNED_CONTEXT((#1477))
GLOBAL_UNIT_ASSIGNED_CONTEXT((#1483,#1485,#1486))
REPRESENTATION_CONTEXT('','3D')
);
#1481=(
GEOMETRIC_REPRESENTATION_CONTEXT(3)
GLOBAL_UNCERTAINTY_ASSIGNED_CONTEXT((#1478))
GLOBAL_UNIT_ASSIGNED_CONTEXT((#1483,#1485,#1486))
REPRESENTATION_CONTEXT('','3D')
);
#1482=(
GEOMETRIC_REPRESENTATION_CONTEXT(3)
GLOBAL_UNCERTAINTY_ASSIGNED_CONTEXT((#1479))
GLOBAL_UNIT_ASSIGNED_CONTEXT((#1483,#1485,#1486))
REPRESENTATION_CONTEXT('','3D')
);
#1483=(
LENGTH_UNIT()
NAMED_UNIT(*)
SI_UNIT(.MILLI.,.METRE.)
);
#1484=(
LENGTH_UNIT()
NAMED_UNIT(*)
SI_UNIT($,.METRE.)
);
#1485=(
NAMED_UNIT(*)
PLANE_ANGLE_UNIT()
SI_UNIT($,.RADIAN.)
);
#1486=(
NAMED_UNIT(*)
SI_UNIT($,.STERADIAN.)
SOLID_ANGLE_UNIT()
);
#1487=SHAPE_DEFINITION_REPRESENTATION(#1489,#1492);
#1488=SHAPE_DEFINITION_REPRESENTATION(#1490,#1493);
#1489=PRODUCT_DEFINITION_SHAPE('',$,#1495);
#1490=PRODUCT_DEFINITION_SHAPE('',$,#1496);
#1491=PRODUCT_DEFINITION_SHAPE($,$,#14);
#1492=SHAPE_REPRESENTATION('',(#913,#988),#1480);
#1493=SHAPE_REPRESENTATION('',(#914),#1481);
#1494=PRODUCT_DEFINITION_CONTEXT('part definition',#1502,'design');
#1495=PRODUCT_DEFINITION('Leg V1','Leg V1 v19',#1497,#1494);
#1496=PRODUCT_DEFINITION('Middle Leg Front','Middle Leg Front',#1498,#1494);
#1497=PRODUCT_DEFINITION_FORMATION('',$,#1504);
#1498=PRODUCT_DEFINITION_FORMATION('',$,#1505);
#1499=PRODUCT_RELATED_PRODUCT_CATEGORY('Leg V1 v19','Leg V1 v19',(#1504));
#1500=PRODUCT_RELATED_PRODUCT_CATEGORY('Middle Leg Front',
'Middle Leg Front',(#1505));
#1501=APPLICATION_PROTOCOL_DEFINITION('international standard',
'automotive_design',2009,#1502);
#1502=APPLICATION_CONTEXT(
'Core Data for Automotive Mechanical Design Process');
#1503=PRODUCT_CONTEXT('part definition',#1502,'mechanical');
#1504=PRODUCT('Leg V1','Leg V1 v19',$,(#1503));
#1505=PRODUCT('Middle Leg Front','Middle Leg Front',$,(#1503));
#1506=PRESENTATION_STYLE_ASSIGNMENT((#1508));
#1507=PRESENTATION_STYLE_ASSIGNMENT((#1509));
#1508=SURFACE_STYLE_USAGE(.BOTH.,#1510);
#1509=SURFACE_STYLE_USAGE(.BOTH.,#1511);
#1510=SURFACE_SIDE_STYLE('',(#1512));
#1511=SURFACE_SIDE_STYLE('',(#1513));
#1512=SURFACE_STYLE_FILL_AREA(#1514);
#1513=SURFACE_STYLE_FILL_AREA(#1515);
#1514=FILL_AREA_STYLE('Steel - Satin',(#1516));
#1515=FILL_AREA_STYLE('ABS (White)',(#1517));
#1516=FILL_AREA_STYLE_COLOUR('Steel - Satin',#1518);
#1517=FILL_AREA_STYLE_COLOUR('ABS (White)',#1519);
#1518=COLOUR_RGB('Steel - Satin',0.627450980392157,0.627450980392157,0.627450980392157);
#1519=COLOUR_RGB('ABS (White)',0.964705882352941,0.964705882352941,0.952941176470588);
ENDSEC;
END-ISO-10303-21;
