ISO-10303-21;
HEADER;
/* Generated by software containing ST-Developer
 * from STEP Tools, Inc. (www.steptools.com) 
 */

FILE_DESCRIPTION(
/* description */ (''),
/* implementation_level */ '2;1');

FILE_NAME(
/* name */ 'Upper Leg conector.step',
/* time_stamp */ '2025-09-22T17:46:11+02:00',
/* author */ (''),
/* organization */ (''),
/* preprocessor_version */ 'ST-DEVELOPER v20.1',
/* originating_system */ 'Autodesk Translation Framework v14.17.0.0',
/* authorisation */ '');

FILE_SCHEMA (('AUTOMOTIVE_DESIGN { 1 0 10303 214 3 1 1 }'));
ENDSEC;

DATA;
#10=MECHANICAL_DESIGN_GEOMETRIC_PRESENTATION_REPRESENTATION('',(#17),#1995);
#11=ITEM_DEFINED_TRANSFORMATION($,$,#1245,#1332);
#12=(
REPRESENTATION_RELATIONSHIP($,$,#2006,#2005)
REPRESENTATION_RELATIONSHIP_WITH_TRANSFORMATION(#11)
SHAPE_REPRESENTATION_RELATIONSHIP()
);
#13=CONTEXT_DEPENDENT_SHAPE_REPRESENTATION(#12,#2004);
#14=NEXT_ASSEMBLY_USAGE_OCCURRENCE('Upper Leg conector:1',
'Upper Leg conector:1','Upper Leg conector:1',#2008,#2009,
'Upper Leg conector:1');
#15=SHAPE_REPRESENTATION_RELATIONSHIP('SRR','None',#2006,#16);
#16=ADVANCED_BREP_SHAPE_REPRESENTATION('',(#18),#1994);
#17=STYLED_ITEM('',(#2020),#18);
#18=MANIFOLD_SOLID_BREP('Body1',#1231);
#19=FACE_BOUND('',#170,.T.);
#20=FACE_BOUND('',#171,.T.);
#21=FACE_BOUND('',#172,.T.);
#22=FACE_BOUND('',#173,.T.);
#23=FACE_BOUND('',#174,.T.);
#24=FACE_BOUND('',#175,.T.);
#25=FACE_BOUND('',#176,.T.);
#26=FACE_BOUND('',#177,.T.);
#27=FACE_BOUND('',#178,.T.);
#28=FACE_BOUND('',#179,.T.);
#29=FACE_BOUND('',#180,.T.);
#30=FACE_BOUND('',#181,.T.);
#31=FACE_BOUND('',#182,.T.);
#32=FACE_BOUND('',#184,.T.);
#33=FACE_BOUND('',#185,.T.);
#34=FACE_BOUND('',#186,.T.);
#35=FACE_BOUND('',#187,.T.);
#36=FACE_BOUND('',#188,.T.);
#37=FACE_BOUND('',#189,.T.);
#38=FACE_BOUND('',#190,.T.);
#39=FACE_BOUND('',#191,.T.);
#40=FACE_BOUND('',#192,.T.);
#41=FACE_BOUND('',#193,.T.);
#42=FACE_BOUND('',#194,.T.);
#43=FACE_BOUND('',#195,.T.);
#44=FACE_BOUND('',#196,.T.);
#45=PLANE('',#1282);
#46=PLANE('',#1283);
#47=PLANE('',#1284);
#48=PLANE('',#1285);
#49=PLANE('',#1286);
#50=PLANE('',#1287);
#51=PLANE('',#1288);
#52=PLANE('',#1289);
#53=PLANE('',#1290);
#54=PLANE('',#1291);
#55=PLANE('',#1292);
#56=PLANE('',#1293);
#57=PLANE('',#1294);
#58=PLANE('',#1295);
#59=PLANE('',#1296);
#60=PLANE('',#1297);
#61=PLANE('',#1298);
#62=PLANE('',#1299);
#63=PLANE('',#1300);
#64=PLANE('',#1301);
#65=PLANE('',#1302);
#66=PLANE('',#1303);
#67=PLANE('',#1304);
#68=PLANE('',#1305);
#69=PLANE('',#1306);
#70=PLANE('',#1307);
#71=PLANE('',#1308);
#72=PLANE('',#1309);
#73=PLANE('',#1310);
#74=PLANE('',#1311);
#75=PLANE('',#1312);
#76=PLANE('',#1313);
#77=PLANE('',#1314);
#78=PLANE('',#1315);
#79=PLANE('',#1316);
#80=PLANE('',#1317);
#81=PLANE('',#1318);
#82=PLANE('',#1319);
#83=PLANE('',#1320);
#84=PLANE('',#1321);
#85=PLANE('',#1322);
#86=PLANE('',#1323);
#87=PLANE('',#1324);
#88=PLANE('',#1325);
#89=PLANE('',#1326);
#90=PLANE('',#1327);
#91=PLANE('',#1328);
#92=PLANE('',#1329);
#93=PLANE('',#1330);
#94=PLANE('',#1331);
#95=FACE_OUTER_BOUND('',#157,.T.);
#96=FACE_OUTER_BOUND('',#158,.T.);
#97=FACE_OUTER_BOUND('',#159,.T.);
#98=FACE_OUTER_BOUND('',#160,.T.);
#99=FACE_OUTER_BOUND('',#161,.T.);
#100=FACE_OUTER_BOUND('',#162,.T.);
#101=FACE_OUTER_BOUND('',#163,.T.);
#102=FACE_OUTER_BOUND('',#164,.T.);
#103=FACE_OUTER_BOUND('',#165,.T.);
#104=FACE_OUTER_BOUND('',#166,.T.);
#105=FACE_OUTER_BOUND('',#167,.T.);
#106=FACE_OUTER_BOUND('',#168,.T.);
#107=FACE_OUTER_BOUND('',#169,.T.);
#108=FACE_OUTER_BOUND('',#183,.T.);
#109=FACE_OUTER_BOUND('',#197,.T.);
#110=FACE_OUTER_BOUND('',#198,.T.);
#111=FACE_OUTER_BOUND('',#199,.T.);
#112=FACE_OUTER_BOUND('',#200,.T.);
#113=FACE_OUTER_BOUND('',#201,.T.);
#114=FACE_OUTER_BOUND('',#202,.T.);
#115=FACE_OUTER_BOUND('',#203,.T.);
#116=FACE_OUTER_BOUND('',#204,.T.);
#117=FACE_OUTER_BOUND('',#205,.T.);
#118=FACE_OUTER_BOUND('',#206,.T.);
#119=FACE_OUTER_BOUND('',#207,.T.);
#120=FACE_OUTER_BOUND('',#208,.T.);
#121=FACE_OUTER_BOUND('',#209,.T.);
#122=FACE_OUTER_BOUND('',#210,.T.);
#123=FACE_OUTER_BOUND('',#211,.T.);
#124=FACE_OUTER_BOUND('',#212,.T.);
#125=FACE_OUTER_BOUND('',#213,.T.);
#126=FACE_OUTER_BOUND('',#214,.T.);
#127=FACE_OUTER_BOUND('',#215,.T.);
#128=FACE_OUTER_BOUND('',#216,.T.);
#129=FACE_OUTER_BOUND('',#217,.T.);
#130=FACE_OUTER_BOUND('',#218,.T.);
#131=FACE_OUTER_BOUND('',#219,.T.);
#132=FACE_OUTER_BOUND('',#220,.T.);
#133=FACE_OUTER_BOUND('',#221,.T.);
#134=FACE_OUTER_BOUND('',#222,.T.);
#135=FACE_OUTER_BOUND('',#223,.T.);
#136=FACE_OUTER_BOUND('',#224,.T.);
#137=FACE_OUTER_BOUND('',#225,.T.);
#138=FACE_OUTER_BOUND('',#226,.T.);
#139=FACE_OUTER_BOUND('',#227,.T.);
#140=FACE_OUTER_BOUND('',#228,.T.);
#141=FACE_OUTER_BOUND('',#229,.T.);
#142=FACE_OUTER_BOUND('',#230,.T.);
#143=FACE_OUTER_BOUND('',#231,.T.);
#144=FACE_OUTER_BOUND('',#232,.T.);
#145=FACE_OUTER_BOUND('',#233,.T.);
#146=FACE_OUTER_BOUND('',#234,.T.);
#147=FACE_OUTER_BOUND('',#235,.T.);
#148=FACE_OUTER_BOUND('',#236,.T.);
#149=FACE_OUTER_BOUND('',#237,.T.);
#150=FACE_OUTER_BOUND('',#238,.T.);
#151=FACE_OUTER_BOUND('',#239,.T.);
#152=FACE_OUTER_BOUND('',#240,.T.);
#153=FACE_OUTER_BOUND('',#241,.T.);
#154=FACE_OUTER_BOUND('',#242,.T.);
#155=FACE_OUTER_BOUND('',#243,.T.);
#156=FACE_OUTER_BOUND('',#244,.T.);
#157=EDGE_LOOP('',(#825,#826,#827,#828));
#158=EDGE_LOOP('',(#829,#830,#831,#832));
#159=EDGE_LOOP('',(#833,#834,#835,#836));
#160=EDGE_LOOP('',(#837,#838,#839,#840));
#161=EDGE_LOOP('',(#841,#842,#843,#844));
#162=EDGE_LOOP('',(#845,#846,#847,#848));
#163=EDGE_LOOP('',(#849,#850,#851,#852));
#164=EDGE_LOOP('',(#853,#854,#855,#856));
#165=EDGE_LOOP('',(#857,#858,#859,#860));
#166=EDGE_LOOP('',(#861,#862,#863,#864));
#167=EDGE_LOOP('',(#865,#866,#867,#868));
#168=EDGE_LOOP('',(#869,#870,#871,#872));
#169=EDGE_LOOP('',(#873,#874,#875,#876,#877,#878,#879,#880,#881,#882,#883,
#884,#885,#886,#887,#888,#889,#890,#891,#892,#893,#894,#895,#896,#897,#898));
#170=EDGE_LOOP('',(#899));
#171=EDGE_LOOP('',(#900));
#172=EDGE_LOOP('',(#901));
#173=EDGE_LOOP('',(#902));
#174=EDGE_LOOP('',(#903));
#175=EDGE_LOOP('',(#904));
#176=EDGE_LOOP('',(#905));
#177=EDGE_LOOP('',(#906));
#178=EDGE_LOOP('',(#907));
#179=EDGE_LOOP('',(#908,#909,#910,#911,#912,#913,#914,#915));
#180=EDGE_LOOP('',(#916));
#181=EDGE_LOOP('',(#917));
#182=EDGE_LOOP('',(#918));
#183=EDGE_LOOP('',(#919,#920,#921,#922,#923,#924,#925,#926,#927,#928,#929,
#930,#931,#932,#933,#934,#935,#936,#937,#938,#939,#940,#941,#942));
#184=EDGE_LOOP('',(#943));
#185=EDGE_LOOP('',(#944));
#186=EDGE_LOOP('',(#945));
#187=EDGE_LOOP('',(#946));
#188=EDGE_LOOP('',(#947));
#189=EDGE_LOOP('',(#948));
#190=EDGE_LOOP('',(#949));
#191=EDGE_LOOP('',(#950));
#192=EDGE_LOOP('',(#951));
#193=EDGE_LOOP('',(#952,#953,#954,#955,#956,#957,#958,#959));
#194=EDGE_LOOP('',(#960));
#195=EDGE_LOOP('',(#961));
#196=EDGE_LOOP('',(#962));
#197=EDGE_LOOP('',(#963,#964,#965,#966));
#198=EDGE_LOOP('',(#967,#968,#969,#970));
#199=EDGE_LOOP('',(#971,#972,#973,#974));
#200=EDGE_LOOP('',(#975,#976,#977,#978));
#201=EDGE_LOOP('',(#979,#980,#981,#982));
#202=EDGE_LOOP('',(#983,#984,#985,#986));
#203=EDGE_LOOP('',(#987,#988,#989,#990));
#204=EDGE_LOOP('',(#991,#992,#993,#994));
#205=EDGE_LOOP('',(#995,#996,#997,#998));
#206=EDGE_LOOP('',(#999,#1000,#1001,#1002));
#207=EDGE_LOOP('',(#1003,#1004,#1005,#1006));
#208=EDGE_LOOP('',(#1007,#1008,#1009,#1010));
#209=EDGE_LOOP('',(#1011,#1012,#1013,#1014));
#210=EDGE_LOOP('',(#1015,#1016,#1017,#1018));
#211=EDGE_LOOP('',(#1019,#1020,#1021,#1022));
#212=EDGE_LOOP('',(#1023,#1024,#1025,#1026));
#213=EDGE_LOOP('',(#1027,#1028,#1029,#1030));
#214=EDGE_LOOP('',(#1031,#1032,#1033,#1034));
#215=EDGE_LOOP('',(#1035,#1036,#1037,#1038));
#216=EDGE_LOOP('',(#1039,#1040,#1041,#1042));
#217=EDGE_LOOP('',(#1043,#1044,#1045,#1046));
#218=EDGE_LOOP('',(#1047,#1048,#1049,#1050));
#219=EDGE_LOOP('',(#1051,#1052,#1053,#1054));
#220=EDGE_LOOP('',(#1055,#1056,#1057,#1058));
#221=EDGE_LOOP('',(#1059,#1060,#1061,#1062));
#222=EDGE_LOOP('',(#1063,#1064,#1065,#1066));
#223=EDGE_LOOP('',(#1067,#1068,#1069,#1070));
#224=EDGE_LOOP('',(#1071,#1072,#1073,#1074));
#225=EDGE_LOOP('',(#1075,#1076,#1077,#1078));
#226=EDGE_LOOP('',(#1079,#1080,#1081,#1082));
#227=EDGE_LOOP('',(#1083,#1084,#1085,#1086));
#228=EDGE_LOOP('',(#1087,#1088,#1089,#1090));
#229=EDGE_LOOP('',(#1091,#1092,#1093,#1094));
#230=EDGE_LOOP('',(#1095,#1096,#1097,#1098,#1099,#1100));
#231=EDGE_LOOP('',(#1101,#1102,#1103,#1104));
#232=EDGE_LOOP('',(#1105,#1106,#1107,#1108));
#233=EDGE_LOOP('',(#1109,#1110,#1111,#1112));
#234=EDGE_LOOP('',(#1113,#1114,#1115,#1116));
#235=EDGE_LOOP('',(#1117,#1118,#1119,#1120));
#236=EDGE_LOOP('',(#1121,#1122,#1123,#1124));
#237=EDGE_LOOP('',(#1125,#1126,#1127,#1128));
#238=EDGE_LOOP('',(#1129,#1130,#1131,#1132));
#239=EDGE_LOOP('',(#1133,#1134,#1135,#1136));
#240=EDGE_LOOP('',(#1137,#1138,#1139,#1140));
#241=EDGE_LOOP('',(#1141,#1142,#1143,#1144));
#242=EDGE_LOOP('',(#1145,#1146,#1147,#1148));
#243=EDGE_LOOP('',(#1149,#1150,#1151,#1152));
#244=EDGE_LOOP('',(#1153,#1154,#1155,#1156));
#245=LINE('',#1659,#387);
#246=LINE('',#1665,#388);
#247=LINE('',#1671,#389);
#248=LINE('',#1677,#390);
#249=LINE('',#1683,#391);
#250=LINE('',#1689,#392);
#251=LINE('',#1695,#393);
#252=LINE('',#1701,#394);
#253=LINE('',#1707,#395);
#254=LINE('',#1713,#396);
#255=LINE('',#1719,#397);
#256=LINE('',#1725,#398);
#257=LINE('',#1730,#399);
#258=LINE('',#1732,#400);
#259=LINE('',#1734,#401);
#260=LINE('',#1736,#402);
#261=LINE('',#1738,#403);
#262=LINE('',#1740,#404);
#263=LINE('',#1742,#405);
#264=LINE('',#1744,#406);
#265=LINE('',#1746,#407);
#266=LINE('',#1748,#408);
#267=LINE('',#1750,#409);
#268=LINE('',#1752,#410);
#269=LINE('',#1754,#411);
#270=LINE('',#1756,#412);
#271=LINE('',#1758,#413);
#272=LINE('',#1760,#414);
#273=LINE('',#1762,#415);
#274=LINE('',#1764,#416);
#275=LINE('',#1766,#417);
#276=LINE('',#1768,#418);
#277=LINE('',#1770,#419);
#278=LINE('',#1772,#420);
#279=LINE('',#1774,#421);
#280=LINE('',#1776,#422);
#281=LINE('',#1778,#423);
#282=LINE('',#1779,#424);
#283=LINE('',#1782,#425);
#284=LINE('',#1784,#426);
#285=LINE('',#1786,#427);
#286=LINE('',#1788,#428);
#287=LINE('',#1790,#429);
#288=LINE('',#1792,#430);
#289=LINE('',#1794,#431);
#290=LINE('',#1795,#432);
#291=LINE('',#1799,#433);
#292=LINE('',#1801,#434);
#293=LINE('',#1803,#435);
#294=LINE('',#1805,#436);
#295=LINE('',#1807,#437);
#296=LINE('',#1809,#438);
#297=LINE('',#1811,#439);
#298=LINE('',#1813,#440);
#299=LINE('',#1815,#441);
#300=LINE('',#1817,#442);
#301=LINE('',#1819,#443);
#302=LINE('',#1821,#444);
#303=LINE('',#1823,#445);
#304=LINE('',#1825,#446);
#305=LINE('',#1827,#447);
#306=LINE('',#1829,#448);
#307=LINE('',#1831,#449);
#308=LINE('',#1833,#450);
#309=LINE('',#1835,#451);
#310=LINE('',#1837,#452);
#311=LINE('',#1839,#453);
#312=LINE('',#1841,#454);
#313=LINE('',#1843,#455);
#314=LINE('',#1844,#456);
#315=LINE('',#1847,#457);
#316=LINE('',#1849,#458);
#317=LINE('',#1851,#459);
#318=LINE('',#1853,#460);
#319=LINE('',#1855,#461);
#320=LINE('',#1857,#462);
#321=LINE('',#1859,#463);
#322=LINE('',#1860,#464);
#323=LINE('',#1863,#465);
#324=LINE('',#1865,#466);
#325=LINE('',#1866,#467);
#326=LINE('',#1869,#468);
#327=LINE('',#1870,#469);
#328=LINE('',#1873,#470);
#329=LINE('',#1874,#471);
#330=LINE('',#1877,#472);
#331=LINE('',#1878,#473);
#332=LINE('',#1881,#474);
#333=LINE('',#1882,#475);
#334=LINE('',#1885,#476);
#335=LINE('',#1886,#477);
#336=LINE('',#1889,#478);
#337=LINE('',#1890,#479);
#338=LINE('',#1892,#480);
#339=LINE('',#1895,#481);
#340=LINE('',#1897,#482);
#341=LINE('',#1898,#483);
#342=LINE('',#1901,#484);
#343=LINE('',#1902,#485);
#344=LINE('',#1905,#486);
#345=LINE('',#1906,#487);
#346=LINE('',#1909,#488);
#347=LINE('',#1910,#489);
#348=LINE('',#1913,#490);
#349=LINE('',#1915,#491);
#350=LINE('',#1916,#492);
#351=LINE('',#1918,#493);
#352=LINE('',#1919,#494);
#353=LINE('',#1921,#495);
#354=LINE('',#1923,#496);
#355=LINE('',#1925,#497);
#356=LINE('',#1927,#498);
#357=LINE('',#1930,#499);
#358=LINE('',#1931,#500);
#359=LINE('',#1933,#501);
#360=LINE('',#1935,#502);
#361=LINE('',#1937,#503);
#362=LINE('',#1939,#504);
#363=LINE('',#1942,#505);
#364=LINE('',#1943,#506);
#365=LINE('',#1945,#507);
#366=LINE('',#1947,#508);
#367=LINE('',#1948,#509);
#368=LINE('',#1950,#510);
#369=LINE('',#1952,#511);
#370=LINE('',#1953,#512);
#371=LINE('',#1955,#513);
#372=LINE('',#1957,#514);
#373=LINE('',#1958,#515);
#374=LINE('',#1960,#516);
#375=LINE('',#1962,#517);
#376=LINE('',#1963,#518);
#377=LINE('',#1965,#519);
#378=LINE('',#1967,#520);
#379=LINE('',#1968,#521);
#380=LINE('',#1970,#522);
#381=LINE('',#1972,#523);
#382=LINE('',#1973,#524);
#383=LINE('',#1975,#525);
#384=LINE('',#1977,#526);
#385=LINE('',#1978,#527);
#386=LINE('',#1980,#528);
#387=VECTOR('',#1341,2.04999999999999);
#388=VECTOR('',#1348,2.05000000000001);
#389=VECTOR('',#1355,2.05);
#390=VECTOR('',#1362,2.05);
#391=VECTOR('',#1369,2.05000000000001);
#392=VECTOR('',#1376,2.05);
#393=VECTOR('',#1383,2.05000000000001);
#394=VECTOR('',#1390,2.05);
#395=VECTOR('',#1397,2.05);
#396=VECTOR('',#1404,2.05);
#397=VECTOR('',#1411,2.05);
#398=VECTOR('',#1418,2.05000000000001);
#399=VECTOR('',#1423,10.);
#400=VECTOR('',#1424,10.);
#401=VECTOR('',#1425,10.);
#402=VECTOR('',#1426,10.);
#403=VECTOR('',#1427,10.);
#404=VECTOR('',#1428,10.);
#405=VECTOR('',#1429,10.);
#406=VECTOR('',#1430,10.);
#407=VECTOR('',#1431,10.);
#408=VECTOR('',#1432,10.);
#409=VECTOR('',#1433,10.);
#410=VECTOR('',#1434,10.);
#411=VECTOR('',#1435,10.);
#412=VECTOR('',#1436,10.);
#413=VECTOR('',#1437,10.);
#414=VECTOR('',#1438,10.);
#415=VECTOR('',#1439,10.);
#416=VECTOR('',#1440,10.);
#417=VECTOR('',#1441,10.);
#418=VECTOR('',#1442,10.);
#419=VECTOR('',#1443,10.);
#420=VECTOR('',#1444,10.);
#421=VECTOR('',#1445,10.);
#422=VECTOR('',#1446,10.);
#423=VECTOR('',#1447,10.);
#424=VECTOR('',#1448,10.);
#425=VECTOR('',#1449,10.);
#426=VECTOR('',#1450,10.);
#427=VECTOR('',#1451,10.);
#428=VECTOR('',#1452,10.);
#429=VECTOR('',#1453,10.);
#430=VECTOR('',#1454,10.);
#431=VECTOR('',#1455,10.);
#432=VECTOR('',#1456,10.);
#433=VECTOR('',#1459,10.);
#434=VECTOR('',#1460,10.);
#435=VECTOR('',#1461,10.);
#436=VECTOR('',#1462,10.);
#437=VECTOR('',#1463,10.);
#438=VECTOR('',#1464,10.);
#439=VECTOR('',#1465,10.);
#440=VECTOR('',#1466,10.);
#441=VECTOR('',#1467,10.);
#442=VECTOR('',#1468,10.);
#443=VECTOR('',#1469,10.);
#444=VECTOR('',#1470,10.);
#445=VECTOR('',#1471,10.);
#446=VECTOR('',#1472,10.);
#447=VECTOR('',#1473,10.);
#448=VECTOR('',#1474,10.);
#449=VECTOR('',#1475,10.);
#450=VECTOR('',#1476,10.);
#451=VECTOR('',#1477,10.);
#452=VECTOR('',#1478,10.);
#453=VECTOR('',#1479,10.);
#454=VECTOR('',#1480,10.);
#455=VECTOR('',#1481,10.);
#456=VECTOR('',#1482,10.);
#457=VECTOR('',#1483,10.);
#458=VECTOR('',#1484,10.);
#459=VECTOR('',#1485,10.);
#460=VECTOR('',#1486,10.);
#461=VECTOR('',#1487,10.);
#462=VECTOR('',#1488,10.);
#463=VECTOR('',#1489,10.);
#464=VECTOR('',#1490,10.);
#465=VECTOR('',#1493,10.);
#466=VECTOR('',#1494,10.);
#467=VECTOR('',#1495,10.);
#468=VECTOR('',#1498,10.);
#469=VECTOR('',#1499,10.);
#470=VECTOR('',#1502,10.);
#471=VECTOR('',#1503,10.);
#472=VECTOR('',#1506,10.);
#473=VECTOR('',#1507,10.);
#474=VECTOR('',#1510,10.);
#475=VECTOR('',#1511,10.);
#476=VECTOR('',#1514,10.);
#477=VECTOR('',#1515,10.);
#478=VECTOR('',#1518,10.);
#479=VECTOR('',#1519,10.);
#480=VECTOR('',#1522,10.);
#481=VECTOR('',#1525,10.);
#482=VECTOR('',#1526,10.);
#483=VECTOR('',#1527,10.);
#484=VECTOR('',#1530,10.);
#485=VECTOR('',#1531,10.);
#486=VECTOR('',#1534,10.);
#487=VECTOR('',#1535,10.);
#488=VECTOR('',#1538,10.);
#489=VECTOR('',#1539,10.);
#490=VECTOR('',#1542,10.);
#491=VECTOR('',#1543,10.);
#492=VECTOR('',#1544,10.);
#493=VECTOR('',#1547,10.);
#494=VECTOR('',#1548,10.);
#495=VECTOR('',#1551,10.);
#496=VECTOR('',#1554,10.);
#497=VECTOR('',#1557,10.);
#498=VECTOR('',#1560,10.);
#499=VECTOR('',#1563,10.);
#500=VECTOR('',#1564,10.);
#501=VECTOR('',#1567,10.);
#502=VECTOR('',#1570,10.);
#503=VECTOR('',#1573,10.);
#504=VECTOR('',#1576,10.);
#505=VECTOR('',#1581,10.);
#506=VECTOR('',#1582,10.);
#507=VECTOR('',#1585,10.);
#508=VECTOR('',#1588,10.);
#509=VECTOR('',#1589,10.);
#510=VECTOR('',#1592,10.);
#511=VECTOR('',#1595,10.);
#512=VECTOR('',#1596,10.);
#513=VECTOR('',#1599,10.);
#514=VECTOR('',#1602,10.);
#515=VECTOR('',#1603,10.);
#516=VECTOR('',#1606,10.);
#517=VECTOR('',#1609,10.);
#518=VECTOR('',#1610,10.);
#519=VECTOR('',#1613,10.);
#520=VECTOR('',#1616,10.);
#521=VECTOR('',#1617,10.);
#522=VECTOR('',#1620,10.);
#523=VECTOR('',#1623,10.);
#524=VECTOR('',#1624,10.);
#525=VECTOR('',#1627,10.);
#526=VECTOR('',#1630,10.);
#527=VECTOR('',#1631,10.);
#528=VECTOR('',#1634,10.);
#529=CIRCLE('',#1247,2.05);
#530=CIRCLE('',#1248,2.04999999999999);
#531=CIRCLE('',#1250,2.05000000000001);
#532=CIRCLE('',#1251,2.05000000000001);
#533=CIRCLE('',#1253,2.05);
#534=CIRCLE('',#1254,2.05);
#535=CIRCLE('',#1256,2.05);
#536=CIRCLE('',#1257,2.05);
#537=CIRCLE('',#1259,2.05000000000001);
#538=CIRCLE('',#1260,2.05000000000001);
#539=CIRCLE('',#1262,2.05);
#540=CIRCLE('',#1263,2.05);
#541=CIRCLE('',#1265,2.05000000000001);
#542=CIRCLE('',#1266,2.05000000000001);
#543=CIRCLE('',#1268,2.05);
#544=CIRCLE('',#1269,2.05);
#545=CIRCLE('',#1271,2.05);
#546=CIRCLE('',#1272,2.05);
#547=CIRCLE('',#1274,2.05);
#548=CIRCLE('',#1275,2.05);
#549=CIRCLE('',#1277,2.05);
#550=CIRCLE('',#1278,2.05);
#551=CIRCLE('',#1280,2.05000000000001);
#552=CIRCLE('',#1281,2.05000000000001);
#553=VERTEX_POINT('',#1656);
#554=VERTEX_POINT('',#1658);
#555=VERTEX_POINT('',#1662);
#556=VERTEX_POINT('',#1664);
#557=VERTEX_POINT('',#1668);
#558=VERTEX_POINT('',#1670);
#559=VERTEX_POINT('',#1674);
#560=VERTEX_POINT('',#1676);
#561=VERTEX_POINT('',#1680);
#562=VERTEX_POINT('',#1682);
#563=VERTEX_POINT('',#1686);
#564=VERTEX_POINT('',#1688);
#565=VERTEX_POINT('',#1692);
#566=VERTEX_POINT('',#1694);
#567=VERTEX_POINT('',#1698);
#568=VERTEX_POINT('',#1700);
#569=VERTEX_POINT('',#1704);
#570=VERTEX_POINT('',#1706);
#571=VERTEX_POINT('',#1710);
#572=VERTEX_POINT('',#1712);
#573=VERTEX_POINT('',#1716);
#574=VERTEX_POINT('',#1718);
#575=VERTEX_POINT('',#1722);
#576=VERTEX_POINT('',#1724);
#577=VERTEX_POINT('',#1728);
#578=VERTEX_POINT('',#1729);
#579=VERTEX_POINT('',#1731);
#580=VERTEX_POINT('',#1733);
#581=VERTEX_POINT('',#1735);
#582=VERTEX_POINT('',#1737);
#583=VERTEX_POINT('',#1739);
#584=VERTEX_POINT('',#1741);
#585=VERTEX_POINT('',#1743);
#586=VERTEX_POINT('',#1745);
#587=VERTEX_POINT('',#1747);
#588=VERTEX_POINT('',#1749);
#589=VERTEX_POINT('',#1751);
#590=VERTEX_POINT('',#1753);
#591=VERTEX_POINT('',#1755);
#592=VERTEX_POINT('',#1757);
#593=VERTEX_POINT('',#1759);
#594=VERTEX_POINT('',#1761);
#595=VERTEX_POINT('',#1763);
#596=VERTEX_POINT('',#1765);
#597=VERTEX_POINT('',#1767);
#598=VERTEX_POINT('',#1769);
#599=VERTEX_POINT('',#1771);
#600=VERTEX_POINT('',#1773);
#601=VERTEX_POINT('',#1775);
#602=VERTEX_POINT('',#1777);
#603=VERTEX_POINT('',#1780);
#604=VERTEX_POINT('',#1781);
#605=VERTEX_POINT('',#1783);
#606=VERTEX_POINT('',#1785);
#607=VERTEX_POINT('',#1787);
#608=VERTEX_POINT('',#1789);
#609=VERTEX_POINT('',#1791);
#610=VERTEX_POINT('',#1793);
#611=VERTEX_POINT('',#1797);
#612=VERTEX_POINT('',#1798);
#613=VERTEX_POINT('',#1800);
#614=VERTEX_POINT('',#1802);
#615=VERTEX_POINT('',#1804);
#616=VERTEX_POINT('',#1806);
#617=VERTEX_POINT('',#1808);
#618=VERTEX_POINT('',#1810);
#619=VERTEX_POINT('',#1812);
#620=VERTEX_POINT('',#1814);
#621=VERTEX_POINT('',#1816);
#622=VERTEX_POINT('',#1818);
#623=VERTEX_POINT('',#1820);
#624=VERTEX_POINT('',#1822);
#625=VERTEX_POINT('',#1824);
#626=VERTEX_POINT('',#1826);
#627=VERTEX_POINT('',#1828);
#628=VERTEX_POINT('',#1830);
#629=VERTEX_POINT('',#1832);
#630=VERTEX_POINT('',#1834);
#631=VERTEX_POINT('',#1836);
#632=VERTEX_POINT('',#1838);
#633=VERTEX_POINT('',#1840);
#634=VERTEX_POINT('',#1842);
#635=VERTEX_POINT('',#1845);
#636=VERTEX_POINT('',#1846);
#637=VERTEX_POINT('',#1848);
#638=VERTEX_POINT('',#1850);
#639=VERTEX_POINT('',#1852);
#640=VERTEX_POINT('',#1854);
#641=VERTEX_POINT('',#1856);
#642=VERTEX_POINT('',#1858);
#643=VERTEX_POINT('',#1862);
#644=VERTEX_POINT('',#1864);
#645=VERTEX_POINT('',#1868);
#646=VERTEX_POINT('',#1872);
#647=VERTEX_POINT('',#1876);
#648=VERTEX_POINT('',#1880);
#649=VERTEX_POINT('',#1884);
#650=VERTEX_POINT('',#1888);
#651=VERTEX_POINT('',#1894);
#652=VERTEX_POINT('',#1896);
#653=VERTEX_POINT('',#1900);
#654=VERTEX_POINT('',#1904);
#655=VERTEX_POINT('',#1908);
#656=VERTEX_POINT('',#1912);
#657=VERTEX_POINT('',#1914);
#658=VERTEX_POINT('',#1929);
#659=EDGE_CURVE('',#553,#553,#529,.T.);
#660=EDGE_CURVE('',#553,#554,#245,.T.);
#661=EDGE_CURVE('',#554,#554,#530,.T.);
#662=EDGE_CURVE('',#555,#555,#531,.T.);
#663=EDGE_CURVE('',#555,#556,#246,.T.);
#664=EDGE_CURVE('',#556,#556,#532,.T.);
#665=EDGE_CURVE('',#557,#557,#533,.T.);
#666=EDGE_CURVE('',#557,#558,#247,.T.);
#667=EDGE_CURVE('',#558,#558,#534,.T.);
#668=EDGE_CURVE('',#559,#559,#535,.T.);
#669=EDGE_CURVE('',#559,#560,#248,.T.);
#670=EDGE_CURVE('',#560,#560,#536,.T.);
#671=EDGE_CURVE('',#561,#561,#537,.T.);
#672=EDGE_CURVE('',#561,#562,#249,.T.);
#673=EDGE_CURVE('',#562,#562,#538,.T.);
#674=EDGE_CURVE('',#563,#563,#539,.T.);
#675=EDGE_CURVE('',#563,#564,#250,.T.);
#676=EDGE_CURVE('',#564,#564,#540,.T.);
#677=EDGE_CURVE('',#565,#565,#541,.T.);
#678=EDGE_CURVE('',#565,#566,#251,.T.);
#679=EDGE_CURVE('',#566,#566,#542,.T.);
#680=EDGE_CURVE('',#567,#567,#543,.T.);
#681=EDGE_CURVE('',#567,#568,#252,.T.);
#682=EDGE_CURVE('',#568,#568,#544,.T.);
#683=EDGE_CURVE('',#569,#569,#545,.T.);
#684=EDGE_CURVE('',#569,#570,#253,.T.);
#685=EDGE_CURVE('',#570,#570,#546,.T.);
#686=EDGE_CURVE('',#571,#571,#547,.T.);
#687=EDGE_CURVE('',#571,#572,#254,.T.);
#688=EDGE_CURVE('',#572,#572,#548,.T.);
#689=EDGE_CURVE('',#573,#573,#549,.T.);
#690=EDGE_CURVE('',#573,#574,#255,.T.);
#691=EDGE_CURVE('',#574,#574,#550,.T.);
#692=EDGE_CURVE('',#575,#575,#551,.T.);
#693=EDGE_CURVE('',#575,#576,#256,.T.);
#694=EDGE_CURVE('',#576,#576,#552,.T.);
#695=EDGE_CURVE('',#577,#578,#257,.T.);
#696=EDGE_CURVE('',#579,#577,#258,.T.);
#697=EDGE_CURVE('',#580,#579,#259,.T.);
#698=EDGE_CURVE('',#581,#580,#260,.T.);
#699=EDGE_CURVE('',#582,#581,#261,.T.);
#700=EDGE_CURVE('',#582,#583,#262,.T.);
#701=EDGE_CURVE('',#584,#583,#263,.T.);
#702=EDGE_CURVE('',#585,#584,#264,.T.);
#703=EDGE_CURVE('',#586,#585,#265,.T.);
#704=EDGE_CURVE('',#587,#586,#266,.T.);
#705=EDGE_CURVE('',#588,#587,#267,.T.);
#706=EDGE_CURVE('',#588,#589,#268,.T.);
#707=EDGE_CURVE('',#589,#590,#269,.T.);
#708=EDGE_CURVE('',#590,#591,#270,.T.);
#709=EDGE_CURVE('',#592,#591,#271,.T.);
#710=EDGE_CURVE('',#593,#592,#272,.T.);
#711=EDGE_CURVE('',#594,#593,#273,.T.);
#712=EDGE_CURVE('',#595,#594,#274,.T.);
#713=EDGE_CURVE('',#596,#595,#275,.T.);
#714=EDGE_CURVE('',#596,#597,#276,.T.);
#715=EDGE_CURVE('',#598,#597,#277,.T.);
#716=EDGE_CURVE('',#599,#598,#278,.T.);
#717=EDGE_CURVE('',#600,#599,#279,.T.);
#718=EDGE_CURVE('',#600,#601,#280,.T.);
#719=EDGE_CURVE('',#602,#601,#281,.T.);
#720=EDGE_CURVE('',#602,#578,#282,.T.);
#721=EDGE_CURVE('',#603,#604,#283,.T.);
#722=EDGE_CURVE('',#605,#603,#284,.T.);
#723=EDGE_CURVE('',#606,#605,#285,.T.);
#724=EDGE_CURVE('',#607,#606,#286,.T.);
#725=EDGE_CURVE('',#608,#607,#287,.T.);
#726=EDGE_CURVE('',#609,#608,#288,.T.);
#727=EDGE_CURVE('',#610,#609,#289,.T.);
#728=EDGE_CURVE('',#604,#610,#290,.T.);
#729=EDGE_CURVE('',#611,#612,#291,.T.);
#730=EDGE_CURVE('',#613,#611,#292,.T.);
#731=EDGE_CURVE('',#614,#613,#293,.T.);
#732=EDGE_CURVE('',#615,#614,#294,.T.);
#733=EDGE_CURVE('',#616,#615,#295,.T.);
#734=EDGE_CURVE('',#617,#616,#296,.T.);
#735=EDGE_CURVE('',#618,#617,#297,.T.);
#736=EDGE_CURVE('',#619,#618,#298,.T.);
#737=EDGE_CURVE('',#620,#619,#299,.T.);
#738=EDGE_CURVE('',#621,#620,#300,.T.);
#739=EDGE_CURVE('',#622,#621,#301,.T.);
#740=EDGE_CURVE('',#622,#623,#302,.T.);
#741=EDGE_CURVE('',#624,#623,#303,.T.);
#742=EDGE_CURVE('',#624,#625,#304,.T.);
#743=EDGE_CURVE('',#626,#625,#305,.T.);
#744=EDGE_CURVE('',#627,#626,#306,.T.);
#745=EDGE_CURVE('',#628,#627,#307,.T.);
#746=EDGE_CURVE('',#629,#628,#308,.T.);
#747=EDGE_CURVE('',#630,#629,#309,.T.);
#748=EDGE_CURVE('',#630,#631,#310,.T.);
#749=EDGE_CURVE('',#632,#631,#311,.T.);
#750=EDGE_CURVE('',#632,#633,#312,.T.);
#751=EDGE_CURVE('',#634,#633,#313,.T.);
#752=EDGE_CURVE('',#612,#634,#314,.T.);
#753=EDGE_CURVE('',#635,#636,#315,.T.);
#754=EDGE_CURVE('',#637,#635,#316,.T.);
#755=EDGE_CURVE('',#638,#637,#317,.T.);
#756=EDGE_CURVE('',#639,#638,#318,.T.);
#757=EDGE_CURVE('',#640,#639,#319,.T.);
#758=EDGE_CURVE('',#641,#640,#320,.T.);
#759=EDGE_CURVE('',#642,#641,#321,.T.);
#760=EDGE_CURVE('',#636,#642,#322,.T.);
#761=EDGE_CURVE('',#636,#643,#323,.T.);
#762=EDGE_CURVE('',#643,#644,#324,.T.);
#763=EDGE_CURVE('',#635,#644,#325,.T.);
#764=EDGE_CURVE('',#642,#645,#326,.T.);
#765=EDGE_CURVE('',#645,#643,#327,.T.);
#766=EDGE_CURVE('',#641,#646,#328,.T.);
#767=EDGE_CURVE('',#646,#645,#329,.T.);
#768=EDGE_CURVE('',#640,#647,#330,.T.);
#769=EDGE_CURVE('',#647,#646,#331,.T.);
#770=EDGE_CURVE('',#639,#648,#332,.T.);
#771=EDGE_CURVE('',#648,#647,#333,.T.);
#772=EDGE_CURVE('',#649,#648,#334,.T.);
#773=EDGE_CURVE('',#638,#649,#335,.T.);
#774=EDGE_CURVE('',#650,#649,#336,.T.);
#775=EDGE_CURVE('',#637,#650,#337,.T.);
#776=EDGE_CURVE('',#644,#650,#338,.T.);
#777=EDGE_CURVE('',#649,#651,#339,.T.);
#778=EDGE_CURVE('',#652,#651,#340,.T.);
#779=EDGE_CURVE('',#652,#648,#341,.T.);
#780=EDGE_CURVE('',#653,#650,#342,.T.);
#781=EDGE_CURVE('',#651,#653,#343,.T.);
#782=EDGE_CURVE('',#644,#654,#344,.T.);
#783=EDGE_CURVE('',#653,#654,#345,.T.);
#784=EDGE_CURVE('',#655,#643,#346,.T.);
#785=EDGE_CURVE('',#654,#655,#347,.T.);
#786=EDGE_CURVE('',#604,#656,#348,.T.);
#787=EDGE_CURVE('',#656,#657,#349,.T.);
#788=EDGE_CURVE('',#603,#657,#350,.T.);
#789=EDGE_CURVE('',#610,#655,#351,.T.);
#790=EDGE_CURVE('',#655,#656,#352,.T.);
#791=EDGE_CURVE('',#609,#654,#353,.T.);
#792=EDGE_CURVE('',#608,#653,#354,.T.);
#793=EDGE_CURVE('',#607,#651,#355,.T.);
#794=EDGE_CURVE('',#606,#652,#356,.T.);
#795=EDGE_CURVE('',#658,#652,#357,.T.);
#796=EDGE_CURVE('',#605,#658,#358,.T.);
#797=EDGE_CURVE('',#657,#658,#359,.T.);
#798=EDGE_CURVE('',#647,#658,#360,.T.);
#799=EDGE_CURVE('',#657,#646,#361,.T.);
#800=EDGE_CURVE('',#645,#656,#362,.T.);
#801=EDGE_CURVE('',#612,#577,#363,.T.);
#802=EDGE_CURVE('',#578,#611,#364,.T.);
#803=EDGE_CURVE('',#613,#602,#365,.T.);
#804=EDGE_CURVE('',#579,#634,#366,.T.);
#805=EDGE_CURVE('',#633,#580,#367,.T.);
#806=EDGE_CURVE('',#581,#632,#368,.T.);
#807=EDGE_CURVE('',#629,#584,#369,.T.);
#808=EDGE_CURVE('',#583,#630,#370,.T.);
#809=EDGE_CURVE('',#631,#582,#371,.T.);
#810=EDGE_CURVE('',#585,#628,#372,.T.);
#811=EDGE_CURVE('',#627,#586,#373,.T.);
#812=EDGE_CURVE('',#587,#626,#374,.T.);
#813=EDGE_CURVE('',#623,#592,#375,.T.);
#814=EDGE_CURVE('',#591,#624,#376,.T.);
#815=EDGE_CURVE('',#625,#588,#377,.T.);
#816=EDGE_CURVE('',#621,#594,#378,.T.);
#817=EDGE_CURVE('',#593,#622,#379,.T.);
#818=EDGE_CURVE('',#595,#620,#380,.T.);
#819=EDGE_CURVE('',#617,#598,#381,.T.);
#820=EDGE_CURVE('',#597,#618,#382,.T.);
#821=EDGE_CURVE('',#619,#596,#383,.T.);
#822=EDGE_CURVE('',#599,#616,#384,.T.);
#823=EDGE_CURVE('',#615,#600,#385,.T.);
#824=EDGE_CURVE('',#601,#614,#386,.T.);
#825=ORIENTED_EDGE('',*,*,#659,.T.);
#826=ORIENTED_EDGE('',*,*,#660,.T.);
#827=ORIENTED_EDGE('',*,*,#661,.F.);
#828=ORIENTED_EDGE('',*,*,#660,.F.);
#829=ORIENTED_EDGE('',*,*,#662,.T.);
#830=ORIENTED_EDGE('',*,*,#663,.T.);
#831=ORIENTED_EDGE('',*,*,#664,.F.);
#832=ORIENTED_EDGE('',*,*,#663,.F.);
#833=ORIENTED_EDGE('',*,*,#665,.T.);
#834=ORIENTED_EDGE('',*,*,#666,.T.);
#835=ORIENTED_EDGE('',*,*,#667,.F.);
#836=ORIENTED_EDGE('',*,*,#666,.F.);
#837=ORIENTED_EDGE('',*,*,#668,.T.);
#838=ORIENTED_EDGE('',*,*,#669,.T.);
#839=ORIENTED_EDGE('',*,*,#670,.F.);
#840=ORIENTED_EDGE('',*,*,#669,.F.);
#841=ORIENTED_EDGE('',*,*,#671,.T.);
#842=ORIENTED_EDGE('',*,*,#672,.T.);
#843=ORIENTED_EDGE('',*,*,#673,.F.);
#844=ORIENTED_EDGE('',*,*,#672,.F.);
#845=ORIENTED_EDGE('',*,*,#674,.T.);
#846=ORIENTED_EDGE('',*,*,#675,.T.);
#847=ORIENTED_EDGE('',*,*,#676,.F.);
#848=ORIENTED_EDGE('',*,*,#675,.F.);
#849=ORIENTED_EDGE('',*,*,#677,.T.);
#850=ORIENTED_EDGE('',*,*,#678,.T.);
#851=ORIENTED_EDGE('',*,*,#679,.F.);
#852=ORIENTED_EDGE('',*,*,#678,.F.);
#853=ORIENTED_EDGE('',*,*,#680,.T.);
#854=ORIENTED_EDGE('',*,*,#681,.T.);
#855=ORIENTED_EDGE('',*,*,#682,.F.);
#856=ORIENTED_EDGE('',*,*,#681,.F.);
#857=ORIENTED_EDGE('',*,*,#683,.T.);
#858=ORIENTED_EDGE('',*,*,#684,.T.);
#859=ORIENTED_EDGE('',*,*,#685,.F.);
#860=ORIENTED_EDGE('',*,*,#684,.F.);
#861=ORIENTED_EDGE('',*,*,#686,.T.);
#862=ORIENTED_EDGE('',*,*,#687,.T.);
#863=ORIENTED_EDGE('',*,*,#688,.F.);
#864=ORIENTED_EDGE('',*,*,#687,.F.);
#865=ORIENTED_EDGE('',*,*,#689,.T.);
#866=ORIENTED_EDGE('',*,*,#690,.T.);
#867=ORIENTED_EDGE('',*,*,#691,.F.);
#868=ORIENTED_EDGE('',*,*,#690,.F.);
#869=ORIENTED_EDGE('',*,*,#692,.T.);
#870=ORIENTED_EDGE('',*,*,#693,.T.);
#871=ORIENTED_EDGE('',*,*,#694,.F.);
#872=ORIENTED_EDGE('',*,*,#693,.F.);
#873=ORIENTED_EDGE('',*,*,#695,.F.);
#874=ORIENTED_EDGE('',*,*,#696,.F.);
#875=ORIENTED_EDGE('',*,*,#697,.F.);
#876=ORIENTED_EDGE('',*,*,#698,.F.);
#877=ORIENTED_EDGE('',*,*,#699,.F.);
#878=ORIENTED_EDGE('',*,*,#700,.T.);
#879=ORIENTED_EDGE('',*,*,#701,.F.);
#880=ORIENTED_EDGE('',*,*,#702,.F.);
#881=ORIENTED_EDGE('',*,*,#703,.F.);
#882=ORIENTED_EDGE('',*,*,#704,.F.);
#883=ORIENTED_EDGE('',*,*,#705,.F.);
#884=ORIENTED_EDGE('',*,*,#706,.T.);
#885=ORIENTED_EDGE('',*,*,#707,.T.);
#886=ORIENTED_EDGE('',*,*,#708,.T.);
#887=ORIENTED_EDGE('',*,*,#709,.F.);
#888=ORIENTED_EDGE('',*,*,#710,.F.);
#889=ORIENTED_EDGE('',*,*,#711,.F.);
#890=ORIENTED_EDGE('',*,*,#712,.F.);
#891=ORIENTED_EDGE('',*,*,#713,.F.);
#892=ORIENTED_EDGE('',*,*,#714,.T.);
#893=ORIENTED_EDGE('',*,*,#715,.F.);
#894=ORIENTED_EDGE('',*,*,#716,.F.);
#895=ORIENTED_EDGE('',*,*,#717,.F.);
#896=ORIENTED_EDGE('',*,*,#718,.T.);
#897=ORIENTED_EDGE('',*,*,#719,.F.);
#898=ORIENTED_EDGE('',*,*,#720,.T.);
#899=ORIENTED_EDGE('',*,*,#679,.T.);
#900=ORIENTED_EDGE('',*,*,#682,.T.);
#901=ORIENTED_EDGE('',*,*,#685,.T.);
#902=ORIENTED_EDGE('',*,*,#688,.T.);
#903=ORIENTED_EDGE('',*,*,#691,.T.);
#904=ORIENTED_EDGE('',*,*,#694,.T.);
#905=ORIENTED_EDGE('',*,*,#671,.F.);
#906=ORIENTED_EDGE('',*,*,#665,.F.);
#907=ORIENTED_EDGE('',*,*,#659,.F.);
#908=ORIENTED_EDGE('',*,*,#721,.F.);
#909=ORIENTED_EDGE('',*,*,#722,.F.);
#910=ORIENTED_EDGE('',*,*,#723,.F.);
#911=ORIENTED_EDGE('',*,*,#724,.F.);
#912=ORIENTED_EDGE('',*,*,#725,.F.);
#913=ORIENTED_EDGE('',*,*,#726,.F.);
#914=ORIENTED_EDGE('',*,*,#727,.F.);
#915=ORIENTED_EDGE('',*,*,#728,.F.);
#916=ORIENTED_EDGE('',*,*,#662,.F.);
#917=ORIENTED_EDGE('',*,*,#668,.F.);
#918=ORIENTED_EDGE('',*,*,#674,.F.);
#919=ORIENTED_EDGE('',*,*,#729,.F.);
#920=ORIENTED_EDGE('',*,*,#730,.F.);
#921=ORIENTED_EDGE('',*,*,#731,.F.);
#922=ORIENTED_EDGE('',*,*,#732,.F.);
#923=ORIENTED_EDGE('',*,*,#733,.F.);
#924=ORIENTED_EDGE('',*,*,#734,.F.);
#925=ORIENTED_EDGE('',*,*,#735,.F.);
#926=ORIENTED_EDGE('',*,*,#736,.F.);
#927=ORIENTED_EDGE('',*,*,#737,.F.);
#928=ORIENTED_EDGE('',*,*,#738,.F.);
#929=ORIENTED_EDGE('',*,*,#739,.F.);
#930=ORIENTED_EDGE('',*,*,#740,.T.);
#931=ORIENTED_EDGE('',*,*,#741,.F.);
#932=ORIENTED_EDGE('',*,*,#742,.T.);
#933=ORIENTED_EDGE('',*,*,#743,.F.);
#934=ORIENTED_EDGE('',*,*,#744,.F.);
#935=ORIENTED_EDGE('',*,*,#745,.F.);
#936=ORIENTED_EDGE('',*,*,#746,.F.);
#937=ORIENTED_EDGE('',*,*,#747,.F.);
#938=ORIENTED_EDGE('',*,*,#748,.T.);
#939=ORIENTED_EDGE('',*,*,#749,.F.);
#940=ORIENTED_EDGE('',*,*,#750,.T.);
#941=ORIENTED_EDGE('',*,*,#751,.F.);
#942=ORIENTED_EDGE('',*,*,#752,.F.);
#943=ORIENTED_EDGE('',*,*,#661,.T.);
#944=ORIENTED_EDGE('',*,*,#664,.T.);
#945=ORIENTED_EDGE('',*,*,#667,.T.);
#946=ORIENTED_EDGE('',*,*,#670,.T.);
#947=ORIENTED_EDGE('',*,*,#673,.T.);
#948=ORIENTED_EDGE('',*,*,#676,.T.);
#949=ORIENTED_EDGE('',*,*,#680,.F.);
#950=ORIENTED_EDGE('',*,*,#692,.F.);
#951=ORIENTED_EDGE('',*,*,#689,.F.);
#952=ORIENTED_EDGE('',*,*,#753,.F.);
#953=ORIENTED_EDGE('',*,*,#754,.F.);
#954=ORIENTED_EDGE('',*,*,#755,.F.);
#955=ORIENTED_EDGE('',*,*,#756,.F.);
#956=ORIENTED_EDGE('',*,*,#757,.F.);
#957=ORIENTED_EDGE('',*,*,#758,.F.);
#958=ORIENTED_EDGE('',*,*,#759,.F.);
#959=ORIENTED_EDGE('',*,*,#760,.F.);
#960=ORIENTED_EDGE('',*,*,#686,.F.);
#961=ORIENTED_EDGE('',*,*,#677,.F.);
#962=ORIENTED_EDGE('',*,*,#683,.F.);
#963=ORIENTED_EDGE('',*,*,#753,.T.);
#964=ORIENTED_EDGE('',*,*,#761,.T.);
#965=ORIENTED_EDGE('',*,*,#762,.T.);
#966=ORIENTED_EDGE('',*,*,#763,.F.);
#967=ORIENTED_EDGE('',*,*,#760,.T.);
#968=ORIENTED_EDGE('',*,*,#764,.T.);
#969=ORIENTED_EDGE('',*,*,#765,.T.);
#970=ORIENTED_EDGE('',*,*,#761,.F.);
#971=ORIENTED_EDGE('',*,*,#759,.T.);
#972=ORIENTED_EDGE('',*,*,#766,.T.);
#973=ORIENTED_EDGE('',*,*,#767,.T.);
#974=ORIENTED_EDGE('',*,*,#764,.F.);
#975=ORIENTED_EDGE('',*,*,#758,.T.);
#976=ORIENTED_EDGE('',*,*,#768,.T.);
#977=ORIENTED_EDGE('',*,*,#769,.T.);
#978=ORIENTED_EDGE('',*,*,#766,.F.);
#979=ORIENTED_EDGE('',*,*,#757,.T.);
#980=ORIENTED_EDGE('',*,*,#770,.T.);
#981=ORIENTED_EDGE('',*,*,#771,.T.);
#982=ORIENTED_EDGE('',*,*,#768,.F.);
#983=ORIENTED_EDGE('',*,*,#772,.T.);
#984=ORIENTED_EDGE('',*,*,#770,.F.);
#985=ORIENTED_EDGE('',*,*,#756,.T.);
#986=ORIENTED_EDGE('',*,*,#773,.T.);
#987=ORIENTED_EDGE('',*,*,#774,.T.);
#988=ORIENTED_EDGE('',*,*,#773,.F.);
#989=ORIENTED_EDGE('',*,*,#755,.T.);
#990=ORIENTED_EDGE('',*,*,#775,.T.);
#991=ORIENTED_EDGE('',*,*,#776,.T.);
#992=ORIENTED_EDGE('',*,*,#775,.F.);
#993=ORIENTED_EDGE('',*,*,#754,.T.);
#994=ORIENTED_EDGE('',*,*,#763,.T.);
#995=ORIENTED_EDGE('',*,*,#772,.F.);
#996=ORIENTED_EDGE('',*,*,#777,.T.);
#997=ORIENTED_EDGE('',*,*,#778,.F.);
#998=ORIENTED_EDGE('',*,*,#779,.T.);
#999=ORIENTED_EDGE('',*,*,#774,.F.);
#1000=ORIENTED_EDGE('',*,*,#780,.F.);
#1001=ORIENTED_EDGE('',*,*,#781,.F.);
#1002=ORIENTED_EDGE('',*,*,#777,.F.);
#1003=ORIENTED_EDGE('',*,*,#776,.F.);
#1004=ORIENTED_EDGE('',*,*,#782,.T.);
#1005=ORIENTED_EDGE('',*,*,#783,.F.);
#1006=ORIENTED_EDGE('',*,*,#780,.T.);
#1007=ORIENTED_EDGE('',*,*,#762,.F.);
#1008=ORIENTED_EDGE('',*,*,#784,.F.);
#1009=ORIENTED_EDGE('',*,*,#785,.F.);
#1010=ORIENTED_EDGE('',*,*,#782,.F.);
#1011=ORIENTED_EDGE('',*,*,#721,.T.);
#1012=ORIENTED_EDGE('',*,*,#786,.T.);
#1013=ORIENTED_EDGE('',*,*,#787,.T.);
#1014=ORIENTED_EDGE('',*,*,#788,.F.);
#1015=ORIENTED_EDGE('',*,*,#728,.T.);
#1016=ORIENTED_EDGE('',*,*,#789,.T.);
#1017=ORIENTED_EDGE('',*,*,#790,.T.);
#1018=ORIENTED_EDGE('',*,*,#786,.F.);
#1019=ORIENTED_EDGE('',*,*,#727,.T.);
#1020=ORIENTED_EDGE('',*,*,#791,.T.);
#1021=ORIENTED_EDGE('',*,*,#785,.T.);
#1022=ORIENTED_EDGE('',*,*,#789,.F.);
#1023=ORIENTED_EDGE('',*,*,#726,.T.);
#1024=ORIENTED_EDGE('',*,*,#792,.T.);
#1025=ORIENTED_EDGE('',*,*,#783,.T.);
#1026=ORIENTED_EDGE('',*,*,#791,.F.);
#1027=ORIENTED_EDGE('',*,*,#725,.T.);
#1028=ORIENTED_EDGE('',*,*,#793,.T.);
#1029=ORIENTED_EDGE('',*,*,#781,.T.);
#1030=ORIENTED_EDGE('',*,*,#792,.F.);
#1031=ORIENTED_EDGE('',*,*,#778,.T.);
#1032=ORIENTED_EDGE('',*,*,#793,.F.);
#1033=ORIENTED_EDGE('',*,*,#724,.T.);
#1034=ORIENTED_EDGE('',*,*,#794,.T.);
#1035=ORIENTED_EDGE('',*,*,#795,.T.);
#1036=ORIENTED_EDGE('',*,*,#794,.F.);
#1037=ORIENTED_EDGE('',*,*,#723,.T.);
#1038=ORIENTED_EDGE('',*,*,#796,.T.);
#1039=ORIENTED_EDGE('',*,*,#797,.T.);
#1040=ORIENTED_EDGE('',*,*,#796,.F.);
#1041=ORIENTED_EDGE('',*,*,#722,.T.);
#1042=ORIENTED_EDGE('',*,*,#788,.T.);
#1043=ORIENTED_EDGE('',*,*,#771,.F.);
#1044=ORIENTED_EDGE('',*,*,#779,.F.);
#1045=ORIENTED_EDGE('',*,*,#795,.F.);
#1046=ORIENTED_EDGE('',*,*,#798,.F.);
#1047=ORIENTED_EDGE('',*,*,#769,.F.);
#1048=ORIENTED_EDGE('',*,*,#798,.T.);
#1049=ORIENTED_EDGE('',*,*,#797,.F.);
#1050=ORIENTED_EDGE('',*,*,#799,.T.);
#1051=ORIENTED_EDGE('',*,*,#767,.F.);
#1052=ORIENTED_EDGE('',*,*,#799,.F.);
#1053=ORIENTED_EDGE('',*,*,#787,.F.);
#1054=ORIENTED_EDGE('',*,*,#800,.F.);
#1055=ORIENTED_EDGE('',*,*,#765,.F.);
#1056=ORIENTED_EDGE('',*,*,#800,.T.);
#1057=ORIENTED_EDGE('',*,*,#790,.F.);
#1058=ORIENTED_EDGE('',*,*,#784,.T.);
#1059=ORIENTED_EDGE('',*,*,#729,.T.);
#1060=ORIENTED_EDGE('',*,*,#801,.T.);
#1061=ORIENTED_EDGE('',*,*,#695,.T.);
#1062=ORIENTED_EDGE('',*,*,#802,.T.);
#1063=ORIENTED_EDGE('',*,*,#802,.F.);
#1064=ORIENTED_EDGE('',*,*,#720,.F.);
#1065=ORIENTED_EDGE('',*,*,#803,.F.);
#1066=ORIENTED_EDGE('',*,*,#730,.T.);
#1067=ORIENTED_EDGE('',*,*,#697,.T.);
#1068=ORIENTED_EDGE('',*,*,#804,.T.);
#1069=ORIENTED_EDGE('',*,*,#751,.T.);
#1070=ORIENTED_EDGE('',*,*,#805,.T.);
#1071=ORIENTED_EDGE('',*,*,#805,.F.);
#1072=ORIENTED_EDGE('',*,*,#750,.F.);
#1073=ORIENTED_EDGE('',*,*,#806,.F.);
#1074=ORIENTED_EDGE('',*,*,#698,.T.);
#1075=ORIENTED_EDGE('',*,*,#747,.T.);
#1076=ORIENTED_EDGE('',*,*,#807,.T.);
#1077=ORIENTED_EDGE('',*,*,#701,.T.);
#1078=ORIENTED_EDGE('',*,*,#808,.T.);
#1079=ORIENTED_EDGE('',*,*,#808,.F.);
#1080=ORIENTED_EDGE('',*,*,#700,.F.);
#1081=ORIENTED_EDGE('',*,*,#809,.F.);
#1082=ORIENTED_EDGE('',*,*,#748,.F.);
#1083=ORIENTED_EDGE('',*,*,#703,.T.);
#1084=ORIENTED_EDGE('',*,*,#810,.T.);
#1085=ORIENTED_EDGE('',*,*,#745,.T.);
#1086=ORIENTED_EDGE('',*,*,#811,.T.);
#1087=ORIENTED_EDGE('',*,*,#811,.F.);
#1088=ORIENTED_EDGE('',*,*,#744,.T.);
#1089=ORIENTED_EDGE('',*,*,#812,.F.);
#1090=ORIENTED_EDGE('',*,*,#704,.T.);
#1091=ORIENTED_EDGE('',*,*,#741,.T.);
#1092=ORIENTED_EDGE('',*,*,#813,.T.);
#1093=ORIENTED_EDGE('',*,*,#709,.T.);
#1094=ORIENTED_EDGE('',*,*,#814,.T.);
#1095=ORIENTED_EDGE('',*,*,#814,.F.);
#1096=ORIENTED_EDGE('',*,*,#708,.F.);
#1097=ORIENTED_EDGE('',*,*,#707,.F.);
#1098=ORIENTED_EDGE('',*,*,#706,.F.);
#1099=ORIENTED_EDGE('',*,*,#815,.F.);
#1100=ORIENTED_EDGE('',*,*,#742,.F.);
#1101=ORIENTED_EDGE('',*,*,#739,.T.);
#1102=ORIENTED_EDGE('',*,*,#816,.T.);
#1103=ORIENTED_EDGE('',*,*,#711,.T.);
#1104=ORIENTED_EDGE('',*,*,#817,.T.);
#1105=ORIENTED_EDGE('',*,*,#816,.F.);
#1106=ORIENTED_EDGE('',*,*,#738,.T.);
#1107=ORIENTED_EDGE('',*,*,#818,.F.);
#1108=ORIENTED_EDGE('',*,*,#712,.T.);
#1109=ORIENTED_EDGE('',*,*,#735,.T.);
#1110=ORIENTED_EDGE('',*,*,#819,.T.);
#1111=ORIENTED_EDGE('',*,*,#715,.T.);
#1112=ORIENTED_EDGE('',*,*,#820,.T.);
#1113=ORIENTED_EDGE('',*,*,#820,.F.);
#1114=ORIENTED_EDGE('',*,*,#714,.F.);
#1115=ORIENTED_EDGE('',*,*,#821,.F.);
#1116=ORIENTED_EDGE('',*,*,#736,.T.);
#1117=ORIENTED_EDGE('',*,*,#717,.T.);
#1118=ORIENTED_EDGE('',*,*,#822,.T.);
#1119=ORIENTED_EDGE('',*,*,#733,.T.);
#1120=ORIENTED_EDGE('',*,*,#823,.T.);
#1121=ORIENTED_EDGE('',*,*,#823,.F.);
#1122=ORIENTED_EDGE('',*,*,#732,.T.);
#1123=ORIENTED_EDGE('',*,*,#824,.F.);
#1124=ORIENTED_EDGE('',*,*,#718,.F.);
#1125=ORIENTED_EDGE('',*,*,#801,.F.);
#1126=ORIENTED_EDGE('',*,*,#752,.T.);
#1127=ORIENTED_EDGE('',*,*,#804,.F.);
#1128=ORIENTED_EDGE('',*,*,#696,.T.);
#1129=ORIENTED_EDGE('',*,*,#819,.F.);
#1130=ORIENTED_EDGE('',*,*,#734,.T.);
#1131=ORIENTED_EDGE('',*,*,#822,.F.);
#1132=ORIENTED_EDGE('',*,*,#716,.T.);
#1133=ORIENTED_EDGE('',*,*,#813,.F.);
#1134=ORIENTED_EDGE('',*,*,#740,.F.);
#1135=ORIENTED_EDGE('',*,*,#817,.F.);
#1136=ORIENTED_EDGE('',*,*,#710,.T.);
#1137=ORIENTED_EDGE('',*,*,#807,.F.);
#1138=ORIENTED_EDGE('',*,*,#746,.T.);
#1139=ORIENTED_EDGE('',*,*,#810,.F.);
#1140=ORIENTED_EDGE('',*,*,#702,.T.);
#1141=ORIENTED_EDGE('',*,*,#699,.T.);
#1142=ORIENTED_EDGE('',*,*,#806,.T.);
#1143=ORIENTED_EDGE('',*,*,#749,.T.);
#1144=ORIENTED_EDGE('',*,*,#809,.T.);
#1145=ORIENTED_EDGE('',*,*,#705,.T.);
#1146=ORIENTED_EDGE('',*,*,#812,.T.);
#1147=ORIENTED_EDGE('',*,*,#743,.T.);
#1148=ORIENTED_EDGE('',*,*,#815,.T.);
#1149=ORIENTED_EDGE('',*,*,#713,.T.);
#1150=ORIENTED_EDGE('',*,*,#818,.T.);
#1151=ORIENTED_EDGE('',*,*,#737,.T.);
#1152=ORIENTED_EDGE('',*,*,#821,.T.);
#1153=ORIENTED_EDGE('',*,*,#731,.T.);
#1154=ORIENTED_EDGE('',*,*,#803,.T.);
#1155=ORIENTED_EDGE('',*,*,#719,.T.);
#1156=ORIENTED_EDGE('',*,*,#824,.T.);
#1157=CYLINDRICAL_SURFACE('',#1246,2.04999999999999);
#1158=CYLINDRICAL_SURFACE('',#1249,2.05000000000001);
#1159=CYLINDRICAL_SURFACE('',#1252,2.05);
#1160=CYLINDRICAL_SURFACE('',#1255,2.05);
#1161=CYLINDRICAL_SURFACE('',#1258,2.05000000000001);
#1162=CYLINDRICAL_SURFACE('',#1261,2.05);
#1163=CYLINDRICAL_SURFACE('',#1264,2.05000000000001);
#1164=CYLINDRICAL_SURFACE('',#1267,2.05);
#1165=CYLINDRICAL_SURFACE('',#1270,2.05);
#1166=CYLINDRICAL_SURFACE('',#1273,2.05);
#1167=CYLINDRICAL_SURFACE('',#1276,2.05);
#1168=CYLINDRICAL_SURFACE('',#1279,2.05000000000001);
#1169=ADVANCED_FACE('',(#95),#1157,.F.);
#1170=ADVANCED_FACE('',(#96),#1158,.F.);
#1171=ADVANCED_FACE('',(#97),#1159,.F.);
#1172=ADVANCED_FACE('',(#98),#1160,.F.);
#1173=ADVANCED_FACE('',(#99),#1161,.F.);
#1174=ADVANCED_FACE('',(#100),#1162,.F.);
#1175=ADVANCED_FACE('',(#101),#1163,.F.);
#1176=ADVANCED_FACE('',(#102),#1164,.F.);
#1177=ADVANCED_FACE('',(#103),#1165,.F.);
#1178=ADVANCED_FACE('',(#104),#1166,.F.);
#1179=ADVANCED_FACE('',(#105),#1167,.F.);
#1180=ADVANCED_FACE('',(#106),#1168,.F.);
#1181=ADVANCED_FACE('',(#107,#19,#20,#21,#22,#23,#24,#25,#26,#27,#28,#29,
#30,#31),#45,.T.);
#1182=ADVANCED_FACE('',(#108,#32,#33,#34,#35,#36,#37,#38,#39,#40,#41,#42,
#43,#44),#46,.F.);
#1183=ADVANCED_FACE('',(#109),#47,.T.);
#1184=ADVANCED_FACE('',(#110),#48,.T.);
#1185=ADVANCED_FACE('',(#111),#49,.T.);
#1186=ADVANCED_FACE('',(#112),#50,.T.);
#1187=ADVANCED_FACE('',(#113),#51,.T.);
#1188=ADVANCED_FACE('',(#114),#52,.T.);
#1189=ADVANCED_FACE('',(#115),#53,.T.);
#1190=ADVANCED_FACE('',(#116),#54,.T.);
#1191=ADVANCED_FACE('',(#117),#55,.T.);
#1192=ADVANCED_FACE('',(#118),#56,.F.);
#1193=ADVANCED_FACE('',(#119),#57,.T.);
#1194=ADVANCED_FACE('',(#120),#58,.F.);
#1195=ADVANCED_FACE('',(#121),#59,.T.);
#1196=ADVANCED_FACE('',(#122),#60,.T.);
#1197=ADVANCED_FACE('',(#123),#61,.T.);
#1198=ADVANCED_FACE('',(#124),#62,.T.);
#1199=ADVANCED_FACE('',(#125),#63,.T.);
#1200=ADVANCED_FACE('',(#126),#64,.T.);
#1201=ADVANCED_FACE('',(#127),#65,.T.);
#1202=ADVANCED_FACE('',(#128),#66,.T.);
#1203=ADVANCED_FACE('',(#129),#67,.F.);
#1204=ADVANCED_FACE('',(#130),#68,.T.);
#1205=ADVANCED_FACE('',(#131),#69,.F.);
#1206=ADVANCED_FACE('',(#132),#70,.T.);
#1207=ADVANCED_FACE('',(#133),#71,.T.);
#1208=ADVANCED_FACE('',(#134),#72,.T.);
#1209=ADVANCED_FACE('',(#135),#73,.T.);
#1210=ADVANCED_FACE('',(#136),#74,.T.);
#1211=ADVANCED_FACE('',(#137),#75,.T.);
#1212=ADVANCED_FACE('',(#138),#76,.T.);
#1213=ADVANCED_FACE('',(#139),#77,.T.);
#1214=ADVANCED_FACE('',(#140),#78,.T.);
#1215=ADVANCED_FACE('',(#141),#79,.T.);
#1216=ADVANCED_FACE('',(#142),#80,.F.);
#1217=ADVANCED_FACE('',(#143),#81,.T.);
#1218=ADVANCED_FACE('',(#144),#82,.T.);
#1219=ADVANCED_FACE('',(#145),#83,.T.);
#1220=ADVANCED_FACE('',(#146),#84,.T.);
#1221=ADVANCED_FACE('',(#147),#85,.T.);
#1222=ADVANCED_FACE('',(#148),#86,.T.);
#1223=ADVANCED_FACE('',(#149),#87,.T.);
#1224=ADVANCED_FACE('',(#150),#88,.T.);
#1225=ADVANCED_FACE('',(#151),#89,.T.);
#1226=ADVANCED_FACE('',(#152),#90,.T.);
#1227=ADVANCED_FACE('',(#153),#91,.T.);
#1228=ADVANCED_FACE('',(#154),#92,.T.);
#1229=ADVANCED_FACE('',(#155),#93,.T.);
#1230=ADVANCED_FACE('',(#156),#94,.T.);
#1231=CLOSED_SHELL('',(#1169,#1170,#1171,#1172,#1173,#1174,#1175,#1176,
#1177,#1178,#1179,#1180,#1181,#1182,#1183,#1184,#1185,#1186,#1187,#1188,
#1189,#1190,#1191,#1192,#1193,#1194,#1195,#1196,#1197,#1198,#1199,#1200,
#1201,#1202,#1203,#1204,#1205,#1206,#1207,#1208,#1209,#1210,#1211,#1212,
#1213,#1214,#1215,#1216,#1217,#1218,#1219,#1220,#1221,#1222,#1223,#1224,
#1225,#1226,#1227,#1228,#1229,#1230));
#1232=DERIVED_UNIT_ELEMENT(#1234,1.);
#1233=DERIVED_UNIT_ELEMENT(#1997,-3.);
#1234=(
MASS_UNIT()
NAMED_UNIT(*)
SI_UNIT(.KILO.,.GRAM.)
);
#1235=DERIVED_UNIT((#1232,#1233));
#1236=MEASURE_REPRESENTATION_ITEM('density measure',
POSITIVE_RATIO_MEASURE(7850.),#1235);
#1237=PROPERTY_DEFINITION_REPRESENTATION(#1242,#1239);
#1238=PROPERTY_DEFINITION_REPRESENTATION(#1243,#1240);
#1239=REPRESENTATION('material name',(#1241),#1994);
#1240=REPRESENTATION('density',(#1236),#1994);
#1241=DESCRIPTIVE_REPRESENTATION_ITEM('Steel','Steel');
#1242=PROPERTY_DEFINITION('material property','material name',#2009);
#1243=PROPERTY_DEFINITION('material property','density of part',#2009);
#1244=AXIS2_PLACEMENT_3D('',#1653,#1333,#1334);
#1245=AXIS2_PLACEMENT_3D('',#1654,#1335,#1336);
#1246=AXIS2_PLACEMENT_3D('',#1655,#1337,#1338);
#1247=AXIS2_PLACEMENT_3D('',#1657,#1339,#1340);
#1248=AXIS2_PLACEMENT_3D('',#1660,#1342,#1343);
#1249=AXIS2_PLACEMENT_3D('',#1661,#1344,#1345);
#1250=AXIS2_PLACEMENT_3D('',#1663,#1346,#1347);
#1251=AXIS2_PLACEMENT_3D('',#1666,#1349,#1350);
#1252=AXIS2_PLACEMENT_3D('',#1667,#1351,#1352);
#1253=AXIS2_PLACEMENT_3D('',#1669,#1353,#1354);
#1254=AXIS2_PLACEMENT_3D('',#1672,#1356,#1357);
#1255=AXIS2_PLACEMENT_3D('',#1673,#1358,#1359);
#1256=AXIS2_PLACEMENT_3D('',#1675,#1360,#1361);
#1257=AXIS2_PLACEMENT_3D('',#1678,#1363,#1364);
#1258=AXIS2_PLACEMENT_3D('',#1679,#1365,#1366);
#1259=AXIS2_PLACEMENT_3D('',#1681,#1367,#1368);
#1260=AXIS2_PLACEMENT_3D('',#1684,#1370,#1371);
#1261=AXIS2_PLACEMENT_3D('',#1685,#1372,#1373);
#1262=AXIS2_PLACEMENT_3D('',#1687,#1374,#1375);
#1263=AXIS2_PLACEMENT_3D('',#1690,#1377,#1378);
#1264=AXIS2_PLACEMENT_3D('',#1691,#1379,#1380);
#1265=AXIS2_PLACEMENT_3D('',#1693,#1381,#1382);
#1266=AXIS2_PLACEMENT_3D('',#1696,#1384,#1385);
#1267=AXIS2_PLACEMENT_3D('',#1697,#1386,#1387);
#1268=AXIS2_PLACEMENT_3D('',#1699,#1388,#1389);
#1269=AXIS2_PLACEMENT_3D('',#1702,#1391,#1392);
#1270=AXIS2_PLACEMENT_3D('',#1703,#1393,#1394);
#1271=AXIS2_PLACEMENT_3D('',#1705,#1395,#1396);
#1272=AXIS2_PLACEMENT_3D('',#1708,#1398,#1399);
#1273=AXIS2_PLACEMENT_3D('',#1709,#1400,#1401);
#1274=AXIS2_PLACEMENT_3D('',#1711,#1402,#1403);
#1275=AXIS2_PLACEMENT_3D('',#1714,#1405,#1406);
#1276=AXIS2_PLACEMENT_3D('',#1715,#1407,#1408);
#1277=AXIS2_PLACEMENT_3D('',#1717,#1409,#1410);
#1278=AXIS2_PLACEMENT_3D('',#1720,#1412,#1413);
#1279=AXIS2_PLACEMENT_3D('',#1721,#1414,#1415);
#1280=AXIS2_PLACEMENT_3D('',#1723,#1416,#1417);
#1281=AXIS2_PLACEMENT_3D('',#1726,#1419,#1420);
#1282=AXIS2_PLACEMENT_3D('',#1727,#1421,#1422);
#1283=AXIS2_PLACEMENT_3D('',#1796,#1457,#1458);
#1284=AXIS2_PLACEMENT_3D('',#1861,#1491,#1492);
#1285=AXIS2_PLACEMENT_3D('',#1867,#1496,#1497);
#1286=AXIS2_PLACEMENT_3D('',#1871,#1500,#1501);
#1287=AXIS2_PLACEMENT_3D('',#1875,#1504,#1505);
#1288=AXIS2_PLACEMENT_3D('',#1879,#1508,#1509);
#1289=AXIS2_PLACEMENT_3D('',#1883,#1512,#1513);
#1290=AXIS2_PLACEMENT_3D('',#1887,#1516,#1517);
#1291=AXIS2_PLACEMENT_3D('',#1891,#1520,#1521);
#1292=AXIS2_PLACEMENT_3D('',#1893,#1523,#1524);
#1293=AXIS2_PLACEMENT_3D('',#1899,#1528,#1529);
#1294=AXIS2_PLACEMENT_3D('',#1903,#1532,#1533);
#1295=AXIS2_PLACEMENT_3D('',#1907,#1536,#1537);
#1296=AXIS2_PLACEMENT_3D('',#1911,#1540,#1541);
#1297=AXIS2_PLACEMENT_3D('',#1917,#1545,#1546);
#1298=AXIS2_PLACEMENT_3D('',#1920,#1549,#1550);
#1299=AXIS2_PLACEMENT_3D('',#1922,#1552,#1553);
#1300=AXIS2_PLACEMENT_3D('',#1924,#1555,#1556);
#1301=AXIS2_PLACEMENT_3D('',#1926,#1558,#1559);
#1302=AXIS2_PLACEMENT_3D('',#1928,#1561,#1562);
#1303=AXIS2_PLACEMENT_3D('',#1932,#1565,#1566);
#1304=AXIS2_PLACEMENT_3D('',#1934,#1568,#1569);
#1305=AXIS2_PLACEMENT_3D('',#1936,#1571,#1572);
#1306=AXIS2_PLACEMENT_3D('',#1938,#1574,#1575);
#1307=AXIS2_PLACEMENT_3D('',#1940,#1577,#1578);
#1308=AXIS2_PLACEMENT_3D('',#1941,#1579,#1580);
#1309=AXIS2_PLACEMENT_3D('',#1944,#1583,#1584);
#1310=AXIS2_PLACEMENT_3D('',#1946,#1586,#1587);
#1311=AXIS2_PLACEMENT_3D('',#1949,#1590,#1591);
#1312=AXIS2_PLACEMENT_3D('',#1951,#1593,#1594);
#1313=AXIS2_PLACEMENT_3D('',#1954,#1597,#1598);
#1314=AXIS2_PLACEMENT_3D('',#1956,#1600,#1601);
#1315=AXIS2_PLACEMENT_3D('',#1959,#1604,#1605);
#1316=AXIS2_PLACEMENT_3D('',#1961,#1607,#1608);
#1317=AXIS2_PLACEMENT_3D('',#1964,#1611,#1612);
#1318=AXIS2_PLACEMENT_3D('',#1966,#1614,#1615);
#1319=AXIS2_PLACEMENT_3D('',#1969,#1618,#1619);
#1320=AXIS2_PLACEMENT_3D('',#1971,#1621,#1622);
#1321=AXIS2_PLACEMENT_3D('',#1974,#1625,#1626);
#1322=AXIS2_PLACEMENT_3D('',#1976,#1628,#1629);
#1323=AXIS2_PLACEMENT_3D('',#1979,#1632,#1633);
#1324=AXIS2_PLACEMENT_3D('',#1981,#1635,#1636);
#1325=AXIS2_PLACEMENT_3D('',#1982,#1637,#1638);
#1326=AXIS2_PLACEMENT_3D('',#1983,#1639,#1640);
#1327=AXIS2_PLACEMENT_3D('',#1984,#1641,#1642);
#1328=AXIS2_PLACEMENT_3D('',#1985,#1643,#1644);
#1329=AXIS2_PLACEMENT_3D('',#1986,#1645,#1646);
#1330=AXIS2_PLACEMENT_3D('',#1987,#1647,#1648);
#1331=AXIS2_PLACEMENT_3D('',#1988,#1649,#1650);
#1332=AXIS2_PLACEMENT_3D('',#1989,#1651,#1652);
#1333=DIRECTION('axis',(0.,0.,1.));
#1334=DIRECTION('refdir',(1.,0.,0.));
#1335=DIRECTION('axis',(0.,0.,1.));
#1336=DIRECTION('refdir',(1.,0.,0.));
#1337=DIRECTION('center_axis',(1.40413558916231E-9,1.,0.));
#1338=DIRECTION('ref_axis',(1.,-1.40413558916231E-9,0.));
#1339=DIRECTION('center_axis',(0.,-1.,0.));
#1340=DIRECTION('ref_axis',(1.,0.,0.));
#1341=DIRECTION('',(1.40413558916231E-9,1.,0.));
#1342=DIRECTION('center_axis',(0.,-1.,0.));
#1343=DIRECTION('ref_axis',(1.,0.,0.));
#1344=DIRECTION('center_axis',(1.40413558916231E-9,1.,0.));
#1345=DIRECTION('ref_axis',(1.,-1.40413558916231E-9,0.));
#1346=DIRECTION('center_axis',(0.,-1.,0.));
#1347=DIRECTION('ref_axis',(1.,0.,0.));
#1348=DIRECTION('',(1.40413558916231E-9,1.,0.));
#1349=DIRECTION('center_axis',(0.,-1.,0.));
#1350=DIRECTION('ref_axis',(1.,0.,0.));
#1351=DIRECTION('center_axis',(1.40413558916231E-9,1.,0.));
#1352=DIRECTION('ref_axis',(1.,-1.40413558916231E-9,0.));
#1353=DIRECTION('center_axis',(0.,-1.,0.));
#1354=DIRECTION('ref_axis',(1.,0.,0.));
#1355=DIRECTION('',(1.40413558916231E-9,1.,0.));
#1356=DIRECTION('center_axis',(0.,-1.,0.));
#1357=DIRECTION('ref_axis',(1.,0.,0.));
#1358=DIRECTION('center_axis',(1.40413558916231E-9,1.,0.));
#1359=DIRECTION('ref_axis',(1.,-1.40413558916231E-9,0.));
#1360=DIRECTION('center_axis',(0.,-1.,0.));
#1361=DIRECTION('ref_axis',(1.,0.,0.));
#1362=DIRECTION('',(1.40413558916231E-9,1.,0.));
#1363=DIRECTION('center_axis',(0.,-1.,0.));
#1364=DIRECTION('ref_axis',(1.,0.,0.));
#1365=DIRECTION('center_axis',(1.40413558916231E-9,1.,0.));
#1366=DIRECTION('ref_axis',(1.,-1.40413558916231E-9,0.));
#1367=DIRECTION('center_axis',(0.,-1.,0.));
#1368=DIRECTION('ref_axis',(1.,0.,0.));
#1369=DIRECTION('',(1.40413558916231E-9,1.,0.));
#1370=DIRECTION('center_axis',(0.,-1.,0.));
#1371=DIRECTION('ref_axis',(1.,0.,0.));
#1372=DIRECTION('center_axis',(1.40413558916231E-9,1.,0.));
#1373=DIRECTION('ref_axis',(1.,-1.40413558916231E-9,0.));
#1374=DIRECTION('center_axis',(0.,-1.,0.));
#1375=DIRECTION('ref_axis',(1.,0.,0.));
#1376=DIRECTION('',(1.40413558916231E-9,1.,0.));
#1377=DIRECTION('center_axis',(0.,-1.,0.));
#1378=DIRECTION('ref_axis',(1.,0.,0.));
#1379=DIRECTION('center_axis',(-1.40413563392937E-9,-1.,0.));
#1380=DIRECTION('ref_axis',(-1.,1.40413563392937E-9,0.));
#1381=DIRECTION('center_axis',(0.,1.,0.));
#1382=DIRECTION('ref_axis',(-1.,0.,0.));
#1383=DIRECTION('',(-1.40413563392937E-9,-1.,0.));
#1384=DIRECTION('center_axis',(0.,1.,0.));
#1385=DIRECTION('ref_axis',(-1.,0.,0.));
#1386=DIRECTION('center_axis',(-1.40413563392937E-9,-1.,0.));
#1387=DIRECTION('ref_axis',(-1.,1.40413563392937E-9,0.));
#1388=DIRECTION('center_axis',(0.,1.,0.));
#1389=DIRECTION('ref_axis',(-1.,0.,0.));
#1390=DIRECTION('',(-1.40413563392937E-9,-1.,0.));
#1391=DIRECTION('center_axis',(0.,1.,0.));
#1392=DIRECTION('ref_axis',(-1.,0.,0.));
#1393=DIRECTION('center_axis',(-1.40413563392937E-9,-1.,0.));
#1394=DIRECTION('ref_axis',(-1.,1.40413563392937E-9,0.));
#1395=DIRECTION('center_axis',(0.,1.,0.));
#1396=DIRECTION('ref_axis',(-1.,0.,0.));
#1397=DIRECTION('',(-1.40413563392937E-9,-1.,0.));
#1398=DIRECTION('center_axis',(0.,1.,0.));
#1399=DIRECTION('ref_axis',(-1.,0.,0.));
#1400=DIRECTION('center_axis',(-1.40413558916231E-9,-1.,0.));
#1401=DIRECTION('ref_axis',(-1.,1.40413558916231E-9,0.));
#1402=DIRECTION('center_axis',(0.,1.,0.));
#1403=DIRECTION('ref_axis',(-1.,0.,0.));
#1404=DIRECTION('',(-1.40413558916231E-9,-1.,0.));
#1405=DIRECTION('center_axis',(0.,1.,0.));
#1406=DIRECTION('ref_axis',(-1.,0.,0.));
#1407=DIRECTION('center_axis',(-1.40413558916231E-9,-1.,0.));
#1408=DIRECTION('ref_axis',(-1.,1.40413558916231E-9,0.));
#1409=DIRECTION('center_axis',(0.,1.,0.));
#1410=DIRECTION('ref_axis',(-1.,0.,0.));
#1411=DIRECTION('',(-1.40413558916231E-9,-1.,0.));
#1412=DIRECTION('center_axis',(0.,1.,0.));
#1413=DIRECTION('ref_axis',(-1.,0.,0.));
#1414=DIRECTION('center_axis',(-1.40413558916231E-9,-1.,0.));
#1415=DIRECTION('ref_axis',(-1.,1.40413558916231E-9,0.));
#1416=DIRECTION('center_axis',(0.,1.,0.));
#1417=DIRECTION('ref_axis',(-1.,0.,0.));
#1418=DIRECTION('',(-1.40413558916231E-9,-1.,0.));
#1419=DIRECTION('center_axis',(0.,1.,0.));
#1420=DIRECTION('ref_axis',(-1.,0.,0.));
#1421=DIRECTION('center_axis',(0.,-1.,0.));
#1422=DIRECTION('ref_axis',(0.,0.,1.));
#1423=DIRECTION('',(0.707106781186541,0.,0.707106781186554));
#1424=DIRECTION('',(0.,0.,1.));
#1425=DIRECTION('',(-0.707106781186548,0.,0.707106781186548));
#1426=DIRECTION('',(-1.,0.,0.));
#1427=DIRECTION('',(-0.707106932120983,0.,0.70710663025208));
#1428=DIRECTION('',(0.,0.,-1.));
#1429=DIRECTION('',(-0.707106781186548,0.,0.707106781186548));
#1430=DIRECTION('',(-1.,0.,0.));
#1431=DIRECTION('',(-0.707106781186549,0.,-0.707106781186546));
#1432=DIRECTION('',(0.,0.,-1.));
#1433=DIRECTION('',(-0.707106781186548,0.,-0.707106781186547));
#1434=DIRECTION('',(1.,0.,0.));
#1435=DIRECTION('',(1.,0.,0.));
#1436=DIRECTION('',(1.,0.,0.));
#1437=DIRECTION('',(-0.707106781186549,0.,-0.707106781186546));
#1438=DIRECTION('',(0.,0.,-1.));
#1439=DIRECTION('',(0.707106781186542,0.,-0.707106781186553));
#1440=DIRECTION('',(1.,0.,0.));
#1441=DIRECTION('',(0.707106781186548,0.,-0.707106781186548));
#1442=DIRECTION('',(0.,0.,1.));
#1443=DIRECTION('',(0.707106781186543,0.,-0.707106781186552));
#1444=DIRECTION('',(1.,0.,0.));
#1445=DIRECTION('',(0.707106781186544,0.,0.707106781186551));
#1446=DIRECTION('',(0.,0.,-1.));
#1447=DIRECTION('',(0.707106781186563,0.,0.707106781186532));
#1448=DIRECTION('',(-1.,0.,0.));
#1449=DIRECTION('',(-1.,0.,0.));
#1450=DIRECTION('',(-0.707106781186551,0.,0.707106781186544));
#1451=DIRECTION('',(0.,0.,1.));
#1452=DIRECTION('',(0.707106781186549,0.,0.707106781186546));
#1453=DIRECTION('',(1.,0.,0.));
#1454=DIRECTION('',(0.707106781186548,0.,-0.707106781186548));
#1455=DIRECTION('',(0.,0.,-1.));
#1456=DIRECTION('',(-0.707106781186548,0.,-0.707106781186548));
#1457=DIRECTION('center_axis',(0.,-1.,0.));
#1458=DIRECTION('ref_axis',(0.,0.,-1.));
#1459=DIRECTION('',(-0.707106781186541,0.,-0.707106781186554));
#1460=DIRECTION('',(-1.,0.,0.));
#1461=DIRECTION('',(-0.707106781186563,0.,-0.707106781186532));
#1462=DIRECTION('',(0.,0.,-1.));
#1463=DIRECTION('',(-0.707106781186544,0.,-0.707106781186551));
#1464=DIRECTION('',(-1.,0.,0.));
#1465=DIRECTION('',(-0.707106781186543,0.,0.707106781186552));
#1466=DIRECTION('',(0.,0.,1.));
#1467=DIRECTION('',(-0.707106781186548,0.,0.707106781186548));
#1468=DIRECTION('',(-1.,0.,0.));
#1469=DIRECTION('',(-0.707106781186542,0.,0.707106781186553));
#1470=DIRECTION('',(0.,0.,-1.));
#1471=DIRECTION('',(0.707106781186549,0.,0.707106781186546));
#1472=DIRECTION('',(-1.,0.,0.));
#1473=DIRECTION('',(0.707106781186548,0.,0.707106781186547));
#1474=DIRECTION('',(0.,0.,1.));
#1475=DIRECTION('',(0.707106781186549,0.,0.707106781186546));
#1476=DIRECTION('',(1.,0.,0.));
#1477=DIRECTION('',(0.707106781186548,0.,-0.707106781186548));
#1478=DIRECTION('',(0.,0.,1.));
#1479=DIRECTION('',(0.707106932120983,0.,-0.70710663025208));
#1480=DIRECTION('',(-1.,0.,0.));
#1481=DIRECTION('',(0.707106781186548,0.,-0.707106781186548));
#1482=DIRECTION('',(0.,0.,-1.));
#1483=DIRECTION('',(0.,0.,1.));
#1484=DIRECTION('',(-0.707106781186548,0.,0.707106781186548));
#1485=DIRECTION('',(-1.,0.,0.));
#1486=DIRECTION('',(-0.707106781186549,0.,-0.707106781186546));
#1487=DIRECTION('',(0.,0.,-1.));
#1488=DIRECTION('',(0.707106781186551,0.,-0.707106781186544));
#1489=DIRECTION('',(1.,0.,0.));
#1490=DIRECTION('',(0.707106781186548,0.,0.707106781186548));
#1491=DIRECTION('center_axis',(0.707106781186554,0.707106781186541,0.));
#1492=DIRECTION('ref_axis',(0.,0.,-1.));
#1493=DIRECTION('',(0.678598344545823,-0.678598344545847,-0.281084637714877));
#1494=DIRECTION('',(0.,0.,-1.));
#1495=DIRECTION('',(0.678598344545848,-0.67859834454586,0.281084637714786));
#1496=DIRECTION('center_axis',(0.499999999999992,0.70710678118656,-0.499999999999992));
#1497=DIRECTION('ref_axis',(-0.707106781186547,0.,-0.707106781186547));
#1498=DIRECTION('',(0.281084637714835,-0.678598344545832,-0.678598344545856));
#1499=DIRECTION('',(-0.707106781186548,0.,-0.707106781186548));
#1500=DIRECTION('center_axis',(0.,0.70710678118656,-0.707106781186535));
#1501=DIRECTION('ref_axis',(-1.,0.,0.));
#1502=DIRECTION('',(-0.281084637714807,-0.678598344545838,-0.678598344545862));
#1503=DIRECTION('',(-1.,0.,0.));
#1504=DIRECTION('center_axis',(-0.499999999999992,0.707106781186555,-0.499999999999997));
#1505=DIRECTION('ref_axis',(-0.707106781186551,0.,0.707106781186544));
#1506=DIRECTION('',(-0.678598344545834,-0.678598344545846,-0.281084637714853));
#1507=DIRECTION('',(-0.707106781186551,0.,0.707106781186544));
#1508=DIRECTION('center_axis',(-0.707106781186554,0.707106781186541,0.));
#1509=DIRECTION('ref_axis',(0.,0.,1.));
#1510=DIRECTION('',(-0.67859834454584,-0.678598344545858,0.281084637714809));
#1511=DIRECTION('',(0.,0.,1.));
#1512=DIRECTION('center_axis',(-0.500000000000014,0.707106781186526,0.500000000000016));
#1513=DIRECTION('ref_axis',(0.707106781186549,0.,0.707106781186546));
#1514=DIRECTION('',(0.707106781186549,0.,0.707106781186546));
#1515=DIRECTION('',(-0.281084637714774,-0.678598344545845,0.678598344545869));
#1516=DIRECTION('center_axis',(0.,0.70710678118656,0.707106781186535));
#1517=DIRECTION('ref_axis',(1.,0.,0.));
#1518=DIRECTION('',(1.,0.,0.));
#1519=DIRECTION('',(0.281084637714735,-0.678598344545853,0.678598344545877));
#1520=DIRECTION('center_axis',(0.500000000000017,0.707106781186524,0.500000000000017));
#1521=DIRECTION('ref_axis',(0.707106781186548,0.,-0.707106781186548));
#1522=DIRECTION('',(0.707106781186548,0.,-0.707106781186548));
#1523=DIRECTION('center_axis',(-0.707106781186546,0.,0.707106781186549));
#1524=DIRECTION('ref_axis',(0.707106781186549,0.,0.707106781186546));
#1525=DIRECTION('',(0.,-1.,0.));
#1526=DIRECTION('',(-0.707106781186549,0.,-0.707106781186546));
#1527=DIRECTION('',(0.,1.,0.));
#1528=DIRECTION('center_axis',(0.,0.,-1.));
#1529=DIRECTION('ref_axis',(-1.,0.,0.));
#1530=DIRECTION('',(0.,1.,0.));
#1531=DIRECTION('',(-1.,0.,0.));
#1532=DIRECTION('center_axis',(0.707106781186548,0.,0.707106781186548));
#1533=DIRECTION('ref_axis',(0.707106781186548,0.,-0.707106781186548));
#1534=DIRECTION('',(0.,-1.,0.));
#1535=DIRECTION('',(-0.707106781186548,0.,0.707106781186548));
#1536=DIRECTION('center_axis',(-1.,0.,0.));
#1537=DIRECTION('ref_axis',(0.,0.,1.));
#1538=DIRECTION('',(0.,1.,0.));
#1539=DIRECTION('',(0.,0.,1.));
#1540=DIRECTION('center_axis',(0.,-0.707106781186535,-0.70710678118656));
#1541=DIRECTION('ref_axis',(-1.,0.,0.));
#1542=DIRECTION('',(0.281084637714855,0.678598344545852,-0.678598344545828));
#1543=DIRECTION('',(1.,0.,0.));
#1544=DIRECTION('',(-0.281084637714844,0.678598344545854,-0.67859834454583));
#1545=DIRECTION('center_axis',(0.500000000000001,-0.707106781186546,-0.500000000000001));
#1546=DIRECTION('ref_axis',(-0.707106781186548,0.,-0.707106781186548));
#1547=DIRECTION('',(0.678598344545834,0.678598344545846,-0.281084637714853));
#1548=DIRECTION('',(0.707106781186548,0.,0.707106781186548));
#1549=DIRECTION('center_axis',(0.707106781186554,-0.707106781186541,0.));
#1550=DIRECTION('ref_axis',(0.,0.,-1.));
#1551=DIRECTION('',(0.678598344545828,0.678598344545852,0.281084637714855));
#1552=DIRECTION('center_axis',(0.500000000000002,-0.707106781186544,0.500000000000002));
#1553=DIRECTION('ref_axis',(0.707106781186548,0.,-0.707106781186548));
#1554=DIRECTION('',(0.281084637714855,0.678598344545852,0.678598344545828));
#1555=DIRECTION('center_axis',(0.,-0.707106781186535,0.70710678118656));
#1556=DIRECTION('ref_axis',(1.,0.,0.));
#1557=DIRECTION('',(-0.281084637714788,0.678598344545866,0.678598344545842));
#1558=DIRECTION('center_axis',(-0.500000000000017,-0.707106781186522,0.500000000000019));
#1559=DIRECTION('ref_axis',(0.707106781186549,0.,0.707106781186546));
#1560=DIRECTION('',(-0.678598344545848,0.67859834454586,0.281084637714786));
#1561=DIRECTION('center_axis',(-0.707106781186554,-0.707106781186541,0.));
#1562=DIRECTION('ref_axis',(0.,0.,1.));
#1563=DIRECTION('',(0.,0.,-1.));
#1564=DIRECTION('',(-0.678598344545839,0.678598344545851,-0.28108463771483));
#1565=DIRECTION('center_axis',(-0.500000000000003,-0.707106781186541,-0.500000000000007));
#1566=DIRECTION('ref_axis',(-0.707106781186551,0.,0.707106781186544));
#1567=DIRECTION('',(0.707106781186551,0.,-0.707106781186544));
#1568=DIRECTION('center_axis',(1.,0.,0.));
#1569=DIRECTION('ref_axis',(0.,0.,-1.));
#1570=DIRECTION('',(0.,-1.,0.));
#1571=DIRECTION('center_axis',(-0.707106781186544,0.,-0.707106781186551));
#1572=DIRECTION('ref_axis',(-0.707106781186551,0.,0.707106781186544));
#1573=DIRECTION('',(0.,1.,0.));
#1574=DIRECTION('center_axis',(0.,0.,1.));
#1575=DIRECTION('ref_axis',(1.,0.,0.));
#1576=DIRECTION('',(0.,-1.,0.));
#1577=DIRECTION('center_axis',(0.707106781186548,0.,-0.707106781186548));
#1578=DIRECTION('ref_axis',(-0.707106781186548,0.,-0.707106781186548));
#1579=DIRECTION('center_axis',(-0.707106781186554,0.,0.707106781186541));
#1580=DIRECTION('ref_axis',(0.707106781186541,0.,0.707106781186554));
#1581=DIRECTION('',(0.,-1.,0.));
#1582=DIRECTION('',(0.,1.,0.));
#1583=DIRECTION('center_axis',(0.,0.,1.));
#1584=DIRECTION('ref_axis',(0.,1.,0.));
#1585=DIRECTION('',(3.32651093520647E-16,-1.,0.));
#1586=DIRECTION('center_axis',(-0.707106781186548,0.,-0.707106781186548));
#1587=DIRECTION('ref_axis',(-0.707106781186548,0.,0.707106781186548));
#1588=DIRECTION('',(0.,1.,0.));
#1589=DIRECTION('',(0.,-1.,0.));
#1590=DIRECTION('center_axis',(0.,0.,-1.));
#1591=DIRECTION('ref_axis',(0.,-1.,0.));
#1592=DIRECTION('',(-3.32651093520647E-16,1.,0.));
#1593=DIRECTION('center_axis',(-0.707106781186548,-2.3521984399757E-16,
-0.707106781186548));
#1594=DIRECTION('ref_axis',(-0.707106781186548,0.,0.707106781186548));
#1595=DIRECTION('',(3.32651093520647E-16,-1.,0.));
#1596=DIRECTION('',(-3.32651093520647E-16,1.,0.));
#1597=DIRECTION('center_axis',(-1.,-3.32651093520647E-16,0.));
#1598=DIRECTION('ref_axis',(3.32651093520647E-16,-1.,0.));
#1599=DIRECTION('',(3.32651093520647E-16,-1.,0.));
#1600=DIRECTION('center_axis',(0.707106781186546,-5.88049609993922E-17,
-0.707106781186549));
#1601=DIRECTION('ref_axis',(-0.707106781186549,0.,-0.707106781186546));
#1602=DIRECTION('',(8.31627733801615E-17,1.,0.));
#1603=DIRECTION('',(-8.31627733801615E-17,-1.,0.));
#1604=DIRECTION('center_axis',(1.,-8.31627733801615E-17,0.));
#1605=DIRECTION('ref_axis',(8.31627733801615E-17,1.,0.));
#1606=DIRECTION('',(8.31627733801615E-17,1.,0.));
#1607=DIRECTION('center_axis',(0.707106781186546,0.,-0.707106781186549));
#1608=DIRECTION('ref_axis',(-0.707106781186549,0.,-0.707106781186546));
#1609=DIRECTION('',(0.,-1.,0.));
#1610=DIRECTION('',(0.,1.,0.));
#1611=DIRECTION('center_axis',(0.,0.,1.));
#1612=DIRECTION('ref_axis',(0.,-1.,0.));
#1613=DIRECTION('',(-8.31627733801615E-17,-1.,0.));
#1614=DIRECTION('center_axis',(0.707106781186553,0.,0.707106781186542));
#1615=DIRECTION('ref_axis',(0.707106781186542,0.,-0.707106781186553));
#1616=DIRECTION('',(0.,-1.,0.));
#1617=DIRECTION('',(0.,1.,0.));
#1618=DIRECTION('center_axis',(0.,0.,1.));
#1619=DIRECTION('ref_axis',(1.,0.,0.));
#1620=DIRECTION('',(8.31627733801615E-17,1.,0.));
#1621=DIRECTION('center_axis',(0.707106781186552,-5.88049609993927E-17,
0.707106781186543));
#1622=DIRECTION('ref_axis',(0.707106781186543,0.,-0.707106781186552));
#1623=DIRECTION('',(-8.31627733801615E-17,-1.,0.));
#1624=DIRECTION('',(8.31627733801615E-17,1.,0.));
#1625=DIRECTION('center_axis',(1.,-8.31627733801615E-17,0.));
#1626=DIRECTION('ref_axis',(8.31627733801615E-17,1.,0.));
#1627=DIRECTION('',(-8.31627733801615E-17,-1.,0.));
#1628=DIRECTION('center_axis',(-0.707106781186551,-2.35219843997571E-16,
0.707106781186544));
#1629=DIRECTION('ref_axis',(0.707106781186544,0.,0.707106781186551));
#1630=DIRECTION('',(-3.32651093520647E-16,1.,0.));
#1631=DIRECTION('',(3.32651093520647E-16,-1.,0.));
#1632=DIRECTION('center_axis',(-1.,-3.32651093520647E-16,0.));
#1633=DIRECTION('ref_axis',(3.32651093520647E-16,-1.,0.));
#1634=DIRECTION('',(-3.32651093520647E-16,1.,0.));
#1635=DIRECTION('center_axis',(-1.,0.,0.));
#1636=DIRECTION('ref_axis',(0.,0.,1.));
#1637=DIRECTION('center_axis',(0.,0.,1.));
#1638=DIRECTION('ref_axis',(1.,0.,0.));
#1639=DIRECTION('center_axis',(1.,0.,0.));
#1640=DIRECTION('ref_axis',(0.,0.,-1.));
#1641=DIRECTION('center_axis',(0.,0.,-1.));
#1642=DIRECTION('ref_axis',(-1.,0.,0.));
#1643=DIRECTION('center_axis',(-0.70710663025208,-2.35219793789054E-16,
-0.707106932120983));
#1644=DIRECTION('ref_axis',(-0.707106932120983,0.,0.70710663025208));
#1645=DIRECTION('center_axis',(0.707106781186547,-5.88049609993923E-17,
-0.707106781186548));
#1646=DIRECTION('ref_axis',(-0.707106781186548,0.,-0.707106781186547));
#1647=DIRECTION('center_axis',(0.707106781186548,-5.88049609993923E-17,
0.707106781186548));
#1648=DIRECTION('ref_axis',(0.707106781186548,0.,-0.707106781186548));
#1649=DIRECTION('center_axis',(-0.707106781186532,-2.35219843997565E-16,
0.707106781186563));
#1650=DIRECTION('ref_axis',(0.707106781186563,0.,0.707106781186532));
#1651=DIRECTION('',(0.,0.,1.));
#1652=DIRECTION('',(1.,0.,0.));
#1653=CARTESIAN_POINT('',(0.,0.,0.));
#1654=CARTESIAN_POINT('',(0.,0.,0.));
#1655=CARTESIAN_POINT('Origin',(-39.94,134.900000065879,188.481729985377));
#1656=CARTESIAN_POINT('',(-41.99,134.9,188.481729985377));
#1657=CARTESIAN_POINT('Origin',(-39.94,134.9,188.481729985377));
#1658=CARTESIAN_POINT('',(-41.9899999928389,140.000002533197,188.481729985377));
#1659=CARTESIAN_POINT('',(-41.99,134.900000068758,188.481729985377));
#1660=CARTESIAN_POINT('Origin',(-39.9399999928389,140.000002533197,188.481729985377));
#1661=CARTESIAN_POINT('Origin',(-29.94,134.900000051838,188.481729985377));
#1662=CARTESIAN_POINT('',(-31.99,134.9,188.481729985377));
#1663=CARTESIAN_POINT('Origin',(-29.94,134.9,188.481729985377));
#1664=CARTESIAN_POINT('',(-31.9899999928389,140.000002533197,188.481729985377));
#1665=CARTESIAN_POINT('',(-31.99,134.900000054716,188.481729985377));
#1666=CARTESIAN_POINT('Origin',(-29.9399999928389,140.000002533197,188.481729985377));
#1667=CARTESIAN_POINT('Origin',(-19.94,134.900000037797,188.481729985377));
#1668=CARTESIAN_POINT('',(-21.99,134.9,188.481729985377));
#1669=CARTESIAN_POINT('Origin',(-19.94,134.9,188.481729985377));
#1670=CARTESIAN_POINT('',(-21.9899999928389,140.000002533197,188.481729985377));
#1671=CARTESIAN_POINT('',(-21.99,134.900000040675,188.481729985377));
#1672=CARTESIAN_POINT('Origin',(-19.9399999928389,140.000002533197,188.481729985377));
#1673=CARTESIAN_POINT('Origin',(-39.94,134.900000065879,132.981729985377));
#1674=CARTESIAN_POINT('',(-41.99,134.9,132.981729985377));
#1675=CARTESIAN_POINT('Origin',(-39.94,134.9,132.981729985377));
#1676=CARTESIAN_POINT('',(-41.9899999928389,140.000002533197,132.981729985377));
#1677=CARTESIAN_POINT('',(-41.99,134.900000068758,132.981729985377));
#1678=CARTESIAN_POINT('Origin',(-39.9399999928389,140.000002533197,132.981729985377));
#1679=CARTESIAN_POINT('Origin',(-29.94,134.900000051838,132.981729985377));
#1680=CARTESIAN_POINT('',(-31.99,134.9,132.981729985377));
#1681=CARTESIAN_POINT('Origin',(-29.94,134.9,132.981729985377));
#1682=CARTESIAN_POINT('',(-31.9899999928389,140.000002533197,132.981729985377));
#1683=CARTESIAN_POINT('',(-31.99,134.900000054716,132.981729985377));
#1684=CARTESIAN_POINT('Origin',(-29.9399999928389,140.000002533197,132.981729985377));
#1685=CARTESIAN_POINT('Origin',(-19.94,134.900000037797,132.981729985377));
#1686=CARTESIAN_POINT('',(-21.99,134.9,132.981729985377));
#1687=CARTESIAN_POINT('Origin',(-19.94,134.9,132.981729985377));
#1688=CARTESIAN_POINT('',(-21.9899999928389,140.000002533197,132.981729985377));
#1689=CARTESIAN_POINT('',(-21.99,134.900000040675,132.981729985377));
#1690=CARTESIAN_POINT('Origin',(-19.9399999928389,140.000002533197,132.981729985377));
#1691=CARTESIAN_POINT('Origin',(-1.10000000000002,140.00000254454,171.891729985377));
#1692=CARTESIAN_POINT('',(0.949999999999989,140.000002533197,171.891729985377));
#1693=CARTESIAN_POINT('Origin',(-1.10000000000002,140.000002533197,171.891729985377));
#1694=CARTESIAN_POINT('',(0.9499999928389,134.9,171.891729985377));
#1695=CARTESIAN_POINT('',(0.949999999999995,140.000002541661,171.891729985377));
#1696=CARTESIAN_POINT('Origin',(-1.10000000716111,134.9,171.891729985377));
#1697=CARTESIAN_POINT('Origin',(-1.10000000000002,140.00000254454,161.891729985377));
#1698=CARTESIAN_POINT('',(0.949999999999976,140.000002533197,161.891729985377));
#1699=CARTESIAN_POINT('Origin',(-1.10000000000002,140.000002533197,161.891729985377));
#1700=CARTESIAN_POINT('',(0.949999992838887,134.9,161.891729985377));
#1701=CARTESIAN_POINT('',(0.949999999999982,140.000002541661,161.891729985377));
#1702=CARTESIAN_POINT('Origin',(-1.10000000716111,134.9,161.891729985377));
#1703=CARTESIAN_POINT('Origin',(-1.10000000000002,140.00000254454,151.891735805644));
#1704=CARTESIAN_POINT('',(0.949999999999977,140.000002533197,151.891735805644));
#1705=CARTESIAN_POINT('Origin',(-1.10000000000002,140.000002533197,151.891735805644));
#1706=CARTESIAN_POINT('',(0.949999992838889,134.9,151.891735805644));
#1707=CARTESIAN_POINT('',(0.949999999999984,140.000002541661,151.891735805644));
#1708=CARTESIAN_POINT('Origin',(-1.10000000716111,134.9,151.891735805644));
#1709=CARTESIAN_POINT('Origin',(-63.1,140.000002631596,161.891729985377));
#1710=CARTESIAN_POINT('',(-61.05,140.000002533197,161.891729985377));
#1711=CARTESIAN_POINT('Origin',(-63.1,140.000002533197,161.891729985377));
#1712=CARTESIAN_POINT('',(-61.0500000071611,134.9,161.891729985377));
#1713=CARTESIAN_POINT('',(-61.05,140.000002628718,161.891729985377));
#1714=CARTESIAN_POINT('Origin',(-63.1000000071611,134.9,161.891729985377));
#1715=CARTESIAN_POINT('Origin',(-63.1,140.000002631596,171.891724165111));
#1716=CARTESIAN_POINT('',(-61.05,140.000002533197,171.891724165111));
#1717=CARTESIAN_POINT('Origin',(-63.1,140.000002533197,171.891724165111));
#1718=CARTESIAN_POINT('',(-61.0500000071611,134.9,171.891724165111));
#1719=CARTESIAN_POINT('',(-61.05,140.000002628718,171.891724165111));
#1720=CARTESIAN_POINT('Origin',(-63.1000000071611,134.9,171.891724165111));
#1721=CARTESIAN_POINT('Origin',(-63.1,140.000002631596,151.891729985377));
#1722=CARTESIAN_POINT('',(-61.05,140.000002533197,151.891729985377));
#1723=CARTESIAN_POINT('Origin',(-63.1,140.000002533197,151.891729985377));
#1724=CARTESIAN_POINT('',(-61.050000007161,134.9,151.891729985377));
#1725=CARTESIAN_POINT('',(-61.05,140.000002628718,151.891729985377));
#1726=CARTESIAN_POINT('Origin',(-63.1000000071611,134.9,151.891729985377));
#1727=CARTESIAN_POINT('Origin',(-0.600000000000023,134.9,126.891729985377));
#1728=CARTESIAN_POINT('',(-67.0999985560775,134.89999698475,175.891729985377));
#1729=CARTESIAN_POINT('',(-66.0999985560775,134.89999698475,176.891729985377));
#1730=CARTESIAN_POINT('',(-62.4749989170584,134.9,180.516729624396));
#1731=CARTESIAN_POINT('',(-67.0999985560775,134.89999698475,147.891729985377));
#1732=CARTESIAN_POINT('',(-67.0999985560775,134.89999698475,176.891729985377));
#1733=CARTESIAN_POINT('',(-66.0999985560775,134.89999698475,146.891729985377));
#1734=CARTESIAN_POINT('',(-44.9749989170581,134.9,125.766730346358));
#1735=CARTESIAN_POINT('',(-49.9400021345355,134.9,146.891729985377));
#1736=CARTESIAN_POINT('',(-32.5999992780388,134.89999698475,146.891729985377));
#1737=CARTESIAN_POINT('',(-44.94,134.9,141.891729985378));
#1738=CARTESIAN_POINT('',(-31.3549958013689,134.9,128.30673158628));
#1739=CARTESIAN_POINT('',(-44.94,134.9,129.981729985377));
#1740=CARTESIAN_POINT('',(-44.94,134.9,132.481729985377));
#1741=CARTESIAN_POINT('',(-43.94,134.9,128.981729985377));
#1742=CARTESIAN_POINT('',(-32.8325,134.9,117.874229985377));
#1743=CARTESIAN_POINT('',(-15.94,134.9,128.981729985377));
#1744=CARTESIAN_POINT('',(-16.55,134.9,128.981729985377));
#1745=CARTESIAN_POINT('',(-14.94,134.8999969523,129.981729985377));
#1746=CARTESIAN_POINT('',(-12.3774999999999,134.9,132.544229985377));
#1747=CARTESIAN_POINT('',(-14.94,134.9,141.89174162591));
#1748=CARTESIAN_POINT('',(-14.94,134.8999969523,132.481729985377));
#1749=CARTESIAN_POINT('',(-9.93999999999998,134.9,146.89174162591));
#1750=CARTESIAN_POINT('',(-13.8550029101333,134.9,142.976738715777));
#1751=CARTESIAN_POINT('',(-5.10000000000002,134.8999969523,146.89174162591));
#1752=CARTESIAN_POINT('',(-7.77,134.9,146.89174162591));
#1753=CARTESIAN_POINT('',(0.899999999999981,134.8999969523,146.891729985377));
#1754=CARTESIAN_POINT('',(-7.77,134.8999969523,146.891729985377));
#1755=CARTESIAN_POINT('',(1.89999999999998,134.9,146.89174162591));
#1756=CARTESIAN_POINT('',(-7.77,134.9,146.89174162591));
#1757=CARTESIAN_POINT('',(2.89999993517995,134.9,147.89174162591));
#1758=CARTESIAN_POINT('',(-3.47500291013331,134.9,141.516738715777));
#1759=CARTESIAN_POINT('',(2.89999993517995,134.9,175.891729985377));
#1760=CARTESIAN_POINT('',(2.89999993517995,134.9,176.891729985377));
#1761=CARTESIAN_POINT('',(1.89999999999998,134.9,176.891729985377));
#1762=CARTESIAN_POINT('',(14.0249999999999,134.9,164.766729985377));
#1763=CARTESIAN_POINT('',(-9.93999999999998,134.9,176.891729985377));
#1764=CARTESIAN_POINT('',(-2.43631602061112,134.9,176.891729985377));
#1765=CARTESIAN_POINT('',(-14.94,134.9,181.891729985377));
#1766=CARTESIAN_POINT('',(3.64499999999996,134.9,163.306729985377));
#1767=CARTESIAN_POINT('',(-14.94,134.9,191.481729985377));
#1768=CARTESIAN_POINT('',(-14.94,134.9,188.981729985377));
#1769=CARTESIAN_POINT('',(-15.94,134.9,192.481729985377));
#1770=CARTESIAN_POINT('',(4.54249999999992,134.9,171.999229985377));
#1771=CARTESIAN_POINT('',(-43.94,134.9,192.481729985377));
#1772=CARTESIAN_POINT('',(-14.94,134.9,192.481729985377));
#1773=CARTESIAN_POINT('',(-44.94,134.9,191.481729985377));
#1774=CARTESIAN_POINT('',(-49.7525000000001,134.9,186.669229985377));
#1775=CARTESIAN_POINT('',(-44.94,134.9,181.891729985377));
#1776=CARTESIAN_POINT('',(-44.94,134.9,157.936729985377));
#1777=CARTESIAN_POINT('',(-49.94,134.9,176.891729985377));
#1778=CARTESIAN_POINT('',(-48.8549999999995,134.9,177.976729985378));
#1779=CARTESIAN_POINT('',(-59.0999986790121,134.89999698475,176.891729985377));
#1780=CARTESIAN_POINT('',(-39.2928932188135,134.9,165.80000230968));
#1781=CARTESIAN_POINT('',(-54.3071067811866,134.9,165.80000230968));
#1782=CARTESIAN_POINT('',(-27.85,134.9,165.80000230968));
#1783=CARTESIAN_POINT('',(-38.,134.9,164.507109090867));
#1784=CARTESIAN_POINT('',(-19.569378528331,134.9,146.076487619198));
#1785=CARTESIAN_POINT('',(-38.,134.9,155.514736289443));
#1786=CARTESIAN_POINT('',(-38.,134.9,146.095866147529));
#1787=CARTESIAN_POINT('',(-39.2928932188135,134.9,154.221843070629));
#1788=CARTESIAN_POINT('',(-36.1289748807197,134.9,157.385761408723));
#1789=CARTESIAN_POINT('',(-54.3071067811866,134.9,154.221843070629));
#1790=CARTESIAN_POINT('',(-19.55,134.9,154.221843070629));
#1791=CARTESIAN_POINT('',(-55.6,134.9,155.514736289443));
#1792=CARTESIAN_POINT('',(-34.3710251192803,134.9,134.285761408723));
#1793=CARTESIAN_POINT('',(-55.6000000000001,134.9,164.507109090867));
#1794=CARTESIAN_POINT('',(-55.6000000000001,134.9,140.806786528003));
#1795=CARTESIAN_POINT('',(-50.930621471669,134.9,169.176487619198));
#1796=CARTESIAN_POINT('Origin',(-0.600000000000023,140.000002533197,195.000002756715));
#1797=CARTESIAN_POINT('',(-66.0999985560775,140.000002533197,176.891729985377));
#1798=CARTESIAN_POINT('',(-67.1,140.000002533197,175.891729985377));
#1799=CARTESIAN_POINT('',(-45.447930724224,140.000002533197,197.543797817231));
#1800=CARTESIAN_POINT('',(-49.94,140.000002533197,176.891729985377));
#1801=CARTESIAN_POINT('',(-29.5350002682209,140.000002533197,176.891729985377));
#1802=CARTESIAN_POINT('',(-44.94,140.000002533197,181.891729985377));
#1803=CARTESIAN_POINT('',(-31.827931807165,140.000002533197,195.003798178211));
#1804=CARTESIAN_POINT('',(-44.94,140.000002533197,191.481729985377));
#1805=CARTESIAN_POINT('',(-44.94,140.000002533197,181.731729985377));
#1806=CARTESIAN_POINT('',(-43.94,140.000002533197,192.481729985377));
#1807=CARTESIAN_POINT('',(-32.7254318071656,140.000002533197,203.696298178211));
#1808=CARTESIAN_POINT('',(-15.94,140.000002533197,192.481729985377));
#1809=CARTESIAN_POINT('',(-22.4400031332993,140.000002533197,192.481729985377));
#1810=CARTESIAN_POINT('',(-14.94,140.000002533197,191.481729985377));
#1811=CARTESIAN_POINT('',(-12.4845681928345,140.000002533197,189.026298178211));
#1812=CARTESIAN_POINT('',(-14.94,140.000002533197,181.891729985377));
#1813=CARTESIAN_POINT('',(-14.94,140.000002533197,181.731729985377));
#1814=CARTESIAN_POINT('',(-9.93999999999997,140.000002533197,176.891729985377));
#1815=CARTESIAN_POINT('',(-13.3820681928345,140.000002533197,180.333798178211));
#1816=CARTESIAN_POINT('',(1.89999999999998,140.000002533197,176.891729985377));
#1817=CARTESIAN_POINT('',(-2.43631602061112,140.000002533197,176.891729985377));
#1818=CARTESIAN_POINT('',(2.89999999999998,140.000002086163,175.891729985377));
#1819=CARTESIAN_POINT('',(-3.0020681928345,140.000002533197,181.793798178211));
#1820=CARTESIAN_POINT('',(2.89999999999998,140.000002086163,147.89174162591));
#1821=CARTESIAN_POINT('',(2.89999999999998,140.000002086163,147.000002041459));
#1822=CARTESIAN_POINT('',(1.89999999999998,140.000002533197,146.89174162591));
#1823=CARTESIAN_POINT('',(13.5520652827011,140.000002533197,158.543806908611));
#1824=CARTESIAN_POINT('',(-9.93999999999998,140.000002533197,146.89174162591));
#1825=CARTESIAN_POINT('',(-7.77,140.000002533197,146.89174162591));
#1826=CARTESIAN_POINT('',(-14.94,140.000002533197,141.89174162591));
#1827=CARTESIAN_POINT('',(3.17206528270116,140.000002533197,160.003806908611));
#1828=CARTESIAN_POINT('',(-14.94,140.000002086163,129.981729985377));
#1829=CARTESIAN_POINT('',(-14.94,140.000002086163,155.740865938912));
#1830=CARTESIAN_POINT('',(-15.94,140.000002086163,128.981729985377));
#1831=CARTESIAN_POINT('',(4.6495681928345,140.000002533197,149.571298178211));
#1832=CARTESIAN_POINT('',(-43.94,140.000002086163,128.981729985377));
#1833=CARTESIAN_POINT('',(-22.44,140.000002086163,128.981729985377));
#1834=CARTESIAN_POINT('',(-44.94,140.000002533197,129.981729985377));
#1835=CARTESIAN_POINT('',(-49.8595681928345,140.000002533197,134.901298178211));
#1836=CARTESIAN_POINT('',(-44.94,140.000002533197,141.891729985378));
#1837=CARTESIAN_POINT('',(-44.94,140.000002533197,163.740866371046));
#1838=CARTESIAN_POINT('',(-49.9400021345355,140.000002533197,146.891729985377));
#1839=CARTESIAN_POINT('',(-48.3820639942018,140.000002533197,145.333792510138));
#1840=CARTESIAN_POINT('',(-66.0999985560775,140.000002533197,146.891729985377));
#1841=CARTESIAN_POINT('',(-27.6850005336339,140.000002533197,146.891729985377));
#1842=CARTESIAN_POINT('',(-67.1,140.000002533197,147.891729985377));
#1843=CARTESIAN_POINT('',(-62.0020671098926,140.000002533197,142.793798539192));
#1844=CARTESIAN_POINT('',(-67.1,140.000002533197,177.97293456388));
#1845=CARTESIAN_POINT('',(-55.6000000000001,140.000002533197,155.514736289443));
#1846=CARTESIAN_POINT('',(-55.6000000000001,140.000002533197,164.507109090867));
#1847=CARTESIAN_POINT('',(-55.6000000000001,140.000002533197,174.860922913672));
#1848=CARTESIAN_POINT('',(-54.3071067811865,140.000002533197,154.221843070629));
#1849=CARTESIAN_POINT('',(-51.3980933121147,140.000002533197,151.312829601557));
#1850=CARTESIAN_POINT('',(-39.2928932188135,140.000002533197,154.221843070629));
#1851=CARTESIAN_POINT('',(-19.55,140.000002533197,154.221843070629));
#1852=CARTESIAN_POINT('',(-38.,140.000002533197,155.514736289443));
#1853=CARTESIAN_POINT('',(-19.1019066878853,140.000002533197,174.412829601557));
#1854=CARTESIAN_POINT('',(-38.,140.000002533197,164.507109090867));
#1855=CARTESIAN_POINT('',(-38.,140.000002533197,180.150002533197));
#1856=CARTESIAN_POINT('',(-39.2928932188135,140.000002533197,165.80000230968));
#1857=CARTESIAN_POINT('',(-36.5964467211654,140.000002533197,163.103555812032));
#1858=CARTESIAN_POINT('',(-54.3071067811866,140.000002533197,165.80000230968));
#1859=CARTESIAN_POINT('',(-27.85,140.000002533197,165.80000230968));
#1860=CARTESIAN_POINT('',(-33.9035532788346,140.000002533197,186.203555812032));
#1861=CARTESIAN_POINT('Origin',(-55.3500000000001,139.750002533197,174.860922913672));
#1862=CARTESIAN_POINT('',(-55.1000000000001,139.500002533197,164.30000230968));
#1863=CARTESIAN_POINT('',(-55.6,140.000002533197,164.507109090867));
#1864=CARTESIAN_POINT('',(-55.1000000000001,139.500002533197,155.721843070629));
#1865=CARTESIAN_POINT('',(-55.1000000000001,139.500002533197,174.860922913672));
#1866=CARTESIAN_POINT('',(-55.6000000000001,140.000002533197,155.514736289443));
#1867=CARTESIAN_POINT('Origin',(-33.726776583538,139.750002533197,186.026779116735));
#1868=CARTESIAN_POINT('',(-54.1000000000001,139.500002533197,165.30000230968));
#1869=CARTESIAN_POINT('',(-54.3071067811866,140.000002533197,165.80000230968));
#1870=CARTESIAN_POINT('',(-33.5499998882413,139.500002533197,185.850002421439));
#1871=CARTESIAN_POINT('Origin',(-27.85,139.750002533197,165.55000230968));
#1872=CARTESIAN_POINT('',(-39.5,139.500002533197,165.30000230968));
#1873=CARTESIAN_POINT('',(-39.2928932188135,140.000002533197,165.80000230968));
#1874=CARTESIAN_POINT('',(-27.85,139.500002533197,165.30000230968));
#1875=CARTESIAN_POINT('Origin',(-36.773223416462,139.750002533197,162.926779116735));
#1876=CARTESIAN_POINT('',(-38.5,139.500002533197,164.30000230968));
#1877=CARTESIAN_POINT('',(-38.,140.000002533197,164.507109090867));
#1878=CARTESIAN_POINT('',(-36.9500001117587,139.500002533197,162.750002421439));
#1879=CARTESIAN_POINT('Origin',(-38.25,139.750002533197,180.150002533197));
#1880=CARTESIAN_POINT('',(-38.5,139.500002533197,155.721843070629));
#1881=CARTESIAN_POINT('',(-38.,140.000002533197,155.514736289443));
#1882=CARTESIAN_POINT('',(-38.5,139.500002533197,180.150002533197));
#1883=CARTESIAN_POINT('Origin',(-19.2786833831819,139.750002533197,174.589606296854));
#1884=CARTESIAN_POINT('',(-39.5,139.500002533197,154.721843070629));
#1885=CARTESIAN_POINT('',(-19.4554600784786,139.500002533197,174.766382992151));
#1886=CARTESIAN_POINT('',(-39.2928932188135,140.000002533197,154.221843070629));
#1887=CARTESIAN_POINT('Origin',(-19.55,139.750002533197,154.471843070629));
#1888=CARTESIAN_POINT('',(-54.1000000000001,139.500002533197,154.721843070629));
#1889=CARTESIAN_POINT('',(-19.55,139.500002533197,154.721843070629));
#1890=CARTESIAN_POINT('',(-54.3071067811865,140.000002533197,154.221843070629));
#1891=CARTESIAN_POINT('Origin',(-51.2213166168181,139.750002533197,151.489606296854));
#1892=CARTESIAN_POINT('',(-51.0445399215215,139.500002533197,151.666382992151));
#1893=CARTESIAN_POINT('Origin',(-39.,124.000001847744,155.221843070629));
#1894=CARTESIAN_POINT('',(-39.5,135.4,154.721843070629));
#1895=CARTESIAN_POINT('',(-39.5,124.000001847744,154.721843070629));
#1896=CARTESIAN_POINT('',(-38.5,135.4,155.721843070629));
#1897=CARTESIAN_POINT('',(-36.482528271313,135.4,157.739314799316));
#1898=CARTESIAN_POINT('',(-38.5,124.000001847744,155.721843070629));
#1899=CARTESIAN_POINT('Origin',(-38.5,124.000001847744,154.721843070629));
#1900=CARTESIAN_POINT('',(-54.1000000000001,135.4,154.721843070629));
#1901=CARTESIAN_POINT('',(-54.1000000000001,124.000001847744,154.721843070629));
#1902=CARTESIAN_POINT('',(-19.55,135.4,154.721843070629));
#1903=CARTESIAN_POINT('Origin',(-54.6000000000001,124.000001847744,155.221843070629));
#1904=CARTESIAN_POINT('',(-55.1000000000001,135.4,155.721843070629));
#1905=CARTESIAN_POINT('',(-55.1000000000001,124.000001847744,155.721843070629));
#1906=CARTESIAN_POINT('',(-34.017471728687,135.4,134.639314799316));
#1907=CARTESIAN_POINT('Origin',(-55.1000000000001,124.000001847744,154.721843070629));
#1908=CARTESIAN_POINT('',(-55.1000000000001,135.4,164.30000230968));
#1909=CARTESIAN_POINT('',(-55.1000000000001,124.000001847744,164.30000230968));
#1910=CARTESIAN_POINT('',(-55.1000000000001,135.4,140.806786528003));
#1911=CARTESIAN_POINT('Origin',(-27.85,135.15,165.55000230968));
#1912=CARTESIAN_POINT('',(-54.1000000000001,135.4,165.30000230968));
#1913=CARTESIAN_POINT('',(-54.3071067811866,134.9,165.80000230968));
#1914=CARTESIAN_POINT('',(-39.5,135.4,165.30000230968));
#1915=CARTESIAN_POINT('',(-27.85,135.4,165.30000230968));
#1916=CARTESIAN_POINT('',(-39.2928932188135,134.9,165.80000230968));
#1917=CARTESIAN_POINT('Origin',(-50.7538447763724,135.15,168.999710923901));
#1918=CARTESIAN_POINT('',(-55.6000000000001,134.9,164.507109090867));
#1919=CARTESIAN_POINT('',(-50.5770680810758,135.4,168.822934228604));
#1920=CARTESIAN_POINT('Origin',(-55.3500000000001,135.15,140.806786528003));
#1921=CARTESIAN_POINT('',(-55.6,134.9,155.514736289443));
#1922=CARTESIAN_POINT('Origin',(-34.1942484239837,135.15,134.462538104019));
#1923=CARTESIAN_POINT('',(-54.3071067811866,134.9,154.221843070629));
#1924=CARTESIAN_POINT('Origin',(-19.55,135.15,154.471843070629));
#1925=CARTESIAN_POINT('',(-39.2928932188135,134.9,154.221843070629));
#1926=CARTESIAN_POINT('Origin',(-36.3057515760164,135.15,157.56253810402));
#1927=CARTESIAN_POINT('',(-38.,134.9,155.514736289443));
#1928=CARTESIAN_POINT('Origin',(-38.25,135.15,146.095866147529));
#1929=CARTESIAN_POINT('',(-38.5,135.4,164.30000230968));
#1930=CARTESIAN_POINT('',(-38.5,135.4,146.095866147529));
#1931=CARTESIAN_POINT('',(-38.,134.9,164.507109090867));
#1932=CARTESIAN_POINT('Origin',(-19.7461552236276,135.15,145.899710923901));
#1933=CARTESIAN_POINT('',(-19.9229319189242,135.4,145.722934228604));
#1934=CARTESIAN_POINT('Origin',(-38.5,124.000001847744,165.30000230968));
#1935=CARTESIAN_POINT('',(-38.5,124.000001847744,164.30000230968));
#1936=CARTESIAN_POINT('Origin',(-39.,124.000001847744,164.80000230968));
#1937=CARTESIAN_POINT('',(-39.5,124.000001847744,165.30000230968));
#1938=CARTESIAN_POINT('Origin',(-55.1000000000001,124.000001847744,165.30000230968));
#1939=CARTESIAN_POINT('',(-54.1000000000001,124.000001847744,165.30000230968));
#1940=CARTESIAN_POINT('Origin',(-54.6000000000001,124.000001847744,164.80000230968));
#1941=CARTESIAN_POINT('Origin',(-66.5999985560775,128.675000633299,176.391729985377));
#1942=CARTESIAN_POINT('',(-67.0999985560775,128.675000633299,175.891729985377));
#1943=CARTESIAN_POINT('',(-66.0999985560775,128.675000633299,176.891729985377));
#1944=CARTESIAN_POINT('Origin',(-0.600000000000023,104.9,176.891729985377));
#1945=CARTESIAN_POINT('',(-49.94,135.8,176.891729985377));
#1946=CARTESIAN_POINT('Origin',(-66.5999985560775,143.675000633299,147.391729985377));
#1947=CARTESIAN_POINT('',(-67.0999985560775,143.675000633299,147.891729985377));
#1948=CARTESIAN_POINT('',(-66.0999985560775,143.675000633299,146.891729985377));
#1949=CARTESIAN_POINT('Origin',(-0.600000000000023,134.9,146.891729985377));
#1950=CARTESIAN_POINT('',(-49.9400021345355,150.8,146.891729985377));
#1951=CARTESIAN_POINT('Origin',(-44.44,163.775,129.481729985377));
#1952=CARTESIAN_POINT('',(-43.94,163.775,128.981729985377));
#1953=CARTESIAN_POINT('',(-44.94,163.775,129.981729985377));
#1954=CARTESIAN_POINT('Origin',(-44.94,166.7,178.981729985377));
#1955=CARTESIAN_POINT('',(-44.94,150.8,141.891729985378));
#1956=CARTESIAN_POINT('Origin',(-15.44,150.425,129.481729985377));
#1957=CARTESIAN_POINT('',(-15.94,150.425,128.981729985377));
#1958=CARTESIAN_POINT('',(-14.94,150.425,129.981729985377));
#1959=CARTESIAN_POINT('Origin',(-14.94,140.,178.981729985377));
#1960=CARTESIAN_POINT('',(-14.94,153.35,141.89174162591));
#1961=CARTESIAN_POINT('Origin',(2.39999999999998,149.591884040182,147.39174162591));
#1962=CARTESIAN_POINT('',(2.89999999999998,149.591884040182,147.89174162591));
#1963=CARTESIAN_POINT('',(1.89999999999998,149.591884040182,146.89174162591));
#1964=CARTESIAN_POINT('Origin',(-14.94,166.7,146.89174162591));
#1965=CARTESIAN_POINT('',(-9.93999999999997,153.35,146.89174162591));
#1966=CARTESIAN_POINT('Origin',(2.39999999999998,127.454731456065,176.391729985377));
#1967=CARTESIAN_POINT('',(1.89999999999998,127.454731456065,176.891729985377));
#1968=CARTESIAN_POINT('',(2.89999999999998,127.454731456065,175.891729985377));
#1969=CARTESIAN_POINT('Origin',(-4.27263204122221,122.425694831766,176.891729985377));
#1970=CARTESIAN_POINT('',(-9.93999999999998,131.212847415883,176.891729985377));
#1971=CARTESIAN_POINT('Origin',(-15.44,141.2,191.981729985377));
#1972=CARTESIAN_POINT('',(-15.94,141.2,192.481729985377));
#1973=CARTESIAN_POINT('',(-14.94,141.2,191.481729985377));
#1974=CARTESIAN_POINT('Origin',(-14.94,140.,178.981729985377));
#1975=CARTESIAN_POINT('',(-14.94,131.212847415883,181.891729985377));
#1976=CARTESIAN_POINT('Origin',(-44.44,154.55,191.981729985377));
#1977=CARTESIAN_POINT('',(-43.94,154.55,192.481729985377));
#1978=CARTESIAN_POINT('',(-44.94,154.55,191.481729985377));
#1979=CARTESIAN_POINT('Origin',(-44.94,166.7,178.981729985377));
#1980=CARTESIAN_POINT('',(-44.94,135.8,181.891729985377));
#1981=CARTESIAN_POINT('Origin',(-67.0999985560775,152.450001266599,160.945866371046));
#1982=CARTESIAN_POINT('Origin',(-29.9400062665987,142.4,192.481729985377));
#1983=CARTESIAN_POINT('Origin',(2.89999999999998,132.483768080364,161.945866013418));
#1984=CARTESIAN_POINT('Origin',(-29.94,160.85,128.981729985377));
#1985=CARTESIAN_POINT('Origin',(-47.4400010672677,150.8,144.391729985377));
#1986=CARTESIAN_POINT('Origin',(-12.44,153.35,144.39174162591));
#1987=CARTESIAN_POINT('Origin',(-12.44,131.212847415883,179.391729985377));
#1988=CARTESIAN_POINT('Origin',(-47.44,135.8,179.391729985377));
#1989=CARTESIAN_POINT('',(0.,0.,0.));
#1990=UNCERTAINTY_MEASURE_WITH_UNIT(LENGTH_MEASURE(0.01),#1996,
'DISTANCE_ACCURACY_VALUE',
'Maximum model space distance between geometric entities at asserted c
onnectivities');
#1991=UNCERTAINTY_MEASURE_WITH_UNIT(LENGTH_MEASURE(0.01),#1996,
'DISTANCE_ACCURACY_VALUE',
'Maximum model space distance between geometric entities at asserted c
onnectivities');
#1992=UNCERTAINTY_MEASURE_WITH_UNIT(LENGTH_MEASURE(0.01),#1996,
'DISTANCE_ACCURACY_VALUE',
'Maximum model space distance between geometric entities at asserted c
onnectivities');
#1993=(
GEOMETRIC_REPRESENTATION_CONTEXT(3)
GLOBAL_UNCERTAINTY_ASSIGNED_CONTEXT((#1990))
GLOBAL_UNIT_ASSIGNED_CONTEXT((#1996,#1998,#1999))
REPRESENTATION_CONTEXT('','3D')
);
#1994=(
GEOMETRIC_REPRESENTATION_CONTEXT(3)
GLOBAL_UNCERTAINTY_ASSIGNED_CONTEXT((#1991))
GLOBAL_UNIT_ASSIGNED_CONTEXT((#1996,#1998,#1999))
REPRESENTATION_CONTEXT('','3D')
);
#1995=(
GEOMETRIC_REPRESENTATION_CONTEXT(3)
GLOBAL_UNCERTAINTY_ASSIGNED_CONTEXT((#1992))
GLOBAL_UNIT_ASSIGNED_CONTEXT((#1996,#1998,#1999))
REPRESENTATION_CONTEXT('','3D')
);
#1996=(
LENGTH_UNIT()
NAMED_UNIT(*)
SI_UNIT(.MILLI.,.METRE.)
);
#1997=(
LENGTH_UNIT()
NAMED_UNIT(*)
SI_UNIT($,.METRE.)
);
#1998=(
NAMED_UNIT(*)
PLANE_ANGLE_UNIT()
SI_UNIT($,.RADIAN.)
);
#1999=(
NAMED_UNIT(*)
SI_UNIT($,.STERADIAN.)
SOLID_ANGLE_UNIT()
);
#2000=SHAPE_DEFINITION_REPRESENTATION(#2002,#2005);
#2001=SHAPE_DEFINITION_REPRESENTATION(#2003,#2006);
#2002=PRODUCT_DEFINITION_SHAPE('',$,#2008);
#2003=PRODUCT_DEFINITION_SHAPE('',$,#2009);
#2004=PRODUCT_DEFINITION_SHAPE($,$,#14);
#2005=SHAPE_REPRESENTATION('',(#1244,#1332),#1993);
#2006=SHAPE_REPRESENTATION('',(#1245),#1994);
#2007=PRODUCT_DEFINITION_CONTEXT('part definition',#2015,'design');
#2008=PRODUCT_DEFINITION('Leg V1','Leg V1 v19',#2010,#2007);
#2009=PRODUCT_DEFINITION('Upper Leg conector','Upper Leg conector',#2011,
#2007);
#2010=PRODUCT_DEFINITION_FORMATION('',$,#2017);
#2011=PRODUCT_DEFINITION_FORMATION('',$,#2018);
#2012=PRODUCT_RELATED_PRODUCT_CATEGORY('Leg V1 v19','Leg V1 v19',(#2017));
#2013=PRODUCT_RELATED_PRODUCT_CATEGORY('Upper Leg conector',
'Upper Leg conector',(#2018));
#2014=APPLICATION_PROTOCOL_DEFINITION('international standard',
'automotive_design',2009,#2015);
#2015=APPLICATION_CONTEXT(
'Core Data for Automotive Mechanical Design Process');
#2016=PRODUCT_CONTEXT('part definition',#2015,'mechanical');
#2017=PRODUCT('Leg V1','Leg V1 v19',$,(#2016));
#2018=PRODUCT('Upper Leg conector','Upper Leg conector',$,(#2016));
#2019=PRESENTATION_STYLE_ASSIGNMENT((#2021));
#2020=PRESENTATION_STYLE_ASSIGNMENT((#2022));
#2021=SURFACE_STYLE_USAGE(.BOTH.,#2023);
#2022=SURFACE_STYLE_USAGE(.BOTH.,#2024);
#2023=SURFACE_SIDE_STYLE('',(#2025));
#2024=SURFACE_SIDE_STYLE('',(#2026));
#2025=SURFACE_STYLE_FILL_AREA(#2027);
#2026=SURFACE_STYLE_FILL_AREA(#2028);
#2027=FILL_AREA_STYLE('Steel - Satin',(#2029));
#2028=FILL_AREA_STYLE('ABS (White)',(#2030));
#2029=FILL_AREA_STYLE_COLOUR('Steel - Satin',#2031);
#2030=FILL_AREA_STYLE_COLOUR('ABS (White)',#2032);
#2031=COLOUR_RGB('Steel - Satin',0.627450980392157,0.627450980392157,0.627450980392157);
#2032=COLOUR_RGB('ABS (White)',0.964705882352941,0.964705882352941,0.952941176470588);
ENDSEC;
END-ISO-10303-21;
