ISO-10303-21;
HEADER;
/* Generated by software containing ST-Developer
 * from STEP Tools, Inc. (www.steptools.com) 
 */

FILE_DESCRIPTION(
/* description */ (''),
/* implementation_level */ '2;1');

FILE_NAME(
/* name */ 'Upper Leg lower hoop right.step',
/* time_stamp */ '2025-09-22T17:46:02+02:00',
/* author */ (''),
/* organization */ (''),
/* preprocessor_version */ 'ST-DEVELOPER v20.1',
/* originating_system */ 'Autodesk Translation Framework v14.17.0.0',
/* authorisation */ '');

FILE_SCHEMA (('AUTOMOTIVE_DESIGN { 1 0 10303 214 3 1 1 }'));
ENDSEC;

DATA;
#10=MECHANICAL_DESIGN_GEOMETRIC_PRESENTATION_REPRESENTATION('',(#17),#1172);
#11=ITEM_DEFINED_TRANSFORMATION($,$,#701,#776);
#12=(
REPRESENTATION_RELATIONSHIP($,$,#1183,#1182)
REPRESENTATION_RELATIONSHIP_WITH_TRANSFORMATION(#11)
SHAPE_REPRESENTATION_RELATIONSHIP()
);
#13=CONTEXT_DEPENDENT_SHAPE_REPRESENTATION(#12,#1181);
#14=NEXT_ASSEMBLY_USAGE_OCCURRENCE('Upper Leg lower hoop right:1',
'Upper Leg lower hoop right:1','Upper Leg lower hoop right:1',#1185,#1186,
'Upper Leg lower hoop right:1');
#15=SHAPE_REPRESENTATION_RELATIONSHIP('SRR','None',#1183,#16);
#16=ADVANCED_BREP_SHAPE_REPRESENTATION('',(#18),#1171);
#17=STYLED_ITEM('',(#1197),#18);
#18=MANIFOLD_SOLID_BREP('Body1',#687);
#19=CONICAL_SURFACE('',#761,14.5,0.785398163397445);
#20=FACE_BOUND('',#125,.T.);
#21=FACE_BOUND('',#126,.T.);
#22=FACE_BOUND('',#127,.T.);
#23=FACE_BOUND('',#128,.T.);
#24=FACE_BOUND('',#129,.T.);
#25=FACE_BOUND('',#130,.T.);
#26=FACE_BOUND('',#131,.T.);
#27=FACE_BOUND('',#132,.T.);
#28=FACE_BOUND('',#133,.T.);
#29=FACE_BOUND('',#134,.T.);
#30=FACE_BOUND('',#135,.T.);
#31=FACE_BOUND('',#136,.T.);
#32=FACE_BOUND('',#137,.T.);
#33=FACE_BOUND('',#139,.T.);
#34=FACE_BOUND('',#152,.T.);
#35=FACE_BOUND('',#153,.T.);
#36=FACE_BOUND('',#154,.T.);
#37=FACE_BOUND('',#157,.T.);
#38=FACE_BOUND('',#158,.T.);
#39=FACE_BOUND('',#159,.T.);
#40=FACE_BOUND('',#160,.T.);
#41=FACE_BOUND('',#161,.T.);
#42=FACE_BOUND('',#162,.T.);
#43=FACE_BOUND('',#163,.T.);
#44=FACE_BOUND('',#164,.T.);
#45=FACE_BOUND('',#165,.T.);
#46=FACE_BOUND('',#166,.T.);
#47=FACE_BOUND('',#167,.T.);
#48=FACE_BOUND('',#168,.T.);
#49=FACE_BOUND('',#169,.T.);
#50=PLANE('',#705);
#51=PLANE('',#709);
#52=PLANE('',#713);
#53=PLANE('',#753);
#54=PLANE('',#755);
#55=PLANE('',#759);
#56=PLANE('',#760);
#57=PLANE('',#763);
#58=PLANE('',#764);
#59=PLANE('',#765);
#60=PLANE('',#766);
#61=PLANE('',#767);
#62=PLANE('',#768);
#63=PLANE('',#769);
#64=PLANE('',#770);
#65=PLANE('',#771);
#66=PLANE('',#772);
#67=PLANE('',#774);
#68=FACE_OUTER_BOUND('',#105,.T.);
#69=FACE_OUTER_BOUND('',#106,.T.);
#70=FACE_OUTER_BOUND('',#107,.T.);
#71=FACE_OUTER_BOUND('',#108,.T.);
#72=FACE_OUTER_BOUND('',#109,.T.);
#73=FACE_OUTER_BOUND('',#110,.T.);
#74=FACE_OUTER_BOUND('',#111,.T.);
#75=FACE_OUTER_BOUND('',#112,.T.);
#76=FACE_OUTER_BOUND('',#113,.T.);
#77=FACE_OUTER_BOUND('',#114,.T.);
#78=FACE_OUTER_BOUND('',#115,.T.);
#79=FACE_OUTER_BOUND('',#116,.T.);
#80=FACE_OUTER_BOUND('',#117,.T.);
#81=FACE_OUTER_BOUND('',#118,.T.);
#82=FACE_OUTER_BOUND('',#119,.T.);
#83=FACE_OUTER_BOUND('',#120,.T.);
#84=FACE_OUTER_BOUND('',#121,.T.);
#85=FACE_OUTER_BOUND('',#122,.T.);
#86=FACE_OUTER_BOUND('',#123,.T.);
#87=FACE_OUTER_BOUND('',#124,.T.);
#88=FACE_OUTER_BOUND('',#138,.T.);
#89=FACE_OUTER_BOUND('',#140,.T.);
#90=FACE_OUTER_BOUND('',#141,.T.);
#91=FACE_OUTER_BOUND('',#142,.T.);
#92=FACE_OUTER_BOUND('',#143,.T.);
#93=FACE_OUTER_BOUND('',#144,.T.);
#94=FACE_OUTER_BOUND('',#145,.T.);
#95=FACE_OUTER_BOUND('',#146,.T.);
#96=FACE_OUTER_BOUND('',#147,.T.);
#97=FACE_OUTER_BOUND('',#148,.T.);
#98=FACE_OUTER_BOUND('',#149,.T.);
#99=FACE_OUTER_BOUND('',#150,.T.);
#100=FACE_OUTER_BOUND('',#151,.T.);
#101=FACE_OUTER_BOUND('',#155,.T.);
#102=FACE_OUTER_BOUND('',#156,.T.);
#103=FACE_OUTER_BOUND('',#170,.T.);
#104=FACE_OUTER_BOUND('',#171,.T.);
#105=EDGE_LOOP('',(#456,#457,#458,#459));
#106=EDGE_LOOP('',(#460));
#107=EDGE_LOOP('',(#461,#462,#463,#464));
#108=EDGE_LOOP('',(#465));
#109=EDGE_LOOP('',(#466,#467,#468,#469));
#110=EDGE_LOOP('',(#470));
#111=EDGE_LOOP('',(#471,#472,#473,#474));
#112=EDGE_LOOP('',(#475,#476,#477,#478));
#113=EDGE_LOOP('',(#479,#480,#481,#482));
#114=EDGE_LOOP('',(#483,#484,#485,#486));
#115=EDGE_LOOP('',(#487,#488,#489,#490));
#116=EDGE_LOOP('',(#491,#492,#493,#494));
#117=EDGE_LOOP('',(#495,#496,#497,#498));
#118=EDGE_LOOP('',(#499,#500,#501,#502));
#119=EDGE_LOOP('',(#503,#504,#505,#506));
#120=EDGE_LOOP('',(#507,#508,#509,#510));
#121=EDGE_LOOP('',(#511,#512,#513,#514));
#122=EDGE_LOOP('',(#515,#516,#517,#518));
#123=EDGE_LOOP('',(#519,#520,#521,#522));
#124=EDGE_LOOP('',(#523));
#125=EDGE_LOOP('',(#524));
#126=EDGE_LOOP('',(#525));
#127=EDGE_LOOP('',(#526));
#128=EDGE_LOOP('',(#527));
#129=EDGE_LOOP('',(#528));
#130=EDGE_LOOP('',(#529));
#131=EDGE_LOOP('',(#530));
#132=EDGE_LOOP('',(#531));
#133=EDGE_LOOP('',(#532));
#134=EDGE_LOOP('',(#533));
#135=EDGE_LOOP('',(#534));
#136=EDGE_LOOP('',(#535));
#137=EDGE_LOOP('',(#536));
#138=EDGE_LOOP('',(#537,#538,#539,#540,#541));
#139=EDGE_LOOP('',(#542));
#140=EDGE_LOOP('',(#543,#544,#545,#546));
#141=EDGE_LOOP('',(#547,#548,#549,#550));
#142=EDGE_LOOP('',(#551,#552,#553,#554,#555,#556));
#143=EDGE_LOOP('',(#557,#558,#559,#560));
#144=EDGE_LOOP('',(#561,#562,#563,#564));
#145=EDGE_LOOP('',(#565,#566,#567,#568));
#146=EDGE_LOOP('',(#569,#570,#571,#572));
#147=EDGE_LOOP('',(#573,#574,#575,#576));
#148=EDGE_LOOP('',(#577,#578,#579,#580));
#149=EDGE_LOOP('',(#581,#582,#583,#584));
#150=EDGE_LOOP('',(#585,#586,#587,#588));
#151=EDGE_LOOP('',(#589,#590,#591,#592,#593,#594));
#152=EDGE_LOOP('',(#595));
#153=EDGE_LOOP('',(#596));
#154=EDGE_LOOP('',(#597));
#155=EDGE_LOOP('',(#598,#599,#600,#601,#602,#603));
#156=EDGE_LOOP('',(#604,#605,#606,#607,#608));
#157=EDGE_LOOP('',(#609));
#158=EDGE_LOOP('',(#610));
#159=EDGE_LOOP('',(#611));
#160=EDGE_LOOP('',(#612));
#161=EDGE_LOOP('',(#613));
#162=EDGE_LOOP('',(#614));
#163=EDGE_LOOP('',(#615));
#164=EDGE_LOOP('',(#616));
#165=EDGE_LOOP('',(#617));
#166=EDGE_LOOP('',(#618));
#167=EDGE_LOOP('',(#619));
#168=EDGE_LOOP('',(#620));
#169=EDGE_LOOP('',(#621));
#170=EDGE_LOOP('',(#622,#623,#624,#625,#626,#627));
#171=EDGE_LOOP('',(#628,#629,#630,#631));
#172=LINE('',#988,#223);
#173=LINE('',#995,#224);
#174=LINE('',#1002,#225);
#175=LINE('',#1009,#226);
#176=LINE('',#1015,#227);
#177=LINE('',#1021,#228);
#178=LINE('',#1027,#229);
#179=LINE('',#1033,#230);
#180=LINE('',#1039,#231);
#181=LINE('',#1045,#232);
#182=LINE('',#1051,#233);
#183=LINE('',#1057,#234);
#184=LINE('',#1063,#235);
#185=LINE('',#1069,#236);
#186=LINE('',#1075,#237);
#187=LINE('',#1081,#238);
#188=LINE('',#1089,#239);
#189=LINE('',#1091,#240);
#190=LINE('',#1095,#241);
#191=LINE('',#1096,#242);
#192=LINE('',#1100,#243);
#193=LINE('',#1103,#244);
#194=LINE('',#1105,#245);
#195=LINE('',#1106,#246);
#196=LINE('',#1109,#247);
#197=LINE('',#1111,#248);
#198=LINE('',#1113,#249);
#199=LINE('',#1115,#250);
#200=LINE('',#1116,#251);
#201=LINE('',#1119,#252);
#202=LINE('',#1122,#253);
#203=LINE('',#1125,#254);
#204=LINE('',#1126,#255);
#205=LINE('',#1130,#256);
#206=LINE('',#1132,#257);
#207=LINE('',#1134,#258);
#208=LINE('',#1135,#259);
#209=LINE('',#1137,#260);
#210=LINE('',#1138,#261);
#211=LINE('',#1141,#262);
#212=LINE('',#1142,#263);
#213=LINE('',#1145,#264);
#214=LINE('',#1146,#265);
#215=LINE('',#1148,#266);
#216=LINE('',#1149,#267);
#217=LINE('',#1153,#268);
#218=LINE('',#1154,#269);
#219=LINE('',#1157,#270);
#220=LINE('',#1158,#271);
#221=LINE('',#1162,#272);
#222=LINE('',#1164,#273);
#223=VECTOR('',#785,2.05000000000001);
#224=VECTOR('',#794,2.05);
#225=VECTOR('',#803,2.05);
#226=VECTOR('',#812,0.850000000000009);
#227=VECTOR('',#819,0.849999999999991);
#228=VECTOR('',#826,0.850000000000009);
#229=VECTOR('',#833,0.850000000000009);
#230=VECTOR('',#840,0.849999999999991);
#231=VECTOR('',#847,0.850000000000009);
#232=VECTOR('',#854,0.850000000000009);
#233=VECTOR('',#861,0.850000000000009);
#234=VECTOR('',#868,0.849999999999991);
#235=VECTOR('',#875,0.850000000000009);
#236=VECTOR('',#882,0.850000000000009);
#237=VECTOR('',#889,0.849999999999991);
#238=VECTOR('',#896,11.);
#239=VECTOR('',#905,10.);
#240=VECTOR('',#906,10.);
#241=VECTOR('',#909,10.);
#242=VECTOR('',#910,10.);
#243=VECTOR('',#915,5.50000000000001);
#244=VECTOR('',#918,10.);
#245=VECTOR('',#919,10.);
#246=VECTOR('',#920,10.);
#247=VECTOR('',#923,10.);
#248=VECTOR('',#924,10.);
#249=VECTOR('',#925,10.);
#250=VECTOR('',#926,10.);
#251=VECTOR('',#927,10.);
#252=VECTOR('',#930,10.);
#253=VECTOR('',#933,10.);
#254=VECTOR('',#936,10.);
#255=VECTOR('',#937,10.);
#256=VECTOR('',#940,10.);
#257=VECTOR('',#941,10.);
#258=VECTOR('',#942,10.);
#259=VECTOR('',#943,10.);
#260=VECTOR('',#946,10.);
#261=VECTOR('',#947,10.);
#262=VECTOR('',#950,10.);
#263=VECTOR('',#951,10.);
#264=VECTOR('',#954,10.);
#265=VECTOR('',#955,10.);
#266=VECTOR('',#958,10.);
#267=VECTOR('',#959,10.);
#268=VECTOR('',#964,10.);
#269=VECTOR('',#965,10.);
#270=VECTOR('',#968,10.);
#271=VECTOR('',#969,10.);
#272=VECTOR('',#974,10.);
#273=VECTOR('',#977,10.);
#274=CIRCLE('',#703,2.05000000000001);
#275=CIRCLE('',#704,2.05000000000001);
#276=CIRCLE('',#707,2.05);
#277=CIRCLE('',#708,2.05);
#278=CIRCLE('',#711,2.05);
#279=CIRCLE('',#712,2.05);
#280=CIRCLE('',#715,0.850000000000009);
#281=CIRCLE('',#716,0.850000000000009);
#282=CIRCLE('',#718,0.849999999999991);
#283=CIRCLE('',#719,0.849999999999991);
#284=CIRCLE('',#721,0.850000000000009);
#285=CIRCLE('',#722,0.850000000000009);
#286=CIRCLE('',#724,0.850000000000009);
#287=CIRCLE('',#725,0.850000000000009);
#288=CIRCLE('',#727,0.849999999999991);
#289=CIRCLE('',#728,0.849999999999991);
#290=CIRCLE('',#730,0.850000000000009);
#291=CIRCLE('',#731,0.850000000000009);
#292=CIRCLE('',#733,0.850000000000009);
#293=CIRCLE('',#734,0.850000000000009);
#294=CIRCLE('',#736,0.850000000000009);
#295=CIRCLE('',#737,0.850000000000009);
#296=CIRCLE('',#739,0.849999999999991);
#297=CIRCLE('',#740,0.849999999999991);
#298=CIRCLE('',#742,0.850000000000009);
#299=CIRCLE('',#743,0.850000000000009);
#300=CIRCLE('',#745,0.850000000000009);
#301=CIRCLE('',#746,0.850000000000009);
#302=CIRCLE('',#748,0.849999999999991);
#303=CIRCLE('',#749,0.849999999999991);
#304=CIRCLE('',#751,11.);
#305=CIRCLE('',#752,11.);
#306=CIRCLE('',#754,5.50000000000001);
#307=CIRCLE('',#756,14.);
#308=CIRCLE('',#758,5.50000000000001);
#309=CIRCLE('',#762,15.);
#310=CIRCLE('',#773,15.);
#311=VERTEX_POINT('',#985);
#312=VERTEX_POINT('',#987);
#313=VERTEX_POINT('',#992);
#314=VERTEX_POINT('',#994);
#315=VERTEX_POINT('',#999);
#316=VERTEX_POINT('',#1001);
#317=VERTEX_POINT('',#1006);
#318=VERTEX_POINT('',#1008);
#319=VERTEX_POINT('',#1012);
#320=VERTEX_POINT('',#1014);
#321=VERTEX_POINT('',#1018);
#322=VERTEX_POINT('',#1020);
#323=VERTEX_POINT('',#1024);
#324=VERTEX_POINT('',#1026);
#325=VERTEX_POINT('',#1030);
#326=VERTEX_POINT('',#1032);
#327=VERTEX_POINT('',#1036);
#328=VERTEX_POINT('',#1038);
#329=VERTEX_POINT('',#1042);
#330=VERTEX_POINT('',#1044);
#331=VERTEX_POINT('',#1048);
#332=VERTEX_POINT('',#1050);
#333=VERTEX_POINT('',#1054);
#334=VERTEX_POINT('',#1056);
#335=VERTEX_POINT('',#1060);
#336=VERTEX_POINT('',#1062);
#337=VERTEX_POINT('',#1066);
#338=VERTEX_POINT('',#1068);
#339=VERTEX_POINT('',#1072);
#340=VERTEX_POINT('',#1074);
#341=VERTEX_POINT('',#1078);
#342=VERTEX_POINT('',#1080);
#343=VERTEX_POINT('',#1084);
#344=VERTEX_POINT('',#1087);
#345=VERTEX_POINT('',#1088);
#346=VERTEX_POINT('',#1090);
#347=VERTEX_POINT('',#1092);
#348=VERTEX_POINT('',#1094);
#349=VERTEX_POINT('',#1098);
#350=VERTEX_POINT('',#1102);
#351=VERTEX_POINT('',#1104);
#352=VERTEX_POINT('',#1108);
#353=VERTEX_POINT('',#1110);
#354=VERTEX_POINT('',#1112);
#355=VERTEX_POINT('',#1114);
#356=VERTEX_POINT('',#1118);
#357=VERTEX_POINT('',#1120);
#358=VERTEX_POINT('',#1124);
#359=VERTEX_POINT('',#1128);
#360=VERTEX_POINT('',#1129);
#361=VERTEX_POINT('',#1131);
#362=VERTEX_POINT('',#1133);
#363=VERTEX_POINT('',#1140);
#364=VERTEX_POINT('',#1144);
#365=VERTEX_POINT('',#1152);
#366=VERTEX_POINT('',#1156);
#367=VERTEX_POINT('',#1160);
#368=EDGE_CURVE('',#311,#311,#274,.T.);
#369=EDGE_CURVE('',#311,#312,#172,.T.);
#370=EDGE_CURVE('',#312,#312,#275,.T.);
#371=EDGE_CURVE('',#313,#313,#276,.T.);
#372=EDGE_CURVE('',#313,#314,#173,.T.);
#373=EDGE_CURVE('',#314,#314,#277,.T.);
#374=EDGE_CURVE('',#315,#315,#278,.T.);
#375=EDGE_CURVE('',#315,#316,#174,.T.);
#376=EDGE_CURVE('',#316,#316,#279,.T.);
#377=EDGE_CURVE('',#317,#317,#280,.T.);
#378=EDGE_CURVE('',#317,#318,#175,.T.);
#379=EDGE_CURVE('',#318,#318,#281,.T.);
#380=EDGE_CURVE('',#319,#319,#282,.T.);
#381=EDGE_CURVE('',#319,#320,#176,.T.);
#382=EDGE_CURVE('',#320,#320,#283,.T.);
#383=EDGE_CURVE('',#321,#321,#284,.T.);
#384=EDGE_CURVE('',#321,#322,#177,.T.);
#385=EDGE_CURVE('',#322,#322,#285,.T.);
#386=EDGE_CURVE('',#323,#323,#286,.T.);
#387=EDGE_CURVE('',#323,#324,#178,.T.);
#388=EDGE_CURVE('',#324,#324,#287,.T.);
#389=EDGE_CURVE('',#325,#325,#288,.T.);
#390=EDGE_CURVE('',#325,#326,#179,.T.);
#391=EDGE_CURVE('',#326,#326,#289,.T.);
#392=EDGE_CURVE('',#327,#327,#290,.T.);
#393=EDGE_CURVE('',#327,#328,#180,.T.);
#394=EDGE_CURVE('',#328,#328,#291,.T.);
#395=EDGE_CURVE('',#329,#329,#292,.T.);
#396=EDGE_CURVE('',#329,#330,#181,.T.);
#397=EDGE_CURVE('',#330,#330,#293,.T.);
#398=EDGE_CURVE('',#331,#331,#294,.T.);
#399=EDGE_CURVE('',#331,#332,#182,.T.);
#400=EDGE_CURVE('',#332,#332,#295,.T.);
#401=EDGE_CURVE('',#333,#333,#296,.T.);
#402=EDGE_CURVE('',#333,#334,#183,.T.);
#403=EDGE_CURVE('',#334,#334,#297,.T.);
#404=EDGE_CURVE('',#335,#335,#298,.T.);
#405=EDGE_CURVE('',#335,#336,#184,.T.);
#406=EDGE_CURVE('',#336,#336,#299,.T.);
#407=EDGE_CURVE('',#337,#337,#300,.T.);
#408=EDGE_CURVE('',#337,#338,#185,.T.);
#409=EDGE_CURVE('',#338,#338,#301,.T.);
#410=EDGE_CURVE('',#339,#339,#302,.T.);
#411=EDGE_CURVE('',#339,#340,#186,.T.);
#412=EDGE_CURVE('',#340,#340,#303,.T.);
#413=EDGE_CURVE('',#341,#341,#304,.T.);
#414=EDGE_CURVE('',#341,#342,#187,.T.);
#415=EDGE_CURVE('',#342,#342,#305,.T.);
#416=EDGE_CURVE('',#343,#343,#306,.T.);
#417=EDGE_CURVE('',#344,#345,#188,.T.);
#418=EDGE_CURVE('',#346,#344,#189,.T.);
#419=EDGE_CURVE('',#347,#346,#307,.T.);
#420=EDGE_CURVE('',#348,#347,#190,.T.);
#421=EDGE_CURVE('',#348,#345,#191,.T.);
#422=EDGE_CURVE('',#349,#349,#308,.T.);
#423=EDGE_CURVE('',#349,#343,#192,.T.);
#424=EDGE_CURVE('',#350,#344,#193,.T.);
#425=EDGE_CURVE('',#345,#351,#194,.F.);
#426=EDGE_CURVE('',#351,#350,#195,.T.);
#427=EDGE_CURVE('',#352,#351,#196,.T.);
#428=EDGE_CURVE('',#353,#352,#197,.T.);
#429=EDGE_CURVE('',#354,#353,#198,.T.);
#430=EDGE_CURVE('',#354,#355,#199,.T.);
#431=EDGE_CURVE('',#355,#350,#200,.T.);
#432=EDGE_CURVE('',#346,#356,#201,.F.);
#433=EDGE_CURVE('',#356,#357,#309,.T.);
#434=EDGE_CURVE('',#357,#347,#202,.T.);
#435=EDGE_CURVE('',#357,#358,#203,.T.);
#436=EDGE_CURVE('',#358,#348,#204,.T.);
#437=EDGE_CURVE('',#359,#360,#205,.T.);
#438=EDGE_CURVE('',#360,#361,#206,.T.);
#439=EDGE_CURVE('',#361,#362,#207,.T.);
#440=EDGE_CURVE('',#362,#359,#208,.T.);
#441=EDGE_CURVE('',#358,#359,#209,.T.);
#442=EDGE_CURVE('',#362,#348,#210,.T.);
#443=EDGE_CURVE('',#363,#362,#211,.T.);
#444=EDGE_CURVE('',#345,#363,#212,.T.);
#445=EDGE_CURVE('',#364,#361,#213,.T.);
#446=EDGE_CURVE('',#363,#364,#214,.T.);
#447=EDGE_CURVE('',#364,#353,#215,.T.);
#448=EDGE_CURVE('',#352,#363,#216,.T.);
#449=EDGE_CURVE('',#360,#365,#217,.T.);
#450=EDGE_CURVE('',#365,#354,#218,.T.);
#451=EDGE_CURVE('',#357,#366,#219,.T.);
#452=EDGE_CURVE('',#366,#365,#220,.T.);
#453=EDGE_CURVE('',#367,#366,#310,.T.);
#454=EDGE_CURVE('',#367,#355,#221,.T.);
#455=EDGE_CURVE('',#356,#367,#222,.T.);
#456=ORIENTED_EDGE('',*,*,#368,.F.);
#457=ORIENTED_EDGE('',*,*,#369,.T.);
#458=ORIENTED_EDGE('',*,*,#370,.T.);
#459=ORIENTED_EDGE('',*,*,#369,.F.);
#460=ORIENTED_EDGE('',*,*,#370,.F.);
#461=ORIENTED_EDGE('',*,*,#371,.F.);
#462=ORIENTED_EDGE('',*,*,#372,.T.);
#463=ORIENTED_EDGE('',*,*,#373,.T.);
#464=ORIENTED_EDGE('',*,*,#372,.F.);
#465=ORIENTED_EDGE('',*,*,#373,.F.);
#466=ORIENTED_EDGE('',*,*,#374,.F.);
#467=ORIENTED_EDGE('',*,*,#375,.T.);
#468=ORIENTED_EDGE('',*,*,#376,.T.);
#469=ORIENTED_EDGE('',*,*,#375,.F.);
#470=ORIENTED_EDGE('',*,*,#376,.F.);
#471=ORIENTED_EDGE('',*,*,#377,.T.);
#472=ORIENTED_EDGE('',*,*,#378,.T.);
#473=ORIENTED_EDGE('',*,*,#379,.F.);
#474=ORIENTED_EDGE('',*,*,#378,.F.);
#475=ORIENTED_EDGE('',*,*,#380,.T.);
#476=ORIENTED_EDGE('',*,*,#381,.T.);
#477=ORIENTED_EDGE('',*,*,#382,.F.);
#478=ORIENTED_EDGE('',*,*,#381,.F.);
#479=ORIENTED_EDGE('',*,*,#383,.T.);
#480=ORIENTED_EDGE('',*,*,#384,.T.);
#481=ORIENTED_EDGE('',*,*,#385,.F.);
#482=ORIENTED_EDGE('',*,*,#384,.F.);
#483=ORIENTED_EDGE('',*,*,#386,.T.);
#484=ORIENTED_EDGE('',*,*,#387,.T.);
#485=ORIENTED_EDGE('',*,*,#388,.F.);
#486=ORIENTED_EDGE('',*,*,#387,.F.);
#487=ORIENTED_EDGE('',*,*,#389,.T.);
#488=ORIENTED_EDGE('',*,*,#390,.T.);
#489=ORIENTED_EDGE('',*,*,#391,.F.);
#490=ORIENTED_EDGE('',*,*,#390,.F.);
#491=ORIENTED_EDGE('',*,*,#392,.T.);
#492=ORIENTED_EDGE('',*,*,#393,.T.);
#493=ORIENTED_EDGE('',*,*,#394,.F.);
#494=ORIENTED_EDGE('',*,*,#393,.F.);
#495=ORIENTED_EDGE('',*,*,#395,.T.);
#496=ORIENTED_EDGE('',*,*,#396,.T.);
#497=ORIENTED_EDGE('',*,*,#397,.F.);
#498=ORIENTED_EDGE('',*,*,#396,.F.);
#499=ORIENTED_EDGE('',*,*,#398,.T.);
#500=ORIENTED_EDGE('',*,*,#399,.T.);
#501=ORIENTED_EDGE('',*,*,#400,.F.);
#502=ORIENTED_EDGE('',*,*,#399,.F.);
#503=ORIENTED_EDGE('',*,*,#401,.T.);
#504=ORIENTED_EDGE('',*,*,#402,.T.);
#505=ORIENTED_EDGE('',*,*,#403,.F.);
#506=ORIENTED_EDGE('',*,*,#402,.F.);
#507=ORIENTED_EDGE('',*,*,#404,.T.);
#508=ORIENTED_EDGE('',*,*,#405,.T.);
#509=ORIENTED_EDGE('',*,*,#406,.F.);
#510=ORIENTED_EDGE('',*,*,#405,.F.);
#511=ORIENTED_EDGE('',*,*,#407,.T.);
#512=ORIENTED_EDGE('',*,*,#408,.T.);
#513=ORIENTED_EDGE('',*,*,#409,.F.);
#514=ORIENTED_EDGE('',*,*,#408,.F.);
#515=ORIENTED_EDGE('',*,*,#410,.T.);
#516=ORIENTED_EDGE('',*,*,#411,.T.);
#517=ORIENTED_EDGE('',*,*,#412,.F.);
#518=ORIENTED_EDGE('',*,*,#411,.F.);
#519=ORIENTED_EDGE('',*,*,#413,.F.);
#520=ORIENTED_EDGE('',*,*,#414,.T.);
#521=ORIENTED_EDGE('',*,*,#415,.T.);
#522=ORIENTED_EDGE('',*,*,#414,.F.);
#523=ORIENTED_EDGE('',*,*,#415,.F.);
#524=ORIENTED_EDGE('',*,*,#377,.F.);
#525=ORIENTED_EDGE('',*,*,#392,.F.);
#526=ORIENTED_EDGE('',*,*,#404,.F.);
#527=ORIENTED_EDGE('',*,*,#389,.F.);
#528=ORIENTED_EDGE('',*,*,#416,.F.);
#529=ORIENTED_EDGE('',*,*,#407,.F.);
#530=ORIENTED_EDGE('',*,*,#410,.F.);
#531=ORIENTED_EDGE('',*,*,#383,.F.);
#532=ORIENTED_EDGE('',*,*,#380,.F.);
#533=ORIENTED_EDGE('',*,*,#386,.F.);
#534=ORIENTED_EDGE('',*,*,#395,.F.);
#535=ORIENTED_EDGE('',*,*,#401,.F.);
#536=ORIENTED_EDGE('',*,*,#398,.F.);
#537=ORIENTED_EDGE('',*,*,#417,.F.);
#538=ORIENTED_EDGE('',*,*,#418,.F.);
#539=ORIENTED_EDGE('',*,*,#419,.F.);
#540=ORIENTED_EDGE('',*,*,#420,.F.);
#541=ORIENTED_EDGE('',*,*,#421,.T.);
#542=ORIENTED_EDGE('',*,*,#413,.T.);
#543=ORIENTED_EDGE('',*,*,#422,.F.);
#544=ORIENTED_EDGE('',*,*,#423,.T.);
#545=ORIENTED_EDGE('',*,*,#416,.T.);
#546=ORIENTED_EDGE('',*,*,#423,.F.);
#547=ORIENTED_EDGE('',*,*,#424,.T.);
#548=ORIENTED_EDGE('',*,*,#417,.T.);
#549=ORIENTED_EDGE('',*,*,#425,.T.);
#550=ORIENTED_EDGE('',*,*,#426,.T.);
#551=ORIENTED_EDGE('',*,*,#426,.F.);
#552=ORIENTED_EDGE('',*,*,#427,.F.);
#553=ORIENTED_EDGE('',*,*,#428,.F.);
#554=ORIENTED_EDGE('',*,*,#429,.F.);
#555=ORIENTED_EDGE('',*,*,#430,.T.);
#556=ORIENTED_EDGE('',*,*,#431,.T.);
#557=ORIENTED_EDGE('',*,*,#432,.T.);
#558=ORIENTED_EDGE('',*,*,#433,.T.);
#559=ORIENTED_EDGE('',*,*,#434,.T.);
#560=ORIENTED_EDGE('',*,*,#419,.T.);
#561=ORIENTED_EDGE('',*,*,#420,.T.);
#562=ORIENTED_EDGE('',*,*,#434,.F.);
#563=ORIENTED_EDGE('',*,*,#435,.T.);
#564=ORIENTED_EDGE('',*,*,#436,.T.);
#565=ORIENTED_EDGE('',*,*,#437,.T.);
#566=ORIENTED_EDGE('',*,*,#438,.T.);
#567=ORIENTED_EDGE('',*,*,#439,.T.);
#568=ORIENTED_EDGE('',*,*,#440,.T.);
#569=ORIENTED_EDGE('',*,*,#441,.T.);
#570=ORIENTED_EDGE('',*,*,#440,.F.);
#571=ORIENTED_EDGE('',*,*,#442,.T.);
#572=ORIENTED_EDGE('',*,*,#436,.F.);
#573=ORIENTED_EDGE('',*,*,#442,.F.);
#574=ORIENTED_EDGE('',*,*,#443,.F.);
#575=ORIENTED_EDGE('',*,*,#444,.F.);
#576=ORIENTED_EDGE('',*,*,#421,.F.);
#577=ORIENTED_EDGE('',*,*,#439,.F.);
#578=ORIENTED_EDGE('',*,*,#445,.F.);
#579=ORIENTED_EDGE('',*,*,#446,.F.);
#580=ORIENTED_EDGE('',*,*,#443,.T.);
#581=ORIENTED_EDGE('',*,*,#446,.T.);
#582=ORIENTED_EDGE('',*,*,#447,.T.);
#583=ORIENTED_EDGE('',*,*,#428,.T.);
#584=ORIENTED_EDGE('',*,*,#448,.T.);
#585=ORIENTED_EDGE('',*,*,#427,.T.);
#586=ORIENTED_EDGE('',*,*,#425,.F.);
#587=ORIENTED_EDGE('',*,*,#444,.T.);
#588=ORIENTED_EDGE('',*,*,#448,.F.);
#589=ORIENTED_EDGE('',*,*,#438,.F.);
#590=ORIENTED_EDGE('',*,*,#449,.T.);
#591=ORIENTED_EDGE('',*,*,#450,.T.);
#592=ORIENTED_EDGE('',*,*,#429,.T.);
#593=ORIENTED_EDGE('',*,*,#447,.F.);
#594=ORIENTED_EDGE('',*,*,#445,.T.);
#595=ORIENTED_EDGE('',*,*,#368,.T.);
#596=ORIENTED_EDGE('',*,*,#371,.T.);
#597=ORIENTED_EDGE('',*,*,#374,.T.);
#598=ORIENTED_EDGE('',*,*,#435,.F.);
#599=ORIENTED_EDGE('',*,*,#451,.T.);
#600=ORIENTED_EDGE('',*,*,#452,.T.);
#601=ORIENTED_EDGE('',*,*,#449,.F.);
#602=ORIENTED_EDGE('',*,*,#437,.F.);
#603=ORIENTED_EDGE('',*,*,#441,.F.);
#604=ORIENTED_EDGE('',*,*,#452,.F.);
#605=ORIENTED_EDGE('',*,*,#453,.F.);
#606=ORIENTED_EDGE('',*,*,#454,.T.);
#607=ORIENTED_EDGE('',*,*,#430,.F.);
#608=ORIENTED_EDGE('',*,*,#450,.F.);
#609=ORIENTED_EDGE('',*,*,#379,.T.);
#610=ORIENTED_EDGE('',*,*,#382,.T.);
#611=ORIENTED_EDGE('',*,*,#385,.T.);
#612=ORIENTED_EDGE('',*,*,#388,.T.);
#613=ORIENTED_EDGE('',*,*,#391,.T.);
#614=ORIENTED_EDGE('',*,*,#394,.T.);
#615=ORIENTED_EDGE('',*,*,#397,.T.);
#616=ORIENTED_EDGE('',*,*,#400,.T.);
#617=ORIENTED_EDGE('',*,*,#403,.T.);
#618=ORIENTED_EDGE('',*,*,#406,.T.);
#619=ORIENTED_EDGE('',*,*,#409,.T.);
#620=ORIENTED_EDGE('',*,*,#412,.T.);
#621=ORIENTED_EDGE('',*,*,#422,.T.);
#622=ORIENTED_EDGE('',*,*,#424,.F.);
#623=ORIENTED_EDGE('',*,*,#431,.F.);
#624=ORIENTED_EDGE('',*,*,#454,.F.);
#625=ORIENTED_EDGE('',*,*,#455,.F.);
#626=ORIENTED_EDGE('',*,*,#432,.F.);
#627=ORIENTED_EDGE('',*,*,#418,.T.);
#628=ORIENTED_EDGE('',*,*,#433,.F.);
#629=ORIENTED_EDGE('',*,*,#455,.T.);
#630=ORIENTED_EDGE('',*,*,#453,.T.);
#631=ORIENTED_EDGE('',*,*,#451,.F.);
#632=CYLINDRICAL_SURFACE('',#702,2.05000000000001);
#633=CYLINDRICAL_SURFACE('',#706,2.05);
#634=CYLINDRICAL_SURFACE('',#710,2.05);
#635=CYLINDRICAL_SURFACE('',#714,0.850000000000009);
#636=CYLINDRICAL_SURFACE('',#717,0.849999999999991);
#637=CYLINDRICAL_SURFACE('',#720,0.850000000000009);
#638=CYLINDRICAL_SURFACE('',#723,0.850000000000009);
#639=CYLINDRICAL_SURFACE('',#726,0.849999999999991);
#640=CYLINDRICAL_SURFACE('',#729,0.850000000000009);
#641=CYLINDRICAL_SURFACE('',#732,0.850000000000009);
#642=CYLINDRICAL_SURFACE('',#735,0.850000000000009);
#643=CYLINDRICAL_SURFACE('',#738,0.849999999999991);
#644=CYLINDRICAL_SURFACE('',#741,0.850000000000009);
#645=CYLINDRICAL_SURFACE('',#744,0.850000000000009);
#646=CYLINDRICAL_SURFACE('',#747,0.849999999999991);
#647=CYLINDRICAL_SURFACE('',#750,11.);
#648=CYLINDRICAL_SURFACE('',#757,5.50000000000001);
#649=CYLINDRICAL_SURFACE('',#775,15.);
#650=ADVANCED_FACE('',(#68),#632,.F.);
#651=ADVANCED_FACE('',(#69),#50,.T.);
#652=ADVANCED_FACE('',(#70),#633,.F.);
#653=ADVANCED_FACE('',(#71),#51,.T.);
#654=ADVANCED_FACE('',(#72),#634,.F.);
#655=ADVANCED_FACE('',(#73),#52,.T.);
#656=ADVANCED_FACE('',(#74),#635,.F.);
#657=ADVANCED_FACE('',(#75),#636,.F.);
#658=ADVANCED_FACE('',(#76),#637,.F.);
#659=ADVANCED_FACE('',(#77),#638,.F.);
#660=ADVANCED_FACE('',(#78),#639,.F.);
#661=ADVANCED_FACE('',(#79),#640,.F.);
#662=ADVANCED_FACE('',(#80),#641,.F.);
#663=ADVANCED_FACE('',(#81),#642,.F.);
#664=ADVANCED_FACE('',(#82),#643,.F.);
#665=ADVANCED_FACE('',(#83),#644,.F.);
#666=ADVANCED_FACE('',(#84),#645,.F.);
#667=ADVANCED_FACE('',(#85),#646,.F.);
#668=ADVANCED_FACE('',(#86),#647,.F.);
#669=ADVANCED_FACE('',(#87,#20,#21,#22,#23,#24,#25,#26,#27,#28,#29,#30,
#31,#32),#53,.T.);
#670=ADVANCED_FACE('',(#88,#33),#54,.T.);
#671=ADVANCED_FACE('',(#89),#648,.F.);
#672=ADVANCED_FACE('',(#90),#55,.T.);
#673=ADVANCED_FACE('',(#91),#56,.T.);
#674=ADVANCED_FACE('',(#92),#19,.T.);
#675=ADVANCED_FACE('',(#93),#57,.T.);
#676=ADVANCED_FACE('',(#94),#58,.T.);
#677=ADVANCED_FACE('',(#95),#59,.T.);
#678=ADVANCED_FACE('',(#96),#60,.T.);
#679=ADVANCED_FACE('',(#97),#61,.T.);
#680=ADVANCED_FACE('',(#98),#62,.T.);
#681=ADVANCED_FACE('',(#99),#63,.T.);
#682=ADVANCED_FACE('',(#100,#34,#35,#36),#64,.F.);
#683=ADVANCED_FACE('',(#101),#65,.T.);
#684=ADVANCED_FACE('',(#102,#37,#38,#39,#40,#41,#42,#43,#44,#45,#46,#47,
#48,#49),#66,.T.);
#685=ADVANCED_FACE('',(#103),#67,.T.);
#686=ADVANCED_FACE('',(#104),#649,.T.);
#687=CLOSED_SHELL('',(#650,#651,#652,#653,#654,#655,#656,#657,#658,#659,
#660,#661,#662,#663,#664,#665,#666,#667,#668,#669,#670,#671,#672,#673,#674,
#675,#676,#677,#678,#679,#680,#681,#682,#683,#684,#685,#686));
#688=DERIVED_UNIT_ELEMENT(#690,1.);
#689=DERIVED_UNIT_ELEMENT(#1174,-3.);
#690=(
MASS_UNIT()
NAMED_UNIT(*)
SI_UNIT(.KILO.,.GRAM.)
);
#691=DERIVED_UNIT((#688,#689));
#692=MEASURE_REPRESENTATION_ITEM('density measure',
POSITIVE_RATIO_MEASURE(7850.),#691);
#693=PROPERTY_DEFINITION_REPRESENTATION(#698,#695);
#694=PROPERTY_DEFINITION_REPRESENTATION(#699,#696);
#695=REPRESENTATION('material name',(#697),#1171);
#696=REPRESENTATION('density',(#692),#1171);
#697=DESCRIPTIVE_REPRESENTATION_ITEM('Steel','Steel');
#698=PROPERTY_DEFINITION('material property','material name',#1186);
#699=PROPERTY_DEFINITION('material property','density of part',#1186);
#700=AXIS2_PLACEMENT_3D('',#982,#777,#778);
#701=AXIS2_PLACEMENT_3D('',#983,#779,#780);
#702=AXIS2_PLACEMENT_3D('',#984,#781,#782);
#703=AXIS2_PLACEMENT_3D('',#986,#783,#784);
#704=AXIS2_PLACEMENT_3D('',#989,#786,#787);
#705=AXIS2_PLACEMENT_3D('',#990,#788,#789);
#706=AXIS2_PLACEMENT_3D('',#991,#790,#791);
#707=AXIS2_PLACEMENT_3D('',#993,#792,#793);
#708=AXIS2_PLACEMENT_3D('',#996,#795,#796);
#709=AXIS2_PLACEMENT_3D('',#997,#797,#798);
#710=AXIS2_PLACEMENT_3D('',#998,#799,#800);
#711=AXIS2_PLACEMENT_3D('',#1000,#801,#802);
#712=AXIS2_PLACEMENT_3D('',#1003,#804,#805);
#713=AXIS2_PLACEMENT_3D('',#1004,#806,#807);
#714=AXIS2_PLACEMENT_3D('',#1005,#808,#809);
#715=AXIS2_PLACEMENT_3D('',#1007,#810,#811);
#716=AXIS2_PLACEMENT_3D('',#1010,#813,#814);
#717=AXIS2_PLACEMENT_3D('',#1011,#815,#816);
#718=AXIS2_PLACEMENT_3D('',#1013,#817,#818);
#719=AXIS2_PLACEMENT_3D('',#1016,#820,#821);
#720=AXIS2_PLACEMENT_3D('',#1017,#822,#823);
#721=AXIS2_PLACEMENT_3D('',#1019,#824,#825);
#722=AXIS2_PLACEMENT_3D('',#1022,#827,#828);
#723=AXIS2_PLACEMENT_3D('',#1023,#829,#830);
#724=AXIS2_PLACEMENT_3D('',#1025,#831,#832);
#725=AXIS2_PLACEMENT_3D('',#1028,#834,#835);
#726=AXIS2_PLACEMENT_3D('',#1029,#836,#837);
#727=AXIS2_PLACEMENT_3D('',#1031,#838,#839);
#728=AXIS2_PLACEMENT_3D('',#1034,#841,#842);
#729=AXIS2_PLACEMENT_3D('',#1035,#843,#844);
#730=AXIS2_PLACEMENT_3D('',#1037,#845,#846);
#731=AXIS2_PLACEMENT_3D('',#1040,#848,#849);
#732=AXIS2_PLACEMENT_3D('',#1041,#850,#851);
#733=AXIS2_PLACEMENT_3D('',#1043,#852,#853);
#734=AXIS2_PLACEMENT_3D('',#1046,#855,#856);
#735=AXIS2_PLACEMENT_3D('',#1047,#857,#858);
#736=AXIS2_PLACEMENT_3D('',#1049,#859,#860);
#737=AXIS2_PLACEMENT_3D('',#1052,#862,#863);
#738=AXIS2_PLACEMENT_3D('',#1053,#864,#865);
#739=AXIS2_PLACEMENT_3D('',#1055,#866,#867);
#740=AXIS2_PLACEMENT_3D('',#1058,#869,#870);
#741=AXIS2_PLACEMENT_3D('',#1059,#871,#872);
#742=AXIS2_PLACEMENT_3D('',#1061,#873,#874);
#743=AXIS2_PLACEMENT_3D('',#1064,#876,#877);
#744=AXIS2_PLACEMENT_3D('',#1065,#878,#879);
#745=AXIS2_PLACEMENT_3D('',#1067,#880,#881);
#746=AXIS2_PLACEMENT_3D('',#1070,#883,#884);
#747=AXIS2_PLACEMENT_3D('',#1071,#885,#886);
#748=AXIS2_PLACEMENT_3D('',#1073,#887,#888);
#749=AXIS2_PLACEMENT_3D('',#1076,#890,#891);
#750=AXIS2_PLACEMENT_3D('',#1077,#892,#893);
#751=AXIS2_PLACEMENT_3D('',#1079,#894,#895);
#752=AXIS2_PLACEMENT_3D('',#1082,#897,#898);
#753=AXIS2_PLACEMENT_3D('',#1083,#899,#900);
#754=AXIS2_PLACEMENT_3D('',#1085,#901,#902);
#755=AXIS2_PLACEMENT_3D('',#1086,#903,#904);
#756=AXIS2_PLACEMENT_3D('',#1093,#907,#908);
#757=AXIS2_PLACEMENT_3D('',#1097,#911,#912);
#758=AXIS2_PLACEMENT_3D('',#1099,#913,#914);
#759=AXIS2_PLACEMENT_3D('',#1101,#916,#917);
#760=AXIS2_PLACEMENT_3D('',#1107,#921,#922);
#761=AXIS2_PLACEMENT_3D('',#1117,#928,#929);
#762=AXIS2_PLACEMENT_3D('',#1121,#931,#932);
#763=AXIS2_PLACEMENT_3D('',#1123,#934,#935);
#764=AXIS2_PLACEMENT_3D('',#1127,#938,#939);
#765=AXIS2_PLACEMENT_3D('',#1136,#944,#945);
#766=AXIS2_PLACEMENT_3D('',#1139,#948,#949);
#767=AXIS2_PLACEMENT_3D('',#1143,#952,#953);
#768=AXIS2_PLACEMENT_3D('',#1147,#956,#957);
#769=AXIS2_PLACEMENT_3D('',#1150,#960,#961);
#770=AXIS2_PLACEMENT_3D('',#1151,#962,#963);
#771=AXIS2_PLACEMENT_3D('',#1155,#966,#967);
#772=AXIS2_PLACEMENT_3D('',#1159,#970,#971);
#773=AXIS2_PLACEMENT_3D('',#1161,#972,#973);
#774=AXIS2_PLACEMENT_3D('',#1163,#975,#976);
#775=AXIS2_PLACEMENT_3D('',#1165,#978,#979);
#776=AXIS2_PLACEMENT_3D('',#1166,#980,#981);
#777=DIRECTION('axis',(0.,0.,1.));
#778=DIRECTION('refdir',(1.,0.,0.));
#779=DIRECTION('axis',(0.,0.,1.));
#780=DIRECTION('refdir',(1.,0.,0.));
#781=DIRECTION('center_axis',(-1.40413563392937E-9,-1.,0.));
#782=DIRECTION('ref_axis',(-1.,1.40413563392937E-9,0.));
#783=DIRECTION('center_axis',(0.,-1.,0.));
#784=DIRECTION('ref_axis',(-1.,0.,0.));
#785=DIRECTION('',(-1.40413563392937E-9,-1.,0.));
#786=DIRECTION('center_axis',(-1.40413562721431E-9,-1.,0.));
#787=DIRECTION('ref_axis',(-1.,1.40413563229154E-9,0.));
#788=DIRECTION('center_axis',(1.40413562721431E-9,1.,0.));
#789=DIRECTION('ref_axis',(-1.,1.40413562721431E-9,0.));
#790=DIRECTION('center_axis',(-1.40413563392937E-9,-1.,0.));
#791=DIRECTION('ref_axis',(-1.,1.40413563392937E-9,0.));
#792=DIRECTION('center_axis',(0.,-1.,0.));
#793=DIRECTION('ref_axis',(-1.,0.,0.));
#794=DIRECTION('',(-1.40413563392937E-9,-1.,0.));
#795=DIRECTION('center_axis',(-1.4041356341532E-9,-1.,0.));
#796=DIRECTION('ref_axis',(-1.,1.40413564075362E-9,0.));
#797=DIRECTION('center_axis',(1.4041356341532E-9,1.,0.));
#798=DIRECTION('ref_axis',(-1.,1.4041356341532E-9,0.));
#799=DIRECTION('center_axis',(-1.40413563392937E-9,-1.,0.));
#800=DIRECTION('ref_axis',(-1.,1.40413563392937E-9,0.));
#801=DIRECTION('center_axis',(0.,-1.,0.));
#802=DIRECTION('ref_axis',(-1.,0.,0.));
#803=DIRECTION('',(-1.40413563392937E-9,-1.,0.));
#804=DIRECTION('center_axis',(-1.4041356341532E-9,-1.,0.));
#805=DIRECTION('ref_axis',(-1.,1.40413564075361E-9,0.));
#806=DIRECTION('center_axis',(1.4041356341532E-9,1.,0.));
#807=DIRECTION('ref_axis',(-1.,1.4041356341532E-9,0.));
#808=DIRECTION('center_axis',(-1.,0.,0.));
#809=DIRECTION('ref_axis',(0.,1.,0.));
#810=DIRECTION('center_axis',(1.,0.,0.));
#811=DIRECTION('ref_axis',(0.,1.,0.));
#812=DIRECTION('',(-1.,0.,0.));
#813=DIRECTION('center_axis',(1.,0.,0.));
#814=DIRECTION('ref_axis',(0.,1.,0.));
#815=DIRECTION('center_axis',(-1.,0.,0.));
#816=DIRECTION('ref_axis',(0.,1.,0.));
#817=DIRECTION('center_axis',(1.,0.,0.));
#818=DIRECTION('ref_axis',(0.,1.,0.));
#819=DIRECTION('',(-1.,0.,0.));
#820=DIRECTION('center_axis',(1.,0.,0.));
#821=DIRECTION('ref_axis',(0.,1.,0.));
#822=DIRECTION('center_axis',(-1.,0.,0.));
#823=DIRECTION('ref_axis',(0.,1.,0.));
#824=DIRECTION('center_axis',(1.,0.,0.));
#825=DIRECTION('ref_axis',(0.,1.,0.));
#826=DIRECTION('',(-1.,0.,0.));
#827=DIRECTION('center_axis',(1.,0.,0.));
#828=DIRECTION('ref_axis',(0.,1.,0.));
#829=DIRECTION('center_axis',(-1.,0.,0.));
#830=DIRECTION('ref_axis',(0.,1.,0.));
#831=DIRECTION('center_axis',(1.,0.,0.));
#832=DIRECTION('ref_axis',(0.,1.,0.));
#833=DIRECTION('',(-1.,0.,0.));
#834=DIRECTION('center_axis',(1.,0.,0.));
#835=DIRECTION('ref_axis',(0.,1.,0.));
#836=DIRECTION('center_axis',(-1.,0.,0.));
#837=DIRECTION('ref_axis',(0.,1.,0.));
#838=DIRECTION('center_axis',(1.,0.,0.));
#839=DIRECTION('ref_axis',(0.,1.,0.));
#840=DIRECTION('',(-1.,0.,0.));
#841=DIRECTION('center_axis',(1.,0.,0.));
#842=DIRECTION('ref_axis',(0.,1.,0.));
#843=DIRECTION('center_axis',(-1.,0.,0.));
#844=DIRECTION('ref_axis',(0.,1.,0.));
#845=DIRECTION('center_axis',(1.,0.,0.));
#846=DIRECTION('ref_axis',(0.,1.,0.));
#847=DIRECTION('',(-1.,0.,0.));
#848=DIRECTION('center_axis',(1.,0.,0.));
#849=DIRECTION('ref_axis',(0.,1.,0.));
#850=DIRECTION('center_axis',(-1.,0.,0.));
#851=DIRECTION('ref_axis',(0.,1.,0.));
#852=DIRECTION('center_axis',(1.,0.,0.));
#853=DIRECTION('ref_axis',(0.,1.,0.));
#854=DIRECTION('',(-1.,0.,0.));
#855=DIRECTION('center_axis',(1.,0.,0.));
#856=DIRECTION('ref_axis',(0.,1.,0.));
#857=DIRECTION('center_axis',(-1.,0.,0.));
#858=DIRECTION('ref_axis',(0.,1.,0.));
#859=DIRECTION('center_axis',(1.,0.,0.));
#860=DIRECTION('ref_axis',(0.,1.,0.));
#861=DIRECTION('',(-1.,0.,0.));
#862=DIRECTION('center_axis',(1.,0.,0.));
#863=DIRECTION('ref_axis',(0.,1.,0.));
#864=DIRECTION('center_axis',(-1.,0.,0.));
#865=DIRECTION('ref_axis',(0.,1.,0.));
#866=DIRECTION('center_axis',(1.,0.,0.));
#867=DIRECTION('ref_axis',(0.,1.,0.));
#868=DIRECTION('',(-1.,0.,0.));
#869=DIRECTION('center_axis',(1.,0.,0.));
#870=DIRECTION('ref_axis',(0.,1.,0.));
#871=DIRECTION('center_axis',(-1.,0.,0.));
#872=DIRECTION('ref_axis',(0.,1.,0.));
#873=DIRECTION('center_axis',(1.,0.,0.));
#874=DIRECTION('ref_axis',(0.,1.,0.));
#875=DIRECTION('',(-1.,0.,0.));
#876=DIRECTION('center_axis',(1.,0.,0.));
#877=DIRECTION('ref_axis',(0.,1.,0.));
#878=DIRECTION('center_axis',(-1.,0.,0.));
#879=DIRECTION('ref_axis',(0.,1.,0.));
#880=DIRECTION('center_axis',(1.,0.,0.));
#881=DIRECTION('ref_axis',(0.,1.,0.));
#882=DIRECTION('',(-1.,0.,0.));
#883=DIRECTION('center_axis',(1.,0.,0.));
#884=DIRECTION('ref_axis',(0.,1.,0.));
#885=DIRECTION('center_axis',(-1.,0.,0.));
#886=DIRECTION('ref_axis',(0.,1.,0.));
#887=DIRECTION('center_axis',(1.,0.,0.));
#888=DIRECTION('ref_axis',(0.,1.,0.));
#889=DIRECTION('',(-1.,0.,0.));
#890=DIRECTION('center_axis',(1.,0.,0.));
#891=DIRECTION('ref_axis',(0.,1.,0.));
#892=DIRECTION('center_axis',(-1.,0.,0.));
#893=DIRECTION('ref_axis',(0.,1.,0.));
#894=DIRECTION('center_axis',(-1.,0.,0.));
#895=DIRECTION('ref_axis',(0.,1.,0.));
#896=DIRECTION('',(-1.,0.,0.));
#897=DIRECTION('center_axis',(-1.,0.,0.));
#898=DIRECTION('ref_axis',(0.,1.,0.));
#899=DIRECTION('center_axis',(1.,0.,0.));
#900=DIRECTION('ref_axis',(0.,1.,0.));
#901=DIRECTION('center_axis',(1.,0.,0.));
#902=DIRECTION('ref_axis',(0.,1.,0.));
#903=DIRECTION('center_axis',(1.,0.,0.));
#904=DIRECTION('ref_axis',(0.,1.,0.));
#905=DIRECTION('',(0.,1.,0.));
#906=DIRECTION('',(0.,0.,1.));
#907=DIRECTION('center_axis',(-1.,0.,0.));
#908=DIRECTION('ref_axis',(0.,-1.,0.));
#909=DIRECTION('',(0.,-1.,0.));
#910=DIRECTION('',(0.,0.,1.));
#911=DIRECTION('center_axis',(-1.,0.,0.));
#912=DIRECTION('ref_axis',(0.,1.,0.));
#913=DIRECTION('center_axis',(1.,0.,0.));
#914=DIRECTION('ref_axis',(0.,1.,0.));
#915=DIRECTION('',(1.,0.,0.));
#916=DIRECTION('center_axis',(0.707106781186553,0.,0.707106781186543));
#917=DIRECTION('ref_axis',(0.707106781186543,0.,-0.707106781186553));
#918=DIRECTION('',(0.707106781186543,0.,-0.707106781186553));
#919=DIRECTION('',(0.678598344545843,-0.281084637714817,-0.678598344545853));
#920=DIRECTION('',(0.,-1.,0.));
#921=DIRECTION('center_axis',(0.,0.,1.));
#922=DIRECTION('ref_axis',(1.,0.,0.));
#923=DIRECTION('',(-0.707106781186548,-0.707106781186547,0.));
#924=DIRECTION('',(0.,-1.,0.));
#925=DIRECTION('',(1.,0.,0.));
#926=DIRECTION('',(0.,-1.,0.));
#927=DIRECTION('',(1.,0.,0.));
#928=DIRECTION('center_axis',(-1.,0.,0.));
#929=DIRECTION('ref_axis',(0.,-1.,0.));
#930=DIRECTION('',(0.707104792043437,0.,-0.707108770324062));
#931=DIRECTION('center_axis',(1.,0.,0.));
#932=DIRECTION('ref_axis',(0.,-1.,0.));
#933=DIRECTION('',(0.707106781186549,0.,0.707106781186546));
#934=DIRECTION('center_axis',(0.707106781186546,0.,-0.707106781186549));
#935=DIRECTION('ref_axis',(-0.707106781186549,0.,-0.707106781186546));
#936=DIRECTION('',(0.,1.,0.));
#937=DIRECTION('',(0.678598344545848,-0.281084637714821,0.678598344545846));
#938=DIRECTION('center_axis',(0.707106781186546,0.,-0.707106781186549));
#939=DIRECTION('ref_axis',(-0.707106781186549,0.,-0.707106781186546));
#940=DIRECTION('',(0.,1.,0.));
#941=DIRECTION('',(0.707106781186549,0.,0.707106781186546));
#942=DIRECTION('',(0.,-1.,0.));
#943=DIRECTION('',(-0.67859834454585,0.28108463771481,-0.678598344545848));
#944=DIRECTION('center_axis',(0.5,-0.5,-0.707106781186547));
#945=DIRECTION('ref_axis',(-0.816496580927726,0.,-0.577350269189626));
#946=DIRECTION('',(0.707106781186548,0.707106781186547,0.));
#947=DIRECTION('',(-0.707106781186548,-0.707106781186547,0.));
#948=DIRECTION('center_axis',(0.707106781186547,-0.707106781186548,0.));
#949=DIRECTION('ref_axis',(0.,0.,-1.));
#950=DIRECTION('',(0.,0.,-1.));
#951=DIRECTION('',(0.707106781186548,0.707106781186547,0.));
#952=DIRECTION('center_axis',(1.,0.,0.));
#953=DIRECTION('ref_axis',(0.,0.,-1.));
#954=DIRECTION('',(0.,0.,-1.));
#955=DIRECTION('',(0.,1.,0.));
#956=DIRECTION('center_axis',(0.707106781186553,0.,0.707106781186542));
#957=DIRECTION('ref_axis',(0.707106781186542,0.,-0.707106781186553));
#958=DIRECTION('',(-0.707106781186542,0.,0.707106781186553));
#959=DIRECTION('',(0.678598344545841,-0.28108463771482,-0.678598344545854));
#960=DIRECTION('center_axis',(0.500000000000004,-0.500000000000004,0.707106781186542));
#961=DIRECTION('ref_axis',(0.816496580927722,0.,-0.577350269189632));
#962=DIRECTION('center_axis',(0.,-1.,0.));
#963=DIRECTION('ref_axis',(-1.,0.,0.));
#964=DIRECTION('',(-1.,0.,0.));
#965=DIRECTION('',(0.,0.,1.));
#966=DIRECTION('center_axis',(0.,0.,-1.));
#967=DIRECTION('ref_axis',(0.,-1.,0.));
#968=DIRECTION('',(-1.,0.,0.));
#969=DIRECTION('',(0.,1.,0.));
#970=DIRECTION('center_axis',(-1.,0.,0.));
#971=DIRECTION('ref_axis',(0.,-1.,0.));
#972=DIRECTION('center_axis',(1.,0.,0.));
#973=DIRECTION('ref_axis',(0.,1.,0.));
#974=DIRECTION('',(0.,0.,1.));
#975=DIRECTION('center_axis',(0.,-1.,0.));
#976=DIRECTION('ref_axis',(1.,0.,0.));
#977=DIRECTION('',(-1.,0.,0.));
#978=DIRECTION('center_axis',(-1.,0.,0.));
#979=DIRECTION('ref_axis',(0.,-0.999998687237463,-0.00162034667606891));
#980=DIRECTION('',(0.,0.,1.));
#981=DIRECTION('',(1.,0.,0.));
#982=CARTESIAN_POINT('',(0.,0.,0.));
#983=CARTESIAN_POINT('',(0.,0.,0.));
#984=CARTESIAN_POINT('Origin',(-1.10000000000002,140.00000254454,171.891729985377));
#985=CARTESIAN_POINT('',(0.9499999928389,134.9,171.891729985377));
#986=CARTESIAN_POINT('Origin',(-1.10000000716111,134.9,171.891729985377));
#987=CARTESIAN_POINT('',(0.949999978235892,124.500002541661,171.891729985377));
#988=CARTESIAN_POINT('',(0.949999999999995,140.000002541661,171.891729985377));
#989=CARTESIAN_POINT('Origin',(-1.10000002176412,124.50000254454,171.891729985377));
#990=CARTESIAN_POINT('Origin',(-1.10000002176412,124.50000254454,171.891729985377));
#991=CARTESIAN_POINT('Origin',(-1.10000000000002,140.00000254454,161.891729985377));
#992=CARTESIAN_POINT('',(0.949999992838887,134.9,161.891729985377));
#993=CARTESIAN_POINT('Origin',(-1.10000000716111,134.9,161.891729985377));
#994=CARTESIAN_POINT('',(0.949999978235879,124.500002541661,161.891729985377));
#995=CARTESIAN_POINT('',(0.949999999999982,140.000002541661,161.891729985377));
#996=CARTESIAN_POINT('Origin',(-1.10000002176412,124.50000254454,161.891729985377));
#997=CARTESIAN_POINT('Origin',(-1.10000002176412,124.50000254454,161.891729985377));
#998=CARTESIAN_POINT('Origin',(-1.10000000000002,140.00000254454,151.891735805644));
#999=CARTESIAN_POINT('',(0.949999992838889,134.9,151.891735805644));
#1000=CARTESIAN_POINT('Origin',(-1.10000000716111,134.9,151.891735805644));
#1001=CARTESIAN_POINT('',(0.949999978235881,124.500002541661,151.891735805644));
#1002=CARTESIAN_POINT('',(0.949999999999984,140.000002541661,151.891735805644));
#1003=CARTESIAN_POINT('Origin',(-1.10000002176412,124.50000254454,151.891735805644));
#1004=CARTESIAN_POINT('Origin',(-1.10000002176412,124.50000254454,151.891735805644));
#1005=CARTESIAN_POINT('Origin',(-0.600000000000023,104.9,154.891729985377));
#1006=CARTESIAN_POINT('',(-3.60000000000002,104.05,154.891729985377));
#1007=CARTESIAN_POINT('Origin',(-3.60000000000002,104.9,154.891729985377));
#1008=CARTESIAN_POINT('',(-5.10000000000002,104.05,154.891729985377));
#1009=CARTESIAN_POINT('',(-0.600000000000023,104.05,154.891729985377));
#1010=CARTESIAN_POINT('Origin',(-5.10000000000002,104.9,154.891729985377));
#1011=CARTESIAN_POINT('Origin',(-0.600000000000023,111.9,158.891729985377));
#1012=CARTESIAN_POINT('',(-3.60000000000002,111.05,158.891729985377));
#1013=CARTESIAN_POINT('Origin',(-3.60000000000002,111.9,158.891729985377));
#1014=CARTESIAN_POINT('',(-5.10000000000002,111.05,158.891729985377));
#1015=CARTESIAN_POINT('',(-0.600000000000023,111.05,158.891729985377));
#1016=CARTESIAN_POINT('Origin',(-5.10000000000002,111.9,158.891729985377));
#1017=CARTESIAN_POINT('Origin',(-0.600000000000023,111.9,164.891729985377));
#1018=CARTESIAN_POINT('',(-3.60000000000002,111.05,164.891729985377));
#1019=CARTESIAN_POINT('Origin',(-3.60000000000002,111.9,164.891729985377));
#1020=CARTESIAN_POINT('',(-5.10000000000002,111.05,164.891729985377));
#1021=CARTESIAN_POINT('',(-0.600000000000023,111.05,164.891729985377));
#1022=CARTESIAN_POINT('Origin',(-5.10000000000002,111.9,164.891729985377));
#1023=CARTESIAN_POINT('Origin',(-0.600000000000023,104.9,168.891729985377));
#1024=CARTESIAN_POINT('',(-3.60000000000002,104.05,168.891729985377));
#1025=CARTESIAN_POINT('Origin',(-3.60000000000002,104.9,168.891729985377));
#1026=CARTESIAN_POINT('',(-5.10000000000002,104.05,168.891729985377));
#1027=CARTESIAN_POINT('',(-0.600000000000023,104.05,168.891729985377));
#1028=CARTESIAN_POINT('Origin',(-5.10000000000002,104.9,168.891729985377));
#1029=CARTESIAN_POINT('Origin',(-0.600000000000023,97.9,164.891729985377));
#1030=CARTESIAN_POINT('',(-3.60000000000002,97.05,164.891729985377));
#1031=CARTESIAN_POINT('Origin',(-3.60000000000002,97.9,164.891729985377));
#1032=CARTESIAN_POINT('',(-5.10000000000002,97.05,164.891729985377));
#1033=CARTESIAN_POINT('',(-0.600000000000023,97.05,164.891729985377));
#1034=CARTESIAN_POINT('Origin',(-5.10000000000002,97.9,164.891729985377));
#1035=CARTESIAN_POINT('Origin',(-0.600000000000023,97.9,158.891729985377));
#1036=CARTESIAN_POINT('',(-3.60000000000002,97.05,158.891729985377));
#1037=CARTESIAN_POINT('Origin',(-3.60000000000002,97.9,158.891729985377));
#1038=CARTESIAN_POINT('',(-5.10000000000002,97.05,158.891729985377));
#1039=CARTESIAN_POINT('',(-0.600000000000023,97.05,158.891729985377));
#1040=CARTESIAN_POINT('Origin',(-5.10000000000002,97.9,158.891729985377));
#1041=CARTESIAN_POINT('Origin',(-0.600000000000023,97.9,161.891729985377));
#1042=CARTESIAN_POINT('',(-3.60000000000002,97.05,161.891729985377));
#1043=CARTESIAN_POINT('Origin',(-3.60000000000002,97.9,161.891729985377));
#1044=CARTESIAN_POINT('',(-5.10000000000002,97.05,161.891729985377));
#1045=CARTESIAN_POINT('',(-0.600000000000023,97.05,161.891729985377));
#1046=CARTESIAN_POINT('Origin',(-5.10000000000002,97.9,161.891729985377));
#1047=CARTESIAN_POINT('Origin',(-0.600000000000023,101.9,168.891729985377));
#1048=CARTESIAN_POINT('',(-3.60000000000002,101.05,168.891729985377));
#1049=CARTESIAN_POINT('Origin',(-3.60000000000002,101.9,168.891729985377));
#1050=CARTESIAN_POINT('',(-5.10000000000002,101.05,168.891729985377));
#1051=CARTESIAN_POINT('',(-0.600000000000023,101.05,168.891729985377));
#1052=CARTESIAN_POINT('Origin',(-5.10000000000002,101.9,168.891729985377));
#1053=CARTESIAN_POINT('Origin',(-0.600000000000023,107.9,168.891729985377));
#1054=CARTESIAN_POINT('',(-3.60000000000002,107.05,168.891729985377));
#1055=CARTESIAN_POINT('Origin',(-3.60000000000002,107.9,168.891729985377));
#1056=CARTESIAN_POINT('',(-5.10000000000002,107.05,168.891729985377));
#1057=CARTESIAN_POINT('',(-0.600000000000023,107.05,168.891729985377));
#1058=CARTESIAN_POINT('Origin',(-5.10000000000002,107.9,168.891729985377));
#1059=CARTESIAN_POINT('Origin',(-0.600000000000023,111.9,161.891729985377));
#1060=CARTESIAN_POINT('',(-3.60000000000002,111.05,161.891729985377));
#1061=CARTESIAN_POINT('Origin',(-3.60000000000002,111.9,161.891729985377));
#1062=CARTESIAN_POINT('',(-5.10000000000002,111.05,161.891729985377));
#1063=CARTESIAN_POINT('',(-0.600000000000023,111.05,161.891729985377));
#1064=CARTESIAN_POINT('Origin',(-5.10000000000002,111.9,161.891729985377));
#1065=CARTESIAN_POINT('Origin',(-0.600000000000023,107.9,154.891729985377));
#1066=CARTESIAN_POINT('',(-3.60000000000002,107.05,154.891729985377));
#1067=CARTESIAN_POINT('Origin',(-3.60000000000002,107.9,154.891729985377));
#1068=CARTESIAN_POINT('',(-5.10000000000002,107.05,154.891729985377));
#1069=CARTESIAN_POINT('',(-0.600000000000023,107.05,154.891729985377));
#1070=CARTESIAN_POINT('Origin',(-5.10000000000002,107.9,154.891729985377));
#1071=CARTESIAN_POINT('Origin',(-0.600000000000023,101.9,154.891729985377));
#1072=CARTESIAN_POINT('',(-3.60000000000002,101.05,154.891729985377));
#1073=CARTESIAN_POINT('Origin',(-3.60000000000002,101.9,154.891729985377));
#1074=CARTESIAN_POINT('',(-5.10000000000002,101.05,154.891729985377));
#1075=CARTESIAN_POINT('',(-0.600000000000023,101.05,154.891729985377));
#1076=CARTESIAN_POINT('Origin',(-5.10000000000002,101.9,154.891729985377));
#1077=CARTESIAN_POINT('Origin',(-0.600000000000023,104.9,161.891729985377));
#1078=CARTESIAN_POINT('',(-0.600000000000023,93.9,161.891729985377));
#1079=CARTESIAN_POINT('Origin',(-0.600000000000023,104.9,161.891729985377));
#1080=CARTESIAN_POINT('',(-3.60000000000002,93.9,161.891729985377));
#1081=CARTESIAN_POINT('',(-0.600000000000023,93.9,161.891729985377));
#1082=CARTESIAN_POINT('Origin',(-3.60000000000002,104.9,161.891729985377));
#1083=CARTESIAN_POINT('Origin',(-3.60000000000002,104.9,161.891729985377));
#1084=CARTESIAN_POINT('',(-3.60000000000002,99.4,161.891729985377));
#1085=CARTESIAN_POINT('Origin',(-3.60000000000002,104.9,161.891729985377));
#1086=CARTESIAN_POINT('Origin',(-0.600000000000023,112.4,161.891729985377));
#1087=CARTESIAN_POINT('',(-0.600000000000023,104.851389663532,175.891729985377));
#1088=CARTESIAN_POINT('',(-0.600000000000023,121.467534074566,175.891729985377));
#1089=CARTESIAN_POINT('',(-0.600000000000023,117.412847415883,175.891729985377));
#1090=CARTESIAN_POINT('',(-0.600000000000023,104.851389663532,175.891645593522));
#1091=CARTESIAN_POINT('',(-0.600000000000023,104.851389663532,176.871729985377));
#1092=CARTESIAN_POINT('',(-0.600000000000023,104.9,147.891729985377));
#1093=CARTESIAN_POINT('Origin',(-0.600000000000023,104.9,161.891729985377));
#1094=CARTESIAN_POINT('',(-0.600000000000023,121.467534074566,147.891729985377));
#1095=CARTESIAN_POINT('',(-0.600000000000023,123.65,147.891729985377));
#1096=CARTESIAN_POINT('',(-0.600000000000023,121.467534074566,154.445866013418));
#1097=CARTESIAN_POINT('Origin',(-0.600000000000023,104.9,161.891729985377));
#1098=CARTESIAN_POINT('',(-5.10000000000002,99.4,161.891729985377));
#1099=CARTESIAN_POINT('Origin',(-5.10000000000002,104.9,161.891729985377));
#1100=CARTESIAN_POINT('',(-0.600000000000023,99.4,161.891729985377));
#1101=CARTESIAN_POINT('Origin',(-1.10000000000002,117.412847415883,176.391729985377));
#1102=CARTESIAN_POINT('',(-1.60000000000002,104.851389663532,176.891729985377));
#1103=CARTESIAN_POINT('',(-2.22000000000001,104.851389663532,177.511729985377));
#1104=CARTESIAN_POINT('',(-1.60000000000002,121.881747636939,176.891729985377));
#1105=CARTESIAN_POINT('',(-0.647305752455998,121.487128758811,175.939035737833));
#1106=CARTESIAN_POINT('',(-1.60000000000002,117.412847415883,176.891729985377));
#1107=CARTESIAN_POINT('Origin',(-4.27263204122221,122.425694831766,176.891729985377));
#1108=CARTESIAN_POINT('',(1.89999999999999,125.381747636939,176.891729985377));
#1109=CARTESIAN_POINT('',(-1.1107246021921,122.371023034747,176.891729985377));
#1110=CARTESIAN_POINT('',(1.89999999999998,134.9,176.891729985377));
#1111=CARTESIAN_POINT('',(1.89999999999998,127.454731456065,176.891729985377));
#1112=CARTESIAN_POINT('',(-5.10000000000002,134.9,176.891729985377));
#1113=CARTESIAN_POINT('',(2.89999993517995,134.9,176.891729985377));
#1114=CARTESIAN_POINT('',(-5.10000000000002,104.851389663532,176.891729985377));
#1115=CARTESIAN_POINT('',(-5.10000000000002,117.412847415883,176.891729985377));
#1116=CARTESIAN_POINT('',(6.39473591755555,104.851389663532,176.891729985377));
#1117=CARTESIAN_POINT('Origin',(-1.10000000000002,104.9,161.891729985377));
#1118=CARTESIAN_POINT('',(-1.60000000000002,104.851389663532,176.891651219677));
#1119=CARTESIAN_POINT('',(-1.10000000000002,104.851389663532,176.391648406599));
#1120=CARTESIAN_POINT('',(-1.60000000000002,104.9,146.891729985377));
#1121=CARTESIAN_POINT('Origin',(-1.60000000000002,104.9,161.891729985377));
#1122=CARTESIAN_POINT('',(-1.60000000000002,104.9,146.891729985377));
#1123=CARTESIAN_POINT('Origin',(-1.10000000000002,123.65,147.391729985377));
#1124=CARTESIAN_POINT('',(-1.60000000000002,121.881747636939,146.891729985377));
#1125=CARTESIAN_POINT('',(-1.60000000000002,123.65,146.891729985377));
#1126=CARTESIAN_POINT('',(-1.60000000000002,121.881747636939,146.891729985377));
#1127=CARTESIAN_POINT('Origin',(2.39999999999998,133.691884040182,147.391729985377));
#1128=CARTESIAN_POINT('',(1.89999999999998,125.381747636939,146.891729985377));
#1129=CARTESIAN_POINT('',(1.89999999999998,134.9,146.891729985377));
#1130=CARTESIAN_POINT('',(1.89999999999998,133.691884040182,146.891729985377));
#1131=CARTESIAN_POINT('',(2.89999993517995,134.9,147.891729985377));
#1132=CARTESIAN_POINT('',(9.89999998379492,134.9,154.891729969172));
#1133=CARTESIAN_POINT('',(2.89999999999998,124.967534074566,147.891729985377));
#1134=CARTESIAN_POINT('',(2.89999999999998,133.691884040182,147.891729985377));
#1135=CARTESIAN_POINT('',(2.89999999999998,124.967534074566,147.891729985377));
#1136=CARTESIAN_POINT('Origin',(3.27956309076523,126.054203946518,147.391729985377));
#1137=CARTESIAN_POINT('',(2.92600970017196,126.407757337111,146.891729985377));
#1138=CARTESIAN_POINT('',(3.6331164813585,125.700650555924,147.891729985377));
#1139=CARTESIAN_POINT('Origin',(1.14999999999998,123.217534074566,169.391729985377));
#1140=CARTESIAN_POINT('',(2.89999999999998,124.967534074566,175.891729985377));
#1141=CARTESIAN_POINT('',(2.89999999999998,124.967534074566,176.891729985377));
#1142=CARTESIAN_POINT('',(-0.40361782100555,121.66391625356,175.891729985377));
#1143=CARTESIAN_POINT('Origin',(2.89999999999998,132.483768080364,161.945866013418));
#1144=CARTESIAN_POINT('',(2.89999993517995,134.9,175.891729985377));
#1145=CARTESIAN_POINT('',(2.89999993517995,134.9,176.891729985377));
#1146=CARTESIAN_POINT('',(2.89999999999998,127.454731456065,175.891729985377));
#1147=CARTESIAN_POINT('Origin',(2.39999999999998,127.454731456065,176.391729985377));
#1148=CARTESIAN_POINT('',(2.39999998379497,134.9,176.391730001582));
#1149=CARTESIAN_POINT('',(1.89999999999998,125.381747636939,176.891729985377));
#1150=CARTESIAN_POINT('Origin',(-0.757171211598823,122.017469644154,176.391729985377));
#1151=CARTESIAN_POINT('Origin',(2.89999993517995,134.9,176.891729985377));
#1152=CARTESIAN_POINT('',(-5.10000000000002,134.9,146.891729985377));
#1153=CARTESIAN_POINT('',(1.14999996758996,134.9,146.891729985377));
#1154=CARTESIAN_POINT('',(-5.10000000000002,134.9,176.891729985377));
#1155=CARTESIAN_POINT('Origin',(-0.600000000000023,134.9,146.891729985377));
#1156=CARTESIAN_POINT('',(-5.10000000000002,104.9,146.891729985377));
#1157=CARTESIAN_POINT('',(-0.600000000000023,104.9,146.891729985377));
#1158=CARTESIAN_POINT('',(-5.10000000000002,133.9,146.891729985377));
#1159=CARTESIAN_POINT('Origin',(-5.10000000000002,112.4,161.891729985377));
#1160=CARTESIAN_POINT('',(-5.10000000000002,104.851389663532,176.891651219677));
#1161=CARTESIAN_POINT('Origin',(-5.10000000000002,104.9,161.891729985377));
#1162=CARTESIAN_POINT('',(-5.10000000000002,104.851389663532,176.871729985377));
#1163=CARTESIAN_POINT('Origin',(-5.10000000000002,104.851389663532,176.871729985377));
#1164=CARTESIAN_POINT('',(-0.600000000000023,104.851389663532,176.891651219677));
#1165=CARTESIAN_POINT('Origin',(-0.600000000000023,104.9,161.891729985377));
#1166=CARTESIAN_POINT('',(0.,0.,0.));
#1167=UNCERTAINTY_MEASURE_WITH_UNIT(LENGTH_MEASURE(0.01),#1173,
'DISTANCE_ACCURACY_VALUE',
'Maximum model space distance between geometric entities at asserted c
onnectivities');
#1168=UNCERTAINTY_MEASURE_WITH_UNIT(LENGTH_MEASURE(0.01),#1173,
'DISTANCE_ACCURACY_VALUE',
'Maximum model space distance between geometric entities at asserted c
onnectivities');
#1169=UNCERTAINTY_MEASURE_WITH_UNIT(LENGTH_MEASURE(0.01),#1173,
'DISTANCE_ACCURACY_VALUE',
'Maximum model space distance between geometric entities at asserted c
onnectivities');
#1170=(
GEOMETRIC_REPRESENTATION_CONTEXT(3)
GLOBAL_UNCERTAINTY_ASSIGNED_CONTEXT((#1167))
GLOBAL_UNIT_ASSIGNED_CONTEXT((#1173,#1175,#1176))
REPRESENTATION_CONTEXT('','3D')
);
#1171=(
GEOMETRIC_REPRESENTATION_CONTEXT(3)
GLOBAL_UNCERTAINTY_ASSIGNED_CONTEXT((#1168))
GLOBAL_UNIT_ASSIGNED_CONTEXT((#1173,#1175,#1176))
REPRESENTATION_CONTEXT('','3D')
);
#1172=(
GEOMETRIC_REPRESENTATION_CONTEXT(3)
GLOBAL_UNCERTAINTY_ASSIGNED_CONTEXT((#1169))
GLOBAL_UNIT_ASSIGNED_CONTEXT((#1173,#1175,#1176))
REPRESENTATION_CONTEXT('','3D')
);
#1173=(
LENGTH_UNIT()
NAMED_UNIT(*)
SI_UNIT(.MILLI.,.METRE.)
);
#1174=(
LENGTH_UNIT()
NAMED_UNIT(*)
SI_UNIT($,.METRE.)
);
#1175=(
NAMED_UNIT(*)
PLANE_ANGLE_UNIT()
SI_UNIT($,.RADIAN.)
);
#1176=(
NAMED_UNIT(*)
SI_UNIT($,.STERADIAN.)
SOLID_ANGLE_UNIT()
);
#1177=SHAPE_DEFINITION_REPRESENTATION(#1179,#1182);
#1178=SHAPE_DEFINITION_REPRESENTATION(#1180,#1183);
#1179=PRODUCT_DEFINITION_SHAPE('',$,#1185);
#1180=PRODUCT_DEFINITION_SHAPE('',$,#1186);
#1181=PRODUCT_DEFINITION_SHAPE($,$,#14);
#1182=SHAPE_REPRESENTATION('',(#700,#776),#1170);
#1183=SHAPE_REPRESENTATION('',(#701),#1171);
#1184=PRODUCT_DEFINITION_CONTEXT('part definition',#1192,'design');
#1185=PRODUCT_DEFINITION('Leg V1','Leg V1 v19',#1187,#1184);
#1186=PRODUCT_DEFINITION('Upper Leg lower hoop right',
'Upper Leg lower hoop right',#1188,#1184);
#1187=PRODUCT_DEFINITION_FORMATION('',$,#1194);
#1188=PRODUCT_DEFINITION_FORMATION('',$,#1195);
#1189=PRODUCT_RELATED_PRODUCT_CATEGORY('Leg V1 v19','Leg V1 v19',(#1194));
#1190=PRODUCT_RELATED_PRODUCT_CATEGORY('Upper Leg lower hoop right',
'Upper Leg lower hoop right',(#1195));
#1191=APPLICATION_PROTOCOL_DEFINITION('international standard',
'automotive_design',2009,#1192);
#1192=APPLICATION_CONTEXT(
'Core Data for Automotive Mechanical Design Process');
#1193=PRODUCT_CONTEXT('part definition',#1192,'mechanical');
#1194=PRODUCT('Leg V1','Leg V1 v19',$,(#1193));
#1195=PRODUCT('Upper Leg lower hoop right','Upper Leg lower hoop right',
$,(#1193));
#1196=PRESENTATION_STYLE_ASSIGNMENT((#1198));
#1197=PRESENTATION_STYLE_ASSIGNMENT((#1199));
#1198=SURFACE_STYLE_USAGE(.BOTH.,#1200);
#1199=SURFACE_STYLE_USAGE(.BOTH.,#1201);
#1200=SURFACE_SIDE_STYLE('',(#1202));
#1201=SURFACE_SIDE_STYLE('',(#1203));
#1202=SURFACE_STYLE_FILL_AREA(#1204);
#1203=SURFACE_STYLE_FILL_AREA(#1205);
#1204=FILL_AREA_STYLE('Steel - Satin',(#1206));
#1205=FILL_AREA_STYLE('ABS (White)',(#1207));
#1206=FILL_AREA_STYLE_COLOUR('Steel - Satin',#1208);
#1207=FILL_AREA_STYLE_COLOUR('ABS (White)',#1209);
#1208=COLOUR_RGB('Steel - Satin',0.627450980392157,0.627450980392157,0.627450980392157);
#1209=COLOUR_RGB('ABS (White)',0.964705882352941,0.964705882352941,0.952941176470588);
ENDSEC;
END-ISO-10303-21;
