ISO-10303-21;
HEADER;
/* Generated by software containing ST-Developer
 * from STEP Tools, Inc. (www.steptools.com) 
 */

FILE_DESCRIPTION(
/* description */ (''),
/* implementation_level */ '2;1');

FILE_NAME(
/* name */ 'Upper Leg upper hoop top.step',
/* time_stamp */ '2025-09-22T17:45:37+02:00',
/* author */ (''),
/* organization */ (''),
/* preprocessor_version */ 'ST-DEVELOPER v20.1',
/* originating_system */ 'Autodesk Translation Framework v14.17.0.0',
/* authorisation */ '');

FILE_SCHEMA (('AUTOMOTIVE_DESIGN { 1 0 10303 214 3 1 1 }'));
ENDSEC;

DATA;
#10=MECHANICAL_DESIGN_GEOMETRIC_PRESENTATION_REPRESENTATION('',(#17),#1265);
#11=ITEM_DEFINED_TRANSFORMATION($,$,#749,#835);
#12=(
REPRESENTATION_RELATIONSHIP($,$,#1276,#1275)
REPRESENTATION_RELATIONSHIP_WITH_TRANSFORMATION(#11)
SHAPE_REPRESENTATION_RELATIONSHIP()
);
#13=CONTEXT_DEPENDENT_SHAPE_REPRESENTATION(#12,#1274);
#14=NEXT_ASSEMBLY_USAGE_OCCURRENCE('Upper Leg upper hoop top:1',
'Upper Leg upper hoop top:1','Upper Leg upper hoop top:1',#1278,#1279,
'Upper Leg upper hoop top:1');
#15=SHAPE_REPRESENTATION_RELATIONSHIP('SRR','None',#1276,#16);
#16=ADVANCED_BREP_SHAPE_REPRESENTATION('',(#18),#1264);
#17=STYLED_ITEM('',(#1290),#18);
#18=MANIFOLD_SOLID_BREP('Body1',#735);
#19=CONICAL_SURFACE('',#792,14.5,0.785398163397448);
#20=FACE_BOUND('',#117,.T.);
#21=FACE_BOUND('',#120,.T.);
#22=FACE_BOUND('',#123,.T.);
#23=FACE_BOUND('',#127,.T.);
#24=FACE_BOUND('',#128,.T.);
#25=FACE_BOUND('',#129,.T.);
#26=FACE_BOUND('',#130,.T.);
#27=FACE_BOUND('',#131,.T.);
#28=FACE_BOUND('',#132,.T.);
#29=FACE_BOUND('',#133,.T.);
#30=FACE_BOUND('',#134,.T.);
#31=FACE_BOUND('',#135,.T.);
#32=FACE_BOUND('',#136,.T.);
#33=FACE_BOUND('',#137,.T.);
#34=FACE_BOUND('',#138,.T.);
#35=FACE_BOUND('',#139,.T.);
#36=FACE_BOUND('',#143,.T.);
#37=FACE_BOUND('',#144,.T.);
#38=FACE_BOUND('',#145,.T.);
#39=FACE_BOUND('',#158,.T.);
#40=FACE_BOUND('',#160,.T.);
#41=FACE_BOUND('',#161,.T.);
#42=FACE_BOUND('',#162,.T.);
#43=FACE_BOUND('',#163,.T.);
#44=FACE_BOUND('',#164,.T.);
#45=FACE_BOUND('',#165,.T.);
#46=FACE_BOUND('',#166,.T.);
#47=FACE_BOUND('',#167,.T.);
#48=FACE_BOUND('',#168,.T.);
#49=FACE_BOUND('',#169,.T.);
#50=FACE_BOUND('',#170,.T.);
#51=FACE_BOUND('',#171,.T.);
#52=FACE_BOUND('',#172,.T.);
#53=PLANE('',#753);
#54=PLANE('',#758);
#55=PLANE('',#763);
#56=PLANE('',#767);
#57=PLANE('',#768);
#58=PLANE('',#783);
#59=PLANE('',#784);
#60=PLANE('',#785);
#61=PLANE('',#786);
#62=PLANE('',#789);
#63=PLANE('',#790);
#64=PLANE('',#791);
#65=PLANE('',#794);
#66=PLANE('',#795);
#67=PLANE('',#796);
#68=PLANE('',#797);
#69=PLANE('',#800);
#70=PLANE('',#802);
#71=PLANE('',#829);
#72=PLANE('',#832);
#73=FACE_OUTER_BOUND('',#115,.T.);
#74=FACE_OUTER_BOUND('',#116,.T.);
#75=FACE_OUTER_BOUND('',#118,.T.);
#76=FACE_OUTER_BOUND('',#119,.T.);
#77=FACE_OUTER_BOUND('',#121,.T.);
#78=FACE_OUTER_BOUND('',#122,.T.);
#79=FACE_OUTER_BOUND('',#124,.T.);
#80=FACE_OUTER_BOUND('',#125,.T.);
#81=FACE_OUTER_BOUND('',#126,.T.);
#82=FACE_OUTER_BOUND('',#140,.T.);
#83=FACE_OUTER_BOUND('',#141,.T.);
#84=FACE_OUTER_BOUND('',#142,.T.);
#85=FACE_OUTER_BOUND('',#146,.T.);
#86=FACE_OUTER_BOUND('',#147,.T.);
#87=FACE_OUTER_BOUND('',#148,.T.);
#88=FACE_OUTER_BOUND('',#149,.T.);
#89=FACE_OUTER_BOUND('',#150,.T.);
#90=FACE_OUTER_BOUND('',#151,.T.);
#91=FACE_OUTER_BOUND('',#152,.T.);
#92=FACE_OUTER_BOUND('',#153,.T.);
#93=FACE_OUTER_BOUND('',#154,.T.);
#94=FACE_OUTER_BOUND('',#155,.T.);
#95=FACE_OUTER_BOUND('',#156,.T.);
#96=FACE_OUTER_BOUND('',#157,.T.);
#97=FACE_OUTER_BOUND('',#159,.T.);
#98=FACE_OUTER_BOUND('',#173,.T.);
#99=FACE_OUTER_BOUND('',#174,.T.);
#100=FACE_OUTER_BOUND('',#175,.T.);
#101=FACE_OUTER_BOUND('',#176,.T.);
#102=FACE_OUTER_BOUND('',#177,.T.);
#103=FACE_OUTER_BOUND('',#178,.T.);
#104=FACE_OUTER_BOUND('',#179,.T.);
#105=FACE_OUTER_BOUND('',#180,.T.);
#106=FACE_OUTER_BOUND('',#181,.T.);
#107=FACE_OUTER_BOUND('',#182,.T.);
#108=FACE_OUTER_BOUND('',#183,.T.);
#109=FACE_OUTER_BOUND('',#184,.T.);
#110=FACE_OUTER_BOUND('',#185,.T.);
#111=FACE_OUTER_BOUND('',#186,.T.);
#112=FACE_OUTER_BOUND('',#187,.T.);
#113=FACE_OUTER_BOUND('',#188,.T.);
#114=FACE_OUTER_BOUND('',#189,.T.);
#115=EDGE_LOOP('',(#486,#487,#488,#489));
#116=EDGE_LOOP('',(#490));
#117=EDGE_LOOP('',(#491));
#118=EDGE_LOOP('',(#492,#493,#494,#495));
#119=EDGE_LOOP('',(#496));
#120=EDGE_LOOP('',(#497));
#121=EDGE_LOOP('',(#498,#499,#500,#501));
#122=EDGE_LOOP('',(#502));
#123=EDGE_LOOP('',(#503));
#124=EDGE_LOOP('',(#504,#505,#506,#507));
#125=EDGE_LOOP('',(#508));
#126=EDGE_LOOP('',(#509,#510,#511,#512));
#127=EDGE_LOOP('',(#513));
#128=EDGE_LOOP('',(#514));
#129=EDGE_LOOP('',(#515));
#130=EDGE_LOOP('',(#516));
#131=EDGE_LOOP('',(#517));
#132=EDGE_LOOP('',(#518));
#133=EDGE_LOOP('',(#519));
#134=EDGE_LOOP('',(#520));
#135=EDGE_LOOP('',(#521));
#136=EDGE_LOOP('',(#522));
#137=EDGE_LOOP('',(#523));
#138=EDGE_LOOP('',(#524));
#139=EDGE_LOOP('',(#525));
#140=EDGE_LOOP('',(#526,#527,#528,#529));
#141=EDGE_LOOP('',(#530,#531,#532,#533));
#142=EDGE_LOOP('',(#534,#535,#536,#537,#538,#539));
#143=EDGE_LOOP('',(#540));
#144=EDGE_LOOP('',(#541));
#145=EDGE_LOOP('',(#542));
#146=EDGE_LOOP('',(#543,#544,#545,#546,#547,#548));
#147=EDGE_LOOP('',(#549,#550,#551,#552));
#148=EDGE_LOOP('',(#553,#554,#555,#556,#557,#558));
#149=EDGE_LOOP('',(#559,#560,#561,#562));
#150=EDGE_LOOP('',(#563,#564,#565,#566));
#151=EDGE_LOOP('',(#567,#568,#569,#570));
#152=EDGE_LOOP('',(#571,#572,#573,#574));
#153=EDGE_LOOP('',(#575,#576,#577,#578));
#154=EDGE_LOOP('',(#579,#580,#581,#582));
#155=EDGE_LOOP('',(#583,#584,#585,#586));
#156=EDGE_LOOP('',(#587,#588,#589,#590));
#157=EDGE_LOOP('',(#591,#592,#593,#594));
#158=EDGE_LOOP('',(#595));
#159=EDGE_LOOP('',(#596));
#160=EDGE_LOOP('',(#597));
#161=EDGE_LOOP('',(#598));
#162=EDGE_LOOP('',(#599));
#163=EDGE_LOOP('',(#600));
#164=EDGE_LOOP('',(#601));
#165=EDGE_LOOP('',(#602));
#166=EDGE_LOOP('',(#603));
#167=EDGE_LOOP('',(#604));
#168=EDGE_LOOP('',(#605));
#169=EDGE_LOOP('',(#606));
#170=EDGE_LOOP('',(#607));
#171=EDGE_LOOP('',(#608));
#172=EDGE_LOOP('',(#609));
#173=EDGE_LOOP('',(#610,#611,#612,#613));
#174=EDGE_LOOP('',(#614,#615,#616,#617));
#175=EDGE_LOOP('',(#618,#619,#620,#621));
#176=EDGE_LOOP('',(#622,#623,#624,#625));
#177=EDGE_LOOP('',(#626,#627,#628,#629));
#178=EDGE_LOOP('',(#630,#631,#632,#633));
#179=EDGE_LOOP('',(#634,#635,#636,#637));
#180=EDGE_LOOP('',(#638,#639,#640,#641));
#181=EDGE_LOOP('',(#642,#643,#644,#645));
#182=EDGE_LOOP('',(#646,#647,#648,#649));
#183=EDGE_LOOP('',(#650,#651,#652,#653));
#184=EDGE_LOOP('',(#654,#655,#656,#657));
#185=EDGE_LOOP('',(#658,#659,#660,#661));
#186=EDGE_LOOP('',(#662));
#187=EDGE_LOOP('',(#663,#664,#665,#666));
#188=EDGE_LOOP('',(#667));
#189=EDGE_LOOP('',(#668,#669,#670,#671));
#190=LINE('',#1068,#240);
#191=LINE('',#1077,#241);
#192=LINE('',#1086,#242);
#193=LINE('',#1093,#243);
#194=LINE('',#1099,#244);
#195=LINE('',#1103,#245);
#196=LINE('',#1104,#246);
#197=LINE('',#1134,#247);
#198=LINE('',#1136,#248);
#199=LINE('',#1138,#249);
#200=LINE('',#1139,#250);
#201=LINE('',#1142,#251);
#202=LINE('',#1144,#252);
#203=LINE('',#1145,#253);
#204=LINE('',#1148,#254);
#205=LINE('',#1149,#255);
#206=LINE('',#1151,#256);
#207=LINE('',#1152,#257);
#208=LINE('',#1156,#258);
#209=LINE('',#1158,#259);
#210=LINE('',#1159,#260);
#211=LINE('',#1160,#261);
#212=LINE('',#1164,#262);
#213=LINE('',#1167,#263);
#214=LINE('',#1169,#264);
#215=LINE('',#1170,#265);
#216=LINE('',#1172,#266);
#217=LINE('',#1173,#267);
#218=LINE('',#1176,#268);
#219=LINE('',#1177,#269);
#220=LINE('',#1181,#270);
#221=LINE('',#1183,#271);
#222=LINE('',#1184,#272);
#223=LINE('',#1187,#273);
#224=LINE('',#1191,#274);
#225=LINE('',#1224,#275);
#226=LINE('',#1226,#276);
#227=LINE('',#1228,#277);
#228=LINE('',#1230,#278);
#229=LINE('',#1232,#279);
#230=LINE('',#1234,#280);
#231=LINE('',#1236,#281);
#232=LINE('',#1238,#282);
#233=LINE('',#1240,#283);
#234=LINE('',#1242,#284);
#235=LINE('',#1244,#285);
#236=LINE('',#1246,#286);
#237=LINE('',#1248,#287);
#238=LINE('',#1253,#288);
#239=LINE('',#1258,#289);
#240=VECTOR('',#844,2.04999999999999);
#241=VECTOR('',#855,2.05000000000001);
#242=VECTOR('',#866,2.05);
#243=VECTOR('',#875,1.55);
#244=VECTOR('',#882,10.);
#245=VECTOR('',#885,10.);
#246=VECTOR('',#886,10.);
#247=VECTOR('',#915,10.);
#248=VECTOR('',#916,10.);
#249=VECTOR('',#917,10.);
#250=VECTOR('',#918,10.);
#251=VECTOR('',#921,10.);
#252=VECTOR('',#922,10.);
#253=VECTOR('',#923,10.);
#254=VECTOR('',#926,10.);
#255=VECTOR('',#927,10.);
#256=VECTOR('',#928,10.);
#257=VECTOR('',#929,10.);
#258=VECTOR('',#932,10.);
#259=VECTOR('',#933,10.);
#260=VECTOR('',#934,10.);
#261=VECTOR('',#935,10.);
#262=VECTOR('',#940,10.);
#263=VECTOR('',#943,10.);
#264=VECTOR('',#944,10.);
#265=VECTOR('',#945,10.);
#266=VECTOR('',#948,10.);
#267=VECTOR('',#949,10.);
#268=VECTOR('',#952,10.);
#269=VECTOR('',#953,10.);
#270=VECTOR('',#958,10.);
#271=VECTOR('',#961,10.);
#272=VECTOR('',#962,10.);
#273=VECTOR('',#967,10.);
#274=VECTOR('',#972,5.49999999999999);
#275=VECTOR('',#1009,11.);
#276=VECTOR('',#1012,0.849999999999995);
#277=VECTOR('',#1015,0.849999999999995);
#278=VECTOR('',#1018,0.850000000000004);
#279=VECTOR('',#1021,0.849999999999995);
#280=VECTOR('',#1024,0.849999999999995);
#281=VECTOR('',#1027,0.850000000000004);
#282=VECTOR('',#1030,0.849999999999995);
#283=VECTOR('',#1033,0.849999999999995);
#284=VECTOR('',#1036,0.850000000000004);
#285=VECTOR('',#1039,0.849999999999995);
#286=VECTOR('',#1042,0.849999999999995);
#287=VECTOR('',#1045,0.850000000000004);
#288=VECTOR('',#1052,1.55);
#289=VECTOR('',#1059,1.55000000000001);
#290=CIRCLE('',#751,2.04999999999999);
#291=CIRCLE('',#752,2.04999999999999);
#292=CIRCLE('',#754,1.55);
#293=CIRCLE('',#756,2.05000000000001);
#294=CIRCLE('',#757,2.05000000000001);
#295=CIRCLE('',#759,1.55000000000001);
#296=CIRCLE('',#761,2.05);
#297=CIRCLE('',#762,2.05);
#298=CIRCLE('',#764,1.55);
#299=CIRCLE('',#766,1.55);
#300=CIRCLE('',#769,15.);
#301=CIRCLE('',#770,0.850000000000004);
#302=CIRCLE('',#771,0.849999999999995);
#303=CIRCLE('',#772,0.849999999999995);
#304=CIRCLE('',#773,0.850000000000004);
#305=CIRCLE('',#774,0.849999999999995);
#306=CIRCLE('',#775,0.849999999999995);
#307=CIRCLE('',#776,0.850000000000004);
#308=CIRCLE('',#777,0.849999999999995);
#309=CIRCLE('',#778,0.849999999999995);
#310=CIRCLE('',#779,0.850000000000004);
#311=CIRCLE('',#780,0.849999999999995);
#312=CIRCLE('',#781,0.849999999999995);
#313=CIRCLE('',#782,5.49999999999999);
#314=CIRCLE('',#788,15.);
#315=CIRCLE('',#793,14.);
#316=CIRCLE('',#799,5.49999999999999);
#317=CIRCLE('',#801,11.);
#318=CIRCLE('',#803,11.);
#319=CIRCLE('',#804,0.850000000000004);
#320=CIRCLE('',#805,0.849999999999995);
#321=CIRCLE('',#806,0.849999999999995);
#322=CIRCLE('',#807,0.849999999999995);
#323=CIRCLE('',#808,0.849999999999995);
#324=CIRCLE('',#809,0.849999999999995);
#325=CIRCLE('',#810,0.849999999999995);
#326=CIRCLE('',#811,0.849999999999995);
#327=CIRCLE('',#812,0.850000000000004);
#328=CIRCLE('',#813,0.850000000000004);
#329=CIRCLE('',#814,0.850000000000004);
#330=CIRCLE('',#815,0.849999999999995);
#331=CIRCLE('',#830,1.55);
#332=CIRCLE('',#833,1.55000000000001);
#333=VERTEX_POINT('',#1065);
#334=VERTEX_POINT('',#1067);
#335=VERTEX_POINT('',#1071);
#336=VERTEX_POINT('',#1074);
#337=VERTEX_POINT('',#1076);
#338=VERTEX_POINT('',#1080);
#339=VERTEX_POINT('',#1083);
#340=VERTEX_POINT('',#1085);
#341=VERTEX_POINT('',#1089);
#342=VERTEX_POINT('',#1092);
#343=VERTEX_POINT('',#1097);
#344=VERTEX_POINT('',#1098);
#345=VERTEX_POINT('',#1100);
#346=VERTEX_POINT('',#1102);
#347=VERTEX_POINT('',#1105);
#348=VERTEX_POINT('',#1107);
#349=VERTEX_POINT('',#1109);
#350=VERTEX_POINT('',#1111);
#351=VERTEX_POINT('',#1113);
#352=VERTEX_POINT('',#1115);
#353=VERTEX_POINT('',#1117);
#354=VERTEX_POINT('',#1119);
#355=VERTEX_POINT('',#1121);
#356=VERTEX_POINT('',#1123);
#357=VERTEX_POINT('',#1125);
#358=VERTEX_POINT('',#1127);
#359=VERTEX_POINT('',#1129);
#360=VERTEX_POINT('',#1132);
#361=VERTEX_POINT('',#1133);
#362=VERTEX_POINT('',#1135);
#363=VERTEX_POINT('',#1137);
#364=VERTEX_POINT('',#1141);
#365=VERTEX_POINT('',#1143);
#366=VERTEX_POINT('',#1147);
#367=VERTEX_POINT('',#1150);
#368=VERTEX_POINT('',#1154);
#369=VERTEX_POINT('',#1155);
#370=VERTEX_POINT('',#1157);
#371=VERTEX_POINT('',#1162);
#372=VERTEX_POINT('',#1166);
#373=VERTEX_POINT('',#1168);
#374=VERTEX_POINT('',#1175);
#375=VERTEX_POINT('',#1179);
#376=VERTEX_POINT('',#1190);
#377=VERTEX_POINT('',#1194);
#378=VERTEX_POINT('',#1197);
#379=VERTEX_POINT('',#1199);
#380=VERTEX_POINT('',#1201);
#381=VERTEX_POINT('',#1203);
#382=VERTEX_POINT('',#1205);
#383=VERTEX_POINT('',#1207);
#384=VERTEX_POINT('',#1209);
#385=VERTEX_POINT('',#1211);
#386=VERTEX_POINT('',#1213);
#387=VERTEX_POINT('',#1215);
#388=VERTEX_POINT('',#1217);
#389=VERTEX_POINT('',#1219);
#390=VERTEX_POINT('',#1221);
#391=VERTEX_POINT('',#1250);
#392=VERTEX_POINT('',#1255);
#393=EDGE_CURVE('',#333,#333,#290,.T.);
#394=EDGE_CURVE('',#333,#334,#190,.T.);
#395=EDGE_CURVE('',#334,#334,#291,.T.);
#396=EDGE_CURVE('',#335,#335,#292,.T.);
#397=EDGE_CURVE('',#336,#336,#293,.T.);
#398=EDGE_CURVE('',#336,#337,#191,.T.);
#399=EDGE_CURVE('',#337,#337,#294,.T.);
#400=EDGE_CURVE('',#338,#338,#295,.T.);
#401=EDGE_CURVE('',#339,#339,#296,.T.);
#402=EDGE_CURVE('',#339,#340,#192,.T.);
#403=EDGE_CURVE('',#340,#340,#297,.T.);
#404=EDGE_CURVE('',#341,#341,#298,.T.);
#405=EDGE_CURVE('',#341,#342,#193,.T.);
#406=EDGE_CURVE('',#342,#342,#299,.T.);
#407=EDGE_CURVE('',#343,#344,#194,.T.);
#408=EDGE_CURVE('',#345,#343,#300,.T.);
#409=EDGE_CURVE('',#346,#345,#195,.T.);
#410=EDGE_CURVE('',#344,#346,#196,.T.);
#411=EDGE_CURVE('',#347,#347,#301,.T.);
#412=EDGE_CURVE('',#348,#348,#302,.T.);
#413=EDGE_CURVE('',#349,#349,#303,.T.);
#414=EDGE_CURVE('',#350,#350,#304,.T.);
#415=EDGE_CURVE('',#351,#351,#305,.T.);
#416=EDGE_CURVE('',#352,#352,#306,.T.);
#417=EDGE_CURVE('',#353,#353,#307,.T.);
#418=EDGE_CURVE('',#354,#354,#308,.T.);
#419=EDGE_CURVE('',#355,#355,#309,.T.);
#420=EDGE_CURVE('',#356,#356,#310,.T.);
#421=EDGE_CURVE('',#357,#357,#311,.T.);
#422=EDGE_CURVE('',#358,#358,#312,.T.);
#423=EDGE_CURVE('',#359,#359,#313,.T.);
#424=EDGE_CURVE('',#360,#361,#197,.T.);
#425=EDGE_CURVE('',#360,#362,#198,.T.);
#426=EDGE_CURVE('',#363,#362,#199,.T.);
#427=EDGE_CURVE('',#363,#361,#200,.T.);
#428=EDGE_CURVE('',#364,#360,#201,.T.);
#429=EDGE_CURVE('',#365,#364,#202,.T.);
#430=EDGE_CURVE('',#362,#365,#203,.T.);
#431=EDGE_CURVE('',#366,#364,#204,.T.);
#432=EDGE_CURVE('',#366,#344,#205,.T.);
#433=EDGE_CURVE('',#346,#367,#206,.T.);
#434=EDGE_CURVE('',#365,#367,#207,.T.);
#435=EDGE_CURVE('',#368,#369,#208,.T.);
#436=EDGE_CURVE('',#370,#368,#209,.T.);
#437=EDGE_CURVE('',#367,#370,#210,.T.);
#438=EDGE_CURVE('',#345,#369,#211,.T.);
#439=EDGE_CURVE('',#369,#371,#314,.T.);
#440=EDGE_CURVE('',#343,#371,#212,.T.);
#441=EDGE_CURVE('',#372,#366,#213,.T.);
#442=EDGE_CURVE('',#373,#372,#214,.T.);
#443=EDGE_CURVE('',#371,#373,#215,.T.);
#444=EDGE_CURVE('',#373,#361,#216,.T.);
#445=EDGE_CURVE('',#360,#372,#217,.T.);
#446=EDGE_CURVE('',#361,#374,#218,.T.);
#447=EDGE_CURVE('',#371,#374,#219,.T.);
#448=EDGE_CURVE('',#374,#375,#315,.T.);
#449=EDGE_CURVE('',#369,#375,#220,.T.);
#450=EDGE_CURVE('',#370,#362,#221,.T.);
#451=EDGE_CURVE('',#363,#368,#222,.T.);
#452=EDGE_CURVE('',#375,#363,#223,.T.);
#453=EDGE_CURVE('',#359,#376,#224,.T.);
#454=EDGE_CURVE('',#376,#376,#316,.T.);
#455=EDGE_CURVE('',#377,#377,#317,.T.);
#456=EDGE_CURVE('',#378,#378,#318,.T.);
#457=EDGE_CURVE('',#379,#379,#319,.T.);
#458=EDGE_CURVE('',#380,#380,#320,.T.);
#459=EDGE_CURVE('',#381,#381,#321,.T.);
#460=EDGE_CURVE('',#382,#382,#322,.T.);
#461=EDGE_CURVE('',#383,#383,#323,.T.);
#462=EDGE_CURVE('',#384,#384,#324,.T.);
#463=EDGE_CURVE('',#385,#385,#325,.T.);
#464=EDGE_CURVE('',#386,#386,#326,.T.);
#465=EDGE_CURVE('',#387,#387,#327,.T.);
#466=EDGE_CURVE('',#388,#388,#328,.T.);
#467=EDGE_CURVE('',#389,#389,#329,.T.);
#468=EDGE_CURVE('',#390,#390,#330,.T.);
#469=EDGE_CURVE('',#377,#378,#225,.T.);
#470=EDGE_CURVE('',#390,#358,#226,.T.);
#471=EDGE_CURVE('',#383,#357,#227,.T.);
#472=EDGE_CURVE('',#388,#356,#228,.T.);
#473=EDGE_CURVE('',#386,#355,#229,.T.);
#474=EDGE_CURVE('',#380,#354,#230,.T.);
#475=EDGE_CURVE('',#379,#353,#231,.T.);
#476=EDGE_CURVE('',#382,#352,#232,.T.);
#477=EDGE_CURVE('',#381,#351,#233,.T.);
#478=EDGE_CURVE('',#389,#350,#234,.T.);
#479=EDGE_CURVE('',#385,#349,#235,.T.);
#480=EDGE_CURVE('',#384,#348,#236,.T.);
#481=EDGE_CURVE('',#387,#347,#237,.T.);
#482=EDGE_CURVE('',#391,#391,#331,.T.);
#483=EDGE_CURVE('',#335,#391,#238,.T.);
#484=EDGE_CURVE('',#392,#392,#332,.T.);
#485=EDGE_CURVE('',#338,#392,#239,.T.);
#486=ORIENTED_EDGE('',*,*,#393,.F.);
#487=ORIENTED_EDGE('',*,*,#394,.T.);
#488=ORIENTED_EDGE('',*,*,#395,.T.);
#489=ORIENTED_EDGE('',*,*,#394,.F.);
#490=ORIENTED_EDGE('',*,*,#395,.F.);
#491=ORIENTED_EDGE('',*,*,#396,.F.);
#492=ORIENTED_EDGE('',*,*,#397,.F.);
#493=ORIENTED_EDGE('',*,*,#398,.T.);
#494=ORIENTED_EDGE('',*,*,#399,.T.);
#495=ORIENTED_EDGE('',*,*,#398,.F.);
#496=ORIENTED_EDGE('',*,*,#399,.F.);
#497=ORIENTED_EDGE('',*,*,#400,.F.);
#498=ORIENTED_EDGE('',*,*,#401,.F.);
#499=ORIENTED_EDGE('',*,*,#402,.T.);
#500=ORIENTED_EDGE('',*,*,#403,.T.);
#501=ORIENTED_EDGE('',*,*,#402,.F.);
#502=ORIENTED_EDGE('',*,*,#403,.F.);
#503=ORIENTED_EDGE('',*,*,#404,.F.);
#504=ORIENTED_EDGE('',*,*,#404,.T.);
#505=ORIENTED_EDGE('',*,*,#405,.T.);
#506=ORIENTED_EDGE('',*,*,#406,.T.);
#507=ORIENTED_EDGE('',*,*,#405,.F.);
#508=ORIENTED_EDGE('',*,*,#406,.F.);
#509=ORIENTED_EDGE('',*,*,#407,.F.);
#510=ORIENTED_EDGE('',*,*,#408,.F.);
#511=ORIENTED_EDGE('',*,*,#409,.F.);
#512=ORIENTED_EDGE('',*,*,#410,.F.);
#513=ORIENTED_EDGE('',*,*,#411,.T.);
#514=ORIENTED_EDGE('',*,*,#412,.T.);
#515=ORIENTED_EDGE('',*,*,#413,.T.);
#516=ORIENTED_EDGE('',*,*,#414,.T.);
#517=ORIENTED_EDGE('',*,*,#415,.T.);
#518=ORIENTED_EDGE('',*,*,#416,.T.);
#519=ORIENTED_EDGE('',*,*,#417,.T.);
#520=ORIENTED_EDGE('',*,*,#418,.T.);
#521=ORIENTED_EDGE('',*,*,#419,.T.);
#522=ORIENTED_EDGE('',*,*,#420,.T.);
#523=ORIENTED_EDGE('',*,*,#421,.T.);
#524=ORIENTED_EDGE('',*,*,#422,.T.);
#525=ORIENTED_EDGE('',*,*,#423,.T.);
#526=ORIENTED_EDGE('',*,*,#424,.F.);
#527=ORIENTED_EDGE('',*,*,#425,.T.);
#528=ORIENTED_EDGE('',*,*,#426,.F.);
#529=ORIENTED_EDGE('',*,*,#427,.T.);
#530=ORIENTED_EDGE('',*,*,#428,.F.);
#531=ORIENTED_EDGE('',*,*,#429,.F.);
#532=ORIENTED_EDGE('',*,*,#430,.F.);
#533=ORIENTED_EDGE('',*,*,#425,.F.);
#534=ORIENTED_EDGE('',*,*,#431,.F.);
#535=ORIENTED_EDGE('',*,*,#432,.T.);
#536=ORIENTED_EDGE('',*,*,#410,.T.);
#537=ORIENTED_EDGE('',*,*,#433,.T.);
#538=ORIENTED_EDGE('',*,*,#434,.F.);
#539=ORIENTED_EDGE('',*,*,#429,.T.);
#540=ORIENTED_EDGE('',*,*,#393,.T.);
#541=ORIENTED_EDGE('',*,*,#397,.T.);
#542=ORIENTED_EDGE('',*,*,#401,.T.);
#543=ORIENTED_EDGE('',*,*,#435,.F.);
#544=ORIENTED_EDGE('',*,*,#436,.F.);
#545=ORIENTED_EDGE('',*,*,#437,.F.);
#546=ORIENTED_EDGE('',*,*,#433,.F.);
#547=ORIENTED_EDGE('',*,*,#409,.T.);
#548=ORIENTED_EDGE('',*,*,#438,.T.);
#549=ORIENTED_EDGE('',*,*,#439,.F.);
#550=ORIENTED_EDGE('',*,*,#438,.F.);
#551=ORIENTED_EDGE('',*,*,#408,.T.);
#552=ORIENTED_EDGE('',*,*,#440,.T.);
#553=ORIENTED_EDGE('',*,*,#441,.F.);
#554=ORIENTED_EDGE('',*,*,#442,.F.);
#555=ORIENTED_EDGE('',*,*,#443,.F.);
#556=ORIENTED_EDGE('',*,*,#440,.F.);
#557=ORIENTED_EDGE('',*,*,#407,.T.);
#558=ORIENTED_EDGE('',*,*,#432,.F.);
#559=ORIENTED_EDGE('',*,*,#424,.T.);
#560=ORIENTED_EDGE('',*,*,#444,.F.);
#561=ORIENTED_EDGE('',*,*,#442,.T.);
#562=ORIENTED_EDGE('',*,*,#445,.F.);
#563=ORIENTED_EDGE('',*,*,#446,.T.);
#564=ORIENTED_EDGE('',*,*,#447,.F.);
#565=ORIENTED_EDGE('',*,*,#443,.T.);
#566=ORIENTED_EDGE('',*,*,#444,.T.);
#567=ORIENTED_EDGE('',*,*,#447,.T.);
#568=ORIENTED_EDGE('',*,*,#448,.T.);
#569=ORIENTED_EDGE('',*,*,#449,.F.);
#570=ORIENTED_EDGE('',*,*,#439,.T.);
#571=ORIENTED_EDGE('',*,*,#426,.T.);
#572=ORIENTED_EDGE('',*,*,#450,.F.);
#573=ORIENTED_EDGE('',*,*,#436,.T.);
#574=ORIENTED_EDGE('',*,*,#451,.F.);
#575=ORIENTED_EDGE('',*,*,#430,.T.);
#576=ORIENTED_EDGE('',*,*,#434,.T.);
#577=ORIENTED_EDGE('',*,*,#437,.T.);
#578=ORIENTED_EDGE('',*,*,#450,.T.);
#579=ORIENTED_EDGE('',*,*,#435,.T.);
#580=ORIENTED_EDGE('',*,*,#449,.T.);
#581=ORIENTED_EDGE('',*,*,#452,.T.);
#582=ORIENTED_EDGE('',*,*,#451,.T.);
#583=ORIENTED_EDGE('',*,*,#441,.T.);
#584=ORIENTED_EDGE('',*,*,#431,.T.);
#585=ORIENTED_EDGE('',*,*,#428,.T.);
#586=ORIENTED_EDGE('',*,*,#445,.T.);
#587=ORIENTED_EDGE('',*,*,#423,.F.);
#588=ORIENTED_EDGE('',*,*,#453,.T.);
#589=ORIENTED_EDGE('',*,*,#454,.T.);
#590=ORIENTED_EDGE('',*,*,#453,.F.);
#591=ORIENTED_EDGE('',*,*,#446,.F.);
#592=ORIENTED_EDGE('',*,*,#427,.F.);
#593=ORIENTED_EDGE('',*,*,#452,.F.);
#594=ORIENTED_EDGE('',*,*,#448,.F.);
#595=ORIENTED_EDGE('',*,*,#455,.T.);
#596=ORIENTED_EDGE('',*,*,#456,.F.);
#597=ORIENTED_EDGE('',*,*,#457,.F.);
#598=ORIENTED_EDGE('',*,*,#458,.F.);
#599=ORIENTED_EDGE('',*,*,#459,.F.);
#600=ORIENTED_EDGE('',*,*,#460,.F.);
#601=ORIENTED_EDGE('',*,*,#461,.F.);
#602=ORIENTED_EDGE('',*,*,#462,.F.);
#603=ORIENTED_EDGE('',*,*,#463,.F.);
#604=ORIENTED_EDGE('',*,*,#454,.F.);
#605=ORIENTED_EDGE('',*,*,#464,.F.);
#606=ORIENTED_EDGE('',*,*,#465,.F.);
#607=ORIENTED_EDGE('',*,*,#466,.F.);
#608=ORIENTED_EDGE('',*,*,#467,.F.);
#609=ORIENTED_EDGE('',*,*,#468,.F.);
#610=ORIENTED_EDGE('',*,*,#455,.F.);
#611=ORIENTED_EDGE('',*,*,#469,.T.);
#612=ORIENTED_EDGE('',*,*,#456,.T.);
#613=ORIENTED_EDGE('',*,*,#469,.F.);
#614=ORIENTED_EDGE('',*,*,#468,.T.);
#615=ORIENTED_EDGE('',*,*,#470,.T.);
#616=ORIENTED_EDGE('',*,*,#422,.F.);
#617=ORIENTED_EDGE('',*,*,#470,.F.);
#618=ORIENTED_EDGE('',*,*,#461,.T.);
#619=ORIENTED_EDGE('',*,*,#471,.T.);
#620=ORIENTED_EDGE('',*,*,#421,.F.);
#621=ORIENTED_EDGE('',*,*,#471,.F.);
#622=ORIENTED_EDGE('',*,*,#466,.T.);
#623=ORIENTED_EDGE('',*,*,#472,.T.);
#624=ORIENTED_EDGE('',*,*,#420,.F.);
#625=ORIENTED_EDGE('',*,*,#472,.F.);
#626=ORIENTED_EDGE('',*,*,#464,.T.);
#627=ORIENTED_EDGE('',*,*,#473,.T.);
#628=ORIENTED_EDGE('',*,*,#419,.F.);
#629=ORIENTED_EDGE('',*,*,#473,.F.);
#630=ORIENTED_EDGE('',*,*,#458,.T.);
#631=ORIENTED_EDGE('',*,*,#474,.T.);
#632=ORIENTED_EDGE('',*,*,#418,.F.);
#633=ORIENTED_EDGE('',*,*,#474,.F.);
#634=ORIENTED_EDGE('',*,*,#457,.T.);
#635=ORIENTED_EDGE('',*,*,#475,.T.);
#636=ORIENTED_EDGE('',*,*,#417,.F.);
#637=ORIENTED_EDGE('',*,*,#475,.F.);
#638=ORIENTED_EDGE('',*,*,#460,.T.);
#639=ORIENTED_EDGE('',*,*,#476,.T.);
#640=ORIENTED_EDGE('',*,*,#416,.F.);
#641=ORIENTED_EDGE('',*,*,#476,.F.);
#642=ORIENTED_EDGE('',*,*,#459,.T.);
#643=ORIENTED_EDGE('',*,*,#477,.T.);
#644=ORIENTED_EDGE('',*,*,#415,.F.);
#645=ORIENTED_EDGE('',*,*,#477,.F.);
#646=ORIENTED_EDGE('',*,*,#467,.T.);
#647=ORIENTED_EDGE('',*,*,#478,.T.);
#648=ORIENTED_EDGE('',*,*,#414,.F.);
#649=ORIENTED_EDGE('',*,*,#478,.F.);
#650=ORIENTED_EDGE('',*,*,#463,.T.);
#651=ORIENTED_EDGE('',*,*,#479,.T.);
#652=ORIENTED_EDGE('',*,*,#413,.F.);
#653=ORIENTED_EDGE('',*,*,#479,.F.);
#654=ORIENTED_EDGE('',*,*,#462,.T.);
#655=ORIENTED_EDGE('',*,*,#480,.T.);
#656=ORIENTED_EDGE('',*,*,#412,.F.);
#657=ORIENTED_EDGE('',*,*,#480,.F.);
#658=ORIENTED_EDGE('',*,*,#465,.T.);
#659=ORIENTED_EDGE('',*,*,#481,.T.);
#660=ORIENTED_EDGE('',*,*,#411,.F.);
#661=ORIENTED_EDGE('',*,*,#481,.F.);
#662=ORIENTED_EDGE('',*,*,#482,.F.);
#663=ORIENTED_EDGE('',*,*,#396,.T.);
#664=ORIENTED_EDGE('',*,*,#483,.T.);
#665=ORIENTED_EDGE('',*,*,#482,.T.);
#666=ORIENTED_EDGE('',*,*,#483,.F.);
#667=ORIENTED_EDGE('',*,*,#484,.F.);
#668=ORIENTED_EDGE('',*,*,#400,.T.);
#669=ORIENTED_EDGE('',*,*,#485,.T.);
#670=ORIENTED_EDGE('',*,*,#484,.T.);
#671=ORIENTED_EDGE('',*,*,#485,.F.);
#672=CYLINDRICAL_SURFACE('',#750,2.04999999999999);
#673=CYLINDRICAL_SURFACE('',#755,2.05000000000001);
#674=CYLINDRICAL_SURFACE('',#760,2.05);
#675=CYLINDRICAL_SURFACE('',#765,1.55);
#676=CYLINDRICAL_SURFACE('',#787,15.);
#677=CYLINDRICAL_SURFACE('',#798,5.49999999999999);
#678=CYLINDRICAL_SURFACE('',#816,11.);
#679=CYLINDRICAL_SURFACE('',#817,0.849999999999995);
#680=CYLINDRICAL_SURFACE('',#818,0.849999999999995);
#681=CYLINDRICAL_SURFACE('',#819,0.850000000000004);
#682=CYLINDRICAL_SURFACE('',#820,0.849999999999995);
#683=CYLINDRICAL_SURFACE('',#821,0.849999999999995);
#684=CYLINDRICAL_SURFACE('',#822,0.850000000000004);
#685=CYLINDRICAL_SURFACE('',#823,0.849999999999995);
#686=CYLINDRICAL_SURFACE('',#824,0.849999999999995);
#687=CYLINDRICAL_SURFACE('',#825,0.850000000000004);
#688=CYLINDRICAL_SURFACE('',#826,0.849999999999995);
#689=CYLINDRICAL_SURFACE('',#827,0.849999999999995);
#690=CYLINDRICAL_SURFACE('',#828,0.850000000000004);
#691=CYLINDRICAL_SURFACE('',#831,1.55);
#692=CYLINDRICAL_SURFACE('',#834,1.55000000000001);
#693=ADVANCED_FACE('',(#73),#672,.F.);
#694=ADVANCED_FACE('',(#74,#20),#53,.T.);
#695=ADVANCED_FACE('',(#75),#673,.F.);
#696=ADVANCED_FACE('',(#76,#21),#54,.T.);
#697=ADVANCED_FACE('',(#77),#674,.F.);
#698=ADVANCED_FACE('',(#78,#22),#55,.T.);
#699=ADVANCED_FACE('',(#79),#675,.F.);
#700=ADVANCED_FACE('',(#80),#56,.T.);
#701=ADVANCED_FACE('',(#81,#23,#24,#25,#26,#27,#28,#29,#30,#31,#32,#33,
#34,#35),#57,.F.);
#702=ADVANCED_FACE('',(#82),#58,.T.);
#703=ADVANCED_FACE('',(#83),#59,.T.);
#704=ADVANCED_FACE('',(#84,#36,#37,#38),#60,.F.);
#705=ADVANCED_FACE('',(#85),#61,.T.);
#706=ADVANCED_FACE('',(#86),#676,.T.);
#707=ADVANCED_FACE('',(#87),#62,.T.);
#708=ADVANCED_FACE('',(#88),#63,.T.);
#709=ADVANCED_FACE('',(#89),#64,.T.);
#710=ADVANCED_FACE('',(#90),#19,.T.);
#711=ADVANCED_FACE('',(#91),#65,.T.);
#712=ADVANCED_FACE('',(#92),#66,.T.);
#713=ADVANCED_FACE('',(#93),#67,.T.);
#714=ADVANCED_FACE('',(#94),#68,.T.);
#715=ADVANCED_FACE('',(#95),#677,.F.);
#716=ADVANCED_FACE('',(#96,#39),#69,.T.);
#717=ADVANCED_FACE('',(#97,#40,#41,#42,#43,#44,#45,#46,#47,#48,#49,#50,
#51,#52),#70,.T.);
#718=ADVANCED_FACE('',(#98),#678,.F.);
#719=ADVANCED_FACE('',(#99),#679,.F.);
#720=ADVANCED_FACE('',(#100),#680,.F.);
#721=ADVANCED_FACE('',(#101),#681,.F.);
#722=ADVANCED_FACE('',(#102),#682,.F.);
#723=ADVANCED_FACE('',(#103),#683,.F.);
#724=ADVANCED_FACE('',(#104),#684,.F.);
#725=ADVANCED_FACE('',(#105),#685,.F.);
#726=ADVANCED_FACE('',(#106),#686,.F.);
#727=ADVANCED_FACE('',(#107),#687,.F.);
#728=ADVANCED_FACE('',(#108),#688,.F.);
#729=ADVANCED_FACE('',(#109),#689,.F.);
#730=ADVANCED_FACE('',(#110),#690,.F.);
#731=ADVANCED_FACE('',(#111),#71,.T.);
#732=ADVANCED_FACE('',(#112),#691,.F.);
#733=ADVANCED_FACE('',(#113),#72,.T.);
#734=ADVANCED_FACE('',(#114),#692,.F.);
#735=CLOSED_SHELL('',(#693,#694,#695,#696,#697,#698,#699,#700,#701,#702,
#703,#704,#705,#706,#707,#708,#709,#710,#711,#712,#713,#714,#715,#716,#717,
#718,#719,#720,#721,#722,#723,#724,#725,#726,#727,#728,#729,#730,#731,#732,
#733,#734));
#736=DERIVED_UNIT_ELEMENT(#738,1.);
#737=DERIVED_UNIT_ELEMENT(#1267,-3.);
#738=(
MASS_UNIT()
NAMED_UNIT(*)
SI_UNIT(.KILO.,.GRAM.)
);
#739=DERIVED_UNIT((#736,#737));
#740=MEASURE_REPRESENTATION_ITEM('density measure',
POSITIVE_RATIO_MEASURE(7850.),#739);
#741=PROPERTY_DEFINITION_REPRESENTATION(#746,#743);
#742=PROPERTY_DEFINITION_REPRESENTATION(#747,#744);
#743=REPRESENTATION('material name',(#745),#1264);
#744=REPRESENTATION('density',(#740),#1264);
#745=DESCRIPTIVE_REPRESENTATION_ITEM('Steel','Steel');
#746=PROPERTY_DEFINITION('material property','material name',#1279);
#747=PROPERTY_DEFINITION('material property','density of part',#1279);
#748=AXIS2_PLACEMENT_3D('',#1062,#836,#837);
#749=AXIS2_PLACEMENT_3D('',#1063,#838,#839);
#750=AXIS2_PLACEMENT_3D('',#1064,#840,#841);
#751=AXIS2_PLACEMENT_3D('',#1066,#842,#843);
#752=AXIS2_PLACEMENT_3D('',#1069,#845,#846);
#753=AXIS2_PLACEMENT_3D('',#1070,#847,#848);
#754=AXIS2_PLACEMENT_3D('',#1072,#849,#850);
#755=AXIS2_PLACEMENT_3D('',#1073,#851,#852);
#756=AXIS2_PLACEMENT_3D('',#1075,#853,#854);
#757=AXIS2_PLACEMENT_3D('',#1078,#856,#857);
#758=AXIS2_PLACEMENT_3D('',#1079,#858,#859);
#759=AXIS2_PLACEMENT_3D('',#1081,#860,#861);
#760=AXIS2_PLACEMENT_3D('',#1082,#862,#863);
#761=AXIS2_PLACEMENT_3D('',#1084,#864,#865);
#762=AXIS2_PLACEMENT_3D('',#1087,#867,#868);
#763=AXIS2_PLACEMENT_3D('',#1088,#869,#870);
#764=AXIS2_PLACEMENT_3D('',#1090,#871,#872);
#765=AXIS2_PLACEMENT_3D('',#1091,#873,#874);
#766=AXIS2_PLACEMENT_3D('',#1094,#876,#877);
#767=AXIS2_PLACEMENT_3D('',#1095,#878,#879);
#768=AXIS2_PLACEMENT_3D('',#1096,#880,#881);
#769=AXIS2_PLACEMENT_3D('',#1101,#883,#884);
#770=AXIS2_PLACEMENT_3D('',#1106,#887,#888);
#771=AXIS2_PLACEMENT_3D('',#1108,#889,#890);
#772=AXIS2_PLACEMENT_3D('',#1110,#891,#892);
#773=AXIS2_PLACEMENT_3D('',#1112,#893,#894);
#774=AXIS2_PLACEMENT_3D('',#1114,#895,#896);
#775=AXIS2_PLACEMENT_3D('',#1116,#897,#898);
#776=AXIS2_PLACEMENT_3D('',#1118,#899,#900);
#777=AXIS2_PLACEMENT_3D('',#1120,#901,#902);
#778=AXIS2_PLACEMENT_3D('',#1122,#903,#904);
#779=AXIS2_PLACEMENT_3D('',#1124,#905,#906);
#780=AXIS2_PLACEMENT_3D('',#1126,#907,#908);
#781=AXIS2_PLACEMENT_3D('',#1128,#909,#910);
#782=AXIS2_PLACEMENT_3D('',#1130,#911,#912);
#783=AXIS2_PLACEMENT_3D('',#1131,#913,#914);
#784=AXIS2_PLACEMENT_3D('',#1140,#919,#920);
#785=AXIS2_PLACEMENT_3D('',#1146,#924,#925);
#786=AXIS2_PLACEMENT_3D('',#1153,#930,#931);
#787=AXIS2_PLACEMENT_3D('',#1161,#936,#937);
#788=AXIS2_PLACEMENT_3D('',#1163,#938,#939);
#789=AXIS2_PLACEMENT_3D('',#1165,#941,#942);
#790=AXIS2_PLACEMENT_3D('',#1171,#946,#947);
#791=AXIS2_PLACEMENT_3D('',#1174,#950,#951);
#792=AXIS2_PLACEMENT_3D('',#1178,#954,#955);
#793=AXIS2_PLACEMENT_3D('',#1180,#956,#957);
#794=AXIS2_PLACEMENT_3D('',#1182,#959,#960);
#795=AXIS2_PLACEMENT_3D('',#1185,#963,#964);
#796=AXIS2_PLACEMENT_3D('',#1186,#965,#966);
#797=AXIS2_PLACEMENT_3D('',#1188,#968,#969);
#798=AXIS2_PLACEMENT_3D('',#1189,#970,#971);
#799=AXIS2_PLACEMENT_3D('',#1192,#973,#974);
#800=AXIS2_PLACEMENT_3D('',#1193,#975,#976);
#801=AXIS2_PLACEMENT_3D('',#1195,#977,#978);
#802=AXIS2_PLACEMENT_3D('',#1196,#979,#980);
#803=AXIS2_PLACEMENT_3D('',#1198,#981,#982);
#804=AXIS2_PLACEMENT_3D('',#1200,#983,#984);
#805=AXIS2_PLACEMENT_3D('',#1202,#985,#986);
#806=AXIS2_PLACEMENT_3D('',#1204,#987,#988);
#807=AXIS2_PLACEMENT_3D('',#1206,#989,#990);
#808=AXIS2_PLACEMENT_3D('',#1208,#991,#992);
#809=AXIS2_PLACEMENT_3D('',#1210,#993,#994);
#810=AXIS2_PLACEMENT_3D('',#1212,#995,#996);
#811=AXIS2_PLACEMENT_3D('',#1214,#997,#998);
#812=AXIS2_PLACEMENT_3D('',#1216,#999,#1000);
#813=AXIS2_PLACEMENT_3D('',#1218,#1001,#1002);
#814=AXIS2_PLACEMENT_3D('',#1220,#1003,#1004);
#815=AXIS2_PLACEMENT_3D('',#1222,#1005,#1006);
#816=AXIS2_PLACEMENT_3D('',#1223,#1007,#1008);
#817=AXIS2_PLACEMENT_3D('',#1225,#1010,#1011);
#818=AXIS2_PLACEMENT_3D('',#1227,#1013,#1014);
#819=AXIS2_PLACEMENT_3D('',#1229,#1016,#1017);
#820=AXIS2_PLACEMENT_3D('',#1231,#1019,#1020);
#821=AXIS2_PLACEMENT_3D('',#1233,#1022,#1023);
#822=AXIS2_PLACEMENT_3D('',#1235,#1025,#1026);
#823=AXIS2_PLACEMENT_3D('',#1237,#1028,#1029);
#824=AXIS2_PLACEMENT_3D('',#1239,#1031,#1032);
#825=AXIS2_PLACEMENT_3D('',#1241,#1034,#1035);
#826=AXIS2_PLACEMENT_3D('',#1243,#1037,#1038);
#827=AXIS2_PLACEMENT_3D('',#1245,#1040,#1041);
#828=AXIS2_PLACEMENT_3D('',#1247,#1043,#1044);
#829=AXIS2_PLACEMENT_3D('',#1249,#1046,#1047);
#830=AXIS2_PLACEMENT_3D('',#1251,#1048,#1049);
#831=AXIS2_PLACEMENT_3D('',#1252,#1050,#1051);
#832=AXIS2_PLACEMENT_3D('',#1254,#1053,#1054);
#833=AXIS2_PLACEMENT_3D('',#1256,#1055,#1056);
#834=AXIS2_PLACEMENT_3D('',#1257,#1057,#1058);
#835=AXIS2_PLACEMENT_3D('',#1259,#1060,#1061);
#836=DIRECTION('axis',(0.,0.,1.));
#837=DIRECTION('refdir',(1.,0.,0.));
#838=DIRECTION('axis',(0.,0.,1.));
#839=DIRECTION('refdir',(1.,0.,0.));
#840=DIRECTION('center_axis',(1.40413558916231E-9,1.,0.));
#841=DIRECTION('ref_axis',(1.,-1.40413558916231E-9,0.));
#842=DIRECTION('center_axis',(0.,1.,0.));
#843=DIRECTION('ref_axis',(1.,0.,0.));
#844=DIRECTION('',(1.40413558916231E-9,1.,0.));
#845=DIRECTION('center_axis',(1.40413562721431E-9,1.,0.));
#846=DIRECTION('ref_axis',(1.,-1.40413563229155E-9,0.));
#847=DIRECTION('center_axis',(-1.40413562721431E-9,-1.,0.));
#848=DIRECTION('ref_axis',(1.,-1.40413562721431E-9,0.));
#849=DIRECTION('center_axis',(-1.40413562721431E-9,-1.,0.));
#850=DIRECTION('ref_axis',(1.,-1.40413562721431E-9,0.));
#851=DIRECTION('center_axis',(1.40413558916231E-9,1.,0.));
#852=DIRECTION('ref_axis',(1.,-1.40413558916231E-9,0.));
#853=DIRECTION('center_axis',(0.,1.,0.));
#854=DIRECTION('ref_axis',(1.,0.,0.));
#855=DIRECTION('',(1.40413558916231E-9,1.,0.));
#856=DIRECTION('center_axis',(1.4041356341532E-9,1.,0.));
#857=DIRECTION('ref_axis',(1.,-1.40413564075361E-9,0.));
#858=DIRECTION('center_axis',(-1.4041356341532E-9,-1.,0.));
#859=DIRECTION('ref_axis',(1.,-1.4041356341532E-9,0.));
#860=DIRECTION('center_axis',(-1.4041356341532E-9,-1.,0.));
#861=DIRECTION('ref_axis',(1.,-1.4041356341532E-9,0.));
#862=DIRECTION('center_axis',(1.40413558916231E-9,1.,0.));
#863=DIRECTION('ref_axis',(1.,-1.40413558916231E-9,0.));
#864=DIRECTION('center_axis',(0.,1.,0.));
#865=DIRECTION('ref_axis',(1.,0.,0.));
#866=DIRECTION('',(1.40413558916231E-9,1.,0.));
#867=DIRECTION('center_axis',(1.4041356341532E-9,1.,0.));
#868=DIRECTION('ref_axis',(1.,-1.40413563229155E-9,0.));
#869=DIRECTION('center_axis',(-1.4041356341532E-9,-1.,0.));
#870=DIRECTION('ref_axis',(1.,-1.4041356341532E-9,0.));
#871=DIRECTION('center_axis',(-1.4041356341532E-9,-1.,0.));
#872=DIRECTION('ref_axis',(1.,-1.4041356341532E-9,0.));
#873=DIRECTION('center_axis',(0.,1.,0.));
#874=DIRECTION('ref_axis',(1.,0.,0.));
#875=DIRECTION('',(0.,1.,0.));
#876=DIRECTION('center_axis',(0.,1.,0.));
#877=DIRECTION('ref_axis',(1.,0.,0.));
#878=DIRECTION('center_axis',(0.,-1.,0.));
#879=DIRECTION('ref_axis',(1.,0.,0.));
#880=DIRECTION('center_axis',(0.,0.,1.));
#881=DIRECTION('ref_axis',(-1.,0.,0.));
#882=DIRECTION('',(0.,-1.,0.));
#883=DIRECTION('center_axis',(0.,0.,1.));
#884=DIRECTION('ref_axis',(-1.,0.,0.));
#885=DIRECTION('',(8.31627733801615E-17,1.,0.));
#886=DIRECTION('',(1.,0.,0.));
#887=DIRECTION('center_axis',(0.,0.,1.));
#888=DIRECTION('ref_axis',(-1.,0.,0.));
#889=DIRECTION('center_axis',(0.,0.,1.));
#890=DIRECTION('ref_axis',(-1.,0.,0.));
#891=DIRECTION('center_axis',(0.,0.,1.));
#892=DIRECTION('ref_axis',(-1.,0.,0.));
#893=DIRECTION('center_axis',(0.,0.,1.));
#894=DIRECTION('ref_axis',(-1.,0.,0.));
#895=DIRECTION('center_axis',(0.,0.,1.));
#896=DIRECTION('ref_axis',(-1.,0.,0.));
#897=DIRECTION('center_axis',(0.,0.,1.));
#898=DIRECTION('ref_axis',(-1.,0.,0.));
#899=DIRECTION('center_axis',(0.,0.,1.));
#900=DIRECTION('ref_axis',(-1.,0.,0.));
#901=DIRECTION('center_axis',(0.,0.,1.));
#902=DIRECTION('ref_axis',(-1.,0.,0.));
#903=DIRECTION('center_axis',(0.,0.,1.));
#904=DIRECTION('ref_axis',(-1.,0.,0.));
#905=DIRECTION('center_axis',(0.,0.,1.));
#906=DIRECTION('ref_axis',(-1.,0.,0.));
#907=DIRECTION('center_axis',(0.,0.,1.));
#908=DIRECTION('ref_axis',(-1.,0.,0.));
#909=DIRECTION('center_axis',(0.,0.,1.));
#910=DIRECTION('ref_axis',(-1.,0.,0.));
#911=DIRECTION('center_axis',(0.,0.,1.));
#912=DIRECTION('ref_axis',(-1.,0.,0.));
#913=DIRECTION('center_axis',(0.,0.707106781186548,0.707106781186548));
#914=DIRECTION('ref_axis',(1.,0.,0.));
#915=DIRECTION('',(-2.3521984399757E-16,0.707106781186548,-0.707106781186548));
#916=DIRECTION('',(1.,0.,0.));
#917=DIRECTION('',(-5.88049609993923E-17,-0.707106781186548,0.707106781186548));
#918=DIRECTION('',(-1.,0.,0.));
#919=DIRECTION('center_axis',(0.,0.,1.));
#920=DIRECTION('ref_axis',(1.,0.,0.));
#921=DIRECTION('',(-3.32651093520647E-16,1.,0.));
#922=DIRECTION('',(-1.,0.,0.));
#923=DIRECTION('',(-8.31627733801615E-17,-1.,0.));
#924=DIRECTION('center_axis',(0.,1.,0.));
#925=DIRECTION('ref_axis',(0.,0.,-1.));
#926=DIRECTION('',(0.707106781186538,0.,0.707106781186557));
#927=DIRECTION('',(0.,0.,-1.));
#928=DIRECTION('',(0.,0.,1.));
#929=DIRECTION('',(0.707106781186543,0.,-0.707106781186552));
#930=DIRECTION('center_axis',(1.,-8.31627733801615E-17,0.));
#931=DIRECTION('ref_axis',(8.31627733801615E-17,1.,0.));
#932=DIRECTION('',(8.31627733801615E-17,1.,0.));
#933=DIRECTION('',(5.88049609993923E-17,0.707106781186548,-0.707106781186548));
#934=DIRECTION('',(8.31627733801615E-17,1.,0.));
#935=DIRECTION('',(0.,0.,1.));
#936=DIRECTION('center_axis',(0.,0.,1.));
#937=DIRECTION('ref_axis',(-1.,0.,0.));
#938=DIRECTION('center_axis',(0.,0.,1.));
#939=DIRECTION('ref_axis',(-1.,0.,0.));
#940=DIRECTION('',(0.,0.,1.));
#941=DIRECTION('center_axis',(-1.,-3.32651093520647E-16,0.));
#942=DIRECTION('ref_axis',(3.32651093520647E-16,-1.,0.));
#943=DIRECTION('',(3.32651093520647E-16,-1.,0.));
#944=DIRECTION('',(2.3521984399757E-16,-0.707106781186548,0.707106781186548));
#945=DIRECTION('',(3.32651093520647E-16,-1.,0.));
#946=DIRECTION('center_axis',(-0.707106781186551,0.499999999999997,0.499999999999998));
#947=DIRECTION('ref_axis',(0.577350269189622,0.,0.816496580927729));
#948=DIRECTION('',(0.67859834454584,0.281084637714809,0.678598344545858));
#949=DIRECTION('',(-0.67859834454584,-0.281084637714809,-0.678598344545858));
#950=DIRECTION('center_axis',(-0.707106781186554,-2.35219843997572E-16,
0.707106781186541));
#951=DIRECTION('ref_axis',(0.707106781186541,0.,0.707106781186554));
#952=DIRECTION('',(-3.32651093520647E-16,1.,0.));
#953=DIRECTION('',(0.707106781186547,0.,0.707106781186547));
#954=DIRECTION('center_axis',(0.,0.,-1.));
#955=DIRECTION('ref_axis',(-1.,0.,0.));
#956=DIRECTION('center_axis',(0.,0.,-1.));
#957=DIRECTION('ref_axis',(-1.,0.,0.));
#958=DIRECTION('',(-0.707106781186543,0.,0.707106781186552));
#959=DIRECTION('center_axis',(0.707106781186542,0.500000000000004,0.500000000000004));
#960=DIRECTION('ref_axis',(0.577350269189632,0.,-0.816496580927722));
#961=DIRECTION('',(-0.678598344545847,0.281084637714797,0.678598344545856));
#962=DIRECTION('',(0.678598344545847,-0.281084637714797,-0.678598344545856));
#963=DIRECTION('center_axis',(0.707106781186552,-5.88049609993927E-17,0.707106781186543));
#964=DIRECTION('ref_axis',(0.707106781186543,0.,-0.707106781186552));
#965=DIRECTION('center_axis',(0.707106781186552,-5.88049609993927E-17,0.707106781186543));
#966=DIRECTION('ref_axis',(0.707106781186543,0.,-0.707106781186552));
#967=DIRECTION('',(-8.31627733801615E-17,-1.,0.));
#968=DIRECTION('center_axis',(-0.707106781186557,-2.35219843997573E-16,
0.707106781186538));
#969=DIRECTION('ref_axis',(0.707106781186538,0.,0.707106781186557));
#970=DIRECTION('center_axis',(0.,0.,-1.));
#971=DIRECTION('ref_axis',(-1.,0.,0.));
#972=DIRECTION('',(0.,0.,1.));
#973=DIRECTION('center_axis',(0.,0.,1.));
#974=DIRECTION('ref_axis',(-1.,0.,0.));
#975=DIRECTION('center_axis',(0.,0.,1.));
#976=DIRECTION('ref_axis',(-1.,0.,0.));
#977=DIRECTION('center_axis',(0.,0.,-1.));
#978=DIRECTION('ref_axis',(-1.,0.,0.));
#979=DIRECTION('center_axis',(0.,0.,1.));
#980=DIRECTION('ref_axis',(-1.,0.,0.));
#981=DIRECTION('center_axis',(0.,0.,-1.));
#982=DIRECTION('ref_axis',(-1.,0.,0.));
#983=DIRECTION('center_axis',(0.,0.,1.));
#984=DIRECTION('ref_axis',(-1.,0.,0.));
#985=DIRECTION('center_axis',(0.,0.,1.));
#986=DIRECTION('ref_axis',(-1.,0.,0.));
#987=DIRECTION('center_axis',(0.,0.,1.));
#988=DIRECTION('ref_axis',(-1.,0.,0.));
#989=DIRECTION('center_axis',(0.,0.,1.));
#990=DIRECTION('ref_axis',(-1.,0.,0.));
#991=DIRECTION('center_axis',(0.,0.,1.));
#992=DIRECTION('ref_axis',(-1.,0.,0.));
#993=DIRECTION('center_axis',(0.,0.,1.));
#994=DIRECTION('ref_axis',(-1.,0.,0.));
#995=DIRECTION('center_axis',(0.,0.,1.));
#996=DIRECTION('ref_axis',(-1.,0.,0.));
#997=DIRECTION('center_axis',(0.,0.,1.));
#998=DIRECTION('ref_axis',(-1.,0.,0.));
#999=DIRECTION('center_axis',(0.,0.,1.));
#1000=DIRECTION('ref_axis',(-1.,0.,0.));
#1001=DIRECTION('center_axis',(0.,0.,1.));
#1002=DIRECTION('ref_axis',(-1.,0.,0.));
#1003=DIRECTION('center_axis',(0.,0.,1.));
#1004=DIRECTION('ref_axis',(-1.,0.,0.));
#1005=DIRECTION('center_axis',(0.,0.,1.));
#1006=DIRECTION('ref_axis',(-1.,0.,0.));
#1007=DIRECTION('center_axis',(0.,0.,-1.));
#1008=DIRECTION('ref_axis',(-1.,0.,0.));
#1009=DIRECTION('',(0.,0.,-1.));
#1010=DIRECTION('center_axis',(0.,0.,-1.));
#1011=DIRECTION('ref_axis',(-1.,0.,0.));
#1012=DIRECTION('',(0.,0.,-1.));
#1013=DIRECTION('center_axis',(0.,0.,-1.));
#1014=DIRECTION('ref_axis',(-1.,0.,0.));
#1015=DIRECTION('',(0.,0.,-1.));
#1016=DIRECTION('center_axis',(0.,0.,-1.));
#1017=DIRECTION('ref_axis',(-1.,0.,0.));
#1018=DIRECTION('',(0.,0.,-1.));
#1019=DIRECTION('center_axis',(0.,0.,-1.));
#1020=DIRECTION('ref_axis',(-1.,0.,0.));
#1021=DIRECTION('',(0.,0.,-1.));
#1022=DIRECTION('center_axis',(0.,0.,-1.));
#1023=DIRECTION('ref_axis',(-1.,0.,0.));
#1024=DIRECTION('',(0.,0.,-1.));
#1025=DIRECTION('center_axis',(0.,0.,-1.));
#1026=DIRECTION('ref_axis',(-1.,0.,0.));
#1027=DIRECTION('',(0.,0.,-1.));
#1028=DIRECTION('center_axis',(0.,0.,-1.));
#1029=DIRECTION('ref_axis',(-1.,0.,0.));
#1030=DIRECTION('',(0.,0.,-1.));
#1031=DIRECTION('center_axis',(0.,0.,-1.));
#1032=DIRECTION('ref_axis',(-1.,0.,0.));
#1033=DIRECTION('',(0.,0.,-1.));
#1034=DIRECTION('center_axis',(0.,0.,-1.));
#1035=DIRECTION('ref_axis',(-1.,0.,0.));
#1036=DIRECTION('',(0.,0.,-1.));
#1037=DIRECTION('center_axis',(0.,0.,-1.));
#1038=DIRECTION('ref_axis',(-1.,0.,0.));
#1039=DIRECTION('',(0.,0.,-1.));
#1040=DIRECTION('center_axis',(0.,0.,-1.));
#1041=DIRECTION('ref_axis',(-1.,0.,0.));
#1042=DIRECTION('',(0.,0.,-1.));
#1043=DIRECTION('center_axis',(0.,0.,-1.));
#1044=DIRECTION('ref_axis',(-1.,0.,0.));
#1045=DIRECTION('',(0.,0.,-1.));
#1046=DIRECTION('center_axis',(0.,-1.,0.));
#1047=DIRECTION('ref_axis',(1.,0.,0.));
#1048=DIRECTION('center_axis',(0.,1.,0.));
#1049=DIRECTION('ref_axis',(1.,0.,0.));
#1050=DIRECTION('center_axis',(0.,1.,0.));
#1051=DIRECTION('ref_axis',(1.,0.,0.));
#1052=DIRECTION('',(0.,1.,0.));
#1053=DIRECTION('center_axis',(0.,-1.,0.));
#1054=DIRECTION('ref_axis',(1.,0.,0.));
#1055=DIRECTION('center_axis',(0.,1.,0.));
#1056=DIRECTION('ref_axis',(1.,0.,0.));
#1057=DIRECTION('center_axis',(0.,1.,0.));
#1058=DIRECTION('ref_axis',(1.,0.,0.));
#1059=DIRECTION('',(0.,1.,0.));
#1060=DIRECTION('',(0.,0.,1.));
#1061=DIRECTION('',(1.,0.,0.));
#1062=CARTESIAN_POINT('',(0.,0.,0.));
#1063=CARTESIAN_POINT('',(0.,0.,0.));
#1064=CARTESIAN_POINT('Origin',(-39.94,134.900000065879,188.481729985377));
#1065=CARTESIAN_POINT('',(-41.9899999928389,140.000002533197,188.481729985377));
#1066=CARTESIAN_POINT('Origin',(-39.9399999928389,140.000002533197,188.481729985377));
#1067=CARTESIAN_POINT('',(-41.9899999782359,150.400000068758,188.481729985377));
#1068=CARTESIAN_POINT('',(-41.99,134.900000068758,188.481729985377));
#1069=CARTESIAN_POINT('Origin',(-39.9399999782359,150.400000065879,188.481729985377));
#1070=CARTESIAN_POINT('Origin',(-39.9399999782359,150.400000065879,188.481729985377));
#1071=CARTESIAN_POINT('',(-41.49,150.400000068056,188.481729985377));
#1072=CARTESIAN_POINT('Origin',(-39.94,150.400000065879,188.481729985377));
#1073=CARTESIAN_POINT('Origin',(-29.94,134.900000051838,188.481729985377));
#1074=CARTESIAN_POINT('',(-31.9899999928389,140.000002533197,188.481729985377));
#1075=CARTESIAN_POINT('Origin',(-29.9399999928389,140.000002533197,188.481729985377));
#1076=CARTESIAN_POINT('',(-31.9899999782359,150.400000054716,188.481729985377));
#1077=CARTESIAN_POINT('',(-31.99,134.900000054716,188.481729985377));
#1078=CARTESIAN_POINT('Origin',(-29.9399999782359,150.400000051838,188.481729985377));
#1079=CARTESIAN_POINT('Origin',(-29.9399999782359,150.400000051838,188.481729985377));
#1080=CARTESIAN_POINT('',(-31.49,150.400000054014,188.481729985377));
#1081=CARTESIAN_POINT('Origin',(-29.94,150.400000051838,188.481729985377));
#1082=CARTESIAN_POINT('Origin',(-19.94,134.900000037797,188.481729985377));
#1083=CARTESIAN_POINT('',(-21.9899999928389,140.000002533197,188.481729985377));
#1084=CARTESIAN_POINT('Origin',(-19.9399999928389,140.000002533197,188.481729985377));
#1085=CARTESIAN_POINT('',(-21.9899999782359,150.400000040675,188.481729985377));
#1086=CARTESIAN_POINT('',(-21.99,134.900000040675,188.481729985377));
#1087=CARTESIAN_POINT('Origin',(-19.9399999782359,150.400000037797,188.481729985377));
#1088=CARTESIAN_POINT('Origin',(-19.9399999782359,150.400000037797,188.481729985377));
#1089=CARTESIAN_POINT('',(-21.49,150.400000039973,188.481729985377));
#1090=CARTESIAN_POINT('Origin',(-19.94,150.400000037797,188.481729985377));
#1091=CARTESIAN_POINT('Origin',(-19.94,134.9,188.481729985377));
#1092=CARTESIAN_POINT('',(-21.49,151.9,188.481729985377));
#1093=CARTESIAN_POINT('',(-21.49,134.9,188.481729985377));
#1094=CARTESIAN_POINT('Origin',(-19.94,151.9,188.481729985377));
#1095=CARTESIAN_POINT('Origin',(-19.94,151.9,188.481729985377));
#1096=CARTESIAN_POINT('Origin',(-29.94,160.85,184.481729985377));
#1097=CARTESIAN_POINT('',(-44.94,166.7,184.481729985377));
#1098=CARTESIAN_POINT('',(-44.94,140.000002533197,184.481729985377));
#1099=CARTESIAN_POINT('',(-44.94,141.000002533197,184.481729985377));
#1100=CARTESIAN_POINT('',(-14.94,166.7,184.481729985377));
#1101=CARTESIAN_POINT('Origin',(-29.94,166.7,184.481729985377));
#1102=CARTESIAN_POINT('',(-14.94,140.000002533197,184.481729985377));
#1103=CARTESIAN_POINT('',(-14.94,150.425,184.481729985377));
#1104=CARTESIAN_POINT('',(-22.44,140.000002533197,184.481729985377));
#1105=CARTESIAN_POINT('',(-29.09,159.7,184.481729985377));
#1106=CARTESIAN_POINT('Origin',(-29.94,159.7,184.481729985377));
#1107=CARTESIAN_POINT('',(-36.09,163.7,184.481729985377));
#1108=CARTESIAN_POINT('Origin',(-36.94,163.7,184.481729985377));
#1109=CARTESIAN_POINT('',(-36.09,169.7,184.481729985377));
#1110=CARTESIAN_POINT('Origin',(-36.94,169.7,184.481729985377));
#1111=CARTESIAN_POINT('',(-29.09,173.7,184.481729985377));
#1112=CARTESIAN_POINT('Origin',(-29.94,173.7,184.481729985377));
#1113=CARTESIAN_POINT('',(-22.09,169.7,184.481729985377));
#1114=CARTESIAN_POINT('Origin',(-22.94,169.7,184.481729985377));
#1115=CARTESIAN_POINT('',(-22.09,163.7,184.481729985377));
#1116=CARTESIAN_POINT('Origin',(-22.94,163.7,184.481729985377));
#1117=CARTESIAN_POINT('',(-22.09,166.7,184.481729985377));
#1118=CARTESIAN_POINT('Origin',(-22.94,166.7,184.481729985377));
#1119=CARTESIAN_POINT('',(-26.09,173.7,184.481729985377));
#1120=CARTESIAN_POINT('Origin',(-26.94,173.7,184.481729985377));
#1121=CARTESIAN_POINT('',(-32.09,173.7,184.481729985377));
#1122=CARTESIAN_POINT('Origin',(-32.94,173.7,184.481729985377));
#1123=CARTESIAN_POINT('',(-36.09,166.7,184.481729985377));
#1124=CARTESIAN_POINT('Origin',(-36.94,166.7,184.481729985377));
#1125=CARTESIAN_POINT('',(-32.09,159.7,184.481729985377));
#1126=CARTESIAN_POINT('Origin',(-32.94,159.7,184.481729985377));
#1127=CARTESIAN_POINT('',(-26.09,159.7,184.481729985377));
#1128=CARTESIAN_POINT('Origin',(-26.94,159.7,184.481729985377));
#1129=CARTESIAN_POINT('',(-24.44,166.7,184.481729985377));
#1130=CARTESIAN_POINT('Origin',(-29.94,166.7,184.481729985377));
#1131=CARTESIAN_POINT('Origin',(-22.44,152.65,190.731729985377));
#1132=CARTESIAN_POINT('',(-43.94,150.9,192.481729985377));
#1133=CARTESIAN_POINT('',(-43.94,154.4,188.981729985377));
#1134=CARTESIAN_POINT('',(-43.94,159.1,184.281729985377));
#1135=CARTESIAN_POINT('',(-15.94,150.9,192.481729985377));
#1136=CARTESIAN_POINT('',(-14.94,150.9,192.481729985377));
#1137=CARTESIAN_POINT('',(-15.94,154.4,188.981729985377));
#1138=CARTESIAN_POINT('',(-15.94,152.425,190.956729985377));
#1139=CARTESIAN_POINT('',(-22.44,154.4,188.981729985377));
#1140=CARTESIAN_POINT('Origin',(-29.9400062665987,142.4,192.481729985377));
#1141=CARTESIAN_POINT('',(-43.94,140.000002533197,192.481729985377));
#1142=CARTESIAN_POINT('',(-43.94,154.55,192.481729985377));
#1143=CARTESIAN_POINT('',(-15.94,140.000002533197,192.481729985377));
#1144=CARTESIAN_POINT('',(-22.4400031332993,140.000002533197,192.481729985377));
#1145=CARTESIAN_POINT('',(-15.94,141.2,192.481729985377));
#1146=CARTESIAN_POINT('Origin',(-14.94,140.000002533197,192.481729985377));
#1147=CARTESIAN_POINT('',(-44.94,140.000002533197,191.481729985377));
#1148=CARTESIAN_POINT('',(-36.9400000000002,140.000002533197,199.481729985377));
#1149=CARTESIAN_POINT('',(-44.94,140.000002533197,185.731729985377));
#1150=CARTESIAN_POINT('',(-14.94,140.000002533197,191.481729985377));
#1151=CARTESIAN_POINT('',(-14.94,140.000002533197,185.731729985377));
#1152=CARTESIAN_POINT('',(-15.44,140.000002533197,191.981729985377));
#1153=CARTESIAN_POINT('Origin',(-14.94,140.,178.981729985377));
#1154=CARTESIAN_POINT('',(-14.94,153.985786437627,187.981729985377));
#1155=CARTESIAN_POINT('',(-14.94,166.7,187.981729985377));
#1156=CARTESIAN_POINT('',(-14.94,150.425,187.981729985377));
#1157=CARTESIAN_POINT('',(-14.94,150.485786437627,191.481729985377));
#1158=CARTESIAN_POINT('',(-14.94,151.717893218813,190.24962320419));
#1159=CARTESIAN_POINT('',(-14.94,141.2,191.481729985377));
#1160=CARTESIAN_POINT('',(-14.94,166.7,178.981729985377));
#1161=CARTESIAN_POINT('Origin',(-29.94,166.7,178.981729985377));
#1162=CARTESIAN_POINT('',(-44.94,166.7,187.981729985377));
#1163=CARTESIAN_POINT('Origin',(-29.94,166.7,187.981729985377));
#1164=CARTESIAN_POINT('',(-44.94,166.7,178.981729985377));
#1165=CARTESIAN_POINT('Origin',(-44.94,166.7,178.981729985377));
#1166=CARTESIAN_POINT('',(-44.94,150.485786437627,191.481729985377));
#1167=CARTESIAN_POINT('',(-44.94,154.55,191.481729985377));
#1168=CARTESIAN_POINT('',(-44.94,153.985786437627,187.981729985377));
#1169=CARTESIAN_POINT('',(-44.94,158.392893218813,183.57462320419));
#1170=CARTESIAN_POINT('',(-44.94,163.775,187.981729985377));
#1171=CARTESIAN_POINT('Origin',(-44.44,158.746446609407,183.928176594784));
#1172=CARTESIAN_POINT('',(-44.94,153.985786437627,187.981729985377));
#1173=CARTESIAN_POINT('',(-43.94,150.9,192.481729985377));
#1174=CARTESIAN_POINT('Origin',(-44.44,163.775,188.481729985377));
#1175=CARTESIAN_POINT('',(-43.94,166.7,188.981729985377));
#1176=CARTESIAN_POINT('',(-43.94,163.775,188.981729985377));
#1177=CARTESIAN_POINT('',(-44.94,166.7,187.981729985377));
#1178=CARTESIAN_POINT('Origin',(-29.94,166.7,188.481729985377));
#1179=CARTESIAN_POINT('',(-15.94,166.7,188.981729985377));
#1180=CARTESIAN_POINT('Origin',(-29.94,166.7,188.981729985377));
#1181=CARTESIAN_POINT('',(-14.94,166.7,187.981729985377));
#1182=CARTESIAN_POINT('Origin',(-15.44,152.071446609407,190.603176594784));
#1183=CARTESIAN_POINT('',(-14.94,150.485786437627,191.481729985377));
#1184=CARTESIAN_POINT('',(-15.94,154.4,188.981729985377));
#1185=CARTESIAN_POINT('Origin',(-15.44,141.2,191.981729985377));
#1186=CARTESIAN_POINT('Origin',(-15.44,150.425,188.481729985377));
#1187=CARTESIAN_POINT('',(-15.94,150.425,188.981729985377));
#1188=CARTESIAN_POINT('Origin',(-44.44,154.55,191.981729985377));
#1189=CARTESIAN_POINT('Origin',(-29.94,166.7,188.981729985377));
#1190=CARTESIAN_POINT('',(-24.44,166.7,185.981729985377));
#1191=CARTESIAN_POINT('',(-24.44,166.7,188.981729985377));
#1192=CARTESIAN_POINT('Origin',(-29.94,166.7,185.981729985377));
#1193=CARTESIAN_POINT('Origin',(-29.94,160.85,188.981729985377));
#1194=CARTESIAN_POINT('',(-18.94,166.7,188.981729985377));
#1195=CARTESIAN_POINT('Origin',(-29.94,166.7,188.981729985377));
#1196=CARTESIAN_POINT('Origin',(-29.94,166.7,185.981729985377));
#1197=CARTESIAN_POINT('',(-18.94,166.7,185.981729985377));
#1198=CARTESIAN_POINT('Origin',(-29.94,166.7,185.981729985377));
#1199=CARTESIAN_POINT('',(-22.09,166.7,185.981729985377));
#1200=CARTESIAN_POINT('Origin',(-22.94,166.7,185.981729985377));
#1201=CARTESIAN_POINT('',(-26.09,173.7,185.981729985377));
#1202=CARTESIAN_POINT('Origin',(-26.94,173.7,185.981729985377));
#1203=CARTESIAN_POINT('',(-22.09,169.7,185.981729985377));
#1204=CARTESIAN_POINT('Origin',(-22.94,169.7,185.981729985377));
#1205=CARTESIAN_POINT('',(-22.09,163.7,185.981729985377));
#1206=CARTESIAN_POINT('Origin',(-22.94,163.7,185.981729985377));
#1207=CARTESIAN_POINT('',(-32.09,159.7,185.981729985377));
#1208=CARTESIAN_POINT('Origin',(-32.94,159.7,185.981729985377));
#1209=CARTESIAN_POINT('',(-36.09,163.7,185.981729985377));
#1210=CARTESIAN_POINT('Origin',(-36.94,163.7,185.981729985377));
#1211=CARTESIAN_POINT('',(-36.09,169.7,185.981729985377));
#1212=CARTESIAN_POINT('Origin',(-36.94,169.7,185.981729985377));
#1213=CARTESIAN_POINT('',(-32.09,173.7,185.981729985377));
#1214=CARTESIAN_POINT('Origin',(-32.94,173.7,185.981729985377));
#1215=CARTESIAN_POINT('',(-29.09,159.7,185.981729985377));
#1216=CARTESIAN_POINT('Origin',(-29.94,159.7,185.981729985377));
#1217=CARTESIAN_POINT('',(-36.09,166.7,185.981729985377));
#1218=CARTESIAN_POINT('Origin',(-36.94,166.7,185.981729985377));
#1219=CARTESIAN_POINT('',(-29.09,173.7,185.981729985377));
#1220=CARTESIAN_POINT('Origin',(-29.94,173.7,185.981729985377));
#1221=CARTESIAN_POINT('',(-26.09,159.7,185.981729985377));
#1222=CARTESIAN_POINT('Origin',(-26.94,159.7,185.981729985377));
#1223=CARTESIAN_POINT('Origin',(-29.94,166.7,188.981729985377));
#1224=CARTESIAN_POINT('',(-18.94,166.7,188.981729985377));
#1225=CARTESIAN_POINT('Origin',(-26.94,159.7,188.981729985377));
#1226=CARTESIAN_POINT('',(-26.09,159.7,188.981729985377));
#1227=CARTESIAN_POINT('Origin',(-32.94,159.7,188.981729985377));
#1228=CARTESIAN_POINT('',(-32.09,159.7,188.981729985377));
#1229=CARTESIAN_POINT('Origin',(-36.94,166.7,188.981729985377));
#1230=CARTESIAN_POINT('',(-36.09,166.7,188.981729985377));
#1231=CARTESIAN_POINT('Origin',(-32.94,173.7,188.981729985377));
#1232=CARTESIAN_POINT('',(-32.09,173.7,188.981729985377));
#1233=CARTESIAN_POINT('Origin',(-26.94,173.7,188.981729985377));
#1234=CARTESIAN_POINT('',(-26.09,173.7,188.981729985377));
#1235=CARTESIAN_POINT('Origin',(-22.94,166.7,188.981729985377));
#1236=CARTESIAN_POINT('',(-22.09,166.7,188.981729985377));
#1237=CARTESIAN_POINT('Origin',(-22.94,163.7,188.981729985377));
#1238=CARTESIAN_POINT('',(-22.09,163.7,188.981729985377));
#1239=CARTESIAN_POINT('Origin',(-22.94,169.7,188.981729985377));
#1240=CARTESIAN_POINT('',(-22.09,169.7,188.981729985377));
#1241=CARTESIAN_POINT('Origin',(-29.94,173.7,188.981729985377));
#1242=CARTESIAN_POINT('',(-29.09,173.7,188.981729985377));
#1243=CARTESIAN_POINT('Origin',(-36.94,169.7,188.981729985377));
#1244=CARTESIAN_POINT('',(-36.09,169.7,188.981729985377));
#1245=CARTESIAN_POINT('Origin',(-36.94,163.7,188.981729985377));
#1246=CARTESIAN_POINT('',(-36.09,163.7,188.981729985377));
#1247=CARTESIAN_POINT('Origin',(-29.94,159.7,188.981729985377));
#1248=CARTESIAN_POINT('',(-29.09,159.7,188.981729985377));
#1249=CARTESIAN_POINT('Origin',(-39.94,151.9,188.481729985377));
#1250=CARTESIAN_POINT('',(-41.49,151.9,188.481729985377));
#1251=CARTESIAN_POINT('Origin',(-39.94,151.9,188.481729985377));
#1252=CARTESIAN_POINT('Origin',(-39.94,134.9,188.481729985377));
#1253=CARTESIAN_POINT('',(-41.49,134.9,188.481729985377));
#1254=CARTESIAN_POINT('Origin',(-29.94,151.9,188.481729985377));
#1255=CARTESIAN_POINT('',(-31.49,151.9,188.481729985377));
#1256=CARTESIAN_POINT('Origin',(-29.94,151.9,188.481729985377));
#1257=CARTESIAN_POINT('Origin',(-29.94,134.9,188.481729985377));
#1258=CARTESIAN_POINT('',(-31.49,134.9,188.481729985377));
#1259=CARTESIAN_POINT('',(0.,0.,0.));
#1260=UNCERTAINTY_MEASURE_WITH_UNIT(LENGTH_MEASURE(0.01),#1266,
'DISTANCE_ACCURACY_VALUE',
'Maximum model space distance between geometric entities at asserted c
onnectivities');
#1261=UNCERTAINTY_MEASURE_WITH_UNIT(LENGTH_MEASURE(0.01),#1266,
'DISTANCE_ACCURACY_VALUE',
'Maximum model space distance between geometric entities at asserted c
onnectivities');
#1262=UNCERTAINTY_MEASURE_WITH_UNIT(LENGTH_MEASURE(0.01),#1266,
'DISTANCE_ACCURACY_VALUE',
'Maximum model space distance between geometric entities at asserted c
onnectivities');
#1263=(
GEOMETRIC_REPRESENTATION_CONTEXT(3)
GLOBAL_UNCERTAINTY_ASSIGNED_CONTEXT((#1260))
GLOBAL_UNIT_ASSIGNED_CONTEXT((#1266,#1268,#1269))
REPRESENTATION_CONTEXT('','3D')
);
#1264=(
GEOMETRIC_REPRESENTATION_CONTEXT(3)
GLOBAL_UNCERTAINTY_ASSIGNED_CONTEXT((#1261))
GLOBAL_UNIT_ASSIGNED_CONTEXT((#1266,#1268,#1269))
REPRESENTATION_CONTEXT('','3D')
);
#1265=(
GEOMETRIC_REPRESENTATION_CONTEXT(3)
GLOBAL_UNCERTAINTY_ASSIGNED_CONTEXT((#1262))
GLOBAL_UNIT_ASSIGNED_CONTEXT((#1266,#1268,#1269))
REPRESENTATION_CONTEXT('','3D')
);
#1266=(
LENGTH_UNIT()
NAMED_UNIT(*)
SI_UNIT(.MILLI.,.METRE.)
);
#1267=(
LENGTH_UNIT()
NAMED_UNIT(*)
SI_UNIT($,.METRE.)
);
#1268=(
NAMED_UNIT(*)
PLANE_ANGLE_UNIT()
SI_UNIT($,.RADIAN.)
);
#1269=(
NAMED_UNIT(*)
SI_UNIT($,.STERADIAN.)
SOLID_ANGLE_UNIT()
);
#1270=SHAPE_DEFINITION_REPRESENTATION(#1272,#1275);
#1271=SHAPE_DEFINITION_REPRESENTATION(#1273,#1276);
#1272=PRODUCT_DEFINITION_SHAPE('',$,#1278);
#1273=PRODUCT_DEFINITION_SHAPE('',$,#1279);
#1274=PRODUCT_DEFINITION_SHAPE($,$,#14);
#1275=SHAPE_REPRESENTATION('',(#748,#835),#1263);
#1276=SHAPE_REPRESENTATION('',(#749),#1264);
#1277=PRODUCT_DEFINITION_CONTEXT('part definition',#1285,'design');
#1278=PRODUCT_DEFINITION('Leg V1','Leg V1 v19',#1280,#1277);
#1279=PRODUCT_DEFINITION('Upper Leg upper hoop top',
'Upper Leg upper hoop top',#1281,#1277);
#1280=PRODUCT_DEFINITION_FORMATION('',$,#1287);
#1281=PRODUCT_DEFINITION_FORMATION('',$,#1288);
#1282=PRODUCT_RELATED_PRODUCT_CATEGORY('Leg V1 v19','Leg V1 v19',(#1287));
#1283=PRODUCT_RELATED_PRODUCT_CATEGORY('Upper Leg upper hoop top',
'Upper Leg upper hoop top',(#1288));
#1284=APPLICATION_PROTOCOL_DEFINITION('international standard',
'automotive_design',2009,#1285);
#1285=APPLICATION_CONTEXT(
'Core Data for Automotive Mechanical Design Process');
#1286=PRODUCT_CONTEXT('part definition',#1285,'mechanical');
#1287=PRODUCT('Leg V1','Leg V1 v19',$,(#1286));
#1288=PRODUCT('Upper Leg upper hoop top','Upper Leg upper hoop top',$,(#1286));
#1289=PRESENTATION_STYLE_ASSIGNMENT((#1291));
#1290=PRESENTATION_STYLE_ASSIGNMENT((#1292));
#1291=SURFACE_STYLE_USAGE(.BOTH.,#1293);
#1292=SURFACE_STYLE_USAGE(.BOTH.,#1294);
#1293=SURFACE_SIDE_STYLE('',(#1295));
#1294=SURFACE_SIDE_STYLE('',(#1296));
#1295=SURFACE_STYLE_FILL_AREA(#1297);
#1296=SURFACE_STYLE_FILL_AREA(#1298);
#1297=FILL_AREA_STYLE('Steel - Satin',(#1299));
#1298=FILL_AREA_STYLE('ABS (White)',(#1300));
#1299=FILL_AREA_STYLE_COLOUR('Steel - Satin',#1301);
#1300=FILL_AREA_STYLE_COLOUR('ABS (White)',#1302);
#1301=COLOUR_RGB('Steel - Satin',0.627450980392157,0.627450980392157,0.627450980392157);
#1302=COLOUR_RGB('ABS (White)',0.964705882352941,0.964705882352941,0.952941176470588);
ENDSEC;
END-ISO-10303-21;
