ISO-10303-21;
HEADER;
/* Generated by software containing ST-Developer
 * from STEP Tools, Inc. (www.steptools.com) 
 */

FILE_DESCRIPTION(
/* description */ (''),
/* implementation_level */ '2;1');

FILE_NAME(
/* name */ 'Foot.step',
/* time_stamp */ '2025-12-12T13:05:02+01:00',
/* author */ (''),
/* organization */ (''),
/* preprocessor_version */ 'ST-DEVELOPER v20.1',
/* originating_system */ 'Autodesk Translation Framework v14.21.0.0',
/* authorisation */ '');

FILE_SCHEMA (('AUTOMOTIVE_DESIGN { 1 0 10303 214 3 1 1 }'));
ENDSEC;

DATA;
#10=MECHANICAL_DESIGN_GEOMETRIC_PRESENTATION_REPRESENTATION('',(#13),#1520);
#11=SHAPE_REPRESENTATION_RELATIONSHIP('SRR','None',#1527,#12);
#12=ADVANCED_BREP_SHAPE_REPRESENTATION('',(#14),#1519);
#13=STYLED_ITEM('',(#1537),#14);
#14=MANIFOLD_SOLID_BREP('Body1',#826);
#15=FACE_BOUND('',#152,.T.);
#16=SPHERICAL_SURFACE('',#854,0.750000000000002);
#17=SPHERICAL_SURFACE('',#858,0.749999999999998);
#18=SPHERICAL_SURFACE('',#864,0.750000000000002);
#19=SPHERICAL_SURFACE('',#870,0.749999999999994);
#20=SPHERICAL_SURFACE('',#874,0.750000000000001);
#21=SPHERICAL_SURFACE('',#879,0.749999999999998);
#22=SPHERICAL_SURFACE('',#883,0.75);
#23=SPHERICAL_SURFACE('',#888,0.749999999999998);
#24=SPHERICAL_SURFACE('',#892,0.750000000000001);
#25=SPHERICAL_SURFACE('',#896,0.749999999999998);
#26=SPHERICAL_SURFACE('',#900,0.750000000000003);
#27=SPHERICAL_SURFACE('',#907,0.750000000000001);
#28=PLANE('',#845);
#29=PLANE('',#928);
#30=PLANE('',#929);
#31=PLANE('',#930);
#32=PLANE('',#931);
#33=PLANE('',#933);
#34=PLANE('',#934);
#35=PLANE('',#935);
#36=PLANE('',#936);
#37=PLANE('',#937);
#38=PLANE('',#938);
#39=PLANE('',#939);
#40=PLANE('',#940);
#41=PLANE('',#943);
#42=ELLIPSE('',#843,2.32274794145695,0.75);
#43=ELLIPSE('',#844,2.32274794146647,0.75);
#44=ELLIPSE('',#847,1.12954101406265,0.75);
#45=ELLIPSE('',#852,1.12954101405932,0.75);
#46=B_SPLINE_CURVE_WITH_KNOTS('',3,(#1245,#1246,#1247,#1248),
 .UNSPECIFIED.,.F.,.F.,(4,4),(0.00313526876909791,0.00634306748528774),
 .UNSPECIFIED.);
#47=B_SPLINE_CURVE_WITH_KNOTS('',3,(#1251,#1252,#1253,#1254,#1255),
 .UNSPECIFIED.,.F.,.F.,(4,1,4),(0.121146011370747,0.1320275855894,0.135923877322693),
 .UNSPECIFIED.);
#48=B_SPLINE_CURVE_WITH_KNOTS('',3,(#1256,#1257,#1258,#1259,#1260,#1261,
#1262,#1263),.UNSPECIFIED.,.F.,.F.,(4,2,2,4),(-5.31650317831819E-5,0.,0.00456815098948071,
0.00589624015004219),.UNSPECIFIED.);
#49=B_SPLINE_CURVE_WITH_KNOTS('',3,(#1286,#1287,#1288,#1289,#1290,#1291,
#1292,#1293),.UNSPECIFIED.,.F.,.F.,(4,2,2,4),(1.50680978933771E-6,0.00144586904872722,
0.00596628554496374,0.00601738441225933),.UNSPECIFIED.);
#50=B_SPLINE_CURVE_WITH_KNOTS('',3,(#1294,#1295,#1296,#1297,#1298),
 .UNSPECIFIED.,.F.,.F.,(4,1,4),(0.0826322607537907,0.0866634706911436,0.0975525262550951),
 .UNSPECIFIED.);
#51=B_SPLINE_CURVE_WITH_KNOTS('',3,(#1301,#1302,#1303,#1304),
 .UNSPECIFIED.,.F.,.F.,(4,4),(-3.26831824733645E-5,0.00317555501417991),
 .UNSPECIFIED.);
#52=B_SPLINE_SURFACE_WITH_KNOTS('',3,3,((#1223,#1224,#1225,#1226,#1227),
(#1228,#1229,#1230,#1231,#1232),(#1233,#1234,#1235,#1236,#1237),(#1238,
#1239,#1240,#1241,#1242)),.UNSPECIFIED.,.F.,.F.,.F.,(4,4),(4,1,4),(0.,1.),
(-0.142909159808054,-0.1320275855894,-0.121146011370747),.UNSPECIFIED.);
#53=B_SPLINE_SURFACE_WITH_KNOTS('',3,3,((#1264,#1265,#1266,#1267,#1268),
(#1269,#1270,#1271,#1272,#1273),(#1274,#1275,#1276,#1277,#1278),(#1279,
#1280,#1281,#1282,#1283)),.UNSPECIFIED.,.F.,.F.,.F.,(4,4),(4,1,4),(0.,1.),
(-0.0975525262550951,-0.0866634706911436,-0.0757744151271921),
 .UNSPECIFIED.);
#54=FACE_OUTER_BOUND('',#108,.T.);
#55=FACE_OUTER_BOUND('',#109,.T.);
#56=FACE_OUTER_BOUND('',#110,.T.);
#57=FACE_OUTER_BOUND('',#111,.T.);
#58=FACE_OUTER_BOUND('',#112,.T.);
#59=FACE_OUTER_BOUND('',#113,.T.);
#60=FACE_OUTER_BOUND('',#114,.T.);
#61=FACE_OUTER_BOUND('',#115,.T.);
#62=FACE_OUTER_BOUND('',#116,.T.);
#63=FACE_OUTER_BOUND('',#117,.T.);
#64=FACE_OUTER_BOUND('',#118,.T.);
#65=FACE_OUTER_BOUND('',#119,.T.);
#66=FACE_OUTER_BOUND('',#120,.T.);
#67=FACE_OUTER_BOUND('',#121,.T.);
#68=FACE_OUTER_BOUND('',#122,.T.);
#69=FACE_OUTER_BOUND('',#123,.T.);
#70=FACE_OUTER_BOUND('',#124,.T.);
#71=FACE_OUTER_BOUND('',#125,.T.);
#72=FACE_OUTER_BOUND('',#126,.T.);
#73=FACE_OUTER_BOUND('',#127,.T.);
#74=FACE_OUTER_BOUND('',#128,.T.);
#75=FACE_OUTER_BOUND('',#129,.T.);
#76=FACE_OUTER_BOUND('',#130,.T.);
#77=FACE_OUTER_BOUND('',#131,.T.);
#78=FACE_OUTER_BOUND('',#132,.T.);
#79=FACE_OUTER_BOUND('',#133,.T.);
#80=FACE_OUTER_BOUND('',#134,.T.);
#81=FACE_OUTER_BOUND('',#135,.T.);
#82=FACE_OUTER_BOUND('',#136,.T.);
#83=FACE_OUTER_BOUND('',#137,.T.);
#84=FACE_OUTER_BOUND('',#138,.T.);
#85=FACE_OUTER_BOUND('',#139,.T.);
#86=FACE_OUTER_BOUND('',#140,.T.);
#87=FACE_OUTER_BOUND('',#141,.T.);
#88=FACE_OUTER_BOUND('',#142,.T.);
#89=FACE_OUTER_BOUND('',#143,.T.);
#90=FACE_OUTER_BOUND('',#144,.T.);
#91=FACE_OUTER_BOUND('',#145,.T.);
#92=FACE_OUTER_BOUND('',#146,.T.);
#93=FACE_OUTER_BOUND('',#147,.T.);
#94=FACE_OUTER_BOUND('',#148,.T.);
#95=FACE_OUTER_BOUND('',#149,.T.);
#96=FACE_OUTER_BOUND('',#150,.T.);
#97=FACE_OUTER_BOUND('',#151,.T.);
#98=FACE_OUTER_BOUND('',#153,.T.);
#99=FACE_OUTER_BOUND('',#154,.T.);
#100=FACE_OUTER_BOUND('',#155,.T.);
#101=FACE_OUTER_BOUND('',#156,.T.);
#102=FACE_OUTER_BOUND('',#157,.T.);
#103=FACE_OUTER_BOUND('',#158,.T.);
#104=FACE_OUTER_BOUND('',#159,.T.);
#105=FACE_OUTER_BOUND('',#160,.T.);
#106=FACE_OUTER_BOUND('',#161,.T.);
#107=FACE_OUTER_BOUND('',#162,.T.);
#108=EDGE_LOOP('',(#512,#513,#514,#515));
#109=EDGE_LOOP('',(#516,#517,#518,#519,#520));
#110=EDGE_LOOP('',(#521,#522,#523,#524,#525));
#111=EDGE_LOOP('',(#526,#527,#528,#529,#530,#531,#532,#533));
#112=EDGE_LOOP('',(#534,#535,#536,#537,#538));
#113=EDGE_LOOP('',(#539,#540,#541,#542,#543,#544));
#114=EDGE_LOOP('',(#545,#546,#547,#548,#549,#550));
#115=EDGE_LOOP('',(#551,#552,#553));
#116=EDGE_LOOP('',(#554,#555,#556));
#117=EDGE_LOOP('',(#557,#558,#559,#560));
#118=EDGE_LOOP('',(#561,#562,#563));
#119=EDGE_LOOP('',(#564,#565,#566,#567));
#120=EDGE_LOOP('',(#568,#569,#570,#571,#572));
#121=EDGE_LOOP('',(#573,#574,#575));
#122=EDGE_LOOP('',(#576,#577,#578,#579));
#123=EDGE_LOOP('',(#580,#581,#582));
#124=EDGE_LOOP('',(#583,#584,#585,#586));
#125=EDGE_LOOP('',(#587,#588,#589));
#126=EDGE_LOOP('',(#590,#591,#592));
#127=EDGE_LOOP('',(#593,#594,#595,#596));
#128=EDGE_LOOP('',(#597,#598,#599));
#129=EDGE_LOOP('',(#600,#601,#602));
#130=EDGE_LOOP('',(#603,#604,#605,#606));
#131=EDGE_LOOP('',(#607,#608,#609));
#132=EDGE_LOOP('',(#610,#611,#612,#613));
#133=EDGE_LOOP('',(#614,#615,#616));
#134=EDGE_LOOP('',(#617,#618,#619,#620));
#135=EDGE_LOOP('',(#621,#622,#623,#624));
#136=EDGE_LOOP('',(#625,#626,#627));
#137=EDGE_LOOP('',(#628,#629,#630,#631));
#138=EDGE_LOOP('',(#632,#633,#634,#635));
#139=EDGE_LOOP('',(#636,#637,#638,#639));
#140=EDGE_LOOP('',(#640,#641,#642,#643));
#141=EDGE_LOOP('',(#644,#645,#646,#647));
#142=EDGE_LOOP('',(#648,#649,#650,#651));
#143=EDGE_LOOP('',(#652,#653,#654,#655));
#144=EDGE_LOOP('',(#656,#657,#658,#659));
#145=EDGE_LOOP('',(#660,#661,#662,#663));
#146=EDGE_LOOP('',(#664,#665,#666,#667));
#147=EDGE_LOOP('',(#668,#669,#670,#671));
#148=EDGE_LOOP('',(#672,#673,#674,#675,#676));
#149=EDGE_LOOP('',(#677,#678,#679,#680));
#150=EDGE_LOOP('',(#681,#682,#683,#684,#685));
#151=EDGE_LOOP('',(#686,#687,#688,#689,#690,#691,#692,#693,#694,#695,#696,
#697,#698,#699,#700,#701));
#152=EDGE_LOOP('',(#702));
#153=EDGE_LOOP('',(#703,#704,#705,#706));
#154=EDGE_LOOP('',(#707,#708,#709,#710,#711));
#155=EDGE_LOOP('',(#712,#713,#714,#715,#716));
#156=EDGE_LOOP('',(#717,#718,#719,#720));
#157=EDGE_LOOP('',(#721,#722,#723,#724,#725));
#158=EDGE_LOOP('',(#726,#727,#728,#729,#730));
#159=EDGE_LOOP('',(#731,#732,#733,#734,#735,#736));
#160=EDGE_LOOP('',(#737));
#161=EDGE_LOOP('',(#738,#739,#740,#741));
#162=EDGE_LOOP('',(#742,#743,#744,#745));
#163=LINE('',#1219,#222);
#164=LINE('',#1222,#223);
#165=LINE('',#1307,#224);
#166=LINE('',#1309,#225);
#167=LINE('',#1311,#226);
#168=LINE('',#1313,#227);
#169=LINE('',#1314,#228);
#170=LINE('',#1319,#229);
#171=LINE('',#1323,#230);
#172=LINE('',#1326,#231);
#173=LINE('',#1331,#232);
#174=LINE('',#1334,#233);
#175=LINE('',#1353,#234);
#176=LINE('',#1354,#235);
#177=LINE('',#1362,#236);
#178=LINE('',#1363,#237);
#179=LINE('',#1365,#238);
#180=LINE('',#1371,#239);
#181=LINE('',#1372,#240);
#182=LINE('',#1380,#241);
#183=LINE('',#1395,#242);
#184=LINE('',#1408,#243);
#185=LINE('',#1414,#244);
#186=LINE('',#1415,#245);
#187=LINE('',#1427,#246);
#188=LINE('',#1428,#247);
#189=LINE('',#1430,#248);
#190=LINE('',#1431,#249);
#191=LINE('',#1440,#250);
#192=LINE('',#1441,#251);
#193=LINE('',#1443,#252);
#194=LINE('',#1444,#253);
#195=LINE('',#1449,#254);
#196=LINE('',#1450,#255);
#197=LINE('',#1452,#256);
#198=LINE('',#1453,#257);
#199=LINE('',#1458,#258);
#200=LINE('',#1459,#259);
#201=LINE('',#1464,#260);
#202=LINE('',#1465,#261);
#203=LINE('',#1467,#262);
#204=LINE('',#1468,#263);
#205=LINE('',#1473,#264);
#206=LINE('',#1474,#265);
#207=LINE('',#1479,#266);
#208=LINE('',#1480,#267);
#209=LINE('',#1482,#268);
#210=LINE('',#1483,#269);
#211=LINE('',#1488,#270);
#212=LINE('',#1489,#271);
#213=LINE('',#1491,#272);
#214=LINE('',#1493,#273);
#215=LINE('',#1495,#274);
#216=LINE('',#1497,#275);
#217=LINE('',#1498,#276);
#218=LINE('',#1499,#277);
#219=LINE('',#1500,#278);
#220=LINE('',#1501,#279);
#221=LINE('',#1515,#280);
#222=VECTOR('',#950,10.);
#223=VECTOR('',#953,0.75);
#224=VECTOR('',#960,10.);
#225=VECTOR('',#961,10.);
#226=VECTOR('',#962,10.);
#227=VECTOR('',#963,10.);
#228=VECTOR('',#964,10.);
#229=VECTOR('',#969,10.);
#230=VECTOR('',#974,10.);
#231=VECTOR('',#977,10.);
#232=VECTOR('',#982,10.);
#233=VECTOR('',#985,10.);
#234=VECTOR('',#1006,10.);
#235=VECTOR('',#1007,10.);
#236=VECTOR('',#1018,10.);
#237=VECTOR('',#1019,10.);
#238=VECTOR('',#1022,10.);
#239=VECTOR('',#1031,10.);
#240=VECTOR('',#1032,10.);
#241=VECTOR('',#1043,10.);
#242=VECTOR('',#1062,10.);
#243=VECTOR('',#1079,10.);
#244=VECTOR('',#1088,10.);
#245=VECTOR('',#1089,10.);
#246=VECTOR('',#1102,10.);
#247=VECTOR('',#1103,10.);
#248=VECTOR('',#1106,10.);
#249=VECTOR('',#1107,10.);
#250=VECTOR('',#1118,10.);
#251=VECTOR('',#1119,10.);
#252=VECTOR('',#1122,10.);
#253=VECTOR('',#1123,10.);
#254=VECTOR('',#1128,10.);
#255=VECTOR('',#1129,10.);
#256=VECTOR('',#1132,10.);
#257=VECTOR('',#1133,10.);
#258=VECTOR('',#1138,10.);
#259=VECTOR('',#1139,10.);
#260=VECTOR('',#1144,10.);
#261=VECTOR('',#1145,10.);
#262=VECTOR('',#1148,10.);
#263=VECTOR('',#1149,10.);
#264=VECTOR('',#1154,10.);
#265=VECTOR('',#1155,10.);
#266=VECTOR('',#1160,10.);
#267=VECTOR('',#1161,10.);
#268=VECTOR('',#1164,10.);
#269=VECTOR('',#1165,10.);
#270=VECTOR('',#1170,10.);
#271=VECTOR('',#1171,10.);
#272=VECTOR('',#1174,10.);
#273=VECTOR('',#1177,10.);
#274=VECTOR('',#1180,10.);
#275=VECTOR('',#1183,10.);
#276=VECTOR('',#1184,10.);
#277=VECTOR('',#1185,10.);
#278=VECTOR('',#1186,10.);
#279=VECTOR('',#1187,10.);
#280=VECTOR('',#1210,2.5);
#281=CIRCLE('',#841,0.750000000000002);
#282=CIRCLE('',#842,0.750000000008907);
#283=CIRCLE('',#848,0.749999999999998);
#284=CIRCLE('',#850,0.749999999999996);
#285=CIRCLE('',#853,0.750000000000003);
#286=CIRCLE('',#855,0.750000000000002);
#287=CIRCLE('',#856,0.750000000000003);
#288=CIRCLE('',#857,0.749999999999998);
#289=CIRCLE('',#859,0.750000000000002);
#290=CIRCLE('',#860,0.749999999999998);
#291=CIRCLE('',#861,0.750000000000003);
#292=CIRCLE('',#863,0.75);
#293=CIRCLE('',#865,0.749999999999998);
#294=CIRCLE('',#866,0.750000000000003);
#295=CIRCLE('',#867,0.750000000000001);
#296=CIRCLE('',#871,0.749999999999994);
#297=CIRCLE('',#872,0.749999999999999);
#298=CIRCLE('',#875,0.749999999999995);
#299=CIRCLE('',#876,0.750000000000001);
#300=CIRCLE('',#877,0.749999999999998);
#301=CIRCLE('',#880,0.750000000000003);
#302=CIRCLE('',#881,0.749999999999998);
#303=CIRCLE('',#882,0.749999999999998);
#304=CIRCLE('',#884,0.749999999999995);
#305=CIRCLE('',#885,0.749999999999999);
#306=CIRCLE('',#886,0.750000000000003);
#307=CIRCLE('',#889,0.750000000000002);
#308=CIRCLE('',#890,0.749999999999998);
#309=CIRCLE('',#891,0.750000000000003);
#310=CIRCLE('',#893,0.750000000000003);
#311=CIRCLE('',#894,0.750000000000001);
#312=CIRCLE('',#897,0.749999999999998);
#313=CIRCLE('',#898,0.749999999999999);
#314=CIRCLE('',#901,0.749999999999997);
#315=CIRCLE('',#902,0.750000000000003);
#316=CIRCLE('',#903,0.749999999999995);
#317=CIRCLE('',#905,0.75);
#318=CIRCLE('',#908,0.749999999999997);
#319=CIRCLE('',#909,0.750000000000001);
#320=CIRCLE('',#910,0.749999999999997);
#321=CIRCLE('',#914,0.75);
#322=CIRCLE('',#917,0.75);
#323=CIRCLE('',#919,0.75);
#324=CIRCLE('',#922,0.75);
#325=CIRCLE('',#924,0.75);
#326=CIRCLE('',#927,0.75);
#327=CIRCLE('',#932,2.25);
#328=CIRCLE('',#941,2.25);
#329=VERTEX_POINT('',#1215);
#330=VERTEX_POINT('',#1216);
#331=VERTEX_POINT('',#1218);
#332=VERTEX_POINT('',#1220);
#333=VERTEX_POINT('',#1243);
#334=VERTEX_POINT('',#1244);
#335=VERTEX_POINT('',#1250);
#336=VERTEX_POINT('',#1284);
#337=VERTEX_POINT('',#1285);
#338=VERTEX_POINT('',#1299);
#339=VERTEX_POINT('',#1306);
#340=VERTEX_POINT('',#1308);
#341=VERTEX_POINT('',#1310);
#342=VERTEX_POINT('',#1312);
#343=VERTEX_POINT('',#1316);
#344=VERTEX_POINT('',#1318);
#345=VERTEX_POINT('',#1322);
#346=VERTEX_POINT('',#1324);
#347=VERTEX_POINT('',#1328);
#348=VERTEX_POINT('',#1330);
#349=VERTEX_POINT('',#1332);
#350=VERTEX_POINT('',#1336);
#351=VERTEX_POINT('',#1337);
#352=VERTEX_POINT('',#1339);
#353=VERTEX_POINT('',#1343);
#354=VERTEX_POINT('',#1344);
#355=VERTEX_POINT('',#1346);
#356=VERTEX_POINT('',#1350);
#357=VERTEX_POINT('',#1351);
#358=VERTEX_POINT('',#1356);
#359=VERTEX_POINT('',#1358);
#360=VERTEX_POINT('',#1367);
#361=VERTEX_POINT('',#1374);
#362=VERTEX_POINT('',#1375);
#363=VERTEX_POINT('',#1382);
#364=VERTEX_POINT('',#1383);
#365=VERTEX_POINT('',#1385);
#366=VERTEX_POINT('',#1389);
#367=VERTEX_POINT('',#1390);
#368=VERTEX_POINT('',#1397);
#369=VERTEX_POINT('',#1398);
#370=VERTEX_POINT('',#1400);
#371=VERTEX_POINT('',#1404);
#372=VERTEX_POINT('',#1410);
#373=VERTEX_POINT('',#1417);
#374=VERTEX_POINT('',#1418);
#375=VERTEX_POINT('',#1420);
#376=VERTEX_POINT('',#1424);
#377=VERTEX_POINT('',#1425);
#378=VERTEX_POINT('',#1433);
#379=VERTEX_POINT('',#1434);
#380=VERTEX_POINT('',#1436);
#381=VERTEX_POINT('',#1446);
#382=VERTEX_POINT('',#1447);
#383=VERTEX_POINT('',#1455);
#384=VERTEX_POINT('',#1456);
#385=VERTEX_POINT('',#1461);
#386=VERTEX_POINT('',#1462);
#387=VERTEX_POINT('',#1470);
#388=VERTEX_POINT('',#1471);
#389=VERTEX_POINT('',#1476);
#390=VERTEX_POINT('',#1477);
#391=VERTEX_POINT('',#1485);
#392=VERTEX_POINT('',#1486);
#393=VERTEX_POINT('',#1502);
#394=VERTEX_POINT('',#1512);
#395=EDGE_CURVE('',#329,#330,#281,.T.);
#396=EDGE_CURVE('',#331,#330,#163,.T.);
#397=EDGE_CURVE('',#331,#332,#282,.T.);
#398=EDGE_CURVE('',#332,#329,#164,.T.);
#399=EDGE_CURVE('',#333,#334,#46,.T.);
#400=EDGE_CURVE('',#330,#334,#42,.T.);
#401=EDGE_CURVE('',#329,#335,#47,.T.);
#402=EDGE_CURVE('',#335,#333,#48,.T.);
#403=EDGE_CURVE('',#336,#337,#49,.T.);
#404=EDGE_CURVE('',#337,#332,#50,.T.);
#405=EDGE_CURVE('',#338,#331,#43,.T.);
#406=EDGE_CURVE('',#338,#336,#51,.T.);
#407=EDGE_CURVE('',#339,#337,#165,.T.);
#408=EDGE_CURVE('',#340,#339,#166,.T.);
#409=EDGE_CURVE('',#341,#340,#167,.T.);
#410=EDGE_CURVE('',#342,#341,#168,.T.);
#411=EDGE_CURVE('',#335,#342,#169,.T.);
#412=EDGE_CURVE('',#336,#343,#44,.T.);
#413=EDGE_CURVE('',#343,#344,#170,.T.);
#414=EDGE_CURVE('',#344,#339,#283,.F.);
#415=EDGE_CURVE('',#331,#345,#171,.T.);
#416=EDGE_CURVE('',#345,#346,#284,.F.);
#417=EDGE_CURVE('',#346,#343,#172,.T.);
#418=EDGE_CURVE('',#347,#333,#45,.T.);
#419=EDGE_CURVE('',#347,#348,#173,.T.);
#420=EDGE_CURVE('',#348,#349,#285,.F.);
#421=EDGE_CURVE('',#349,#330,#174,.T.);
#422=EDGE_CURVE('',#350,#351,#286,.F.);
#423=EDGE_CURVE('',#352,#350,#287,.F.);
#424=EDGE_CURVE('',#351,#352,#288,.F.);
#425=EDGE_CURVE('',#353,#354,#289,.F.);
#426=EDGE_CURVE('',#355,#353,#290,.F.);
#427=EDGE_CURVE('',#354,#355,#291,.F.);
#428=EDGE_CURVE('',#356,#357,#292,.T.);
#429=EDGE_CURVE('',#357,#355,#175,.T.);
#430=EDGE_CURVE('',#353,#356,#176,.T.);
#431=EDGE_CURVE('',#358,#342,#293,.F.);
#432=EDGE_CURVE('',#359,#358,#294,.F.);
#433=EDGE_CURVE('',#342,#359,#295,.F.);
#434=EDGE_CURVE('',#358,#351,#177,.T.);
#435=EDGE_CURVE('',#352,#359,#178,.T.);
#436=EDGE_CURVE('',#359,#347,#179,.T.);
#437=EDGE_CURVE('',#360,#348,#296,.F.);
#438=EDGE_CURVE('',#349,#360,#297,.F.);
#439=EDGE_CURVE('',#355,#360,#180,.T.);
#440=EDGE_CURVE('',#348,#354,#181,.T.);
#441=EDGE_CURVE('',#361,#362,#298,.F.);
#442=EDGE_CURVE('',#341,#361,#299,.F.);
#443=EDGE_CURVE('',#362,#341,#300,.F.);
#444=EDGE_CURVE('',#361,#358,#182,.T.);
#445=EDGE_CURVE('',#363,#364,#301,.F.);
#446=EDGE_CURVE('',#365,#363,#302,.F.);
#447=EDGE_CURVE('',#364,#365,#303,.F.);
#448=EDGE_CURVE('',#366,#367,#304,.F.);
#449=EDGE_CURVE('',#340,#366,#305,.F.);
#450=EDGE_CURVE('',#367,#340,#306,.F.);
#451=EDGE_CURVE('',#366,#362,#183,.T.);
#452=EDGE_CURVE('',#368,#369,#307,.F.);
#453=EDGE_CURVE('',#370,#368,#308,.F.);
#454=EDGE_CURVE('',#369,#370,#309,.F.);
#455=EDGE_CURVE('',#371,#344,#310,.F.);
#456=EDGE_CURVE('',#339,#371,#311,.F.);
#457=EDGE_CURVE('',#371,#367,#184,.T.);
#458=EDGE_CURVE('',#372,#345,#312,.F.);
#459=EDGE_CURVE('',#346,#372,#313,.F.);
#460=EDGE_CURVE('',#368,#372,#185,.T.);
#461=EDGE_CURVE('',#345,#370,#186,.T.);
#462=EDGE_CURVE('',#373,#374,#314,.F.);
#463=EDGE_CURVE('',#375,#373,#315,.F.);
#464=EDGE_CURVE('',#374,#375,#316,.F.);
#465=EDGE_CURVE('',#376,#377,#317,.T.);
#466=EDGE_CURVE('',#377,#375,#187,.T.);
#467=EDGE_CURVE('',#373,#376,#188,.T.);
#468=EDGE_CURVE('',#375,#371,#189,.T.);
#469=EDGE_CURVE('',#344,#374,#190,.T.);
#470=EDGE_CURVE('',#378,#379,#318,.F.);
#471=EDGE_CURVE('',#380,#378,#319,.F.);
#472=EDGE_CURVE('',#379,#380,#320,.F.);
#473=EDGE_CURVE('',#374,#380,#191,.T.);
#474=EDGE_CURVE('',#378,#373,#192,.T.);
#475=EDGE_CURVE('',#372,#379,#193,.T.);
#476=EDGE_CURVE('',#380,#346,#194,.T.);
#477=EDGE_CURVE('',#381,#382,#321,.T.);
#478=EDGE_CURVE('',#382,#378,#195,.T.);
#479=EDGE_CURVE('',#379,#381,#196,.T.);
#480=EDGE_CURVE('',#370,#365,#197,.T.);
#481=EDGE_CURVE('',#363,#369,#198,.T.);
#482=EDGE_CURVE('',#383,#384,#322,.T.);
#483=EDGE_CURVE('',#384,#368,#199,.T.);
#484=EDGE_CURVE('',#369,#383,#200,.T.);
#485=EDGE_CURVE('',#385,#386,#323,.T.);
#486=EDGE_CURVE('',#386,#366,#201,.T.);
#487=EDGE_CURVE('',#367,#385,#202,.T.);
#488=EDGE_CURVE('',#360,#364,#203,.T.);
#489=EDGE_CURVE('',#365,#349,#204,.T.);
#490=EDGE_CURVE('',#387,#388,#324,.T.);
#491=EDGE_CURVE('',#388,#363,#205,.T.);
#492=EDGE_CURVE('',#364,#387,#206,.T.);
#493=EDGE_CURVE('',#389,#390,#325,.T.);
#494=EDGE_CURVE('',#390,#361,#207,.T.);
#495=EDGE_CURVE('',#362,#389,#208,.T.);
#496=EDGE_CURVE('',#354,#352,#209,.T.);
#497=EDGE_CURVE('',#350,#353,#210,.T.);
#498=EDGE_CURVE('',#391,#392,#326,.T.);
#499=EDGE_CURVE('',#392,#350,#211,.T.);
#500=EDGE_CURVE('',#351,#391,#212,.T.);
#501=EDGE_CURVE('',#377,#385,#213,.T.);
#502=EDGE_CURVE('',#376,#382,#214,.T.);
#503=EDGE_CURVE('',#384,#381,#215,.T.);
#504=EDGE_CURVE('',#383,#388,#216,.T.);
#505=EDGE_CURVE('',#357,#387,#217,.T.);
#506=EDGE_CURVE('',#356,#392,#218,.T.);
#507=EDGE_CURVE('',#390,#391,#219,.T.);
#508=EDGE_CURVE('',#389,#386,#220,.T.);
#509=EDGE_CURVE('',#393,#393,#327,.F.);
#510=EDGE_CURVE('',#394,#394,#328,.F.);
#511=EDGE_CURVE('',#394,#393,#221,.T.);
#512=ORIENTED_EDGE('',*,*,#395,.T.);
#513=ORIENTED_EDGE('',*,*,#396,.F.);
#514=ORIENTED_EDGE('',*,*,#397,.T.);
#515=ORIENTED_EDGE('',*,*,#398,.T.);
#516=ORIENTED_EDGE('',*,*,#399,.T.);
#517=ORIENTED_EDGE('',*,*,#400,.F.);
#518=ORIENTED_EDGE('',*,*,#395,.F.);
#519=ORIENTED_EDGE('',*,*,#401,.T.);
#520=ORIENTED_EDGE('',*,*,#402,.T.);
#521=ORIENTED_EDGE('',*,*,#403,.T.);
#522=ORIENTED_EDGE('',*,*,#404,.T.);
#523=ORIENTED_EDGE('',*,*,#397,.F.);
#524=ORIENTED_EDGE('',*,*,#405,.F.);
#525=ORIENTED_EDGE('',*,*,#406,.T.);
#526=ORIENTED_EDGE('',*,*,#401,.F.);
#527=ORIENTED_EDGE('',*,*,#398,.F.);
#528=ORIENTED_EDGE('',*,*,#404,.F.);
#529=ORIENTED_EDGE('',*,*,#407,.F.);
#530=ORIENTED_EDGE('',*,*,#408,.F.);
#531=ORIENTED_EDGE('',*,*,#409,.F.);
#532=ORIENTED_EDGE('',*,*,#410,.F.);
#533=ORIENTED_EDGE('',*,*,#411,.F.);
#534=ORIENTED_EDGE('',*,*,#403,.F.);
#535=ORIENTED_EDGE('',*,*,#412,.T.);
#536=ORIENTED_EDGE('',*,*,#413,.T.);
#537=ORIENTED_EDGE('',*,*,#414,.T.);
#538=ORIENTED_EDGE('',*,*,#407,.T.);
#539=ORIENTED_EDGE('',*,*,#406,.F.);
#540=ORIENTED_EDGE('',*,*,#405,.T.);
#541=ORIENTED_EDGE('',*,*,#415,.T.);
#542=ORIENTED_EDGE('',*,*,#416,.T.);
#543=ORIENTED_EDGE('',*,*,#417,.T.);
#544=ORIENTED_EDGE('',*,*,#412,.F.);
#545=ORIENTED_EDGE('',*,*,#399,.F.);
#546=ORIENTED_EDGE('',*,*,#418,.F.);
#547=ORIENTED_EDGE('',*,*,#419,.T.);
#548=ORIENTED_EDGE('',*,*,#420,.T.);
#549=ORIENTED_EDGE('',*,*,#421,.T.);
#550=ORIENTED_EDGE('',*,*,#400,.T.);
#551=ORIENTED_EDGE('',*,*,#422,.F.);
#552=ORIENTED_EDGE('',*,*,#423,.F.);
#553=ORIENTED_EDGE('',*,*,#424,.F.);
#554=ORIENTED_EDGE('',*,*,#425,.F.);
#555=ORIENTED_EDGE('',*,*,#426,.F.);
#556=ORIENTED_EDGE('',*,*,#427,.F.);
#557=ORIENTED_EDGE('',*,*,#428,.T.);
#558=ORIENTED_EDGE('',*,*,#429,.T.);
#559=ORIENTED_EDGE('',*,*,#426,.T.);
#560=ORIENTED_EDGE('',*,*,#430,.T.);
#561=ORIENTED_EDGE('',*,*,#431,.F.);
#562=ORIENTED_EDGE('',*,*,#432,.F.);
#563=ORIENTED_EDGE('',*,*,#433,.F.);
#564=ORIENTED_EDGE('',*,*,#432,.T.);
#565=ORIENTED_EDGE('',*,*,#434,.T.);
#566=ORIENTED_EDGE('',*,*,#424,.T.);
#567=ORIENTED_EDGE('',*,*,#435,.T.);
#568=ORIENTED_EDGE('',*,*,#402,.F.);
#569=ORIENTED_EDGE('',*,*,#411,.T.);
#570=ORIENTED_EDGE('',*,*,#433,.T.);
#571=ORIENTED_EDGE('',*,*,#436,.T.);
#572=ORIENTED_EDGE('',*,*,#418,.T.);
#573=ORIENTED_EDGE('',*,*,#420,.F.);
#574=ORIENTED_EDGE('',*,*,#437,.F.);
#575=ORIENTED_EDGE('',*,*,#438,.F.);
#576=ORIENTED_EDGE('',*,*,#427,.T.);
#577=ORIENTED_EDGE('',*,*,#439,.T.);
#578=ORIENTED_EDGE('',*,*,#437,.T.);
#579=ORIENTED_EDGE('',*,*,#440,.T.);
#580=ORIENTED_EDGE('',*,*,#441,.F.);
#581=ORIENTED_EDGE('',*,*,#442,.F.);
#582=ORIENTED_EDGE('',*,*,#443,.F.);
#583=ORIENTED_EDGE('',*,*,#442,.T.);
#584=ORIENTED_EDGE('',*,*,#444,.T.);
#585=ORIENTED_EDGE('',*,*,#431,.T.);
#586=ORIENTED_EDGE('',*,*,#410,.T.);
#587=ORIENTED_EDGE('',*,*,#445,.F.);
#588=ORIENTED_EDGE('',*,*,#446,.F.);
#589=ORIENTED_EDGE('',*,*,#447,.F.);
#590=ORIENTED_EDGE('',*,*,#448,.F.);
#591=ORIENTED_EDGE('',*,*,#449,.F.);
#592=ORIENTED_EDGE('',*,*,#450,.F.);
#593=ORIENTED_EDGE('',*,*,#443,.T.);
#594=ORIENTED_EDGE('',*,*,#409,.T.);
#595=ORIENTED_EDGE('',*,*,#449,.T.);
#596=ORIENTED_EDGE('',*,*,#451,.T.);
#597=ORIENTED_EDGE('',*,*,#452,.F.);
#598=ORIENTED_EDGE('',*,*,#453,.F.);
#599=ORIENTED_EDGE('',*,*,#454,.F.);
#600=ORIENTED_EDGE('',*,*,#455,.F.);
#601=ORIENTED_EDGE('',*,*,#456,.F.);
#602=ORIENTED_EDGE('',*,*,#414,.F.);
#603=ORIENTED_EDGE('',*,*,#456,.T.);
#604=ORIENTED_EDGE('',*,*,#457,.T.);
#605=ORIENTED_EDGE('',*,*,#450,.T.);
#606=ORIENTED_EDGE('',*,*,#408,.T.);
#607=ORIENTED_EDGE('',*,*,#416,.F.);
#608=ORIENTED_EDGE('',*,*,#458,.F.);
#609=ORIENTED_EDGE('',*,*,#459,.F.);
#610=ORIENTED_EDGE('',*,*,#453,.T.);
#611=ORIENTED_EDGE('',*,*,#460,.T.);
#612=ORIENTED_EDGE('',*,*,#458,.T.);
#613=ORIENTED_EDGE('',*,*,#461,.T.);
#614=ORIENTED_EDGE('',*,*,#462,.F.);
#615=ORIENTED_EDGE('',*,*,#463,.F.);
#616=ORIENTED_EDGE('',*,*,#464,.F.);
#617=ORIENTED_EDGE('',*,*,#465,.T.);
#618=ORIENTED_EDGE('',*,*,#466,.T.);
#619=ORIENTED_EDGE('',*,*,#463,.T.);
#620=ORIENTED_EDGE('',*,*,#467,.T.);
#621=ORIENTED_EDGE('',*,*,#464,.T.);
#622=ORIENTED_EDGE('',*,*,#468,.T.);
#623=ORIENTED_EDGE('',*,*,#455,.T.);
#624=ORIENTED_EDGE('',*,*,#469,.T.);
#625=ORIENTED_EDGE('',*,*,#470,.F.);
#626=ORIENTED_EDGE('',*,*,#471,.F.);
#627=ORIENTED_EDGE('',*,*,#472,.F.);
#628=ORIENTED_EDGE('',*,*,#462,.T.);
#629=ORIENTED_EDGE('',*,*,#473,.T.);
#630=ORIENTED_EDGE('',*,*,#471,.T.);
#631=ORIENTED_EDGE('',*,*,#474,.T.);
#632=ORIENTED_EDGE('',*,*,#459,.T.);
#633=ORIENTED_EDGE('',*,*,#475,.T.);
#634=ORIENTED_EDGE('',*,*,#472,.T.);
#635=ORIENTED_EDGE('',*,*,#476,.T.);
#636=ORIENTED_EDGE('',*,*,#477,.T.);
#637=ORIENTED_EDGE('',*,*,#478,.T.);
#638=ORIENTED_EDGE('',*,*,#470,.T.);
#639=ORIENTED_EDGE('',*,*,#479,.T.);
#640=ORIENTED_EDGE('',*,*,#454,.T.);
#641=ORIENTED_EDGE('',*,*,#480,.T.);
#642=ORIENTED_EDGE('',*,*,#446,.T.);
#643=ORIENTED_EDGE('',*,*,#481,.T.);
#644=ORIENTED_EDGE('',*,*,#482,.T.);
#645=ORIENTED_EDGE('',*,*,#483,.T.);
#646=ORIENTED_EDGE('',*,*,#452,.T.);
#647=ORIENTED_EDGE('',*,*,#484,.T.);
#648=ORIENTED_EDGE('',*,*,#485,.T.);
#649=ORIENTED_EDGE('',*,*,#486,.T.);
#650=ORIENTED_EDGE('',*,*,#448,.T.);
#651=ORIENTED_EDGE('',*,*,#487,.T.);
#652=ORIENTED_EDGE('',*,*,#438,.T.);
#653=ORIENTED_EDGE('',*,*,#488,.T.);
#654=ORIENTED_EDGE('',*,*,#447,.T.);
#655=ORIENTED_EDGE('',*,*,#489,.T.);
#656=ORIENTED_EDGE('',*,*,#490,.T.);
#657=ORIENTED_EDGE('',*,*,#491,.T.);
#658=ORIENTED_EDGE('',*,*,#445,.T.);
#659=ORIENTED_EDGE('',*,*,#492,.T.);
#660=ORIENTED_EDGE('',*,*,#493,.T.);
#661=ORIENTED_EDGE('',*,*,#494,.T.);
#662=ORIENTED_EDGE('',*,*,#441,.T.);
#663=ORIENTED_EDGE('',*,*,#495,.T.);
#664=ORIENTED_EDGE('',*,*,#425,.T.);
#665=ORIENTED_EDGE('',*,*,#496,.T.);
#666=ORIENTED_EDGE('',*,*,#423,.T.);
#667=ORIENTED_EDGE('',*,*,#497,.T.);
#668=ORIENTED_EDGE('',*,*,#498,.T.);
#669=ORIENTED_EDGE('',*,*,#499,.T.);
#670=ORIENTED_EDGE('',*,*,#422,.T.);
#671=ORIENTED_EDGE('',*,*,#500,.T.);
#672=ORIENTED_EDGE('',*,*,#487,.F.);
#673=ORIENTED_EDGE('',*,*,#457,.F.);
#674=ORIENTED_EDGE('',*,*,#468,.F.);
#675=ORIENTED_EDGE('',*,*,#466,.F.);
#676=ORIENTED_EDGE('',*,*,#501,.T.);
#677=ORIENTED_EDGE('',*,*,#467,.F.);
#678=ORIENTED_EDGE('',*,*,#474,.F.);
#679=ORIENTED_EDGE('',*,*,#478,.F.);
#680=ORIENTED_EDGE('',*,*,#502,.F.);
#681=ORIENTED_EDGE('',*,*,#479,.F.);
#682=ORIENTED_EDGE('',*,*,#475,.F.);
#683=ORIENTED_EDGE('',*,*,#460,.F.);
#684=ORIENTED_EDGE('',*,*,#483,.F.);
#685=ORIENTED_EDGE('',*,*,#503,.T.);
#686=ORIENTED_EDGE('',*,*,#485,.F.);
#687=ORIENTED_EDGE('',*,*,#501,.F.);
#688=ORIENTED_EDGE('',*,*,#465,.F.);
#689=ORIENTED_EDGE('',*,*,#502,.T.);
#690=ORIENTED_EDGE('',*,*,#477,.F.);
#691=ORIENTED_EDGE('',*,*,#503,.F.);
#692=ORIENTED_EDGE('',*,*,#482,.F.);
#693=ORIENTED_EDGE('',*,*,#504,.T.);
#694=ORIENTED_EDGE('',*,*,#490,.F.);
#695=ORIENTED_EDGE('',*,*,#505,.F.);
#696=ORIENTED_EDGE('',*,*,#428,.F.);
#697=ORIENTED_EDGE('',*,*,#506,.T.);
#698=ORIENTED_EDGE('',*,*,#498,.F.);
#699=ORIENTED_EDGE('',*,*,#507,.F.);
#700=ORIENTED_EDGE('',*,*,#493,.F.);
#701=ORIENTED_EDGE('',*,*,#508,.T.);
#702=ORIENTED_EDGE('',*,*,#509,.T.);
#703=ORIENTED_EDGE('',*,*,#484,.F.);
#704=ORIENTED_EDGE('',*,*,#481,.F.);
#705=ORIENTED_EDGE('',*,*,#491,.F.);
#706=ORIENTED_EDGE('',*,*,#504,.F.);
#707=ORIENTED_EDGE('',*,*,#417,.F.);
#708=ORIENTED_EDGE('',*,*,#476,.F.);
#709=ORIENTED_EDGE('',*,*,#473,.F.);
#710=ORIENTED_EDGE('',*,*,#469,.F.);
#711=ORIENTED_EDGE('',*,*,#413,.F.);
#712=ORIENTED_EDGE('',*,*,#435,.F.);
#713=ORIENTED_EDGE('',*,*,#496,.F.);
#714=ORIENTED_EDGE('',*,*,#440,.F.);
#715=ORIENTED_EDGE('',*,*,#419,.F.);
#716=ORIENTED_EDGE('',*,*,#436,.F.);
#717=ORIENTED_EDGE('',*,*,#486,.F.);
#718=ORIENTED_EDGE('',*,*,#508,.F.);
#719=ORIENTED_EDGE('',*,*,#495,.F.);
#720=ORIENTED_EDGE('',*,*,#451,.F.);
#721=ORIENTED_EDGE('',*,*,#494,.F.);
#722=ORIENTED_EDGE('',*,*,#507,.T.);
#723=ORIENTED_EDGE('',*,*,#500,.F.);
#724=ORIENTED_EDGE('',*,*,#434,.F.);
#725=ORIENTED_EDGE('',*,*,#444,.F.);
#726=ORIENTED_EDGE('',*,*,#429,.F.);
#727=ORIENTED_EDGE('',*,*,#505,.T.);
#728=ORIENTED_EDGE('',*,*,#492,.F.);
#729=ORIENTED_EDGE('',*,*,#488,.F.);
#730=ORIENTED_EDGE('',*,*,#439,.F.);
#731=ORIENTED_EDGE('',*,*,#415,.F.);
#732=ORIENTED_EDGE('',*,*,#396,.T.);
#733=ORIENTED_EDGE('',*,*,#421,.F.);
#734=ORIENTED_EDGE('',*,*,#489,.F.);
#735=ORIENTED_EDGE('',*,*,#480,.F.);
#736=ORIENTED_EDGE('',*,*,#461,.F.);
#737=ORIENTED_EDGE('',*,*,#510,.F.);
#738=ORIENTED_EDGE('',*,*,#510,.T.);
#739=ORIENTED_EDGE('',*,*,#511,.T.);
#740=ORIENTED_EDGE('',*,*,#509,.F.);
#741=ORIENTED_EDGE('',*,*,#511,.F.);
#742=ORIENTED_EDGE('',*,*,#499,.F.);
#743=ORIENTED_EDGE('',*,*,#506,.F.);
#744=ORIENTED_EDGE('',*,*,#430,.F.);
#745=ORIENTED_EDGE('',*,*,#497,.F.);
#746=CYLINDRICAL_SURFACE('',#840,0.75);
#747=CYLINDRICAL_SURFACE('',#846,0.75);
#748=CYLINDRICAL_SURFACE('',#849,0.75);
#749=CYLINDRICAL_SURFACE('',#851,0.75);
#750=CYLINDRICAL_SURFACE('',#862,0.75);
#751=CYLINDRICAL_SURFACE('',#868,0.75);
#752=CYLINDRICAL_SURFACE('',#869,0.75);
#753=CYLINDRICAL_SURFACE('',#873,0.75);
#754=CYLINDRICAL_SURFACE('',#878,0.75);
#755=CYLINDRICAL_SURFACE('',#887,0.75);
#756=CYLINDRICAL_SURFACE('',#895,0.75);
#757=CYLINDRICAL_SURFACE('',#899,0.75);
#758=CYLINDRICAL_SURFACE('',#904,0.75);
#759=CYLINDRICAL_SURFACE('',#906,0.75);
#760=CYLINDRICAL_SURFACE('',#911,0.75);
#761=CYLINDRICAL_SURFACE('',#912,0.75);
#762=CYLINDRICAL_SURFACE('',#913,0.75);
#763=CYLINDRICAL_SURFACE('',#915,0.75);
#764=CYLINDRICAL_SURFACE('',#916,0.75);
#765=CYLINDRICAL_SURFACE('',#918,0.75);
#766=CYLINDRICAL_SURFACE('',#920,0.75);
#767=CYLINDRICAL_SURFACE('',#921,0.75);
#768=CYLINDRICAL_SURFACE('',#923,0.75);
#769=CYLINDRICAL_SURFACE('',#925,0.75);
#770=CYLINDRICAL_SURFACE('',#926,0.75);
#771=CYLINDRICAL_SURFACE('',#942,2.25);
#772=ADVANCED_FACE('',(#54),#746,.T.);
#773=ADVANCED_FACE('',(#55),#52,.F.);
#774=ADVANCED_FACE('',(#56),#53,.F.);
#775=ADVANCED_FACE('',(#57),#28,.T.);
#776=ADVANCED_FACE('',(#58),#747,.T.);
#777=ADVANCED_FACE('',(#59),#748,.T.);
#778=ADVANCED_FACE('',(#60),#749,.T.);
#779=ADVANCED_FACE('',(#61),#16,.T.);
#780=ADVANCED_FACE('',(#62),#17,.T.);
#781=ADVANCED_FACE('',(#63),#750,.T.);
#782=ADVANCED_FACE('',(#64),#18,.T.);
#783=ADVANCED_FACE('',(#65),#751,.T.);
#784=ADVANCED_FACE('',(#66),#752,.T.);
#785=ADVANCED_FACE('',(#67),#19,.T.);
#786=ADVANCED_FACE('',(#68),#753,.T.);
#787=ADVANCED_FACE('',(#69),#20,.T.);
#788=ADVANCED_FACE('',(#70),#754,.T.);
#789=ADVANCED_FACE('',(#71),#21,.T.);
#790=ADVANCED_FACE('',(#72),#22,.T.);
#791=ADVANCED_FACE('',(#73),#755,.T.);
#792=ADVANCED_FACE('',(#74),#23,.T.);
#793=ADVANCED_FACE('',(#75),#24,.T.);
#794=ADVANCED_FACE('',(#76),#756,.T.);
#795=ADVANCED_FACE('',(#77),#25,.T.);
#796=ADVANCED_FACE('',(#78),#757,.T.);
#797=ADVANCED_FACE('',(#79),#26,.T.);
#798=ADVANCED_FACE('',(#80),#758,.T.);
#799=ADVANCED_FACE('',(#81),#759,.T.);
#800=ADVANCED_FACE('',(#82),#27,.T.);
#801=ADVANCED_FACE('',(#83),#760,.T.);
#802=ADVANCED_FACE('',(#84),#761,.T.);
#803=ADVANCED_FACE('',(#85),#762,.T.);
#804=ADVANCED_FACE('',(#86),#763,.T.);
#805=ADVANCED_FACE('',(#87),#764,.T.);
#806=ADVANCED_FACE('',(#88),#765,.T.);
#807=ADVANCED_FACE('',(#89),#766,.T.);
#808=ADVANCED_FACE('',(#90),#767,.T.);
#809=ADVANCED_FACE('',(#91),#768,.T.);
#810=ADVANCED_FACE('',(#92),#769,.T.);
#811=ADVANCED_FACE('',(#93),#770,.T.);
#812=ADVANCED_FACE('',(#94),#29,.T.);
#813=ADVANCED_FACE('',(#95),#30,.T.);
#814=ADVANCED_FACE('',(#96),#31,.T.);
#815=ADVANCED_FACE('',(#97,#15),#32,.F.);
#816=ADVANCED_FACE('',(#98),#33,.T.);
#817=ADVANCED_FACE('',(#99),#34,.T.);
#818=ADVANCED_FACE('',(#100),#35,.T.);
#819=ADVANCED_FACE('',(#101),#36,.T.);
#820=ADVANCED_FACE('',(#102),#37,.T.);
#821=ADVANCED_FACE('',(#103),#38,.T.);
#822=ADVANCED_FACE('',(#104),#39,.T.);
#823=ADVANCED_FACE('',(#105),#40,.F.);
#824=ADVANCED_FACE('',(#106),#771,.F.);
#825=ADVANCED_FACE('',(#107),#41,.T.);
#826=CLOSED_SHELL('',(#772,#773,#774,#775,#776,#777,#778,#779,#780,#781,
#782,#783,#784,#785,#786,#787,#788,#789,#790,#791,#792,#793,#794,#795,#796,
#797,#798,#799,#800,#801,#802,#803,#804,#805,#806,#807,#808,#809,#810,#811,
#812,#813,#814,#815,#816,#817,#818,#819,#820,#821,#822,#823,#824,#825));
#827=DERIVED_UNIT_ELEMENT(#829,1.);
#828=DERIVED_UNIT_ELEMENT(#1522,-3.);
#829=(
MASS_UNIT()
NAMED_UNIT(*)
SI_UNIT(.KILO.,.GRAM.)
);
#830=DERIVED_UNIT((#827,#828));
#831=MEASURE_REPRESENTATION_ITEM('density measure',
POSITIVE_RATIO_MEASURE(7850.),#830);
#832=PROPERTY_DEFINITION_REPRESENTATION(#837,#834);
#833=PROPERTY_DEFINITION_REPRESENTATION(#838,#835);
#834=REPRESENTATION('material name',(#836),#1519);
#835=REPRESENTATION('density',(#831),#1519);
#836=DESCRIPTIVE_REPRESENTATION_ITEM('Steel','Steel');
#837=PROPERTY_DEFINITION('material property','material name',#1529);
#838=PROPERTY_DEFINITION('material property','density of part',#1529);
#839=AXIS2_PLACEMENT_3D('',#1213,#944,#945);
#840=AXIS2_PLACEMENT_3D('',#1214,#946,#947);
#841=AXIS2_PLACEMENT_3D('',#1217,#948,#949);
#842=AXIS2_PLACEMENT_3D('',#1221,#951,#952);
#843=AXIS2_PLACEMENT_3D('',#1249,#954,#955);
#844=AXIS2_PLACEMENT_3D('',#1300,#956,#957);
#845=AXIS2_PLACEMENT_3D('',#1305,#958,#959);
#846=AXIS2_PLACEMENT_3D('',#1315,#965,#966);
#847=AXIS2_PLACEMENT_3D('',#1317,#967,#968);
#848=AXIS2_PLACEMENT_3D('',#1320,#970,#971);
#849=AXIS2_PLACEMENT_3D('',#1321,#972,#973);
#850=AXIS2_PLACEMENT_3D('',#1325,#975,#976);
#851=AXIS2_PLACEMENT_3D('',#1327,#978,#979);
#852=AXIS2_PLACEMENT_3D('',#1329,#980,#981);
#853=AXIS2_PLACEMENT_3D('',#1333,#983,#984);
#854=AXIS2_PLACEMENT_3D('',#1335,#986,#987);
#855=AXIS2_PLACEMENT_3D('',#1338,#988,#989);
#856=AXIS2_PLACEMENT_3D('',#1340,#990,#991);
#857=AXIS2_PLACEMENT_3D('',#1341,#992,#993);
#858=AXIS2_PLACEMENT_3D('',#1342,#994,#995);
#859=AXIS2_PLACEMENT_3D('',#1345,#996,#997);
#860=AXIS2_PLACEMENT_3D('',#1347,#998,#999);
#861=AXIS2_PLACEMENT_3D('',#1348,#1000,#1001);
#862=AXIS2_PLACEMENT_3D('',#1349,#1002,#1003);
#863=AXIS2_PLACEMENT_3D('',#1352,#1004,#1005);
#864=AXIS2_PLACEMENT_3D('',#1355,#1008,#1009);
#865=AXIS2_PLACEMENT_3D('',#1357,#1010,#1011);
#866=AXIS2_PLACEMENT_3D('',#1359,#1012,#1013);
#867=AXIS2_PLACEMENT_3D('',#1360,#1014,#1015);
#868=AXIS2_PLACEMENT_3D('',#1361,#1016,#1017);
#869=AXIS2_PLACEMENT_3D('',#1364,#1020,#1021);
#870=AXIS2_PLACEMENT_3D('',#1366,#1023,#1024);
#871=AXIS2_PLACEMENT_3D('',#1368,#1025,#1026);
#872=AXIS2_PLACEMENT_3D('',#1369,#1027,#1028);
#873=AXIS2_PLACEMENT_3D('',#1370,#1029,#1030);
#874=AXIS2_PLACEMENT_3D('',#1373,#1033,#1034);
#875=AXIS2_PLACEMENT_3D('',#1376,#1035,#1036);
#876=AXIS2_PLACEMENT_3D('',#1377,#1037,#1038);
#877=AXIS2_PLACEMENT_3D('',#1378,#1039,#1040);
#878=AXIS2_PLACEMENT_3D('',#1379,#1041,#1042);
#879=AXIS2_PLACEMENT_3D('',#1381,#1044,#1045);
#880=AXIS2_PLACEMENT_3D('',#1384,#1046,#1047);
#881=AXIS2_PLACEMENT_3D('',#1386,#1048,#1049);
#882=AXIS2_PLACEMENT_3D('',#1387,#1050,#1051);
#883=AXIS2_PLACEMENT_3D('',#1388,#1052,#1053);
#884=AXIS2_PLACEMENT_3D('',#1391,#1054,#1055);
#885=AXIS2_PLACEMENT_3D('',#1392,#1056,#1057);
#886=AXIS2_PLACEMENT_3D('',#1393,#1058,#1059);
#887=AXIS2_PLACEMENT_3D('',#1394,#1060,#1061);
#888=AXIS2_PLACEMENT_3D('',#1396,#1063,#1064);
#889=AXIS2_PLACEMENT_3D('',#1399,#1065,#1066);
#890=AXIS2_PLACEMENT_3D('',#1401,#1067,#1068);
#891=AXIS2_PLACEMENT_3D('',#1402,#1069,#1070);
#892=AXIS2_PLACEMENT_3D('',#1403,#1071,#1072);
#893=AXIS2_PLACEMENT_3D('',#1405,#1073,#1074);
#894=AXIS2_PLACEMENT_3D('',#1406,#1075,#1076);
#895=AXIS2_PLACEMENT_3D('',#1407,#1077,#1078);
#896=AXIS2_PLACEMENT_3D('',#1409,#1080,#1081);
#897=AXIS2_PLACEMENT_3D('',#1411,#1082,#1083);
#898=AXIS2_PLACEMENT_3D('',#1412,#1084,#1085);
#899=AXIS2_PLACEMENT_3D('',#1413,#1086,#1087);
#900=AXIS2_PLACEMENT_3D('',#1416,#1090,#1091);
#901=AXIS2_PLACEMENT_3D('',#1419,#1092,#1093);
#902=AXIS2_PLACEMENT_3D('',#1421,#1094,#1095);
#903=AXIS2_PLACEMENT_3D('',#1422,#1096,#1097);
#904=AXIS2_PLACEMENT_3D('',#1423,#1098,#1099);
#905=AXIS2_PLACEMENT_3D('',#1426,#1100,#1101);
#906=AXIS2_PLACEMENT_3D('',#1429,#1104,#1105);
#907=AXIS2_PLACEMENT_3D('',#1432,#1108,#1109);
#908=AXIS2_PLACEMENT_3D('',#1435,#1110,#1111);
#909=AXIS2_PLACEMENT_3D('',#1437,#1112,#1113);
#910=AXIS2_PLACEMENT_3D('',#1438,#1114,#1115);
#911=AXIS2_PLACEMENT_3D('',#1439,#1116,#1117);
#912=AXIS2_PLACEMENT_3D('',#1442,#1120,#1121);
#913=AXIS2_PLACEMENT_3D('',#1445,#1124,#1125);
#914=AXIS2_PLACEMENT_3D('',#1448,#1126,#1127);
#915=AXIS2_PLACEMENT_3D('',#1451,#1130,#1131);
#916=AXIS2_PLACEMENT_3D('',#1454,#1134,#1135);
#917=AXIS2_PLACEMENT_3D('',#1457,#1136,#1137);
#918=AXIS2_PLACEMENT_3D('',#1460,#1140,#1141);
#919=AXIS2_PLACEMENT_3D('',#1463,#1142,#1143);
#920=AXIS2_PLACEMENT_3D('',#1466,#1146,#1147);
#921=AXIS2_PLACEMENT_3D('',#1469,#1150,#1151);
#922=AXIS2_PLACEMENT_3D('',#1472,#1152,#1153);
#923=AXIS2_PLACEMENT_3D('',#1475,#1156,#1157);
#924=AXIS2_PLACEMENT_3D('',#1478,#1158,#1159);
#925=AXIS2_PLACEMENT_3D('',#1481,#1162,#1163);
#926=AXIS2_PLACEMENT_3D('',#1484,#1166,#1167);
#927=AXIS2_PLACEMENT_3D('',#1487,#1168,#1169);
#928=AXIS2_PLACEMENT_3D('',#1490,#1172,#1173);
#929=AXIS2_PLACEMENT_3D('',#1492,#1175,#1176);
#930=AXIS2_PLACEMENT_3D('',#1494,#1178,#1179);
#931=AXIS2_PLACEMENT_3D('',#1496,#1181,#1182);
#932=AXIS2_PLACEMENT_3D('',#1503,#1188,#1189);
#933=AXIS2_PLACEMENT_3D('',#1504,#1190,#1191);
#934=AXIS2_PLACEMENT_3D('',#1505,#1192,#1193);
#935=AXIS2_PLACEMENT_3D('',#1506,#1194,#1195);
#936=AXIS2_PLACEMENT_3D('',#1507,#1196,#1197);
#937=AXIS2_PLACEMENT_3D('',#1508,#1198,#1199);
#938=AXIS2_PLACEMENT_3D('',#1509,#1200,#1201);
#939=AXIS2_PLACEMENT_3D('',#1510,#1202,#1203);
#940=AXIS2_PLACEMENT_3D('',#1511,#1204,#1205);
#941=AXIS2_PLACEMENT_3D('',#1513,#1206,#1207);
#942=AXIS2_PLACEMENT_3D('',#1514,#1208,#1209);
#943=AXIS2_PLACEMENT_3D('',#1516,#1211,#1212);
#944=DIRECTION('axis',(0.,0.,1.));
#945=DIRECTION('refdir',(1.,0.,0.));
#946=DIRECTION('center_axis',(-1.,-3.70051261289149E-14,-2.53764138416713E-12));
#947=DIRECTION('ref_axis',(2.51058433301902E-12,0.131441991019242,-0.99132386382902));
#948=DIRECTION('center_axis',(1.,5.35142162904979E-14,2.5396527209727E-12));
#949=DIRECTION('ref_axis',(2.54019028034235E-12,-0.0165266681866664,-0.999863425292999));
#950=DIRECTION('',(-1.,4.98052088946605E-15,2.49026044473303E-15));
#951=DIRECTION('center_axis',(-1.,-5.31721199155684E-14,-2.54558037371808E-12));
#952=DIRECTION('ref_axis',(2.5165055224538E-12,0.131441991017479,-0.991323863829254));
#953=DIRECTION('',(-1.,-3.70051261289149E-14,-2.53764138416713E-12));
#954=DIRECTION('center_axis',(0.,-0.447213595499958,0.894427190999916));
#955=DIRECTION('ref_axis',(-0.755592057516035,0.585887799919872,0.292943899959936));
#956=DIRECTION('center_axis',(0.,-0.447213595499958,0.894427190999916));
#957=DIRECTION('ref_axis',(0.755592057518639,0.585887799917186,0.292943899958593));
#958=DIRECTION('center_axis',(2.53790637797935E-12,-0.0165266681866624,
-0.999863425292999));
#959=DIRECTION('ref_axis',(-1.,0.,-2.53825303914446E-12));
#960=DIRECTION('',(-0.609540511527526,0.792646650752277,-0.0131015975346436));
#961=DIRECTION('',(0.715119023430617,0.698907239432734,-0.0115521857739334));
#962=DIRECTION('',(1.,4.91405788378367E-12,2.45702894189183E-12));
#963=DIRECTION('',(0.715119023430747,-0.698907239432541,0.0115521857775605));
#964=DIRECTION('',(-0.609540511527127,-0.792646650752635,0.0131015975315552));
#965=DIRECTION('center_axis',(0.609540511527526,-0.792646650752277,0.0131015975346436));
#966=DIRECTION('ref_axis',(0.239877067316226,0.168661711592238,-0.956039862986133));
#967=DIRECTION('center_axis',(-0.0795035062665977,-0.905703068502141,-0.416390614924403));
#968=DIRECTION('ref_axis',(-0.885770105463401,0.255798625708476,-0.38727042664398));
#969=DIRECTION('',(0.609540511527526,-0.792646650752277,0.0131015975346436));
#970=DIRECTION('center_axis',(0.609540511527511,-0.792646650752289,0.0131015975346354));
#971=DIRECTION('ref_axis',(0.457264160807162,0.338037002104001,-0.822581590147665));
#972=DIRECTION('center_axis',(0.715119023432084,0.410102595038143,0.566057103010398));
#973=DIRECTION('ref_axis',(0.243975694918149,0.612438058610651,-0.751927845377748));
#974=DIRECTION('',(0.715119023432084,0.410102595038143,0.566057103010398));
#975=DIRECTION('center_axis',(0.715119023432083,0.410102595038143,0.566057103010399));
#976=DIRECTION('ref_axis',(0.,0.809806741146397,-0.586696720626468));
#977=DIRECTION('',(-0.715119023432084,-0.410102595038143,-0.566057103010398));
#978=DIRECTION('center_axis',(-0.715119023429277,0.410102595039831,0.566057103012721));
#979=DIRECTION('ref_axis',(-0.243975694918309,0.612438058612088,-0.751927845376526));
#980=DIRECTION('center_axis',(0.0795035062645467,-0.905703068501009,-0.416390614927257));
#981=DIRECTION('ref_axis',(0.885770105463313,0.255798625708184,-0.387270426644375));
#982=DIRECTION('',(-0.715119023429277,0.410102595039831,0.566057103012721));
#983=DIRECTION('center_axis',(-0.715119023429264,0.410102595039849,0.566057103012724));
#984=DIRECTION('ref_axis',(-0.457264160807681,0.338037002107255,-0.82258159014604));
#985=DIRECTION('',(0.715119023429277,-0.410102595039831,-0.566057103012721));
#986=DIRECTION('center_axis',(0.,0.,1.));
#987=DIRECTION('ref_axis',(-0.996622716018741,-0.0821167578234085,0.));
#988=DIRECTION('center_axis',(-3.62664639539586E-15,0.447213595499964,-0.894427190999913));
#989=DIRECTION('ref_axis',(-0.989889781235508,-0.126864403220186,-0.0634322016100903));
#990=DIRECTION('center_axis',(0.141838714762639,-0.885384336429995,-0.442692168215003));
#991=DIRECTION('ref_axis',(-0.457264160807681,0.338037002107255,-0.82258159014604));
#992=DIRECTION('center_axis',(-0.715119023430747,0.410102595037473,0.566057103012572));
#993=DIRECTION('ref_axis',(-0.655042473902235,-0.675822081547527,-0.337911040773763));
#994=DIRECTION('center_axis',(0.,0.,1.));
#995=DIRECTION('ref_axis',(-0.964817482788648,0.26292056767278,0.));
#996=DIRECTION('center_axis',(-0.14183871476264,0.885384336429989,0.442692168215015));
#997=DIRECTION('ref_axis',(-0.989889781235508,-0.126864403220186,-0.0634322016100932));
#998=DIRECTION('center_axis',(-4.59169325225466E-15,0.447213595499953,-0.894427190999918));
#999=DIRECTION('ref_axis',(-0.755592057516034,0.585887799919873,0.292943899959937));
#1000=DIRECTION('center_axis',(-0.609540511528861,-0.792646650751277,0.0131015975330755));
#1001=DIRECTION('ref_axis',(-0.457264160807681,0.338037002107255,-0.82258159014604));
#1002=DIRECTION('center_axis',(9.18338650450933E-18,-0.447213595499958,
0.894427190999916));
#1003=DIRECTION('ref_axis',(-0.959391275531357,0.252298839370005,0.126149419685006));
#1004=DIRECTION('center_axis',(0.,0.447213595499958,-0.894427190999916));
#1005=DIRECTION('ref_axis',(-0.959391275531357,0.252298839370005,0.126149419685006));
#1006=DIRECTION('',(-9.18338650450932E-18,0.447213595499958,-0.894427190999916));
#1007=DIRECTION('',(9.18338650450932E-18,-0.447213595499958,0.894427190999916));
#1008=DIRECTION('center_axis',(1.,0.,0.));
#1009=DIRECTION('ref_axis',(0.,-1.,0.));
#1010=DIRECTION('center_axis',(-0.715119023430747,0.698907239432541,-0.0115521857775649));
#1011=DIRECTION('ref_axis',(-0.655042473902235,-0.675822081547527,-0.337911040773762));
#1012=DIRECTION('center_axis',(0.71511902343075,-0.410102595037468,-0.566057103012571));
#1013=DIRECTION('ref_axis',(-0.457264160807681,0.338037002107255,-0.82258159014604));
#1014=DIRECTION('center_axis',(-0.609540511527131,-0.792646650752632,0.013101597531557));
#1015=DIRECTION('ref_axis',(2.54019028034236E-12,-0.0165266681866664,-0.999863425292999));
#1016=DIRECTION('center_axis',(0.715119023430747,-0.410102595037476,-0.56605710301257));
#1017=DIRECTION('ref_axis',(-0.677170586242214,-0.205643042242649,-0.706506147394037));
#1018=DIRECTION('',(-0.715119023430747,0.410102595037476,0.56605710301257));
#1019=DIRECTION('',(0.715119023430747,-0.410102595037476,-0.56605710301257));
#1020=DIRECTION('center_axis',(-0.609540511527127,-0.792646650752635,0.0131015975315552));
#1021=DIRECTION('ref_axis',(-0.239877067314099,0.168661711594126,-0.956039862986333));
#1022=DIRECTION('',(0.609540511527127,0.792646650752635,-0.0131015975315552));
#1023=DIRECTION('center_axis',(0.,0.,1.));
#1024=DIRECTION('ref_axis',(1.,0.,0.));
#1025=DIRECTION('center_axis',(0.609540511528869,0.79264665075127,-0.0131015975330833));
#1026=DIRECTION('ref_axis',(-0.755592057516032,0.585887799919876,0.292943899959935));
#1027=DIRECTION('center_axis',(-0.609540511528874,-0.465106712424298,-0.641978279120859));
#1028=DIRECTION('ref_axis',(0.,0.809806741146395,-0.586696720626472));
#1029=DIRECTION('center_axis',(-0.609540511528866,-0.792646650751272,0.0131015975330821));
#1030=DIRECTION('ref_axis',(-0.75143428702599,0.572424632357845,-0.328141055876474));
#1031=DIRECTION('',(0.609540511528866,0.792646650751272,-0.0131015975330821));
#1032=DIRECTION('',(-0.609540511528866,-0.792646650751272,0.0131015975330821));
#1033=DIRECTION('center_axis',(0.,0.,1.));
#1034=DIRECTION('ref_axis',(1.,0.,0.));
#1035=DIRECTION('center_axis',(2.53056056798417E-15,0.447213595499959,-0.894427190999915));
#1036=DIRECTION('ref_axis',(-0.655042473902238,-0.675822081547523,-0.337911040773765));
#1037=DIRECTION('center_axis',(0.715119023430741,-0.698907239432548,0.0115521857775651));
#1038=DIRECTION('ref_axis',(2.54019028034236E-12,-0.0165266681866664,-0.999863425292999));
#1039=DIRECTION('center_axis',(-1.,-4.9108000161363E-12,-2.4652890035326E-12));
#1040=DIRECTION('ref_axis',(5.49486382321146E-12,-0.894427190999917,-0.447213595499957));
#1041=DIRECTION('center_axis',(0.715119023430747,-0.698907239432541,0.0115521857775605));
#1042=DIRECTION('ref_axis',(-0.398788861112824,-0.421500865059416,-0.81443505880242));
#1043=DIRECTION('',(-0.715119023430747,0.698907239432541,-0.0115521857775605));
#1044=DIRECTION('center_axis',(0.,0.,1.));
#1045=DIRECTION('ref_axis',(1.,0.,0.));
#1046=DIRECTION('center_axis',(-9.33644294625123E-15,0.447213595499956,
-0.894427190999917));
#1047=DIRECTION('ref_axis',(5.92118946466748E-15,0.894427190999917,0.447213595499956));
#1048=DIRECTION('center_axis',(-1.,-3.91688721956791E-15,-5.40640771151628E-15));
#1049=DIRECTION('ref_axis',(0.,0.809806741146396,-0.58669672062647));
#1050=DIRECTION('center_axis',(0.609540511528867,0.465106712424297,0.641978279120867));
#1051=DIRECTION('ref_axis',(-0.755592057516034,0.585887799919873,0.292943899959937));
#1052=DIRECTION('center_axis',(0.,0.,1.));
#1053=DIRECTION('ref_axis',(1.,0.,0.));
#1054=DIRECTION('center_axis',(-3.00136253415351E-15,0.44721359549996,-0.894427190999915));
#1055=DIRECTION('ref_axis',(5.49486382321148E-12,-0.894427190999915,-0.44721359549996));
#1056=DIRECTION('center_axis',(1.,4.92046094875993E-12,2.459207320436E-12));
#1057=DIRECTION('ref_axis',(2.54019028034236E-12,-0.0165266681866664,-0.999863425292999));
#1058=DIRECTION('center_axis',(-0.715119023430611,-0.69890723943274,0.0115521857739347));
#1059=DIRECTION('ref_axis',(0.655042473903391,-0.675822081546628,-0.337911040773319));
#1060=DIRECTION('center_axis',(-1.,-4.91405788378367E-12,-2.45702894189183E-12));
#1061=DIRECTION('ref_axis',(4.70251061299194E-12,-0.532742613261136,-0.84627732334956));
#1062=DIRECTION('',(-1.,-4.91405788378367E-12,-2.45702894189183E-12));
#1063=DIRECTION('center_axis',(0.,0.,1.));
#1064=DIRECTION('ref_axis',(1.,0.,0.));
#1065=DIRECTION('center_axis',(3.52029816004978E-15,0.447213595499958,-0.894427190999916));
#1066=DIRECTION('ref_axis',(0.755592057518641,0.585887799917182,0.292943899958594));
#1067=DIRECTION('center_axis',(-0.609540511525794,0.465106712425686,0.641978279122779));
#1068=DIRECTION('ref_axis',(0.,0.809806741146396,-0.58669672062647));
#1069=DIRECTION('center_axis',(1.,-9.88823546491131E-15,6.53628877917061E-15));
#1070=DIRECTION('ref_axis',(5.92118946466748E-15,0.894427190999917,0.447213595499956));
#1071=DIRECTION('center_axis',(1.,0.,0.));
#1072=DIRECTION('ref_axis',(0.,-1.,0.));
#1073=DIRECTION('center_axis',(-0.715119023430617,-0.41010259504049,-0.56605710301055));
#1074=DIRECTION('ref_axis',(0.655042473903386,-0.675822081546634,-0.337911040773317));
#1075=DIRECTION('center_axis',(0.715119023430624,0.698907239432727,-0.0115521857739344));
#1076=DIRECTION('ref_axis',(2.54019028034236E-12,-0.0165266681866664,-0.999863425292999));
#1077=DIRECTION('center_axis',(0.715119023430617,0.698907239432734,-0.0115521857739334));
#1078=DIRECTION('ref_axis',(0.398788861116196,-0.421500865058431,-0.814435058801278));
#1079=DIRECTION('',(-0.715119023430617,-0.698907239432734,0.0115521857739334));
#1080=DIRECTION('center_axis',(0.,0.,1.));
#1081=DIRECTION('ref_axis',(1.,0.,0.));
#1082=DIRECTION('center_axis',(0.609540511525789,-0.465106712425688,-0.641978279122781));
#1083=DIRECTION('ref_axis',(0.755592057518639,0.585887799917185,0.292943899958593));
#1084=DIRECTION('center_axis',(-0.609540511525788,0.792646650753639,-0.0131015975331228));
#1085=DIRECTION('ref_axis',(0.457264160807162,0.338037002104,-0.822581590147666));
#1086=DIRECTION('center_axis',(-0.609540511525788,0.46510671242569,0.641978279122781));
#1087=DIRECTION('ref_axis',(0.468132801272225,0.864713159339071,-0.181996792386187));
#1088=DIRECTION('',(0.609540511525788,-0.46510671242569,-0.641978279122781));
#1089=DIRECTION('',(-0.609540511525788,0.46510671242569,0.641978279122781));
#1090=DIRECTION('center_axis',(0.,0.,1.));
#1091=DIRECTION('ref_axis',(1.,0.,0.));
#1092=DIRECTION('center_axis',(-0.141838714770494,-0.885384336428987,-0.442692168214501));
#1093=DIRECTION('ref_axis',(0.989889781234383,-0.12686440322721,-0.0634322016136078));
#1094=DIRECTION('center_axis',(9.16592577832168E-15,0.447213595499965,-0.894427190999912));
#1095=DIRECTION('ref_axis',(0.655042473903386,-0.675822081546634,-0.337911040773317));
#1096=DIRECTION('center_axis',(0.715119023430622,0.410102595040489,0.566057103010545));
#1097=DIRECTION('ref_axis',(0.457264160807158,0.338037002104002,-0.822581590147667));
#1098=DIRECTION('center_axis',(1.05930442381888E-17,-0.447213595499958,
0.894427190999916));
#1099=DIRECTION('ref_axis',(0.877851822593784,-0.428370099394223,-0.214185049697112));
#1100=DIRECTION('center_axis',(0.,0.447213595499958,-0.894427190999916));
#1101=DIRECTION('ref_axis',(0.877851822593784,-0.428370099394223,-0.214185049697112));
#1102=DIRECTION('',(-1.05930442381888E-17,0.447213595499958,-0.894427190999916));
#1103=DIRECTION('',(3.72430406964145E-18,-0.447213595499958,0.894427190999916));
#1104=DIRECTION('center_axis',(0.715119023430617,0.410102595040493,0.566057103010548));
#1105=DIRECTION('ref_axis',(0.677170586241878,-0.205643042243873,-0.706506147394002));
#1106=DIRECTION('',(-0.715119023430617,-0.410102595040493,-0.566057103010548));
#1107=DIRECTION('',(0.715119023430617,0.410102595040493,0.566057103010548));
#1108=DIRECTION('center_axis',(0.,0.,1.));
#1109=DIRECTION('ref_axis',(1.,0.,0.));
#1110=DIRECTION('center_axis',(-3.29071349743791E-15,0.447213595499954,
-0.894427190999918));
#1111=DIRECTION('ref_axis',(0.989889781234383,-0.12686440322721,-0.0634322016136078));
#1112=DIRECTION('center_axis',(0.141838714770494,0.885384336428994,0.442692168214488));
#1113=DIRECTION('ref_axis',(0.45726416080716,0.338037002103999,-0.822581590147667));
#1114=DIRECTION('center_axis',(0.609540511525788,-0.792646650753639,0.0131015975331228));
#1115=DIRECTION('ref_axis',(0.75559205751864,0.585887799917186,0.29294389995859));
#1116=DIRECTION('center_axis',(-0.141838714770499,-0.88538433642899,-0.442692168214495));
#1117=DIRECTION('ref_axis',(0.846322308314029,0.123497629479523,-0.518157201979237));
#1118=DIRECTION('',(0.141838714770499,0.88538433642899,0.442692168214495));
#1119=DIRECTION('',(-0.141838714770499,-0.88538433642899,-0.442692168214495));
#1120=DIRECTION('center_axis',(-0.609540511525788,0.792646650753639,-0.0131015975331175));
#1121=DIRECTION('ref_axis',(0.751434287027687,0.572424632354465,-0.328141055878486));
#1122=DIRECTION('',(0.609540511525788,-0.792646650753639,0.0131015975331175));
#1123=DIRECTION('',(-0.609540511525788,0.792646650753639,-0.0131015975331174));
#1124=DIRECTION('center_axis',(0.,0.447213595499958,-0.894427190999916));
#1125=DIRECTION('ref_axis',(0.959391275533037,0.252298839364897,0.126149419682451));
#1126=DIRECTION('center_axis',(0.,0.447213595499958,-0.894427190999916));
#1127=DIRECTION('ref_axis',(0.959391275533037,0.252298839364897,0.126149419682451));
#1128=DIRECTION('',(6.86874016854731E-18,0.447213595499958,-0.894427190999916));
#1129=DIRECTION('',(4.19437849740545E-17,-0.447213595499958,0.894427190999916));
#1130=DIRECTION('center_axis',(1.,-4.98052088946605E-15,-2.49026044473303E-15));
#1131=DIRECTION('ref_axis',(6.92564155079814E-15,0.996667426636329,-0.0815723034008341));
#1132=DIRECTION('',(-1.,4.98052088946605E-15,2.49026044473302E-15));
#1133=DIRECTION('',(1.,-4.98052088946605E-15,-2.49026044473303E-15));
#1134=DIRECTION('center_axis',(7.3467092035822E-17,-0.447213595499958,0.894427190999916));
#1135=DIRECTION('ref_axis',(0.415305626074756,0.813644264749973,0.406822132374986));
#1136=DIRECTION('center_axis',(0.,0.447213595499958,-0.894427190999916));
#1137=DIRECTION('ref_axis',(0.415305626074756,0.813644264749973,0.406822132374986));
#1138=DIRECTION('',(-3.15233070617675E-17,0.447213595499958,-0.894427190999916));
#1139=DIRECTION('',(7.34670920358217E-17,-0.447213595499958,0.894427190999916));
#1140=DIRECTION('center_axis',(0.,0.447213595499958,-0.894427190999916));
#1141=DIRECTION('ref_axis',(0.34957684597722,-0.837995717772648,-0.418997858886324));
#1142=DIRECTION('center_axis',(0.,0.447213595499958,-0.894427190999916));
#1143=DIRECTION('ref_axis',(0.34957684597722,-0.837995717772648,-0.418997858886324));
#1144=DIRECTION('',(3.04982913188174E-28,0.447213595499958,-0.894427190999916));
#1145=DIRECTION('',(-3.63621618317482E-17,-0.447213595499958,0.894427190999916));
#1146=DIRECTION('center_axis',(-0.609540511528866,-0.465106712424299,-0.641978279120866));
#1147=DIRECTION('ref_axis',(-0.468132801270364,0.864713159340274,-0.181996792385259));
#1148=DIRECTION('',(0.609540511528866,0.465106712424299,0.641978279120866));
#1149=DIRECTION('',(-0.609540511528866,-0.465106712424299,-0.641978279120866));
#1150=DIRECTION('center_axis',(-7.34670920360747E-17,0.447213595499958,
-0.894427190999916));
#1151=DIRECTION('ref_axis',(-0.415305626072935,0.813644264750718,0.406822132375356));
#1152=DIRECTION('center_axis',(0.,0.447213595499958,-0.894427190999916));
#1153=DIRECTION('ref_axis',(-0.415305626072935,0.813644264750718,0.406822132375356));
#1154=DIRECTION('',(-7.34670920360744E-17,0.447213595499958,-0.894427190999916));
#1155=DIRECTION('',(1.15410877009985E-16,-0.447213595499958,0.894427190999916));
#1156=DIRECTION('center_axis',(-8.47443539045851E-17,-0.447213595499958,
0.894427190999916));
#1157=DIRECTION('ref_axis',(-0.349576845971358,-0.837995717774604,-0.418997858887302));
#1158=DIRECTION('center_axis',(0.,0.447213595499958,-0.894427190999916));
#1159=DIRECTION('ref_axis',(-0.349576845971358,-0.837995717774604,-0.418997858887302));
#1160=DIRECTION('',(4.83821920729008E-17,0.447213595499958,-0.894427190999916));
#1161=DIRECTION('',(-8.474435390489E-17,-0.447213595499958,0.894427190999916));
#1162=DIRECTION('center_axis',(-0.141838714762636,0.885384336429997,0.442692168214999));
#1163=DIRECTION('ref_axis',(-0.846322308314994,0.123497629485534,-0.518157201976229));
#1164=DIRECTION('',(0.141838714762636,-0.885384336429997,-0.442692168214999));
#1165=DIRECTION('',(-0.141838714762636,0.885384336429997,0.442692168214999));
#1166=DIRECTION('center_axis',(-1.05930442380731E-17,0.447213595499958,
-0.894427190999916));
#1167=DIRECTION('ref_axis',(-0.877851822595326,-0.428370099391695,-0.214185049695848));
#1168=DIRECTION('center_axis',(0.,0.447213595499958,-0.894427190999916));
#1169=DIRECTION('ref_axis',(-0.877851822595326,-0.428370099391695,-0.214185049695848));
#1170=DIRECTION('',(-3.72430406951798E-18,0.447213595499958,-0.894427190999916));
#1171=DIRECTION('',(1.05930442380731E-17,-0.447213595499958,0.894427190999916));
#1172=DIRECTION('center_axis',(0.655042473903387,-0.675822081546634,-0.337911040773317));
#1173=DIRECTION('ref_axis',(-0.45845499937481,0.,-0.888717623066091));
#1174=DIRECTION('',(-0.75559205751684,-0.585887799919042,-0.292943899959521));
#1175=DIRECTION('center_axis',(0.989889781234382,-0.126864403227215,-0.0634322016136077));
#1176=DIRECTION('ref_axis',(-0.141838714770499,-0.88538433642899,-0.442692168214495));
#1177=DIRECTION('',(0.141838714770499,0.88538433642899,0.442692168214495));
#1178=DIRECTION('center_axis',(0.755592057518641,0.585887799917184,0.292943899958592));
#1179=DIRECTION('ref_axis',(0.361484114822525,0.,-0.932378268049495));
#1180=DIRECTION('',(0.655042473901309,-0.675822081548244,-0.337911040774122));
#1181=DIRECTION('center_axis',(0.,0.447213595499958,-0.894427190999916));
#1182=DIRECTION('ref_axis',(-1.,0.,0.));
#1183=DIRECTION('',(-1.,4.98052088946605E-15,2.49026044473302E-15));
#1184=DIRECTION('',(0.655042473904315,0.675822081545914,0.337911040772957));
#1185=DIRECTION('',(0.141838714762636,-0.885384336429997,-0.442692168214999));
#1186=DIRECTION('',(-0.755592057517837,0.585887799918013,0.292943899959007));
#1187=DIRECTION('',(1.,4.91405788378367E-12,2.45702894189183E-12));
#1188=DIRECTION('center_axis',(0.,-0.447213595499958,0.894427190999916));
#1189=DIRECTION('ref_axis',(-1.,0.,0.));
#1190=DIRECTION('center_axis',(5.5683916361019E-15,0.894427190999916,0.447213595499958));
#1191=DIRECTION('ref_axis',(1.,-4.98052088946605E-15,-2.49026044473302E-15));
#1192=DIRECTION('center_axis',(0.45726416080716,0.338037002104004,-0.822581590147665));
#1193=DIRECTION('ref_axis',(-0.874033475950444,0.,-0.485865704611866));
#1194=DIRECTION('center_axis',(-0.45726416080768,0.338037002107253,-0.822581590146041));
#1195=DIRECTION('ref_axis',(-0.874033475949802,0.,0.485865704613021));
#1196=DIRECTION('center_axis',(5.49408373675452E-12,-0.894427190999916,
-0.447213595499958));
#1197=DIRECTION('ref_axis',(-1.,-4.91405788378367E-12,-2.45702894189183E-12));
#1198=DIRECTION('center_axis',(-0.655042473902236,-0.675822081547526,-0.337911040773763));
#1199=DIRECTION('ref_axis',(-0.458454999375924,0.,0.888717623065517));
#1200=DIRECTION('center_axis',(-0.755592057516035,0.585887799919873,0.292943899959936));
#1201=DIRECTION('ref_axis',(0.361484114825051,0.,0.932378268048516));
#1202=DIRECTION('center_axis',(2.57223175427937E-15,0.809806741146396,-0.58669672062647));
#1203=DIRECTION('ref_axis',(-1.,0.,-4.38426134636096E-15));
#1204=DIRECTION('center_axis',(0.,0.447213595499958,-0.894427190999916));
#1205=DIRECTION('ref_axis',(-1.,0.,0.));
#1206=DIRECTION('center_axis',(0.,-0.447213595499958,0.894427190999916));
#1207=DIRECTION('ref_axis',(-1.,0.,0.));
#1208=DIRECTION('center_axis',(0.,-0.447213595499958,0.894427190999916));
#1209=DIRECTION('ref_axis',(-1.,0.,0.));
#1210=DIRECTION('',(0.,-0.447213595499958,0.894427190999916));
#1211=DIRECTION('center_axis',(-0.989889781235509,-0.126864403220183,-0.0634322016100913));
#1212=DIRECTION('ref_axis',(-0.141838714762636,0.885384336429997,0.442692168214999));
#1213=CARTESIAN_POINT('',(0.,0.,0.));
#1214=CARTESIAN_POINT('Origin',(-32.7913127503651,43.8091590425564,9.87112517002711));
#1215=CARTESIAN_POINT('',(-30.7535508419234,43.7967640414165,9.12122760106253));
#1216=CARTESIAN_POINT('',(-30.7535508419234,43.9077405358208,9.12763227215534));
#1217=CARTESIAN_POINT('Origin',(-30.7535508419253,43.8091590425565,9.87112517003228));
#1218=CARTESIAN_POINT('',(-29.2464492400474,43.9077405358208,9.12763227215534));
#1219=CARTESIAN_POINT('',(-32.7913127503632,43.9077405358208,9.12763227215535));
#1220=CARTESIAN_POINT('',(-29.2464492400474,43.7967640414165,9.12122760106636));
#1221=CARTESIAN_POINT('Origin',(-29.2464492400493,43.8091590425565,9.87112517003611));
#1222=CARTESIAN_POINT('',(-32.7913127503632,43.7967640414164,9.12122760105736));
#1223=CARTESIAN_POINT('Ctrl Pts',(-30.8667428834291,43.8981879459835,9.12285468547074));
#1224=CARTESIAN_POINT('Ctrl Pts',(-30.8667399045554,43.8981852768117,9.12285464265078));
#1225=CARTESIAN_POINT('Ctrl Pts',(-30.8328873885809,43.9046993108109,9.12611165965039));
#1226=CARTESIAN_POINT('Ctrl Pts',(-30.7806817923232,43.9077405358208,9.12763227215534));
#1227=CARTESIAN_POINT('Ctrl Pts',(-30.7535508419234,43.9077405358208,9.12763227215534));
#1228=CARTESIAN_POINT('Ctrl Pts',(-30.889722736694,43.89392478768,9.12072439808494));
#1229=CARTESIAN_POINT('Ctrl Pts',(-30.8875431029118,43.8820689638321,9.12092036211549));
#1230=CARTESIAN_POINT('Ctrl Pts',(-30.8426029511563,43.871055700728,9.12222798741903));
#1231=CARTESIAN_POINT('Ctrl Pts',(-30.7837751227468,43.8709745959246,9.1227573886624));
#1232=CARTESIAN_POINT('Ctrl Pts',(-30.7535508419228,43.8709745959248,9.12275738866245));
#1233=CARTESIAN_POINT('Ctrl Pts',(-30.9128072022858,43.8896637611026,9.11969206850534));
#1234=CARTESIAN_POINT('Ctrl Pts',(-30.9084382949378,43.8658996791049,9.12008486324911));
#1235=CARTESIAN_POINT('Ctrl Pts',(-30.852435730467,43.837184046919,9.12055952607169));
#1236=CARTESIAN_POINT('Ctrl Pts',(-30.78690279193,43.8338466941938,9.12061466465291));
#1237=CARTESIAN_POINT('Ctrl Pts',(-30.7535508419221,43.8338466941942,9.12061466465298));
#1238=CARTESIAN_POINT('Ctrl Pts',(-30.935891697757,43.8854209514893,9.11976219758979));
#1239=CARTESIAN_POINT('Ctrl Pts',(-30.9293335136092,43.8497485937502,9.12035182333756));
#1240=CARTESIAN_POINT('Ctrl Pts',(-30.8622685921414,43.8033491009664,9.12111875710276));
#1241=CARTESIAN_POINT('Ctrl Pts',(-30.790030489902,43.7967640414505,9.12122760106188));
#1242=CARTESIAN_POINT('Ctrl Pts',(-30.7535508419215,43.7967640414511,9.12122760106196));
#1243=CARTESIAN_POINT('',(-30.8981997082978,43.892350739053,9.12062742694565));
#1244=CARTESIAN_POINT('',(-30.8667399045554,43.8981852768117,9.12285464265078));
#1245=CARTESIAN_POINT('Ctrl Pts',(-30.8982001955762,43.8923511714714,9.12062758301561));
#1246=CARTESIAN_POINT('Ctrl Pts',(-30.8876993064974,43.8942953130641,9.12114182459994));
#1247=CARTESIAN_POINT('Ctrl Pts',(-30.8772102385596,43.8962414123756,9.12188433400041));
#1248=CARTESIAN_POINT('Ctrl Pts',(-30.8667428770212,43.8981879445131,9.12285468581257));
#1249=CARTESIAN_POINT('Origin',(-29.2803499721692,42.4555422022589,8.40153310537438));
#1250=CARTESIAN_POINT('',(-30.8970556883951,43.8309622046066,9.12066234216647));
#1251=CARTESIAN_POINT('Ctrl Pts',(-30.7535508419215,43.7967640414511,9.12122760106196));
#1252=CARTESIAN_POINT('Ctrl Pts',(-30.790030489902,43.7967640414505,9.12122760106188));
#1253=CARTESIAN_POINT('Ctrl Pts',(-30.8390824455321,43.8012355050851,9.12115369257193));
#1254=CARTESIAN_POINT('Ctrl Pts',(-30.8857491305807,43.8240647645484,9.12077634944018));
#1255=CARTESIAN_POINT('Ctrl Pts',(-30.8967083910848,43.8314756496366,9.12065385547176));
#1256=CARTESIAN_POINT('Ctrl Pts',(-30.8970556883813,43.8309622045987,9.12066234216659));
#1257=CARTESIAN_POINT('Ctrl Pts',(-30.8970839383519,43.8311371313369,9.12065945081555));
#1258=CARTESIAN_POINT('Ctrl Pts',(-30.8971120642838,43.8313120848976,9.12065659232736));
#1259=CARTESIAN_POINT('Ctrl Pts',(-30.8995458278995,43.8465210165373,9.12041098328043));
#1260=CARTESIAN_POINT('Ctrl Pts',(-30.901409470396,43.8640312615864,9.12044151537117));
#1261=CARTESIAN_POINT('Ctrl Pts',(-30.8998676751219,43.8835961000282,9.12057369695529));
#1262=CARTESIAN_POINT('Ctrl Pts',(-30.8992447783507,43.8880160667618,9.12060630091331));
#1263=CARTESIAN_POINT('Ctrl Pts',(-30.8981997082978,43.892350739053,9.12062742694565));
#1264=CARTESIAN_POINT('Ctrl Pts',(-29.2464492400488,43.9077405358208,9.12763227215535));
#1265=CARTESIAN_POINT('Ctrl Pts',(-29.219454240302,43.9077405358209,9.12763227215537));
#1266=CARTESIAN_POINT('Ctrl Pts',(-29.1670947945311,43.9047041238523,9.12611406617109));
#1267=CARTESIAN_POINT('Ctrl Pts',(-29.1332601774429,43.8981852768169,9.12285464265337));
#1268=CARTESIAN_POINT('Ctrl Pts',(-29.1332571985692,43.8981879459886,9.12285468547333));
#1269=CARTESIAN_POINT('Ctrl Pts',(-29.2464492400483,43.8709745959332,9.12275738866485));
#1270=CARTESIAN_POINT('Ctrl Pts',(-29.2163764102662,43.8709745959334,9.12275738866491));
#1271=CARTESIAN_POINT('Ctrl Pts',(-29.1573798211722,43.8710568483135,9.12222880101679));
#1272=CARTESIAN_POINT('Ctrl Pts',(-29.1124585018409,43.8820606810491,9.12092049902492));
#1273=CARTESIAN_POINT('Ctrl Pts',(-29.1102773453099,43.8939247876876,9.12072439808875));
#1274=CARTESIAN_POINT('Ctrl Pts',(-29.2464492400478,43.8338466942112,9.12061466465653));
#1275=CARTESIAN_POINT('Ctrl Pts',(-29.2132644135392,43.8338466942115,9.12061466465661));
#1276=CARTESIAN_POINT('Ctrl Pts',(-29.147547577786,43.8371813841468,9.12055956962402));
#1277=CARTESIAN_POINT('Ctrl Pts',(-29.0915648393041,43.8658830769017,9.1200851376703));
#1278=CARTESIAN_POINT('Ctrl Pts',(-29.0871928797239,43.8896637611127,9.1196920685098));
#1279=CARTESIAN_POINT('Ctrl Pts',(-29.2464492400474,43.7967640414767,9.12122760106536));
#1280=CARTESIAN_POINT('Ctrl Pts',(-29.2101523881675,43.7967640414772,9.12122760106545));
#1281=CARTESIAN_POINT('Ctrl Pts',(-29.1377152519546,43.8033426414545,9.12111886387592));
#1282=CARTESIAN_POINT('Ctrl Pts',(-29.0706711501243,43.8497236721145,9.12035223527014));
#1283=CARTESIAN_POINT('Ctrl Pts',(-29.0641083842585,43.8854209515018,9.11976219759434));
#1284=CARTESIAN_POINT('',(-29.1018003736928,43.8923507390587,9.1206274269488));
#1285=CARTESIAN_POINT('',(-29.1029443935835,43.8309622046466,9.12066234217036));
#1286=CARTESIAN_POINT('Ctrl Pts',(-29.1018003736928,43.8923507390587,9.1206274269488));
#1287=CARTESIAN_POINT('Ctrl Pts',(-29.1006719601038,43.8876703799737,9.12060461613165));
#1288=CARTESIAN_POINT('Ctrl Pts',(-29.100034809422,43.8828821046265,9.1205684371882));
#1289=CARTESIAN_POINT('Ctrl Pts',(-29.0986801749799,43.8632522933037,9.12043783015474));
#1290=CARTESIAN_POINT('Ctrl Pts',(-29.1005007491291,43.84622414462,9.12041551855154));
#1291=CARTESIAN_POINT('Ctrl Pts',(-29.1028906225477,43.8312958835687,9.12065685710973));
#1292=CARTESIAN_POINT('Ctrl Pts',(-29.102917451969,43.8311290300268,9.12065958472606));
#1293=CARTESIAN_POINT('Ctrl Pts',(-29.1029443936046,43.8309622046342,9.12066234217056));
#1294=CARTESIAN_POINT('Ctrl Pts',(-29.1021895712449,43.8322187824412,9.12064157228946));
#1295=CARTESIAN_POINT('Ctrl Pts',(-29.1134297946521,43.8244600415772,9.12076981594007));
#1296=CARTESIAN_POINT('Ctrl Pts',(-29.1605254348425,43.8012710649611,9.12115310480964));
#1297=CARTESIAN_POINT('Ctrl Pts',(-29.2101523881675,43.7967640414772,9.12122760106545));
#1298=CARTESIAN_POINT('Ctrl Pts',(-29.2464492400474,43.7967640414767,9.12122760106536));
#1299=CARTESIAN_POINT('',(-29.1332601774429,43.8981852768169,9.12285464265337));
#1300=CARTESIAN_POINT('Origin',(-30.7196501098134,42.4555422022589,8.40153310537439));
#1301=CARTESIAN_POINT('Ctrl Pts',(-29.1332571985692,43.8981879459886,9.12285468547333));
#1302=CARTESIAN_POINT('Ctrl Pts',(-29.1227869714118,43.896245538641,9.12188407036211));
#1303=CARTESIAN_POINT('Ctrl Pts',(-29.1122995518052,43.8942950537059,9.12114176491552));
#1304=CARTESIAN_POINT('Ctrl Pts',(-29.101799886404,43.892351171481,9.12062758301863));
#1305=CARTESIAN_POINT('Origin',(-27.7601885283482,41.7272760425591,9.15543401427439));
#1306=CARTESIAN_POINT('',(-26.8698201563855,40.9270068253436,9.16866160464385));
#1307=CARTESIAN_POINT('',(-28.1884833725022,42.6417968384072,9.14031796806093));
#1308=CARTESIAN_POINT('',(-27.8002152921248,40.0177037938261,9.18369140681533));
#1309=CARTESIAN_POINT('',(-27.4706803578514,40.3397681546717,9.17836802895095));
#1310=CARTESIAN_POINT('',(-32.199784789863,40.0177037938045,9.18369140680452));
#1311=CARTESIAN_POINT('',(-26.6402827720362,40.0177037938318,9.18369140681818));
#1312=CARTESIAN_POINT('',(-33.1301799255911,40.9270068253106,9.1686616046285));
#1313=CARTESIAN_POINT('',(-31.3838908280756,39.220306188904,9.19687153250743));
#1314=CARTESIAN_POINT('',(-31.7016532777322,42.7846632755757,9.13795653933849));
#1315=CARTESIAN_POINT('Origin',(-28.1884833725041,42.6541918395472,9.89021553703069));
#1316=CARTESIAN_POINT('',(-28.514155236738,43.7771932054069,9.25890787971937));
#1317=CARTESIAN_POINT('Origin',(-28.8571033573434,43.5236654538289,9.87584407233012));
#1318=CARTESIAN_POINT('',(-26.526872035782,41.1929295780615,9.30162298100285));
#1319=CARTESIAN_POINT('',(-27.8455352518987,42.9077195911252,9.27327934441994));
#1320=CARTESIAN_POINT('Origin',(-26.8698201563874,40.9394018264835,9.9185591736136));
#1321=CARTESIAN_POINT('Origin',(-28.4242951359921,43.7718699749143,10.2184362281945));
#1322=CARTESIAN_POINT('',(-26.1259073800811,45.6972920269214,11.5977174288858));
#1323=CARTESIAN_POINT('',(-28.4242951359921,44.3792250307741,9.77841368772461));
#1324=CARTESIAN_POINT('',(-25.7829592594758,45.3434647226397,11.4208037767449));
#1325=CARTESIAN_POINT('Origin',(-26.1259073800811,45.0899369710616,12.0377399693556));
#1326=CARTESIAN_POINT('',(-28.0813470153867,44.0253977264923,9.60150003558371));
#1327=CARTESIAN_POINT('Origin',(-32.0089584323979,44.0203298442116,10.5613808365204));
#1328=CARTESIAN_POINT('',(-31.4858448452228,43.7771932054052,9.25890787971485));
#1329=CARTESIAN_POINT('Origin',(-31.142896724617,43.5236654538247,9.87584407232438));
#1330=CARTESIAN_POINT('',(-34.2170408224665,45.3434647226399,11.4208037767431));
#1331=CARTESIAN_POINT('',(-32.3519065530036,44.273857595792,9.94444464391082));
#1332=CARTESIAN_POINT('',(-33.8740927018607,45.6972920269192,11.5977174288827));
#1333=CARTESIAN_POINT('Origin',(-33.8740927018607,45.0899369710595,12.0377399693526));
#1334=CARTESIAN_POINT('',(-32.0089584323979,44.6276849000714,10.1213582960505));
#1335=CARTESIAN_POINT('Origin',(-34.0605750613211,41.4729598036134,10.6550194801087));
#1336=CARTESIAN_POINT('',(-34.8029923972478,41.3778115011982,10.6074453289011));
#1337=CARTESIAN_POINT('',(-34.5518569167478,40.9660932424527,10.4015861995284));
#1338=CARTESIAN_POINT('Origin',(-34.0605750613211,41.4729598036134,10.6550194801087));
#1339=CARTESIAN_POINT('',(-34.4035231819269,41.7264875551938,10.0380832874992));
#1340=CARTESIAN_POINT('Origin',(-34.0605750613211,41.4729598036134,10.6550194801087));
#1341=CARTESIAN_POINT('Origin',(-34.0605750613211,41.4729598036134,10.6550194801087));
#1342=CARTESIAN_POINT('Origin',(-34.5079644756104,44.2656499401478,12.0513645483759));
#1343=CARTESIAN_POINT('',(-35.2503818115371,44.1705016377327,12.0037903971684));
#1344=CARTESIAN_POINT('',(-34.8509125962162,44.5191776917283,11.4344283557664));
#1345=CARTESIAN_POINT('Origin',(-34.5079644756104,44.2656499401478,12.0513645483759));
#1346=CARTESIAN_POINT('',(-35.0746585187475,44.7050657900877,12.2710724733459));
#1347=CARTESIAN_POINT('Origin',(-34.5079644756104,44.2656499401478,12.0513645483759));
#1348=CARTESIAN_POINT('Origin',(-34.5079644756104,44.2656499401479,12.0513645483759));
#1349=CARTESIAN_POINT('Origin',(-34.5079644756104,42.233065801271,16.1165328261297));
#1350=CARTESIAN_POINT('',(-35.2503818115371,42.1379174988558,16.0689586749221));
#1351=CARTESIAN_POINT('',(-35.0746585187475,42.6724816512109,16.3362407510996));
#1352=CARTESIAN_POINT('Origin',(-34.5079644756104,42.233065801271,16.1165328261297));
#1353=CARTESIAN_POINT('',(-35.0746585187475,42.6724816512109,16.3362407510996));
#1354=CARTESIAN_POINT('',(-35.2503818115371,42.1379174988558,16.0689586749221));
#1355=CARTESIAN_POINT('Origin',(-33.130179925593,40.9394018264506,9.91855917359826));
#1356=CARTESIAN_POINT('',(-33.6214617810197,40.4325352652899,9.66512589301793));
#1357=CARTESIAN_POINT('Origin',(-33.130179925593,40.9394018264506,9.91855917359825));
#1358=CARTESIAN_POINT('',(-33.4731280461988,41.192929578031,9.30162298098872));
#1359=CARTESIAN_POINT('Origin',(-33.130179925593,40.9394018264506,9.91855917359826));
#1360=CARTESIAN_POINT('Origin',(-33.130179925593,40.9394018264506,9.91855917359825));
#1361=CARTESIAN_POINT('Origin',(-33.5641969667697,41.1882995750004,10.2621081786407));
#1362=CARTESIAN_POINT('',(-34.0554788221964,40.6814330138397,10.0086748980604));
#1363=CARTESIAN_POINT('',(-33.9071450873755,41.4418273265808,9.64517198603119));
#1364=CARTESIAN_POINT('Origin',(-31.7016532777341,42.7970582767157,9.88785410830824));
#1365=CARTESIAN_POINT('',(-32.0446013983398,43.0505860282961,9.27091791569871));
#1366=CARTESIAN_POINT('Origin',(-33.8740927018607,45.0899369710595,12.0377399693526));
#1367=CARTESIAN_POINT('',(-34.4407867449978,45.5293528209994,12.2574478943225));
#1368=CARTESIAN_POINT('Origin',(-33.8740927018607,45.0899369710595,12.0377399693526));
#1369=CARTESIAN_POINT('Origin',(-33.8740927018607,45.0899369710594,12.0377399693526));
#1370=CARTESIAN_POINT('Origin',(-35.0422899268463,43.5708129747246,12.0628494568953));
#1371=CARTESIAN_POINT('',(-35.6089839699833,44.0102288246645,12.2825573818653));
#1372=CARTESIAN_POINT('',(-35.3852380474521,43.824340726305,11.4459132642858));
#1373=CARTESIAN_POINT('Origin',(-32.1997847898649,40.0300987949445,9.93358897577427));
#1374=CARTESIAN_POINT('',(-32.6910666452916,39.5232322337839,9.68015569519395));
#1375=CARTESIAN_POINT('',(-32.1997847898608,39.3592784016946,9.5981787791493));
#1376=CARTESIAN_POINT('Origin',(-32.1997847898649,40.0300987949445,9.93358897577427));
#1377=CARTESIAN_POINT('Origin',(-32.1997847898649,40.0300987949445,9.93358897577427));
#1378=CARTESIAN_POINT('Origin',(-32.1997847898649,40.0300987949445,9.93358897577427));
#1379=CARTESIAN_POINT('Origin',(-31.3838908280775,39.232701190044,9.94676910147718));
#1380=CARTESIAN_POINT('',(-31.8751726835042,38.7258346288834,9.69333582089686));
#1381=CARTESIAN_POINT('Origin',(-33.240220928111,45.5736095263877,12.7053443414959));
#1382=CARTESIAN_POINT('',(-33.240220928111,46.2444299196377,13.0407545381208));
#1383=CARTESIAN_POINT('',(-33.806914971248,46.0130253763277,12.9250522664658));
#1384=CARTESIAN_POINT('Origin',(-33.240220928111,45.5736095263877,12.7053443414959));
#1385=CARTESIAN_POINT('',(-33.240220928111,46.1809645822475,12.265321801026));
#1386=CARTESIAN_POINT('Origin',(-33.240220928111,45.5736095263877,12.7053443414959));
#1387=CARTESIAN_POINT('Origin',(-33.240220928111,45.5736095263877,12.7053443414959));
#1388=CARTESIAN_POINT('Origin',(-27.8002152921267,40.0300987949662,9.93358897578508));
#1389=CARTESIAN_POINT('',(-27.8002152921226,39.3592784017162,9.59817877916011));
#1390=CARTESIAN_POINT('',(-27.3089334366992,39.5232322338062,9.68015569520509));
#1391=CARTESIAN_POINT('Origin',(-27.8002152921267,40.0300987949662,9.93358897578508));
#1392=CARTESIAN_POINT('Origin',(-27.8002152921267,40.0300987949662,9.93358897578508));
#1393=CARTESIAN_POINT('Origin',(-27.8002152921267,40.0300987949662,9.93358897578508));
#1394=CARTESIAN_POINT('Origin',(-26.6402827720381,40.0300987949718,9.93358897578793));
#1395=CARTESIAN_POINT('',(-26.640282772034,39.3592784017219,9.59817877916296));
#1396=CARTESIAN_POINT('Origin',(-26.7597791538228,45.5736095263877,12.7053443414959));
#1397=CARTESIAN_POINT('',(-26.1930851106839,46.0130253763256,12.9250522664648));
#1398=CARTESIAN_POINT('',(-26.7597791538228,46.2444299196377,13.0407545381208));
#1399=CARTESIAN_POINT('Origin',(-26.7597791538228,45.5736095263877,12.7053443414959));
#1400=CARTESIAN_POINT('',(-26.7597791538228,46.1809645822475,12.265321801026));
#1401=CARTESIAN_POINT('Origin',(-26.7597791538228,45.5736095263877,12.7053443414959));
#1402=CARTESIAN_POINT('Origin',(-26.7597791538228,45.5736095263877,12.7053443414959));
#1403=CARTESIAN_POINT('Origin',(-26.8698201563874,40.9394018264835,9.9185591736136));
#1404=CARTESIAN_POINT('',(-26.3785383009598,40.4325352653236,9.66512589303361));
#1405=CARTESIAN_POINT('Origin',(-26.8698201563874,40.9394018264835,9.9185591736136));
#1406=CARTESIAN_POINT('Origin',(-26.8698201563874,40.9394018264835,9.9185591736136));
#1407=CARTESIAN_POINT('Origin',(-27.4706803578533,40.3521631558117,9.9282655979207));
#1408=CARTESIAN_POINT('',(-26.9793985024258,39.8452965946517,9.67483231734071));
#1409=CARTESIAN_POINT('Origin',(-26.1259073800811,45.0899369710616,12.0377399693556));
#1410=CARTESIAN_POINT('',(-25.5592133369422,45.5293528209995,12.2574478943246));
#1411=CARTESIAN_POINT('Origin',(-26.1259073800811,45.0899369710616,12.0377399693556));
#1412=CARTESIAN_POINT('Origin',(-26.1259073800811,45.0899369710616,12.0377399693556));
#1413=CARTESIAN_POINT('Origin',(-27.6999731508494,46.2910196586606,13.6955724113936));
#1414=CARTESIAN_POINT('',(-27.1332791077104,46.7304355085985,13.9152803363626));
#1415=CARTESIAN_POINT('',(-27.6999731508494,46.8983747145204,13.2555498709238));
#1416=CARTESIAN_POINT('Origin',(-25.9394250206481,41.4729598036568,10.6550194801304));
#1417=CARTESIAN_POINT('',(-25.1970076847223,41.3778115012364,10.6074453289202));
#1418=CARTESIAN_POINT('',(-25.5964769000427,41.7264875552348,10.0380832875197));
#1419=CARTESIAN_POINT('Origin',(-25.9394250206481,41.4729598036568,10.6550194801304));
#1420=CARTESIAN_POINT('',(-25.4481431652205,40.9660932424968,10.4015861995504));
#1421=CARTESIAN_POINT('Origin',(-25.9394250206481,41.4729598036568,10.6550194801304));
#1422=CARTESIAN_POINT('Origin',(-25.9394250206481,41.4729598036568,10.6550194801304));
#1423=CARTESIAN_POINT('Origin',(-25.9394250206481,39.4403756647799,14.7201877578841));
#1424=CARTESIAN_POINT('',(-25.1970076847223,39.3452273623595,14.6726136066739));
#1425=CARTESIAN_POINT('',(-25.4481431652205,38.9335091036199,14.4667544773042));
#1426=CARTESIAN_POINT('Origin',(-25.9394250206481,39.4403756647799,14.7201877578842));
#1427=CARTESIAN_POINT('',(-25.4481431652205,38.9335091036199,14.4667544773042));
#1428=CARTESIAN_POINT('',(-25.1970076847223,39.3452273623595,14.6726136066739));
#1429=CARTESIAN_POINT('Origin',(-25.4415926310373,41.7584540335476,11.0490819382873));
#1430=CARTESIAN_POINT('',(-24.9503107756098,41.2515874723876,10.7956486577074));
#1431=CARTESIAN_POINT('',(-25.098644510432,42.0119817851256,10.4321457456766));
#1432=CARTESIAN_POINT('Origin',(-25.4920356063394,44.2656499401538,12.0513645483789));
#1433=CARTESIAN_POINT('',(-24.7496182704137,44.1705016377334,12.0037903971687));
#1434=CARTESIAN_POINT('',(-24.9253415632005,44.7050657900917,12.2710724733479));
#1435=CARTESIAN_POINT('Origin',(-25.4920356063394,44.2656499401538,12.0513645483789));
#1436=CARTESIAN_POINT('',(-25.1490874857341,44.5191776917318,11.4344283557682));
#1437=CARTESIAN_POINT('Origin',(-25.4920356063394,44.2656499401538,12.0513645483789));
#1438=CARTESIAN_POINT('Origin',(-25.4920356063394,44.2656499401538,12.0513645483789));
#1439=CARTESIAN_POINT('Origin',(-25.3229715745471,45.3209799030955,12.5790295298498));
#1440=CARTESIAN_POINT('',(-24.9800234539418,45.5745076546735,11.962093337239));
#1441=CARTESIAN_POINT('',(-24.5805542386213,45.2258316006751,12.5314553786396));
#1442=CARTESIAN_POINT('Origin',(-25.680025475683,44.5101120185442,12.0473238528683));
#1443=CARTESIAN_POINT('',(-25.113331432544,44.9495278684821,12.2670317778373));
#1444=CARTESIAN_POINT('',(-25.3370773550776,44.7636397701222,11.4303876602576));
#1445=CARTESIAN_POINT('Origin',(-25.4920356063394,42.233065801277,16.1165328261327));
#1446=CARTESIAN_POINT('',(-24.9253415632005,42.6724816512148,16.3362407511016));
#1447=CARTESIAN_POINT('',(-24.7496182704137,42.1379174988565,16.0689586749225));
#1448=CARTESIAN_POINT('Origin',(-25.4920356063394,42.233065801277,16.1165328261327));
#1449=CARTESIAN_POINT('',(-24.7496182704137,42.1379174988565,16.0689586749225));
#1450=CARTESIAN_POINT('',(-24.9253415632005,42.6724816512148,16.3362407511016));
#1451=CARTESIAN_POINT('Origin',(-34.1869691050618,45.5736095263878,12.7053443414959));
#1452=CARTESIAN_POINT('',(-34.1869691050618,46.1809645822476,12.265321801026));
#1453=CARTESIAN_POINT('',(-34.1869691050618,46.2444299196377,13.0407545381208));
#1454=CARTESIAN_POINT('Origin',(-26.7597791538228,43.5410253875108,16.7705126192496));
#1455=CARTESIAN_POINT('',(-26.7597791538228,44.2118457807608,17.1059228158746));
#1456=CARTESIAN_POINT('',(-26.1930851106839,43.9804412374487,16.9902205442186));
#1457=CARTESIAN_POINT('Origin',(-26.7597791538228,43.5410253875108,16.7705126192496));
#1458=CARTESIAN_POINT('',(-26.1930851106839,43.9804412374487,16.9902205442186));
#1459=CARTESIAN_POINT('',(-26.7597791538228,44.2118457807608,17.1059228158746));
#1460=CARTESIAN_POINT('Origin',(-27.8002152921267,37.9975146560893,13.9987572535388));
#1461=CARTESIAN_POINT('',(-27.3089334366992,37.4906480949293,13.7453239729588));
#1462=CARTESIAN_POINT('',(-27.8002152921226,37.3266942628393,13.6633470569139));
#1463=CARTESIAN_POINT('Origin',(-27.8002152921267,37.9975146560893,13.9987572535388));
#1464=CARTESIAN_POINT('',(-27.8002152921226,37.3266942628393,13.6633470569139));
#1465=CARTESIAN_POINT('',(-27.3089334366992,37.4906480949293,13.7453239729588));
#1466=CARTESIAN_POINT('Origin',(-33.3371102368406,45.4996786440265,12.6032988982367));
#1467=CARTESIAN_POINT('',(-33.9038042799776,45.9390944939664,12.8230068232066));
#1468=CARTESIAN_POINT('',(-33.3371102368406,46.1070336998863,12.1632763577668));
#1469=CARTESIAN_POINT('Origin',(-33.240220928111,43.5410253875109,16.7705126192496));
#1470=CARTESIAN_POINT('',(-33.806914971248,43.9804412374508,16.9902205442196));
#1471=CARTESIAN_POINT('',(-33.240220928111,44.2118457807608,17.1059228158746));
#1472=CARTESIAN_POINT('Origin',(-33.240220928111,43.5410253875109,16.7705126192496));
#1473=CARTESIAN_POINT('',(-33.240220928111,44.2118457807608,17.1059228158746));
#1474=CARTESIAN_POINT('',(-33.806914971248,43.9804412374508,16.9902205442196));
#1475=CARTESIAN_POINT('Origin',(-32.1997847898649,37.9975146560677,13.998757253528));
#1476=CARTESIAN_POINT('',(-32.1997847898608,37.3266942628177,13.6633470569031));
#1477=CARTESIAN_POINT('',(-32.6910666452916,37.490648094907,13.7453239729477));
#1478=CARTESIAN_POINT('Origin',(-32.1997847898649,37.9975146560677,13.998757253528));
#1479=CARTESIAN_POINT('',(-32.6910666452916,37.490648094907,13.7453239729477));
#1480=CARTESIAN_POINT('',(-32.1997847898608,37.3266942628177,13.6633470569031));
#1481=CARTESIAN_POINT('Origin',(-33.849776712267,40.1571162646321,9.99709771061808));
#1482=CARTESIAN_POINT('',(-34.1927248328728,40.4106440162126,9.38016151800855));
#1483=CARTESIAN_POINT('',(-34.5921940481936,40.061967962217,9.94952355941051));
#1484=CARTESIAN_POINT('Origin',(-34.0605750613211,39.4403756647365,14.7201877578624));
#1485=CARTESIAN_POINT('',(-34.5518569167478,38.9335091035758,14.4667544772821));
#1486=CARTESIAN_POINT('',(-34.8029923972478,39.3452273623213,14.6726136066549));
#1487=CARTESIAN_POINT('Origin',(-34.0605750613211,39.4403756647365,14.7201877578624));
#1488=CARTESIAN_POINT('',(-34.8029923972478,39.3452273623213,14.6726136066549));
#1489=CARTESIAN_POINT('',(-34.5518569167478,38.9335091035758,14.4667544772821));
#1490=CARTESIAN_POINT('Origin',(-26.3785383009598,38.2120785992746,14.1060392251315));
#1491=CARTESIAN_POINT('',(-26.7047892210479,37.9591028938124,13.9795513724004));
#1492=CARTESIAN_POINT('Origin',(-24.4173746221717,44.2118457807608,17.1059228158746));
#1493=CARTESIAN_POINT('',(-25.5203770157303,37.3266942628505,13.6633470569195));
#1494=CARTESIAN_POINT('Origin',(-25.5592133369422,43.3264614443318,16.6632306476601));
#1495=CARTESIAN_POINT('',(-25.8044107586639,43.5794371497869,16.7897185003876));
#1496=CARTESIAN_POINT('Origin',(-30.000000040966,40.7692700217837,15.384634936386));
#1497=CARTESIAN_POINT('',(-24.4173746221717,44.2118457807608,17.1059228158746));
#1498=CARTESIAN_POINT('',(-34.1955893232661,43.5794371497941,16.7897185003912));
#1499=CARTESIAN_POINT('',(-35.5826254597604,44.2118457807608,17.1059228158746));
#1500=CARTESIAN_POINT('',(-33.2952108609242,37.9591028937743,13.9795513723813));
#1501=CARTESIAN_POINT('',(-34.479623066257,37.3266942628065,13.6633470568975));
#1502=CARTESIAN_POINT('',(-27.750000040966,40.770860190758,15.3854300208732));
#1503=CARTESIAN_POINT('Origin',(-30.0000000409661,40.770860190758,15.3854300208732));
#1504=CARTESIAN_POINT('Origin',(-35.5826254597604,44.2118457807608,17.1059228158746));
#1505=CARTESIAN_POINT('Origin',(-26.644322235041,45.1015103700317,10.8425511780107));
#1506=CARTESIAN_POINT('Origin',(-32.8041766501581,41.6589346110563,9.12126329852296));
#1507=CARTESIAN_POINT('Origin',(-25.5203770157303,37.3266942628505,13.6633470569195));
#1508=CARTESIAN_POINT('Origin',(-33.6214617810197,38.2120785992414,14.1060392251149));
#1509=CARTESIAN_POINT('Origin',(-34.4407867449978,43.3264614443308,16.6632306476596));
#1510=CARTESIAN_POINT('Origin',(-32.7913127503632,45.1778271470407,10.8807095665152));
#1511=CARTESIAN_POINT('Origin',(-30.0000000409661,43.2305349660078,10.4660804703736));
#1512=CARTESIAN_POINT('',(-27.750000040966,43.2305349660078,10.4660804703736));
#1513=CARTESIAN_POINT('Origin',(-30.0000000409661,43.2305349660078,10.4660804703736));
#1514=CARTESIAN_POINT('Origin',(-30.0000000409661,43.9013553592577,9.12443968387377));
#1515=CARTESIAN_POINT('',(-27.750000040966,43.9013553592577,9.12443968387377));
#1516=CARTESIAN_POINT('Origin',(-34.479623066257,37.3266942628065,13.6633470568975));
#1517=UNCERTAINTY_MEASURE_WITH_UNIT(LENGTH_MEASURE(0.01),#1521,
'DISTANCE_ACCURACY_VALUE',
'Maximum model space distance between geometric entities at asserted c
onnectivities');
#1518=UNCERTAINTY_MEASURE_WITH_UNIT(LENGTH_MEASURE(0.01),#1521,
'DISTANCE_ACCURACY_VALUE',
'Maximum model space distance between geometric entities at asserted c
onnectivities');
#1519=(
GEOMETRIC_REPRESENTATION_CONTEXT(3)
GLOBAL_UNCERTAINTY_ASSIGNED_CONTEXT((#1517))
GLOBAL_UNIT_ASSIGNED_CONTEXT((#1521,#1523,#1524))
REPRESENTATION_CONTEXT('','3D')
);
#1520=(
GEOMETRIC_REPRESENTATION_CONTEXT(3)
GLOBAL_UNCERTAINTY_ASSIGNED_CONTEXT((#1518))
GLOBAL_UNIT_ASSIGNED_CONTEXT((#1521,#1523,#1524))
REPRESENTATION_CONTEXT('','3D')
);
#1521=(
LENGTH_UNIT()
NAMED_UNIT(*)
SI_UNIT(.MILLI.,.METRE.)
);
#1522=(
LENGTH_UNIT()
NAMED_UNIT(*)
SI_UNIT($,.METRE.)
);
#1523=(
NAMED_UNIT(*)
PLANE_ANGLE_UNIT()
SI_UNIT($,.RADIAN.)
);
#1524=(
NAMED_UNIT(*)
SI_UNIT($,.STERADIAN.)
SOLID_ANGLE_UNIT()
);
#1525=SHAPE_DEFINITION_REPRESENTATION(#1526,#1527);
#1526=PRODUCT_DEFINITION_SHAPE('',$,#1529);
#1527=SHAPE_REPRESENTATION('',(#839),#1519);
#1528=PRODUCT_DEFINITION_CONTEXT('part definition',#1533,'design');
#1529=PRODUCT_DEFINITION('Foot','Foot',#1530,#1528);
#1530=PRODUCT_DEFINITION_FORMATION('',$,#1535);
#1531=PRODUCT_RELATED_PRODUCT_CATEGORY('Foot','Foot',(#1535));
#1532=APPLICATION_PROTOCOL_DEFINITION('international standard',
'automotive_design',2009,#1533);
#1533=APPLICATION_CONTEXT(
'Core Data for Automotive Mechanical Design Process');
#1534=PRODUCT_CONTEXT('part definition',#1533,'mechanical');
#1535=PRODUCT('Foot','Foot',$,(#1534));
#1536=PRESENTATION_STYLE_ASSIGNMENT((#1538));
#1537=PRESENTATION_STYLE_ASSIGNMENT((#1539));
#1538=SURFACE_STYLE_USAGE(.BOTH.,#1540);
#1539=SURFACE_STYLE_USAGE(.BOTH.,#1541);
#1540=SURFACE_SIDE_STYLE('',(#1542));
#1541=SURFACE_SIDE_STYLE('',(#1543));
#1542=SURFACE_STYLE_FILL_AREA(#1544);
#1543=SURFACE_STYLE_FILL_AREA(#1545);
#1544=FILL_AREA_STYLE('Steel - Satin',(#1546));
#1545=FILL_AREA_STYLE('ABS (White)',(#1547));
#1546=FILL_AREA_STYLE_COLOUR('Steel - Satin',#1548);
#1547=FILL_AREA_STYLE_COLOUR('ABS (White)',#1549);
#1548=COLOUR_RGB('Steel - Satin',0.627450980392157,0.627450980392157,0.627450980392157);
#1549=COLOUR_RGB('ABS (White)',0.964705882352941,0.964705882352941,0.952941176470588);
ENDSEC;
END-ISO-10303-21;
