ISO-10303-21;
HEADER;
/* Generated by software containing ST-Developer
 * from STEP Tools, Inc. (www.steptools.com) 
 */

FILE_DESCRIPTION(
/* description */ (''),
/* implementation_level */ '2;1');

FILE_NAME(
/* name */ 'Lower Leg hoop left.step',
/* time_stamp */ '2025-12-12T13:05:00+01:00',
/* author */ (''),
/* organization */ (''),
/* preprocessor_version */ 'ST-DEVELOPER v20.1',
/* originating_system */ 'Autodesk Translation Framework v14.21.0.0',
/* authorisation */ '');

FILE_SCHEMA (('AUTOMOTIVE_DESIGN { 1 0 10303 214 3 1 1 }'));
ENDSEC;

DATA;
#10=MECHANICAL_DESIGN_GEOMETRIC_PRESENTATION_REPRESENTATION('',(#13),#440);
#11=SHAPE_REPRESENTATION_RELATIONSHIP('SRR','None',#447,#12);
#12=ADVANCED_BREP_SHAPE_REPRESENTATION('',(#14),#439);
#13=STYLED_ITEM('',(#457),#14);
#14=MANIFOLD_SOLID_BREP('Lower Leg',#260);
#15=CYLINDRICAL_SURFACE('',#288,2.);
#16=CYLINDRICAL_SURFACE('',#289,2.);
#17=CYLINDRICAL_SURFACE('',#290,2.);
#18=CYLINDRICAL_SURFACE('',#295,15.);
#19=CYLINDRICAL_SURFACE('',#296,7.99999999999999);
#20=FACE_BOUND('',#54,.T.);
#21=FACE_BOUND('',#55,.T.);
#22=FACE_BOUND('',#56,.T.);
#23=FACE_BOUND('',#59,.T.);
#24=FACE_BOUND('',#60,.T.);
#25=FACE_BOUND('',#61,.T.);
#26=FACE_BOUND('',#62,.T.);
#27=FACE_BOUND('',#68,.T.);
#28=CIRCLE('',#277,2.);
#29=CIRCLE('',#278,2.);
#30=CIRCLE('',#279,2.);
#31=CIRCLE('',#282,15.);
#32=CIRCLE('',#283,7.99999999999999);
#33=CIRCLE('',#284,2.);
#34=CIRCLE('',#285,2.);
#35=CIRCLE('',#286,2.);
#36=CIRCLE('',#292,15.);
#37=CIRCLE('',#293,7.99999999999999);
#38=FACE_OUTER_BOUND('',#51,.T.);
#39=FACE_OUTER_BOUND('',#52,.T.);
#40=FACE_OUTER_BOUND('',#53,.T.);
#41=FACE_OUTER_BOUND('',#57,.T.);
#42=FACE_OUTER_BOUND('',#58,.T.);
#43=FACE_OUTER_BOUND('',#63,.T.);
#44=FACE_OUTER_BOUND('',#64,.T.);
#45=FACE_OUTER_BOUND('',#65,.T.);
#46=FACE_OUTER_BOUND('',#66,.T.);
#47=FACE_OUTER_BOUND('',#67,.T.);
#48=FACE_OUTER_BOUND('',#69,.T.);
#49=FACE_OUTER_BOUND('',#70,.T.);
#50=FACE_OUTER_BOUND('',#71,.T.);
#51=EDGE_LOOP('',(#173,#174,#175,#176));
#52=EDGE_LOOP('',(#177,#178,#179,#180));
#53=EDGE_LOOP('',(#181,#182,#183,#184));
#54=EDGE_LOOP('',(#185));
#55=EDGE_LOOP('',(#186));
#56=EDGE_LOOP('',(#187));
#57=EDGE_LOOP('',(#188,#189,#190,#191));
#58=EDGE_LOOP('',(#192,#193,#194,#195));
#59=EDGE_LOOP('',(#196));
#60=EDGE_LOOP('',(#197));
#61=EDGE_LOOP('',(#198));
#62=EDGE_LOOP('',(#199));
#63=EDGE_LOOP('',(#200,#201,#202,#203,#204,#205,#206));
#64=EDGE_LOOP('',(#207,#208,#209,#210));
#65=EDGE_LOOP('',(#211,#212,#213,#214));
#66=EDGE_LOOP('',(#215,#216,#217,#218));
#67=EDGE_LOOP('',(#219,#220,#221,#222));
#68=EDGE_LOOP('',(#223));
#69=EDGE_LOOP('',(#224,#225,#226,#227,#228,#229,#230));
#70=EDGE_LOOP('',(#231,#232,#233,#234));
#71=EDGE_LOOP('',(#235,#236,#237,#238));
#72=LINE('',#372,#95);
#73=LINE('',#374,#96);
#74=LINE('',#376,#97);
#75=LINE('',#377,#98);
#76=LINE('',#381,#99);
#77=LINE('',#383,#100);
#78=LINE('',#385,#101);
#79=LINE('',#386,#102);
#80=LINE('',#388,#103);
#81=LINE('',#389,#104);
#82=LINE('',#398,#105);
#83=LINE('',#400,#106);
#84=LINE('',#401,#107);
#85=LINE('',#404,#108);
#86=LINE('',#407,#109);
#87=LINE('',#418,#110);
#88=LINE('',#419,#111);
#89=LINE('',#421,#112);
#90=LINE('',#423,#113);
#91=LINE('',#425,#114);
#92=LINE('',#428,#115);
#93=LINE('',#433,#116);
#94=LINE('',#436,#117);
#95=VECTOR('',#301,10.);
#96=VECTOR('',#302,10.);
#97=VECTOR('',#303,10.);
#98=VECTOR('',#304,10.);
#99=VECTOR('',#307,10.);
#100=VECTOR('',#308,10.);
#101=VECTOR('',#309,10.);
#102=VECTOR('',#310,10.);
#103=VECTOR('',#313,10.);
#104=VECTOR('',#314,10.);
#105=VECTOR('',#323,10.);
#106=VECTOR('',#324,10.);
#107=VECTOR('',#325,10.);
#108=VECTOR('',#328,10.);
#109=VECTOR('',#331,10.);
#110=VECTOR('',#342,10.);
#111=VECTOR('',#343,10.);
#112=VECTOR('',#346,2.);
#113=VECTOR('',#349,2.);
#114=VECTOR('',#352,2.);
#115=VECTOR('',#355,10.);
#116=VECTOR('',#362,10.);
#117=VECTOR('',#367,7.99999999999999);
#118=VERTEX_POINT('',#370);
#119=VERTEX_POINT('',#371);
#120=VERTEX_POINT('',#373);
#121=VERTEX_POINT('',#375);
#122=VERTEX_POINT('',#379);
#123=VERTEX_POINT('',#380);
#124=VERTEX_POINT('',#382);
#125=VERTEX_POINT('',#384);
#126=VERTEX_POINT('',#390);
#127=VERTEX_POINT('',#392);
#128=VERTEX_POINT('',#394);
#129=VERTEX_POINT('',#397);
#130=VERTEX_POINT('',#399);
#131=VERTEX_POINT('',#403);
#132=VERTEX_POINT('',#405);
#133=VERTEX_POINT('',#408);
#134=VERTEX_POINT('',#410);
#135=VERTEX_POINT('',#412);
#136=VERTEX_POINT('',#414);
#137=VERTEX_POINT('',#417);
#138=VERTEX_POINT('',#427);
#139=VERTEX_POINT('',#430);
#140=EDGE_CURVE('',#118,#119,#72,.T.);
#141=EDGE_CURVE('',#120,#119,#73,.T.);
#142=EDGE_CURVE('',#120,#121,#74,.T.);
#143=EDGE_CURVE('',#121,#118,#75,.T.);
#144=EDGE_CURVE('',#122,#123,#76,.T.);
#145=EDGE_CURVE('',#122,#124,#77,.T.);
#146=EDGE_CURVE('',#125,#124,#78,.T.);
#147=EDGE_CURVE('',#123,#125,#79,.T.);
#148=EDGE_CURVE('',#119,#125,#80,.T.);
#149=EDGE_CURVE('',#124,#120,#81,.T.);
#150=EDGE_CURVE('',#126,#126,#28,.T.);
#151=EDGE_CURVE('',#127,#127,#29,.T.);
#152=EDGE_CURVE('',#128,#128,#30,.T.);
#153=EDGE_CURVE('',#129,#122,#82,.T.);
#154=EDGE_CURVE('',#123,#130,#83,.T.);
#155=EDGE_CURVE('',#130,#129,#84,.T.);
#156=EDGE_CURVE('',#131,#130,#85,.T.);
#157=EDGE_CURVE('',#132,#131,#31,.T.);
#158=EDGE_CURVE('',#129,#132,#86,.T.);
#159=EDGE_CURVE('',#133,#133,#32,.T.);
#160=EDGE_CURVE('',#134,#134,#33,.T.);
#161=EDGE_CURVE('',#135,#135,#34,.T.);
#162=EDGE_CURVE('',#136,#136,#35,.T.);
#163=EDGE_CURVE('',#118,#137,#87,.T.);
#164=EDGE_CURVE('',#131,#137,#88,.T.);
#165=EDGE_CURVE('',#136,#126,#89,.T.);
#166=EDGE_CURVE('',#135,#127,#90,.T.);
#167=EDGE_CURVE('',#134,#128,#91,.T.);
#168=EDGE_CURVE('',#138,#121,#92,.T.);
#169=EDGE_CURVE('',#138,#137,#36,.T.);
#170=EDGE_CURVE('',#139,#139,#37,.T.);
#171=EDGE_CURVE('',#132,#138,#93,.T.);
#172=EDGE_CURVE('',#133,#139,#94,.T.);
#173=ORIENTED_EDGE('',*,*,#140,.T.);
#174=ORIENTED_EDGE('',*,*,#141,.F.);
#175=ORIENTED_EDGE('',*,*,#142,.T.);
#176=ORIENTED_EDGE('',*,*,#143,.T.);
#177=ORIENTED_EDGE('',*,*,#144,.F.);
#178=ORIENTED_EDGE('',*,*,#145,.T.);
#179=ORIENTED_EDGE('',*,*,#146,.F.);
#180=ORIENTED_EDGE('',*,*,#147,.F.);
#181=ORIENTED_EDGE('',*,*,#148,.T.);
#182=ORIENTED_EDGE('',*,*,#146,.T.);
#183=ORIENTED_EDGE('',*,*,#149,.T.);
#184=ORIENTED_EDGE('',*,*,#141,.T.);
#185=ORIENTED_EDGE('',*,*,#150,.T.);
#186=ORIENTED_EDGE('',*,*,#151,.T.);
#187=ORIENTED_EDGE('',*,*,#152,.T.);
#188=ORIENTED_EDGE('',*,*,#153,.T.);
#189=ORIENTED_EDGE('',*,*,#144,.T.);
#190=ORIENTED_EDGE('',*,*,#154,.T.);
#191=ORIENTED_EDGE('',*,*,#155,.T.);
#192=ORIENTED_EDGE('',*,*,#155,.F.);
#193=ORIENTED_EDGE('',*,*,#156,.F.);
#194=ORIENTED_EDGE('',*,*,#157,.F.);
#195=ORIENTED_EDGE('',*,*,#158,.F.);
#196=ORIENTED_EDGE('',*,*,#159,.F.);
#197=ORIENTED_EDGE('',*,*,#160,.T.);
#198=ORIENTED_EDGE('',*,*,#161,.T.);
#199=ORIENTED_EDGE('',*,*,#162,.T.);
#200=ORIENTED_EDGE('',*,*,#154,.F.);
#201=ORIENTED_EDGE('',*,*,#147,.T.);
#202=ORIENTED_EDGE('',*,*,#148,.F.);
#203=ORIENTED_EDGE('',*,*,#140,.F.);
#204=ORIENTED_EDGE('',*,*,#163,.T.);
#205=ORIENTED_EDGE('',*,*,#164,.F.);
#206=ORIENTED_EDGE('',*,*,#156,.T.);
#207=ORIENTED_EDGE('',*,*,#162,.F.);
#208=ORIENTED_EDGE('',*,*,#165,.T.);
#209=ORIENTED_EDGE('',*,*,#150,.F.);
#210=ORIENTED_EDGE('',*,*,#165,.F.);
#211=ORIENTED_EDGE('',*,*,#161,.F.);
#212=ORIENTED_EDGE('',*,*,#166,.T.);
#213=ORIENTED_EDGE('',*,*,#151,.F.);
#214=ORIENTED_EDGE('',*,*,#166,.F.);
#215=ORIENTED_EDGE('',*,*,#160,.F.);
#216=ORIENTED_EDGE('',*,*,#167,.T.);
#217=ORIENTED_EDGE('',*,*,#152,.F.);
#218=ORIENTED_EDGE('',*,*,#167,.F.);
#219=ORIENTED_EDGE('',*,*,#143,.F.);
#220=ORIENTED_EDGE('',*,*,#168,.F.);
#221=ORIENTED_EDGE('',*,*,#169,.T.);
#222=ORIENTED_EDGE('',*,*,#163,.F.);
#223=ORIENTED_EDGE('',*,*,#170,.T.);
#224=ORIENTED_EDGE('',*,*,#153,.F.);
#225=ORIENTED_EDGE('',*,*,#158,.T.);
#226=ORIENTED_EDGE('',*,*,#171,.T.);
#227=ORIENTED_EDGE('',*,*,#168,.T.);
#228=ORIENTED_EDGE('',*,*,#142,.F.);
#229=ORIENTED_EDGE('',*,*,#149,.F.);
#230=ORIENTED_EDGE('',*,*,#145,.F.);
#231=ORIENTED_EDGE('',*,*,#169,.F.);
#232=ORIENTED_EDGE('',*,*,#171,.F.);
#233=ORIENTED_EDGE('',*,*,#157,.T.);
#234=ORIENTED_EDGE('',*,*,#164,.T.);
#235=ORIENTED_EDGE('',*,*,#159,.T.);
#236=ORIENTED_EDGE('',*,*,#172,.T.);
#237=ORIENTED_EDGE('',*,*,#170,.F.);
#238=ORIENTED_EDGE('',*,*,#172,.F.);
#239=PLANE('',#274);
#240=PLANE('',#275);
#241=PLANE('',#276);
#242=PLANE('',#280);
#243=PLANE('',#281);
#244=PLANE('',#287);
#245=PLANE('',#291);
#246=PLANE('',#294);
#247=ADVANCED_FACE('',(#38),#239,.T.);
#248=ADVANCED_FACE('',(#39),#240,.T.);
#249=ADVANCED_FACE('',(#40,#20,#21,#22),#241,.T.);
#250=ADVANCED_FACE('',(#41),#242,.T.);
#251=ADVANCED_FACE('',(#42,#23,#24,#25,#26),#243,.F.);
#252=ADVANCED_FACE('',(#43),#244,.F.);
#253=ADVANCED_FACE('',(#44),#15,.F.);
#254=ADVANCED_FACE('',(#45),#16,.F.);
#255=ADVANCED_FACE('',(#46),#17,.F.);
#256=ADVANCED_FACE('',(#47,#27),#245,.T.);
#257=ADVANCED_FACE('',(#48),#246,.F.);
#258=ADVANCED_FACE('',(#49),#18,.T.);
#259=ADVANCED_FACE('',(#50),#19,.F.);
#260=CLOSED_SHELL('',(#247,#248,#249,#250,#251,#252,#253,#254,#255,#256,
#257,#258,#259));
#261=DERIVED_UNIT_ELEMENT(#263,1.);
#262=DERIVED_UNIT_ELEMENT(#442,-3.);
#263=(
MASS_UNIT()
NAMED_UNIT(*)
SI_UNIT(.KILO.,.GRAM.)
);
#264=DERIVED_UNIT((#261,#262));
#265=MEASURE_REPRESENTATION_ITEM('density measure',
POSITIVE_RATIO_MEASURE(7850.),#264);
#266=PROPERTY_DEFINITION_REPRESENTATION(#271,#268);
#267=PROPERTY_DEFINITION_REPRESENTATION(#272,#269);
#268=REPRESENTATION('material name',(#270),#439);
#269=REPRESENTATION('density',(#265),#439);
#270=DESCRIPTIVE_REPRESENTATION_ITEM('Steel','Steel');
#271=PROPERTY_DEFINITION('material property','material name',#449);
#272=PROPERTY_DEFINITION('material property','density of part',#449);
#273=AXIS2_PLACEMENT_3D('',#368,#297,#298);
#274=AXIS2_PLACEMENT_3D('',#369,#299,#300);
#275=AXIS2_PLACEMENT_3D('',#378,#305,#306);
#276=AXIS2_PLACEMENT_3D('',#387,#311,#312);
#277=AXIS2_PLACEMENT_3D('',#391,#315,#316);
#278=AXIS2_PLACEMENT_3D('',#393,#317,#318);
#279=AXIS2_PLACEMENT_3D('',#395,#319,#320);
#280=AXIS2_PLACEMENT_3D('',#396,#321,#322);
#281=AXIS2_PLACEMENT_3D('',#402,#326,#327);
#282=AXIS2_PLACEMENT_3D('',#406,#329,#330);
#283=AXIS2_PLACEMENT_3D('',#409,#332,#333);
#284=AXIS2_PLACEMENT_3D('',#411,#334,#335);
#285=AXIS2_PLACEMENT_3D('',#413,#336,#337);
#286=AXIS2_PLACEMENT_3D('',#415,#338,#339);
#287=AXIS2_PLACEMENT_3D('',#416,#340,#341);
#288=AXIS2_PLACEMENT_3D('',#420,#344,#345);
#289=AXIS2_PLACEMENT_3D('',#422,#347,#348);
#290=AXIS2_PLACEMENT_3D('',#424,#350,#351);
#291=AXIS2_PLACEMENT_3D('',#426,#353,#354);
#292=AXIS2_PLACEMENT_3D('',#429,#356,#357);
#293=AXIS2_PLACEMENT_3D('',#431,#358,#359);
#294=AXIS2_PLACEMENT_3D('',#432,#360,#361);
#295=AXIS2_PLACEMENT_3D('',#434,#363,#364);
#296=AXIS2_PLACEMENT_3D('',#435,#365,#366);
#297=DIRECTION('axis',(0.,0.,1.));
#298=DIRECTION('refdir',(1.,0.,0.));
#299=DIRECTION('center_axis',(0.707106781186545,0.,0.70710678118655));
#300=DIRECTION('ref_axis',(0.70710678118655,0.,-0.707106781186545));
#301=DIRECTION('',(0.70710678118655,0.,-0.707106781186545));
#302=DIRECTION('',(0.,-1.,0.));
#303=DIRECTION('',(-0.70710678118655,0.,0.707106781186545));
#304=DIRECTION('',(0.,-1.,0.));
#305=DIRECTION('center_axis',(0.,0.,-1.));
#306=DIRECTION('ref_axis',(0.,1.,0.));
#307=DIRECTION('',(0.,-1.,0.));
#308=DIRECTION('',(1.,0.,0.));
#309=DIRECTION('',(0.,1.,0.));
#310=DIRECTION('',(1.,0.,0.));
#311=DIRECTION('center_axis',(1.,0.,0.));
#312=DIRECTION('ref_axis',(0.,1.,0.));
#313=DIRECTION('',(0.,0.,-1.));
#314=DIRECTION('',(0.,0.,1.));
#315=DIRECTION('center_axis',(-1.,0.,0.));
#316=DIRECTION('ref_axis',(0.,1.,0.));
#317=DIRECTION('center_axis',(-1.,0.,0.));
#318=DIRECTION('ref_axis',(0.,1.,0.));
#319=DIRECTION('center_axis',(-1.,0.,0.));
#320=DIRECTION('ref_axis',(0.,1.,0.));
#321=DIRECTION('center_axis',(-0.341743063086701,0.,-0.939793423488438));
#322=DIRECTION('ref_axis',(-0.939793423488438,0.,0.341743063086701));
#323=DIRECTION('',(0.939793423488438,0.,-0.341743063086701));
#324=DIRECTION('',(-0.939793423488438,0.,0.341743063086701));
#325=DIRECTION('',(0.,1.,0.));
#326=DIRECTION('center_axis',(1.,0.,0.));
#327=DIRECTION('ref_axis',(0.,1.,0.));
#328=DIRECTION('',(0.,0.,-1.));
#329=DIRECTION('center_axis',(1.,0.,0.));
#330=DIRECTION('ref_axis',(0.,1.,0.));
#331=DIRECTION('',(0.,0.,1.));
#332=DIRECTION('center_axis',(-1.,0.,0.));
#333=DIRECTION('ref_axis',(0.,1.,0.));
#334=DIRECTION('center_axis',(1.,0.,0.));
#335=DIRECTION('ref_axis',(0.,-1.,-1.80411241501588E-16));
#336=DIRECTION('center_axis',(1.,0.,0.));
#337=DIRECTION('ref_axis',(0.,-1.,-1.80411241501588E-16));
#338=DIRECTION('center_axis',(1.,0.,0.));
#339=DIRECTION('ref_axis',(0.,-1.,-1.80411241501588E-16));
#340=DIRECTION('center_axis',(0.,1.,0.));
#341=DIRECTION('ref_axis',(0.,0.,1.));
#342=DIRECTION('',(0.,0.,1.));
#343=DIRECTION('',(1.,0.,0.));
#344=DIRECTION('center_axis',(1.,0.,0.));
#345=DIRECTION('ref_axis',(0.,-1.,-1.80411241501588E-16));
#346=DIRECTION('',(1.,0.,0.));
#347=DIRECTION('center_axis',(1.,0.,0.));
#348=DIRECTION('ref_axis',(0.,-1.,-1.80411241501588E-16));
#349=DIRECTION('',(1.,0.,0.));
#350=DIRECTION('center_axis',(1.,0.,0.));
#351=DIRECTION('ref_axis',(0.,-1.,-1.80411241501588E-16));
#352=DIRECTION('',(1.,0.,0.));
#353=DIRECTION('center_axis',(1.,0.,0.));
#354=DIRECTION('ref_axis',(0.,0.,1.));
#355=DIRECTION('',(0.,0.,-1.));
#356=DIRECTION('center_axis',(1.,0.,0.));
#357=DIRECTION('ref_axis',(0.,1.,0.));
#358=DIRECTION('center_axis',(-1.,0.,0.));
#359=DIRECTION('ref_axis',(0.,1.,0.));
#360=DIRECTION('center_axis',(0.,-1.,0.));
#361=DIRECTION('ref_axis',(0.,0.,-1.));
#362=DIRECTION('',(1.,0.,0.));
#363=DIRECTION('center_axis',(-1.,0.,0.));
#364=DIRECTION('ref_axis',(0.,1.,0.));
#365=DIRECTION('center_axis',(-1.,0.,0.));
#366=DIRECTION('ref_axis',(0.,1.,0.));
#367=DIRECTION('',(1.,0.,0.));
#368=CARTESIAN_POINT('',(0.,0.,0.));
#369=CARTESIAN_POINT('Origin',(-53.25,30.,128.250002250075));
#370=CARTESIAN_POINT('',(-54.5,0.,129.500002250075));
#371=CARTESIAN_POINT('',(-52.,0.,127.000002250075));
#372=CARTESIAN_POINT('',(-55.8749994374812,2.22044604925031E-15,130.875001687556));
#373=CARTESIAN_POINT('',(-52.,30.,127.000002250075));
#374=CARTESIAN_POINT('',(-52.,30.,127.000002250075));
#375=CARTESIAN_POINT('',(-54.5,30.,129.500002250075));
#376=CARTESIAN_POINT('',(-63.3749994374812,30.,138.375001687556));
#377=CARTESIAN_POINT('',(-54.5,30.,129.500002250075));
#378=CARTESIAN_POINT('Origin',(-54.5,0.,118.000002250075));
#379=CARTESIAN_POINT('',(-54.5,30.,118.));
#380=CARTESIAN_POINT('',(-54.5,0.,118.000002250075));
#381=CARTESIAN_POINT('',(-54.5,0.,118.));
#382=CARTESIAN_POINT('',(-52.,30.,118.000002250075));
#383=CARTESIAN_POINT('',(-54.5,30.,118.000002250075));
#384=CARTESIAN_POINT('',(-52.,0.,118.000002250075));
#385=CARTESIAN_POINT('',(-52.,0.,118.000002250075));
#386=CARTESIAN_POINT('',(-54.5,0.,118.000002250075));
#387=CARTESIAN_POINT('Origin',(-52.,15.,122.500002250075));
#388=CARTESIAN_POINT('',(-52.,0.,127.000002250075));
#389=CARTESIAN_POINT('',(-52.,30.,118.000002250075));
#390=CARTESIAN_POINT('',(-52.,27.,123.));
#391=CARTESIAN_POINT('Origin',(-52.,25.,123.));
#392=CARTESIAN_POINT('',(-52.,17.0000000745058,123.));
#393=CARTESIAN_POINT('Origin',(-52.,15.0000000745058,123.));
#394=CARTESIAN_POINT('',(-52.,7.0000000745058,123.));
#395=CARTESIAN_POINT('Origin',(-52.,5.00000007450581,123.));
#396=CARTESIAN_POINT('Origin',(-57.25,7.5,119.));
#397=CARTESIAN_POINT('',(-60.,30.,120.));
#398=CARTESIAN_POINT('',(-65.3695255474452,30.,121.952554744525));
#399=CARTESIAN_POINT('',(-60.,0.,120.));
#400=CARTESIAN_POINT('',(-60.5520072992701,0.,120.200729927007));
#401=CARTESIAN_POINT('',(-60.,7.5,120.));
#402=CARTESIAN_POINT('Origin',(-60.,15.,93.939784837187));
#403=CARTESIAN_POINT('',(-60.,0.,162.));
#404=CARTESIAN_POINT('',(-60.,0.,132.));
#405=CARTESIAN_POINT('',(-60.,30.,162.));
#406=CARTESIAN_POINT('Origin',(-60.,15.,162.));
#407=CARTESIAN_POINT('',(-60.,30.,132.));
#408=CARTESIAN_POINT('',(-60.,7.00000000000001,162.));
#409=CARTESIAN_POINT('Origin',(-60.,15.,162.));
#410=CARTESIAN_POINT('',(-60.,7.0000000745058,123.));
#411=CARTESIAN_POINT('Origin',(-60.,5.00000007450581,123.));
#412=CARTESIAN_POINT('',(-60.,17.0000000745058,123.));
#413=CARTESIAN_POINT('Origin',(-60.,15.0000000745058,123.));
#414=CARTESIAN_POINT('',(-60.,27.,123.));
#415=CARTESIAN_POINT('Origin',(-60.,25.,123.));
#416=CARTESIAN_POINT('Origin',(-60.,0.,132.));
#417=CARTESIAN_POINT('',(-54.5,0.,162.));
#418=CARTESIAN_POINT('',(-54.5,0.,130.500001125038));
#419=CARTESIAN_POINT('',(-60.,0.,162.));
#420=CARTESIAN_POINT('Origin',(-60.,25.,123.));
#421=CARTESIAN_POINT('',(-60.,27.,123.));
#422=CARTESIAN_POINT('Origin',(-60.,15.0000000745058,123.));
#423=CARTESIAN_POINT('',(-60.,17.0000000745058,123.));
#424=CARTESIAN_POINT('Origin',(-60.,5.00000007450581,123.));
#425=CARTESIAN_POINT('',(-60.,7.0000000745058,123.));
#426=CARTESIAN_POINT('Origin',(-54.5,30.,138.000002250075));
#427=CARTESIAN_POINT('',(-54.5,30.,162.));
#428=CARTESIAN_POINT('',(-54.5,30.,135.500001125038));
#429=CARTESIAN_POINT('Origin',(-54.5,15.,162.));
#430=CARTESIAN_POINT('',(-54.5,7.00000000000001,162.));
#431=CARTESIAN_POINT('Origin',(-54.5,15.,162.));
#432=CARTESIAN_POINT('Origin',(-60.,30.,162.));
#433=CARTESIAN_POINT('',(-60.,30.,162.));
#434=CARTESIAN_POINT('Origin',(-60.,15.,162.));
#435=CARTESIAN_POINT('Origin',(-60.,15.,162.));
#436=CARTESIAN_POINT('',(-60.,7.00000000000001,162.));
#437=UNCERTAINTY_MEASURE_WITH_UNIT(LENGTH_MEASURE(0.01),#441,
'DISTANCE_ACCURACY_VALUE',
'Maximum model space distance between geometric entities at asserted c
onnectivities');
#438=UNCERTAINTY_MEASURE_WITH_UNIT(LENGTH_MEASURE(0.01),#441,
'DISTANCE_ACCURACY_VALUE',
'Maximum model space distance between geometric entities at asserted c
onnectivities');
#439=(
GEOMETRIC_REPRESENTATION_CONTEXT(3)
GLOBAL_UNCERTAINTY_ASSIGNED_CONTEXT((#437))
GLOBAL_UNIT_ASSIGNED_CONTEXT((#441,#443,#444))
REPRESENTATION_CONTEXT('','3D')
);
#440=(
GEOMETRIC_REPRESENTATION_CONTEXT(3)
GLOBAL_UNCERTAINTY_ASSIGNED_CONTEXT((#438))
GLOBAL_UNIT_ASSIGNED_CONTEXT((#441,#443,#444))
REPRESENTATION_CONTEXT('','3D')
);
#441=(
LENGTH_UNIT()
NAMED_UNIT(*)
SI_UNIT(.MILLI.,.METRE.)
);
#442=(
LENGTH_UNIT()
NAMED_UNIT(*)
SI_UNIT($,.METRE.)
);
#443=(
NAMED_UNIT(*)
PLANE_ANGLE_UNIT()
SI_UNIT($,.RADIAN.)
);
#444=(
NAMED_UNIT(*)
SI_UNIT($,.STERADIAN.)
SOLID_ANGLE_UNIT()
);
#445=SHAPE_DEFINITION_REPRESENTATION(#446,#447);
#446=PRODUCT_DEFINITION_SHAPE('',$,#449);
#447=SHAPE_REPRESENTATION('',(#273),#439);
#448=PRODUCT_DEFINITION_CONTEXT('part definition',#453,'design');
#449=PRODUCT_DEFINITION('Lower Leg hoop left','Lower Leg hoop left',#450,
#448);
#450=PRODUCT_DEFINITION_FORMATION('',$,#455);
#451=PRODUCT_RELATED_PRODUCT_CATEGORY('Lower Leg hoop left',
'Lower Leg hoop left',(#455));
#452=APPLICATION_PROTOCOL_DEFINITION('international standard',
'automotive_design',2009,#453);
#453=APPLICATION_CONTEXT(
'Core Data for Automotive Mechanical Design Process');
#454=PRODUCT_CONTEXT('part definition',#453,'mechanical');
#455=PRODUCT('Lower Leg hoop left','Lower Leg hoop left',$,(#454));
#456=PRESENTATION_STYLE_ASSIGNMENT((#458));
#457=PRESENTATION_STYLE_ASSIGNMENT((#459));
#458=SURFACE_STYLE_USAGE(.BOTH.,#460);
#459=SURFACE_STYLE_USAGE(.BOTH.,#461);
#460=SURFACE_SIDE_STYLE('',(#462));
#461=SURFACE_SIDE_STYLE('',(#463));
#462=SURFACE_STYLE_FILL_AREA(#464);
#463=SURFACE_STYLE_FILL_AREA(#465);
#464=FILL_AREA_STYLE('Steel - Satin',(#466));
#465=FILL_AREA_STYLE('ABS (White)',(#467));
#466=FILL_AREA_STYLE_COLOUR('Steel - Satin',#468);
#467=FILL_AREA_STYLE_COLOUR('ABS (White)',#469);
#468=COLOUR_RGB('Steel - Satin',0.627450980392157,0.627450980392157,0.627450980392157);
#469=COLOUR_RGB('ABS (White)',0.964705882352941,0.964705882352941,0.952941176470588);
ENDSEC;
END-ISO-10303-21;
