ISO-10303-21;
HEADER;
/* Generated by software containing ST-Developer
 * from STEP Tools, Inc. (www.steptools.com) 
 */

FILE_DESCRIPTION(
/* description */ (''),
/* implementation_level */ '2;1');

FILE_NAME(
/* name */ 'Middle Leg Front.step',
/* time_stamp */ '2025-12-12T13:05:01+01:00',
/* author */ (''),
/* organization */ (''),
/* preprocessor_version */ 'ST-DEVELOPER v20.1',
/* originating_system */ 'Autodesk Translation Framework v14.21.0.0',
/* authorisation */ '');

FILE_SCHEMA (('AUTOMOTIVE_DESIGN { 1 0 10303 214 3 1 1 }'));
ENDSEC;

DATA;
#10=MECHANICAL_DESIGN_GEOMETRIC_PRESENTATION_REPRESENTATION('',(#13),#2128);
#11=SHAPE_REPRESENTATION_RELATIONSHIP('SRR','None',#2135,#12);
#12=ADVANCED_BREP_SHAPE_REPRESENTATION('',(#14),#2127);
#13=STYLED_ITEM('',(#2145),#14);
#14=MANIFOLD_SOLID_BREP('Middle Leg Front',#1316);
#15=CONICAL_SURFACE('',#1400,3.7,0.785398163397437);
#16=CONICAL_SURFACE('',#1403,3.70000005215406,0.785398163397437);
#17=CYLINDRICAL_SURFACE('',#1363,2.1);
#18=CYLINDRICAL_SURFACE('',#1365,2.1);
#19=CYLINDRICAL_SURFACE('',#1367,2.10000000000001);
#20=CYLINDRICAL_SURFACE('',#1369,2.10000000000001);
#21=CYLINDRICAL_SURFACE('',#1371,2.10000000000001);
#22=CYLINDRICAL_SURFACE('',#1373,2.09999999999999);
#23=CYLINDRICAL_SURFACE('',#1375,2.1);
#24=CYLINDRICAL_SURFACE('',#1377,2.1);
#25=CYLINDRICAL_SURFACE('',#1388,3.50000005215406);
#26=CYLINDRICAL_SURFACE('',#1404,3.50000000000001);
#27=CYLINDRICAL_SURFACE('',#1412,1.6);
#28=CYLINDRICAL_SURFACE('',#1413,1.6);
#29=CYLINDRICAL_SURFACE('',#1414,1.59999999999999);
#30=FACE_BOUND('',#152,.T.);
#31=FACE_BOUND('',#153,.T.);
#32=FACE_BOUND('',#154,.T.);
#33=FACE_BOUND('',#176,.T.);
#34=FACE_BOUND('',#177,.T.);
#35=FACE_BOUND('',#178,.T.);
#36=FACE_BOUND('',#179,.T.);
#37=FACE_BOUND('',#180,.T.);
#38=FACE_BOUND('',#181,.T.);
#39=FACE_BOUND('',#182,.T.);
#40=FACE_BOUND('',#183,.T.);
#41=FACE_BOUND('',#184,.T.);
#42=FACE_BOUND('',#185,.T.);
#43=FACE_BOUND('',#186,.T.);
#44=FACE_BOUND('',#196,.T.);
#45=FACE_BOUND('',#197,.T.);
#46=FACE_BOUND('',#198,.T.);
#47=FACE_BOUND('',#199,.T.);
#48=FACE_BOUND('',#200,.T.);
#49=FACE_BOUND('',#201,.T.);
#50=FACE_BOUND('',#202,.T.);
#51=FACE_BOUND('',#203,.T.);
#52=FACE_BOUND('',#204,.T.);
#53=FACE_BOUND('',#205,.T.);
#54=FACE_BOUND('',#206,.T.);
#55=FACE_BOUND('',#208,.T.);
#56=FACE_BOUND('',#209,.T.);
#57=FACE_BOUND('',#210,.T.);
#58=CIRCLE('',#1331,1.59999999999999);
#59=CIRCLE('',#1332,1.6);
#60=CIRCLE('',#1333,1.6);
#61=CIRCLE('',#1355,2.1);
#62=CIRCLE('',#1356,2.1);
#63=CIRCLE('',#1357,2.10000000000001);
#64=CIRCLE('',#1358,2.10000000000001);
#65=CIRCLE('',#1359,2.10000000000001);
#66=CIRCLE('',#1360,2.09999999999999);
#67=CIRCLE('',#1361,2.1);
#68=CIRCLE('',#1362,2.1);
#69=CIRCLE('',#1364,2.1);
#70=CIRCLE('',#1366,2.1);
#71=CIRCLE('',#1368,2.10000000000001);
#72=CIRCLE('',#1370,2.10000000000001);
#73=CIRCLE('',#1372,2.10000000000001);
#74=CIRCLE('',#1374,2.09999999999999);
#75=CIRCLE('',#1376,2.1);
#76=CIRCLE('',#1378,2.1);
#77=CIRCLE('',#1380,3.9);
#78=CIRCLE('',#1381,3.90000005215406);
#79=CIRCLE('',#1383,3.50000000000001);
#80=CIRCLE('',#1384,3.50000005215406);
#81=CIRCLE('',#1385,1.59999999999999);
#82=CIRCLE('',#1386,1.6);
#83=CIRCLE('',#1387,1.6);
#84=CIRCLE('',#1389,3.50000005215406);
#85=CIRCLE('',#1401,3.50000000000001);
#86=FACE_OUTER_BOUND('',#151,.T.);
#87=FACE_OUTER_BOUND('',#155,.T.);
#88=FACE_OUTER_BOUND('',#156,.T.);
#89=FACE_OUTER_BOUND('',#157,.T.);
#90=FACE_OUTER_BOUND('',#158,.T.);
#91=FACE_OUTER_BOUND('',#159,.T.);
#92=FACE_OUTER_BOUND('',#160,.T.);
#93=FACE_OUTER_BOUND('',#161,.T.);
#94=FACE_OUTER_BOUND('',#162,.T.);
#95=FACE_OUTER_BOUND('',#163,.T.);
#96=FACE_OUTER_BOUND('',#164,.T.);
#97=FACE_OUTER_BOUND('',#165,.T.);
#98=FACE_OUTER_BOUND('',#166,.T.);
#99=FACE_OUTER_BOUND('',#167,.T.);
#100=FACE_OUTER_BOUND('',#168,.T.);
#101=FACE_OUTER_BOUND('',#169,.T.);
#102=FACE_OUTER_BOUND('',#170,.T.);
#103=FACE_OUTER_BOUND('',#171,.T.);
#104=FACE_OUTER_BOUND('',#172,.T.);
#105=FACE_OUTER_BOUND('',#173,.T.);
#106=FACE_OUTER_BOUND('',#174,.T.);
#107=FACE_OUTER_BOUND('',#175,.T.);
#108=FACE_OUTER_BOUND('',#187,.T.);
#109=FACE_OUTER_BOUND('',#188,.T.);
#110=FACE_OUTER_BOUND('',#189,.T.);
#111=FACE_OUTER_BOUND('',#190,.T.);
#112=FACE_OUTER_BOUND('',#191,.T.);
#113=FACE_OUTER_BOUND('',#192,.T.);
#114=FACE_OUTER_BOUND('',#193,.T.);
#115=FACE_OUTER_BOUND('',#194,.T.);
#116=FACE_OUTER_BOUND('',#195,.T.);
#117=FACE_OUTER_BOUND('',#207,.T.);
#118=FACE_OUTER_BOUND('',#211,.T.);
#119=FACE_OUTER_BOUND('',#212,.T.);
#120=FACE_OUTER_BOUND('',#213,.T.);
#121=FACE_OUTER_BOUND('',#214,.T.);
#122=FACE_OUTER_BOUND('',#215,.T.);
#123=FACE_OUTER_BOUND('',#216,.T.);
#124=FACE_OUTER_BOUND('',#217,.T.);
#125=FACE_OUTER_BOUND('',#218,.T.);
#126=FACE_OUTER_BOUND('',#219,.T.);
#127=FACE_OUTER_BOUND('',#220,.T.);
#128=FACE_OUTER_BOUND('',#221,.T.);
#129=FACE_OUTER_BOUND('',#222,.T.);
#130=FACE_OUTER_BOUND('',#223,.T.);
#131=FACE_OUTER_BOUND('',#224,.T.);
#132=FACE_OUTER_BOUND('',#225,.T.);
#133=FACE_OUTER_BOUND('',#226,.T.);
#134=FACE_OUTER_BOUND('',#227,.T.);
#135=FACE_OUTER_BOUND('',#228,.T.);
#136=FACE_OUTER_BOUND('',#229,.T.);
#137=FACE_OUTER_BOUND('',#230,.T.);
#138=FACE_OUTER_BOUND('',#231,.T.);
#139=FACE_OUTER_BOUND('',#232,.T.);
#140=FACE_OUTER_BOUND('',#233,.T.);
#141=FACE_OUTER_BOUND('',#234,.T.);
#142=FACE_OUTER_BOUND('',#235,.T.);
#143=FACE_OUTER_BOUND('',#236,.T.);
#144=FACE_OUTER_BOUND('',#237,.T.);
#145=FACE_OUTER_BOUND('',#238,.T.);
#146=FACE_OUTER_BOUND('',#239,.T.);
#147=FACE_OUTER_BOUND('',#240,.T.);
#148=FACE_OUTER_BOUND('',#241,.T.);
#149=FACE_OUTER_BOUND('',#242,.T.);
#150=FACE_OUTER_BOUND('',#243,.T.);
#151=EDGE_LOOP('',(#843,#844,#845,#846));
#152=EDGE_LOOP('',(#847));
#153=EDGE_LOOP('',(#848));
#154=EDGE_LOOP('',(#849));
#155=EDGE_LOOP('',(#850,#851,#852,#853));
#156=EDGE_LOOP('',(#854,#855,#856,#857,#858));
#157=EDGE_LOOP('',(#859,#860,#861,#862));
#158=EDGE_LOOP('',(#863,#864,#865,#866));
#159=EDGE_LOOP('',(#867,#868,#869,#870,#871));
#160=EDGE_LOOP('',(#872,#873,#874,#875));
#161=EDGE_LOOP('',(#876,#877,#878,#879));
#162=EDGE_LOOP('',(#880,#881,#882,#883,#884));
#163=EDGE_LOOP('',(#885,#886,#887,#888));
#164=EDGE_LOOP('',(#889,#890,#891,#892));
#165=EDGE_LOOP('',(#893,#894,#895,#896,#897));
#166=EDGE_LOOP('',(#898,#899,#900,#901));
#167=EDGE_LOOP('',(#902,#903,#904,#905,#906));
#168=EDGE_LOOP('',(#907,#908,#909,#910));
#169=EDGE_LOOP('',(#911,#912,#913,#914,#915));
#170=EDGE_LOOP('',(#916,#917,#918,#919));
#171=EDGE_LOOP('',(#920,#921,#922,#923,#924));
#172=EDGE_LOOP('',(#925,#926,#927,#928));
#173=EDGE_LOOP('',(#929,#930,#931,#932,#933));
#174=EDGE_LOOP('',(#934,#935,#936,#937));
#175=EDGE_LOOP('',(#938,#939,#940,#941,#942,#943,#944,#945));
#176=EDGE_LOOP('',(#946));
#177=EDGE_LOOP('',(#947));
#178=EDGE_LOOP('',(#948));
#179=EDGE_LOOP('',(#949));
#180=EDGE_LOOP('',(#950));
#181=EDGE_LOOP('',(#951));
#182=EDGE_LOOP('',(#952));
#183=EDGE_LOOP('',(#953));
#184=EDGE_LOOP('',(#954,#955,#956,#957));
#185=EDGE_LOOP('',(#958,#959,#960,#961,#962,#963,#964,#965,#966,#967,#968,
#969));
#186=EDGE_LOOP('',(#970,#971,#972,#973,#974,#975,#976,#977,#978,#979,#980,
#981));
#187=EDGE_LOOP('',(#982,#983,#984,#985));
#188=EDGE_LOOP('',(#986,#987,#988,#989));
#189=EDGE_LOOP('',(#990,#991,#992,#993));
#190=EDGE_LOOP('',(#994,#995,#996,#997));
#191=EDGE_LOOP('',(#998,#999,#1000,#1001));
#192=EDGE_LOOP('',(#1002,#1003,#1004,#1005));
#193=EDGE_LOOP('',(#1006,#1007,#1008,#1009));
#194=EDGE_LOOP('',(#1010,#1011,#1012,#1013));
#195=EDGE_LOOP('',(#1014,#1015,#1016,#1017,#1018,#1019,#1020,#1021));
#196=EDGE_LOOP('',(#1022));
#197=EDGE_LOOP('',(#1023));
#198=EDGE_LOOP('',(#1024));
#199=EDGE_LOOP('',(#1025));
#200=EDGE_LOOP('',(#1026));
#201=EDGE_LOOP('',(#1027));
#202=EDGE_LOOP('',(#1028));
#203=EDGE_LOOP('',(#1029));
#204=EDGE_LOOP('',(#1030,#1031,#1032,#1033));
#205=EDGE_LOOP('',(#1034,#1035,#1036,#1037));
#206=EDGE_LOOP('',(#1038,#1039,#1040,#1041));
#207=EDGE_LOOP('',(#1042,#1043,#1044,#1045));
#208=EDGE_LOOP('',(#1046));
#209=EDGE_LOOP('',(#1047));
#210=EDGE_LOOP('',(#1048));
#211=EDGE_LOOP('',(#1049,#1050,#1051,#1052));
#212=EDGE_LOOP('',(#1053,#1054,#1055,#1056));
#213=EDGE_LOOP('',(#1057,#1058,#1059,#1060));
#214=EDGE_LOOP('',(#1061,#1062,#1063,#1064));
#215=EDGE_LOOP('',(#1065,#1066,#1067,#1068));
#216=EDGE_LOOP('',(#1069,#1070,#1071,#1072));
#217=EDGE_LOOP('',(#1073,#1074,#1075,#1076));
#218=EDGE_LOOP('',(#1077,#1078,#1079,#1080,#1081));
#219=EDGE_LOOP('',(#1082,#1083,#1084,#1085));
#220=EDGE_LOOP('',(#1086,#1087,#1088,#1089,#1090));
#221=EDGE_LOOP('',(#1091,#1092,#1093,#1094));
#222=EDGE_LOOP('',(#1095,#1096,#1097,#1098));
#223=EDGE_LOOP('',(#1099,#1100,#1101,#1102));
#224=EDGE_LOOP('',(#1103,#1104,#1105,#1106));
#225=EDGE_LOOP('',(#1107,#1108,#1109,#1110));
#226=EDGE_LOOP('',(#1111,#1112,#1113,#1114));
#227=EDGE_LOOP('',(#1115,#1116,#1117,#1118,#1119));
#228=EDGE_LOOP('',(#1120,#1121,#1122,#1123));
#229=EDGE_LOOP('',(#1124,#1125,#1126,#1127));
#230=EDGE_LOOP('',(#1128,#1129,#1130,#1131,#1132));
#231=EDGE_LOOP('',(#1133,#1134,#1135,#1136));
#232=EDGE_LOOP('',(#1137,#1138,#1139,#1140));
#233=EDGE_LOOP('',(#1141,#1142,#1143,#1144));
#234=EDGE_LOOP('',(#1145,#1146,#1147,#1148));
#235=EDGE_LOOP('',(#1149,#1150,#1151,#1152));
#236=EDGE_LOOP('',(#1153,#1154,#1155,#1156));
#237=EDGE_LOOP('',(#1157,#1158,#1159,#1160,#1161,#1162,#1163,#1164));
#238=EDGE_LOOP('',(#1165,#1166,#1167,#1168));
#239=EDGE_LOOP('',(#1169,#1170,#1171,#1172,#1173,#1174,#1175,#1176));
#240=EDGE_LOOP('',(#1177,#1178,#1179,#1180,#1181,#1182,#1183,#1184));
#241=EDGE_LOOP('',(#1185,#1186,#1187,#1188));
#242=EDGE_LOOP('',(#1189,#1190,#1191,#1192,#1193,#1194,#1195,#1196));
#243=EDGE_LOOP('',(#1197,#1198,#1199,#1200));
#244=LINE('',#1766,#395);
#245=LINE('',#1768,#396);
#246=LINE('',#1770,#397);
#247=LINE('',#1771,#398);
#248=LINE('',#1781,#399);
#249=LINE('',#1783,#400);
#250=LINE('',#1785,#401);
#251=LINE('',#1786,#402);
#252=LINE('',#1789,#403);
#253=LINE('',#1791,#404);
#254=LINE('',#1793,#405);
#255=LINE('',#1794,#406);
#256=LINE('',#1797,#407);
#257=LINE('',#1798,#408);
#258=LINE('',#1802,#409);
#259=LINE('',#1804,#410);
#260=LINE('',#1806,#411);
#261=LINE('',#1807,#412);
#262=LINE('',#1810,#413);
#263=LINE('',#1812,#414);
#264=LINE('',#1814,#415);
#265=LINE('',#1815,#416);
#266=LINE('',#1818,#417);
#267=LINE('',#1819,#418);
#268=LINE('',#1823,#419);
#269=LINE('',#1825,#420);
#270=LINE('',#1827,#421);
#271=LINE('',#1828,#422);
#272=LINE('',#1831,#423);
#273=LINE('',#1833,#424);
#274=LINE('',#1835,#425);
#275=LINE('',#1836,#426);
#276=LINE('',#1839,#427);
#277=LINE('',#1840,#428);
#278=LINE('',#1844,#429);
#279=LINE('',#1846,#430);
#280=LINE('',#1848,#431);
#281=LINE('',#1849,#432);
#282=LINE('',#1852,#433);
#283=LINE('',#1854,#434);
#284=LINE('',#1856,#435);
#285=LINE('',#1857,#436);
#286=LINE('',#1860,#437);
#287=LINE('',#1861,#438);
#288=LINE('',#1864,#439);
#289=LINE('',#1866,#440);
#290=LINE('',#1867,#441);
#291=LINE('',#1869,#442);
#292=LINE('',#1872,#443);
#293=LINE('',#1874,#444);
#294=LINE('',#1875,#445);
#295=LINE('',#1877,#446);
#296=LINE('',#1880,#447);
#297=LINE('',#1882,#448);
#298=LINE('',#1883,#449);
#299=LINE('',#1885,#450);
#300=LINE('',#1888,#451);
#301=LINE('',#1890,#452);
#302=LINE('',#1891,#453);
#303=LINE('',#1893,#454);
#304=LINE('',#1897,#455);
#305=LINE('',#1899,#456);
#306=LINE('',#1901,#457);
#307=LINE('',#1903,#458);
#308=LINE('',#1905,#459);
#309=LINE('',#1907,#460);
#310=LINE('',#1909,#461);
#311=LINE('',#1910,#462);
#312=LINE('',#1929,#463);
#313=LINE('',#1931,#464);
#314=LINE('',#1933,#465);
#315=LINE('',#1934,#466);
#316=LINE('',#1936,#467);
#317=LINE('',#1938,#468);
#318=LINE('',#1939,#469);
#319=LINE('',#1941,#470);
#320=LINE('',#1943,#471);
#321=LINE('',#1944,#472);
#322=LINE('',#1946,#473);
#323=LINE('',#1948,#474);
#324=LINE('',#1949,#475);
#325=LINE('',#1951,#476);
#326=LINE('',#1953,#477);
#327=LINE('',#1954,#478);
#328=LINE('',#1957,#479);
#329=LINE('',#1961,#480);
#330=LINE('',#1965,#481);
#331=LINE('',#1969,#482);
#332=LINE('',#1973,#483);
#333=LINE('',#1977,#484);
#334=LINE('',#1981,#485);
#335=LINE('',#1985,#486);
#336=LINE('',#1990,#487);
#337=LINE('',#1992,#488);
#338=LINE('',#1994,#489);
#339=LINE('',#1996,#490);
#340=LINE('',#1998,#491);
#341=LINE('',#2000,#492);
#342=LINE('',#2002,#493);
#343=LINE('',#2003,#494);
#344=LINE('',#2006,#495);
#345=LINE('',#2008,#496);
#346=LINE('',#2010,#497);
#347=LINE('',#2011,#498);
#348=LINE('',#2014,#499);
#349=LINE('',#2016,#500);
#350=LINE('',#2018,#501);
#351=LINE('',#2019,#502);
#352=LINE('',#2022,#503);
#353=LINE('',#2026,#504);
#354=LINE('',#2033,#505);
#355=LINE('',#2036,#506);
#356=LINE('',#2045,#507);
#357=LINE('',#2048,#508);
#358=LINE('',#2051,#509);
#359=LINE('',#2052,#510);
#360=LINE('',#2054,#511);
#361=LINE('',#2055,#512);
#362=LINE('',#2057,#513);
#363=LINE('',#2059,#514);
#364=LINE('',#2063,#515);
#365=LINE('',#2065,#516);
#366=LINE('',#2066,#517);
#367=LINE('',#2068,#518);
#368=LINE('',#2069,#519);
#369=LINE('',#2072,#520);
#370=LINE('',#2074,#521);
#371=LINE('',#2075,#522);
#372=LINE('',#2077,#523);
#373=LINE('',#2078,#524);
#374=LINE('',#2080,#525);
#375=LINE('',#2081,#526);
#376=LINE('',#2084,#527);
#377=LINE('',#2087,#528);
#378=LINE('',#2088,#529);
#379=LINE('',#2091,#530);
#380=LINE('',#2094,#531);
#381=LINE('',#2095,#532);
#382=LINE('',#2098,#533);
#383=LINE('',#2100,#534);
#384=LINE('',#2104,#535);
#385=LINE('',#2106,#536);
#386=LINE('',#2108,#537);
#387=LINE('',#2110,#538);
#388=LINE('',#2111,#539);
#389=LINE('',#2113,#540);
#390=LINE('',#2115,#541);
#391=LINE('',#2118,#542);
#392=LINE('',#2119,#543);
#393=LINE('',#2121,#544);
#394=LINE('',#2123,#545);
#395=VECTOR('',#1427,10.);
#396=VECTOR('',#1428,10.);
#397=VECTOR('',#1429,10.);
#398=VECTOR('',#1430,10.);
#399=VECTOR('',#1439,10.);
#400=VECTOR('',#1440,10.);
#401=VECTOR('',#1441,10.);
#402=VECTOR('',#1442,10.);
#403=VECTOR('',#1445,10.);
#404=VECTOR('',#1446,10.);
#405=VECTOR('',#1447,10.);
#406=VECTOR('',#1448,10.);
#407=VECTOR('',#1451,10.);
#408=VECTOR('',#1452,10.);
#409=VECTOR('',#1455,10.);
#410=VECTOR('',#1456,10.);
#411=VECTOR('',#1457,10.);
#412=VECTOR('',#1458,10.);
#413=VECTOR('',#1461,10.);
#414=VECTOR('',#1462,10.);
#415=VECTOR('',#1463,10.);
#416=VECTOR('',#1464,10.);
#417=VECTOR('',#1467,10.);
#418=VECTOR('',#1468,10.);
#419=VECTOR('',#1471,10.);
#420=VECTOR('',#1472,10.);
#421=VECTOR('',#1473,10.);
#422=VECTOR('',#1474,10.);
#423=VECTOR('',#1477,10.);
#424=VECTOR('',#1478,10.);
#425=VECTOR('',#1479,10.);
#426=VECTOR('',#1480,10.);
#427=VECTOR('',#1483,10.);
#428=VECTOR('',#1484,10.);
#429=VECTOR('',#1487,10.);
#430=VECTOR('',#1488,10.);
#431=VECTOR('',#1489,10.);
#432=VECTOR('',#1490,10.);
#433=VECTOR('',#1493,10.);
#434=VECTOR('',#1494,10.);
#435=VECTOR('',#1495,10.);
#436=VECTOR('',#1496,10.);
#437=VECTOR('',#1499,10.);
#438=VECTOR('',#1500,10.);
#439=VECTOR('',#1503,10.);
#440=VECTOR('',#1504,10.);
#441=VECTOR('',#1505,10.);
#442=VECTOR('',#1508,10.);
#443=VECTOR('',#1511,10.);
#444=VECTOR('',#1512,10.);
#445=VECTOR('',#1513,10.);
#446=VECTOR('',#1516,10.);
#447=VECTOR('',#1519,10.);
#448=VECTOR('',#1520,10.);
#449=VECTOR('',#1521,10.);
#450=VECTOR('',#1524,10.);
#451=VECTOR('',#1527,10.);
#452=VECTOR('',#1528,10.);
#453=VECTOR('',#1529,10.);
#454=VECTOR('',#1532,10.);
#455=VECTOR('',#1535,10.);
#456=VECTOR('',#1536,10.);
#457=VECTOR('',#1537,10.);
#458=VECTOR('',#1538,10.);
#459=VECTOR('',#1539,10.);
#460=VECTOR('',#1540,10.);
#461=VECTOR('',#1541,10.);
#462=VECTOR('',#1542,10.);
#463=VECTOR('',#1559,10.);
#464=VECTOR('',#1560,10.);
#465=VECTOR('',#1561,10.);
#466=VECTOR('',#1562,10.);
#467=VECTOR('',#1563,10.);
#468=VECTOR('',#1564,10.);
#469=VECTOR('',#1565,10.);
#470=VECTOR('',#1566,10.);
#471=VECTOR('',#1567,10.);
#472=VECTOR('',#1568,10.);
#473=VECTOR('',#1569,10.);
#474=VECTOR('',#1570,10.);
#475=VECTOR('',#1571,10.);
#476=VECTOR('',#1572,10.);
#477=VECTOR('',#1573,10.);
#478=VECTOR('',#1574,10.);
#479=VECTOR('',#1577,2.1);
#480=VECTOR('',#1582,2.1);
#481=VECTOR('',#1587,2.10000000000001);
#482=VECTOR('',#1592,2.10000000000001);
#483=VECTOR('',#1597,2.10000000000001);
#484=VECTOR('',#1602,2.09999999999999);
#485=VECTOR('',#1607,2.1);
#486=VECTOR('',#1612,2.1);
#487=VECTOR('',#1617,10.);
#488=VECTOR('',#1618,10.);
#489=VECTOR('',#1619,10.);
#490=VECTOR('',#1620,10.);
#491=VECTOR('',#1621,10.);
#492=VECTOR('',#1622,10.);
#493=VECTOR('',#1623,10.);
#494=VECTOR('',#1624,10.);
#495=VECTOR('',#1625,10.);
#496=VECTOR('',#1626,10.);
#497=VECTOR('',#1627,10.);
#498=VECTOR('',#1628,10.);
#499=VECTOR('',#1629,10.);
#500=VECTOR('',#1630,10.);
#501=VECTOR('',#1631,10.);
#502=VECTOR('',#1632,10.);
#503=VECTOR('',#1633,10.);
#504=VECTOR('',#1636,10.);
#505=VECTOR('',#1643,10.);
#506=VECTOR('',#1646,10.);
#507=VECTOR('',#1655,10.);
#508=VECTOR('',#1658,10.);
#509=VECTOR('',#1661,10.);
#510=VECTOR('',#1662,10.);
#511=VECTOR('',#1665,10.);
#512=VECTOR('',#1666,10.);
#513=VECTOR('',#1669,10.);
#514=VECTOR('',#1672,10.);
#515=VECTOR('',#1677,10.);
#516=VECTOR('',#1678,10.);
#517=VECTOR('',#1679,10.);
#518=VECTOR('',#1682,10.);
#519=VECTOR('',#1683,10.);
#520=VECTOR('',#1686,10.);
#521=VECTOR('',#1687,10.);
#522=VECTOR('',#1688,10.);
#523=VECTOR('',#1691,10.);
#524=VECTOR('',#1692,10.);
#525=VECTOR('',#1695,10.);
#526=VECTOR('',#1696,10.);
#527=VECTOR('',#1699,10.);
#528=VECTOR('',#1704,10.);
#529=VECTOR('',#1705,10.);
#530=VECTOR('',#1710,10.);
#531=VECTOR('',#1715,10.);
#532=VECTOR('',#1716,10.);
#533=VECTOR('',#1721,10.);
#534=VECTOR('',#1724,10.);
#535=VECTOR('',#1731,1.6);
#536=VECTOR('',#1734,1.6);
#537=VECTOR('',#1737,1.59999999999999);
#538=VECTOR('',#1740,10.);
#539=VECTOR('',#1741,10.);
#540=VECTOR('',#1744,10.);
#541=VECTOR('',#1747,10.);
#542=VECTOR('',#1752,10.);
#543=VECTOR('',#1753,10.);
#544=VECTOR('',#1756,10.);
#545=VECTOR('',#1759,10.);
#546=VERTEX_POINT('',#1764);
#547=VERTEX_POINT('',#1765);
#548=VERTEX_POINT('',#1767);
#549=VERTEX_POINT('',#1769);
#550=VERTEX_POINT('',#1772);
#551=VERTEX_POINT('',#1774);
#552=VERTEX_POINT('',#1776);
#553=VERTEX_POINT('',#1779);
#554=VERTEX_POINT('',#1780);
#555=VERTEX_POINT('',#1782);
#556=VERTEX_POINT('',#1784);
#557=VERTEX_POINT('',#1788);
#558=VERTEX_POINT('',#1790);
#559=VERTEX_POINT('',#1792);
#560=VERTEX_POINT('',#1796);
#561=VERTEX_POINT('',#1800);
#562=VERTEX_POINT('',#1801);
#563=VERTEX_POINT('',#1803);
#564=VERTEX_POINT('',#1805);
#565=VERTEX_POINT('',#1809);
#566=VERTEX_POINT('',#1811);
#567=VERTEX_POINT('',#1813);
#568=VERTEX_POINT('',#1817);
#569=VERTEX_POINT('',#1821);
#570=VERTEX_POINT('',#1822);
#571=VERTEX_POINT('',#1824);
#572=VERTEX_POINT('',#1826);
#573=VERTEX_POINT('',#1830);
#574=VERTEX_POINT('',#1832);
#575=VERTEX_POINT('',#1834);
#576=VERTEX_POINT('',#1838);
#577=VERTEX_POINT('',#1842);
#578=VERTEX_POINT('',#1843);
#579=VERTEX_POINT('',#1845);
#580=VERTEX_POINT('',#1847);
#581=VERTEX_POINT('',#1851);
#582=VERTEX_POINT('',#1853);
#583=VERTEX_POINT('',#1855);
#584=VERTEX_POINT('',#1859);
#585=VERTEX_POINT('',#1863);
#586=VERTEX_POINT('',#1865);
#587=VERTEX_POINT('',#1871);
#588=VERTEX_POINT('',#1873);
#589=VERTEX_POINT('',#1879);
#590=VERTEX_POINT('',#1881);
#591=VERTEX_POINT('',#1887);
#592=VERTEX_POINT('',#1889);
#593=VERTEX_POINT('',#1895);
#594=VERTEX_POINT('',#1896);
#595=VERTEX_POINT('',#1898);
#596=VERTEX_POINT('',#1900);
#597=VERTEX_POINT('',#1902);
#598=VERTEX_POINT('',#1904);
#599=VERTEX_POINT('',#1906);
#600=VERTEX_POINT('',#1908);
#601=VERTEX_POINT('',#1911);
#602=VERTEX_POINT('',#1913);
#603=VERTEX_POINT('',#1915);
#604=VERTEX_POINT('',#1917);
#605=VERTEX_POINT('',#1919);
#606=VERTEX_POINT('',#1921);
#607=VERTEX_POINT('',#1923);
#608=VERTEX_POINT('',#1925);
#609=VERTEX_POINT('',#1927);
#610=VERTEX_POINT('',#1928);
#611=VERTEX_POINT('',#1930);
#612=VERTEX_POINT('',#1932);
#613=VERTEX_POINT('',#1935);
#614=VERTEX_POINT('',#1937);
#615=VERTEX_POINT('',#1940);
#616=VERTEX_POINT('',#1942);
#617=VERTEX_POINT('',#1945);
#618=VERTEX_POINT('',#1947);
#619=VERTEX_POINT('',#1950);
#620=VERTEX_POINT('',#1952);
#621=VERTEX_POINT('',#1956);
#622=VERTEX_POINT('',#1960);
#623=VERTEX_POINT('',#1964);
#624=VERTEX_POINT('',#1968);
#625=VERTEX_POINT('',#1972);
#626=VERTEX_POINT('',#1976);
#627=VERTEX_POINT('',#1980);
#628=VERTEX_POINT('',#1984);
#629=VERTEX_POINT('',#1988);
#630=VERTEX_POINT('',#1989);
#631=VERTEX_POINT('',#1991);
#632=VERTEX_POINT('',#1993);
#633=VERTEX_POINT('',#1995);
#634=VERTEX_POINT('',#1997);
#635=VERTEX_POINT('',#1999);
#636=VERTEX_POINT('',#2001);
#637=VERTEX_POINT('',#2004);
#638=VERTEX_POINT('',#2005);
#639=VERTEX_POINT('',#2007);
#640=VERTEX_POINT('',#2009);
#641=VERTEX_POINT('',#2012);
#642=VERTEX_POINT('',#2013);
#643=VERTEX_POINT('',#2015);
#644=VERTEX_POINT('',#2017);
#645=VERTEX_POINT('',#2020);
#646=VERTEX_POINT('',#2021);
#647=VERTEX_POINT('',#2023);
#648=VERTEX_POINT('',#2025);
#649=VERTEX_POINT('',#2029);
#650=VERTEX_POINT('',#2030);
#651=VERTEX_POINT('',#2032);
#652=VERTEX_POINT('',#2034);
#653=VERTEX_POINT('',#2037);
#654=VERTEX_POINT('',#2039);
#655=VERTEX_POINT('',#2041);
#656=VERTEX_POINT('',#2044);
#657=VERTEX_POINT('',#2046);
#658=VERTEX_POINT('',#2050);
#659=VERTEX_POINT('',#2062);
#660=VERTEX_POINT('',#2064);
#661=VERTEX_POINT('',#2071);
#662=VERTEX_POINT('',#2073);
#663=VERTEX_POINT('',#2083);
#664=EDGE_CURVE('',#546,#547,#244,.T.);
#665=EDGE_CURVE('',#548,#546,#245,.T.);
#666=EDGE_CURVE('',#549,#548,#246,.T.);
#667=EDGE_CURVE('',#547,#549,#247,.T.);
#668=EDGE_CURVE('',#550,#550,#58,.T.);
#669=EDGE_CURVE('',#551,#551,#59,.T.);
#670=EDGE_CURVE('',#552,#552,#60,.T.);
#671=EDGE_CURVE('',#553,#554,#248,.T.);
#672=EDGE_CURVE('',#553,#555,#249,.T.);
#673=EDGE_CURVE('',#556,#555,#250,.T.);
#674=EDGE_CURVE('',#556,#554,#251,.T.);
#675=EDGE_CURVE('',#557,#555,#252,.T.);
#676=EDGE_CURVE('',#558,#557,#253,.T.);
#677=EDGE_CURVE('',#559,#558,#254,.T.);
#678=EDGE_CURVE('',#559,#556,#255,.T.);
#679=EDGE_CURVE('',#560,#553,#256,.T.);
#680=EDGE_CURVE('',#557,#560,#257,.T.);
#681=EDGE_CURVE('',#561,#562,#258,.T.);
#682=EDGE_CURVE('',#561,#563,#259,.T.);
#683=EDGE_CURVE('',#564,#563,#260,.T.);
#684=EDGE_CURVE('',#564,#562,#261,.T.);
#685=EDGE_CURVE('',#565,#563,#262,.T.);
#686=EDGE_CURVE('',#566,#565,#263,.T.);
#687=EDGE_CURVE('',#567,#566,#264,.T.);
#688=EDGE_CURVE('',#567,#564,#265,.T.);
#689=EDGE_CURVE('',#568,#561,#266,.T.);
#690=EDGE_CURVE('',#565,#568,#267,.T.);
#691=EDGE_CURVE('',#569,#570,#268,.T.);
#692=EDGE_CURVE('',#569,#571,#269,.T.);
#693=EDGE_CURVE('',#572,#571,#270,.T.);
#694=EDGE_CURVE('',#572,#570,#271,.T.);
#695=EDGE_CURVE('',#573,#571,#272,.T.);
#696=EDGE_CURVE('',#574,#573,#273,.T.);
#697=EDGE_CURVE('',#575,#574,#274,.T.);
#698=EDGE_CURVE('',#575,#572,#275,.T.);
#699=EDGE_CURVE('',#576,#569,#276,.T.);
#700=EDGE_CURVE('',#573,#576,#277,.T.);
#701=EDGE_CURVE('',#577,#578,#278,.T.);
#702=EDGE_CURVE('',#577,#579,#279,.T.);
#703=EDGE_CURVE('',#580,#579,#280,.T.);
#704=EDGE_CURVE('',#580,#578,#281,.T.);
#705=EDGE_CURVE('',#581,#579,#282,.T.);
#706=EDGE_CURVE('',#582,#581,#283,.T.);
#707=EDGE_CURVE('',#583,#582,#284,.T.);
#708=EDGE_CURVE('',#583,#580,#285,.T.);
#709=EDGE_CURVE('',#584,#577,#286,.T.);
#710=EDGE_CURVE('',#581,#584,#287,.T.);
#711=EDGE_CURVE('',#562,#585,#288,.T.);
#712=EDGE_CURVE('',#586,#585,#289,.T.);
#713=EDGE_CURVE('',#568,#586,#290,.T.);
#714=EDGE_CURVE('',#585,#567,#291,.T.);
#715=EDGE_CURVE('',#578,#587,#292,.T.);
#716=EDGE_CURVE('',#588,#587,#293,.T.);
#717=EDGE_CURVE('',#584,#588,#294,.T.);
#718=EDGE_CURVE('',#587,#583,#295,.T.);
#719=EDGE_CURVE('',#570,#589,#296,.T.);
#720=EDGE_CURVE('',#590,#589,#297,.T.);
#721=EDGE_CURVE('',#576,#590,#298,.T.);
#722=EDGE_CURVE('',#589,#575,#299,.T.);
#723=EDGE_CURVE('',#554,#591,#300,.T.);
#724=EDGE_CURVE('',#592,#591,#301,.T.);
#725=EDGE_CURVE('',#560,#592,#302,.T.);
#726=EDGE_CURVE('',#591,#559,#303,.T.);
#727=EDGE_CURVE('',#593,#594,#304,.T.);
#728=EDGE_CURVE('',#595,#593,#305,.T.);
#729=EDGE_CURVE('',#595,#596,#306,.T.);
#730=EDGE_CURVE('',#597,#596,#307,.T.);
#731=EDGE_CURVE('',#598,#597,#308,.T.);
#732=EDGE_CURVE('',#599,#598,#309,.T.);
#733=EDGE_CURVE('',#599,#600,#310,.T.);
#734=EDGE_CURVE('',#594,#600,#311,.T.);
#735=EDGE_CURVE('',#601,#601,#61,.T.);
#736=EDGE_CURVE('',#602,#602,#62,.T.);
#737=EDGE_CURVE('',#603,#603,#63,.T.);
#738=EDGE_CURVE('',#604,#604,#64,.T.);
#739=EDGE_CURVE('',#605,#605,#65,.T.);
#740=EDGE_CURVE('',#606,#606,#66,.T.);
#741=EDGE_CURVE('',#607,#607,#67,.T.);
#742=EDGE_CURVE('',#608,#608,#68,.T.);
#743=EDGE_CURVE('',#609,#610,#312,.T.);
#744=EDGE_CURVE('',#610,#611,#313,.T.);
#745=EDGE_CURVE('',#611,#612,#314,.T.);
#746=EDGE_CURVE('',#612,#609,#315,.T.);
#747=EDGE_CURVE('',#586,#613,#316,.T.);
#748=EDGE_CURVE('',#613,#614,#317,.T.);
#749=EDGE_CURVE('',#614,#574,#318,.T.);
#750=EDGE_CURVE('',#590,#615,#319,.T.);
#751=EDGE_CURVE('',#615,#616,#320,.T.);
#752=EDGE_CURVE('',#616,#566,#321,.T.);
#753=EDGE_CURVE('',#588,#617,#322,.T.);
#754=EDGE_CURVE('',#617,#618,#323,.T.);
#755=EDGE_CURVE('',#618,#558,#324,.T.);
#756=EDGE_CURVE('',#592,#619,#325,.T.);
#757=EDGE_CURVE('',#619,#620,#326,.T.);
#758=EDGE_CURVE('',#620,#582,#327,.T.);
#759=EDGE_CURVE('',#601,#621,#328,.T.);
#760=EDGE_CURVE('',#621,#621,#69,.T.);
#761=EDGE_CURVE('',#602,#622,#329,.T.);
#762=EDGE_CURVE('',#622,#622,#70,.T.);
#763=EDGE_CURVE('',#603,#623,#330,.T.);
#764=EDGE_CURVE('',#623,#623,#71,.T.);
#765=EDGE_CURVE('',#604,#624,#331,.T.);
#766=EDGE_CURVE('',#624,#624,#72,.T.);
#767=EDGE_CURVE('',#605,#625,#332,.T.);
#768=EDGE_CURVE('',#625,#625,#73,.T.);
#769=EDGE_CURVE('',#606,#626,#333,.T.);
#770=EDGE_CURVE('',#626,#626,#74,.T.);
#771=EDGE_CURVE('',#607,#627,#334,.T.);
#772=EDGE_CURVE('',#627,#627,#75,.T.);
#773=EDGE_CURVE('',#608,#628,#335,.T.);
#774=EDGE_CURVE('',#628,#628,#76,.T.);
#775=EDGE_CURVE('',#629,#630,#336,.T.);
#776=EDGE_CURVE('',#631,#629,#337,.T.);
#777=EDGE_CURVE('',#632,#631,#338,.T.);
#778=EDGE_CURVE('',#632,#633,#339,.T.);
#779=EDGE_CURVE('',#634,#633,#340,.T.);
#780=EDGE_CURVE('',#635,#634,#341,.T.);
#781=EDGE_CURVE('',#636,#635,#342,.T.);
#782=EDGE_CURVE('',#636,#630,#343,.T.);
#783=EDGE_CURVE('',#637,#638,#344,.T.);
#784=EDGE_CURVE('',#638,#639,#345,.T.);
#785=EDGE_CURVE('',#639,#640,#346,.T.);
#786=EDGE_CURVE('',#640,#637,#347,.T.);
#787=EDGE_CURVE('',#641,#642,#348,.T.);
#788=EDGE_CURVE('',#642,#643,#349,.T.);
#789=EDGE_CURVE('',#643,#644,#350,.T.);
#790=EDGE_CURVE('',#644,#641,#351,.T.);
#791=EDGE_CURVE('',#645,#646,#352,.T.);
#792=EDGE_CURVE('',#647,#645,#77,.T.);
#793=EDGE_CURVE('',#648,#647,#353,.T.);
#794=EDGE_CURVE('',#646,#648,#78,.T.);
#795=EDGE_CURVE('',#649,#650,#79,.T.);
#796=EDGE_CURVE('',#651,#649,#354,.T.);
#797=EDGE_CURVE('',#652,#651,#80,.T.);
#798=EDGE_CURVE('',#650,#652,#355,.T.);
#799=EDGE_CURVE('',#653,#653,#81,.T.);
#800=EDGE_CURVE('',#654,#654,#82,.T.);
#801=EDGE_CURVE('',#655,#655,#83,.T.);
#802=EDGE_CURVE('',#656,#651,#356,.T.);
#803=EDGE_CURVE('',#657,#656,#84,.T.);
#804=EDGE_CURVE('',#657,#652,#357,.T.);
#805=EDGE_CURVE('',#658,#649,#358,.T.);
#806=EDGE_CURVE('',#656,#658,#359,.T.);
#807=EDGE_CURVE('',#609,#548,#360,.T.);
#808=EDGE_CURVE('',#610,#546,#361,.T.);
#809=EDGE_CURVE('',#612,#549,#362,.T.);
#810=EDGE_CURVE('',#611,#547,#363,.T.);
#811=EDGE_CURVE('',#594,#659,#364,.T.);
#812=EDGE_CURVE('',#659,#660,#365,.T.);
#813=EDGE_CURVE('',#660,#593,#366,.T.);
#814=EDGE_CURVE('',#600,#632,#367,.T.);
#815=EDGE_CURVE('',#631,#659,#368,.T.);
#816=EDGE_CURVE('',#597,#661,#369,.T.);
#817=EDGE_CURVE('',#661,#662,#370,.T.);
#818=EDGE_CURVE('',#662,#598,#371,.T.);
#819=EDGE_CURVE('',#596,#636,#372,.T.);
#820=EDGE_CURVE('',#635,#661,#373,.T.);
#821=EDGE_CURVE('',#658,#645,#374,.T.);
#822=EDGE_CURVE('',#646,#656,#375,.T.);
#823=EDGE_CURVE('',#663,#647,#376,.T.);
#824=EDGE_CURVE('',#658,#663,#85,.T.);
#825=EDGE_CURVE('',#657,#648,#377,.T.);
#826=EDGE_CURVE('',#663,#657,#378,.T.);
#827=EDGE_CURVE('',#663,#650,#379,.T.);
#828=EDGE_CURVE('',#660,#629,#380,.T.);
#829=EDGE_CURVE('',#630,#595,#381,.T.);
#830=EDGE_CURVE('',#633,#599,#382,.T.);
#831=EDGE_CURVE('',#662,#634,#383,.T.);
#832=EDGE_CURVE('',#551,#655,#384,.T.);
#833=EDGE_CURVE('',#552,#654,#385,.T.);
#834=EDGE_CURVE('',#550,#653,#386,.T.);
#835=EDGE_CURVE('',#644,#613,#387,.T.);
#836=EDGE_CURVE('',#643,#614,#388,.T.);
#837=EDGE_CURVE('',#642,#615,#389,.T.);
#838=EDGE_CURVE('',#641,#616,#390,.T.);
#839=EDGE_CURVE('',#640,#618,#391,.T.);
#840=EDGE_CURVE('',#639,#619,#392,.T.);
#841=EDGE_CURVE('',#638,#620,#393,.T.);
#842=EDGE_CURVE('',#637,#617,#394,.T.);
#843=ORIENTED_EDGE('',*,*,#664,.F.);
#844=ORIENTED_EDGE('',*,*,#665,.F.);
#845=ORIENTED_EDGE('',*,*,#666,.F.);
#846=ORIENTED_EDGE('',*,*,#667,.F.);
#847=ORIENTED_EDGE('',*,*,#668,.F.);
#848=ORIENTED_EDGE('',*,*,#669,.F.);
#849=ORIENTED_EDGE('',*,*,#670,.F.);
#850=ORIENTED_EDGE('',*,*,#671,.F.);
#851=ORIENTED_EDGE('',*,*,#672,.T.);
#852=ORIENTED_EDGE('',*,*,#673,.F.);
#853=ORIENTED_EDGE('',*,*,#674,.T.);
#854=ORIENTED_EDGE('',*,*,#673,.T.);
#855=ORIENTED_EDGE('',*,*,#675,.F.);
#856=ORIENTED_EDGE('',*,*,#676,.F.);
#857=ORIENTED_EDGE('',*,*,#677,.F.);
#858=ORIENTED_EDGE('',*,*,#678,.T.);
#859=ORIENTED_EDGE('',*,*,#672,.F.);
#860=ORIENTED_EDGE('',*,*,#679,.F.);
#861=ORIENTED_EDGE('',*,*,#680,.F.);
#862=ORIENTED_EDGE('',*,*,#675,.T.);
#863=ORIENTED_EDGE('',*,*,#681,.F.);
#864=ORIENTED_EDGE('',*,*,#682,.T.);
#865=ORIENTED_EDGE('',*,*,#683,.F.);
#866=ORIENTED_EDGE('',*,*,#684,.T.);
#867=ORIENTED_EDGE('',*,*,#683,.T.);
#868=ORIENTED_EDGE('',*,*,#685,.F.);
#869=ORIENTED_EDGE('',*,*,#686,.F.);
#870=ORIENTED_EDGE('',*,*,#687,.F.);
#871=ORIENTED_EDGE('',*,*,#688,.T.);
#872=ORIENTED_EDGE('',*,*,#682,.F.);
#873=ORIENTED_EDGE('',*,*,#689,.F.);
#874=ORIENTED_EDGE('',*,*,#690,.F.);
#875=ORIENTED_EDGE('',*,*,#685,.T.);
#876=ORIENTED_EDGE('',*,*,#691,.F.);
#877=ORIENTED_EDGE('',*,*,#692,.T.);
#878=ORIENTED_EDGE('',*,*,#693,.F.);
#879=ORIENTED_EDGE('',*,*,#694,.T.);
#880=ORIENTED_EDGE('',*,*,#693,.T.);
#881=ORIENTED_EDGE('',*,*,#695,.F.);
#882=ORIENTED_EDGE('',*,*,#696,.F.);
#883=ORIENTED_EDGE('',*,*,#697,.F.);
#884=ORIENTED_EDGE('',*,*,#698,.T.);
#885=ORIENTED_EDGE('',*,*,#692,.F.);
#886=ORIENTED_EDGE('',*,*,#699,.F.);
#887=ORIENTED_EDGE('',*,*,#700,.F.);
#888=ORIENTED_EDGE('',*,*,#695,.T.);
#889=ORIENTED_EDGE('',*,*,#701,.F.);
#890=ORIENTED_EDGE('',*,*,#702,.T.);
#891=ORIENTED_EDGE('',*,*,#703,.F.);
#892=ORIENTED_EDGE('',*,*,#704,.T.);
#893=ORIENTED_EDGE('',*,*,#703,.T.);
#894=ORIENTED_EDGE('',*,*,#705,.F.);
#895=ORIENTED_EDGE('',*,*,#706,.F.);
#896=ORIENTED_EDGE('',*,*,#707,.F.);
#897=ORIENTED_EDGE('',*,*,#708,.T.);
#898=ORIENTED_EDGE('',*,*,#702,.F.);
#899=ORIENTED_EDGE('',*,*,#709,.F.);
#900=ORIENTED_EDGE('',*,*,#710,.F.);
#901=ORIENTED_EDGE('',*,*,#705,.T.);
#902=ORIENTED_EDGE('',*,*,#681,.T.);
#903=ORIENTED_EDGE('',*,*,#711,.T.);
#904=ORIENTED_EDGE('',*,*,#712,.F.);
#905=ORIENTED_EDGE('',*,*,#713,.F.);
#906=ORIENTED_EDGE('',*,*,#689,.T.);
#907=ORIENTED_EDGE('',*,*,#684,.F.);
#908=ORIENTED_EDGE('',*,*,#688,.F.);
#909=ORIENTED_EDGE('',*,*,#714,.F.);
#910=ORIENTED_EDGE('',*,*,#711,.F.);
#911=ORIENTED_EDGE('',*,*,#701,.T.);
#912=ORIENTED_EDGE('',*,*,#715,.T.);
#913=ORIENTED_EDGE('',*,*,#716,.F.);
#914=ORIENTED_EDGE('',*,*,#717,.F.);
#915=ORIENTED_EDGE('',*,*,#709,.T.);
#916=ORIENTED_EDGE('',*,*,#704,.F.);
#917=ORIENTED_EDGE('',*,*,#708,.F.);
#918=ORIENTED_EDGE('',*,*,#718,.F.);
#919=ORIENTED_EDGE('',*,*,#715,.F.);
#920=ORIENTED_EDGE('',*,*,#691,.T.);
#921=ORIENTED_EDGE('',*,*,#719,.T.);
#922=ORIENTED_EDGE('',*,*,#720,.F.);
#923=ORIENTED_EDGE('',*,*,#721,.F.);
#924=ORIENTED_EDGE('',*,*,#699,.T.);
#925=ORIENTED_EDGE('',*,*,#694,.F.);
#926=ORIENTED_EDGE('',*,*,#698,.F.);
#927=ORIENTED_EDGE('',*,*,#722,.F.);
#928=ORIENTED_EDGE('',*,*,#719,.F.);
#929=ORIENTED_EDGE('',*,*,#671,.T.);
#930=ORIENTED_EDGE('',*,*,#723,.T.);
#931=ORIENTED_EDGE('',*,*,#724,.F.);
#932=ORIENTED_EDGE('',*,*,#725,.F.);
#933=ORIENTED_EDGE('',*,*,#679,.T.);
#934=ORIENTED_EDGE('',*,*,#674,.F.);
#935=ORIENTED_EDGE('',*,*,#678,.F.);
#936=ORIENTED_EDGE('',*,*,#726,.F.);
#937=ORIENTED_EDGE('',*,*,#723,.F.);
#938=ORIENTED_EDGE('',*,*,#727,.F.);
#939=ORIENTED_EDGE('',*,*,#728,.F.);
#940=ORIENTED_EDGE('',*,*,#729,.T.);
#941=ORIENTED_EDGE('',*,*,#730,.F.);
#942=ORIENTED_EDGE('',*,*,#731,.F.);
#943=ORIENTED_EDGE('',*,*,#732,.F.);
#944=ORIENTED_EDGE('',*,*,#733,.T.);
#945=ORIENTED_EDGE('',*,*,#734,.F.);
#946=ORIENTED_EDGE('',*,*,#735,.T.);
#947=ORIENTED_EDGE('',*,*,#736,.T.);
#948=ORIENTED_EDGE('',*,*,#737,.T.);
#949=ORIENTED_EDGE('',*,*,#738,.T.);
#950=ORIENTED_EDGE('',*,*,#739,.T.);
#951=ORIENTED_EDGE('',*,*,#740,.T.);
#952=ORIENTED_EDGE('',*,*,#741,.T.);
#953=ORIENTED_EDGE('',*,*,#742,.T.);
#954=ORIENTED_EDGE('',*,*,#743,.T.);
#955=ORIENTED_EDGE('',*,*,#744,.T.);
#956=ORIENTED_EDGE('',*,*,#745,.T.);
#957=ORIENTED_EDGE('',*,*,#746,.T.);
#958=ORIENTED_EDGE('',*,*,#686,.T.);
#959=ORIENTED_EDGE('',*,*,#690,.T.);
#960=ORIENTED_EDGE('',*,*,#713,.T.);
#961=ORIENTED_EDGE('',*,*,#747,.T.);
#962=ORIENTED_EDGE('',*,*,#748,.T.);
#963=ORIENTED_EDGE('',*,*,#749,.T.);
#964=ORIENTED_EDGE('',*,*,#696,.T.);
#965=ORIENTED_EDGE('',*,*,#700,.T.);
#966=ORIENTED_EDGE('',*,*,#721,.T.);
#967=ORIENTED_EDGE('',*,*,#750,.T.);
#968=ORIENTED_EDGE('',*,*,#751,.T.);
#969=ORIENTED_EDGE('',*,*,#752,.T.);
#970=ORIENTED_EDGE('',*,*,#706,.T.);
#971=ORIENTED_EDGE('',*,*,#710,.T.);
#972=ORIENTED_EDGE('',*,*,#717,.T.);
#973=ORIENTED_EDGE('',*,*,#753,.T.);
#974=ORIENTED_EDGE('',*,*,#754,.T.);
#975=ORIENTED_EDGE('',*,*,#755,.T.);
#976=ORIENTED_EDGE('',*,*,#676,.T.);
#977=ORIENTED_EDGE('',*,*,#680,.T.);
#978=ORIENTED_EDGE('',*,*,#725,.T.);
#979=ORIENTED_EDGE('',*,*,#756,.T.);
#980=ORIENTED_EDGE('',*,*,#757,.T.);
#981=ORIENTED_EDGE('',*,*,#758,.T.);
#982=ORIENTED_EDGE('',*,*,#735,.F.);
#983=ORIENTED_EDGE('',*,*,#759,.T.);
#984=ORIENTED_EDGE('',*,*,#760,.F.);
#985=ORIENTED_EDGE('',*,*,#759,.F.);
#986=ORIENTED_EDGE('',*,*,#736,.F.);
#987=ORIENTED_EDGE('',*,*,#761,.T.);
#988=ORIENTED_EDGE('',*,*,#762,.F.);
#989=ORIENTED_EDGE('',*,*,#761,.F.);
#990=ORIENTED_EDGE('',*,*,#737,.F.);
#991=ORIENTED_EDGE('',*,*,#763,.T.);
#992=ORIENTED_EDGE('',*,*,#764,.F.);
#993=ORIENTED_EDGE('',*,*,#763,.F.);
#994=ORIENTED_EDGE('',*,*,#738,.F.);
#995=ORIENTED_EDGE('',*,*,#765,.T.);
#996=ORIENTED_EDGE('',*,*,#766,.F.);
#997=ORIENTED_EDGE('',*,*,#765,.F.);
#998=ORIENTED_EDGE('',*,*,#739,.F.);
#999=ORIENTED_EDGE('',*,*,#767,.T.);
#1000=ORIENTED_EDGE('',*,*,#768,.F.);
#1001=ORIENTED_EDGE('',*,*,#767,.F.);
#1002=ORIENTED_EDGE('',*,*,#740,.F.);
#1003=ORIENTED_EDGE('',*,*,#769,.T.);
#1004=ORIENTED_EDGE('',*,*,#770,.F.);
#1005=ORIENTED_EDGE('',*,*,#769,.F.);
#1006=ORIENTED_EDGE('',*,*,#741,.F.);
#1007=ORIENTED_EDGE('',*,*,#771,.T.);
#1008=ORIENTED_EDGE('',*,*,#772,.F.);
#1009=ORIENTED_EDGE('',*,*,#771,.F.);
#1010=ORIENTED_EDGE('',*,*,#742,.F.);
#1011=ORIENTED_EDGE('',*,*,#773,.T.);
#1012=ORIENTED_EDGE('',*,*,#774,.F.);
#1013=ORIENTED_EDGE('',*,*,#773,.F.);
#1014=ORIENTED_EDGE('',*,*,#775,.F.);
#1015=ORIENTED_EDGE('',*,*,#776,.F.);
#1016=ORIENTED_EDGE('',*,*,#777,.F.);
#1017=ORIENTED_EDGE('',*,*,#778,.T.);
#1018=ORIENTED_EDGE('',*,*,#779,.F.);
#1019=ORIENTED_EDGE('',*,*,#780,.F.);
#1020=ORIENTED_EDGE('',*,*,#781,.F.);
#1021=ORIENTED_EDGE('',*,*,#782,.T.);
#1022=ORIENTED_EDGE('',*,*,#760,.T.);
#1023=ORIENTED_EDGE('',*,*,#762,.T.);
#1024=ORIENTED_EDGE('',*,*,#764,.T.);
#1025=ORIENTED_EDGE('',*,*,#766,.T.);
#1026=ORIENTED_EDGE('',*,*,#768,.T.);
#1027=ORIENTED_EDGE('',*,*,#770,.T.);
#1028=ORIENTED_EDGE('',*,*,#772,.T.);
#1029=ORIENTED_EDGE('',*,*,#774,.T.);
#1030=ORIENTED_EDGE('',*,*,#783,.T.);
#1031=ORIENTED_EDGE('',*,*,#784,.T.);
#1032=ORIENTED_EDGE('',*,*,#785,.T.);
#1033=ORIENTED_EDGE('',*,*,#786,.T.);
#1034=ORIENTED_EDGE('',*,*,#787,.T.);
#1035=ORIENTED_EDGE('',*,*,#788,.T.);
#1036=ORIENTED_EDGE('',*,*,#789,.T.);
#1037=ORIENTED_EDGE('',*,*,#790,.T.);
#1038=ORIENTED_EDGE('',*,*,#791,.F.);
#1039=ORIENTED_EDGE('',*,*,#792,.F.);
#1040=ORIENTED_EDGE('',*,*,#793,.F.);
#1041=ORIENTED_EDGE('',*,*,#794,.F.);
#1042=ORIENTED_EDGE('',*,*,#795,.F.);
#1043=ORIENTED_EDGE('',*,*,#796,.F.);
#1044=ORIENTED_EDGE('',*,*,#797,.F.);
#1045=ORIENTED_EDGE('',*,*,#798,.F.);
#1046=ORIENTED_EDGE('',*,*,#799,.T.);
#1047=ORIENTED_EDGE('',*,*,#800,.T.);
#1048=ORIENTED_EDGE('',*,*,#801,.T.);
#1049=ORIENTED_EDGE('',*,*,#797,.T.);
#1050=ORIENTED_EDGE('',*,*,#802,.F.);
#1051=ORIENTED_EDGE('',*,*,#803,.F.);
#1052=ORIENTED_EDGE('',*,*,#804,.T.);
#1053=ORIENTED_EDGE('',*,*,#796,.T.);
#1054=ORIENTED_EDGE('',*,*,#805,.F.);
#1055=ORIENTED_EDGE('',*,*,#806,.F.);
#1056=ORIENTED_EDGE('',*,*,#802,.T.);
#1057=ORIENTED_EDGE('',*,*,#743,.F.);
#1058=ORIENTED_EDGE('',*,*,#807,.T.);
#1059=ORIENTED_EDGE('',*,*,#665,.T.);
#1060=ORIENTED_EDGE('',*,*,#808,.F.);
#1061=ORIENTED_EDGE('',*,*,#746,.F.);
#1062=ORIENTED_EDGE('',*,*,#809,.T.);
#1063=ORIENTED_EDGE('',*,*,#666,.T.);
#1064=ORIENTED_EDGE('',*,*,#807,.F.);
#1065=ORIENTED_EDGE('',*,*,#745,.F.);
#1066=ORIENTED_EDGE('',*,*,#810,.T.);
#1067=ORIENTED_EDGE('',*,*,#667,.T.);
#1068=ORIENTED_EDGE('',*,*,#809,.F.);
#1069=ORIENTED_EDGE('',*,*,#744,.F.);
#1070=ORIENTED_EDGE('',*,*,#808,.T.);
#1071=ORIENTED_EDGE('',*,*,#664,.T.);
#1072=ORIENTED_EDGE('',*,*,#810,.F.);
#1073=ORIENTED_EDGE('',*,*,#811,.T.);
#1074=ORIENTED_EDGE('',*,*,#812,.T.);
#1075=ORIENTED_EDGE('',*,*,#813,.T.);
#1076=ORIENTED_EDGE('',*,*,#727,.T.);
#1077=ORIENTED_EDGE('',*,*,#811,.F.);
#1078=ORIENTED_EDGE('',*,*,#734,.T.);
#1079=ORIENTED_EDGE('',*,*,#814,.T.);
#1080=ORIENTED_EDGE('',*,*,#777,.T.);
#1081=ORIENTED_EDGE('',*,*,#815,.T.);
#1082=ORIENTED_EDGE('',*,*,#816,.T.);
#1083=ORIENTED_EDGE('',*,*,#817,.T.);
#1084=ORIENTED_EDGE('',*,*,#818,.T.);
#1085=ORIENTED_EDGE('',*,*,#731,.T.);
#1086=ORIENTED_EDGE('',*,*,#816,.F.);
#1087=ORIENTED_EDGE('',*,*,#730,.T.);
#1088=ORIENTED_EDGE('',*,*,#819,.T.);
#1089=ORIENTED_EDGE('',*,*,#781,.T.);
#1090=ORIENTED_EDGE('',*,*,#820,.T.);
#1091=ORIENTED_EDGE('',*,*,#821,.T.);
#1092=ORIENTED_EDGE('',*,*,#791,.T.);
#1093=ORIENTED_EDGE('',*,*,#822,.T.);
#1094=ORIENTED_EDGE('',*,*,#806,.T.);
#1095=ORIENTED_EDGE('',*,*,#823,.T.);
#1096=ORIENTED_EDGE('',*,*,#792,.T.);
#1097=ORIENTED_EDGE('',*,*,#821,.F.);
#1098=ORIENTED_EDGE('',*,*,#824,.T.);
#1099=ORIENTED_EDGE('',*,*,#825,.T.);
#1100=ORIENTED_EDGE('',*,*,#793,.T.);
#1101=ORIENTED_EDGE('',*,*,#823,.F.);
#1102=ORIENTED_EDGE('',*,*,#826,.T.);
#1103=ORIENTED_EDGE('',*,*,#822,.F.);
#1104=ORIENTED_EDGE('',*,*,#794,.T.);
#1105=ORIENTED_EDGE('',*,*,#825,.F.);
#1106=ORIENTED_EDGE('',*,*,#803,.T.);
#1107=ORIENTED_EDGE('',*,*,#795,.T.);
#1108=ORIENTED_EDGE('',*,*,#827,.F.);
#1109=ORIENTED_EDGE('',*,*,#824,.F.);
#1110=ORIENTED_EDGE('',*,*,#805,.T.);
#1111=ORIENTED_EDGE('',*,*,#798,.T.);
#1112=ORIENTED_EDGE('',*,*,#804,.F.);
#1113=ORIENTED_EDGE('',*,*,#826,.F.);
#1114=ORIENTED_EDGE('',*,*,#827,.T.);
#1115=ORIENTED_EDGE('',*,*,#813,.F.);
#1116=ORIENTED_EDGE('',*,*,#828,.T.);
#1117=ORIENTED_EDGE('',*,*,#775,.T.);
#1118=ORIENTED_EDGE('',*,*,#829,.T.);
#1119=ORIENTED_EDGE('',*,*,#728,.T.);
#1120=ORIENTED_EDGE('',*,*,#829,.F.);
#1121=ORIENTED_EDGE('',*,*,#782,.F.);
#1122=ORIENTED_EDGE('',*,*,#819,.F.);
#1123=ORIENTED_EDGE('',*,*,#729,.F.);
#1124=ORIENTED_EDGE('',*,*,#814,.F.);
#1125=ORIENTED_EDGE('',*,*,#733,.F.);
#1126=ORIENTED_EDGE('',*,*,#830,.F.);
#1127=ORIENTED_EDGE('',*,*,#778,.F.);
#1128=ORIENTED_EDGE('',*,*,#818,.F.);
#1129=ORIENTED_EDGE('',*,*,#831,.T.);
#1130=ORIENTED_EDGE('',*,*,#779,.T.);
#1131=ORIENTED_EDGE('',*,*,#830,.T.);
#1132=ORIENTED_EDGE('',*,*,#732,.T.);
#1133=ORIENTED_EDGE('',*,*,#812,.F.);
#1134=ORIENTED_EDGE('',*,*,#815,.F.);
#1135=ORIENTED_EDGE('',*,*,#776,.T.);
#1136=ORIENTED_EDGE('',*,*,#828,.F.);
#1137=ORIENTED_EDGE('',*,*,#817,.F.);
#1138=ORIENTED_EDGE('',*,*,#820,.F.);
#1139=ORIENTED_EDGE('',*,*,#780,.T.);
#1140=ORIENTED_EDGE('',*,*,#831,.F.);
#1141=ORIENTED_EDGE('',*,*,#669,.T.);
#1142=ORIENTED_EDGE('',*,*,#832,.T.);
#1143=ORIENTED_EDGE('',*,*,#801,.F.);
#1144=ORIENTED_EDGE('',*,*,#832,.F.);
#1145=ORIENTED_EDGE('',*,*,#670,.T.);
#1146=ORIENTED_EDGE('',*,*,#833,.T.);
#1147=ORIENTED_EDGE('',*,*,#800,.F.);
#1148=ORIENTED_EDGE('',*,*,#833,.F.);
#1149=ORIENTED_EDGE('',*,*,#668,.T.);
#1150=ORIENTED_EDGE('',*,*,#834,.T.);
#1151=ORIENTED_EDGE('',*,*,#799,.F.);
#1152=ORIENTED_EDGE('',*,*,#834,.F.);
#1153=ORIENTED_EDGE('',*,*,#748,.F.);
#1154=ORIENTED_EDGE('',*,*,#835,.F.);
#1155=ORIENTED_EDGE('',*,*,#789,.F.);
#1156=ORIENTED_EDGE('',*,*,#836,.T.);
#1157=ORIENTED_EDGE('',*,*,#697,.T.);
#1158=ORIENTED_EDGE('',*,*,#749,.F.);
#1159=ORIENTED_EDGE('',*,*,#836,.F.);
#1160=ORIENTED_EDGE('',*,*,#788,.F.);
#1161=ORIENTED_EDGE('',*,*,#837,.T.);
#1162=ORIENTED_EDGE('',*,*,#750,.F.);
#1163=ORIENTED_EDGE('',*,*,#720,.T.);
#1164=ORIENTED_EDGE('',*,*,#722,.T.);
#1165=ORIENTED_EDGE('',*,*,#751,.F.);
#1166=ORIENTED_EDGE('',*,*,#837,.F.);
#1167=ORIENTED_EDGE('',*,*,#787,.F.);
#1168=ORIENTED_EDGE('',*,*,#838,.T.);
#1169=ORIENTED_EDGE('',*,*,#687,.T.);
#1170=ORIENTED_EDGE('',*,*,#752,.F.);
#1171=ORIENTED_EDGE('',*,*,#838,.F.);
#1172=ORIENTED_EDGE('',*,*,#790,.F.);
#1173=ORIENTED_EDGE('',*,*,#835,.T.);
#1174=ORIENTED_EDGE('',*,*,#747,.F.);
#1175=ORIENTED_EDGE('',*,*,#712,.T.);
#1176=ORIENTED_EDGE('',*,*,#714,.T.);
#1177=ORIENTED_EDGE('',*,*,#677,.T.);
#1178=ORIENTED_EDGE('',*,*,#755,.F.);
#1179=ORIENTED_EDGE('',*,*,#839,.F.);
#1180=ORIENTED_EDGE('',*,*,#785,.F.);
#1181=ORIENTED_EDGE('',*,*,#840,.T.);
#1182=ORIENTED_EDGE('',*,*,#756,.F.);
#1183=ORIENTED_EDGE('',*,*,#724,.T.);
#1184=ORIENTED_EDGE('',*,*,#726,.T.);
#1185=ORIENTED_EDGE('',*,*,#757,.F.);
#1186=ORIENTED_EDGE('',*,*,#840,.F.);
#1187=ORIENTED_EDGE('',*,*,#784,.F.);
#1188=ORIENTED_EDGE('',*,*,#841,.T.);
#1189=ORIENTED_EDGE('',*,*,#707,.T.);
#1190=ORIENTED_EDGE('',*,*,#758,.F.);
#1191=ORIENTED_EDGE('',*,*,#841,.F.);
#1192=ORIENTED_EDGE('',*,*,#783,.F.);
#1193=ORIENTED_EDGE('',*,*,#842,.T.);
#1194=ORIENTED_EDGE('',*,*,#753,.F.);
#1195=ORIENTED_EDGE('',*,*,#716,.T.);
#1196=ORIENTED_EDGE('',*,*,#718,.T.);
#1197=ORIENTED_EDGE('',*,*,#754,.F.);
#1198=ORIENTED_EDGE('',*,*,#842,.F.);
#1199=ORIENTED_EDGE('',*,*,#786,.F.);
#1200=ORIENTED_EDGE('',*,*,#839,.T.);
#1201=PLANE('',#1330);
#1202=PLANE('',#1334);
#1203=PLANE('',#1335);
#1204=PLANE('',#1336);
#1205=PLANE('',#1337);
#1206=PLANE('',#1338);
#1207=PLANE('',#1339);
#1208=PLANE('',#1340);
#1209=PLANE('',#1341);
#1210=PLANE('',#1342);
#1211=PLANE('',#1343);
#1212=PLANE('',#1344);
#1213=PLANE('',#1345);
#1214=PLANE('',#1346);
#1215=PLANE('',#1347);
#1216=PLANE('',#1348);
#1217=PLANE('',#1349);
#1218=PLANE('',#1350);
#1219=PLANE('',#1351);
#1220=PLANE('',#1352);
#1221=PLANE('',#1353);
#1222=PLANE('',#1354);
#1223=PLANE('',#1379);
#1224=PLANE('',#1382);
#1225=PLANE('',#1390);
#1226=PLANE('',#1391);
#1227=PLANE('',#1392);
#1228=PLANE('',#1393);
#1229=PLANE('',#1394);
#1230=PLANE('',#1395);
#1231=PLANE('',#1396);
#1232=PLANE('',#1397);
#1233=PLANE('',#1398);
#1234=PLANE('',#1399);
#1235=PLANE('',#1402);
#1236=PLANE('',#1405);
#1237=PLANE('',#1406);
#1238=PLANE('',#1407);
#1239=PLANE('',#1408);
#1240=PLANE('',#1409);
#1241=PLANE('',#1410);
#1242=PLANE('',#1411);
#1243=PLANE('',#1415);
#1244=PLANE('',#1416);
#1245=PLANE('',#1417);
#1246=PLANE('',#1418);
#1247=PLANE('',#1419);
#1248=PLANE('',#1420);
#1249=PLANE('',#1421);
#1250=PLANE('',#1422);
#1251=ADVANCED_FACE('',(#86,#30,#31,#32),#1201,.F.);
#1252=ADVANCED_FACE('',(#87),#1202,.T.);
#1253=ADVANCED_FACE('',(#88),#1203,.F.);
#1254=ADVANCED_FACE('',(#89),#1204,.F.);
#1255=ADVANCED_FACE('',(#90),#1205,.T.);
#1256=ADVANCED_FACE('',(#91),#1206,.F.);
#1257=ADVANCED_FACE('',(#92),#1207,.F.);
#1258=ADVANCED_FACE('',(#93),#1208,.T.);
#1259=ADVANCED_FACE('',(#94),#1209,.F.);
#1260=ADVANCED_FACE('',(#95),#1210,.F.);
#1261=ADVANCED_FACE('',(#96),#1211,.T.);
#1262=ADVANCED_FACE('',(#97),#1212,.F.);
#1263=ADVANCED_FACE('',(#98),#1213,.F.);
#1264=ADVANCED_FACE('',(#99),#1214,.F.);
#1265=ADVANCED_FACE('',(#100),#1215,.F.);
#1266=ADVANCED_FACE('',(#101),#1216,.F.);
#1267=ADVANCED_FACE('',(#102),#1217,.F.);
#1268=ADVANCED_FACE('',(#103),#1218,.F.);
#1269=ADVANCED_FACE('',(#104),#1219,.F.);
#1270=ADVANCED_FACE('',(#105),#1220,.F.);
#1271=ADVANCED_FACE('',(#106),#1221,.F.);
#1272=ADVANCED_FACE('',(#107,#33,#34,#35,#36,#37,#38,#39,#40,#41,#42,#43),
#1222,.T.);
#1273=ADVANCED_FACE('',(#108),#17,.F.);
#1274=ADVANCED_FACE('',(#109),#18,.F.);
#1275=ADVANCED_FACE('',(#110),#19,.F.);
#1276=ADVANCED_FACE('',(#111),#20,.F.);
#1277=ADVANCED_FACE('',(#112),#21,.F.);
#1278=ADVANCED_FACE('',(#113),#22,.F.);
#1279=ADVANCED_FACE('',(#114),#23,.F.);
#1280=ADVANCED_FACE('',(#115),#24,.F.);
#1281=ADVANCED_FACE('',(#116,#44,#45,#46,#47,#48,#49,#50,#51,#52,#53,#54),
#1223,.F.);
#1282=ADVANCED_FACE('',(#117,#55,#56,#57),#1224,.T.);
#1283=ADVANCED_FACE('',(#118),#25,.F.);
#1284=ADVANCED_FACE('',(#119),#1225,.F.);
#1285=ADVANCED_FACE('',(#120),#1226,.F.);
#1286=ADVANCED_FACE('',(#121),#1227,.F.);
#1287=ADVANCED_FACE('',(#122),#1228,.F.);
#1288=ADVANCED_FACE('',(#123),#1229,.F.);
#1289=ADVANCED_FACE('',(#124),#1230,.T.);
#1290=ADVANCED_FACE('',(#125),#1231,.T.);
#1291=ADVANCED_FACE('',(#126),#1232,.T.);
#1292=ADVANCED_FACE('',(#127),#1233,.T.);
#1293=ADVANCED_FACE('',(#128),#1234,.T.);
#1294=ADVANCED_FACE('',(#129),#15,.F.);
#1295=ADVANCED_FACE('',(#130),#1235,.T.);
#1296=ADVANCED_FACE('',(#131),#16,.F.);
#1297=ADVANCED_FACE('',(#132),#26,.F.);
#1298=ADVANCED_FACE('',(#133),#1236,.F.);
#1299=ADVANCED_FACE('',(#134),#1237,.T.);
#1300=ADVANCED_FACE('',(#135),#1238,.F.);
#1301=ADVANCED_FACE('',(#136),#1239,.F.);
#1302=ADVANCED_FACE('',(#137),#1240,.T.);
#1303=ADVANCED_FACE('',(#138),#1241,.T.);
#1304=ADVANCED_FACE('',(#139),#1242,.T.);
#1305=ADVANCED_FACE('',(#140),#27,.F.);
#1306=ADVANCED_FACE('',(#141),#28,.F.);
#1307=ADVANCED_FACE('',(#142),#29,.F.);
#1308=ADVANCED_FACE('',(#143),#1243,.F.);
#1309=ADVANCED_FACE('',(#144),#1244,.F.);
#1310=ADVANCED_FACE('',(#145),#1245,.F.);
#1311=ADVANCED_FACE('',(#146),#1246,.F.);
#1312=ADVANCED_FACE('',(#147),#1247,.F.);
#1313=ADVANCED_FACE('',(#148),#1248,.F.);
#1314=ADVANCED_FACE('',(#149),#1249,.F.);
#1315=ADVANCED_FACE('',(#150),#1250,.F.);
#1316=CLOSED_SHELL('',(#1251,#1252,#1253,#1254,#1255,#1256,#1257,#1258,
#1259,#1260,#1261,#1262,#1263,#1264,#1265,#1266,#1267,#1268,#1269,#1270,
#1271,#1272,#1273,#1274,#1275,#1276,#1277,#1278,#1279,#1280,#1281,#1282,
#1283,#1284,#1285,#1286,#1287,#1288,#1289,#1290,#1291,#1292,#1293,#1294,
#1295,#1296,#1297,#1298,#1299,#1300,#1301,#1302,#1303,#1304,#1305,#1306,
#1307,#1308,#1309,#1310,#1311,#1312,#1313,#1314,#1315));
#1317=DERIVED_UNIT_ELEMENT(#1319,1.);
#1318=DERIVED_UNIT_ELEMENT(#2130,-3.);
#1319=(
MASS_UNIT()
NAMED_UNIT(*)
SI_UNIT(.KILO.,.GRAM.)
);
#1320=DERIVED_UNIT((#1317,#1318));
#1321=MEASURE_REPRESENTATION_ITEM('density measure',
POSITIVE_RATIO_MEASURE(7850.),#1320);
#1322=PROPERTY_DEFINITION_REPRESENTATION(#1327,#1324);
#1323=PROPERTY_DEFINITION_REPRESENTATION(#1328,#1325);
#1324=REPRESENTATION('material name',(#1326),#2127);
#1325=REPRESENTATION('density',(#1321),#2127);
#1326=DESCRIPTIVE_REPRESENTATION_ITEM('Steel','Steel');
#1327=PROPERTY_DEFINITION('material property','material name',#2137);
#1328=PROPERTY_DEFINITION('material property','density of part',#2137);
#1329=AXIS2_PLACEMENT_3D('',#1762,#1423,#1424);
#1330=AXIS2_PLACEMENT_3D('',#1763,#1425,#1426);
#1331=AXIS2_PLACEMENT_3D('',#1773,#1431,#1432);
#1332=AXIS2_PLACEMENT_3D('',#1775,#1433,#1434);
#1333=AXIS2_PLACEMENT_3D('',#1777,#1435,#1436);
#1334=AXIS2_PLACEMENT_3D('',#1778,#1437,#1438);
#1335=AXIS2_PLACEMENT_3D('',#1787,#1443,#1444);
#1336=AXIS2_PLACEMENT_3D('',#1795,#1449,#1450);
#1337=AXIS2_PLACEMENT_3D('',#1799,#1453,#1454);
#1338=AXIS2_PLACEMENT_3D('',#1808,#1459,#1460);
#1339=AXIS2_PLACEMENT_3D('',#1816,#1465,#1466);
#1340=AXIS2_PLACEMENT_3D('',#1820,#1469,#1470);
#1341=AXIS2_PLACEMENT_3D('',#1829,#1475,#1476);
#1342=AXIS2_PLACEMENT_3D('',#1837,#1481,#1482);
#1343=AXIS2_PLACEMENT_3D('',#1841,#1485,#1486);
#1344=AXIS2_PLACEMENT_3D('',#1850,#1491,#1492);
#1345=AXIS2_PLACEMENT_3D('',#1858,#1497,#1498);
#1346=AXIS2_PLACEMENT_3D('',#1862,#1501,#1502);
#1347=AXIS2_PLACEMENT_3D('',#1868,#1506,#1507);
#1348=AXIS2_PLACEMENT_3D('',#1870,#1509,#1510);
#1349=AXIS2_PLACEMENT_3D('',#1876,#1514,#1515);
#1350=AXIS2_PLACEMENT_3D('',#1878,#1517,#1518);
#1351=AXIS2_PLACEMENT_3D('',#1884,#1522,#1523);
#1352=AXIS2_PLACEMENT_3D('',#1886,#1525,#1526);
#1353=AXIS2_PLACEMENT_3D('',#1892,#1530,#1531);
#1354=AXIS2_PLACEMENT_3D('',#1894,#1533,#1534);
#1355=AXIS2_PLACEMENT_3D('',#1912,#1543,#1544);
#1356=AXIS2_PLACEMENT_3D('',#1914,#1545,#1546);
#1357=AXIS2_PLACEMENT_3D('',#1916,#1547,#1548);
#1358=AXIS2_PLACEMENT_3D('',#1918,#1549,#1550);
#1359=AXIS2_PLACEMENT_3D('',#1920,#1551,#1552);
#1360=AXIS2_PLACEMENT_3D('',#1922,#1553,#1554);
#1361=AXIS2_PLACEMENT_3D('',#1924,#1555,#1556);
#1362=AXIS2_PLACEMENT_3D('',#1926,#1557,#1558);
#1363=AXIS2_PLACEMENT_3D('',#1955,#1575,#1576);
#1364=AXIS2_PLACEMENT_3D('',#1958,#1578,#1579);
#1365=AXIS2_PLACEMENT_3D('',#1959,#1580,#1581);
#1366=AXIS2_PLACEMENT_3D('',#1962,#1583,#1584);
#1367=AXIS2_PLACEMENT_3D('',#1963,#1585,#1586);
#1368=AXIS2_PLACEMENT_3D('',#1966,#1588,#1589);
#1369=AXIS2_PLACEMENT_3D('',#1967,#1590,#1591);
#1370=AXIS2_PLACEMENT_3D('',#1970,#1593,#1594);
#1371=AXIS2_PLACEMENT_3D('',#1971,#1595,#1596);
#1372=AXIS2_PLACEMENT_3D('',#1974,#1598,#1599);
#1373=AXIS2_PLACEMENT_3D('',#1975,#1600,#1601);
#1374=AXIS2_PLACEMENT_3D('',#1978,#1603,#1604);
#1375=AXIS2_PLACEMENT_3D('',#1979,#1605,#1606);
#1376=AXIS2_PLACEMENT_3D('',#1982,#1608,#1609);
#1377=AXIS2_PLACEMENT_3D('',#1983,#1610,#1611);
#1378=AXIS2_PLACEMENT_3D('',#1986,#1613,#1614);
#1379=AXIS2_PLACEMENT_3D('',#1987,#1615,#1616);
#1380=AXIS2_PLACEMENT_3D('',#2024,#1634,#1635);
#1381=AXIS2_PLACEMENT_3D('',#2027,#1637,#1638);
#1382=AXIS2_PLACEMENT_3D('',#2028,#1639,#1640);
#1383=AXIS2_PLACEMENT_3D('',#2031,#1641,#1642);
#1384=AXIS2_PLACEMENT_3D('',#2035,#1644,#1645);
#1385=AXIS2_PLACEMENT_3D('',#2038,#1647,#1648);
#1386=AXIS2_PLACEMENT_3D('',#2040,#1649,#1650);
#1387=AXIS2_PLACEMENT_3D('',#2042,#1651,#1652);
#1388=AXIS2_PLACEMENT_3D('',#2043,#1653,#1654);
#1389=AXIS2_PLACEMENT_3D('',#2047,#1656,#1657);
#1390=AXIS2_PLACEMENT_3D('',#2049,#1659,#1660);
#1391=AXIS2_PLACEMENT_3D('',#2053,#1663,#1664);
#1392=AXIS2_PLACEMENT_3D('',#2056,#1667,#1668);
#1393=AXIS2_PLACEMENT_3D('',#2058,#1670,#1671);
#1394=AXIS2_PLACEMENT_3D('',#2060,#1673,#1674);
#1395=AXIS2_PLACEMENT_3D('',#2061,#1675,#1676);
#1396=AXIS2_PLACEMENT_3D('',#2067,#1680,#1681);
#1397=AXIS2_PLACEMENT_3D('',#2070,#1684,#1685);
#1398=AXIS2_PLACEMENT_3D('',#2076,#1689,#1690);
#1399=AXIS2_PLACEMENT_3D('',#2079,#1693,#1694);
#1400=AXIS2_PLACEMENT_3D('',#2082,#1697,#1698);
#1401=AXIS2_PLACEMENT_3D('',#2085,#1700,#1701);
#1402=AXIS2_PLACEMENT_3D('',#2086,#1702,#1703);
#1403=AXIS2_PLACEMENT_3D('',#2089,#1706,#1707);
#1404=AXIS2_PLACEMENT_3D('',#2090,#1708,#1709);
#1405=AXIS2_PLACEMENT_3D('',#2092,#1711,#1712);
#1406=AXIS2_PLACEMENT_3D('',#2093,#1713,#1714);
#1407=AXIS2_PLACEMENT_3D('',#2096,#1717,#1718);
#1408=AXIS2_PLACEMENT_3D('',#2097,#1719,#1720);
#1409=AXIS2_PLACEMENT_3D('',#2099,#1722,#1723);
#1410=AXIS2_PLACEMENT_3D('',#2101,#1725,#1726);
#1411=AXIS2_PLACEMENT_3D('',#2102,#1727,#1728);
#1412=AXIS2_PLACEMENT_3D('',#2103,#1729,#1730);
#1413=AXIS2_PLACEMENT_3D('',#2105,#1732,#1733);
#1414=AXIS2_PLACEMENT_3D('',#2107,#1735,#1736);
#1415=AXIS2_PLACEMENT_3D('',#2109,#1738,#1739);
#1416=AXIS2_PLACEMENT_3D('',#2112,#1742,#1743);
#1417=AXIS2_PLACEMENT_3D('',#2114,#1745,#1746);
#1418=AXIS2_PLACEMENT_3D('',#2116,#1748,#1749);
#1419=AXIS2_PLACEMENT_3D('',#2117,#1750,#1751);
#1420=AXIS2_PLACEMENT_3D('',#2120,#1754,#1755);
#1421=AXIS2_PLACEMENT_3D('',#2122,#1757,#1758);
#1422=AXIS2_PLACEMENT_3D('',#2124,#1760,#1761);
#1423=DIRECTION('axis',(0.,0.,1.));
#1424=DIRECTION('refdir',(1.,0.,0.));
#1425=DIRECTION('center_axis',(1.,0.,0.));
#1426=DIRECTION('ref_axis',(0.,1.,0.));
#1427=DIRECTION('',(0.,1.,0.));
#1428=DIRECTION('',(0.,0.,-1.));
#1429=DIRECTION('',(0.,-1.,0.));
#1430=DIRECTION('',(0.,0.,1.));
#1431=DIRECTION('center_axis',(-1.,0.,0.));
#1432=DIRECTION('ref_axis',(0.,1.,0.));
#1433=DIRECTION('center_axis',(-1.,0.,0.));
#1434=DIRECTION('ref_axis',(0.,1.,0.));
#1435=DIRECTION('center_axis',(-1.,0.,0.));
#1436=DIRECTION('ref_axis',(0.,1.,0.));
#1437=DIRECTION('center_axis',(-0.707106781186547,0.707106781186548,-6.33090308397284E-27));
#1438=DIRECTION('ref_axis',(-8.95324900342404E-27,0.,1.));
#1439=DIRECTION('',(0.707106781186548,0.707106781186547,-6.33090564774767E-27));
#1440=DIRECTION('',(0.,8.95324900342403E-27,1.));
#1441=DIRECTION('',(-0.707106781186548,-0.707106781186547,6.33090564774767E-27));
#1442=DIRECTION('',(0.,-8.95324900342403E-27,-1.));
#1443=DIRECTION('center_axis',(0.,8.95325262914919E-27,1.));
#1444=DIRECTION('ref_axis',(-5.89805981832115E-17,-1.,8.95325262914919E-27));
#1445=DIRECTION('',(1.,0.,0.));
#1446=DIRECTION('',(0.,-1.,8.95325262914919E-27));
#1447=DIRECTION('',(-1.,0.,0.));
#1448=DIRECTION('',(-5.89805981832115E-17,-1.,8.95325262914919E-27));
#1449=DIRECTION('center_axis',(0.,-1.,8.95324900342403E-27));
#1450=DIRECTION('ref_axis',(-6.1473183791847E-17,-8.95324900342403E-27,
-1.));
#1451=DIRECTION('',(1.,0.,0.));
#1452=DIRECTION('',(0.,-8.95324900342403E-27,-1.));
#1453=DIRECTION('center_axis',(-0.707106781186548,0.707106781186547,-6.33090308397283E-27));
#1454=DIRECTION('ref_axis',(-8.95324900342403E-27,0.,1.));
#1455=DIRECTION('',(0.707106781186547,0.707106781186548,-6.33090564774768E-27));
#1456=DIRECTION('',(0.,8.95324900342403E-27,1.));
#1457=DIRECTION('',(-0.707106781186547,-0.707106781186548,6.33090564774768E-27));
#1458=DIRECTION('',(0.,-8.95324900342403E-27,-1.));
#1459=DIRECTION('center_axis',(0.,8.95325262914919E-27,1.));
#1460=DIRECTION('ref_axis',(-5.89805981832115E-17,-1.,8.95325262914919E-27));
#1461=DIRECTION('',(1.,0.,0.));
#1462=DIRECTION('',(0.,-1.,8.95325262914919E-27));
#1463=DIRECTION('',(-1.,0.,0.));
#1464=DIRECTION('',(-5.89805981832115E-17,-1.,8.95325262914919E-27));
#1465=DIRECTION('center_axis',(0.,-1.,8.95324900342403E-27));
#1466=DIRECTION('ref_axis',(-6.1473183791847E-17,-8.95324900342403E-27,
-1.));
#1467=DIRECTION('',(1.,0.,0.));
#1468=DIRECTION('',(0.,-8.95324900342403E-27,-1.));
#1469=DIRECTION('center_axis',(-0.707106781186546,-0.707106781186549,6.33090308397285E-27));
#1470=DIRECTION('ref_axis',(8.95324900342406E-27,0.,1.));
#1471=DIRECTION('',(0.707106781186549,-0.707106781186546,6.33090564774766E-27));
#1472=DIRECTION('',(0.,-8.95324900342403E-27,-1.));
#1473=DIRECTION('',(-0.707106781186549,0.707106781186546,-6.33090564774766E-27));
#1474=DIRECTION('',(0.,8.95324900342403E-27,1.));
#1475=DIRECTION('center_axis',(0.,-8.95325262914919E-27,-1.));
#1476=DIRECTION('ref_axis',(5.89805981832115E-17,1.,-8.95325262914919E-27));
#1477=DIRECTION('',(1.,0.,0.));
#1478=DIRECTION('',(0.,1.,-8.95325262914919E-27));
#1479=DIRECTION('',(-1.,0.,0.));
#1480=DIRECTION('',(5.89805981832115E-17,1.,-8.95325262914919E-27));
#1481=DIRECTION('center_axis',(0.,1.,-8.95324900342403E-27));
#1482=DIRECTION('ref_axis',(6.1473183791847E-17,8.95324900342403E-27,1.));
#1483=DIRECTION('',(1.,0.,0.));
#1484=DIRECTION('',(0.,8.95324900342403E-27,1.));
#1485=DIRECTION('center_axis',(-0.707106781186546,-0.707106781186549,6.33090308397285E-27));
#1486=DIRECTION('ref_axis',(8.95324900342406E-27,0.,1.));
#1487=DIRECTION('',(0.707106781186549,-0.707106781186546,6.33090564774766E-27));
#1488=DIRECTION('',(0.,-8.95324900342403E-27,-1.));
#1489=DIRECTION('',(-0.707106781186549,0.707106781186546,-6.33090564774766E-27));
#1490=DIRECTION('',(0.,8.95324900342403E-27,1.));
#1491=DIRECTION('center_axis',(0.,-8.95325262914919E-27,-1.));
#1492=DIRECTION('ref_axis',(5.89805981832115E-17,1.,-8.95325262914919E-27));
#1493=DIRECTION('',(1.,0.,0.));
#1494=DIRECTION('',(0.,1.,-8.95325262914919E-27));
#1495=DIRECTION('',(-1.,0.,0.));
#1496=DIRECTION('',(5.89805981832115E-17,1.,-8.95325262914919E-27));
#1497=DIRECTION('center_axis',(0.,1.,-8.95324900342403E-27));
#1498=DIRECTION('ref_axis',(6.1473183791847E-17,8.95324900342403E-27,1.));
#1499=DIRECTION('',(1.,0.,0.));
#1500=DIRECTION('',(0.,8.95324900342403E-27,1.));
#1501=DIRECTION('center_axis',(0.,-8.95325262914919E-27,-1.));
#1502=DIRECTION('ref_axis',(5.89805981832115E-17,1.,-8.95325262914919E-27));
#1503=DIRECTION('',(5.89805981832115E-17,1.,-8.95325262914919E-27));
#1504=DIRECTION('',(1.,0.,0.));
#1505=DIRECTION('',(0.,1.,-8.95325262914919E-27));
#1506=DIRECTION('center_axis',(1.,0.,0.));
#1507=DIRECTION('ref_axis',(0.,0.,-1.));
#1508=DIRECTION('',(0.,0.,1.));
#1509=DIRECTION('center_axis',(0.,8.95325262914919E-27,1.));
#1510=DIRECTION('ref_axis',(-5.89805981832115E-17,-1.,8.95325262914919E-27));
#1511=DIRECTION('',(-5.89805981832115E-17,-1.,8.95325262914919E-27));
#1512=DIRECTION('',(1.,0.,0.));
#1513=DIRECTION('',(0.,-1.,8.95325262914919E-27));
#1514=DIRECTION('center_axis',(1.,0.,0.));
#1515=DIRECTION('ref_axis',(0.,0.,-1.));
#1516=DIRECTION('',(0.,0.,-1.));
#1517=DIRECTION('center_axis',(0.,8.95325262914919E-27,1.));
#1518=DIRECTION('ref_axis',(-5.89805981832115E-17,-1.,8.95325262914919E-27));
#1519=DIRECTION('',(-5.89805981832115E-17,-1.,8.95325262914919E-27));
#1520=DIRECTION('',(1.,0.,0.));
#1521=DIRECTION('',(0.,-1.,8.95325262914919E-27));
#1522=DIRECTION('center_axis',(1.,0.,0.));
#1523=DIRECTION('ref_axis',(0.,0.,-1.));
#1524=DIRECTION('',(0.,0.,-1.));
#1525=DIRECTION('center_axis',(0.,-8.95325262914919E-27,-1.));
#1526=DIRECTION('ref_axis',(5.89805981832115E-17,1.,-8.95325262914919E-27));
#1527=DIRECTION('',(5.89805981832115E-17,1.,-8.95325262914919E-27));
#1528=DIRECTION('',(1.,0.,0.));
#1529=DIRECTION('',(0.,1.,-8.95325262914919E-27));
#1530=DIRECTION('center_axis',(1.,0.,0.));
#1531=DIRECTION('ref_axis',(0.,0.,-1.));
#1532=DIRECTION('',(0.,0.,1.));
#1533=DIRECTION('center_axis',(-1.,0.,0.));
#1534=DIRECTION('ref_axis',(0.,0.,1.));
#1535=DIRECTION('',(0.,1.,0.));
#1536=DIRECTION('',(0.,0.707106781186546,-0.707106781186549));
#1537=DIRECTION('',(0.,0.,1.));
#1538=DIRECTION('',(0.,-0.707106781186549,-0.707106781186546));
#1539=DIRECTION('',(0.,-1.,0.));
#1540=DIRECTION('',(0.,-0.707106781186554,0.707106781186541));
#1541=DIRECTION('',(0.,0.,-1.));
#1542=DIRECTION('',(0.,0.707106781186544,0.707106781186551));
#1543=DIRECTION('center_axis',(1.,0.,0.));
#1544=DIRECTION('ref_axis',(6.16790569236198E-17,1.,0.));
#1545=DIRECTION('center_axis',(1.,0.,0.));
#1546=DIRECTION('ref_axis',(0.,1.,0.));
#1547=DIRECTION('center_axis',(1.,0.,0.));
#1548=DIRECTION('ref_axis',(0.,1.,0.));
#1549=DIRECTION('center_axis',(1.,0.,0.));
#1550=DIRECTION('ref_axis',(0.,1.,0.));
#1551=DIRECTION('center_axis',(1.,0.,0.));
#1552=DIRECTION('ref_axis',(0.,1.,0.));
#1553=DIRECTION('center_axis',(1.,0.,0.));
#1554=DIRECTION('ref_axis',(0.,1.,0.));
#1555=DIRECTION('center_axis',(1.,0.,0.));
#1556=DIRECTION('ref_axis',(0.,1.,0.));
#1557=DIRECTION('center_axis',(1.,0.,0.));
#1558=DIRECTION('ref_axis',(6.16790569236198E-17,1.,0.));
#1559=DIRECTION('',(0.,0.,-1.));
#1560=DIRECTION('',(0.,1.,0.));
#1561=DIRECTION('',(0.,0.,1.));
#1562=DIRECTION('',(0.,-1.,0.));
#1563=DIRECTION('',(0.,0.,-1.));
#1564=DIRECTION('',(0.,1.,0.));
#1565=DIRECTION('',(0.,0.,1.));
#1566=DIRECTION('',(0.,0.,1.));
#1567=DIRECTION('',(0.,-1.,0.));
#1568=DIRECTION('',(0.,0.,-1.));
#1569=DIRECTION('',(0.,0.,1.));
#1570=DIRECTION('',(0.,-1.,0.));
#1571=DIRECTION('',(0.,0.,-1.));
#1572=DIRECTION('',(0.,0.,-1.));
#1573=DIRECTION('',(0.,1.,0.));
#1574=DIRECTION('',(0.,0.,1.));
#1575=DIRECTION('center_axis',(1.,-6.16790569236198E-17,0.));
#1576=DIRECTION('ref_axis',(6.16790569236198E-17,1.,0.));
#1577=DIRECTION('',(1.,-6.16790569236198E-17,0.));
#1578=DIRECTION('center_axis',(-1.,0.,0.));
#1579=DIRECTION('ref_axis',(6.16790569236198E-17,1.,0.));
#1580=DIRECTION('center_axis',(1.,0.,0.));
#1581=DIRECTION('ref_axis',(0.,1.,0.));
#1582=DIRECTION('',(1.,0.,0.));
#1583=DIRECTION('center_axis',(-1.,0.,0.));
#1584=DIRECTION('ref_axis',(0.,1.,0.));
#1585=DIRECTION('center_axis',(1.,0.,0.));
#1586=DIRECTION('ref_axis',(0.,1.,0.));
#1587=DIRECTION('',(1.,0.,0.));
#1588=DIRECTION('center_axis',(-1.,0.,0.));
#1589=DIRECTION('ref_axis',(0.,1.,0.));
#1590=DIRECTION('center_axis',(1.,0.,0.));
#1591=DIRECTION('ref_axis',(0.,1.,0.));
#1592=DIRECTION('',(1.,0.,0.));
#1593=DIRECTION('center_axis',(-1.,0.,0.));
#1594=DIRECTION('ref_axis',(0.,1.,0.));
#1595=DIRECTION('center_axis',(1.,0.,0.));
#1596=DIRECTION('ref_axis',(0.,1.,0.));
#1597=DIRECTION('',(1.,0.,0.));
#1598=DIRECTION('center_axis',(-1.,0.,0.));
#1599=DIRECTION('ref_axis',(0.,1.,0.));
#1600=DIRECTION('center_axis',(1.,0.,0.));
#1601=DIRECTION('ref_axis',(0.,1.,0.));
#1602=DIRECTION('',(1.,0.,0.));
#1603=DIRECTION('center_axis',(-1.,0.,0.));
#1604=DIRECTION('ref_axis',(0.,1.,0.));
#1605=DIRECTION('center_axis',(1.,0.,0.));
#1606=DIRECTION('ref_axis',(0.,1.,0.));
#1607=DIRECTION('',(1.,0.,0.));
#1608=DIRECTION('center_axis',(-1.,0.,0.));
#1609=DIRECTION('ref_axis',(0.,1.,0.));
#1610=DIRECTION('center_axis',(1.,-6.16790569236198E-17,0.));
#1611=DIRECTION('ref_axis',(6.16790569236198E-17,1.,0.));
#1612=DIRECTION('',(1.,-6.16790569236198E-17,0.));
#1613=DIRECTION('center_axis',(-1.,0.,0.));
#1614=DIRECTION('ref_axis',(6.16790569236198E-17,1.,0.));
#1615=DIRECTION('center_axis',(-1.,0.,0.));
#1616=DIRECTION('ref_axis',(0.,-1.,0.));
#1617=DIRECTION('',(0.,-0.707106781186546,0.707106781186549));
#1618=DIRECTION('',(0.,-1.,0.));
#1619=DIRECTION('',(0.,-0.707106781186544,-0.707106781186551));
#1620=DIRECTION('',(0.,0.,1.));
#1621=DIRECTION('',(0.,0.707106781186554,-0.707106781186541));
#1622=DIRECTION('',(0.,1.,0.));
#1623=DIRECTION('',(0.,0.707106781186549,0.707106781186546));
#1624=DIRECTION('',(0.,0.,-1.));
#1625=DIRECTION('',(0.,0.,-1.));
#1626=DIRECTION('',(0.,-1.,0.));
#1627=DIRECTION('',(0.,0.,1.));
#1628=DIRECTION('',(0.,1.,0.));
#1629=DIRECTION('',(0.,1.,0.));
#1630=DIRECTION('',(0.,0.,-1.));
#1631=DIRECTION('',(0.,-1.,0.));
#1632=DIRECTION('',(0.,0.,1.));
#1633=DIRECTION('',(0.,4.01185068938926E-9,1.));
#1634=DIRECTION('center_axis',(1.,0.,0.));
#1635=DIRECTION('ref_axis',(0.,1.,0.));
#1636=DIRECTION('',(0.,4.01185068505604E-9,-1.));
#1637=DIRECTION('center_axis',(1.,0.,0.));
#1638=DIRECTION('ref_axis',(0.,1.,0.));
#1639=DIRECTION('center_axis',(1.,0.,0.));
#1640=DIRECTION('ref_axis',(0.,1.,0.));
#1641=DIRECTION('center_axis',(-1.,0.,0.));
#1642=DIRECTION('ref_axis',(0.,1.,0.));
#1643=DIRECTION('',(0.,-4.01185068938926E-9,-1.));
#1644=DIRECTION('center_axis',(-1.,0.,0.));
#1645=DIRECTION('ref_axis',(0.,1.,0.));
#1646=DIRECTION('',(0.,-4.01185068505604E-9,1.));
#1647=DIRECTION('center_axis',(-1.,0.,0.));
#1648=DIRECTION('ref_axis',(0.,1.,0.));
#1649=DIRECTION('center_axis',(-1.,0.,0.));
#1650=DIRECTION('ref_axis',(0.,1.,0.));
#1651=DIRECTION('center_axis',(-1.,0.,0.));
#1652=DIRECTION('ref_axis',(0.,1.,0.));
#1653=DIRECTION('center_axis',(-1.,0.,0.));
#1654=DIRECTION('ref_axis',(0.,-1.52827301547742E-14,1.));
#1655=DIRECTION('',(-1.,0.,0.));
#1656=DIRECTION('center_axis',(-1.,0.,0.));
#1657=DIRECTION('ref_axis',(0.,1.,0.));
#1658=DIRECTION('',(-1.,0.,0.));
#1659=DIRECTION('center_axis',(0.,1.,-4.01185068938926E-9));
#1660=DIRECTION('ref_axis',(0.,-4.01185068938926E-9,-1.));
#1661=DIRECTION('',(-1.,0.,0.));
#1662=DIRECTION('',(0.,-4.01185068938926E-9,-1.));
#1663=DIRECTION('center_axis',(0.,-1.,0.));
#1664=DIRECTION('ref_axis',(0.,0.,-1.));
#1665=DIRECTION('',(1.,0.,0.));
#1666=DIRECTION('',(1.,0.,0.));
#1667=DIRECTION('center_axis',(0.,0.,1.));
#1668=DIRECTION('ref_axis',(0.,-1.,0.));
#1669=DIRECTION('',(1.,0.,0.));
#1670=DIRECTION('center_axis',(0.,1.,0.));
#1671=DIRECTION('ref_axis',(0.,0.,1.));
#1672=DIRECTION('',(1.,0.,0.));
#1673=DIRECTION('center_axis',(0.,0.,-1.));
#1674=DIRECTION('ref_axis',(0.,1.,0.));
#1675=DIRECTION('center_axis',(-0.707106781186546,0.,-0.707106781186549));
#1676=DIRECTION('ref_axis',(-0.707106781186549,0.,0.707106781186546));
#1677=DIRECTION('',(0.577350269189629,-0.577350269189622,-0.577350269189627));
#1678=DIRECTION('',(0.,-1.,0.));
#1679=DIRECTION('',(-0.577350269189628,-0.577350269189623,0.577350269189626));
#1680=DIRECTION('center_axis',(0.,0.707106781186551,-0.707106781186544));
#1681=DIRECTION('ref_axis',(-1.,0.,0.));
#1682=DIRECTION('',(1.,0.,0.));
#1683=DIRECTION('',(-1.,0.,0.));
#1684=DIRECTION('center_axis',(-0.707106781186552,0.,0.707106781186543));
#1685=DIRECTION('ref_axis',(0.707106781186543,0.,0.707106781186552));
#1686=DIRECTION('',(0.57735026918962,0.57735026918963,0.577350269189628));
#1687=DIRECTION('',(0.,1.,0.));
#1688=DIRECTION('',(-0.577350269189617,0.577350269189635,-0.577350269189625));
#1689=DIRECTION('center_axis',(0.,-0.707106781186546,0.707106781186549));
#1690=DIRECTION('ref_axis',(1.,0.,0.));
#1691=DIRECTION('',(1.,0.,0.));
#1692=DIRECTION('',(-1.,0.,0.));
#1693=DIRECTION('center_axis',(0.707106781186548,-0.707106781186548,2.83680682757507E-9));
#1694=DIRECTION('ref_axis',(4.01185068938926E-9,0.,-1.));
#1695=DIRECTION('',(0.707106781186548,0.707106781186548,-2.83681165250067E-9));
#1696=DIRECTION('',(-0.707106781186548,-0.707106781186548,2.83681165250067E-9));
#1697=DIRECTION('center_axis',(1.,0.,0.));
#1698=DIRECTION('ref_axis',(0.,1.,0.));
#1699=DIRECTION('',(0.707106781186555,-0.70710678118654,0.));
#1700=DIRECTION('center_axis',(-1.,0.,0.));
#1701=DIRECTION('ref_axis',(0.,1.,0.));
#1702=DIRECTION('center_axis',(0.707106781186555,0.70710678118654,2.83680682451099E-9));
#1703=DIRECTION('ref_axis',(4.01185068505595E-9,0.,-1.));
#1704=DIRECTION('',(0.70710678118654,-0.707106781186555,-2.83681165250064E-9));
#1705=DIRECTION('',(0.,-4.01185068505604E-9,1.));
#1706=DIRECTION('center_axis',(1.,0.,0.));
#1707=DIRECTION('ref_axis',(0.,-1.34834885604695E-14,1.));
#1708=DIRECTION('center_axis',(-1.,0.,0.));
#1709=DIRECTION('ref_axis',(0.,1.,0.));
#1710=DIRECTION('',(-1.,0.,0.));
#1711=DIRECTION('center_axis',(0.,-1.,-4.01185068505604E-9));
#1712=DIRECTION('ref_axis',(0.,-4.01185068505604E-9,1.));
#1713=DIRECTION('center_axis',(0.,-0.707106781186549,-0.707106781186546));
#1714=DIRECTION('ref_axis',(-1.,0.,0.));
#1715=DIRECTION('',(1.,0.,0.));
#1716=DIRECTION('',(-1.,0.,0.));
#1717=DIRECTION('center_axis',(0.,1.,0.));
#1718=DIRECTION('ref_axis',(0.,0.,1.));
#1719=DIRECTION('center_axis',(0.,-1.,0.));
#1720=DIRECTION('ref_axis',(0.,0.,-1.));
#1721=DIRECTION('',(-1.,0.,0.));
#1722=DIRECTION('center_axis',(0.,0.707106781186541,0.707106781186554));
#1723=DIRECTION('ref_axis',(1.,0.,0.));
#1724=DIRECTION('',(1.,0.,0.));
#1725=DIRECTION('center_axis',(0.,0.,-1.));
#1726=DIRECTION('ref_axis',(-1.,0.,0.));
#1727=DIRECTION('center_axis',(0.,0.,1.));
#1728=DIRECTION('ref_axis',(1.,0.,0.));
#1729=DIRECTION('center_axis',(1.,0.,0.));
#1730=DIRECTION('ref_axis',(0.,1.,0.));
#1731=DIRECTION('',(1.,0.,0.));
#1732=DIRECTION('center_axis',(1.,0.,0.));
#1733=DIRECTION('ref_axis',(0.,1.,0.));
#1734=DIRECTION('',(1.,0.,0.));
#1735=DIRECTION('center_axis',(1.,0.,0.));
#1736=DIRECTION('ref_axis',(0.,1.,0.));
#1737=DIRECTION('',(1.,0.,0.));
#1738=DIRECTION('center_axis',(0.,0.,-1.));
#1739=DIRECTION('ref_axis',(0.,-1.,0.));
#1740=DIRECTION('',(-1.,0.,0.));
#1741=DIRECTION('',(-1.,0.,0.));
#1742=DIRECTION('center_axis',(0.,1.,0.));
#1743=DIRECTION('ref_axis',(0.,0.,-1.));
#1744=DIRECTION('',(-1.,0.,0.));
#1745=DIRECTION('center_axis',(0.,0.,1.));
#1746=DIRECTION('ref_axis',(0.,1.,0.));
#1747=DIRECTION('',(-1.,0.,0.));
#1748=DIRECTION('center_axis',(0.,-1.,0.));
#1749=DIRECTION('ref_axis',(0.,0.,1.));
#1750=DIRECTION('center_axis',(0.,-1.,0.));
#1751=DIRECTION('ref_axis',(0.,0.,1.));
#1752=DIRECTION('',(-1.,0.,0.));
#1753=DIRECTION('',(-1.,0.,0.));
#1754=DIRECTION('center_axis',(0.,0.,-1.));
#1755=DIRECTION('ref_axis',(0.,-1.,0.));
#1756=DIRECTION('',(-1.,0.,0.));
#1757=DIRECTION('center_axis',(0.,1.,0.));
#1758=DIRECTION('ref_axis',(0.,0.,-1.));
#1759=DIRECTION('',(-1.,0.,0.));
#1760=DIRECTION('center_axis',(0.,0.,1.));
#1761=DIRECTION('ref_axis',(0.,1.,0.));
#1762=CARTESIAN_POINT('',(0.,0.,0.));
#1763=CARTESIAN_POINT('Origin',(-9.60000000000005,60.0000008940697,162.000002264977));
#1764=CARTESIAN_POINT('',(-9.60000000000005,55.0000008195639,152.000002115965));
#1765=CARTESIAN_POINT('',(-9.60000000000005,65.0000009685755,152.000002115965));
#1766=CARTESIAN_POINT('',(-9.60000000000005,65.0000009685755,152.000002115965));
#1767=CARTESIAN_POINT('',(-9.60000000000005,55.0000008195639,172.000002413988));
#1768=CARTESIAN_POINT('',(-9.60000000000005,55.0000008195639,152.000002115965));
#1769=CARTESIAN_POINT('',(-9.60000000000005,65.0000009685755,172.000002413988));
#1770=CARTESIAN_POINT('',(-9.60000000000005,55.0000008195639,172.000002413988));
#1771=CARTESIAN_POINT('',(-9.60000000000005,65.0000009685755,172.000002413988));
#1772=CARTESIAN_POINT('',(-9.60000000000005,58.4000008940697,156.500002279878));
#1773=CARTESIAN_POINT('Origin',(-9.60000000000005,60.0000008940697,156.500002279878));
#1774=CARTESIAN_POINT('',(-9.60000000000005,58.4000008940697,169.500002279878));
#1775=CARTESIAN_POINT('Origin',(-9.60000000000005,60.0000008940697,169.500002279878));
#1776=CARTESIAN_POINT('',(-9.60000000000005,58.4000008940697,163.000002279878));
#1777=CARTESIAN_POINT('Origin',(-9.60000000000005,60.0000008940697,163.000002279878));
#1778=CARTESIAN_POINT('Origin',(-10.3000000000001,0.500000067055359,162.500002264977));
#1779=CARTESIAN_POINT('',(-11.3000000000001,-0.499999932944641,161.000002264977));
#1780=CARTESIAN_POINT('',(-9.30000000000014,1.50000006705536,161.000002264977));
#1781=CARTESIAN_POINT('',(-11.1750000000001,-0.374999932944642,161.000002264977));
#1782=CARTESIAN_POINT('',(-11.3000000000001,-0.499999932944641,163.000002264977));
#1783=CARTESIAN_POINT('',(-11.3000000000001,-0.499999932944641,162.500002264977));
#1784=CARTESIAN_POINT('',(-9.30000000000014,1.50000006705536,163.000002264977));
#1785=CARTESIAN_POINT('',(-9.92500000000014,0.875000067055358,163.000002264977));
#1786=CARTESIAN_POINT('',(-9.30000000000014,1.50000006705536,162.500002264977));
#1787=CARTESIAN_POINT('Origin',(-12.8000000000001,4.50000006705536,163.000002264977));
#1788=CARTESIAN_POINT('',(-12.8000000000001,-0.499999932944641,163.000002264977));
#1789=CARTESIAN_POINT('',(-12.8000000000001,-0.499999932944641,163.000002264977));
#1790=CARTESIAN_POINT('',(-12.8000000000001,4.50000006705536,163.000002264977));
#1791=CARTESIAN_POINT('',(-12.8,32.2500004805625,163.000002264977));
#1792=CARTESIAN_POINT('',(-9.30000000000014,4.50000006705536,163.000002264977));
#1793=CARTESIAN_POINT('',(-9.80000000000009,4.50000006705523,163.000002264977));
#1794=CARTESIAN_POINT('',(-9.30000000000014,9.50000006705536,163.000002264977));
#1795=CARTESIAN_POINT('Origin',(-12.8000000000001,-0.499999932944641,163.000002264977));
#1796=CARTESIAN_POINT('',(-12.8000000000001,-0.499999932944641,161.000002264977));
#1797=CARTESIAN_POINT('',(-12.8000000000001,-0.499999932944641,161.000002264977));
#1798=CARTESIAN_POINT('',(-12.8,-0.499999932944641,162.500002264977));
#1799=CARTESIAN_POINT('Origin',(-10.3000000000001,70.0000017210842,162.500002421439));
#1800=CARTESIAN_POINT('',(-11.3000000000001,69.0000017210842,161.000002421439));
#1801=CARTESIAN_POINT('',(-9.30000000000014,71.0000017210842,161.000002421439));
#1802=CARTESIAN_POINT('',(-11.1750000000001,69.1250017210842,161.000002421439));
#1803=CARTESIAN_POINT('',(-11.3000000000001,69.0000017210842,163.000002421439));
#1804=CARTESIAN_POINT('',(-11.3000000000001,69.0000017210842,162.500002421439));
#1805=CARTESIAN_POINT('',(-9.30000000000014,71.0000017210842,163.000002421439));
#1806=CARTESIAN_POINT('',(-9.92500000000014,70.3750017210842,163.000002421439));
#1807=CARTESIAN_POINT('',(-9.30000000000014,71.0000017210842,162.500002421439));
#1808=CARTESIAN_POINT('Origin',(-12.8000000000001,74.0000017210842,163.000002421439));
#1809=CARTESIAN_POINT('',(-12.8000000000001,69.0000017210842,163.000002421439));
#1810=CARTESIAN_POINT('',(-12.8000000000001,69.0000017210842,163.000002421439));
#1811=CARTESIAN_POINT('',(-12.8000000000001,74.0000017210842,163.000002421439));
#1812=CARTESIAN_POINT('',(-12.8,67.000001307577,163.000002421439));
#1813=CARTESIAN_POINT('',(-9.30000000000014,74.0000017210842,163.000002421439));
#1814=CARTESIAN_POINT('',(-9.80000000000009,74.0000017210841,163.000002421439));
#1815=CARTESIAN_POINT('',(-9.30000000000014,79.0000017210842,163.000002421439));
#1816=CARTESIAN_POINT('Origin',(-12.8000000000001,69.0000017210842,163.000002421439));
#1817=CARTESIAN_POINT('',(-12.8000000000001,69.0000017210842,161.000002421439));
#1818=CARTESIAN_POINT('',(-12.8000000000001,69.0000017210842,161.000002421439));
#1819=CARTESIAN_POINT('',(-12.8,69.0000017210842,162.500002343208));
#1820=CARTESIAN_POINT('Origin',(-10.3000000000001,119.500001721084,161.500002421439));
#1821=CARTESIAN_POINT('',(-11.3000000000001,120.500001721084,163.000002421439));
#1822=CARTESIAN_POINT('',(-9.30000000000014,118.500001721084,163.000002421439));
#1823=CARTESIAN_POINT('',(-11.1750000000001,120.375001721084,163.000002421439));
#1824=CARTESIAN_POINT('',(-11.3000000000001,120.500001721084,161.000002421439));
#1825=CARTESIAN_POINT('',(-11.3000000000001,120.500001721084,161.500002421439));
#1826=CARTESIAN_POINT('',(-9.30000000000014,118.500001721084,161.000002421439));
#1827=CARTESIAN_POINT('',(-9.92500000000014,119.125001721084,161.000002421439));
#1828=CARTESIAN_POINT('',(-9.30000000000014,118.500001721084,161.500002421439));
#1829=CARTESIAN_POINT('Origin',(-12.8000000000001,115.500001721084,161.000002421439));
#1830=CARTESIAN_POINT('',(-12.8000000000001,120.500001721084,161.000002421439));
#1831=CARTESIAN_POINT('',(-12.8000000000001,120.500001721084,161.000002421439));
#1832=CARTESIAN_POINT('',(-12.8000000000001,115.500001721084,161.000002421439));
#1833=CARTESIAN_POINT('',(-12.8,87.750001307577,161.000002421439));
#1834=CARTESIAN_POINT('',(-9.30000000000014,115.500001721084,161.000002421439));
#1835=CARTESIAN_POINT('',(-9.80000000000009,115.500001721084,161.000002421439));
#1836=CARTESIAN_POINT('',(-9.30000000000014,110.500001721084,161.000002421439));
#1837=CARTESIAN_POINT('Origin',(-12.8000000000001,120.500001721084,161.000002421439));
#1838=CARTESIAN_POINT('',(-12.8000000000001,120.500001721084,163.000002421439));
#1839=CARTESIAN_POINT('',(-12.8000000000001,120.500001721084,163.000002421439));
#1840=CARTESIAN_POINT('',(-12.8,120.500001721084,161.500002343208));
#1841=CARTESIAN_POINT('Origin',(-10.3000000000001,50.0000006854535,161.500002264977));
#1842=CARTESIAN_POINT('',(-11.3000000000001,51.0000006854535,163.000002264977));
#1843=CARTESIAN_POINT('',(-9.30000000000014,49.0000006854535,163.000002264977));
#1844=CARTESIAN_POINT('',(-11.1750000000001,50.8750006854535,163.000002264977));
#1845=CARTESIAN_POINT('',(-11.3000000000001,51.0000006854535,161.000002264977));
#1846=CARTESIAN_POINT('',(-11.3000000000001,51.0000006854535,161.500002264977));
#1847=CARTESIAN_POINT('',(-9.30000000000014,49.0000006854535,161.000002264977));
#1848=CARTESIAN_POINT('',(-9.92500000000014,49.6250006854535,161.000002264977));
#1849=CARTESIAN_POINT('',(-9.30000000000014,49.0000006854535,161.500002264977));
#1850=CARTESIAN_POINT('Origin',(-12.8000000000001,46.0000006854535,161.000002264977));
#1851=CARTESIAN_POINT('',(-12.8000000000001,51.0000006854535,161.000002264977));
#1852=CARTESIAN_POINT('',(-12.8000000000001,51.0000006854535,161.000002264977));
#1853=CARTESIAN_POINT('',(-12.8000000000001,46.0000006854535,161.000002264977));
#1854=CARTESIAN_POINT('',(-12.8,53.0000007897616,161.000002264977));
#1855=CARTESIAN_POINT('',(-9.30000000000014,46.0000006854535,161.000002264977));
#1856=CARTESIAN_POINT('',(-9.80000000000009,46.0000006854534,161.000002264977));
#1857=CARTESIAN_POINT('',(-9.30000000000014,41.0000006854535,161.000002264977));
#1858=CARTESIAN_POINT('Origin',(-12.8000000000001,51.0000006854535,161.000002264977));
#1859=CARTESIAN_POINT('',(-12.8000000000001,51.0000006854535,163.000002264977));
#1860=CARTESIAN_POINT('',(-12.8000000000001,51.0000006854535,163.000002264977));
#1861=CARTESIAN_POINT('',(-12.8,51.0000006854535,161.500002264977));
#1862=CARTESIAN_POINT('Origin',(-12.8000000000001,69.0000017210842,161.000002421439));
#1863=CARTESIAN_POINT('',(-9.30000000000014,74.0000017210842,161.000002421439));
#1864=CARTESIAN_POINT('',(-9.30000000000014,69.0000017210842,161.000002421439));
#1865=CARTESIAN_POINT('',(-12.8000000000001,74.0000017210842,161.000002421439));
#1866=CARTESIAN_POINT('',(-9.80000000000009,74.0000017210841,161.000002421439));
#1867=CARTESIAN_POINT('',(-12.8,64.500001307577,161.000002421439));
#1868=CARTESIAN_POINT('Origin',(-9.30000000000014,71.5000017210842,162.000002421439));
#1869=CARTESIAN_POINT('',(-9.30000000000014,74.0000017210841,156.750002421439));
#1870=CARTESIAN_POINT('Origin',(-12.8000000000001,51.0000006854535,163.000002264977));
#1871=CARTESIAN_POINT('',(-9.30000000000014,46.0000006854535,163.000002264977));
#1872=CARTESIAN_POINT('',(-9.30000000000014,51.0000006854535,163.000002264977));
#1873=CARTESIAN_POINT('',(-12.8000000000001,46.0000006854535,163.000002264977));
#1874=CARTESIAN_POINT('',(-9.80000000000009,46.0000006854534,163.000002264977));
#1875=CARTESIAN_POINT('',(-12.8,55.5000007897616,163.000002264977));
#1876=CARTESIAN_POINT('Origin',(-9.30000000000014,48.5000006854535,162.000002264977));
#1877=CARTESIAN_POINT('',(-9.30000000000014,46.0000006854534,167.250002343208));
#1878=CARTESIAN_POINT('Origin',(-12.8000000000001,120.500001721084,163.000002421439));
#1879=CARTESIAN_POINT('',(-9.30000000000014,115.500001721084,163.000002421439));
#1880=CARTESIAN_POINT('',(-9.30000000000014,120.500001721084,163.000002421439));
#1881=CARTESIAN_POINT('',(-12.8000000000001,115.500001721084,163.000002421439));
#1882=CARTESIAN_POINT('',(-9.80000000000009,115.500001721084,163.000002421439));
#1883=CARTESIAN_POINT('',(-12.8,90.250001307577,163.000002421439));
#1884=CARTESIAN_POINT('Origin',(-9.30000000000014,118.000001721084,162.000002421439));
#1885=CARTESIAN_POINT('',(-9.30000000000014,115.500001721084,167.250002421439));
#1886=CARTESIAN_POINT('Origin',(-12.8000000000001,-0.499999932944641,161.000002264977));
#1887=CARTESIAN_POINT('',(-9.30000000000014,4.50000006705536,161.000002264977));
#1888=CARTESIAN_POINT('',(-9.30000000000014,-0.499999932944641,161.000002264977));
#1889=CARTESIAN_POINT('',(-12.8000000000001,4.50000006705536,161.000002264977));
#1890=CARTESIAN_POINT('',(-9.80000000000009,4.50000006705523,161.000002264977));
#1891=CARTESIAN_POINT('',(-12.8,29.7500004805625,161.000002264977));
#1892=CARTESIAN_POINT('Origin',(-9.30000000000014,2.00000006705536,162.000002264977));
#1893=CARTESIAN_POINT('',(-9.30000000000014,4.50000006705523,156.750002186745));
#1894=CARTESIAN_POINT('Origin',(-12.8,60.0000008940697,162.000002264977));
#1895=CARTESIAN_POINT('',(-12.8,-1.99999993294477,150.999996848404));
#1896=CARTESIAN_POINT('',(-12.8,122.999997228384,150.999996848404));
#1897=CARTESIAN_POINT('',(-12.8,91.9999990612268,150.999996848404));
#1898=CARTESIAN_POINT('',(-12.8,-2.99999993294477,151.999996848404));
#1899=CARTESIAN_POINT('',(-12.8,10.7499989196657,138.249997995794));
#1900=CARTESIAN_POINT('',(-12.8,-2.99999993294477,171.999996356666));
#1901=CARTESIAN_POINT('',(-12.8,-2.99999993294477,172.999996356666));
#1902=CARTESIAN_POINT('',(-12.8,-1.99999993294478,172.999996356666));
#1903=CARTESIAN_POINT('',(-12.8,10.7500017508865,185.749998040497));
#1904=CARTESIAN_POINT('',(-12.8,122.999997228384,172.999996356666));
#1905=CARTESIAN_POINT('',(-12.8,28.5000004805624,172.999996356666));
#1906=CARTESIAN_POINT('',(-12.8,123.999997228384,171.999996356666));
#1907=CARTESIAN_POINT('',(-12.8,109.999996667728,185.999996917322));
#1908=CARTESIAN_POINT('',(-12.8,123.999997228384,151.999996848404));
#1909=CARTESIAN_POINT('',(-12.8,123.999997228384,167.499999310821));
#1910=CARTESIAN_POINT('',(-12.8,109.999999498949,137.999999118969));
#1911=CARTESIAN_POINT('',(-12.8,-1.20000007241377,166.999999635853));
#1912=CARTESIAN_POINT('Origin',(-12.8,0.899999927586235,166.999999635853));
#1913=CARTESIAN_POINT('',(-12.8,68.7,156.891729985377));
#1914=CARTESIAN_POINT('Origin',(-12.8,70.8,156.891729985377));
#1915=CARTESIAN_POINT('',(-12.8,47.1000000000001,167.1));
#1916=CARTESIAN_POINT('Origin',(-12.8,49.2000000000001,167.1));
#1917=CARTESIAN_POINT('',(-12.8,116.9,166.891729985377));
#1918=CARTESIAN_POINT('Origin',(-12.8,119.,166.891729985377));
#1919=CARTESIAN_POINT('',(-12.8,116.9,156.891729985377));
#1920=CARTESIAN_POINT('Origin',(-12.8,119.,156.891729985377));
#1921=CARTESIAN_POINT('',(-12.8,68.7000000000001,166.891729985377));
#1922=CARTESIAN_POINT('Origin',(-12.8,70.8,166.891729985377));
#1923=CARTESIAN_POINT('',(-12.8,47.1000000000001,157.1));
#1924=CARTESIAN_POINT('Origin',(-12.8,49.2000000000001,157.1));
#1925=CARTESIAN_POINT('',(-12.8,-1.20000007957781,156.999999635853));
#1926=CARTESIAN_POINT('Origin',(-12.8,0.899999920422188,156.999999635853));
#1927=CARTESIAN_POINT('',(-12.8,55.0000008195639,172.000002413988));
#1928=CARTESIAN_POINT('',(-12.8,55.0000008195639,152.000002115965));
#1929=CARTESIAN_POINT('',(-12.8,55.0000008195639,167.000002339482));
#1930=CARTESIAN_POINT('',(-12.8,65.0000009685755,152.000002115965));
#1931=CARTESIAN_POINT('',(-12.8,57.5000008568168,152.000002115965));
#1932=CARTESIAN_POINT('',(-12.8,65.0000009685755,172.000002413988));
#1933=CARTESIAN_POINT('',(-12.8,65.0000009685755,157.000002190471));
#1934=CARTESIAN_POINT('',(-12.8,62.5000009313226,172.000002413988));
#1935=CARTESIAN_POINT('',(-12.8,74.0000017210841,151.500002421439));
#1936=CARTESIAN_POINT('',(-12.8,74.0000017210841,156.750002343208));
#1937=CARTESIAN_POINT('',(-12.8,115.500001721084,151.500002421439));
#1938=CARTESIAN_POINT('',(-12.8,87.7500013075769,151.500002421439));
#1939=CARTESIAN_POINT('',(-12.8,115.500001721084,167.250002343208));
#1940=CARTESIAN_POINT('',(-12.8,115.500001721084,172.500002421439));
#1941=CARTESIAN_POINT('',(-12.8,115.500001721084,167.250002343208));
#1942=CARTESIAN_POINT('',(-12.8,74.0000017210841,172.500002421439));
#1943=CARTESIAN_POINT('',(-12.8,67.0000013075769,172.500002421439));
#1944=CARTESIAN_POINT('',(-12.8,74.0000017210841,156.750002343208));
#1945=CARTESIAN_POINT('',(-12.8,46.0000006854534,172.500002421439));
#1946=CARTESIAN_POINT('',(-12.8,46.0000006854534,167.250002343208));
#1947=CARTESIAN_POINT('',(-12.8,4.50000006705523,172.500002421439));
#1948=CARTESIAN_POINT('',(-12.8,32.2500004805624,172.500002421439));
#1949=CARTESIAN_POINT('',(-12.8,4.50000006705523,156.750002186745));
#1950=CARTESIAN_POINT('',(-12.8,4.50000006705523,151.500002108514));
#1951=CARTESIAN_POINT('',(-12.8,4.50000006705523,156.750002186745));
#1952=CARTESIAN_POINT('',(-12.8,46.0000006854534,151.500002108514));
#1953=CARTESIAN_POINT('',(-12.8,53.0000007897615,151.500002108514));
#1954=CARTESIAN_POINT('',(-12.8,46.0000006854534,167.250002343208));
#1955=CARTESIAN_POINT('Origin',(-15.8000000000001,0.899999927586235,166.999999635853));
#1956=CARTESIAN_POINT('',(-6.80000000000005,-1.20000007241377,166.999999635853));
#1957=CARTESIAN_POINT('',(-15.8000000000001,-1.20000007241377,166.999999635853));
#1958=CARTESIAN_POINT('Origin',(-6.80000000000005,0.899999927586235,166.999999635853));
#1959=CARTESIAN_POINT('Origin',(-15.8000000019733,70.8,156.891729985377));
#1960=CARTESIAN_POINT('',(-6.80000000000004,68.7,156.891729985377));
#1961=CARTESIAN_POINT('',(-15.8000000019733,68.7,156.891729985377));
#1962=CARTESIAN_POINT('Origin',(-6.80000000000004,70.8,156.891729985377));
#1963=CARTESIAN_POINT('Origin',(-15.8000000019733,49.2000000000001,167.1));
#1964=CARTESIAN_POINT('',(-6.80000000000004,47.1000000000001,167.1));
#1965=CARTESIAN_POINT('',(-15.8000000019733,47.1000000000001,167.1));
#1966=CARTESIAN_POINT('Origin',(-6.80000000000004,49.2000000000001,167.1));
#1967=CARTESIAN_POINT('Origin',(-15.8000000000001,119.,166.891729985377));
#1968=CARTESIAN_POINT('',(-6.80000000000004,116.9,166.891729985377));
#1969=CARTESIAN_POINT('',(-15.8000000000001,116.9,166.891729985377));
#1970=CARTESIAN_POINT('Origin',(-6.80000000000004,119.,166.891729985377));
#1971=CARTESIAN_POINT('Origin',(-15.8000000000001,119.,156.891729985377));
#1972=CARTESIAN_POINT('',(-6.80000000000004,116.9,156.891729985377));
#1973=CARTESIAN_POINT('',(-15.8000000000001,116.9,156.891729985377));
#1974=CARTESIAN_POINT('Origin',(-6.80000000000004,119.,156.891729985377));
#1975=CARTESIAN_POINT('Origin',(-15.8000000019733,70.8,166.891729985377));
#1976=CARTESIAN_POINT('',(-6.80000000000004,68.7000000000001,166.891729985377));
#1977=CARTESIAN_POINT('',(-15.8000000019733,68.7000000000001,166.891729985377));
#1978=CARTESIAN_POINT('Origin',(-6.80000000000004,70.8,166.891729985377));
#1979=CARTESIAN_POINT('Origin',(-15.8000000019733,49.2000000000001,157.1));
#1980=CARTESIAN_POINT('',(-6.80000000000004,47.1000000000001,157.1));
#1981=CARTESIAN_POINT('',(-15.8000000019733,47.1000000000001,157.1));
#1982=CARTESIAN_POINT('Origin',(-6.80000000000004,49.2000000000001,157.1));
#1983=CARTESIAN_POINT('Origin',(-15.8000000000002,0.899999920422188,156.999999635853));
#1984=CARTESIAN_POINT('',(-6.80000000000005,-1.20000007957781,156.999999635853));
#1985=CARTESIAN_POINT('',(-15.8000000000002,-1.20000007957781,156.999999635853));
#1986=CARTESIAN_POINT('Origin',(-6.80000000000005,0.899999920422187,156.999999635853));
#1987=CARTESIAN_POINT('Origin',(-6.80000000000004,60.0000008940697,162.000002264977));
#1988=CARTESIAN_POINT('',(-6.80000000000004,-0.999999932944782,149.999996848404));
#1989=CARTESIAN_POINT('',(-6.80000000000004,-2.99999993294477,151.999996848404));
#1990=CARTESIAN_POINT('',(-6.80000000000004,10.7499989196657,138.249997995794));
#1991=CARTESIAN_POINT('',(-6.80000000000004,121.999997228384,149.999996848404));
#1992=CARTESIAN_POINT('',(-6.80000000000004,91.9999990612268,149.999996848404));
#1993=CARTESIAN_POINT('',(-6.80000000000004,123.999997228384,151.999996848404));
#1994=CARTESIAN_POINT('',(-6.80000000000004,109.999999498949,137.999999118969));
#1995=CARTESIAN_POINT('',(-6.80000000000004,123.999997228384,171.999996356666));
#1996=CARTESIAN_POINT('',(-6.80000000000004,123.999997228384,167.499999310821));
#1997=CARTESIAN_POINT('',(-6.80000000000004,121.999997228384,173.999996356666));
#1998=CARTESIAN_POINT('',(-6.80000000000004,109.999996667728,185.999996917322));
#1999=CARTESIAN_POINT('',(-6.80000000000004,-0.999999932944773,173.999996356666));
#2000=CARTESIAN_POINT('',(-6.80000000000004,28.5000004805624,173.999996356666));
#2001=CARTESIAN_POINT('',(-6.80000000000004,-2.99999993294477,171.999996356666));
#2002=CARTESIAN_POINT('',(-6.80000000000004,10.7500017508865,185.749998040497));
#2003=CARTESIAN_POINT('',(-6.80000000000004,-2.99999993294477,156.49999955669));
#2004=CARTESIAN_POINT('',(-6.80000000000004,46.0000006854534,172.500002421439));
#2005=CARTESIAN_POINT('',(-6.80000000000004,46.0000006854534,151.500002108514));
#2006=CARTESIAN_POINT('',(-6.80000000000004,46.0000006854534,167.250002343208));
#2007=CARTESIAN_POINT('',(-6.80000000000004,4.50000006705523,151.500002108514));
#2008=CARTESIAN_POINT('',(-6.80000000000004,53.0000007897615,151.500002108514));
#2009=CARTESIAN_POINT('',(-6.80000000000004,4.50000006705523,172.500002421439));
#2010=CARTESIAN_POINT('',(-6.80000000000004,4.50000006705523,156.750002186745));
#2011=CARTESIAN_POINT('',(-6.80000000000004,32.2500004805624,172.500002421439));
#2012=CARTESIAN_POINT('',(-6.80000000000004,74.0000017210841,172.500002421439));
#2013=CARTESIAN_POINT('',(-6.80000000000004,115.500001721084,172.500002421439));
#2014=CARTESIAN_POINT('',(-6.80000000000004,67.0000013075769,172.500002421439));
#2015=CARTESIAN_POINT('',(-6.80000000000004,115.500001721084,151.500002421439));
#2016=CARTESIAN_POINT('',(-6.80000000000004,115.500001721084,167.250002343208));
#2017=CARTESIAN_POINT('',(-6.80000000000004,74.0000017210841,151.500002421439));
#2018=CARTESIAN_POINT('',(-6.80000000000004,87.7500013075769,151.500002421439));
#2019=CARTESIAN_POINT('',(-6.80000000000004,74.0000017210841,156.750002343208));
#2020=CARTESIAN_POINT('',(-6.80000000000004,63.9000008940697,156.500002292314));
#2021=CARTESIAN_POINT('',(-6.80000000000004,63.9000009462237,169.500002264232));
#2022=CARTESIAN_POINT('',(-6.80000000000004,63.9000009311793,165.750002256781));
#2023=CARTESIAN_POINT('',(-6.80000000000004,56.1000008940697,156.500002279878));
#2024=CARTESIAN_POINT('Origin',(-6.80000000000004,60.0000008940697,156.500002279878));
#2025=CARTESIAN_POINT('',(-6.80000000000004,56.1000008419156,169.500002264231));
#2026=CARTESIAN_POINT('',(-6.80000000000004,56.1000008830371,159.250002263802));
#2027=CARTESIAN_POINT('Origin',(-6.80000000000004,60.0000008940697,169.500002279878));
#2028=CARTESIAN_POINT('Origin',(-8.80000000000004,60.0000008940697,163.000002305955));
#2029=CARTESIAN_POINT('',(-8.80000000000004,63.5000008940697,156.500002293919));
#2030=CARTESIAN_POINT('',(-8.80000000000004,56.5000008940697,156.500002279878));
#2031=CARTESIAN_POINT('Origin',(-8.80000000000004,60.0000008940697,156.500002279878));
#2032=CARTESIAN_POINT('',(-8.80000000000004,63.5000009462237,169.500002265836));
#2033=CARTESIAN_POINT('',(-8.80000000000004,63.5000009331852,166.250002278875));
#2034=CARTESIAN_POINT('',(-8.80000000000004,56.5000008419156,169.500002265836));
#2035=CARTESIAN_POINT('Origin',(-8.80000000000004,60.0000008940697,169.500002279878));
#2036=CARTESIAN_POINT('',(-8.80000000000004,56.5000008810312,159.750002285895));
#2037=CARTESIAN_POINT('',(-8.80000000000004,58.4000008940697,156.500002279878));
#2038=CARTESIAN_POINT('Origin',(-8.80000000000004,60.0000008940697,156.500002279878));
#2039=CARTESIAN_POINT('',(-8.80000000000004,58.4000008940697,163.000002279878));
#2040=CARTESIAN_POINT('Origin',(-8.80000000000004,60.0000008940697,163.000002279878));
#2041=CARTESIAN_POINT('',(-8.80000000000004,58.4000008940697,169.500002279878));
#2042=CARTESIAN_POINT('Origin',(-8.80000000000004,60.0000008940697,169.500002279878));
#2043=CARTESIAN_POINT('Origin',(-6.80000000000004,60.0000008940697,169.500002279878));
#2044=CARTESIAN_POINT('',(-7.20000000000004,63.5000009462237,169.500002265836));
#2045=CARTESIAN_POINT('',(-6.80000000000004,63.5000009462237,169.500002265836));
#2046=CARTESIAN_POINT('',(-7.20000000000004,56.5000008419156,169.500002265836));
#2047=CARTESIAN_POINT('Origin',(-7.20000000000004,60.0000008940697,169.500002279878));
#2048=CARTESIAN_POINT('',(-6.80000000000004,56.5000008419156,169.500002265836));
#2049=CARTESIAN_POINT('Origin',(-6.80000000000004,63.5000009462237,169.500002265836));
#2050=CARTESIAN_POINT('',(-7.20000000000004,63.5000008940697,156.500002293919));
#2051=CARTESIAN_POINT('',(-6.80000000000004,63.5000008940697,156.500002293919));
#2052=CARTESIAN_POINT('',(-7.20000000000004,63.5000009311793,165.750002258386));
#2053=CARTESIAN_POINT('Origin',(-12.8,55.0000008195639,172.000002413988));
#2054=CARTESIAN_POINT('',(-12.8,55.0000008195639,172.000002413988));
#2055=CARTESIAN_POINT('',(-12.8,55.0000008195639,152.000002115965));
#2056=CARTESIAN_POINT('Origin',(-12.8,65.0000009685755,172.000002413988));
#2057=CARTESIAN_POINT('',(-12.8,65.0000009685755,172.000002413988));
#2058=CARTESIAN_POINT('Origin',(-12.8,65.0000009685755,152.000002115965));
#2059=CARTESIAN_POINT('',(-12.8,65.0000009685755,152.000002115965));
#2060=CARTESIAN_POINT('Origin',(-12.8,55.0000008195639,152.000002115965));
#2061=CARTESIAN_POINT('Origin',(-12.3,91.9999990612268,150.499996848404));
#2062=CARTESIAN_POINT('',(-11.8,121.999997228384,149.999996848404));
#2063=CARTESIAN_POINT('',(-7.46666697214052,117.666664200525,145.666663820545));
#2064=CARTESIAN_POINT('',(-11.8,-0.999999932944773,149.999996848404));
#2065=CARTESIAN_POINT('',(-11.8,91.9999990612268,149.999996848404));
#2066=CARTESIAN_POINT('',(3.03333316569522,13.8333332327504,135.166663682709));
#2067=CARTESIAN_POINT('Origin',(-12.8,122.999997228384,150.999996848404));
#2068=CARTESIAN_POINT('',(-12.8,123.999997228384,151.999996848404));
#2069=CARTESIAN_POINT('',(-12.8,121.999997228384,149.999996848404));
#2070=CARTESIAN_POINT('Origin',(-12.3,28.5000004805624,173.499996356666));
#2071=CARTESIAN_POINT('',(-11.8,-0.999999932944775,173.999996356666));
#2072=CARTESIAN_POINT('',(-7.54999993108218,3.25000013597316,178.249996425584));
#2073=CARTESIAN_POINT('',(-11.8,121.999997228384,173.999996356666));
#2074=CARTESIAN_POINT('',(-11.8,28.5000004805624,173.999996356666));
#2075=CARTESIAN_POINT('',(3.11666612463693,107.083331103747,188.916662481303));
#2076=CARTESIAN_POINT('Origin',(-12.8,-1.99999993294477,172.999996356666));
#2077=CARTESIAN_POINT('',(-12.8,-2.99999993294477,171.999996356666));
#2078=CARTESIAN_POINT('',(-12.8,-0.999999932944775,173.999996356666));
#2079=CARTESIAN_POINT('Origin',(-7.00000000000004,63.7000009311793,165.750002257583));
#2080=CARTESIAN_POINT('',(-7.20000000000004,63.5000008940697,156.500002293919));
#2081=CARTESIAN_POINT('',(-6.80000000000004,63.9000009462237,169.500002264232));
#2082=CARTESIAN_POINT('Origin',(-7.00000000000004,60.0000008940697,156.500002279878));
#2083=CARTESIAN_POINT('',(-7.20000000000004,56.5000008940697,156.500002279878));
#2084=CARTESIAN_POINT('',(-7.20000000000004,56.5000008940697,156.500002279878));
#2085=CARTESIAN_POINT('Origin',(-7.20000000000004,60.0000008940697,156.500002279878));
#2086=CARTESIAN_POINT('Origin',(-7.00000000000004,56.3000008830371,159.250002264604));
#2087=CARTESIAN_POINT('',(-7.20000000000004,56.5000008419156,169.500002265836));
#2088=CARTESIAN_POINT('',(-7.20000000000004,56.5000008830371,159.250002265406));
#2089=CARTESIAN_POINT('Origin',(-7.00000000000004,60.0000008940697,169.500002279878));
#2090=CARTESIAN_POINT('Origin',(-6.80000000000004,60.0000008940697,156.500002279878));
#2091=CARTESIAN_POINT('',(-6.80000000000004,56.5000008940697,156.500002279878));
#2092=CARTESIAN_POINT('Origin',(-6.80000000000004,56.5000008940697,156.500002279878));
#2093=CARTESIAN_POINT('Origin',(-12.8,-1.99999993294477,150.999996848404));
#2094=CARTESIAN_POINT('',(-12.8,-0.999999932944773,149.999996848404));
#2095=CARTESIAN_POINT('',(-12.8,-2.99999993294477,151.999996848404));
#2096=CARTESIAN_POINT('Origin',(-12.8,-2.99999993294477,150.999996848404));
#2097=CARTESIAN_POINT('Origin',(-12.8,123.999997228384,172.999996356666));
#2098=CARTESIAN_POINT('',(-12.8,123.999997228384,171.999996356666));
#2099=CARTESIAN_POINT('Origin',(-12.8,122.999997228384,172.999996356666));
#2100=CARTESIAN_POINT('',(-12.8,121.999997228384,173.999996356666));
#2101=CARTESIAN_POINT('Origin',(-12.8,123.999997228384,149.999996848404));
#2102=CARTESIAN_POINT('Origin',(-12.8,-2.99999993294477,173.999996356666));
#2103=CARTESIAN_POINT('Origin',(-12.8,60.0000008940697,169.500002279878));
#2104=CARTESIAN_POINT('',(-12.8,58.4000008940697,169.500002279878));
#2105=CARTESIAN_POINT('Origin',(-12.8,60.0000008940697,163.000002279878));
#2106=CARTESIAN_POINT('',(-12.8,58.4000008940697,163.000002279878));
#2107=CARTESIAN_POINT('Origin',(-12.8,60.0000008940697,156.500002279878));
#2108=CARTESIAN_POINT('',(-12.8,58.4000008940697,156.500002279878));
#2109=CARTESIAN_POINT('Origin',(-6.80000000000004,115.500001721084,151.500002421439));
#2110=CARTESIAN_POINT('',(-6.80000000000004,74.0000017210841,151.500002421439));
#2111=CARTESIAN_POINT('',(-6.80000000000004,115.500001721084,151.500002421439));
#2112=CARTESIAN_POINT('Origin',(-6.80000000000004,115.500001721084,172.500002421439));
#2113=CARTESIAN_POINT('',(-6.80000000000004,115.500001721084,172.500002421439));
#2114=CARTESIAN_POINT('Origin',(-6.80000000000004,74.0000017210841,172.500002421439));
#2115=CARTESIAN_POINT('',(-6.80000000000004,74.0000017210841,172.500002421439));
#2116=CARTESIAN_POINT('Origin',(-6.80000000000004,74.0000017210841,151.500002421439));
#2117=CARTESIAN_POINT('Origin',(-6.80000000000004,4.50000006705523,151.500002108514));
#2118=CARTESIAN_POINT('',(-6.80000000000004,4.50000006705523,172.500002421439));
#2119=CARTESIAN_POINT('',(-6.80000000000004,4.50000006705523,151.500002108514));
#2120=CARTESIAN_POINT('Origin',(-6.80000000000004,46.0000006854534,151.500002108514));
#2121=CARTESIAN_POINT('',(-6.80000000000004,46.0000006854534,151.500002108514));
#2122=CARTESIAN_POINT('Origin',(-6.80000000000004,46.0000006854534,172.500002421439));
#2123=CARTESIAN_POINT('',(-6.80000000000004,46.0000006854534,172.500002421439));
#2124=CARTESIAN_POINT('Origin',(-6.80000000000004,4.50000006705523,172.500002421439));
#2125=UNCERTAINTY_MEASURE_WITH_UNIT(LENGTH_MEASURE(0.01),#2129,
'DISTANCE_ACCURACY_VALUE',
'Maximum model space distance between geometric entities at asserted c
onnectivities');
#2126=UNCERTAINTY_MEASURE_WITH_UNIT(LENGTH_MEASURE(0.01),#2129,
'DISTANCE_ACCURACY_VALUE',
'Maximum model space distance between geometric entities at asserted c
onnectivities');
#2127=(
GEOMETRIC_REPRESENTATION_CONTEXT(3)
GLOBAL_UNCERTAINTY_ASSIGNED_CONTEXT((#2125))
GLOBAL_UNIT_ASSIGNED_CONTEXT((#2129,#2131,#2132))
REPRESENTATION_CONTEXT('','3D')
);
#2128=(
GEOMETRIC_REPRESENTATION_CONTEXT(3)
GLOBAL_UNCERTAINTY_ASSIGNED_CONTEXT((#2126))
GLOBAL_UNIT_ASSIGNED_CONTEXT((#2129,#2131,#2132))
REPRESENTATION_CONTEXT('','3D')
);
#2129=(
LENGTH_UNIT()
NAMED_UNIT(*)
SI_UNIT(.MILLI.,.METRE.)
);
#2130=(
LENGTH_UNIT()
NAMED_UNIT(*)
SI_UNIT($,.METRE.)
);
#2131=(
NAMED_UNIT(*)
PLANE_ANGLE_UNIT()
SI_UNIT($,.RADIAN.)
);
#2132=(
NAMED_UNIT(*)
SI_UNIT($,.STERADIAN.)
SOLID_ANGLE_UNIT()
);
#2133=SHAPE_DEFINITION_REPRESENTATION(#2134,#2135);
#2134=PRODUCT_DEFINITION_SHAPE('',$,#2137);
#2135=SHAPE_REPRESENTATION('',(#1329),#2127);
#2136=PRODUCT_DEFINITION_CONTEXT('part definition',#2141,'design');
#2137=PRODUCT_DEFINITION('Middle Leg Front','Middle Leg Front',#2138,#2136);
#2138=PRODUCT_DEFINITION_FORMATION('',$,#2143);
#2139=PRODUCT_RELATED_PRODUCT_CATEGORY('Middle Leg Front',
'Middle Leg Front',(#2143));
#2140=APPLICATION_PROTOCOL_DEFINITION('international standard',
'automotive_design',2009,#2141);
#2141=APPLICATION_CONTEXT(
'Core Data for Automotive Mechanical Design Process');
#2142=PRODUCT_CONTEXT('part definition',#2141,'mechanical');
#2143=PRODUCT('Middle Leg Front','Middle Leg Front',$,(#2142));
#2144=PRESENTATION_STYLE_ASSIGNMENT((#2146));
#2145=PRESENTATION_STYLE_ASSIGNMENT((#2147));
#2146=SURFACE_STYLE_USAGE(.BOTH.,#2148);
#2147=SURFACE_STYLE_USAGE(.BOTH.,#2149);
#2148=SURFACE_SIDE_STYLE('',(#2150));
#2149=SURFACE_SIDE_STYLE('',(#2151));
#2150=SURFACE_STYLE_FILL_AREA(#2152);
#2151=SURFACE_STYLE_FILL_AREA(#2153);
#2152=FILL_AREA_STYLE('Steel - Satin',(#2154));
#2153=FILL_AREA_STYLE('ABS (White)',(#2155));
#2154=FILL_AREA_STYLE_COLOUR('Steel - Satin',#2156);
#2155=FILL_AREA_STYLE_COLOUR('ABS (White)',#2157);
#2156=COLOUR_RGB('Steel - Satin',0.627450980392157,0.627450980392157,0.627450980392157);
#2157=COLOUR_RGB('ABS (White)',0.964705882352941,0.964705882352941,0.952941176470588);
ENDSEC;
END-ISO-10303-21;
