ISO-10303-21;
HEADER;
/* Generated by software containing ST-Developer
 * from STEP Tools, Inc. (www.steptools.com) 
 */

FILE_DESCRIPTION(
/* description */ (''),
/* implementation_level */ '2;1');

FILE_NAME(
/* name */ 'Upper Leg upper hoop top.step',
/* time_stamp */ '2025-12-12T13:05:02+01:00',
/* author */ (''),
/* organization */ (''),
/* preprocessor_version */ 'ST-DEVELOPER v20.1',
/* originating_system */ 'Autodesk Translation Framework v14.21.0.0',
/* authorisation */ '');

FILE_SCHEMA (('AUTOMOTIVE_DESIGN { 1 0 10303 214 3 1 1 }'));
ENDSEC;

DATA;
#10=MECHANICAL_DESIGN_GEOMETRIC_PRESENTATION_REPRESENTATION('',(#13),#1811);
#11=SHAPE_REPRESENTATION_RELATIONSHIP('SRR','None',#1818,#12);
#12=ADVANCED_BREP_SHAPE_REPRESENTATION('',(#14),#1810);
#13=STYLED_ITEM('',(#1828),#14);
#14=MANIFOLD_SOLID_BREP('Body1',#1041);
#15=CONICAL_SURFACE('',#1102,1.725,0.785398163397475);
#16=CONICAL_SURFACE('',#1110,1.72499999999999,0.785398163397475);
#17=CONICAL_SURFACE('',#1114,1.72499999999999,0.785398163397475);
#18=CONICAL_SURFACE('',#1119,14.5,0.785398163397441);
#19=CONICAL_SURFACE('',#1121,14.5,0.785398163397446);
#20=B_SPLINE_CURVE_WITH_KNOTS('',3,(#1589,#1590,#1591,#1592),
 .UNSPECIFIED.,.F.,.F.,(4,4),(0.268050908917785,0.273070142299986),
 .UNSPECIFIED.);
#21=B_SPLINE_CURVE_WITH_KNOTS('',3,(#1685,#1686,#1687,#1688),
 .UNSPECIFIED.,.F.,.F.,(4,4),(0.,0.0689757014043494),.UNSPECIFIED.);
#22=B_SPLINE_CURVE_WITH_KNOTS('',3,(#1689,#1690,#1691,#1692,#1693,#1694,
#1695,#1696,#1697,#1698),.UNSPECIFIED.,.F.,.F.,(4,2,2,2,4),(0.,0.0243830127147674,
0.0487660254295348,0.0731490381443022,0.0975320508590696),.UNSPECIFIED.);
#23=B_SPLINE_CURVE_WITH_KNOTS('',3,(#1699,#1700,#1701,#1702),
 .UNSPECIFIED.,.F.,.F.,(4,4),(-0.141404975072078,0.),.UNSPECIFIED.);
#24=FACE_BOUND('',#118,.T.);
#25=FACE_BOUND('',#119,.T.);
#26=FACE_BOUND('',#131,.T.);
#27=FACE_BOUND('',#132,.T.);
#28=FACE_BOUND('',#139,.T.);
#29=FACE_BOUND('',#140,.T.);
#30=PLANE('',#1058);
#31=PLANE('',#1059);
#32=PLANE('',#1069);
#33=PLANE('',#1070);
#34=PLANE('',#1090);
#35=PLANE('',#1091);
#36=PLANE('',#1101);
#37=PLANE('',#1105);
#38=PLANE('',#1115);
#39=PLANE('',#1116);
#40=PLANE('',#1120);
#41=PLANE('',#1123);
#42=PLANE('',#1124);
#43=PLANE('',#1126);
#44=PLANE('',#1127);
#45=PLANE('',#1128);
#46=PLANE('',#1135);
#47=PLANE('',#1136);
#48=PLANE('',#1138);
#49=PLANE('',#1149);
#50=PLANE('',#1152);
#51=PLANE('',#1157);
#52=PLANE('',#1158);
#53=PLANE('',#1159);
#54=PLANE('',#1160);
#55=PLANE('',#1162);
#56=PLANE('',#1166);
#57=FACE_OUTER_BOUND('',#112,.T.);
#58=FACE_OUTER_BOUND('',#113,.T.);
#59=FACE_OUTER_BOUND('',#114,.T.);
#60=FACE_OUTER_BOUND('',#115,.T.);
#61=FACE_OUTER_BOUND('',#116,.T.);
#62=FACE_OUTER_BOUND('',#117,.T.);
#63=FACE_OUTER_BOUND('',#120,.T.);
#64=FACE_OUTER_BOUND('',#121,.T.);
#65=FACE_OUTER_BOUND('',#122,.T.);
#66=FACE_OUTER_BOUND('',#123,.T.);
#67=FACE_OUTER_BOUND('',#124,.T.);
#68=FACE_OUTER_BOUND('',#125,.T.);
#69=FACE_OUTER_BOUND('',#126,.T.);
#70=FACE_OUTER_BOUND('',#127,.T.);
#71=FACE_OUTER_BOUND('',#128,.T.);
#72=FACE_OUTER_BOUND('',#129,.T.);
#73=FACE_OUTER_BOUND('',#130,.T.);
#74=FACE_OUTER_BOUND('',#133,.T.);
#75=FACE_OUTER_BOUND('',#134,.T.);
#76=FACE_OUTER_BOUND('',#135,.T.);
#77=FACE_OUTER_BOUND('',#136,.T.);
#78=FACE_OUTER_BOUND('',#137,.T.);
#79=FACE_OUTER_BOUND('',#138,.T.);
#80=FACE_OUTER_BOUND('',#141,.T.);
#81=FACE_OUTER_BOUND('',#142,.T.);
#82=FACE_OUTER_BOUND('',#143,.T.);
#83=FACE_OUTER_BOUND('',#144,.T.);
#84=FACE_OUTER_BOUND('',#145,.T.);
#85=FACE_OUTER_BOUND('',#146,.T.);
#86=FACE_OUTER_BOUND('',#147,.T.);
#87=FACE_OUTER_BOUND('',#148,.T.);
#88=FACE_OUTER_BOUND('',#149,.T.);
#89=FACE_OUTER_BOUND('',#150,.T.);
#90=FACE_OUTER_BOUND('',#151,.T.);
#91=FACE_OUTER_BOUND('',#152,.T.);
#92=FACE_OUTER_BOUND('',#153,.T.);
#93=FACE_OUTER_BOUND('',#154,.T.);
#94=FACE_OUTER_BOUND('',#155,.T.);
#95=FACE_OUTER_BOUND('',#156,.T.);
#96=FACE_OUTER_BOUND('',#157,.T.);
#97=FACE_OUTER_BOUND('',#158,.T.);
#98=FACE_OUTER_BOUND('',#159,.T.);
#99=FACE_OUTER_BOUND('',#160,.T.);
#100=FACE_OUTER_BOUND('',#161,.T.);
#101=FACE_OUTER_BOUND('',#162,.T.);
#102=FACE_OUTER_BOUND('',#163,.T.);
#103=FACE_OUTER_BOUND('',#164,.T.);
#104=FACE_OUTER_BOUND('',#165,.T.);
#105=FACE_OUTER_BOUND('',#166,.T.);
#106=FACE_OUTER_BOUND('',#167,.T.);
#107=FACE_OUTER_BOUND('',#168,.T.);
#108=FACE_OUTER_BOUND('',#169,.T.);
#109=FACE_OUTER_BOUND('',#170,.T.);
#110=FACE_OUTER_BOUND('',#171,.T.);
#111=FACE_OUTER_BOUND('',#172,.T.);
#112=EDGE_LOOP('',(#661,#662,#663,#664));
#113=EDGE_LOOP('',(#665,#666,#667,#668));
#114=EDGE_LOOP('',(#669,#670,#671,#672,#673,#674,#675,#676,#677,#678,#679,
#680,#681,#682,#683));
#115=EDGE_LOOP('',(#684,#685,#686,#687));
#116=EDGE_LOOP('',(#688,#689,#690,#691));
#117=EDGE_LOOP('',(#692,#693,#694,#695,#696,#697,#698,#699,#700,#701,#702,
#703,#704,#705,#706,#707,#708,#709,#710,#711,#712,#713,#714,#715,#716,#717));
#118=EDGE_LOOP('',(#718));
#119=EDGE_LOOP('',(#719));
#120=EDGE_LOOP('',(#720,#721,#722,#723));
#121=EDGE_LOOP('',(#724,#725,#726,#727));
#122=EDGE_LOOP('',(#728,#729,#730,#731,#732,#733));
#123=EDGE_LOOP('',(#734,#735,#736,#737));
#124=EDGE_LOOP('',(#738,#739,#740,#741,#742,#743,#744,#745,#746));
#125=EDGE_LOOP('',(#747,#748,#749,#750));
#126=EDGE_LOOP('',(#751,#752,#753,#754));
#127=EDGE_LOOP('',(#755,#756,#757,#758,#759,#760));
#128=EDGE_LOOP('',(#761,#762,#763,#764));
#129=EDGE_LOOP('',(#765,#766,#767,#768));
#130=EDGE_LOOP('',(#769,#770,#771,#772,#773,#774,#775,#776,#777));
#131=EDGE_LOOP('',(#778));
#132=EDGE_LOOP('',(#779));
#133=EDGE_LOOP('',(#780,#781,#782,#783));
#134=EDGE_LOOP('',(#784,#785,#786,#787));
#135=EDGE_LOOP('',(#788,#789,#790,#791));
#136=EDGE_LOOP('',(#792,#793,#794,#795));
#137=EDGE_LOOP('',(#796,#797,#798,#799));
#138=EDGE_LOOP('',(#800,#801,#802,#803,#804,#805));
#139=EDGE_LOOP('',(#806));
#140=EDGE_LOOP('',(#807));
#141=EDGE_LOOP('',(#808,#809,#810,#811,#812,#813));
#142=EDGE_LOOP('',(#814,#815,#816,#817));
#143=EDGE_LOOP('',(#818,#819,#820,#821));
#144=EDGE_LOOP('',(#822,#823,#824,#825));
#145=EDGE_LOOP('',(#826,#827,#828,#829));
#146=EDGE_LOOP('',(#830,#831,#832,#833,#834));
#147=EDGE_LOOP('',(#835,#836,#837,#838,#839));
#148=EDGE_LOOP('',(#840,#841,#842,#843));
#149=EDGE_LOOP('',(#844,#845,#846,#847,#848,#849));
#150=EDGE_LOOP('',(#850,#851,#852,#853));
#151=EDGE_LOOP('',(#854,#855,#856,#857));
#152=EDGE_LOOP('',(#858,#859,#860,#861,#862,#863));
#153=EDGE_LOOP('',(#864,#865,#866,#867));
#154=EDGE_LOOP('',(#868,#869,#870,#871,#872,#873));
#155=EDGE_LOOP('',(#874,#875,#876,#877,#878,#879,#880,#881));
#156=EDGE_LOOP('',(#882,#883,#884,#885,#886,#887,#888,#889));
#157=EDGE_LOOP('',(#890,#891,#892,#893));
#158=EDGE_LOOP('',(#894,#895,#896,#897,#898));
#159=EDGE_LOOP('',(#899,#900,#901,#902,#903));
#160=EDGE_LOOP('',(#904,#905,#906,#907,#908));
#161=EDGE_LOOP('',(#909,#910,#911,#912));
#162=EDGE_LOOP('',(#913,#914,#915,#916));
#163=EDGE_LOOP('',(#917,#918,#919,#920,#921,#922));
#164=EDGE_LOOP('',(#923,#924,#925,#926,#927,#928));
#165=EDGE_LOOP('',(#929,#930,#931,#932,#933,#934));
#166=EDGE_LOOP('',(#935,#936,#937,#938));
#167=EDGE_LOOP('',(#939,#940,#941,#942));
#168=EDGE_LOOP('',(#943,#944,#945,#946));
#169=EDGE_LOOP('',(#947,#948,#949,#950));
#170=EDGE_LOOP('',(#951,#952,#953,#954));
#171=EDGE_LOOP('',(#955,#956,#957,#958));
#172=EDGE_LOOP('',(#959,#960,#961,#962));
#173=LINE('',#1489,#263);
#174=LINE('',#1492,#264);
#175=LINE('',#1495,#265);
#176=LINE('',#1497,#266);
#177=LINE('',#1498,#267);
#178=LINE('',#1505,#268);
#179=LINE('',#1509,#269);
#180=LINE('',#1515,#270);
#181=LINE('',#1519,#271);
#182=LINE('',#1521,#272);
#183=LINE('',#1523,#273);
#184=LINE('',#1527,#274);
#185=LINE('',#1530,#275);
#186=LINE('',#1533,#276);
#187=LINE('',#1534,#277);
#188=LINE('',#1541,#278);
#189=LINE('',#1543,#279);
#190=LINE('',#1545,#280);
#191=LINE('',#1551,#281);
#192=LINE('',#1555,#282);
#193=LINE('',#1561,#283);
#194=LINE('',#1567,#284);
#195=LINE('',#1572,#285);
#196=LINE('',#1576,#286);
#197=LINE('',#1583,#287);
#198=LINE('',#1585,#288);
#199=LINE('',#1594,#289);
#200=LINE('',#1597,#290);
#201=LINE('',#1598,#291);
#202=LINE('',#1601,#292);
#203=LINE('',#1602,#293);
#204=LINE('',#1609,#294);
#205=LINE('',#1615,#295);
#206=LINE('',#1618,#296);
#207=LINE('',#1619,#297);
#208=LINE('',#1621,#298);
#209=LINE('',#1625,#299);
#210=LINE('',#1626,#300);
#211=LINE('',#1628,#301);
#212=LINE('',#1633,#302);
#213=LINE('',#1638,#303);
#214=LINE('',#1640,#304);
#215=LINE('',#1642,#305);
#216=LINE('',#1648,#306);
#217=LINE('',#1650,#307);
#218=LINE('',#1652,#308);
#219=LINE('',#1653,#309);
#220=LINE('',#1657,#310);
#221=LINE('',#1660,#311);
#222=LINE('',#1665,#312);
#223=LINE('',#1667,#313);
#224=LINE('',#1670,#314);
#225=LINE('',#1672,#315);
#226=LINE('',#1673,#316);
#227=LINE('',#1676,#317);
#228=LINE('',#1677,#318);
#229=LINE('',#1678,#319);
#230=LINE('',#1705,#320);
#231=LINE('',#1707,#321);
#232=LINE('',#1708,#322);
#233=LINE('',#1713,#323);
#234=LINE('',#1714,#324);
#235=LINE('',#1716,#325);
#236=LINE('',#1717,#326);
#237=LINE('',#1721,#327);
#238=LINE('',#1722,#328);
#239=LINE('',#1725,#329);
#240=LINE('',#1726,#330);
#241=LINE('',#1728,#331);
#242=LINE('',#1729,#332);
#243=LINE('',#1735,#333);
#244=LINE('',#1738,#334);
#245=LINE('',#1744,#335);
#246=LINE('',#1747,#336);
#247=LINE('',#1751,#337);
#248=LINE('',#1753,#338);
#249=LINE('',#1756,#339);
#250=LINE('',#1761,#340);
#251=LINE('',#1768,#341);
#252=LINE('',#1773,#342);
#253=LINE('',#1780,#343);
#254=LINE('',#1781,#344);
#255=LINE('',#1788,#345);
#256=LINE('',#1789,#346);
#257=LINE('',#1791,#347);
#258=LINE('',#1793,#348);
#259=LINE('',#1798,#349);
#260=LINE('',#1800,#350);
#261=LINE('',#1802,#351);
#262=LINE('',#1806,#352);
#263=VECTOR('',#1173,10.);
#264=VECTOR('',#1176,10.);
#265=VECTOR('',#1179,10.);
#266=VECTOR('',#1180,10.);
#267=VECTOR('',#1181,10.);
#268=VECTOR('',#1188,10.);
#269=VECTOR('',#1191,10.);
#270=VECTOR('',#1196,10.);
#271=VECTOR('',#1199,10.);
#272=VECTOR('',#1200,10.);
#273=VECTOR('',#1201,10.);
#274=VECTOR('',#1206,10.);
#275=VECTOR('',#1209,10.);
#276=VECTOR('',#1212,10.);
#277=VECTOR('',#1213,10.);
#278=VECTOR('',#1220,10.);
#279=VECTOR('',#1221,10.);
#280=VECTOR('',#1222,10.);
#281=VECTOR('',#1227,10.);
#282=VECTOR('',#1230,10.);
#283=VECTOR('',#1235,10.);
#284=VECTOR('',#1240,10.);
#285=VECTOR('',#1245,10.);
#286=VECTOR('',#1248,10.);
#287=VECTOR('',#1257,10.);
#288=VECTOR('',#1260,10.);
#289=VECTOR('',#1263,10.);
#290=VECTOR('',#1266,10.);
#291=VECTOR('',#1267,10.);
#292=VECTOR('',#1270,10.);
#293=VECTOR('',#1271,23.5);
#294=VECTOR('',#1278,10.);
#295=VECTOR('',#1283,10.);
#296=VECTOR('',#1288,10.);
#297=VECTOR('',#1289,10.);
#298=VECTOR('',#1292,10.);
#299=VECTOR('',#1297,10.);
#300=VECTOR('',#1298,10.);
#301=VECTOR('',#1301,10.);
#302=VECTOR('',#1306,1.725);
#303=VECTOR('',#1311,10.);
#304=VECTOR('',#1312,10.);
#305=VECTOR('',#1313,10.);
#306=VECTOR('',#1318,10.);
#307=VECTOR('',#1319,10.);
#308=VECTOR('',#1320,10.);
#309=VECTOR('',#1321,10.);
#310=VECTOR('',#1326,1.6);
#311=VECTOR('',#1329,1.72499999999999);
#312=VECTOR('',#1336,1.59999999999999);
#313=VECTOR('',#1339,1.72499999999999);
#314=VECTOR('',#1342,10.);
#315=VECTOR('',#1343,10.);
#316=VECTOR('',#1344,10.);
#317=VECTOR('',#1347,10.);
#318=VECTOR('',#1348,10.);
#319=VECTOR('',#1349,10.);
#320=VECTOR('',#1358,10.);
#321=VECTOR('',#1359,10.);
#322=VECTOR('',#1360,10.);
#323=VECTOR('',#1367,10.);
#324=VECTOR('',#1368,10.);
#325=VECTOR('',#1371,15.);
#326=VECTOR('',#1372,10.);
#327=VECTOR('',#1377,10.);
#328=VECTOR('',#1378,10.);
#329=VECTOR('',#1381,10.);
#330=VECTOR('',#1382,10.);
#331=VECTOR('',#1385,10.);
#332=VECTOR('',#1386,10.);
#333=VECTOR('',#1391,10.);
#334=VECTOR('',#1394,10.);
#335=VECTOR('',#1399,10.);
#336=VECTOR('',#1402,10.);
#337=VECTOR('',#1407,10.);
#338=VECTOR('',#1408,10.);
#339=VECTOR('',#1413,10.);
#340=VECTOR('',#1418,2.04999999999999);
#341=VECTOR('',#1427,2.05);
#342=VECTOR('',#1436,10.);
#343=VECTOR('',#1443,10.);
#344=VECTOR('',#1444,10.);
#345=VECTOR('',#1451,10.);
#346=VECTOR('',#1452,10.);
#347=VECTOR('',#1455,2.04999999999999);
#348=VECTOR('',#1458,2.05);
#349=VECTOR('',#1467,10.);
#350=VECTOR('',#1470,10.);
#351=VECTOR('',#1473,10.);
#352=VECTOR('',#1480,10.);
#353=CIRCLE('',#1056,1.5);
#354=CIRCLE('',#1057,1.5);
#355=CIRCLE('',#1060,7.80000000000001);
#356=CIRCLE('',#1061,8.69999999999988);
#357=CIRCLE('',#1062,3.8);
#358=CIRCLE('',#1063,8.69999999999995);
#359=CIRCLE('',#1064,1.5);
#360=CIRCLE('',#1065,1.);
#361=CIRCLE('',#1066,0.5);
#362=CIRCLE('',#1068,1.5);
#363=CIRCLE('',#1071,7.80000000000001);
#364=CIRCLE('',#1072,0.5);
#365=CIRCLE('',#1073,15.);
#366=CIRCLE('',#1074,0.5);
#367=CIRCLE('',#1075,23.3);
#368=CIRCLE('',#1076,7.79999999999997);
#369=CIRCLE('',#1077,2.);
#370=CIRCLE('',#1078,1.);
#371=CIRCLE('',#1079,15.);
#372=CIRCLE('',#1080,1.);
#373=CIRCLE('',#1081,8.69999999999995);
#374=CIRCLE('',#1082,3.8);
#375=CIRCLE('',#1083,8.69999999999988);
#376=CIRCLE('',#1084,1.6);
#377=CIRCLE('',#1085,1.84999999999999);
#378=CIRCLE('',#1089,0.5);
#379=CIRCLE('',#1092,15.);
#380=CIRCLE('',#1093,1.);
#381=CIRCLE('',#1094,2.);
#382=CIRCLE('',#1095,7.79999999999997);
#383=CIRCLE('',#1096,23.3);
#384=CIRCLE('',#1100,15.);
#385=CIRCLE('',#1103,1.85);
#386=CIRCLE('',#1104,1.6);
#387=CIRCLE('',#1106,14.);
#388=CIRCLE('',#1107,14.);
#389=CIRCLE('',#1108,1.84999999999999);
#390=CIRCLE('',#1111,1.59999999999999);
#391=CIRCLE('',#1113,1.59999999999999);
#392=CIRCLE('',#1117,2.05);
#393=CIRCLE('',#1118,2.04999999999999);
#394=CIRCLE('',#1122,15.);
#395=CIRCLE('',#1130,2.04999999999999);
#396=CIRCLE('',#1131,2.04999999999999);
#397=CIRCLE('',#1133,2.05);
#398=CIRCLE('',#1134,2.05);
#399=CIRCLE('',#1137,1.);
#400=CIRCLE('',#1140,2.04999999999999);
#401=CIRCLE('',#1141,2.04999999999999);
#402=CIRCLE('',#1142,2.04999999999999);
#403=CIRCLE('',#1144,2.05);
#404=CIRCLE('',#1145,2.05);
#405=CIRCLE('',#1146,2.05);
#406=CIRCLE('',#1150,1.55);
#407=CIRCLE('',#1151,1.55);
#408=CIRCLE('',#1153,1.55);
#409=CIRCLE('',#1154,1.55);
#410=VERTEX_POINT('',#1485);
#411=VERTEX_POINT('',#1486);
#412=VERTEX_POINT('',#1488);
#413=VERTEX_POINT('',#1490);
#414=VERTEX_POINT('',#1494);
#415=VERTEX_POINT('',#1496);
#416=VERTEX_POINT('',#1500);
#417=VERTEX_POINT('',#1502);
#418=VERTEX_POINT('',#1504);
#419=VERTEX_POINT('',#1506);
#420=VERTEX_POINT('',#1508);
#421=VERTEX_POINT('',#1510);
#422=VERTEX_POINT('',#1512);
#423=VERTEX_POINT('',#1514);
#424=VERTEX_POINT('',#1516);
#425=VERTEX_POINT('',#1518);
#426=VERTEX_POINT('',#1520);
#427=VERTEX_POINT('',#1522);
#428=VERTEX_POINT('',#1526);
#429=VERTEX_POINT('',#1528);
#430=VERTEX_POINT('',#1532);
#431=VERTEX_POINT('',#1536);
#432=VERTEX_POINT('',#1538);
#433=VERTEX_POINT('',#1540);
#434=VERTEX_POINT('',#1542);
#435=VERTEX_POINT('',#1544);
#436=VERTEX_POINT('',#1546);
#437=VERTEX_POINT('',#1548);
#438=VERTEX_POINT('',#1550);
#439=VERTEX_POINT('',#1552);
#440=VERTEX_POINT('',#1554);
#441=VERTEX_POINT('',#1556);
#442=VERTEX_POINT('',#1558);
#443=VERTEX_POINT('',#1560);
#444=VERTEX_POINT('',#1562);
#445=VERTEX_POINT('',#1564);
#446=VERTEX_POINT('',#1566);
#447=VERTEX_POINT('',#1569);
#448=VERTEX_POINT('',#1571);
#449=VERTEX_POINT('',#1573);
#450=VERTEX_POINT('',#1575);
#451=VERTEX_POINT('',#1578);
#452=VERTEX_POINT('',#1580);
#453=VERTEX_POINT('',#1587);
#454=VERTEX_POINT('',#1588);
#455=VERTEX_POINT('',#1593);
#456=VERTEX_POINT('',#1595);
#457=VERTEX_POINT('',#1600);
#458=VERTEX_POINT('',#1604);
#459=VERTEX_POINT('',#1606);
#460=VERTEX_POINT('',#1608);
#461=VERTEX_POINT('',#1610);
#462=VERTEX_POINT('',#1612);
#463=VERTEX_POINT('',#1614);
#464=VERTEX_POINT('',#1623);
#465=VERTEX_POINT('',#1630);
#466=VERTEX_POINT('',#1632);
#467=VERTEX_POINT('',#1636);
#468=VERTEX_POINT('',#1637);
#469=VERTEX_POINT('',#1639);
#470=VERTEX_POINT('',#1641);
#471=VERTEX_POINT('',#1643);
#472=VERTEX_POINT('',#1645);
#473=VERTEX_POINT('',#1647);
#474=VERTEX_POINT('',#1649);
#475=VERTEX_POINT('',#1651);
#476=VERTEX_POINT('',#1654);
#477=VERTEX_POINT('',#1659);
#478=VERTEX_POINT('',#1663);
#479=VERTEX_POINT('',#1669);
#480=VERTEX_POINT('',#1671);
#481=VERTEX_POINT('',#1675);
#482=VERTEX_POINT('',#1679);
#483=VERTEX_POINT('',#1681);
#484=VERTEX_POINT('',#1684);
#485=VERTEX_POINT('',#1704);
#486=VERTEX_POINT('',#1706);
#487=VERTEX_POINT('',#1712);
#488=VERTEX_POINT('',#1720);
#489=VERTEX_POINT('',#1724);
#490=VERTEX_POINT('',#1731);
#491=VERTEX_POINT('',#1732);
#492=VERTEX_POINT('',#1734);
#493=VERTEX_POINT('',#1736);
#494=VERTEX_POINT('',#1740);
#495=VERTEX_POINT('',#1741);
#496=VERTEX_POINT('',#1743);
#497=VERTEX_POINT('',#1745);
#498=VERTEX_POINT('',#1750);
#499=VERTEX_POINT('',#1752);
#500=VERTEX_POINT('',#1758);
#501=VERTEX_POINT('',#1760);
#502=VERTEX_POINT('',#1765);
#503=VERTEX_POINT('',#1767);
#504=VERTEX_POINT('',#1775);
#505=VERTEX_POINT('',#1776);
#506=VERTEX_POINT('',#1778);
#507=VERTEX_POINT('',#1783);
#508=VERTEX_POINT('',#1784);
#509=VERTEX_POINT('',#1786);
#510=EDGE_CURVE('',#410,#411,#353,.T.);
#511=EDGE_CURVE('',#411,#412,#173,.T.);
#512=EDGE_CURVE('',#412,#413,#354,.F.);
#513=EDGE_CURVE('',#413,#410,#174,.T.);
#514=EDGE_CURVE('',#414,#411,#175,.T.);
#515=EDGE_CURVE('',#415,#414,#176,.T.);
#516=EDGE_CURVE('',#412,#415,#177,.T.);
#517=EDGE_CURVE('',#410,#416,#355,.T.);
#518=EDGE_CURVE('',#416,#417,#356,.T.);
#519=EDGE_CURVE('',#417,#418,#178,.T.);
#520=EDGE_CURVE('',#418,#419,#357,.T.);
#521=EDGE_CURVE('',#419,#420,#179,.T.);
#522=EDGE_CURVE('',#420,#421,#358,.T.);
#523=EDGE_CURVE('',#422,#421,#359,.T.);
#524=EDGE_CURVE('',#422,#423,#180,.T.);
#525=EDGE_CURVE('',#424,#423,#360,.T.);
#526=EDGE_CURVE('',#425,#424,#181,.T.);
#527=EDGE_CURVE('',#426,#425,#182,.T.);
#528=EDGE_CURVE('',#427,#426,#183,.T.);
#529=EDGE_CURVE('',#414,#427,#361,.T.);
#530=EDGE_CURVE('',#421,#428,#184,.T.);
#531=EDGE_CURVE('',#428,#429,#362,.F.);
#532=EDGE_CURVE('',#429,#422,#185,.T.);
#533=EDGE_CURVE('',#430,#429,#186,.T.);
#534=EDGE_CURVE('',#423,#430,#187,.T.);
#535=EDGE_CURVE('',#431,#413,#363,.T.);
#536=EDGE_CURVE('',#432,#415,#364,.T.);
#537=EDGE_CURVE('',#433,#432,#188,.T.);
#538=EDGE_CURVE('',#433,#434,#189,.T.);
#539=EDGE_CURVE('',#434,#435,#190,.T.);
#540=EDGE_CURVE('',#436,#435,#365,.T.);
#541=EDGE_CURVE('',#436,#437,#366,.T.);
#542=EDGE_CURVE('',#437,#438,#191,.T.);
#543=EDGE_CURVE('',#438,#439,#367,.F.);
#544=EDGE_CURVE('',#439,#440,#192,.T.);
#545=EDGE_CURVE('',#440,#441,#368,.T.);
#546=EDGE_CURVE('',#442,#441,#369,.F.);
#547=EDGE_CURVE('',#442,#443,#193,.T.);
#548=EDGE_CURVE('',#444,#443,#370,.T.);
#549=EDGE_CURVE('',#445,#444,#371,.T.);
#550=EDGE_CURVE('',#446,#445,#194,.T.);
#551=EDGE_CURVE('',#430,#446,#372,.T.);
#552=EDGE_CURVE('',#428,#447,#373,.T.);
#553=EDGE_CURVE('',#448,#447,#195,.F.);
#554=EDGE_CURVE('',#449,#448,#374,.F.);
#555=EDGE_CURVE('',#449,#450,#196,.T.);
#556=EDGE_CURVE('',#450,#431,#375,.T.);
#557=EDGE_CURVE('',#451,#451,#376,.T.);
#558=EDGE_CURVE('',#452,#452,#377,.T.);
#559=EDGE_CURVE('',#447,#420,#197,.T.);
#560=EDGE_CURVE('',#431,#416,#198,.T.);
#561=EDGE_CURVE('',#453,#454,#20,.T.);
#562=EDGE_CURVE('',#454,#455,#199,.T.);
#563=EDGE_CURVE('',#455,#456,#378,.T.);
#564=EDGE_CURVE('',#456,#437,#200,.T.);
#565=EDGE_CURVE('',#436,#453,#201,.F.);
#566=EDGE_CURVE('',#457,#456,#202,.T.);
#567=EDGE_CURVE('',#438,#457,#203,.T.);
#568=EDGE_CURVE('',#458,#455,#379,.T.);
#569=EDGE_CURVE('',#459,#458,#380,.T.);
#570=EDGE_CURVE('',#459,#460,#204,.T.);
#571=EDGE_CURVE('',#461,#460,#381,.T.);
#572=EDGE_CURVE('',#461,#462,#382,.T.);
#573=EDGE_CURVE('',#462,#463,#205,.T.);
#574=EDGE_CURVE('',#457,#463,#383,.T.);
#575=EDGE_CURVE('',#460,#442,#206,.T.);
#576=EDGE_CURVE('',#441,#461,#207,.T.);
#577=EDGE_CURVE('',#440,#462,#208,.T.);
#578=EDGE_CURVE('',#464,#454,#384,.T.);
#579=EDGE_CURVE('',#445,#464,#209,.T.);
#580=EDGE_CURVE('',#458,#444,#210,.T.);
#581=EDGE_CURVE('',#443,#459,#211,.T.);
#582=EDGE_CURVE('',#465,#465,#385,.T.);
#583=EDGE_CURVE('',#465,#466,#212,.T.);
#584=EDGE_CURVE('',#466,#466,#386,.T.);
#585=EDGE_CURVE('',#467,#468,#213,.T.);
#586=EDGE_CURVE('',#467,#469,#214,.T.);
#587=EDGE_CURVE('',#470,#469,#215,.T.);
#588=EDGE_CURVE('',#471,#470,#387,.T.);
#589=EDGE_CURVE('',#472,#471,#388,.T.);
#590=EDGE_CURVE('',#473,#472,#216,.T.);
#591=EDGE_CURVE('',#473,#474,#217,.T.);
#592=EDGE_CURVE('',#475,#474,#218,.T.);
#593=EDGE_CURVE('',#468,#475,#219,.T.);
#594=EDGE_CURVE('',#476,#476,#389,.T.);
#595=EDGE_CURVE('',#451,#466,#220,.T.);
#596=EDGE_CURVE('',#476,#477,#221,.T.);
#597=EDGE_CURVE('',#477,#477,#390,.T.);
#598=EDGE_CURVE('',#478,#478,#391,.T.);
#599=EDGE_CURVE('',#478,#477,#222,.T.);
#600=EDGE_CURVE('',#452,#478,#223,.T.);
#601=EDGE_CURVE('',#468,#479,#224,.T.);
#602=EDGE_CURVE('',#479,#480,#225,.T.);
#603=EDGE_CURVE('',#480,#467,#226,.T.);
#604=EDGE_CURVE('',#481,#475,#227,.T.);
#605=EDGE_CURVE('',#481,#426,#228,.T.);
#606=EDGE_CURVE('',#425,#479,#229,.T.);
#607=EDGE_CURVE('',#482,#482,#392,.T.);
#608=EDGE_CURVE('',#483,#483,#393,.T.);
#609=EDGE_CURVE('',#484,#453,#21,.T.);
#610=EDGE_CURVE('',#484,#471,#22,.T.);
#611=EDGE_CURVE('',#470,#464,#23,.T.);
#612=EDGE_CURVE('',#485,#473,#230,.T.);
#613=EDGE_CURVE('',#472,#486,#231,.T.);
#614=EDGE_CURVE('',#486,#485,#232,.T.);
#615=EDGE_CURVE('',#484,#486,#394,.T.);
#616=EDGE_CURVE('',#469,#487,#233,.F.);
#617=EDGE_CURVE('',#487,#464,#234,.T.);
#618=EDGE_CURVE('',#435,#486,#235,.T.);
#619=EDGE_CURVE('',#485,#434,#236,.T.);
#620=EDGE_CURVE('',#488,#487,#237,.T.);
#621=EDGE_CURVE('',#446,#488,#238,.T.);
#622=EDGE_CURVE('',#474,#489,#239,.F.);
#623=EDGE_CURVE('',#489,#481,#240,.T.);
#624=EDGE_CURVE('',#489,#433,#241,.T.);
#625=EDGE_CURVE('',#427,#432,#242,.T.);
#626=EDGE_CURVE('',#490,#491,#395,.T.);
#627=EDGE_CURVE('',#492,#490,#243,.T.);
#628=EDGE_CURVE('',#492,#493,#396,.T.);
#629=EDGE_CURVE('',#491,#493,#244,.T.);
#630=EDGE_CURVE('',#494,#495,#397,.T.);
#631=EDGE_CURVE('',#496,#494,#245,.T.);
#632=EDGE_CURVE('',#496,#497,#398,.T.);
#633=EDGE_CURVE('',#495,#497,#246,.T.);
#634=EDGE_CURVE('',#498,#488,#247,.T.);
#635=EDGE_CURVE('',#499,#498,#248,.T.);
#636=EDGE_CURVE('',#446,#499,#399,.T.);
#637=EDGE_CURVE('',#498,#480,#249,.T.);
#638=EDGE_CURVE('',#500,#500,#400,.T.);
#639=EDGE_CURVE('',#500,#501,#250,.T.);
#640=EDGE_CURVE('',#501,#492,#401,.T.);
#641=EDGE_CURVE('',#493,#501,#402,.T.);
#642=EDGE_CURVE('',#502,#502,#403,.T.);
#643=EDGE_CURVE('',#502,#503,#251,.T.);
#644=EDGE_CURVE('',#503,#496,#404,.T.);
#645=EDGE_CURVE('',#497,#503,#405,.T.);
#646=EDGE_CURVE('',#499,#424,#252,.T.);
#647=EDGE_CURVE('',#504,#505,#406,.T.);
#648=EDGE_CURVE('',#506,#504,#407,.T.);
#649=EDGE_CURVE('',#493,#506,#253,.T.);
#650=EDGE_CURVE('',#505,#492,#254,.T.);
#651=EDGE_CURVE('',#507,#508,#408,.T.);
#652=EDGE_CURVE('',#509,#507,#409,.T.);
#653=EDGE_CURVE('',#497,#509,#255,.T.);
#654=EDGE_CURVE('',#508,#496,#256,.T.);
#655=EDGE_CURVE('',#483,#500,#257,.T.);
#656=EDGE_CURVE('',#482,#502,#258,.T.);
#657=EDGE_CURVE('',#448,#419,#259,.T.);
#658=EDGE_CURVE('',#449,#418,#260,.T.);
#659=EDGE_CURVE('',#450,#417,#261,.T.);
#660=EDGE_CURVE('',#463,#439,#262,.T.);
#661=ORIENTED_EDGE('',*,*,#510,.T.);
#662=ORIENTED_EDGE('',*,*,#511,.T.);
#663=ORIENTED_EDGE('',*,*,#512,.T.);
#664=ORIENTED_EDGE('',*,*,#513,.T.);
#665=ORIENTED_EDGE('',*,*,#511,.F.);
#666=ORIENTED_EDGE('',*,*,#514,.F.);
#667=ORIENTED_EDGE('',*,*,#515,.F.);
#668=ORIENTED_EDGE('',*,*,#516,.F.);
#669=ORIENTED_EDGE('',*,*,#510,.F.);
#670=ORIENTED_EDGE('',*,*,#517,.T.);
#671=ORIENTED_EDGE('',*,*,#518,.T.);
#672=ORIENTED_EDGE('',*,*,#519,.T.);
#673=ORIENTED_EDGE('',*,*,#520,.T.);
#674=ORIENTED_EDGE('',*,*,#521,.T.);
#675=ORIENTED_EDGE('',*,*,#522,.T.);
#676=ORIENTED_EDGE('',*,*,#523,.F.);
#677=ORIENTED_EDGE('',*,*,#524,.T.);
#678=ORIENTED_EDGE('',*,*,#525,.F.);
#679=ORIENTED_EDGE('',*,*,#526,.F.);
#680=ORIENTED_EDGE('',*,*,#527,.F.);
#681=ORIENTED_EDGE('',*,*,#528,.F.);
#682=ORIENTED_EDGE('',*,*,#529,.F.);
#683=ORIENTED_EDGE('',*,*,#514,.T.);
#684=ORIENTED_EDGE('',*,*,#523,.T.);
#685=ORIENTED_EDGE('',*,*,#530,.T.);
#686=ORIENTED_EDGE('',*,*,#531,.T.);
#687=ORIENTED_EDGE('',*,*,#532,.T.);
#688=ORIENTED_EDGE('',*,*,#532,.F.);
#689=ORIENTED_EDGE('',*,*,#533,.F.);
#690=ORIENTED_EDGE('',*,*,#534,.F.);
#691=ORIENTED_EDGE('',*,*,#524,.F.);
#692=ORIENTED_EDGE('',*,*,#535,.T.);
#693=ORIENTED_EDGE('',*,*,#512,.F.);
#694=ORIENTED_EDGE('',*,*,#516,.T.);
#695=ORIENTED_EDGE('',*,*,#536,.F.);
#696=ORIENTED_EDGE('',*,*,#537,.F.);
#697=ORIENTED_EDGE('',*,*,#538,.T.);
#698=ORIENTED_EDGE('',*,*,#539,.T.);
#699=ORIENTED_EDGE('',*,*,#540,.F.);
#700=ORIENTED_EDGE('',*,*,#541,.T.);
#701=ORIENTED_EDGE('',*,*,#542,.T.);
#702=ORIENTED_EDGE('',*,*,#543,.T.);
#703=ORIENTED_EDGE('',*,*,#544,.T.);
#704=ORIENTED_EDGE('',*,*,#545,.T.);
#705=ORIENTED_EDGE('',*,*,#546,.F.);
#706=ORIENTED_EDGE('',*,*,#547,.T.);
#707=ORIENTED_EDGE('',*,*,#548,.F.);
#708=ORIENTED_EDGE('',*,*,#549,.F.);
#709=ORIENTED_EDGE('',*,*,#550,.F.);
#710=ORIENTED_EDGE('',*,*,#551,.F.);
#711=ORIENTED_EDGE('',*,*,#533,.T.);
#712=ORIENTED_EDGE('',*,*,#531,.F.);
#713=ORIENTED_EDGE('',*,*,#552,.T.);
#714=ORIENTED_EDGE('',*,*,#553,.F.);
#715=ORIENTED_EDGE('',*,*,#554,.F.);
#716=ORIENTED_EDGE('',*,*,#555,.T.);
#717=ORIENTED_EDGE('',*,*,#556,.T.);
#718=ORIENTED_EDGE('',*,*,#557,.T.);
#719=ORIENTED_EDGE('',*,*,#558,.F.);
#720=ORIENTED_EDGE('',*,*,#530,.F.);
#721=ORIENTED_EDGE('',*,*,#522,.F.);
#722=ORIENTED_EDGE('',*,*,#559,.F.);
#723=ORIENTED_EDGE('',*,*,#552,.F.);
#724=ORIENTED_EDGE('',*,*,#513,.F.);
#725=ORIENTED_EDGE('',*,*,#535,.F.);
#726=ORIENTED_EDGE('',*,*,#560,.T.);
#727=ORIENTED_EDGE('',*,*,#517,.F.);
#728=ORIENTED_EDGE('',*,*,#561,.T.);
#729=ORIENTED_EDGE('',*,*,#562,.T.);
#730=ORIENTED_EDGE('',*,*,#563,.T.);
#731=ORIENTED_EDGE('',*,*,#564,.T.);
#732=ORIENTED_EDGE('',*,*,#541,.F.);
#733=ORIENTED_EDGE('',*,*,#565,.T.);
#734=ORIENTED_EDGE('',*,*,#564,.F.);
#735=ORIENTED_EDGE('',*,*,#566,.F.);
#736=ORIENTED_EDGE('',*,*,#567,.F.);
#737=ORIENTED_EDGE('',*,*,#542,.F.);
#738=ORIENTED_EDGE('',*,*,#563,.F.);
#739=ORIENTED_EDGE('',*,*,#568,.F.);
#740=ORIENTED_EDGE('',*,*,#569,.F.);
#741=ORIENTED_EDGE('',*,*,#570,.T.);
#742=ORIENTED_EDGE('',*,*,#571,.F.);
#743=ORIENTED_EDGE('',*,*,#572,.T.);
#744=ORIENTED_EDGE('',*,*,#573,.T.);
#745=ORIENTED_EDGE('',*,*,#574,.F.);
#746=ORIENTED_EDGE('',*,*,#566,.T.);
#747=ORIENTED_EDGE('',*,*,#571,.T.);
#748=ORIENTED_EDGE('',*,*,#575,.T.);
#749=ORIENTED_EDGE('',*,*,#546,.T.);
#750=ORIENTED_EDGE('',*,*,#576,.T.);
#751=ORIENTED_EDGE('',*,*,#576,.F.);
#752=ORIENTED_EDGE('',*,*,#545,.F.);
#753=ORIENTED_EDGE('',*,*,#577,.T.);
#754=ORIENTED_EDGE('',*,*,#572,.F.);
#755=ORIENTED_EDGE('',*,*,#562,.F.);
#756=ORIENTED_EDGE('',*,*,#578,.F.);
#757=ORIENTED_EDGE('',*,*,#579,.F.);
#758=ORIENTED_EDGE('',*,*,#549,.T.);
#759=ORIENTED_EDGE('',*,*,#580,.F.);
#760=ORIENTED_EDGE('',*,*,#568,.T.);
#761=ORIENTED_EDGE('',*,*,#575,.F.);
#762=ORIENTED_EDGE('',*,*,#570,.F.);
#763=ORIENTED_EDGE('',*,*,#581,.F.);
#764=ORIENTED_EDGE('',*,*,#547,.F.);
#765=ORIENTED_EDGE('',*,*,#582,.T.);
#766=ORIENTED_EDGE('',*,*,#583,.T.);
#767=ORIENTED_EDGE('',*,*,#584,.T.);
#768=ORIENTED_EDGE('',*,*,#583,.F.);
#769=ORIENTED_EDGE('',*,*,#585,.F.);
#770=ORIENTED_EDGE('',*,*,#586,.T.);
#771=ORIENTED_EDGE('',*,*,#587,.F.);
#772=ORIENTED_EDGE('',*,*,#588,.F.);
#773=ORIENTED_EDGE('',*,*,#589,.F.);
#774=ORIENTED_EDGE('',*,*,#590,.F.);
#775=ORIENTED_EDGE('',*,*,#591,.T.);
#776=ORIENTED_EDGE('',*,*,#592,.F.);
#777=ORIENTED_EDGE('',*,*,#593,.F.);
#778=ORIENTED_EDGE('',*,*,#594,.F.);
#779=ORIENTED_EDGE('',*,*,#582,.F.);
#780=ORIENTED_EDGE('',*,*,#557,.F.);
#781=ORIENTED_EDGE('',*,*,#595,.T.);
#782=ORIENTED_EDGE('',*,*,#584,.F.);
#783=ORIENTED_EDGE('',*,*,#595,.F.);
#784=ORIENTED_EDGE('',*,*,#594,.T.);
#785=ORIENTED_EDGE('',*,*,#596,.T.);
#786=ORIENTED_EDGE('',*,*,#597,.T.);
#787=ORIENTED_EDGE('',*,*,#596,.F.);
#788=ORIENTED_EDGE('',*,*,#598,.F.);
#789=ORIENTED_EDGE('',*,*,#599,.T.);
#790=ORIENTED_EDGE('',*,*,#597,.F.);
#791=ORIENTED_EDGE('',*,*,#599,.F.);
#792=ORIENTED_EDGE('',*,*,#558,.T.);
#793=ORIENTED_EDGE('',*,*,#600,.T.);
#794=ORIENTED_EDGE('',*,*,#598,.T.);
#795=ORIENTED_EDGE('',*,*,#600,.F.);
#796=ORIENTED_EDGE('',*,*,#601,.T.);
#797=ORIENTED_EDGE('',*,*,#602,.T.);
#798=ORIENTED_EDGE('',*,*,#603,.T.);
#799=ORIENTED_EDGE('',*,*,#585,.T.);
#800=ORIENTED_EDGE('',*,*,#601,.F.);
#801=ORIENTED_EDGE('',*,*,#593,.T.);
#802=ORIENTED_EDGE('',*,*,#604,.F.);
#803=ORIENTED_EDGE('',*,*,#605,.T.);
#804=ORIENTED_EDGE('',*,*,#527,.T.);
#805=ORIENTED_EDGE('',*,*,#606,.T.);
#806=ORIENTED_EDGE('',*,*,#607,.T.);
#807=ORIENTED_EDGE('',*,*,#608,.T.);
#808=ORIENTED_EDGE('',*,*,#609,.F.);
#809=ORIENTED_EDGE('',*,*,#610,.T.);
#810=ORIENTED_EDGE('',*,*,#588,.T.);
#811=ORIENTED_EDGE('',*,*,#611,.T.);
#812=ORIENTED_EDGE('',*,*,#578,.T.);
#813=ORIENTED_EDGE('',*,*,#561,.F.);
#814=ORIENTED_EDGE('',*,*,#612,.T.);
#815=ORIENTED_EDGE('',*,*,#590,.T.);
#816=ORIENTED_EDGE('',*,*,#613,.T.);
#817=ORIENTED_EDGE('',*,*,#614,.T.);
#818=ORIENTED_EDGE('',*,*,#610,.F.);
#819=ORIENTED_EDGE('',*,*,#615,.T.);
#820=ORIENTED_EDGE('',*,*,#613,.F.);
#821=ORIENTED_EDGE('',*,*,#589,.T.);
#822=ORIENTED_EDGE('',*,*,#587,.T.);
#823=ORIENTED_EDGE('',*,*,#616,.T.);
#824=ORIENTED_EDGE('',*,*,#617,.T.);
#825=ORIENTED_EDGE('',*,*,#611,.F.);
#826=ORIENTED_EDGE('',*,*,#614,.F.);
#827=ORIENTED_EDGE('',*,*,#618,.F.);
#828=ORIENTED_EDGE('',*,*,#539,.F.);
#829=ORIENTED_EDGE('',*,*,#619,.F.);
#830=ORIENTED_EDGE('',*,*,#540,.T.);
#831=ORIENTED_EDGE('',*,*,#618,.T.);
#832=ORIENTED_EDGE('',*,*,#615,.F.);
#833=ORIENTED_EDGE('',*,*,#609,.T.);
#834=ORIENTED_EDGE('',*,*,#565,.F.);
#835=ORIENTED_EDGE('',*,*,#617,.F.);
#836=ORIENTED_EDGE('',*,*,#620,.F.);
#837=ORIENTED_EDGE('',*,*,#621,.F.);
#838=ORIENTED_EDGE('',*,*,#550,.T.);
#839=ORIENTED_EDGE('',*,*,#579,.T.);
#840=ORIENTED_EDGE('',*,*,#604,.T.);
#841=ORIENTED_EDGE('',*,*,#592,.T.);
#842=ORIENTED_EDGE('',*,*,#622,.T.);
#843=ORIENTED_EDGE('',*,*,#623,.T.);
#844=ORIENTED_EDGE('',*,*,#623,.F.);
#845=ORIENTED_EDGE('',*,*,#624,.T.);
#846=ORIENTED_EDGE('',*,*,#537,.T.);
#847=ORIENTED_EDGE('',*,*,#625,.F.);
#848=ORIENTED_EDGE('',*,*,#528,.T.);
#849=ORIENTED_EDGE('',*,*,#605,.F.);
#850=ORIENTED_EDGE('',*,*,#626,.F.);
#851=ORIENTED_EDGE('',*,*,#627,.F.);
#852=ORIENTED_EDGE('',*,*,#628,.T.);
#853=ORIENTED_EDGE('',*,*,#629,.F.);
#854=ORIENTED_EDGE('',*,*,#630,.F.);
#855=ORIENTED_EDGE('',*,*,#631,.F.);
#856=ORIENTED_EDGE('',*,*,#632,.T.);
#857=ORIENTED_EDGE('',*,*,#633,.F.);
#858=ORIENTED_EDGE('',*,*,#612,.F.);
#859=ORIENTED_EDGE('',*,*,#619,.T.);
#860=ORIENTED_EDGE('',*,*,#538,.F.);
#861=ORIENTED_EDGE('',*,*,#624,.F.);
#862=ORIENTED_EDGE('',*,*,#622,.F.);
#863=ORIENTED_EDGE('',*,*,#591,.F.);
#864=ORIENTED_EDGE('',*,*,#621,.T.);
#865=ORIENTED_EDGE('',*,*,#634,.F.);
#866=ORIENTED_EDGE('',*,*,#635,.F.);
#867=ORIENTED_EDGE('',*,*,#636,.F.);
#868=ORIENTED_EDGE('',*,*,#603,.F.);
#869=ORIENTED_EDGE('',*,*,#637,.F.);
#870=ORIENTED_EDGE('',*,*,#634,.T.);
#871=ORIENTED_EDGE('',*,*,#620,.T.);
#872=ORIENTED_EDGE('',*,*,#616,.F.);
#873=ORIENTED_EDGE('',*,*,#586,.F.);
#874=ORIENTED_EDGE('',*,*,#638,.F.);
#875=ORIENTED_EDGE('',*,*,#639,.T.);
#876=ORIENTED_EDGE('',*,*,#640,.T.);
#877=ORIENTED_EDGE('',*,*,#627,.T.);
#878=ORIENTED_EDGE('',*,*,#626,.T.);
#879=ORIENTED_EDGE('',*,*,#629,.T.);
#880=ORIENTED_EDGE('',*,*,#641,.T.);
#881=ORIENTED_EDGE('',*,*,#639,.F.);
#882=ORIENTED_EDGE('',*,*,#642,.F.);
#883=ORIENTED_EDGE('',*,*,#643,.T.);
#884=ORIENTED_EDGE('',*,*,#644,.T.);
#885=ORIENTED_EDGE('',*,*,#631,.T.);
#886=ORIENTED_EDGE('',*,*,#630,.T.);
#887=ORIENTED_EDGE('',*,*,#633,.T.);
#888=ORIENTED_EDGE('',*,*,#645,.T.);
#889=ORIENTED_EDGE('',*,*,#643,.F.);
#890=ORIENTED_EDGE('',*,*,#529,.T.);
#891=ORIENTED_EDGE('',*,*,#625,.T.);
#892=ORIENTED_EDGE('',*,*,#536,.T.);
#893=ORIENTED_EDGE('',*,*,#515,.T.);
#894=ORIENTED_EDGE('',*,*,#551,.T.);
#895=ORIENTED_EDGE('',*,*,#636,.T.);
#896=ORIENTED_EDGE('',*,*,#646,.T.);
#897=ORIENTED_EDGE('',*,*,#525,.T.);
#898=ORIENTED_EDGE('',*,*,#534,.T.);
#899=ORIENTED_EDGE('',*,*,#647,.F.);
#900=ORIENTED_EDGE('',*,*,#648,.F.);
#901=ORIENTED_EDGE('',*,*,#649,.F.);
#902=ORIENTED_EDGE('',*,*,#628,.F.);
#903=ORIENTED_EDGE('',*,*,#650,.F.);
#904=ORIENTED_EDGE('',*,*,#651,.F.);
#905=ORIENTED_EDGE('',*,*,#652,.F.);
#906=ORIENTED_EDGE('',*,*,#653,.F.);
#907=ORIENTED_EDGE('',*,*,#632,.F.);
#908=ORIENTED_EDGE('',*,*,#654,.F.);
#909=ORIENTED_EDGE('',*,*,#608,.F.);
#910=ORIENTED_EDGE('',*,*,#655,.T.);
#911=ORIENTED_EDGE('',*,*,#638,.T.);
#912=ORIENTED_EDGE('',*,*,#655,.F.);
#913=ORIENTED_EDGE('',*,*,#607,.F.);
#914=ORIENTED_EDGE('',*,*,#656,.T.);
#915=ORIENTED_EDGE('',*,*,#642,.T.);
#916=ORIENTED_EDGE('',*,*,#656,.F.);
#917=ORIENTED_EDGE('',*,*,#602,.F.);
#918=ORIENTED_EDGE('',*,*,#606,.F.);
#919=ORIENTED_EDGE('',*,*,#526,.T.);
#920=ORIENTED_EDGE('',*,*,#646,.F.);
#921=ORIENTED_EDGE('',*,*,#635,.T.);
#922=ORIENTED_EDGE('',*,*,#637,.T.);
#923=ORIENTED_EDGE('',*,*,#650,.T.);
#924=ORIENTED_EDGE('',*,*,#640,.F.);
#925=ORIENTED_EDGE('',*,*,#641,.F.);
#926=ORIENTED_EDGE('',*,*,#649,.T.);
#927=ORIENTED_EDGE('',*,*,#648,.T.);
#928=ORIENTED_EDGE('',*,*,#647,.T.);
#929=ORIENTED_EDGE('',*,*,#654,.T.);
#930=ORIENTED_EDGE('',*,*,#644,.F.);
#931=ORIENTED_EDGE('',*,*,#645,.F.);
#932=ORIENTED_EDGE('',*,*,#653,.T.);
#933=ORIENTED_EDGE('',*,*,#652,.T.);
#934=ORIENTED_EDGE('',*,*,#651,.T.);
#935=ORIENTED_EDGE('',*,*,#521,.F.);
#936=ORIENTED_EDGE('',*,*,#657,.F.);
#937=ORIENTED_EDGE('',*,*,#553,.T.);
#938=ORIENTED_EDGE('',*,*,#559,.T.);
#939=ORIENTED_EDGE('',*,*,#520,.F.);
#940=ORIENTED_EDGE('',*,*,#658,.F.);
#941=ORIENTED_EDGE('',*,*,#554,.T.);
#942=ORIENTED_EDGE('',*,*,#657,.T.);
#943=ORIENTED_EDGE('',*,*,#519,.F.);
#944=ORIENTED_EDGE('',*,*,#659,.F.);
#945=ORIENTED_EDGE('',*,*,#555,.F.);
#946=ORIENTED_EDGE('',*,*,#658,.T.);
#947=ORIENTED_EDGE('',*,*,#518,.F.);
#948=ORIENTED_EDGE('',*,*,#560,.F.);
#949=ORIENTED_EDGE('',*,*,#556,.F.);
#950=ORIENTED_EDGE('',*,*,#659,.T.);
#951=ORIENTED_EDGE('',*,*,#569,.T.);
#952=ORIENTED_EDGE('',*,*,#580,.T.);
#953=ORIENTED_EDGE('',*,*,#548,.T.);
#954=ORIENTED_EDGE('',*,*,#581,.T.);
#955=ORIENTED_EDGE('',*,*,#543,.F.);
#956=ORIENTED_EDGE('',*,*,#567,.T.);
#957=ORIENTED_EDGE('',*,*,#574,.T.);
#958=ORIENTED_EDGE('',*,*,#660,.T.);
#959=ORIENTED_EDGE('',*,*,#660,.F.);
#960=ORIENTED_EDGE('',*,*,#573,.F.);
#961=ORIENTED_EDGE('',*,*,#577,.F.);
#962=ORIENTED_EDGE('',*,*,#544,.F.);
#963=CYLINDRICAL_SURFACE('',#1055,1.5);
#964=CYLINDRICAL_SURFACE('',#1067,1.5);
#965=CYLINDRICAL_SURFACE('',#1086,8.69999999999995);
#966=CYLINDRICAL_SURFACE('',#1087,7.80000000000001);
#967=CYLINDRICAL_SURFACE('',#1088,0.5);
#968=CYLINDRICAL_SURFACE('',#1097,2.);
#969=CYLINDRICAL_SURFACE('',#1098,7.79999999999997);
#970=CYLINDRICAL_SURFACE('',#1099,15.);
#971=CYLINDRICAL_SURFACE('',#1109,1.6);
#972=CYLINDRICAL_SURFACE('',#1112,1.59999999999999);
#973=CYLINDRICAL_SURFACE('',#1125,15.);
#974=CYLINDRICAL_SURFACE('',#1129,2.04999999999999);
#975=CYLINDRICAL_SURFACE('',#1132,2.05);
#976=CYLINDRICAL_SURFACE('',#1139,2.04999999999999);
#977=CYLINDRICAL_SURFACE('',#1143,2.05);
#978=CYLINDRICAL_SURFACE('',#1147,0.5);
#979=CYLINDRICAL_SURFACE('',#1148,1.);
#980=CYLINDRICAL_SURFACE('',#1155,2.04999999999999);
#981=CYLINDRICAL_SURFACE('',#1156,2.05);
#982=CYLINDRICAL_SURFACE('',#1161,3.8);
#983=CYLINDRICAL_SURFACE('',#1163,8.69999999999988);
#984=CYLINDRICAL_SURFACE('',#1164,1.);
#985=CYLINDRICAL_SURFACE('',#1165,23.3);
#986=ADVANCED_FACE('',(#57),#963,.T.);
#987=ADVANCED_FACE('',(#58),#30,.F.);
#988=ADVANCED_FACE('',(#59),#31,.F.);
#989=ADVANCED_FACE('',(#60),#964,.T.);
#990=ADVANCED_FACE('',(#61),#32,.F.);
#991=ADVANCED_FACE('',(#62,#24,#25),#33,.F.);
#992=ADVANCED_FACE('',(#63),#965,.T.);
#993=ADVANCED_FACE('',(#64),#966,.F.);
#994=ADVANCED_FACE('',(#65),#967,.T.);
#995=ADVANCED_FACE('',(#66),#34,.F.);
#996=ADVANCED_FACE('',(#67),#35,.F.);
#997=ADVANCED_FACE('',(#68),#968,.T.);
#998=ADVANCED_FACE('',(#69),#969,.F.);
#999=ADVANCED_FACE('',(#70),#970,.T.);
#1000=ADVANCED_FACE('',(#71),#36,.F.);
#1001=ADVANCED_FACE('',(#72),#15,.F.);
#1002=ADVANCED_FACE('',(#73,#26,#27),#37,.T.);
#1003=ADVANCED_FACE('',(#74),#971,.F.);
#1004=ADVANCED_FACE('',(#75),#16,.F.);
#1005=ADVANCED_FACE('',(#76),#972,.F.);
#1006=ADVANCED_FACE('',(#77),#17,.F.);
#1007=ADVANCED_FACE('',(#78),#38,.T.);
#1008=ADVANCED_FACE('',(#79,#28,#29),#39,.F.);
#1009=ADVANCED_FACE('',(#80),#18,.T.);
#1010=ADVANCED_FACE('',(#81),#40,.T.);
#1011=ADVANCED_FACE('',(#82),#19,.T.);
#1012=ADVANCED_FACE('',(#83),#41,.T.);
#1013=ADVANCED_FACE('',(#84),#42,.T.);
#1014=ADVANCED_FACE('',(#85),#973,.T.);
#1015=ADVANCED_FACE('',(#86),#43,.T.);
#1016=ADVANCED_FACE('',(#87),#44,.T.);
#1017=ADVANCED_FACE('',(#88),#45,.T.);
#1018=ADVANCED_FACE('',(#89),#974,.F.);
#1019=ADVANCED_FACE('',(#90),#975,.F.);
#1020=ADVANCED_FACE('',(#91),#46,.T.);
#1021=ADVANCED_FACE('',(#92),#47,.T.);
#1022=ADVANCED_FACE('',(#93),#48,.F.);
#1023=ADVANCED_FACE('',(#94),#976,.F.);
#1024=ADVANCED_FACE('',(#95),#977,.F.);
#1025=ADVANCED_FACE('',(#96),#978,.T.);
#1026=ADVANCED_FACE('',(#97),#979,.T.);
#1027=ADVANCED_FACE('',(#98),#49,.T.);
#1028=ADVANCED_FACE('',(#99),#50,.T.);
#1029=ADVANCED_FACE('',(#100),#980,.F.);
#1030=ADVANCED_FACE('',(#101),#981,.F.);
#1031=ADVANCED_FACE('',(#102),#51,.T.);
#1032=ADVANCED_FACE('',(#103),#52,.T.);
#1033=ADVANCED_FACE('',(#104),#53,.T.);
#1034=ADVANCED_FACE('',(#105),#54,.F.);
#1035=ADVANCED_FACE('',(#106),#982,.F.);
#1036=ADVANCED_FACE('',(#107),#55,.F.);
#1037=ADVANCED_FACE('',(#108),#983,.T.);
#1038=ADVANCED_FACE('',(#109),#984,.T.);
#1039=ADVANCED_FACE('',(#110),#985,.F.);
#1040=ADVANCED_FACE('',(#111),#56,.F.);
#1041=CLOSED_SHELL('',(#986,#987,#988,#989,#990,#991,#992,#993,#994,#995,
#996,#997,#998,#999,#1000,#1001,#1002,#1003,#1004,#1005,#1006,#1007,#1008,
#1009,#1010,#1011,#1012,#1013,#1014,#1015,#1016,#1017,#1018,#1019,#1020,
#1021,#1022,#1023,#1024,#1025,#1026,#1027,#1028,#1029,#1030,#1031,#1032,
#1033,#1034,#1035,#1036,#1037,#1038,#1039,#1040));
#1042=DERIVED_UNIT_ELEMENT(#1044,1.);
#1043=DERIVED_UNIT_ELEMENT(#1813,-3.);
#1044=(
MASS_UNIT()
NAMED_UNIT(*)
SI_UNIT(.KILO.,.GRAM.)
);
#1045=DERIVED_UNIT((#1042,#1043));
#1046=MEASURE_REPRESENTATION_ITEM('density measure',
POSITIVE_RATIO_MEASURE(7850.),#1045);
#1047=PROPERTY_DEFINITION_REPRESENTATION(#1052,#1049);
#1048=PROPERTY_DEFINITION_REPRESENTATION(#1053,#1050);
#1049=REPRESENTATION('material name',(#1051),#1810);
#1050=REPRESENTATION('density',(#1046),#1810);
#1051=DESCRIPTIVE_REPRESENTATION_ITEM('Steel','Steel');
#1052=PROPERTY_DEFINITION('material property','material name',#1820);
#1053=PROPERTY_DEFINITION('material property','density of part',#1820);
#1054=AXIS2_PLACEMENT_3D('',#1483,#1167,#1168);
#1055=AXIS2_PLACEMENT_3D('',#1484,#1169,#1170);
#1056=AXIS2_PLACEMENT_3D('',#1487,#1171,#1172);
#1057=AXIS2_PLACEMENT_3D('',#1491,#1174,#1175);
#1058=AXIS2_PLACEMENT_3D('',#1493,#1177,#1178);
#1059=AXIS2_PLACEMENT_3D('',#1499,#1182,#1183);
#1060=AXIS2_PLACEMENT_3D('',#1501,#1184,#1185);
#1061=AXIS2_PLACEMENT_3D('',#1503,#1186,#1187);
#1062=AXIS2_PLACEMENT_3D('',#1507,#1189,#1190);
#1063=AXIS2_PLACEMENT_3D('',#1511,#1192,#1193);
#1064=AXIS2_PLACEMENT_3D('',#1513,#1194,#1195);
#1065=AXIS2_PLACEMENT_3D('',#1517,#1197,#1198);
#1066=AXIS2_PLACEMENT_3D('',#1524,#1202,#1203);
#1067=AXIS2_PLACEMENT_3D('',#1525,#1204,#1205);
#1068=AXIS2_PLACEMENT_3D('',#1529,#1207,#1208);
#1069=AXIS2_PLACEMENT_3D('',#1531,#1210,#1211);
#1070=AXIS2_PLACEMENT_3D('',#1535,#1214,#1215);
#1071=AXIS2_PLACEMENT_3D('',#1537,#1216,#1217);
#1072=AXIS2_PLACEMENT_3D('',#1539,#1218,#1219);
#1073=AXIS2_PLACEMENT_3D('',#1547,#1223,#1224);
#1074=AXIS2_PLACEMENT_3D('',#1549,#1225,#1226);
#1075=AXIS2_PLACEMENT_3D('',#1553,#1228,#1229);
#1076=AXIS2_PLACEMENT_3D('',#1557,#1231,#1232);
#1077=AXIS2_PLACEMENT_3D('',#1559,#1233,#1234);
#1078=AXIS2_PLACEMENT_3D('',#1563,#1236,#1237);
#1079=AXIS2_PLACEMENT_3D('',#1565,#1238,#1239);
#1080=AXIS2_PLACEMENT_3D('',#1568,#1241,#1242);
#1081=AXIS2_PLACEMENT_3D('',#1570,#1243,#1244);
#1082=AXIS2_PLACEMENT_3D('',#1574,#1246,#1247);
#1083=AXIS2_PLACEMENT_3D('',#1577,#1249,#1250);
#1084=AXIS2_PLACEMENT_3D('',#1579,#1251,#1252);
#1085=AXIS2_PLACEMENT_3D('',#1581,#1253,#1254);
#1086=AXIS2_PLACEMENT_3D('',#1582,#1255,#1256);
#1087=AXIS2_PLACEMENT_3D('',#1584,#1258,#1259);
#1088=AXIS2_PLACEMENT_3D('',#1586,#1261,#1262);
#1089=AXIS2_PLACEMENT_3D('',#1596,#1264,#1265);
#1090=AXIS2_PLACEMENT_3D('',#1599,#1268,#1269);
#1091=AXIS2_PLACEMENT_3D('',#1603,#1272,#1273);
#1092=AXIS2_PLACEMENT_3D('',#1605,#1274,#1275);
#1093=AXIS2_PLACEMENT_3D('',#1607,#1276,#1277);
#1094=AXIS2_PLACEMENT_3D('',#1611,#1279,#1280);
#1095=AXIS2_PLACEMENT_3D('',#1613,#1281,#1282);
#1096=AXIS2_PLACEMENT_3D('',#1616,#1284,#1285);
#1097=AXIS2_PLACEMENT_3D('',#1617,#1286,#1287);
#1098=AXIS2_PLACEMENT_3D('',#1620,#1290,#1291);
#1099=AXIS2_PLACEMENT_3D('',#1622,#1293,#1294);
#1100=AXIS2_PLACEMENT_3D('',#1624,#1295,#1296);
#1101=AXIS2_PLACEMENT_3D('',#1627,#1299,#1300);
#1102=AXIS2_PLACEMENT_3D('',#1629,#1302,#1303);
#1103=AXIS2_PLACEMENT_3D('',#1631,#1304,#1305);
#1104=AXIS2_PLACEMENT_3D('',#1634,#1307,#1308);
#1105=AXIS2_PLACEMENT_3D('',#1635,#1309,#1310);
#1106=AXIS2_PLACEMENT_3D('',#1644,#1314,#1315);
#1107=AXIS2_PLACEMENT_3D('',#1646,#1316,#1317);
#1108=AXIS2_PLACEMENT_3D('',#1655,#1322,#1323);
#1109=AXIS2_PLACEMENT_3D('',#1656,#1324,#1325);
#1110=AXIS2_PLACEMENT_3D('',#1658,#1327,#1328);
#1111=AXIS2_PLACEMENT_3D('',#1661,#1330,#1331);
#1112=AXIS2_PLACEMENT_3D('',#1662,#1332,#1333);
#1113=AXIS2_PLACEMENT_3D('',#1664,#1334,#1335);
#1114=AXIS2_PLACEMENT_3D('',#1666,#1337,#1338);
#1115=AXIS2_PLACEMENT_3D('',#1668,#1340,#1341);
#1116=AXIS2_PLACEMENT_3D('',#1674,#1345,#1346);
#1117=AXIS2_PLACEMENT_3D('',#1680,#1350,#1351);
#1118=AXIS2_PLACEMENT_3D('',#1682,#1352,#1353);
#1119=AXIS2_PLACEMENT_3D('',#1683,#1354,#1355);
#1120=AXIS2_PLACEMENT_3D('',#1703,#1356,#1357);
#1121=AXIS2_PLACEMENT_3D('',#1709,#1361,#1362);
#1122=AXIS2_PLACEMENT_3D('',#1710,#1363,#1364);
#1123=AXIS2_PLACEMENT_3D('',#1711,#1365,#1366);
#1124=AXIS2_PLACEMENT_3D('',#1715,#1369,#1370);
#1125=AXIS2_PLACEMENT_3D('',#1718,#1373,#1374);
#1126=AXIS2_PLACEMENT_3D('',#1719,#1375,#1376);
#1127=AXIS2_PLACEMENT_3D('',#1723,#1379,#1380);
#1128=AXIS2_PLACEMENT_3D('',#1727,#1383,#1384);
#1129=AXIS2_PLACEMENT_3D('',#1730,#1387,#1388);
#1130=AXIS2_PLACEMENT_3D('',#1733,#1389,#1390);
#1131=AXIS2_PLACEMENT_3D('',#1737,#1392,#1393);
#1132=AXIS2_PLACEMENT_3D('',#1739,#1395,#1396);
#1133=AXIS2_PLACEMENT_3D('',#1742,#1397,#1398);
#1134=AXIS2_PLACEMENT_3D('',#1746,#1400,#1401);
#1135=AXIS2_PLACEMENT_3D('',#1748,#1403,#1404);
#1136=AXIS2_PLACEMENT_3D('',#1749,#1405,#1406);
#1137=AXIS2_PLACEMENT_3D('',#1754,#1409,#1410);
#1138=AXIS2_PLACEMENT_3D('',#1755,#1411,#1412);
#1139=AXIS2_PLACEMENT_3D('',#1757,#1414,#1415);
#1140=AXIS2_PLACEMENT_3D('',#1759,#1416,#1417);
#1141=AXIS2_PLACEMENT_3D('',#1762,#1419,#1420);
#1142=AXIS2_PLACEMENT_3D('',#1763,#1421,#1422);
#1143=AXIS2_PLACEMENT_3D('',#1764,#1423,#1424);
#1144=AXIS2_PLACEMENT_3D('',#1766,#1425,#1426);
#1145=AXIS2_PLACEMENT_3D('',#1769,#1428,#1429);
#1146=AXIS2_PLACEMENT_3D('',#1770,#1430,#1431);
#1147=AXIS2_PLACEMENT_3D('',#1771,#1432,#1433);
#1148=AXIS2_PLACEMENT_3D('',#1772,#1434,#1435);
#1149=AXIS2_PLACEMENT_3D('',#1774,#1437,#1438);
#1150=AXIS2_PLACEMENT_3D('',#1777,#1439,#1440);
#1151=AXIS2_PLACEMENT_3D('',#1779,#1441,#1442);
#1152=AXIS2_PLACEMENT_3D('',#1782,#1445,#1446);
#1153=AXIS2_PLACEMENT_3D('',#1785,#1447,#1448);
#1154=AXIS2_PLACEMENT_3D('',#1787,#1449,#1450);
#1155=AXIS2_PLACEMENT_3D('',#1790,#1453,#1454);
#1156=AXIS2_PLACEMENT_3D('',#1792,#1456,#1457);
#1157=AXIS2_PLACEMENT_3D('',#1794,#1459,#1460);
#1158=AXIS2_PLACEMENT_3D('',#1795,#1461,#1462);
#1159=AXIS2_PLACEMENT_3D('',#1796,#1463,#1464);
#1160=AXIS2_PLACEMENT_3D('',#1797,#1465,#1466);
#1161=AXIS2_PLACEMENT_3D('',#1799,#1468,#1469);
#1162=AXIS2_PLACEMENT_3D('',#1801,#1471,#1472);
#1163=AXIS2_PLACEMENT_3D('',#1803,#1474,#1475);
#1164=AXIS2_PLACEMENT_3D('',#1804,#1476,#1477);
#1165=AXIS2_PLACEMENT_3D('',#1805,#1478,#1479);
#1166=AXIS2_PLACEMENT_3D('',#1807,#1481,#1482);
#1167=DIRECTION('axis',(0.,0.,1.));
#1168=DIRECTION('refdir',(1.,0.,0.));
#1169=DIRECTION('center_axis',(0.,0.,-1.));
#1170=DIRECTION('ref_axis',(0.668009400487591,0.744152834342657,0.));
#1171=DIRECTION('center_axis',(3.69778549322349E-32,2.88889491658085E-34,
1.));
#1172=DIRECTION('ref_axis',(0.668009400487591,0.744152834342657,0.));
#1173=DIRECTION('',(0.,0.,1.));
#1174=DIRECTION('center_axis',(0.,0.,1.));
#1175=DIRECTION('ref_axis',(0.668009400487591,0.744152834342657,0.));
#1176=DIRECTION('',(0.,0.,-1.));
#1177=DIRECTION('center_axis',(0.,-1.,0.));
#1178=DIRECTION('ref_axis',(-1.,0.,0.));
#1179=DIRECTION('',(1.,0.,-3.69778549322349E-32));
#1180=DIRECTION('',(-3.69778549322349E-32,0.,-1.));
#1181=DIRECTION('',(-1.,0.,3.69778549322349E-32));
#1182=DIRECTION('center_axis',(3.69778549322349E-32,2.88889491658085E-34,
1.));
#1183=DIRECTION('ref_axis',(-1.,0.,3.69778549322349E-32));
#1184=DIRECTION('center_axis',(3.69778549322349E-32,2.88889491658085E-34,
1.));
#1185=DIRECTION('ref_axis',(-3.33066907387547E-15,1.,0.));
#1186=DIRECTION('center_axis',(-3.69778549322349E-32,-2.88889491658085E-34,
-1.));
#1187=DIRECTION('ref_axis',(1.,-4.17966315153006E-15,0.));
#1188=DIRECTION('',(0.,-1.,2.88889491658085E-34));
#1189=DIRECTION('center_axis',(3.69778549322349E-32,2.88889491658085E-34,
1.));
#1190=DIRECTION('ref_axis',(-1.,0.,0.));
#1191=DIRECTION('',(0.,1.,-2.88889491658085E-34));
#1192=DIRECTION('center_axis',(-3.69778549322349E-32,-2.88889491658085E-34,
-1.));
#1193=DIRECTION('ref_axis',(-0.757575757575757,0.652747249349638,0.));
#1194=DIRECTION('center_axis',(3.69778549322349E-32,2.88889491658085E-34,
1.));
#1195=DIRECTION('ref_axis',(-0.66821021235685,0.743972521066479,0.));
#1196=DIRECTION('',(1.,0.,-3.69778549322349E-32));
#1197=DIRECTION('center_axis',(3.69778549322349E-32,2.88889491658085E-34,
1.));
#1198=DIRECTION('ref_axis',(0.707106781186557,0.707106781186538,0.));
#1199=DIRECTION('',(8.31627733801615E-17,1.,-2.88889491658088E-34));
#1200=DIRECTION('',(1.,0.,-3.69778549322349E-32));
#1201=DIRECTION('',(1.06825137139798E-65,-1.,2.88889491658085E-34));
#1202=DIRECTION('center_axis',(3.69778549322349E-32,2.88889491658085E-34,
1.));
#1203=DIRECTION('ref_axis',(-0.707106781186573,0.707106781186522,0.));
#1204=DIRECTION('center_axis',(0.,0.,-1.));
#1205=DIRECTION('ref_axis',(-0.66821021235685,0.743972521066479,0.));
#1206=DIRECTION('',(0.,0.,1.));
#1207=DIRECTION('center_axis',(0.,0.,1.));
#1208=DIRECTION('ref_axis',(-0.66821021235685,0.743972521066479,0.));
#1209=DIRECTION('',(0.,0.,-1.));
#1210=DIRECTION('center_axis',(0.,-1.,0.));
#1211=DIRECTION('ref_axis',(-1.,0.,0.));
#1212=DIRECTION('',(-1.,0.,3.69778549322349E-32));
#1213=DIRECTION('',(3.69778549322349E-32,0.,1.));
#1214=DIRECTION('center_axis',(0.,0.,1.));
#1215=DIRECTION('ref_axis',(-1.,0.,0.));
#1216=DIRECTION('center_axis',(0.,0.,-1.));
#1217=DIRECTION('ref_axis',(-3.33066907387547E-15,1.,0.));
#1218=DIRECTION('center_axis',(-3.69778549322349E-32,-2.88889491658085E-34,
-1.));
#1219=DIRECTION('ref_axis',(-0.707106781186573,0.707106781186522,0.));
#1220=DIRECTION('',(-3.32651093520647E-16,1.,-2.88889491658073E-34));
#1221=DIRECTION('',(-1.,0.,0.));
#1222=DIRECTION('',(0.,1.,0.));
#1223=DIRECTION('center_axis',(0.,0.,1.));
#1224=DIRECTION('ref_axis',(-0.821947117268809,0.569563812415689,0.));
#1225=DIRECTION('center_axis',(0.,0.,1.));
#1226=DIRECTION('ref_axis',(-0.896352763069366,-0.443341543437914,0.));
#1227=DIRECTION('',(1.,0.,0.));
#1228=DIRECTION('center_axis',(0.,0.,1.));
#1229=DIRECTION('ref_axis',(0.205184058744526,0.97872340425532,0.));
#1230=DIRECTION('',(1.,0.,0.));
#1231=DIRECTION('center_axis',(0.,0.,-1.));
#1232=DIRECTION('ref_axis',(1.,0.,0.));
#1233=DIRECTION('center_axis',(0.,0.,1.));
#1234=DIRECTION('ref_axis',(-0.610285981808396,-0.792181179029243,0.));
#1235=DIRECTION('',(1.,0.,-3.69778549322349E-32));
#1236=DIRECTION('center_axis',(-3.69778549322349E-32,-2.88889491658085E-34,
-1.));
#1237=DIRECTION('ref_axis',(0.744023809142841,-0.668153104781066,0.));
#1238=DIRECTION('center_axis',(0.,0.,1.));
#1239=DIRECTION('ref_axis',(-1.,0.,0.));
#1240=DIRECTION('',(0.,1.,0.));
#1241=DIRECTION('center_axis',(-3.69778549322349E-32,-2.88889491658085E-34,
-1.));
#1242=DIRECTION('ref_axis',(0.707106781186557,0.707106781186538,0.));
#1243=DIRECTION('center_axis',(0.,0.,1.));
#1244=DIRECTION('ref_axis',(-0.757575757575757,0.652747249349638,0.));
#1245=DIRECTION('',(0.,-1.,0.));
#1246=DIRECTION('center_axis',(0.,0.,-1.));
#1247=DIRECTION('ref_axis',(-1.,0.,0.));
#1248=DIRECTION('',(0.,1.,0.));
#1249=DIRECTION('center_axis',(0.,0.,1.));
#1250=DIRECTION('ref_axis',(1.,-4.17966315153006E-15,0.));
#1251=DIRECTION('center_axis',(0.,0.,1.));
#1252=DIRECTION('ref_axis',(-1.,0.,0.));
#1253=DIRECTION('center_axis',(0.,0.,-1.));
#1254=DIRECTION('ref_axis',(-1.,0.,0.));
#1255=DIRECTION('center_axis',(0.,0.,-1.));
#1256=DIRECTION('ref_axis',(-0.757575757575757,0.652747249349638,0.));
#1257=DIRECTION('',(0.,0.,-1.));
#1258=DIRECTION('center_axis',(0.,0.,-1.));
#1259=DIRECTION('ref_axis',(-3.33066907387547E-15,1.,0.));
#1260=DIRECTION('',(0.,0.,-1.));
#1261=DIRECTION('center_axis',(3.67572582235318E-32,0.,1.));
#1262=DIRECTION('ref_axis',(-0.896352763069366,-0.443341543437914,0.));
#1263=DIRECTION('',(-3.69778549322349E-32,-2.88889491658085E-34,-1.));
#1264=DIRECTION('center_axis',(3.69778549322349E-32,2.88889491658085E-34,
1.));
#1265=DIRECTION('ref_axis',(-0.896352763069366,-0.443341543437914,0.));
#1266=DIRECTION('',(3.67572582235318E-32,0.,1.));
#1267=DIRECTION('',(-3.67572582235318E-32,0.,-1.));
#1268=DIRECTION('center_axis',(0.,1.,0.));
#1269=DIRECTION('ref_axis',(1.,0.,0.));
#1270=DIRECTION('',(-1.,0.,3.69778549322349E-32));
#1271=DIRECTION('',(0.,0.,-1.));
#1272=DIRECTION('center_axis',(3.69778549322349E-32,2.88889491658085E-34,
1.));
#1273=DIRECTION('ref_axis',(-1.,0.,3.69778549322349E-32));
#1274=DIRECTION('center_axis',(3.69778549322349E-32,2.88889491658085E-34,
1.));
#1275=DIRECTION('ref_axis',(-1.,0.,3.69778549322349E-32));
#1276=DIRECTION('center_axis',(3.69778549322349E-32,2.88889491658085E-34,
1.));
#1277=DIRECTION('ref_axis',(0.744023809142841,-0.668153104781066,0.));
#1278=DIRECTION('',(-1.,0.,3.69778549322349E-32));
#1279=DIRECTION('center_axis',(3.69778549322349E-32,2.88889491658085E-34,
1.));
#1280=DIRECTION('ref_axis',(-0.610285981808396,-0.792181179029243,0.));
#1281=DIRECTION('center_axis',(3.69778549322349E-32,2.88889491658085E-34,
1.));
#1282=DIRECTION('ref_axis',(1.,0.,0.));
#1283=DIRECTION('',(-1.,0.,3.69778549322349E-32));
#1284=DIRECTION('center_axis',(-3.69778549322349E-32,-2.88889491658085E-34,
-1.));
#1285=DIRECTION('ref_axis',(0.205184058744526,0.97872340425532,0.));
#1286=DIRECTION('center_axis',(0.,0.,-1.));
#1287=DIRECTION('ref_axis',(-0.610285981808396,-0.792181179029243,0.));
#1288=DIRECTION('',(0.,0.,1.));
#1289=DIRECTION('',(0.,0.,-1.));
#1290=DIRECTION('center_axis',(0.,0.,-1.));
#1291=DIRECTION('ref_axis',(1.,0.,0.));
#1292=DIRECTION('',(0.,0.,-1.));
#1293=DIRECTION('center_axis',(3.69778549322349E-32,2.88889491658085E-34,
1.));
#1294=DIRECTION('ref_axis',(0.350123632226836,0.93670349746133,-1.32174246780471E-32));
#1295=DIRECTION('center_axis',(0.,0.,1.));
#1296=DIRECTION('ref_axis',(1.,0.,-3.69778549322349E-32));
#1297=DIRECTION('',(0.,0.,1.));
#1298=DIRECTION('',(3.69778549322349E-32,2.88889491658085E-34,1.));
#1299=DIRECTION('center_axis',(0.,1.,0.));
#1300=DIRECTION('ref_axis',(1.,0.,0.));
#1301=DIRECTION('',(-3.70089865828759E-32,0.,-1.));
#1302=DIRECTION('center_axis',(0.,0.,1.));
#1303=DIRECTION('ref_axis',(-1.,0.,0.));
#1304=DIRECTION('center_axis',(0.,0.,1.));
#1305=DIRECTION('ref_axis',(-1.,0.,0.));
#1306=DIRECTION('',(-0.707106781186566,-8.65956056235516E-17,-0.707106781186529));
#1307=DIRECTION('center_axis',(0.,0.,-1.));
#1308=DIRECTION('ref_axis',(-1.,0.,0.));
#1309=DIRECTION('center_axis',(0.,0.,1.));
#1310=DIRECTION('ref_axis',(-1.,0.,0.));
#1311=DIRECTION('',(-8.31627733801615E-17,-1.,0.));
#1312=DIRECTION('',(-1.,0.,3.69778549322349E-32));
#1313=DIRECTION('',(0.,-1.,0.));
#1314=DIRECTION('center_axis',(0.,0.,-1.));
#1315=DIRECTION('ref_axis',(1.,0.,0.));
#1316=DIRECTION('center_axis',(0.,0.,-1.));
#1317=DIRECTION('ref_axis',(-0.821947117268809,0.569563812415689,0.));
#1318=DIRECTION('',(0.,1.,0.));
#1319=DIRECTION('',(1.,0.,0.));
#1320=DIRECTION('',(-3.32651093520647E-16,1.,0.));
#1321=DIRECTION('',(-1.,0.,3.69778549322349E-32));
#1322=DIRECTION('center_axis',(0.,0.,1.));
#1323=DIRECTION('ref_axis',(-1.,0.,0.));
#1324=DIRECTION('center_axis',(0.,0.,-1.));
#1325=DIRECTION('ref_axis',(-1.,0.,0.));
#1326=DIRECTION('',(0.,0.,1.));
#1327=DIRECTION('center_axis',(0.,0.,1.));
#1328=DIRECTION('ref_axis',(-1.,0.,0.));
#1329=DIRECTION('',(-0.707106781186566,-8.65956056235516E-17,-0.707106781186529));
#1330=DIRECTION('center_axis',(0.,0.,-1.));
#1331=DIRECTION('ref_axis',(-1.,0.,0.));
#1332=DIRECTION('center_axis',(0.,0.,-1.));
#1333=DIRECTION('ref_axis',(-1.,0.,0.));
#1334=DIRECTION('center_axis',(0.,0.,1.));
#1335=DIRECTION('ref_axis',(-1.,0.,0.));
#1336=DIRECTION('',(0.,0.,1.));
#1337=DIRECTION('center_axis',(0.,0.,-1.));
#1338=DIRECTION('ref_axis',(-1.,0.,0.));
#1339=DIRECTION('',(-0.707106781186566,8.65956056235516E-17,0.707106781186529));
#1340=DIRECTION('center_axis',(0.707106781186552,-5.88049609993927E-17,
0.707106781186543));
#1341=DIRECTION('ref_axis',(0.707106781186543,0.,-0.707106781186552));
#1342=DIRECTION('',(0.707106781186543,-2.04275718564968E-34,-0.707106781186552));
#1343=DIRECTION('',(8.31627733801615E-17,1.,0.));
#1344=DIRECTION('',(-0.707106781186543,0.,0.707106781186552));
#1345=DIRECTION('center_axis',(-1.06825137139798E-65,1.,-2.88889491658085E-34));
#1346=DIRECTION('ref_axis',(-3.69778549322349E-32,-2.88889491658085E-34,
-1.));
#1347=DIRECTION('',(0.707106781186541,2.04275718564969E-34,0.707106781186554));
#1348=DIRECTION('',(-3.69778549322349E-32,-2.88889491658085E-34,-1.));
#1349=DIRECTION('',(3.69778549322349E-32,2.88889491658085E-34,1.));
#1350=DIRECTION('center_axis',(-1.06825137139798E-65,1.,-2.88889491658085E-34));
#1351=DIRECTION('ref_axis',(1.,0.,-3.69778549322349E-32));
#1352=DIRECTION('center_axis',(-1.06825137139798E-65,1.,-2.88889491658085E-34));
#1353=DIRECTION('ref_axis',(1.,0.,-3.69778549322349E-32));
#1354=DIRECTION('center_axis',(0.,0.,-1.));
#1355=DIRECTION('ref_axis',(1.,0.,-1.9126476689087E-32));
#1356=DIRECTION('center_axis',(-0.707106781186554,0.,0.707106781186541));
#1357=DIRECTION('ref_axis',(0.707106781186541,0.,0.707106781186554));
#1358=DIRECTION('',(0.707106781186541,0.,0.707106781186554));
#1359=DIRECTION('',(-0.707106781186541,0.,-0.707106781186554));
#1360=DIRECTION('',(0.,-1.,0.));
#1361=DIRECTION('center_axis',(0.,0.,-1.));
#1362=DIRECTION('ref_axis',(-0.821947117268809,0.569563812415689,0.));
#1363=DIRECTION('center_axis',(0.,0.,1.));
#1364=DIRECTION('ref_axis',(-0.821947117268809,0.569563812415689,0.));
#1365=DIRECTION('center_axis',(0.707106781186552,0.,0.707106781186543));
#1366=DIRECTION('ref_axis',(0.707106781186543,0.,-0.707106781186552));
#1367=DIRECTION('',(-0.707106781186543,0.,0.707106781186552));
#1368=DIRECTION('',(0.,1.,0.));
#1369=DIRECTION('center_axis',(-1.,0.,0.));
#1370=DIRECTION('ref_axis',(0.,-1.,0.));
#1371=DIRECTION('',(0.,0.,1.));
#1372=DIRECTION('',(0.,0.,-1.));
#1373=DIRECTION('center_axis',(0.,0.,1.));
#1374=DIRECTION('ref_axis',(-0.821947117268809,0.569563812415689,0.));
#1375=DIRECTION('center_axis',(1.,0.,0.));
#1376=DIRECTION('ref_axis',(0.,1.,0.));
#1377=DIRECTION('',(0.,0.,1.));
#1378=DIRECTION('',(0.,-1.,2.88889491658085E-34));
#1379=DIRECTION('center_axis',(-0.707106781186554,-2.35219843997572E-16,
0.707106781186541));
#1380=DIRECTION('ref_axis',(0.707106781186541,0.,0.707106781186554));
#1381=DIRECTION('',(0.707106781186541,0.,0.707106781186554));
#1382=DIRECTION('',(3.32651093520647E-16,-1.,0.));
#1383=DIRECTION('center_axis',(-1.,-3.32651093520647E-16,3.69778549322349E-32));
#1384=DIRECTION('ref_axis',(3.32651093520647E-16,-1.,2.88889491658073E-34));
#1385=DIRECTION('',(-3.69778549322349E-32,0.,-1.));
#1386=DIRECTION('',(3.69778549322349E-32,2.88889491658085E-34,1.));
#1387=DIRECTION('center_axis',(0.,1.,0.));
#1388=DIRECTION('ref_axis',(1.,0.,-3.69778549322349E-32));
#1389=DIRECTION('center_axis',(0.,1.,0.));
#1390=DIRECTION('ref_axis',(1.,0.,-3.69778549322349E-32));
#1391=DIRECTION('',(-1.40413558916231E-9,-1.,2.88889543580008E-34));
#1392=DIRECTION('center_axis',(0.,1.,0.));
#1393=DIRECTION('ref_axis',(1.,0.,-3.69778549322349E-32));
#1394=DIRECTION('',(1.40413558916231E-9,1.,-2.88889543580008E-34));
#1395=DIRECTION('center_axis',(0.,1.,0.));
#1396=DIRECTION('ref_axis',(1.,0.,-3.69778549322349E-32));
#1397=DIRECTION('center_axis',(0.,1.,0.));
#1398=DIRECTION('ref_axis',(1.,0.,-3.69778549322349E-32));
#1399=DIRECTION('',(-1.40413558916231E-9,-1.,2.88889543580008E-34));
#1400=DIRECTION('center_axis',(0.,1.,0.));
#1401=DIRECTION('ref_axis',(1.,0.,-3.69778549322349E-32));
#1402=DIRECTION('',(1.40413558916231E-9,1.,-2.88889543580008E-34));
#1403=DIRECTION('center_axis',(0.,-1.,0.));
#1404=DIRECTION('ref_axis',(-1.,0.,0.));
#1405=DIRECTION('center_axis',(3.69778549322349E-32,2.88889491658085E-34,
1.));
#1406=DIRECTION('ref_axis',(-1.,0.,3.69778549322349E-32));
#1407=DIRECTION('',(-1.,0.,0.));
#1408=DIRECTION('',(-8.31627733801615E-17,-1.,0.));
#1409=DIRECTION('center_axis',(-3.69778549322349E-32,-2.88889491658085E-34,
-1.));
#1410=DIRECTION('ref_axis',(0.707106781186557,0.707106781186538,0.));
#1411=DIRECTION('center_axis',(0.,-1.,0.));
#1412=DIRECTION('ref_axis',(-1.,0.,0.));
#1413=DIRECTION('',(3.69778549322349E-32,0.,1.));
#1414=DIRECTION('center_axis',(1.40413558916231E-9,1.,-2.88889543580008E-34));
#1415=DIRECTION('ref_axis',(1.,-1.40413558916231E-9,-3.69778549318293E-32));
#1416=DIRECTION('center_axis',(-1.06825137139798E-65,1.,-2.88889491658085E-34));
#1417=DIRECTION('ref_axis',(1.,0.,-3.69778549322349E-32));
#1418=DIRECTION('',(1.40413558916231E-9,1.,-2.88889543580008E-34));
#1419=DIRECTION('center_axis',(1.40413562721431E-9,1.,-2.88889543580009E-34));
#1420=DIRECTION('ref_axis',(1.,-1.40413563229155E-9,-3.69778549318293E-32));
#1421=DIRECTION('center_axis',(1.40413562721431E-9,1.,-2.88889543580009E-34));
#1422=DIRECTION('ref_axis',(1.,-1.40413563229155E-9,-3.69778549318293E-32));
#1423=DIRECTION('center_axis',(1.40413558916231E-9,1.,-2.88889543580008E-34));
#1424=DIRECTION('ref_axis',(1.,-1.40413558916231E-9,-3.69778549318293E-32));
#1425=DIRECTION('center_axis',(-1.06825137139798E-65,1.,-2.88889491658085E-34));
#1426=DIRECTION('ref_axis',(1.,0.,-3.69778549322349E-32));
#1427=DIRECTION('',(1.40413558916231E-9,1.,-2.88889543580008E-34));
#1428=DIRECTION('center_axis',(1.4041356341532E-9,1.,-2.88889543580009E-34));
#1429=DIRECTION('ref_axis',(1.,-1.40413563229155E-9,-3.69778549318293E-32));
#1430=DIRECTION('center_axis',(1.4041356341532E-9,1.,-2.88889543580009E-34));
#1431=DIRECTION('ref_axis',(1.,-1.40413563229155E-9,-3.69778549318293E-32));
#1432=DIRECTION('center_axis',(-3.69778549322349E-32,0.,-1.));
#1433=DIRECTION('ref_axis',(-0.707106781186573,0.707106781186522,0.));
#1434=DIRECTION('center_axis',(3.69778549322349E-32,0.,1.));
#1435=DIRECTION('ref_axis',(0.707106781186557,0.707106781186538,0.));
#1436=DIRECTION('',(-3.69778549322349E-32,0.,-1.));
#1437=DIRECTION('center_axis',(1.06825137139798E-65,-1.,2.88889491658085E-34));
#1438=DIRECTION('ref_axis',(1.,0.,-3.69778549322349E-32));
#1439=DIRECTION('center_axis',(-1.06825137139798E-65,1.,-2.88889491658085E-34));
#1440=DIRECTION('ref_axis',(1.,0.,-3.69778549322349E-32));
#1441=DIRECTION('center_axis',(-1.06825137139798E-65,1.,-2.88889491658085E-34));
#1442=DIRECTION('ref_axis',(1.,0.,-3.69778549322349E-32));
#1443=DIRECTION('',(-1.,1.40413562721431E-9,0.));
#1444=DIRECTION('',(-1.,1.40413562721431E-9,0.));
#1445=DIRECTION('center_axis',(1.06825137139798E-65,-1.,2.88889491658085E-34));
#1446=DIRECTION('ref_axis',(1.,0.,-3.69778549322349E-32));
#1447=DIRECTION('center_axis',(-1.06825137139798E-65,1.,-2.88889491658085E-34));
#1448=DIRECTION('ref_axis',(1.,0.,-3.69778549322349E-32));
#1449=DIRECTION('center_axis',(-1.06825137139798E-65,1.,-2.88889491658085E-34));
#1450=DIRECTION('ref_axis',(1.,0.,-3.69778549322349E-32));
#1451=DIRECTION('',(-1.,1.4041356341532E-9,0.));
#1452=DIRECTION('',(-1.,1.4041356341532E-9,0.));
#1453=DIRECTION('center_axis',(0.,-1.,0.));
#1454=DIRECTION('ref_axis',(1.,0.,-3.69778549322349E-32));
#1455=DIRECTION('',(0.,1.,0.));
#1456=DIRECTION('center_axis',(0.,-1.,0.));
#1457=DIRECTION('ref_axis',(1.,0.,-3.69778549322349E-32));
#1458=DIRECTION('',(0.,1.,0.));
#1459=DIRECTION('center_axis',(1.,-8.31627733801615E-17,-3.69778549322349E-32));
#1460=DIRECTION('ref_axis',(8.31627733801615E-17,1.,-2.88889491658088E-34));
#1461=DIRECTION('center_axis',(-1.40413562721431E-9,-1.,2.88889543580009E-34));
#1462=DIRECTION('ref_axis',(1.,-1.40413562721431E-9,-3.69778549318293E-32));
#1463=DIRECTION('center_axis',(-1.4041356341532E-9,-1.,2.88889543580009E-34));
#1464=DIRECTION('ref_axis',(1.,-1.4041356341532E-9,-3.69778549318293E-32));
#1465=DIRECTION('center_axis',(1.,0.,0.));
#1466=DIRECTION('ref_axis',(0.,-1.,0.));
#1467=DIRECTION('',(0.,0.,-1.));
#1468=DIRECTION('center_axis',(0.,0.,-1.));
#1469=DIRECTION('ref_axis',(-1.,0.,0.));
#1470=DIRECTION('',(0.,0.,-1.));
#1471=DIRECTION('center_axis',(-1.,0.,0.));
#1472=DIRECTION('ref_axis',(0.,1.,0.));
#1473=DIRECTION('',(0.,0.,-1.));
#1474=DIRECTION('center_axis',(0.,0.,-1.));
#1475=DIRECTION('ref_axis',(1.,-4.17966315153006E-15,0.));
#1476=DIRECTION('center_axis',(-3.70089865828759E-32,0.,-1.));
#1477=DIRECTION('ref_axis',(0.744023809142841,-0.668153104781066,0.));
#1478=DIRECTION('center_axis',(0.,0.,1.));
#1479=DIRECTION('ref_axis',(0.205184058744526,0.97872340425532,0.));
#1480=DIRECTION('',(0.,0.,1.));
#1481=DIRECTION('center_axis',(0.,1.,0.));
#1482=DIRECTION('ref_axis',(0.,0.,-1.));
#1483=CARTESIAN_POINT('',(0.,0.,0.));
#1484=CARTESIAN_POINT('Origin',(-39.186080250571,165.7,191.481729985377));
#1485=CARTESIAN_POINT('',(-37.6947769843499,165.861290322581,186.981729985377));
#1486=CARTESIAN_POINT('',(-39.186080250571,167.2,186.981729985377));
#1487=CARTESIAN_POINT('Origin',(-39.186080250571,165.7,186.981729985377));
#1488=CARTESIAN_POINT('',(-39.186080250571,167.2,191.481729985377));
#1489=CARTESIAN_POINT('',(-39.186080250571,167.2,191.481729985377));
#1490=CARTESIAN_POINT('',(-37.6947769843499,165.861290322581,191.481729985377));
#1491=CARTESIAN_POINT('Origin',(-39.186080250571,165.7,191.481729985377));
#1492=CARTESIAN_POINT('',(-37.6947769843499,165.861290322581,191.481729985377));
#1493=CARTESIAN_POINT('Origin',(-37.9243597113356,167.2,191.481729985377));
#1494=CARTESIAN_POINT('',(-44.44,167.2,186.981729985377));
#1495=CARTESIAN_POINT('',(-33.9321798556678,167.2,186.981729985377));
#1496=CARTESIAN_POINT('',(-44.44,167.2,191.481729985377));
#1497=CARTESIAN_POINT('',(-44.44,167.2,181.481729985377));
#1498=CARTESIAN_POINT('',(-33.9321798556678,167.2,191.481729985377));
#1499=CARTESIAN_POINT('Origin',(-29.94,160.85,186.981729985377));
#1500=CARTESIAN_POINT('',(-35.8490909090909,161.608571455073,186.981729985377));
#1501=CARTESIAN_POINT('Origin',(-29.94,166.7,186.981729985377));
#1502=CARTESIAN_POINT('',(-33.74,155.929670385731,186.981729985377));
#1503=CARTESIAN_POINT('Origin',(-42.4399999999999,155.929670385731,186.981729985377));
#1504=CARTESIAN_POINT('',(-33.74,142.7,186.981729985377));
#1505=CARTESIAN_POINT('',(-33.74,151.775,186.981729985377));
#1506=CARTESIAN_POINT('',(-26.14,142.7,186.981729985377));
#1507=CARTESIAN_POINT('Origin',(-29.94,142.7,186.981729985377));
#1508=CARTESIAN_POINT('',(-26.14,155.929670385731,186.981729985377));
#1509=CARTESIAN_POINT('',(-26.14,157.025,186.981729985377));
#1510=CARTESIAN_POINT('',(-26.0900626314372,156.860485336306,186.981729985377));
#1511=CARTESIAN_POINT('Origin',(-17.44,155.929670385731,186.981729985377));
#1512=CARTESIAN_POINT('',(-24.5986725225687,158.2,186.981729985377));
#1513=CARTESIAN_POINT('Origin',(-24.5986725225687,156.7,186.981729985377));
#1514=CARTESIAN_POINT('',(-15.94,158.2,186.981729985377));
#1515=CARTESIAN_POINT('',(-22.4550000558793,158.2,186.981729985377));
#1516=CARTESIAN_POINT('',(-14.94,157.2,186.981729985377));
#1517=CARTESIAN_POINT('Origin',(-15.94,157.2,186.981729985377));
#1518=CARTESIAN_POINT('',(-14.94,135.000002533197,186.981729985377));
#1519=CARTESIAN_POINT('',(-14.94,150.425,186.981729985377));
#1520=CARTESIAN_POINT('',(-44.94,135.000002533197,186.981729985377));
#1521=CARTESIAN_POINT('',(-22.44,135.000002533197,186.981729985377));
#1522=CARTESIAN_POINT('',(-44.94,166.7,186.981729985377));
#1523=CARTESIAN_POINT('',(-44.94,141.000002533197,186.981729985377));
#1524=CARTESIAN_POINT('Origin',(-44.44,166.7,186.981729985377));
#1525=CARTESIAN_POINT('Origin',(-24.5986725225687,156.7,191.481729985377));
#1526=CARTESIAN_POINT('',(-26.0900626314372,156.860485336306,191.481729985377));
#1527=CARTESIAN_POINT('',(-26.0900626314372,156.860485336306,191.481729985377));
#1528=CARTESIAN_POINT('',(-24.5986725225687,158.2,191.481729985377));
#1529=CARTESIAN_POINT('Origin',(-24.5986725225687,156.7,191.481729985377));
#1530=CARTESIAN_POINT('',(-24.5986725225687,158.2,191.481729985377));
#1531=CARTESIAN_POINT('Origin',(-14.9700001117587,158.2,191.481729985377));
#1532=CARTESIAN_POINT('',(-15.94,158.2,191.481729985377));
#1533=CARTESIAN_POINT('',(-22.4550000558793,158.2,191.481729985377));
#1534=CARTESIAN_POINT('',(-15.94,158.2,186.481729985377));
#1535=CARTESIAN_POINT('Origin',(-29.955000167638,167.45,191.481729985377));
#1536=CARTESIAN_POINT('',(-35.8490909090909,161.608571455073,191.481729985377));
#1537=CARTESIAN_POINT('Origin',(-29.94,166.7,191.481729985377));
#1538=CARTESIAN_POINT('',(-44.94,166.7,191.481729985377));
#1539=CARTESIAN_POINT('Origin',(-44.44,166.7,191.481729985377));
#1540=CARTESIAN_POINT('',(-44.94,150.2,191.481729985377));
#1541=CARTESIAN_POINT('',(-44.94,163.775,191.481729985377));
#1542=CARTESIAN_POINT('',(-44.9700001117587,150.2,191.481729985377));
#1543=CARTESIAN_POINT('',(-44.9700001117587,150.2,191.481729985377));
#1544=CARTESIAN_POINT('',(-44.9700001117587,166.656542813765,191.481729985377));
#1545=CARTESIAN_POINT('',(-44.9700001117587,153.2,191.481729985377));
#1546=CARTESIAN_POINT('',(-41.8901922267644,175.761982137054,191.481729985377));
#1547=CARTESIAN_POINT('Origin',(-29.9700003352761,166.656542813765,191.481729985377));
#1548=CARTESIAN_POINT('',(-41.4643221058768,175.,191.481729985377));
#1549=CARTESIAN_POINT('Origin',(-41.4643221058768,175.5,191.481729985377));
#1550=CARTESIAN_POINT('',(-34.7918254922551,175.,191.481729985377));
#1551=CARTESIAN_POINT('',(-37.4625002514571,175.,191.481729985377));
#1552=CARTESIAN_POINT('',(-29.9907839383948,174.499999999986,191.481729985377));
#1553=CARTESIAN_POINT('Origin',(-34.7918254922551,151.7,191.481729985377));
#1554=CARTESIAN_POINT('',(-29.94,174.5,191.481729985377));
#1555=CARTESIAN_POINT('',(-29.947500083819,174.5,191.481729985377));
#1556=CARTESIAN_POINT('',(-22.3980697296217,168.689795918367,191.481729985377));
#1557=CARTESIAN_POINT('Origin',(-29.9399999999999,166.7,191.481729985377));
#1558=CARTESIAN_POINT('',(-20.4642414551657,167.2,191.481729985377));
#1559=CARTESIAN_POINT('Origin',(-20.4642414551657,169.2,191.481729985377));
#1560=CARTESIAN_POINT('',(-16.0205890929249,167.2,191.481729985377));
#1561=CARTESIAN_POINT('',(-22.4550000558793,167.2,191.481729985377));
#1562=CARTESIAN_POINT('',(-15.0263454567053,168.307142857143,191.481729985377));
#1563=CARTESIAN_POINT('Origin',(-16.0205890929249,168.2,191.481729985377));
#1564=CARTESIAN_POINT('',(-14.9700001117587,165.751789397835,191.481729985377));
#1565=CARTESIAN_POINT('Origin',(-29.9399999999999,166.7,191.481729985377));
#1566=CARTESIAN_POINT('',(-14.9700001117587,157.443105361545,191.481729985377));
#1567=CARTESIAN_POINT('',(-14.9700001117587,153.2,191.481729985377));
#1568=CARTESIAN_POINT('Origin',(-15.94,157.2,191.481729985377));
#1569=CARTESIAN_POINT('',(-26.14,155.929670385731,191.481729985377));
#1570=CARTESIAN_POINT('Origin',(-17.44,155.929670385731,191.481729985377));
#1571=CARTESIAN_POINT('',(-26.14,142.7,191.481729985377));
#1572=CARTESIAN_POINT('',(-26.14,160.325,191.481729985377));
#1573=CARTESIAN_POINT('',(-33.74,142.7,191.481729985377));
#1574=CARTESIAN_POINT('Origin',(-29.94,142.7,191.481729985377));
#1575=CARTESIAN_POINT('',(-33.74,155.929670385731,191.481729985377));
#1576=CARTESIAN_POINT('',(-33.74,155.075,191.481729985377));
#1577=CARTESIAN_POINT('Origin',(-42.4399999999999,155.929670385731,191.481729985377));
#1578=CARTESIAN_POINT('',(-28.34,142.7,191.481729985377));
#1579=CARTESIAN_POINT('Origin',(-29.94,142.7,191.481729985377));
#1580=CARTESIAN_POINT('',(-28.09,166.7,191.481729985377));
#1581=CARTESIAN_POINT('Origin',(-29.94,166.7,191.481729985377));
#1582=CARTESIAN_POINT('Origin',(-17.44,155.929670385731,191.481729985377));
#1583=CARTESIAN_POINT('',(-26.14,155.929670385731,191.481729985377));
#1584=CARTESIAN_POINT('Origin',(-29.94,166.7,191.481729985377));
#1585=CARTESIAN_POINT('',(-35.8490909090909,161.608571455073,191.481729985377));
#1586=CARTESIAN_POINT('Origin',(-41.4643221058768,175.5,181.481729985377));
#1587=CARTESIAN_POINT('',(-41.8901922382516,175.761982120336,193.984176367835));
#1588=CARTESIAN_POINT('',(-41.8617125233208,175.803448275862,193.981729985377));
#1589=CARTESIAN_POINT('Ctrl Pts',(-41.890192237276,175.761982119966,193.984176369855));
#1590=CARTESIAN_POINT('Ctrl Pts',(-41.881390766591,175.776289521852,193.982544493482));
#1591=CARTESIAN_POINT('Ctrl Pts',(-41.8718663747607,175.790150974202,193.981729985377));
#1592=CARTESIAN_POINT('Ctrl Pts',(-41.8617125233208,175.803448275862,193.981729985377));
#1593=CARTESIAN_POINT('',(-41.8617125233208,175.803448275862,186.981729985377));
#1594=CARTESIAN_POINT('',(-41.8617125233208,175.803448275862,181.481729985377));
#1595=CARTESIAN_POINT('',(-41.4643221058768,175.,186.981729985377));
#1596=CARTESIAN_POINT('Origin',(-41.4643221058768,175.5,186.981729985377));
#1597=CARTESIAN_POINT('',(-41.4643221058768,175.,181.481729985377));
#1598=CARTESIAN_POINT('',(-41.8901922267644,175.761982137054,181.481729985377));
#1599=CARTESIAN_POINT('Origin',(-44.9700003352761,175.,191.481729985377));
#1600=CARTESIAN_POINT('',(-34.7918254922551,175.,186.981729985377));
#1601=CARTESIAN_POINT('',(-37.4550001676381,175.,186.981729985377));
#1602=CARTESIAN_POINT('',(-34.7918254922551,175.,191.481729985377));
#1603=CARTESIAN_POINT('Origin',(-29.94,160.85,186.981729985377));
#1604=CARTESIAN_POINT('',(-15.0263454567053,168.307142857143,186.981729985377));
#1605=CARTESIAN_POINT('Origin',(-29.94,166.7,186.981729985377));
#1606=CARTESIAN_POINT('',(-16.0205890929249,167.2,186.981729985377));
#1607=CARTESIAN_POINT('Origin',(-16.0205890929249,168.2,186.981729985377));
#1608=CARTESIAN_POINT('',(-20.4642414551657,167.2,186.981729985377));
#1609=CARTESIAN_POINT('',(-22.4550000558793,167.2,186.981729985377));
#1610=CARTESIAN_POINT('',(-22.3980697296217,168.689795918367,186.981729985377));
#1611=CARTESIAN_POINT('Origin',(-20.4642414551657,169.2,186.981729985377));
#1612=CARTESIAN_POINT('',(-29.94,174.5,186.981729985377));
#1613=CARTESIAN_POINT('Origin',(-29.9399999999999,166.7,186.981729985377));
#1614=CARTESIAN_POINT('',(-29.9907839383948,174.499999999986,186.981729985377));
#1615=CARTESIAN_POINT('',(-29.94,174.5,186.981729985377));
#1616=CARTESIAN_POINT('Origin',(-34.7918254922551,151.7,186.981729985377));
#1617=CARTESIAN_POINT('Origin',(-20.4642414551657,169.2,191.481729985377));
#1618=CARTESIAN_POINT('',(-20.4642414551657,167.2,191.481729985377));
#1619=CARTESIAN_POINT('',(-22.3980697296217,168.689795918367,191.481729985377));
#1620=CARTESIAN_POINT('Origin',(-29.9399999999999,166.7,191.481729985377));
#1621=CARTESIAN_POINT('',(-29.94,174.5,191.481729985377));
#1622=CARTESIAN_POINT('Origin',(-29.94,166.7,181.481729985377));
#1623=CARTESIAN_POINT('',(-14.9700001117587,165.751789397835,193.981729985377));
#1624=CARTESIAN_POINT('Origin',(-29.94,166.7,193.981729985377));
#1625=CARTESIAN_POINT('',(-14.9700001117587,165.751789397835,191.481729985377));
#1626=CARTESIAN_POINT('',(-15.0263454567053,168.307142857143,181.481729985377));
#1627=CARTESIAN_POINT('Origin',(-21.9556402886643,167.2,191.481729985377));
#1628=CARTESIAN_POINT('',(-16.0205890929249,167.2,181.481729985377));
#1629=CARTESIAN_POINT('Origin',(-29.94,142.7,194.856729985377));
#1630=CARTESIAN_POINT('',(-28.09,142.7,194.981729985377));
#1631=CARTESIAN_POINT('Origin',(-29.94,142.7,194.981729985377));
#1632=CARTESIAN_POINT('',(-28.34,142.7,194.731729985377));
#1633=CARTESIAN_POINT('',(-28.215,142.7,194.856729985377));
#1634=CARTESIAN_POINT('Origin',(-29.94,142.7,194.731729985377));
#1635=CARTESIAN_POINT('Origin',(-29.955000167638,167.45,194.981729985377));
#1636=CARTESIAN_POINT('',(-15.94,150.2,194.981729985377));
#1637=CARTESIAN_POINT('',(-15.94,135.000002533197,194.981729985377));
#1638=CARTESIAN_POINT('',(-15.94,153.725,194.981729985377));
#1639=CARTESIAN_POINT('',(-15.9700001117587,150.2,194.981729985377));
#1640=CARTESIAN_POINT('',(-22.4550031891787,150.2,194.981729985377));
#1641=CARTESIAN_POINT('',(-15.9700001117587,165.783974278451,194.981729985377));
#1642=CARTESIAN_POINT('',(-15.9700001117587,160.325,194.981729985377));
#1643=CARTESIAN_POINT('',(-41.476257321554,174.631882942334,194.981729985377));
#1644=CARTESIAN_POINT('Origin',(-29.94,166.7,194.981729985377));
#1645=CARTESIAN_POINT('',(-43.9700003352761,166.656542813765,194.981729985377));
#1646=CARTESIAN_POINT('Origin',(-29.9700003352761,166.656542813765,194.981729985377));
#1647=CARTESIAN_POINT('',(-43.9700003352761,150.2,194.981729985377));
#1648=CARTESIAN_POINT('',(-43.9700003352761,171.325,194.981729985377));
#1649=CARTESIAN_POINT('',(-43.94,150.2,194.981729985377));
#1650=CARTESIAN_POINT('',(-44.9700001117587,150.2,194.981729985377));
#1651=CARTESIAN_POINT('',(-43.94,135.000002533197,194.981729985377));
#1652=CARTESIAN_POINT('',(-43.94,167.075,194.981729985377));
#1653=CARTESIAN_POINT('',(-22.4400031332993,135.000002533197,194.981729985377));
#1654=CARTESIAN_POINT('',(-28.09,166.7,194.981729985377));
#1655=CARTESIAN_POINT('Origin',(-29.94,166.7,194.981729985377));
#1656=CARTESIAN_POINT('Origin',(-29.94,142.7,194.981729985377));
#1657=CARTESIAN_POINT('',(-28.34,142.7,194.981729985377));
#1658=CARTESIAN_POINT('Origin',(-29.94,166.7,194.856729985377));
#1659=CARTESIAN_POINT('',(-28.34,166.7,194.731729985377));
#1660=CARTESIAN_POINT('',(-28.215,166.7,194.856729985377));
#1661=CARTESIAN_POINT('Origin',(-29.94,166.7,194.731729985377));
#1662=CARTESIAN_POINT('Origin',(-29.94,166.7,194.981729985377));
#1663=CARTESIAN_POINT('',(-28.34,166.7,191.731729985377));
#1664=CARTESIAN_POINT('Origin',(-29.94,166.7,191.731729985377));
#1665=CARTESIAN_POINT('',(-28.34,166.7,194.981729985377));
#1666=CARTESIAN_POINT('Origin',(-29.94,166.7,191.606729985377));
#1667=CARTESIAN_POINT('',(-28.215,166.7,191.606729985377));
#1668=CARTESIAN_POINT('Origin',(-15.44,153.725,194.481729985377));
#1669=CARTESIAN_POINT('',(-14.94,135.000002533197,193.981729985377));
#1670=CARTESIAN_POINT('',(-15.44,135.000002533197,194.481729985377));
#1671=CARTESIAN_POINT('',(-14.94,150.2,193.981729985377));
#1672=CARTESIAN_POINT('',(-14.94,153.725,193.981729985377));
#1673=CARTESIAN_POINT('',(-15.4475000279397,150.2,194.489230013317));
#1674=CARTESIAN_POINT('Origin',(-14.94,135.000002533197,194.981729985377));
#1675=CARTESIAN_POINT('',(-44.94,135.000002533197,193.981729985377));
#1676=CARTESIAN_POINT('',(-36.9400000000001,135.000002533197,201.981729985377));
#1677=CARTESIAN_POINT('',(-44.94,135.000002533197,188.231729985377));
#1678=CARTESIAN_POINT('',(-14.94,135.000002533197,188.231729985377));
#1679=CARTESIAN_POINT('',(-21.9899999928389,135.000002533197,190.981729985377));
#1680=CARTESIAN_POINT('Origin',(-19.9399999928389,135.000002533197,190.981729985377));
#1681=CARTESIAN_POINT('',(-41.9899999928389,135.000002533197,190.981729985377));
#1682=CARTESIAN_POINT('Origin',(-39.9399999928389,135.000002533197,190.981729985377));
#1683=CARTESIAN_POINT('Origin',(-29.94,166.7,194.481729985377));
#1684=CARTESIAN_POINT('',(-42.2992070943083,175.2,193.981729985377));
#1685=CARTESIAN_POINT('Ctrl Pts',(-42.2992070943083,175.2,193.981729985377));
#1686=CARTESIAN_POINT('Ctrl Pts',(-42.1682543609344,175.388980092044,193.982539396641));
#1687=CARTESIAN_POINT('Ctrl Pts',(-42.0318780612048,175.576497145105,193.983355482135));
#1688=CARTESIAN_POINT('Ctrl Pts',(-41.8901922390617,175.761982120955,193.984176367835));
#1689=CARTESIAN_POINT('Ctrl Pts',(-42.2992070943083,175.2,193.981729985377));
#1690=CARTESIAN_POINT('Ctrl Pts',(-42.2306338914272,175.15264828418,194.06506331871));
#1691=CARTESIAN_POINT('Ctrl Pts',(-42.1620592021983,175.105298725186,194.148396652044));
#1692=CARTESIAN_POINT('Ctrl Pts',(-42.0249068512486,175.010603920994,194.31506331871));
#1693=CARTESIAN_POINT('Ctrl Pts',(-41.9563291895277,174.963258675795,194.398396652044));
#1694=CARTESIAN_POINT('Ctrl Pts',(-41.8191708937974,174.86857249933,194.56506331871));
#1695=CARTESIAN_POINT('Ctrl Pts',(-41.750590259788,174.821231568065,194.648396652044));
#1696=CARTESIAN_POINT('Ctrl Pts',(-41.613426019684,174.726554019609,194.81506331871));
#1697=CARTESIAN_POINT('Ctrl Pts',(-41.5448424135894,174.679217402418,194.898396652044));
#1698=CARTESIAN_POINT('Ctrl Pts',(-41.476257321554,174.631882942334,194.981729985377));
#1699=CARTESIAN_POINT('Ctrl Pts',(-15.9700001117587,165.783974278451,194.981729985377));
#1700=CARTESIAN_POINT('Ctrl Pts',(-15.6367934622989,165.773061662694,194.648523335917));
#1701=CARTESIAN_POINT('Ctrl Pts',(-15.3032114582127,165.762331757951,194.314941331831));
#1702=CARTESIAN_POINT('Ctrl Pts',(-14.9700001117587,165.751789397835,193.981729985377));
#1703=CARTESIAN_POINT('Origin',(-44.4700003352761,171.325,194.481729985377));
#1704=CARTESIAN_POINT('',(-44.9700001117587,150.2,193.981729985377));
#1705=CARTESIAN_POINT('',(-36.9700002793969,150.2,201.981730041256));
#1706=CARTESIAN_POINT('',(-44.9700003352761,166.656542813765,193.981729985377));
#1707=CARTESIAN_POINT('',(-43.9700003352761,166.656542813765,194.981729985377));
#1708=CARTESIAN_POINT('',(-44.9700003352761,171.325,193.981729985377));
#1709=CARTESIAN_POINT('Origin',(-29.9700003352761,166.656542813765,194.481729985377));
#1710=CARTESIAN_POINT('Origin',(-29.9700003352761,166.656542813765,193.981729985377));
#1711=CARTESIAN_POINT('Origin',(-15.4700001117587,160.325,194.481729985377));
#1712=CARTESIAN_POINT('',(-14.9700001117587,150.2,193.981729985377));
#1713=CARTESIAN_POINT('',(-15.4700001117587,150.2,194.481729985377));
#1714=CARTESIAN_POINT('',(-14.9700001117587,160.325,193.981729985377));
#1715=CARTESIAN_POINT('Origin',(-44.9700003352761,175.2,191.481729985377));
#1716=CARTESIAN_POINT('',(-44.9700003352761,166.656542813765,191.481729985377));
#1717=CARTESIAN_POINT('',(-44.9700001117587,150.2,194.981729985377));
#1718=CARTESIAN_POINT('Origin',(-29.9700003352761,166.656542813765,191.481729985377));
#1719=CARTESIAN_POINT('Origin',(-14.9700001117587,153.2,191.481729985377));
#1720=CARTESIAN_POINT('',(-14.9700001117587,150.2,191.481729985377));
#1721=CARTESIAN_POINT('',(-14.9700001117587,150.2,194.981729985377));
#1722=CARTESIAN_POINT('',(-14.9700001117587,158.525,191.481729985377));
#1723=CARTESIAN_POINT('Origin',(-44.44,167.075,194.481729985377));
#1724=CARTESIAN_POINT('',(-44.94,150.2,193.981729985377));
#1725=CARTESIAN_POINT('',(-36.9475000279398,150.2,201.974229957437));
#1726=CARTESIAN_POINT('',(-44.94,167.075,193.981729985377));
#1727=CARTESIAN_POINT('Origin',(-44.94,166.7,181.481729985377));
#1728=CARTESIAN_POINT('',(-44.94,150.2,188.231729985377));
#1729=CARTESIAN_POINT('',(-44.94,166.7,181.481729985377));
#1730=CARTESIAN_POINT('Origin',(-39.9399999785167,150.2,190.981729985377));
#1731=CARTESIAN_POINT('',(-41.9280895137238,150.2,191.481729985377));
#1732=CARTESIAN_POINT('',(-37.9519104433096,150.2,191.481729985377));
#1733=CARTESIAN_POINT('Origin',(-39.9399999785167,150.2,190.981729985377));
#1734=CARTESIAN_POINT('',(-41.9280895113368,151.900000068671,191.481729985377));
#1735=CARTESIAN_POINT('',(-41.9280895352071,134.900000068671,191.481729985377));
#1736=CARTESIAN_POINT('',(-37.9519104409226,151.900000063088,191.481729985377));
#1737=CARTESIAN_POINT('Origin',(-39.9399999785167,151.9,190.981729985377));
#1738=CARTESIAN_POINT('',(-37.9519104647929,134.900000063088,191.481729985377));
#1739=CARTESIAN_POINT('Origin',(-19.9399999785167,150.2,190.981729985377));
#1740=CARTESIAN_POINT('',(-21.9280895137238,150.2,191.481729985377));
#1741=CARTESIAN_POINT('',(-17.9519104433096,150.2,191.481729985377));
#1742=CARTESIAN_POINT('Origin',(-19.9399999785167,150.2,190.981729985377));
#1743=CARTESIAN_POINT('',(-21.9280895113368,151.900000040588,191.481729985377));
#1744=CARTESIAN_POINT('',(-21.9280895352071,134.900000040588,191.481729985377));
#1745=CARTESIAN_POINT('',(-17.9519104409226,151.900000035005,191.481729985377));
#1746=CARTESIAN_POINT('Origin',(-19.9399999785167,151.9,190.981729985377));
#1747=CARTESIAN_POINT('',(-17.9519104647929,134.900000035005,191.481729985377));
#1748=CARTESIAN_POINT('Origin',(-14.9700001117587,150.2,194.981729985377));
#1749=CARTESIAN_POINT('Origin',(-29.94,160.85,191.481729985377));
#1750=CARTESIAN_POINT('',(-14.94,150.2,191.481729985377));
#1751=CARTESIAN_POINT('',(-44.9700001117587,150.2,191.481729985377));
#1752=CARTESIAN_POINT('',(-14.94,157.2,191.481729985377));
#1753=CARTESIAN_POINT('',(-14.94,145.1,191.481729985377));
#1754=CARTESIAN_POINT('Origin',(-15.94,157.2,191.481729985377));
#1755=CARTESIAN_POINT('Origin',(-14.9700001117587,150.2,194.981729985377));
#1756=CARTESIAN_POINT('',(-14.94,150.2,188.231729985377));
#1757=CARTESIAN_POINT('Origin',(-39.94,134.900000065879,190.981729985377));
#1758=CARTESIAN_POINT('',(-41.9899999928389,140.000002533197,190.981729985377));
#1759=CARTESIAN_POINT('Origin',(-39.9399999928389,140.000002533197,190.981729985377));
#1760=CARTESIAN_POINT('',(-41.9899999761297,151.900000068758,190.981729985377));
#1761=CARTESIAN_POINT('',(-41.99,134.900000068758,190.981729985377));
#1762=CARTESIAN_POINT('Origin',(-39.9399999761297,151.900000065879,190.981729985377));
#1763=CARTESIAN_POINT('Origin',(-39.9399999761297,151.900000065879,190.981729985377));
#1764=CARTESIAN_POINT('Origin',(-19.94,134.900000037796,190.981729985377));
#1765=CARTESIAN_POINT('',(-21.9899999928389,140.000002533197,190.981729985377));
#1766=CARTESIAN_POINT('Origin',(-19.9399999928389,140.000002533197,190.981729985377));
#1767=CARTESIAN_POINT('',(-21.9899999761297,151.900000040675,190.981729985377));
#1768=CARTESIAN_POINT('',(-21.99,134.900000040675,190.981729985377));
#1769=CARTESIAN_POINT('Origin',(-19.9399999761297,151.900000037797,190.981729985377));
#1770=CARTESIAN_POINT('Origin',(-19.9399999761297,151.900000037797,190.981729985377));
#1771=CARTESIAN_POINT('Origin',(-44.44,166.7,181.481729985377));
#1772=CARTESIAN_POINT('Origin',(-15.94,157.2,186.481729985377));
#1773=CARTESIAN_POINT('',(-14.94,157.2,186.481729985377));
#1774=CARTESIAN_POINT('Origin',(-39.94,151.9,190.981729985377));
#1775=CARTESIAN_POINT('',(-41.49,151.9,190.981729985377));
#1776=CARTESIAN_POINT('',(-41.4071400751121,151.9,191.481729985377));
#1777=CARTESIAN_POINT('Origin',(-39.94,151.9,190.981729985377));
#1778=CARTESIAN_POINT('',(-38.4728599248879,151.9,191.481729985377));
#1779=CARTESIAN_POINT('Origin',(-39.94,151.9,190.981729985377));
#1780=CARTESIAN_POINT('',(-34.9550000448569,151.90000005888,191.481729985377));
#1781=CARTESIAN_POINT('',(-34.9550000448569,151.90000005888,191.481729985377));
#1782=CARTESIAN_POINT('Origin',(-19.94,151.9,190.981729985377));
#1783=CARTESIAN_POINT('',(-21.49,151.9,190.981729985377));
#1784=CARTESIAN_POINT('',(-21.4071400751121,151.9,191.481729985377));
#1785=CARTESIAN_POINT('Origin',(-19.94,151.9,190.981729985377));
#1786=CARTESIAN_POINT('',(-18.4728599248879,151.9,191.481729985377));
#1787=CARTESIAN_POINT('Origin',(-19.94,151.9,190.981729985377));
#1788=CARTESIAN_POINT('',(-24.9550000448569,151.900000044838,191.481729985377));
#1789=CARTESIAN_POINT('',(-24.9550000448569,151.900000044838,191.481729985377));
#1790=CARTESIAN_POINT('Origin',(-39.9399999928389,140.000002533197,190.981729985377));
#1791=CARTESIAN_POINT('',(-41.9899999928389,140.000002533197,190.981729985377));
#1792=CARTESIAN_POINT('Origin',(-19.9399999928389,140.000002533197,190.981729985377));
#1793=CARTESIAN_POINT('',(-21.9899999928389,140.000002533197,190.981729985377));
#1794=CARTESIAN_POINT('Origin',(-14.94,140.,181.481729985377));
#1795=CARTESIAN_POINT('Origin',(-39.9399999761297,151.900000065879,190.981729985377));
#1796=CARTESIAN_POINT('Origin',(-19.9399999761297,151.900000037797,190.981729985377));
#1797=CARTESIAN_POINT('Origin',(-26.14,153.2,191.481729985377));
#1798=CARTESIAN_POINT('',(-26.14,142.7,191.481729985377));
#1799=CARTESIAN_POINT('Origin',(-29.94,142.7,191.481729985377));
#1800=CARTESIAN_POINT('',(-33.74,142.7,191.481729985377));
#1801=CARTESIAN_POINT('Origin',(-33.74,142.7,191.481729985377));
#1802=CARTESIAN_POINT('',(-33.74,155.929670385731,191.481729985377));
#1803=CARTESIAN_POINT('Origin',(-42.4399999999999,155.929670385731,191.481729985377));
#1804=CARTESIAN_POINT('Origin',(-16.0205890929249,168.2,181.481729985377));
#1805=CARTESIAN_POINT('Origin',(-34.7918254922551,151.7,191.481729985377));
#1806=CARTESIAN_POINT('',(-29.9907839385921,174.5,191.481729985377));
#1807=CARTESIAN_POINT('Origin',(-29.94,174.5,191.481729985377));
#1808=UNCERTAINTY_MEASURE_WITH_UNIT(LENGTH_MEASURE(0.01),#1812,
'DISTANCE_ACCURACY_VALUE',
'Maximum model space distance between geometric entities at asserted c
onnectivities');
#1809=UNCERTAINTY_MEASURE_WITH_UNIT(LENGTH_MEASURE(0.01),#1812,
'DISTANCE_ACCURACY_VALUE',
'Maximum model space distance between geometric entities at asserted c
onnectivities');
#1810=(
GEOMETRIC_REPRESENTATION_CONTEXT(3)
GLOBAL_UNCERTAINTY_ASSIGNED_CONTEXT((#1808))
GLOBAL_UNIT_ASSIGNED_CONTEXT((#1812,#1814,#1815))
REPRESENTATION_CONTEXT('','3D')
);
#1811=(
GEOMETRIC_REPRESENTATION_CONTEXT(3)
GLOBAL_UNCERTAINTY_ASSIGNED_CONTEXT((#1809))
GLOBAL_UNIT_ASSIGNED_CONTEXT((#1812,#1814,#1815))
REPRESENTATION_CONTEXT('','3D')
);
#1812=(
LENGTH_UNIT()
NAMED_UNIT(*)
SI_UNIT(.MILLI.,.METRE.)
);
#1813=(
LENGTH_UNIT()
NAMED_UNIT(*)
SI_UNIT($,.METRE.)
);
#1814=(
NAMED_UNIT(*)
PLANE_ANGLE_UNIT()
SI_UNIT($,.RADIAN.)
);
#1815=(
NAMED_UNIT(*)
SI_UNIT($,.STERADIAN.)
SOLID_ANGLE_UNIT()
);
#1816=SHAPE_DEFINITION_REPRESENTATION(#1817,#1818);
#1817=PRODUCT_DEFINITION_SHAPE('',$,#1820);
#1818=SHAPE_REPRESENTATION('',(#1054),#1810);
#1819=PRODUCT_DEFINITION_CONTEXT('part definition',#1824,'design');
#1820=PRODUCT_DEFINITION('Upper Leg upper hoop top',
'Upper Leg upper hoop top',#1821,#1819);
#1821=PRODUCT_DEFINITION_FORMATION('',$,#1826);
#1822=PRODUCT_RELATED_PRODUCT_CATEGORY('Upper Leg upper hoop top',
'Upper Leg upper hoop top',(#1826));
#1823=APPLICATION_PROTOCOL_DEFINITION('international standard',
'automotive_design',2009,#1824);
#1824=APPLICATION_CONTEXT(
'Core Data for Automotive Mechanical Design Process');
#1825=PRODUCT_CONTEXT('part definition',#1824,'mechanical');
#1826=PRODUCT('Upper Leg upper hoop top','Upper Leg upper hoop top',$,(#1825));
#1827=PRESENTATION_STYLE_ASSIGNMENT((#1829));
#1828=PRESENTATION_STYLE_ASSIGNMENT((#1830));
#1829=SURFACE_STYLE_USAGE(.BOTH.,#1831);
#1830=SURFACE_STYLE_USAGE(.BOTH.,#1832);
#1831=SURFACE_SIDE_STYLE('',(#1833));
#1832=SURFACE_SIDE_STYLE('',(#1834));
#1833=SURFACE_STYLE_FILL_AREA(#1835);
#1834=SURFACE_STYLE_FILL_AREA(#1836);
#1835=FILL_AREA_STYLE('Steel - Satin',(#1837));
#1836=FILL_AREA_STYLE('ABS (White)',(#1838));
#1837=FILL_AREA_STYLE_COLOUR('Steel - Satin',#1839);
#1838=FILL_AREA_STYLE_COLOUR('ABS (White)',#1840);
#1839=COLOUR_RGB('Steel - Satin',0.627450980392157,0.627450980392157,0.627450980392157);
#1840=COLOUR_RGB('ABS (White)',0.964705882352941,0.964705882352941,0.952941176470588);
ENDSEC;
END-ISO-10303-21;
