ISO-10303-21;
HEADER;
/* Generated by software containing ST-Developer
 * from STEP Tools, Inc. (www.steptools.com) 
 */

FILE_DESCRIPTION(
/* description */ (''),
/* implementation_level */ '2;1');

FILE_NAME(
/* name */ 'Upper Leg lower hoop right.step',
/* time_stamp */ '2025-12-12T13:05:02+01:00',
/* author */ (''),
/* organization */ (''),
/* preprocessor_version */ 'ST-DEVELOPER v20.1',
/* originating_system */ 'Autodesk Translation Framework v14.21.0.0',
/* authorisation */ '');

FILE_SCHEMA (('AUTOMOTIVE_DESIGN { 1 0 10303 214 3 1 1 }'));
ENDSEC;

DATA;
#10=MECHANICAL_DESIGN_GEOMETRIC_PRESENTATION_REPRESENTATION('',(#13),#1306);
#11=SHAPE_REPRESENTATION_RELATIONSHIP('SRR','None',#1313,#12);
#12=ADVANCED_BREP_SHAPE_REPRESENTATION('',(#14),#1305);
#13=STYLED_ITEM('',(#1323),#14);
#14=MANIFOLD_SOLID_BREP('Body1',#753);
#15=(
BOUNDED_CURVE()
B_SPLINE_CURVE(2,(#1218,#1219,#1220),.UNSPECIFIED.,.F.,.F.)
B_SPLINE_CURVE_WITH_KNOTS((3,3),(0.31297830593723,0.453414430240798),
 .UNSPECIFIED.)
CURVE()
GEOMETRIC_REPRESENTATION_ITEM()
RATIONAL_B_SPLINE_CURVE((1.00751035331245,1.00785802298532,1.00700556602447))
REPRESENTATION_ITEM('')
);
#16=CYLINDRICAL_SURFACE('',#773,1.6);
#17=CYLINDRICAL_SURFACE('',#777,1.6);
#18=CYLINDRICAL_SURFACE('',#794,0.5);
#19=CYLINDRICAL_SURFACE('',#796,15.);
#20=CYLINDRICAL_SURFACE('',#799,1.);
#21=CYLINDRICAL_SURFACE('',#802,2.5);
#22=CYLINDRICAL_SURFACE('',#804,7.80000000000002);
#23=CYLINDRICAL_SURFACE('',#806,2.);
#24=CYLINDRICAL_SURFACE('',#808,7.80000000000002);
#25=CYLINDRICAL_SURFACE('',#811,8.69999999999983);
#26=CYLINDRICAL_SURFACE('',#824,1.);
#27=CYLINDRICAL_SURFACE('',#826,2.05);
#28=CYLINDRICAL_SURFACE('',#831,2.05000000000001);
#29=CYLINDRICAL_SURFACE('',#836,2.05);
#30=CYLINDRICAL_SURFACE('',#839,2.05000000000001);
#31=CYLINDRICAL_SURFACE('',#845,3.8);
#32=CYLINDRICAL_SURFACE('',#847,8.69999999999984);
#33=FACE_BOUND('',#102,.T.);
#34=FACE_BOUND('',#103,.T.);
#35=FACE_BOUND('',#109,.T.);
#36=FACE_BOUND('',#110,.T.);
#37=FACE_BOUND('',#126,.T.);
#38=FACE_BOUND('',#127,.T.);
#39=PLANE('',#770);
#40=PLANE('',#781);
#41=PLANE('',#801);
#42=PLANE('',#810);
#43=PLANE('',#813);
#44=PLANE('',#814);
#45=PLANE('',#815);
#46=PLANE('',#817);
#47=PLANE('',#820);
#48=PLANE('',#821);
#49=PLANE('',#830);
#50=PLANE('',#835);
#51=PLANE('',#838);
#52=PLANE('',#841);
#53=PLANE('',#842);
#54=PLANE('',#843);
#55=PLANE('',#844);
#56=PLANE('',#846);
#57=PLANE('',#848);
#58=PLANE('',#849);
#59=FACE_OUTER_BOUND('',#100,.T.);
#60=FACE_OUTER_BOUND('',#101,.T.);
#61=FACE_OUTER_BOUND('',#104,.T.);
#62=FACE_OUTER_BOUND('',#105,.T.);
#63=FACE_OUTER_BOUND('',#106,.T.);
#64=FACE_OUTER_BOUND('',#107,.T.);
#65=FACE_OUTER_BOUND('',#108,.T.);
#66=FACE_OUTER_BOUND('',#111,.T.);
#67=FACE_OUTER_BOUND('',#112,.T.);
#68=FACE_OUTER_BOUND('',#113,.T.);
#69=FACE_OUTER_BOUND('',#114,.T.);
#70=FACE_OUTER_BOUND('',#115,.T.);
#71=FACE_OUTER_BOUND('',#116,.T.);
#72=FACE_OUTER_BOUND('',#117,.T.);
#73=FACE_OUTER_BOUND('',#118,.T.);
#74=FACE_OUTER_BOUND('',#119,.T.);
#75=FACE_OUTER_BOUND('',#120,.T.);
#76=FACE_OUTER_BOUND('',#121,.T.);
#77=FACE_OUTER_BOUND('',#122,.T.);
#78=FACE_OUTER_BOUND('',#123,.T.);
#79=FACE_OUTER_BOUND('',#124,.T.);
#80=FACE_OUTER_BOUND('',#125,.T.);
#81=FACE_OUTER_BOUND('',#128,.T.);
#82=FACE_OUTER_BOUND('',#129,.T.);
#83=FACE_OUTER_BOUND('',#130,.T.);
#84=FACE_OUTER_BOUND('',#131,.T.);
#85=FACE_OUTER_BOUND('',#132,.T.);
#86=FACE_OUTER_BOUND('',#133,.T.);
#87=FACE_OUTER_BOUND('',#134,.T.);
#88=FACE_OUTER_BOUND('',#135,.T.);
#89=FACE_OUTER_BOUND('',#136,.T.);
#90=FACE_OUTER_BOUND('',#137,.T.);
#91=FACE_OUTER_BOUND('',#138,.T.);
#92=FACE_OUTER_BOUND('',#139,.T.);
#93=FACE_OUTER_BOUND('',#140,.T.);
#94=FACE_OUTER_BOUND('',#141,.T.);
#95=FACE_OUTER_BOUND('',#142,.T.);
#96=FACE_OUTER_BOUND('',#143,.T.);
#97=FACE_OUTER_BOUND('',#144,.T.);
#98=FACE_OUTER_BOUND('',#145,.T.);
#99=FACE_OUTER_BOUND('',#146,.T.);
#100=EDGE_LOOP('',(#494,#495,#496,#497));
#101=EDGE_LOOP('',(#498,#499,#500,#501,#502));
#102=EDGE_LOOP('',(#503));
#103=EDGE_LOOP('',(#504));
#104=EDGE_LOOP('',(#505,#506,#507,#508));
#105=EDGE_LOOP('',(#509,#510,#511,#512));
#106=EDGE_LOOP('',(#513,#514,#515,#516));
#107=EDGE_LOOP('',(#517,#518,#519,#520));
#108=EDGE_LOOP('',(#521,#522,#523,#524,#525,#526,#527,#528,#529,#530,#531,
#532,#533,#534,#535,#536,#537,#538,#539,#540));
#109=EDGE_LOOP('',(#541));
#110=EDGE_LOOP('',(#542));
#111=EDGE_LOOP('',(#543,#544,#545,#546));
#112=EDGE_LOOP('',(#547,#548,#549,#550,#551,#552,#553,#554));
#113=EDGE_LOOP('',(#555,#556,#557,#558));
#114=EDGE_LOOP('',(#559,#560,#561,#562));
#115=EDGE_LOOP('',(#563,#564,#565,#566));
#116=EDGE_LOOP('',(#567,#568,#569,#570));
#117=EDGE_LOOP('',(#571,#572,#573,#574));
#118=EDGE_LOOP('',(#575,#576,#577,#578));
#119=EDGE_LOOP('',(#579,#580,#581,#582));
#120=EDGE_LOOP('',(#583,#584,#585,#586));
#121=EDGE_LOOP('',(#587,#588,#589,#590,#591,#592,#593,#594));
#122=EDGE_LOOP('',(#595,#596,#597,#598));
#123=EDGE_LOOP('',(#599,#600,#601,#602));
#124=EDGE_LOOP('',(#603,#604,#605,#606));
#125=EDGE_LOOP('',(#607,#608,#609,#610,#611,#612));
#126=EDGE_LOOP('',(#613));
#127=EDGE_LOOP('',(#614));
#128=EDGE_LOOP('',(#615,#616,#617,#618));
#129=EDGE_LOOP('',(#619,#620,#621,#622,#623,#624,#625,#626,#627,#628,#629,
#630,#631));
#130=EDGE_LOOP('',(#632,#633,#634,#635));
#131=EDGE_LOOP('',(#636,#637,#638,#639,#640));
#132=EDGE_LOOP('',(#641,#642));
#133=EDGE_LOOP('',(#643,#644,#645,#646,#647));
#134=EDGE_LOOP('',(#648,#649));
#135=EDGE_LOOP('',(#650,#651,#652,#653,#654,#655,#656,#657));
#136=EDGE_LOOP('',(#658,#659,#660,#661));
#137=EDGE_LOOP('',(#662,#663,#664,#665,#666,#667,#668,#669));
#138=EDGE_LOOP('',(#670,#671));
#139=EDGE_LOOP('',(#672,#673));
#140=EDGE_LOOP('',(#674,#675,#676,#677,#678,#679));
#141=EDGE_LOOP('',(#680,#681,#682,#683));
#142=EDGE_LOOP('',(#684,#685,#686,#687));
#143=EDGE_LOOP('',(#688,#689,#690,#691));
#144=EDGE_LOOP('',(#692,#693,#694,#695));
#145=EDGE_LOOP('',(#696,#697,#698,#699));
#146=EDGE_LOOP('',(#700,#701,#702,#703,#704,#705,#706,#707));
#147=LINE('',#1087,#211);
#148=LINE('',#1092,#212);
#149=LINE('',#1096,#213);
#150=LINE('',#1098,#214);
#151=LINE('',#1099,#215);
#152=LINE('',#1105,#216);
#153=LINE('',#1108,#217);
#154=LINE('',#1113,#218);
#155=LINE('',#1117,#219);
#156=LINE('',#1121,#220);
#157=LINE('',#1123,#221);
#158=LINE('',#1129,#222);
#159=LINE('',#1135,#223);
#160=LINE('',#1137,#224);
#161=LINE('',#1143,#225);
#162=LINE('',#1147,#226);
#163=LINE('',#1155,#227);
#164=LINE('',#1163,#228);
#165=LINE('',#1164,#229);
#166=LINE('',#1167,#230);
#167=LINE('',#1170,#231);
#168=LINE('',#1172,#232);
#169=LINE('',#1178,#233);
#170=LINE('',#1179,#234);
#171=LINE('',#1182,#235);
#172=LINE('',#1183,#236);
#173=LINE('',#1188,#237);
#174=LINE('',#1189,#238);
#175=LINE('',#1192,#239);
#176=LINE('',#1198,#240);
#177=LINE('',#1199,#241);
#178=LINE('',#1202,#242);
#179=LINE('',#1206,#243);
#180=LINE('',#1207,#244);
#181=LINE('',#1211,#245);
#182=LINE('',#1214,#246);
#183=LINE('',#1216,#247);
#184=LINE('',#1217,#248);
#185=LINE('',#1223,#249);
#186=LINE('',#1224,#250);
#187=LINE('',#1227,#251);
#188=LINE('',#1228,#252);
#189=LINE('',#1229,#253);
#190=LINE('',#1233,#254);
#191=LINE('',#1235,#255);
#192=LINE('',#1237,#256);
#193=LINE('',#1238,#257);
#194=LINE('',#1244,#258);
#195=LINE('',#1246,#259);
#196=LINE('',#1247,#260);
#197=LINE('',#1251,#261);
#198=LINE('',#1254,#262);
#199=LINE('',#1262,#263);
#200=LINE('',#1266,#264);
#201=LINE('',#1269,#265);
#202=LINE('',#1275,#266);
#203=LINE('',#1279,#267);
#204=LINE('',#1282,#268);
#205=LINE('',#1284,#269);
#206=LINE('',#1288,#270);
#207=LINE('',#1294,#271);
#208=LINE('',#1296,#272);
#209=LINE('',#1298,#273);
#210=LINE('',#1301,#274);
#211=VECTOR('',#856,1.725);
#212=VECTOR('',#861,10.);
#213=VECTOR('',#864,10.);
#214=VECTOR('',#865,10.);
#215=VECTOR('',#866,10.);
#216=VECTOR('',#873,1.6);
#217=VECTOR('',#876,1.725);
#218=VECTOR('',#883,1.6);
#219=VECTOR('',#888,1.85000000000001);
#220=VECTOR('',#891,10.);
#221=VECTOR('',#892,10.);
#222=VECTOR('',#897,10.);
#223=VECTOR('',#902,10.);
#224=VECTOR('',#903,10.);
#225=VECTOR('',#908,10.);
#226=VECTOR('',#911,10.);
#227=VECTOR('',#918,10.);
#228=VECTOR('',#927,10.);
#229=VECTOR('',#928,10.);
#230=VECTOR('',#931,10.);
#231=VECTOR('',#934,10.);
#232=VECTOR('',#935,10.);
#233=VECTOR('',#942,10.);
#234=VECTOR('',#943,10.);
#235=VECTOR('',#946,10.);
#236=VECTOR('',#947,10.);
#237=VECTOR('',#952,10.);
#238=VECTOR('',#953,10.);
#239=VECTOR('',#956,10.);
#240=VECTOR('',#963,10.);
#241=VECTOR('',#964,10.);
#242=VECTOR('',#967,10.);
#243=VECTOR('',#972,10.);
#244=VECTOR('',#973,10.);
#245=VECTOR('',#978,10.);
#246=VECTOR('',#981,10.);
#247=VECTOR('',#982,10.);
#248=VECTOR('',#983,10.);
#249=VECTOR('',#986,10.);
#250=VECTOR('',#987,10.);
#251=VECTOR('',#990,10.);
#252=VECTOR('',#991,10.);
#253=VECTOR('',#992,10.);
#254=VECTOR('',#997,10.);
#255=VECTOR('',#998,10.);
#256=VECTOR('',#999,10.);
#257=VECTOR('',#1000,10.);
#258=VECTOR('',#1007,10.);
#259=VECTOR('',#1010,10.);
#260=VECTOR('',#1011,10.);
#261=VECTOR('',#1014,10.);
#262=VECTOR('',#1017,10.);
#263=VECTOR('',#1026,10.);
#264=VECTOR('',#1029,10.);
#265=VECTOR('',#1034,10.);
#266=VECTOR('',#1039,10.);
#267=VECTOR('',#1042,10.);
#268=VECTOR('',#1047,10.);
#269=VECTOR('',#1050,2.05);
#270=VECTOR('',#1057,2.05000000000001);
#271=VECTOR('',#1068,10.);
#272=VECTOR('',#1071,10.);
#273=VECTOR('',#1074,10.);
#274=VECTOR('',#1079,10.);
#275=CIRCLE('',#768,1.85);
#276=CIRCLE('',#769,1.6);
#277=CIRCLE('',#771,14.);
#278=CIRCLE('',#772,1.85);
#279=CIRCLE('',#774,1.6);
#280=CIRCLE('',#776,1.6);
#281=CIRCLE('',#778,1.6);
#282=CIRCLE('',#780,2.10000000000001);
#283=CIRCLE('',#782,7.80000000000002);
#284=CIRCLE('',#783,2.5);
#285=CIRCLE('',#784,1.);
#286=CIRCLE('',#785,15.);
#287=CIRCLE('',#786,1.);
#288=CIRCLE('',#787,8.69999999999983);
#289=CIRCLE('',#788,3.8);
#290=CIRCLE('',#789,8.69999999999984);
#291=CIRCLE('',#790,7.80000000000002);
#292=CIRCLE('',#791,2.);
#293=CIRCLE('',#792,15.);
#294=CIRCLE('',#793,0.5);
#295=CIRCLE('',#795,0.5);
#296=CIRCLE('',#797,15.);
#297=CIRCLE('',#798,15.);
#298=CIRCLE('',#800,1.);
#299=CIRCLE('',#803,2.5);
#300=CIRCLE('',#805,7.80000000000002);
#301=CIRCLE('',#807,2.);
#302=CIRCLE('',#809,7.80000000000002);
#303=CIRCLE('',#812,8.69999999999983);
#304=CIRCLE('',#818,2.05000000000001);
#305=CIRCLE('',#819,2.05);
#306=CIRCLE('',#822,8.69999999999984);
#307=CIRCLE('',#823,3.8);
#308=CIRCLE('',#825,1.);
#309=CIRCLE('',#827,2.05);
#310=CIRCLE('',#828,2.05);
#311=CIRCLE('',#829,2.05);
#312=CIRCLE('',#832,2.05000000000001);
#313=CIRCLE('',#833,2.05000000000001);
#314=CIRCLE('',#834,2.05000000000001);
#315=CIRCLE('',#837,2.05);
#316=CIRCLE('',#840,2.05000000000001);
#317=VERTEX_POINT('',#1084);
#318=VERTEX_POINT('',#1086);
#319=VERTEX_POINT('',#1090);
#320=VERTEX_POINT('',#1091);
#321=VERTEX_POINT('',#1093);
#322=VERTEX_POINT('',#1095);
#323=VERTEX_POINT('',#1097);
#324=VERTEX_POINT('',#1100);
#325=VERTEX_POINT('',#1103);
#326=VERTEX_POINT('',#1107);
#327=VERTEX_POINT('',#1111);
#328=VERTEX_POINT('',#1115);
#329=VERTEX_POINT('',#1119);
#330=VERTEX_POINT('',#1120);
#331=VERTEX_POINT('',#1122);
#332=VERTEX_POINT('',#1124);
#333=VERTEX_POINT('',#1126);
#334=VERTEX_POINT('',#1128);
#335=VERTEX_POINT('',#1130);
#336=VERTEX_POINT('',#1132);
#337=VERTEX_POINT('',#1134);
#338=VERTEX_POINT('',#1136);
#339=VERTEX_POINT('',#1138);
#340=VERTEX_POINT('',#1140);
#341=VERTEX_POINT('',#1142);
#342=VERTEX_POINT('',#1144);
#343=VERTEX_POINT('',#1146);
#344=VERTEX_POINT('',#1148);
#345=VERTEX_POINT('',#1150);
#346=VERTEX_POINT('',#1152);
#347=VERTEX_POINT('',#1154);
#348=VERTEX_POINT('',#1156);
#349=VERTEX_POINT('',#1160);
#350=VERTEX_POINT('',#1161);
#351=VERTEX_POINT('',#1166);
#352=VERTEX_POINT('',#1168);
#353=VERTEX_POINT('',#1171);
#354=VERTEX_POINT('',#1175);
#355=VERTEX_POINT('',#1176);
#356=VERTEX_POINT('',#1181);
#357=VERTEX_POINT('',#1185);
#358=VERTEX_POINT('',#1186);
#359=VERTEX_POINT('',#1191);
#360=VERTEX_POINT('',#1195);
#361=VERTEX_POINT('',#1196);
#362=VERTEX_POINT('',#1201);
#363=VERTEX_POINT('',#1205);
#364=VERTEX_POINT('',#1209);
#365=VERTEX_POINT('',#1213);
#366=VERTEX_POINT('',#1215);
#367=VERTEX_POINT('',#1222);
#368=VERTEX_POINT('',#1226);
#369=VERTEX_POINT('',#1232);
#370=VERTEX_POINT('',#1234);
#371=VERTEX_POINT('',#1236);
#372=VERTEX_POINT('',#1239);
#373=VERTEX_POINT('',#1241);
#374=VERTEX_POINT('',#1248);
#375=VERTEX_POINT('',#1250);
#376=VERTEX_POINT('',#1252);
#377=VERTEX_POINT('',#1258);
#378=VERTEX_POINT('',#1259);
#379=VERTEX_POINT('',#1261);
#380=VERTEX_POINT('',#1263);
#381=VERTEX_POINT('',#1265);
#382=VERTEX_POINT('',#1271);
#383=VERTEX_POINT('',#1272);
#384=VERTEX_POINT('',#1274);
#385=VERTEX_POINT('',#1276);
#386=VERTEX_POINT('',#1278);
#387=EDGE_CURVE('',#317,#317,#275,.T.);
#388=EDGE_CURVE('',#317,#318,#147,.T.);
#389=EDGE_CURVE('',#318,#318,#276,.T.);
#390=EDGE_CURVE('',#319,#320,#148,.T.);
#391=EDGE_CURVE('',#321,#319,#277,.T.);
#392=EDGE_CURVE('',#322,#321,#149,.T.);
#393=EDGE_CURVE('',#323,#322,#150,.T.);
#394=EDGE_CURVE('',#320,#323,#151,.T.);
#395=EDGE_CURVE('',#324,#324,#278,.T.);
#396=EDGE_CURVE('',#325,#325,#279,.T.);
#397=EDGE_CURVE('',#325,#318,#152,.T.);
#398=EDGE_CURVE('',#324,#326,#153,.T.);
#399=EDGE_CURVE('',#326,#326,#280,.T.);
#400=EDGE_CURVE('',#327,#327,#281,.T.);
#401=EDGE_CURVE('',#327,#326,#154,.T.);
#402=EDGE_CURVE('',#328,#328,#282,.T.);
#403=EDGE_CURVE('',#328,#327,#155,.T.);
#404=EDGE_CURVE('',#329,#330,#156,.T.);
#405=EDGE_CURVE('',#330,#331,#157,.T.);
#406=EDGE_CURVE('',#331,#332,#283,.T.);
#407=EDGE_CURVE('',#333,#332,#284,.F.);
#408=EDGE_CURVE('',#333,#334,#158,.T.);
#409=EDGE_CURVE('',#335,#334,#285,.F.);
#410=EDGE_CURVE('',#336,#335,#286,.T.);
#411=EDGE_CURVE('',#336,#337,#159,.T.);
#412=EDGE_CURVE('',#337,#338,#160,.T.);
#413=EDGE_CURVE('',#339,#338,#287,.F.);
#414=EDGE_CURVE('',#339,#340,#288,.T.);
#415=EDGE_CURVE('',#341,#340,#161,.F.);
#416=EDGE_CURVE('',#342,#341,#289,.F.);
#417=EDGE_CURVE('',#342,#343,#162,.T.);
#418=EDGE_CURVE('',#343,#344,#290,.T.);
#419=EDGE_CURVE('',#344,#345,#291,.T.);
#420=EDGE_CURVE('',#346,#345,#292,.F.);
#421=EDGE_CURVE('',#346,#347,#163,.T.);
#422=EDGE_CURVE('',#348,#347,#293,.T.);
#423=EDGE_CURVE('',#329,#348,#294,.F.);
#424=EDGE_CURVE('',#349,#350,#295,.T.);
#425=EDGE_CURVE('',#350,#329,#164,.T.);
#426=EDGE_CURVE('',#348,#349,#165,.T.);
#427=EDGE_CURVE('',#347,#351,#166,.T.);
#428=EDGE_CURVE('',#352,#351,#296,.T.);
#429=EDGE_CURVE('',#336,#352,#167,.T.);
#430=EDGE_CURVE('',#353,#335,#168,.T.);
#431=EDGE_CURVE('',#353,#349,#297,.T.);
#432=EDGE_CURVE('',#354,#355,#298,.T.);
#433=EDGE_CURVE('',#355,#339,#169,.T.);
#434=EDGE_CURVE('',#338,#354,#170,.T.);
#435=EDGE_CURVE('',#356,#337,#171,.T.);
#436=EDGE_CURVE('',#354,#356,#172,.T.);
#437=EDGE_CURVE('',#357,#358,#299,.T.);
#438=EDGE_CURVE('',#358,#333,#173,.T.);
#439=EDGE_CURVE('',#332,#357,#174,.T.);
#440=EDGE_CURVE('',#331,#359,#175,.F.);
#441=EDGE_CURVE('',#357,#359,#300,.T.);
#442=EDGE_CURVE('',#360,#361,#301,.T.);
#443=EDGE_CURVE('',#361,#346,#176,.T.);
#444=EDGE_CURVE('',#345,#360,#177,.T.);
#445=EDGE_CURVE('',#344,#362,#178,.T.);
#446=EDGE_CURVE('',#360,#362,#302,.T.);
#447=EDGE_CURVE('',#363,#350,#179,.T.);
#448=EDGE_CURVE('',#330,#363,#180,.F.);
#449=EDGE_CURVE('',#364,#355,#303,.T.);
#450=EDGE_CURVE('',#340,#364,#181,.T.);
#451=EDGE_CURVE('',#365,#361,#182,.T.);
#452=EDGE_CURVE('',#366,#365,#183,.T.);
#453=EDGE_CURVE('',#366,#322,#184,.T.);
#454=EDGE_CURVE('',#321,#351,#15,.T.);
#455=EDGE_CURVE('',#367,#358,#185,.T.);
#456=EDGE_CURVE('',#334,#367,#186,.T.);
#457=EDGE_CURVE('',#320,#368,#187,.T.);
#458=EDGE_CURVE('',#368,#352,#188,.T.);
#459=EDGE_CURVE('',#352,#319,#189,.T.);
#460=EDGE_CURVE('',#369,#323,#190,.T.);
#461=EDGE_CURVE('',#369,#370,#191,.T.);
#462=EDGE_CURVE('',#370,#371,#192,.T.);
#463=EDGE_CURVE('',#371,#368,#193,.T.);
#464=EDGE_CURVE('',#372,#372,#304,.T.);
#465=EDGE_CURVE('',#373,#373,#305,.T.);
#466=EDGE_CURVE('',#366,#369,#194,.T.);
#467=EDGE_CURVE('',#371,#356,#195,.T.);
#468=EDGE_CURVE('',#365,#370,#196,.T.);
#469=EDGE_CURVE('',#362,#374,#306,.T.);
#470=EDGE_CURVE('',#374,#375,#197,.T.);
#471=EDGE_CURVE('',#375,#376,#307,.T.);
#472=EDGE_CURVE('',#376,#364,#198,.T.);
#473=EDGE_CURVE('',#367,#353,#308,.T.);
#474=EDGE_CURVE('',#377,#378,#309,.T.);
#475=EDGE_CURVE('',#379,#377,#199,.T.);
#476=EDGE_CURVE('',#379,#380,#310,.T.);
#477=EDGE_CURVE('',#381,#380,#200,.T.);
#478=EDGE_CURVE('',#378,#381,#311,.T.);
#479=EDGE_CURVE('',#380,#379,#201,.T.);
#480=EDGE_CURVE('',#382,#383,#312,.T.);
#481=EDGE_CURVE('',#384,#382,#202,.T.);
#482=EDGE_CURVE('',#384,#385,#313,.T.);
#483=EDGE_CURVE('',#386,#385,#203,.T.);
#484=EDGE_CURVE('',#383,#386,#314,.T.);
#485=EDGE_CURVE('',#385,#384,#204,.T.);
#486=EDGE_CURVE('',#373,#378,#205,.T.);
#487=EDGE_CURVE('',#380,#379,#315,.T.);
#488=EDGE_CURVE('',#372,#383,#206,.T.);
#489=EDGE_CURVE('',#385,#384,#316,.T.);
#490=EDGE_CURVE('',#341,#376,#207,.T.);
#491=EDGE_CURVE('',#342,#375,#208,.T.);
#492=EDGE_CURVE('',#343,#374,#209,.T.);
#493=EDGE_CURVE('',#359,#363,#210,.T.);
#494=ORIENTED_EDGE('',*,*,#387,.T.);
#495=ORIENTED_EDGE('',*,*,#388,.T.);
#496=ORIENTED_EDGE('',*,*,#389,.T.);
#497=ORIENTED_EDGE('',*,*,#388,.F.);
#498=ORIENTED_EDGE('',*,*,#390,.F.);
#499=ORIENTED_EDGE('',*,*,#391,.F.);
#500=ORIENTED_EDGE('',*,*,#392,.F.);
#501=ORIENTED_EDGE('',*,*,#393,.F.);
#502=ORIENTED_EDGE('',*,*,#394,.F.);
#503=ORIENTED_EDGE('',*,*,#395,.F.);
#504=ORIENTED_EDGE('',*,*,#387,.F.);
#505=ORIENTED_EDGE('',*,*,#396,.F.);
#506=ORIENTED_EDGE('',*,*,#397,.T.);
#507=ORIENTED_EDGE('',*,*,#389,.F.);
#508=ORIENTED_EDGE('',*,*,#397,.F.);
#509=ORIENTED_EDGE('',*,*,#395,.T.);
#510=ORIENTED_EDGE('',*,*,#398,.T.);
#511=ORIENTED_EDGE('',*,*,#399,.T.);
#512=ORIENTED_EDGE('',*,*,#398,.F.);
#513=ORIENTED_EDGE('',*,*,#400,.F.);
#514=ORIENTED_EDGE('',*,*,#401,.T.);
#515=ORIENTED_EDGE('',*,*,#399,.F.);
#516=ORIENTED_EDGE('',*,*,#401,.F.);
#517=ORIENTED_EDGE('',*,*,#402,.T.);
#518=ORIENTED_EDGE('',*,*,#403,.T.);
#519=ORIENTED_EDGE('',*,*,#400,.T.);
#520=ORIENTED_EDGE('',*,*,#403,.F.);
#521=ORIENTED_EDGE('',*,*,#404,.T.);
#522=ORIENTED_EDGE('',*,*,#405,.T.);
#523=ORIENTED_EDGE('',*,*,#406,.T.);
#524=ORIENTED_EDGE('',*,*,#407,.F.);
#525=ORIENTED_EDGE('',*,*,#408,.T.);
#526=ORIENTED_EDGE('',*,*,#409,.F.);
#527=ORIENTED_EDGE('',*,*,#410,.F.);
#528=ORIENTED_EDGE('',*,*,#411,.T.);
#529=ORIENTED_EDGE('',*,*,#412,.T.);
#530=ORIENTED_EDGE('',*,*,#413,.F.);
#531=ORIENTED_EDGE('',*,*,#414,.T.);
#532=ORIENTED_EDGE('',*,*,#415,.F.);
#533=ORIENTED_EDGE('',*,*,#416,.F.);
#534=ORIENTED_EDGE('',*,*,#417,.T.);
#535=ORIENTED_EDGE('',*,*,#418,.T.);
#536=ORIENTED_EDGE('',*,*,#419,.T.);
#537=ORIENTED_EDGE('',*,*,#420,.F.);
#538=ORIENTED_EDGE('',*,*,#421,.T.);
#539=ORIENTED_EDGE('',*,*,#422,.F.);
#540=ORIENTED_EDGE('',*,*,#423,.F.);
#541=ORIENTED_EDGE('',*,*,#396,.T.);
#542=ORIENTED_EDGE('',*,*,#402,.F.);
#543=ORIENTED_EDGE('',*,*,#424,.T.);
#544=ORIENTED_EDGE('',*,*,#425,.T.);
#545=ORIENTED_EDGE('',*,*,#423,.T.);
#546=ORIENTED_EDGE('',*,*,#426,.T.);
#547=ORIENTED_EDGE('',*,*,#426,.F.);
#548=ORIENTED_EDGE('',*,*,#422,.T.);
#549=ORIENTED_EDGE('',*,*,#427,.T.);
#550=ORIENTED_EDGE('',*,*,#428,.F.);
#551=ORIENTED_EDGE('',*,*,#429,.F.);
#552=ORIENTED_EDGE('',*,*,#410,.T.);
#553=ORIENTED_EDGE('',*,*,#430,.F.);
#554=ORIENTED_EDGE('',*,*,#431,.T.);
#555=ORIENTED_EDGE('',*,*,#432,.T.);
#556=ORIENTED_EDGE('',*,*,#433,.T.);
#557=ORIENTED_EDGE('',*,*,#413,.T.);
#558=ORIENTED_EDGE('',*,*,#434,.T.);
#559=ORIENTED_EDGE('',*,*,#434,.F.);
#560=ORIENTED_EDGE('',*,*,#412,.F.);
#561=ORIENTED_EDGE('',*,*,#435,.F.);
#562=ORIENTED_EDGE('',*,*,#436,.F.);
#563=ORIENTED_EDGE('',*,*,#437,.T.);
#564=ORIENTED_EDGE('',*,*,#438,.T.);
#565=ORIENTED_EDGE('',*,*,#407,.T.);
#566=ORIENTED_EDGE('',*,*,#439,.T.);
#567=ORIENTED_EDGE('',*,*,#439,.F.);
#568=ORIENTED_EDGE('',*,*,#406,.F.);
#569=ORIENTED_EDGE('',*,*,#440,.T.);
#570=ORIENTED_EDGE('',*,*,#441,.F.);
#571=ORIENTED_EDGE('',*,*,#442,.T.);
#572=ORIENTED_EDGE('',*,*,#443,.T.);
#573=ORIENTED_EDGE('',*,*,#420,.T.);
#574=ORIENTED_EDGE('',*,*,#444,.T.);
#575=ORIENTED_EDGE('',*,*,#444,.F.);
#576=ORIENTED_EDGE('',*,*,#419,.F.);
#577=ORIENTED_EDGE('',*,*,#445,.T.);
#578=ORIENTED_EDGE('',*,*,#446,.F.);
#579=ORIENTED_EDGE('',*,*,#425,.F.);
#580=ORIENTED_EDGE('',*,*,#447,.F.);
#581=ORIENTED_EDGE('',*,*,#448,.F.);
#582=ORIENTED_EDGE('',*,*,#404,.F.);
#583=ORIENTED_EDGE('',*,*,#433,.F.);
#584=ORIENTED_EDGE('',*,*,#449,.F.);
#585=ORIENTED_EDGE('',*,*,#450,.F.);
#586=ORIENTED_EDGE('',*,*,#414,.F.);
#587=ORIENTED_EDGE('',*,*,#443,.F.);
#588=ORIENTED_EDGE('',*,*,#451,.F.);
#589=ORIENTED_EDGE('',*,*,#452,.F.);
#590=ORIENTED_EDGE('',*,*,#453,.T.);
#591=ORIENTED_EDGE('',*,*,#392,.T.);
#592=ORIENTED_EDGE('',*,*,#454,.T.);
#593=ORIENTED_EDGE('',*,*,#427,.F.);
#594=ORIENTED_EDGE('',*,*,#421,.F.);
#595=ORIENTED_EDGE('',*,*,#438,.F.);
#596=ORIENTED_EDGE('',*,*,#455,.F.);
#597=ORIENTED_EDGE('',*,*,#456,.F.);
#598=ORIENTED_EDGE('',*,*,#408,.F.);
#599=ORIENTED_EDGE('',*,*,#457,.T.);
#600=ORIENTED_EDGE('',*,*,#458,.T.);
#601=ORIENTED_EDGE('',*,*,#459,.T.);
#602=ORIENTED_EDGE('',*,*,#390,.T.);
#603=ORIENTED_EDGE('',*,*,#391,.T.);
#604=ORIENTED_EDGE('',*,*,#459,.F.);
#605=ORIENTED_EDGE('',*,*,#428,.T.);
#606=ORIENTED_EDGE('',*,*,#454,.F.);
#607=ORIENTED_EDGE('',*,*,#457,.F.);
#608=ORIENTED_EDGE('',*,*,#394,.T.);
#609=ORIENTED_EDGE('',*,*,#460,.F.);
#610=ORIENTED_EDGE('',*,*,#461,.T.);
#611=ORIENTED_EDGE('',*,*,#462,.T.);
#612=ORIENTED_EDGE('',*,*,#463,.T.);
#613=ORIENTED_EDGE('',*,*,#464,.T.);
#614=ORIENTED_EDGE('',*,*,#465,.T.);
#615=ORIENTED_EDGE('',*,*,#453,.F.);
#616=ORIENTED_EDGE('',*,*,#466,.T.);
#617=ORIENTED_EDGE('',*,*,#460,.T.);
#618=ORIENTED_EDGE('',*,*,#393,.T.);
#619=ORIENTED_EDGE('',*,*,#432,.F.);
#620=ORIENTED_EDGE('',*,*,#436,.T.);
#621=ORIENTED_EDGE('',*,*,#467,.F.);
#622=ORIENTED_EDGE('',*,*,#462,.F.);
#623=ORIENTED_EDGE('',*,*,#468,.F.);
#624=ORIENTED_EDGE('',*,*,#451,.T.);
#625=ORIENTED_EDGE('',*,*,#442,.F.);
#626=ORIENTED_EDGE('',*,*,#446,.T.);
#627=ORIENTED_EDGE('',*,*,#469,.T.);
#628=ORIENTED_EDGE('',*,*,#470,.T.);
#629=ORIENTED_EDGE('',*,*,#471,.T.);
#630=ORIENTED_EDGE('',*,*,#472,.T.);
#631=ORIENTED_EDGE('',*,*,#449,.T.);
#632=ORIENTED_EDGE('',*,*,#473,.T.);
#633=ORIENTED_EDGE('',*,*,#430,.T.);
#634=ORIENTED_EDGE('',*,*,#409,.T.);
#635=ORIENTED_EDGE('',*,*,#456,.T.);
#636=ORIENTED_EDGE('',*,*,#474,.F.);
#637=ORIENTED_EDGE('',*,*,#475,.F.);
#638=ORIENTED_EDGE('',*,*,#476,.T.);
#639=ORIENTED_EDGE('',*,*,#477,.F.);
#640=ORIENTED_EDGE('',*,*,#478,.F.);
#641=ORIENTED_EDGE('',*,*,#476,.F.);
#642=ORIENTED_EDGE('',*,*,#479,.F.);
#643=ORIENTED_EDGE('',*,*,#480,.F.);
#644=ORIENTED_EDGE('',*,*,#481,.F.);
#645=ORIENTED_EDGE('',*,*,#482,.T.);
#646=ORIENTED_EDGE('',*,*,#483,.F.);
#647=ORIENTED_EDGE('',*,*,#484,.F.);
#648=ORIENTED_EDGE('',*,*,#482,.F.);
#649=ORIENTED_EDGE('',*,*,#485,.F.);
#650=ORIENTED_EDGE('',*,*,#465,.F.);
#651=ORIENTED_EDGE('',*,*,#486,.T.);
#652=ORIENTED_EDGE('',*,*,#478,.T.);
#653=ORIENTED_EDGE('',*,*,#477,.T.);
#654=ORIENTED_EDGE('',*,*,#487,.T.);
#655=ORIENTED_EDGE('',*,*,#475,.T.);
#656=ORIENTED_EDGE('',*,*,#474,.T.);
#657=ORIENTED_EDGE('',*,*,#486,.F.);
#658=ORIENTED_EDGE('',*,*,#466,.F.);
#659=ORIENTED_EDGE('',*,*,#452,.T.);
#660=ORIENTED_EDGE('',*,*,#468,.T.);
#661=ORIENTED_EDGE('',*,*,#461,.F.);
#662=ORIENTED_EDGE('',*,*,#464,.F.);
#663=ORIENTED_EDGE('',*,*,#488,.T.);
#664=ORIENTED_EDGE('',*,*,#484,.T.);
#665=ORIENTED_EDGE('',*,*,#483,.T.);
#666=ORIENTED_EDGE('',*,*,#489,.T.);
#667=ORIENTED_EDGE('',*,*,#481,.T.);
#668=ORIENTED_EDGE('',*,*,#480,.T.);
#669=ORIENTED_EDGE('',*,*,#488,.F.);
#670=ORIENTED_EDGE('',*,*,#479,.T.);
#671=ORIENTED_EDGE('',*,*,#487,.F.);
#672=ORIENTED_EDGE('',*,*,#485,.T.);
#673=ORIENTED_EDGE('',*,*,#489,.F.);
#674=ORIENTED_EDGE('',*,*,#458,.F.);
#675=ORIENTED_EDGE('',*,*,#463,.F.);
#676=ORIENTED_EDGE('',*,*,#467,.T.);
#677=ORIENTED_EDGE('',*,*,#435,.T.);
#678=ORIENTED_EDGE('',*,*,#411,.F.);
#679=ORIENTED_EDGE('',*,*,#429,.T.);
#680=ORIENTED_EDGE('',*,*,#472,.F.);
#681=ORIENTED_EDGE('',*,*,#490,.F.);
#682=ORIENTED_EDGE('',*,*,#415,.T.);
#683=ORIENTED_EDGE('',*,*,#450,.T.);
#684=ORIENTED_EDGE('',*,*,#471,.F.);
#685=ORIENTED_EDGE('',*,*,#491,.F.);
#686=ORIENTED_EDGE('',*,*,#416,.T.);
#687=ORIENTED_EDGE('',*,*,#490,.T.);
#688=ORIENTED_EDGE('',*,*,#470,.F.);
#689=ORIENTED_EDGE('',*,*,#492,.F.);
#690=ORIENTED_EDGE('',*,*,#417,.F.);
#691=ORIENTED_EDGE('',*,*,#491,.T.);
#692=ORIENTED_EDGE('',*,*,#469,.F.);
#693=ORIENTED_EDGE('',*,*,#445,.F.);
#694=ORIENTED_EDGE('',*,*,#418,.F.);
#695=ORIENTED_EDGE('',*,*,#492,.T.);
#696=ORIENTED_EDGE('',*,*,#493,.F.);
#697=ORIENTED_EDGE('',*,*,#440,.F.);
#698=ORIENTED_EDGE('',*,*,#405,.F.);
#699=ORIENTED_EDGE('',*,*,#448,.T.);
#700=ORIENTED_EDGE('',*,*,#424,.F.);
#701=ORIENTED_EDGE('',*,*,#431,.F.);
#702=ORIENTED_EDGE('',*,*,#473,.F.);
#703=ORIENTED_EDGE('',*,*,#455,.T.);
#704=ORIENTED_EDGE('',*,*,#437,.F.);
#705=ORIENTED_EDGE('',*,*,#441,.T.);
#706=ORIENTED_EDGE('',*,*,#493,.T.);
#707=ORIENTED_EDGE('',*,*,#447,.T.);
#708=CONICAL_SURFACE('',#767,1.725,0.785398163397454);
#709=CONICAL_SURFACE('',#775,1.725,0.785398163397452);
#710=CONICAL_SURFACE('',#779,1.85,0.785398163397457);
#711=CONICAL_SURFACE('',#816,14.5,0.785398163397472);
#712=ADVANCED_FACE('',(#59),#708,.F.);
#713=ADVANCED_FACE('',(#60,#33,#34),#39,.T.);
#714=ADVANCED_FACE('',(#61),#16,.F.);
#715=ADVANCED_FACE('',(#62),#709,.F.);
#716=ADVANCED_FACE('',(#63),#17,.F.);
#717=ADVANCED_FACE('',(#64),#710,.F.);
#718=ADVANCED_FACE('',(#65,#35,#36),#40,.F.);
#719=ADVANCED_FACE('',(#66),#18,.T.);
#720=ADVANCED_FACE('',(#67),#19,.T.);
#721=ADVANCED_FACE('',(#68),#20,.T.);
#722=ADVANCED_FACE('',(#69),#41,.F.);
#723=ADVANCED_FACE('',(#70),#21,.T.);
#724=ADVANCED_FACE('',(#71),#22,.F.);
#725=ADVANCED_FACE('',(#72),#23,.T.);
#726=ADVANCED_FACE('',(#73),#24,.F.);
#727=ADVANCED_FACE('',(#74),#42,.F.);
#728=ADVANCED_FACE('',(#75),#25,.T.);
#729=ADVANCED_FACE('',(#76),#43,.F.);
#730=ADVANCED_FACE('',(#77),#44,.F.);
#731=ADVANCED_FACE('',(#78),#45,.T.);
#732=ADVANCED_FACE('',(#79),#711,.T.);
#733=ADVANCED_FACE('',(#80,#37,#38),#46,.F.);
#734=ADVANCED_FACE('',(#81),#47,.T.);
#735=ADVANCED_FACE('',(#82),#48,.T.);
#736=ADVANCED_FACE('',(#83),#26,.T.);
#737=ADVANCED_FACE('',(#84),#27,.F.);
#738=ADVANCED_FACE('',(#85),#49,.T.);
#739=ADVANCED_FACE('',(#86),#28,.F.);
#740=ADVANCED_FACE('',(#87),#50,.T.);
#741=ADVANCED_FACE('',(#88),#29,.F.);
#742=ADVANCED_FACE('',(#89),#51,.T.);
#743=ADVANCED_FACE('',(#90),#30,.F.);
#744=ADVANCED_FACE('',(#91),#52,.T.);
#745=ADVANCED_FACE('',(#92),#53,.T.);
#746=ADVANCED_FACE('',(#93),#54,.T.);
#747=ADVANCED_FACE('',(#94),#55,.F.);
#748=ADVANCED_FACE('',(#95),#31,.F.);
#749=ADVANCED_FACE('',(#96),#56,.F.);
#750=ADVANCED_FACE('',(#97),#32,.T.);
#751=ADVANCED_FACE('',(#98),#57,.F.);
#752=ADVANCED_FACE('',(#99),#58,.T.);
#753=CLOSED_SHELL('',(#712,#713,#714,#715,#716,#717,#718,#719,#720,#721,
#722,#723,#724,#725,#726,#727,#728,#729,#730,#731,#732,#733,#734,#735,#736,
#737,#738,#739,#740,#741,#742,#743,#744,#745,#746,#747,#748,#749,#750,#751,
#752));
#754=DERIVED_UNIT_ELEMENT(#756,1.);
#755=DERIVED_UNIT_ELEMENT(#1308,-3.);
#756=(
MASS_UNIT()
NAMED_UNIT(*)
SI_UNIT(.KILO.,.GRAM.)
);
#757=DERIVED_UNIT((#754,#755));
#758=MEASURE_REPRESENTATION_ITEM('density measure',
POSITIVE_RATIO_MEASURE(7850.),#757);
#759=PROPERTY_DEFINITION_REPRESENTATION(#764,#761);
#760=PROPERTY_DEFINITION_REPRESENTATION(#765,#762);
#761=REPRESENTATION('material name',(#763),#1305);
#762=REPRESENTATION('density',(#758),#1305);
#763=DESCRIPTIVE_REPRESENTATION_ITEM('Steel','Steel');
#764=PROPERTY_DEFINITION('material property','material name',#1315);
#765=PROPERTY_DEFINITION('material property','density of part',#1315);
#766=AXIS2_PLACEMENT_3D('',#1082,#850,#851);
#767=AXIS2_PLACEMENT_3D('',#1083,#852,#853);
#768=AXIS2_PLACEMENT_3D('',#1085,#854,#855);
#769=AXIS2_PLACEMENT_3D('',#1088,#857,#858);
#770=AXIS2_PLACEMENT_3D('',#1089,#859,#860);
#771=AXIS2_PLACEMENT_3D('',#1094,#862,#863);
#772=AXIS2_PLACEMENT_3D('',#1101,#867,#868);
#773=AXIS2_PLACEMENT_3D('',#1102,#869,#870);
#774=AXIS2_PLACEMENT_3D('',#1104,#871,#872);
#775=AXIS2_PLACEMENT_3D('',#1106,#874,#875);
#776=AXIS2_PLACEMENT_3D('',#1109,#877,#878);
#777=AXIS2_PLACEMENT_3D('',#1110,#879,#880);
#778=AXIS2_PLACEMENT_3D('',#1112,#881,#882);
#779=AXIS2_PLACEMENT_3D('',#1114,#884,#885);
#780=AXIS2_PLACEMENT_3D('',#1116,#886,#887);
#781=AXIS2_PLACEMENT_3D('',#1118,#889,#890);
#782=AXIS2_PLACEMENT_3D('',#1125,#893,#894);
#783=AXIS2_PLACEMENT_3D('',#1127,#895,#896);
#784=AXIS2_PLACEMENT_3D('',#1131,#898,#899);
#785=AXIS2_PLACEMENT_3D('',#1133,#900,#901);
#786=AXIS2_PLACEMENT_3D('',#1139,#904,#905);
#787=AXIS2_PLACEMENT_3D('',#1141,#906,#907);
#788=AXIS2_PLACEMENT_3D('',#1145,#909,#910);
#789=AXIS2_PLACEMENT_3D('',#1149,#912,#913);
#790=AXIS2_PLACEMENT_3D('',#1151,#914,#915);
#791=AXIS2_PLACEMENT_3D('',#1153,#916,#917);
#792=AXIS2_PLACEMENT_3D('',#1157,#919,#920);
#793=AXIS2_PLACEMENT_3D('',#1158,#921,#922);
#794=AXIS2_PLACEMENT_3D('',#1159,#923,#924);
#795=AXIS2_PLACEMENT_3D('',#1162,#925,#926);
#796=AXIS2_PLACEMENT_3D('',#1165,#929,#930);
#797=AXIS2_PLACEMENT_3D('',#1169,#932,#933);
#798=AXIS2_PLACEMENT_3D('',#1173,#936,#937);
#799=AXIS2_PLACEMENT_3D('',#1174,#938,#939);
#800=AXIS2_PLACEMENT_3D('',#1177,#940,#941);
#801=AXIS2_PLACEMENT_3D('',#1180,#944,#945);
#802=AXIS2_PLACEMENT_3D('',#1184,#948,#949);
#803=AXIS2_PLACEMENT_3D('',#1187,#950,#951);
#804=AXIS2_PLACEMENT_3D('',#1190,#954,#955);
#805=AXIS2_PLACEMENT_3D('',#1193,#957,#958);
#806=AXIS2_PLACEMENT_3D('',#1194,#959,#960);
#807=AXIS2_PLACEMENT_3D('',#1197,#961,#962);
#808=AXIS2_PLACEMENT_3D('',#1200,#965,#966);
#809=AXIS2_PLACEMENT_3D('',#1203,#968,#969);
#810=AXIS2_PLACEMENT_3D('',#1204,#970,#971);
#811=AXIS2_PLACEMENT_3D('',#1208,#974,#975);
#812=AXIS2_PLACEMENT_3D('',#1210,#976,#977);
#813=AXIS2_PLACEMENT_3D('',#1212,#979,#980);
#814=AXIS2_PLACEMENT_3D('',#1221,#984,#985);
#815=AXIS2_PLACEMENT_3D('',#1225,#988,#989);
#816=AXIS2_PLACEMENT_3D('',#1230,#993,#994);
#817=AXIS2_PLACEMENT_3D('',#1231,#995,#996);
#818=AXIS2_PLACEMENT_3D('',#1240,#1001,#1002);
#819=AXIS2_PLACEMENT_3D('',#1242,#1003,#1004);
#820=AXIS2_PLACEMENT_3D('',#1243,#1005,#1006);
#821=AXIS2_PLACEMENT_3D('',#1245,#1008,#1009);
#822=AXIS2_PLACEMENT_3D('',#1249,#1012,#1013);
#823=AXIS2_PLACEMENT_3D('',#1253,#1015,#1016);
#824=AXIS2_PLACEMENT_3D('',#1255,#1018,#1019);
#825=AXIS2_PLACEMENT_3D('',#1256,#1020,#1021);
#826=AXIS2_PLACEMENT_3D('',#1257,#1022,#1023);
#827=AXIS2_PLACEMENT_3D('',#1260,#1024,#1025);
#828=AXIS2_PLACEMENT_3D('',#1264,#1027,#1028);
#829=AXIS2_PLACEMENT_3D('',#1267,#1030,#1031);
#830=AXIS2_PLACEMENT_3D('',#1268,#1032,#1033);
#831=AXIS2_PLACEMENT_3D('',#1270,#1035,#1036);
#832=AXIS2_PLACEMENT_3D('',#1273,#1037,#1038);
#833=AXIS2_PLACEMENT_3D('',#1277,#1040,#1041);
#834=AXIS2_PLACEMENT_3D('',#1280,#1043,#1044);
#835=AXIS2_PLACEMENT_3D('',#1281,#1045,#1046);
#836=AXIS2_PLACEMENT_3D('',#1283,#1048,#1049);
#837=AXIS2_PLACEMENT_3D('',#1285,#1051,#1052);
#838=AXIS2_PLACEMENT_3D('',#1286,#1053,#1054);
#839=AXIS2_PLACEMENT_3D('',#1287,#1055,#1056);
#840=AXIS2_PLACEMENT_3D('',#1289,#1058,#1059);
#841=AXIS2_PLACEMENT_3D('',#1290,#1060,#1061);
#842=AXIS2_PLACEMENT_3D('',#1291,#1062,#1063);
#843=AXIS2_PLACEMENT_3D('',#1292,#1064,#1065);
#844=AXIS2_PLACEMENT_3D('',#1293,#1066,#1067);
#845=AXIS2_PLACEMENT_3D('',#1295,#1069,#1070);
#846=AXIS2_PLACEMENT_3D('',#1297,#1072,#1073);
#847=AXIS2_PLACEMENT_3D('',#1299,#1075,#1076);
#848=AXIS2_PLACEMENT_3D('',#1300,#1077,#1078);
#849=AXIS2_PLACEMENT_3D('',#1302,#1080,#1081);
#850=DIRECTION('axis',(0.,0.,1.));
#851=DIRECTION('refdir',(1.,0.,0.));
#852=DIRECTION('center_axis',(1.,0.,0.));
#853=DIRECTION('ref_axis',(0.,1.,-2.77555756156289E-16));
#854=DIRECTION('center_axis',(1.,0.,0.));
#855=DIRECTION('ref_axis',(0.,1.,-2.77555756156289E-16));
#856=DIRECTION('',(-0.707106781186544,0.707106781186551,-1.09665951711923E-16));
#857=DIRECTION('center_axis',(-1.,0.,0.));
#858=DIRECTION('ref_axis',(0.,1.,-2.77555756156289E-16));
#859=DIRECTION('center_axis',(1.,0.,0.));
#860=DIRECTION('ref_axis',(0.,0.,-1.));
#861=DIRECTION('',(0.,1.,0.));
#862=DIRECTION('center_axis',(-1.,0.,0.));
#863=DIRECTION('ref_axis',(0.,-1.,0.));
#864=DIRECTION('',(0.,1.66533453693773E-16,1.));
#865=DIRECTION('',(0.,-1.,0.));
#866=DIRECTION('',(0.,0.,-1.));
#867=DIRECTION('center_axis',(1.,0.,0.));
#868=DIRECTION('ref_axis',(0.,1.,-2.77555756156289E-16));
#869=DIRECTION('center_axis',(-1.,0.,0.));
#870=DIRECTION('ref_axis',(0.,1.,-2.77555756156289E-16));
#871=DIRECTION('center_axis',(1.,0.,2.46519032881566E-32));
#872=DIRECTION('ref_axis',(1.09476442525376E-47,1.,-2.77555756156289E-16));
#873=DIRECTION('',(1.,0.,0.));
#874=DIRECTION('center_axis',(1.,0.,0.));
#875=DIRECTION('ref_axis',(0.,1.,-2.77555756156289E-16));
#876=DIRECTION('',(-0.707106781186545,0.70710678118655,-1.09665951711923E-16));
#877=DIRECTION('center_axis',(-1.,0.,0.));
#878=DIRECTION('ref_axis',(0.,1.,-2.77555756156289E-16));
#879=DIRECTION('center_axis',(-1.,0.,0.));
#880=DIRECTION('ref_axis',(0.,1.,-2.77555756156289E-16));
#881=DIRECTION('center_axis',(1.,0.,0.));
#882=DIRECTION('ref_axis',(0.,1.,-2.77555756156289E-16));
#883=DIRECTION('',(1.,0.,0.));
#884=DIRECTION('center_axis',(-1.,0.,0.));
#885=DIRECTION('ref_axis',(0.,1.,-2.77555756156289E-16));
#886=DIRECTION('center_axis',(-1.,0.,0.));
#887=DIRECTION('ref_axis',(0.,1.,-2.77555756156289E-16));
#888=DIRECTION('',(0.707106781186541,0.707106781186554,-2.82857162959024E-16));
#889=DIRECTION('center_axis',(1.,0.,0.));
#890=DIRECTION('ref_axis',(0.,1.,-1.66533453693773E-16));
#891=DIRECTION('',(0.,1.66533453693773E-16,1.));
#892=DIRECTION('',(0.,1.,-1.66533453693773E-16));
#893=DIRECTION('center_axis',(-1.,0.,0.));
#894=DIRECTION('ref_axis',(0.,2.05391259555653E-15,-1.));
#895=DIRECTION('center_axis',(1.,0.,0.));
#896=DIRECTION('ref_axis',(0.,0.803511709909174,-0.595288948359396));
#897=DIRECTION('',(0.,1.66533453693773E-16,1.));
#898=DIRECTION('center_axis',(1.,0.,0.));
#899=DIRECTION('ref_axis',(0.,0.668153104781054,0.744023809142851));
#900=DIRECTION('center_axis',(1.,0.,0.));
#901=DIRECTION('ref_axis',(0.,1.,-1.66533453693773E-16));
#902=DIRECTION('',(0.,1.,-1.66533453693773E-16));
#903=DIRECTION('',(0.,-1.66533453693773E-16,-1.));
#904=DIRECTION('center_axis',(1.,0.,0.));
#905=DIRECTION('ref_axis',(0.,-0.763209627816302,-0.646150960696107));
#906=DIRECTION('center_axis',(1.,0.,0.));
#907=DIRECTION('ref_axis',(0.,-0.652747249349643,-0.757575757575752));
#908=DIRECTION('',(0.,1.,-1.66533453693773E-16));
#909=DIRECTION('center_axis',(-1.,0.,0.));
#910=DIRECTION('ref_axis',(0.,1.,-1.66533453693773E-16));
#911=DIRECTION('',(0.,-1.,-1.17617334670857E-15));
#912=DIRECTION('center_axis',(1.,0.,0.));
#913=DIRECTION('ref_axis',(0.,6.4360281809889E-15,1.));
#914=DIRECTION('center_axis',(-1.,0.,0.));
#915=DIRECTION('ref_axis',(0.,2.05391259555653E-15,-1.));
#916=DIRECTION('center_axis',(1.,0.,0.));
#917=DIRECTION('ref_axis',(0.,-0.792181179029244,0.610285981808395));
#918=DIRECTION('',(0.,-1.66533453693773E-16,-1.));
#919=DIRECTION('center_axis',(1.,0.,0.));
#920=DIRECTION('ref_axis',(0.,1.,-1.66533453693773E-16));
#921=DIRECTION('center_axis',(1.,0.,0.));
#922=DIRECTION('ref_axis',(0.,0.443341543437995,-0.896352763069327));
#923=DIRECTION('center_axis',(-1.,0.,0.));
#924=DIRECTION('ref_axis',(0.,0.443341543437995,-0.896352763069327));
#925=DIRECTION('center_axis',(1.,0.,0.));
#926=DIRECTION('ref_axis',(0.,0.443341543437995,-0.896352763069327));
#927=DIRECTION('',(1.,0.,0.));
#928=DIRECTION('',(-1.,0.,0.));
#929=DIRECTION('center_axis',(-1.,0.,0.));
#930=DIRECTION('ref_axis',(0.,-0.999861063239022,-0.0166689597315808));
#931=DIRECTION('',(1.,0.,0.));
#932=DIRECTION('center_axis',(1.,0.,0.));
#933=DIRECTION('ref_axis',(0.,-1.,0.));
#934=DIRECTION('',(1.,0.,0.));
#935=DIRECTION('',(1.,0.,0.));
#936=DIRECTION('center_axis',(1.,0.,0.));
#937=DIRECTION('ref_axis',(0.,1.,0.));
#938=DIRECTION('center_axis',(-1.,0.,0.));
#939=DIRECTION('ref_axis',(0.,-0.763209627816302,-0.646150960696107));
#940=DIRECTION('center_axis',(1.,0.,0.));
#941=DIRECTION('ref_axis',(0.,-0.763209627816302,-0.646150960696107));
#942=DIRECTION('',(1.,0.,0.));
#943=DIRECTION('',(-1.,0.,0.));
#944=DIRECTION('center_axis',(0.,1.,-1.66533453693773E-16));
#945=DIRECTION('ref_axis',(0.,-1.66533453693773E-16,-1.));
#946=DIRECTION('',(1.,0.,0.));
#947=DIRECTION('',(0.,1.66533453693773E-16,1.));
#948=DIRECTION('center_axis',(1.,0.,0.));
#949=DIRECTION('ref_axis',(0.,0.803511709909174,-0.595288948359396));
#950=DIRECTION('center_axis',(1.,0.,0.));
#951=DIRECTION('ref_axis',(0.,0.803511709909174,-0.595288948359396));
#952=DIRECTION('',(1.,0.,0.));
#953=DIRECTION('',(-1.,0.,0.));
#954=DIRECTION('center_axis',(-1.,0.,0.));
#955=DIRECTION('ref_axis',(0.,2.05391259555653E-15,-1.));
#956=DIRECTION('',(1.,0.,0.));
#957=DIRECTION('center_axis',(1.,0.,0.));
#958=DIRECTION('ref_axis',(0.,2.05391259555653E-15,-1.));
#959=DIRECTION('center_axis',(-1.,0.,0.));
#960=DIRECTION('ref_axis',(0.,-0.792181179029244,0.610285981808395));
#961=DIRECTION('center_axis',(1.,0.,0.));
#962=DIRECTION('ref_axis',(0.,-0.792181179029244,0.610285981808395));
#963=DIRECTION('',(1.,0.,0.));
#964=DIRECTION('',(-1.,0.,0.));
#965=DIRECTION('center_axis',(-1.,0.,0.));
#966=DIRECTION('ref_axis',(0.,2.05391259555653E-15,-1.));
#967=DIRECTION('',(-1.,0.,0.));
#968=DIRECTION('center_axis',(1.,0.,0.));
#969=DIRECTION('ref_axis',(0.,2.05391259555653E-15,-1.));
#970=DIRECTION('center_axis',(0.,-1.,1.66533453693773E-16));
#971=DIRECTION('ref_axis',(0.,1.66533453693773E-16,1.));
#972=DIRECTION('',(0.,-1.66533453693773E-16,-1.));
#973=DIRECTION('',(1.,0.,0.));
#974=DIRECTION('center_axis',(-1.,0.,0.));
#975=DIRECTION('ref_axis',(0.,-0.652747249349643,-0.757575757575752));
#976=DIRECTION('center_axis',(-1.,0.,0.));
#977=DIRECTION('ref_axis',(0.,-0.652747249349643,-0.757575757575752));
#978=DIRECTION('',(-1.,0.,0.));
#979=DIRECTION('center_axis',(0.,1.,-1.66533453693773E-16));
#980=DIRECTION('ref_axis',(0.,-1.66533453693773E-16,-1.));
#981=DIRECTION('',(0.,1.66533453693773E-16,1.));
#982=DIRECTION('',(-1.,0.,0.));
#983=DIRECTION('',(0.707106781186536,1.17756934401285E-16,0.707106781186559));
#984=DIRECTION('center_axis',(0.,-1.,1.66533453693773E-16));
#985=DIRECTION('ref_axis',(0.,1.66533453693773E-16,1.));
#986=DIRECTION('',(0.,-1.66533453693773E-16,-1.));
#987=DIRECTION('',(-1.,0.,0.));
#988=DIRECTION('center_axis',(0.707106781186553,0.,0.707106781186542));
#989=DIRECTION('ref_axis',(0.707106781186542,0.,-0.707106781186553));
#990=DIRECTION('',(-0.707106781186542,0.,0.707106781186553));
#991=DIRECTION('',(0.,-1.,0.));
#992=DIRECTION('',(0.707106781186492,0.,-0.707106781186603));
#993=DIRECTION('center_axis',(-1.,0.,0.));
#994=DIRECTION('ref_axis',(0.,-1.,0.));
#995=DIRECTION('center_axis',(0.,-1.,0.));
#996=DIRECTION('ref_axis',(-1.,0.,0.));
#997=DIRECTION('',(0.707106781186536,0.,0.707106781186559));
#998=DIRECTION('',(-1.,0.,0.));
#999=DIRECTION('',(0.,0.,1.));
#1000=DIRECTION('',(1.,0.,0.));
#1001=DIRECTION('center_axis',(0.,-1.,0.));
#1002=DIRECTION('ref_axis',(-1.,0.,0.));
#1003=DIRECTION('center_axis',(0.,-1.,0.));
#1004=DIRECTION('ref_axis',(-1.,0.,0.));
#1005=DIRECTION('center_axis',(0.707106781186559,0.,-0.707106781186536));
#1006=DIRECTION('ref_axis',(-0.707106781186536,0.,-0.707106781186559));
#1007=DIRECTION('',(0.,1.,0.));
#1008=DIRECTION('center_axis',(-1.,0.,0.));
#1009=DIRECTION('ref_axis',(0.,-1.,0.));
#1010=DIRECTION('',(0.,-1.,0.));
#1011=DIRECTION('',(0.,1.,0.));
#1012=DIRECTION('center_axis',(-1.,0.,0.));
#1013=DIRECTION('ref_axis',(0.,6.4360281809889E-15,1.));
#1014=DIRECTION('',(0.,1.,1.17617334670857E-15));
#1015=DIRECTION('center_axis',(1.,0.,0.));
#1016=DIRECTION('ref_axis',(0.,1.,-1.66533453693773E-16));
#1017=DIRECTION('',(0.,-1.,1.66533453693773E-16));
#1018=DIRECTION('center_axis',(-1.,0.,0.));
#1019=DIRECTION('ref_axis',(0.,0.668153104781054,0.744023809142851));
#1020=DIRECTION('center_axis',(1.,0.,0.));
#1021=DIRECTION('ref_axis',(0.,0.668153104781054,0.744023809142851));
#1022=DIRECTION('center_axis',(0.,-1.,0.));
#1023=DIRECTION('ref_axis',(1.,0.,-1.22464679914735E-16));
#1024=DIRECTION('center_axis',(0.,-1.,0.));
#1025=DIRECTION('ref_axis',(-1.,0.,0.));
#1026=DIRECTION('',(-2.96535539351489E-16,1.,-3.53147732240161E-10));
#1027=DIRECTION('center_axis',(0.,-1.,0.));
#1028=DIRECTION('ref_axis',(-1.,0.,0.));
#1029=DIRECTION('',(2.96535539351489E-16,-1.,-3.53147732240161E-10));
#1030=DIRECTION('center_axis',(0.,-1.,0.));
#1031=DIRECTION('ref_axis',(-1.,0.,0.));
#1032=DIRECTION('center_axis',(0.,1.,0.));
#1033=DIRECTION('ref_axis',(0.,0.,1.));
#1034=DIRECTION('',(0.,0.,-1.));
#1035=DIRECTION('center_axis',(0.,-1.,0.));
#1036=DIRECTION('ref_axis',(1.,0.,-1.22464679914735E-16));
#1037=DIRECTION('center_axis',(0.,-1.,0.));
#1038=DIRECTION('ref_axis',(-1.,0.,0.));
#1039=DIRECTION('',(-2.96535539351489E-16,1.,-3.53147732240161E-10));
#1040=DIRECTION('center_axis',(0.,-1.,0.));
#1041=DIRECTION('ref_axis',(-1.,0.,0.));
#1042=DIRECTION('',(2.96535539351489E-16,-1.,-3.53147732240161E-10));
#1043=DIRECTION('center_axis',(0.,-1.,0.));
#1044=DIRECTION('ref_axis',(-1.,0.,0.));
#1045=DIRECTION('center_axis',(0.,1.,0.));
#1046=DIRECTION('ref_axis',(0.,0.,1.));
#1047=DIRECTION('',(0.,0.,-1.));
#1048=DIRECTION('center_axis',(-1.40413563392937E-9,-1.,0.));
#1049=DIRECTION('ref_axis',(-1.,1.40413563392937E-9,0.));
#1050=DIRECTION('',(-1.40413563392937E-9,-1.,0.));
#1051=DIRECTION('center_axis',(-1.4041356341532E-9,-1.,0.));
#1052=DIRECTION('ref_axis',(-1.,1.40413564075361E-9,0.));
#1053=DIRECTION('center_axis',(0.,0.,-1.));
#1054=DIRECTION('ref_axis',(0.,-1.,0.));
#1055=DIRECTION('center_axis',(-1.40413563392937E-9,-1.,0.));
#1056=DIRECTION('ref_axis',(-1.,1.40413563392937E-9,0.));
#1057=DIRECTION('',(-1.40413563392937E-9,-1.,0.));
#1058=DIRECTION('center_axis',(-1.40413562721431E-9,-1.,0.));
#1059=DIRECTION('ref_axis',(-1.,1.40413563229154E-9,0.));
#1060=DIRECTION('center_axis',(1.4041356341532E-9,1.,0.));
#1061=DIRECTION('ref_axis',(-1.,1.4041356341532E-9,0.));
#1062=DIRECTION('center_axis',(1.40413562721431E-9,1.,0.));
#1063=DIRECTION('ref_axis',(-1.,1.40413562721431E-9,0.));
#1064=DIRECTION('center_axis',(0.,0.,1.));
#1065=DIRECTION('ref_axis',(1.,0.,0.));
#1066=DIRECTION('center_axis',(0.,1.66533453693773E-16,1.));
#1067=DIRECTION('ref_axis',(0.,1.,-1.66533453693773E-16));
#1068=DIRECTION('',(-1.,0.,0.));
#1069=DIRECTION('center_axis',(-1.,0.,0.));
#1070=DIRECTION('ref_axis',(0.,1.,-1.66533453693773E-16));
#1071=DIRECTION('',(-1.,0.,0.));
#1072=DIRECTION('center_axis',(0.,1.17617334670857E-15,-1.));
#1073=DIRECTION('ref_axis',(0.,-1.,-1.17617334670857E-15));
#1074=DIRECTION('',(-1.,0.,0.));
#1075=DIRECTION('center_axis',(-1.,0.,0.));
#1076=DIRECTION('ref_axis',(0.,6.4360281809889E-15,1.));
#1077=DIRECTION('center_axis',(0.,1.66533453693773E-16,1.));
#1078=DIRECTION('ref_axis',(0.,1.,-1.66533453693773E-16));
#1079=DIRECTION('',(0.,-1.,1.66533453693773E-16));
#1080=DIRECTION('center_axis',(-1.,0.,0.));
#1081=DIRECTION('ref_axis',(0.,-1.,0.));
#1082=CARTESIAN_POINT('',(0.,0.,0.));
#1083=CARTESIAN_POINT('Origin',(2.77499999999998,128.9,161.891729985377));
#1084=CARTESIAN_POINT('',(2.89999999999998,127.05,161.891729985377));
#1085=CARTESIAN_POINT('Origin',(2.89999999999998,128.9,161.891729985377));
#1086=CARTESIAN_POINT('',(2.64999999999998,127.3,161.891729985377));
#1087=CARTESIAN_POINT('',(2.77499999999998,127.175,161.891729985377));
#1088=CARTESIAN_POINT('Origin',(2.64999999999998,128.9,161.891729985377));
#1089=CARTESIAN_POINT('Origin',(2.89999999999998,132.483768080364,161.945866013418));
#1090=CARTESIAN_POINT('',(2.89999999999998,104.900000686372,175.891729985377));
#1091=CARTESIAN_POINT('',(2.89999993517995,134.9,175.891729985377));
#1092=CARTESIAN_POINT('',(2.89999999999998,127.454731456065,175.891729985377));
#1093=CARTESIAN_POINT('',(2.89999999999998,105.4,147.900661405744));
#1094=CARTESIAN_POINT('Origin',(2.89999999999998,104.9,161.891729985377));
#1095=CARTESIAN_POINT('',(2.89999999999998,105.4,147.891729985377));
#1096=CARTESIAN_POINT('',(2.89999999999998,105.4,157.92661814373));
#1097=CARTESIAN_POINT('',(2.89999993517995,134.9,147.891729985377));
#1098=CARTESIAN_POINT('',(2.89999999999998,133.691884040182,147.891729985377));
#1099=CARTESIAN_POINT('',(2.89999993517995,134.9,176.891729985377));
#1100=CARTESIAN_POINT('',(2.89999999999998,103.05,161.891729985377));
#1101=CARTESIAN_POINT('Origin',(2.89999999999998,104.9,161.891729985377));
#1102=CARTESIAN_POINT('Origin',(2.89999999999998,128.9,161.891729985377));
#1103=CARTESIAN_POINT('',(-0.600000000000023,127.3,161.891729985377));
#1104=CARTESIAN_POINT('Origin',(-0.600000000000023,128.9,161.891729985377));
#1105=CARTESIAN_POINT('',(2.89999999999998,127.3,161.891729985377));
#1106=CARTESIAN_POINT('Origin',(2.77499999999998,104.9,161.891729985377));
#1107=CARTESIAN_POINT('',(2.64999999999998,103.3,161.891729985377));
#1108=CARTESIAN_POINT('',(2.77499999999998,103.175,161.891729985377));
#1109=CARTESIAN_POINT('Origin',(2.64999999999998,104.9,161.891729985377));
#1110=CARTESIAN_POINT('Origin',(2.89999999999998,104.9,161.891729985377));
#1111=CARTESIAN_POINT('',(-0.100000000000025,103.3,161.891729985377));
#1112=CARTESIAN_POINT('Origin',(-0.100000000000025,104.9,161.891729985377));
#1113=CARTESIAN_POINT('',(2.89999999999998,103.3,161.891729985377));
#1114=CARTESIAN_POINT('Origin',(-0.350000000000024,104.9,161.891729985377));
#1115=CARTESIAN_POINT('',(-0.600000000000023,102.8,161.891729985377));
#1116=CARTESIAN_POINT('Origin',(-0.600000000000023,104.9,161.891729985377));
#1117=CARTESIAN_POINT('',(-0.350000000000024,103.05,161.891729985377));
#1118=CARTESIAN_POINT('Origin',(-0.600000000000023,114.65,161.891729985377));
#1119=CARTESIAN_POINT('',(-0.600000000000023,96.6,150.3674078795));
#1120=CARTESIAN_POINT('',(-0.600000000000023,96.5999999999999,161.691729985377));
#1121=CARTESIAN_POINT('',(-0.600000000000023,96.6,154.391729985377));
#1122=CARTESIAN_POINT('',(-0.600000000000023,97.1025645241322,161.691729985377));
#1123=CARTESIAN_POINT('',(-0.600000000000023,105.525,161.691729985377));
#1124=CARTESIAN_POINT('',(-0.600000000000023,102.628155339806,169.353547581643));
#1125=CARTESIAN_POINT('Origin',(-0.600000000000023,104.9,161.891729985377));
#1126=CARTESIAN_POINT('',(-0.600000000000023,104.4,171.745155785575));
#1127=CARTESIAN_POINT('Origin',(-0.600000000000023,101.9,171.745155785575));
#1128=CARTESIAN_POINT('',(-0.600000000000023,104.4,175.811140892452));
#1129=CARTESIAN_POINT('',(-0.600000000000023,104.4,165.883909841045));
#1130=CARTESIAN_POINT('',(-0.600000000000023,103.292857142857,176.805384528672));
#1131=CARTESIAN_POINT('Origin',(-0.600000000000023,103.4,175.811140892452));
#1132=CARTESIAN_POINT('',(-0.600000000000023,104.900000686372,176.891729985377));
#1133=CARTESIAN_POINT('Origin',(-0.600000000000023,104.9,161.891729985377));
#1134=CARTESIAN_POINT('',(-0.600000000000023,113.4,176.891729985377));
#1135=CARTESIAN_POINT('',(-0.600000000000023,113.4,176.891729985377));
#1136=CARTESIAN_POINT('',(-0.600000000000023,113.4,166.797241018296));
#1137=CARTESIAN_POINT('',(-0.600000000000023,113.4,169.391729985377));
#1138=CARTESIAN_POINT('',(-0.600000000000023,114.235022128017,165.810943749844));
#1139=CARTESIAN_POINT('Origin',(-0.600000000000023,114.4,166.797241018296));
#1140=CARTESIAN_POINT('',(-0.600000000000023,115.670329614269,165.691729985377));
#1141=CARTESIAN_POINT('Origin',(-0.600000000000023,115.670329614269,174.391729985377));
#1142=CARTESIAN_POINT('',(-0.600000000000023,128.9,165.691729985377));
#1143=CARTESIAN_POINT('',(-0.600000000000023,115.160164807134,165.691729985377));
#1144=CARTESIAN_POINT('',(-0.600000000000023,128.9,158.091729985377));
#1145=CARTESIAN_POINT('Origin',(-0.600000000000023,128.9,161.891729985377));
#1146=CARTESIAN_POINT('',(-0.600000000000023,115.670329614269,158.091729985377));
#1147=CARTESIAN_POINT('',(-0.600000000000023,121.775,158.091729985377));
#1148=CARTESIAN_POINT('',(-0.600000000000023,109.991428544927,155.982639076286));
#1149=CARTESIAN_POINT('Origin',(-0.600000000000023,115.670329614269,149.391729985377));
#1150=CARTESIAN_POINT('',(-0.600000000000023,106.889795918367,154.349799714999));
#1151=CARTESIAN_POINT('Origin',(-0.600000000000023,104.9,161.891729985377));
#1152=CARTESIAN_POINT('',(-0.600000000000023,105.4,152.415971440543));
#1153=CARTESIAN_POINT('Origin',(-0.600000000000023,107.4,152.415971440543));
#1154=CARTESIAN_POINT('',(-0.600000000000023,105.4,146.900065634812));
#1155=CARTESIAN_POINT('',(-0.600000000000023,105.4,157.899550129709));
#1156=CARTESIAN_POINT('',(-0.600000000000023,95.7965517241379,149.970017462056));
#1157=CARTESIAN_POINT('Origin',(-0.600000000000023,104.9,161.891729985377));
#1158=CARTESIAN_POINT('Origin',(-0.600000000000023,96.0999999999999,150.3674078795));
#1159=CARTESIAN_POINT('Origin',(-0.600000000000023,96.0999999999999,150.3674078795));
#1160=CARTESIAN_POINT('',(-5.10000000000002,95.7965517241379,149.970017462056));
#1161=CARTESIAN_POINT('',(-5.10000000000002,96.6,150.3674078795));
#1162=CARTESIAN_POINT('Origin',(-5.10000000000002,96.0999999999999,150.3674078795));
#1163=CARTESIAN_POINT('',(-0.600000000000023,96.6,150.3674078795));
#1164=CARTESIAN_POINT('',(-0.600000000000023,95.7965517241379,149.970017462056));
#1165=CARTESIAN_POINT('Origin',(-0.600000000000023,104.9,161.891729985377));
#1166=CARTESIAN_POINT('',(1.89999999999998,105.4,146.900065634812));
#1167=CARTESIAN_POINT('',(-0.600000000000023,105.4,146.900065634812));
#1168=CARTESIAN_POINT('',(1.89999999999998,104.900000686372,176.891729985377));
#1169=CARTESIAN_POINT('Origin',(1.89999999999998,104.9,161.891729985377));
#1170=CARTESIAN_POINT('',(-0.600000000000023,104.900000686372,176.891729985377));
#1171=CARTESIAN_POINT('',(-5.10000000000002,103.292857142857,176.805384528672));
#1172=CARTESIAN_POINT('',(-0.600000000000023,103.292857142857,176.805384528672));
#1173=CARTESIAN_POINT('Origin',(-5.10000000000002,104.9,161.891729985377));
#1174=CARTESIAN_POINT('Origin',(-0.600000000000023,114.4,166.797241018296));
#1175=CARTESIAN_POINT('',(-5.10000000000002,113.4,166.797241018296));
#1176=CARTESIAN_POINT('',(-5.10000000000002,114.235022128017,165.810943749844));
#1177=CARTESIAN_POINT('Origin',(-5.10000000000002,114.4,166.797241018296));
#1178=CARTESIAN_POINT('',(-0.600000000000023,114.235022128017,165.810943749844));
#1179=CARTESIAN_POINT('',(-0.600000000000023,113.4,166.797241018296));
#1180=CARTESIAN_POINT('Origin',(-0.600000000000023,113.4,176.891729985377));
#1181=CARTESIAN_POINT('',(-5.10000000000002,113.4,176.891729985377));
#1182=CARTESIAN_POINT('',(-2.43631602061112,113.4,176.891729985377));
#1183=CARTESIAN_POINT('',(-5.10000000000002,113.4,169.391729985377));
#1184=CARTESIAN_POINT('Origin',(-0.600000000000023,101.9,171.745155785575));
#1185=CARTESIAN_POINT('',(-5.10000000000002,102.628155339806,169.353547581643));
#1186=CARTESIAN_POINT('',(-5.10000000000002,104.4,171.745155785575));
#1187=CARTESIAN_POINT('Origin',(-5.10000000000002,101.9,171.745155785575));
#1188=CARTESIAN_POINT('',(-0.600000000000023,104.4,171.745155785575));
#1189=CARTESIAN_POINT('',(-0.600000000000023,102.628155339806,169.353547581643));
#1190=CARTESIAN_POINT('Origin',(-0.600000000000023,104.9,161.891729985377));
#1191=CARTESIAN_POINT('',(-5.10000000000002,97.1025645241322,161.691729985377));
#1192=CARTESIAN_POINT('',(-0.600000000000023,97.1025645241528,161.691729985377));
#1193=CARTESIAN_POINT('Origin',(-5.10000000000002,104.9,161.891729985377));
#1194=CARTESIAN_POINT('Origin',(-0.600000000000023,107.4,152.415971440543));
#1195=CARTESIAN_POINT('',(-5.10000000000002,106.889795918367,154.349799714999));
#1196=CARTESIAN_POINT('',(-5.10000000000002,105.4,152.415971440543));
#1197=CARTESIAN_POINT('Origin',(-5.10000000000002,107.4,152.415971440543));
#1198=CARTESIAN_POINT('',(-0.600000000000023,105.4,152.415971440543));
#1199=CARTESIAN_POINT('',(-0.600000000000023,106.889795918367,154.349799714999));
#1200=CARTESIAN_POINT('Origin',(-0.600000000000023,104.9,161.891729985377));
#1201=CARTESIAN_POINT('',(-5.10000000000002,109.991428544927,155.982639076286));
#1202=CARTESIAN_POINT('',(-0.600000000000023,109.991428544927,155.982639076286));
#1203=CARTESIAN_POINT('Origin',(-5.10000000000002,104.9,161.891729985377));
#1204=CARTESIAN_POINT('Origin',(-0.600000000000023,96.6,146.891729985377));
#1205=CARTESIAN_POINT('',(-5.10000000000002,96.5999999999999,161.691729985377));
#1206=CARTESIAN_POINT('',(-5.10000000000002,96.6,154.391729985377));
#1207=CARTESIAN_POINT('',(-0.600000000000023,96.6,161.691729985377));
#1208=CARTESIAN_POINT('Origin',(-0.600000000000023,115.670329614269,174.391729985377));
#1209=CARTESIAN_POINT('',(-5.10000000000002,115.670329614269,165.691729985377));
#1210=CARTESIAN_POINT('Origin',(-5.10000000000002,115.670329614269,174.391729985377));
#1211=CARTESIAN_POINT('',(-0.600000000000023,115.670329614269,165.691729985377));
#1212=CARTESIAN_POINT('Origin',(-0.600000000000023,105.4,153.907370274041));
#1213=CARTESIAN_POINT('',(-5.10000000000002,105.4,146.891729985377));
#1214=CARTESIAN_POINT('',(-5.10000000000002,105.4,157.899550129709));
#1215=CARTESIAN_POINT('',(1.89999999999998,105.4,146.891729985377));
#1216=CARTESIAN_POINT('',(-2.85000000000002,105.4,146.891729985377));
#1217=CARTESIAN_POINT('',(3.27891007216607,105.4,148.270640057543));
#1218=CARTESIAN_POINT('Ctrl Pts',(2.89999999999992,105.4,147.900661405744));
#1219=CARTESIAN_POINT('Ctrl Pts',(2.41726192882935,105.4,147.417615171075));
#1220=CARTESIAN_POINT('Ctrl Pts',(1.90000000000008,105.4,146.900065634812));
#1221=CARTESIAN_POINT('Origin',(-0.600000000000023,104.4,169.876089696713));
#1222=CARTESIAN_POINT('',(-5.10000000000002,104.4,175.811140892452));
#1223=CARTESIAN_POINT('',(-5.10000000000002,104.4,165.883909841045));
#1224=CARTESIAN_POINT('',(-0.600000000000023,104.4,175.811140892452));
#1225=CARTESIAN_POINT('Origin',(2.39999999999998,127.454731456065,176.391729985377));
#1226=CARTESIAN_POINT('',(1.89999999999998,134.9,176.891729985377));
#1227=CARTESIAN_POINT('',(2.39999998379497,134.9,176.391730001582));
#1228=CARTESIAN_POINT('',(1.89999999999998,127.454731456065,176.891729985377));
#1229=CARTESIAN_POINT('',(1.89999999999998,104.900000686372,176.891729985377));
#1230=CARTESIAN_POINT('Origin',(2.39999999999998,104.9,161.891729985377));
#1231=CARTESIAN_POINT('Origin',(2.89999993517995,134.9,176.891729985377));
#1232=CARTESIAN_POINT('',(1.89999999999998,134.9,146.891729985377));
#1233=CARTESIAN_POINT('',(9.8999999837949,134.9,154.891729969172));
#1234=CARTESIAN_POINT('',(-5.10000000000002,134.9,146.891729985377));
#1235=CARTESIAN_POINT('',(1.14999996758996,134.9,146.891729985377));
#1236=CARTESIAN_POINT('',(-5.10000000000002,134.9,176.891729985377));
#1237=CARTESIAN_POINT('',(-5.10000000000002,134.9,176.891729985377));
#1238=CARTESIAN_POINT('',(2.89999993517995,134.9,176.891729985377));
#1239=CARTESIAN_POINT('',(0.9499999928389,134.9,171.891729985377));
#1240=CARTESIAN_POINT('Origin',(-1.10000000716111,134.9,171.891729985377));
#1241=CARTESIAN_POINT('',(0.949999992838889,134.9,151.891735805644));
#1242=CARTESIAN_POINT('Origin',(-1.10000000716111,134.9,151.891735805644));
#1243=CARTESIAN_POINT('Origin',(2.39999999999998,133.691884040182,147.391729985377));
#1244=CARTESIAN_POINT('',(1.89999999999998,133.691884040182,146.891729985377));
#1245=CARTESIAN_POINT('Origin',(-5.10000000000002,112.4,161.891729985377));
#1246=CARTESIAN_POINT('',(-5.10000000000002,117.412847415883,176.891729985377));
#1247=CARTESIAN_POINT('',(-5.10000000000002,133.9,146.891729985377));
#1248=CARTESIAN_POINT('',(-5.10000000000002,115.670329614269,158.091729985377));
#1249=CARTESIAN_POINT('Origin',(-5.10000000000002,115.670329614269,149.391729985377));
#1250=CARTESIAN_POINT('',(-5.10000000000002,128.9,158.091729985377));
#1251=CARTESIAN_POINT('',(-5.10000000000002,120.65,158.091729985377));
#1252=CARTESIAN_POINT('',(-5.10000000000002,128.9,165.691729985377));
#1253=CARTESIAN_POINT('Origin',(-5.10000000000002,128.9,161.891729985377));
#1254=CARTESIAN_POINT('',(-5.10000000000002,114.035164807134,165.691729985377));
#1255=CARTESIAN_POINT('Origin',(-0.600000000000023,103.4,175.811140892452));
#1256=CARTESIAN_POINT('Origin',(-5.10000000000002,103.4,175.811140892452));
#1257=CARTESIAN_POINT('Origin',(-1.10000002110699,124.968,151.891735805644));
#1258=CARTESIAN_POINT('',(-0.600000000000023,124.968,149.903646275745));
#1259=CARTESIAN_POINT('',(0.949999978893014,124.968,151.891735805644));
#1260=CARTESIAN_POINT('Origin',(-1.10000002110699,124.968,151.891735805644));
#1261=CARTESIAN_POINT('',(-0.600000000000023,124.500002543838,149.90364627591));
#1262=CARTESIAN_POINT('',(-0.600000000000023,124.734001271919,149.903646275827));
#1263=CARTESIAN_POINT('',(-0.600000000000023,124.500002543838,153.879825335377));
#1264=CARTESIAN_POINT('Origin',(-1.10000002110699,124.5,151.891735805644));
#1265=CARTESIAN_POINT('',(-0.600000000000023,124.968,153.879825335542));
#1266=CARTESIAN_POINT('',(-0.600000000000023,124.734001271919,153.87982533546));
#1267=CARTESIAN_POINT('Origin',(-1.10000002110699,124.968,151.891735805644));
#1268=CARTESIAN_POINT('Origin',(-0.600000000000023,124.5,171.522410127506));
#1269=CARTESIAN_POINT('',(-0.600000000000023,124.500002543838,164.39173289551));
#1270=CARTESIAN_POINT('Origin',(-1.10000002110699,124.968,171.891729985377));
#1271=CARTESIAN_POINT('',(-0.600000000000023,124.968,169.903640455478));
#1272=CARTESIAN_POINT('',(0.949999978893025,124.968,171.891729985377));
#1273=CARTESIAN_POINT('Origin',(-1.10000002110699,124.968,171.891729985377));
#1274=CARTESIAN_POINT('',(-0.600000000000023,124.500002543838,169.903640455643));
#1275=CARTESIAN_POINT('',(-0.600000000000023,124.734001271919,169.903640455561));
#1276=CARTESIAN_POINT('',(-0.600000000000023,124.500002543838,173.87981951511));
#1277=CARTESIAN_POINT('Origin',(-1.10000002110699,124.5,171.891729985377));
#1278=CARTESIAN_POINT('',(-0.600000000000023,124.968,173.879819515276));
#1279=CARTESIAN_POINT('',(-0.600000000000023,124.734001271919,173.879819515193));
#1280=CARTESIAN_POINT('Origin',(-1.10000002110699,124.968,171.891729985377));
#1281=CARTESIAN_POINT('Origin',(-0.600000000000023,124.5,171.522410127506));
#1282=CARTESIAN_POINT('',(-0.600000000000023,124.500002543838,174.391729985377));
#1283=CARTESIAN_POINT('Origin',(-1.10000000000002,140.00000254454,151.891735805644));
#1284=CARTESIAN_POINT('',(0.949999999999984,140.000002541661,151.891735805644));
#1285=CARTESIAN_POINT('Origin',(-1.10000002176412,124.50000254454,151.891735805644));
#1286=CARTESIAN_POINT('Origin',(-0.600000000000023,134.9,146.891729985377));
#1287=CARTESIAN_POINT('Origin',(-1.10000000000002,140.00000254454,171.891729985377));
#1288=CARTESIAN_POINT('',(0.949999999999995,140.000002541661,171.891729985377));
#1289=CARTESIAN_POINT('Origin',(-1.10000002176412,124.50000254454,171.891729985377));
#1290=CARTESIAN_POINT('Origin',(-1.10000002176412,124.50000254454,151.891735805644));
#1291=CARTESIAN_POINT('Origin',(-1.10000002176412,124.50000254454,171.891729985377));
#1292=CARTESIAN_POINT('Origin',(-4.27263204122221,122.425694831766,176.891729985377));
#1293=CARTESIAN_POINT('Origin',(-0.600000000000023,115.670329614269,165.691729985377));
#1294=CARTESIAN_POINT('',(-0.600000000000023,128.9,165.691729985377));
#1295=CARTESIAN_POINT('Origin',(-0.600000000000023,128.9,161.891729985377));
#1296=CARTESIAN_POINT('',(-0.600000000000023,128.9,158.091729985377));
#1297=CARTESIAN_POINT('Origin',(-0.600000000000023,128.9,158.091729985377));
#1298=CARTESIAN_POINT('',(-0.600000000000023,115.670329614269,158.091729985377));
#1299=CARTESIAN_POINT('Origin',(-0.600000000000023,115.670329614269,149.391729985377));
#1300=CARTESIAN_POINT('Origin',(-0.600000000000023,96.4,161.691729985377));
#1301=CARTESIAN_POINT('',(-5.10000000000002,104.4,161.691729985377));
#1302=CARTESIAN_POINT('Origin',(-5.10000000000002,112.4,161.891729985377));
#1303=UNCERTAINTY_MEASURE_WITH_UNIT(LENGTH_MEASURE(0.01),#1307,
'DISTANCE_ACCURACY_VALUE',
'Maximum model space distance between geometric entities at asserted c
onnectivities');
#1304=UNCERTAINTY_MEASURE_WITH_UNIT(LENGTH_MEASURE(0.01),#1307,
'DISTANCE_ACCURACY_VALUE',
'Maximum model space distance between geometric entities at asserted c
onnectivities');
#1305=(
GEOMETRIC_REPRESENTATION_CONTEXT(3)
GLOBAL_UNCERTAINTY_ASSIGNED_CONTEXT((#1303))
GLOBAL_UNIT_ASSIGNED_CONTEXT((#1307,#1309,#1310))
REPRESENTATION_CONTEXT('','3D')
);
#1306=(
GEOMETRIC_REPRESENTATION_CONTEXT(3)
GLOBAL_UNCERTAINTY_ASSIGNED_CONTEXT((#1304))
GLOBAL_UNIT_ASSIGNED_CONTEXT((#1307,#1309,#1310))
REPRESENTATION_CONTEXT('','3D')
);
#1307=(
LENGTH_UNIT()
NAMED_UNIT(*)
SI_UNIT(.MILLI.,.METRE.)
);
#1308=(
LENGTH_UNIT()
NAMED_UNIT(*)
SI_UNIT($,.METRE.)
);
#1309=(
NAMED_UNIT(*)
PLANE_ANGLE_UNIT()
SI_UNIT($,.RADIAN.)
);
#1310=(
NAMED_UNIT(*)
SI_UNIT($,.STERADIAN.)
SOLID_ANGLE_UNIT()
);
#1311=SHAPE_DEFINITION_REPRESENTATION(#1312,#1313);
#1312=PRODUCT_DEFINITION_SHAPE('',$,#1315);
#1313=SHAPE_REPRESENTATION('',(#766),#1305);
#1314=PRODUCT_DEFINITION_CONTEXT('part definition',#1319,'design');
#1315=PRODUCT_DEFINITION('Upper Leg lower hoop right',
'Upper Leg lower hoop right',#1316,#1314);
#1316=PRODUCT_DEFINITION_FORMATION('',$,#1321);
#1317=PRODUCT_RELATED_PRODUCT_CATEGORY('Upper Leg lower hoop right',
'Upper Leg lower hoop right',(#1321));
#1318=APPLICATION_PROTOCOL_DEFINITION('international standard',
'automotive_design',2009,#1319);
#1319=APPLICATION_CONTEXT(
'Core Data for Automotive Mechanical Design Process');
#1320=PRODUCT_CONTEXT('part definition',#1319,'mechanical');
#1321=PRODUCT('Upper Leg lower hoop right','Upper Leg lower hoop right',
$,(#1320));
#1322=PRESENTATION_STYLE_ASSIGNMENT((#1324));
#1323=PRESENTATION_STYLE_ASSIGNMENT((#1325));
#1324=SURFACE_STYLE_USAGE(.BOTH.,#1326);
#1325=SURFACE_STYLE_USAGE(.BOTH.,#1327);
#1326=SURFACE_SIDE_STYLE('',(#1328));
#1327=SURFACE_SIDE_STYLE('',(#1329));
#1328=SURFACE_STYLE_FILL_AREA(#1330);
#1329=SURFACE_STYLE_FILL_AREA(#1331);
#1330=FILL_AREA_STYLE('Steel - Satin',(#1332));
#1331=FILL_AREA_STYLE('ABS (White)',(#1333));
#1332=FILL_AREA_STYLE_COLOUR('Steel - Satin',#1334);
#1333=FILL_AREA_STYLE_COLOUR('ABS (White)',#1335);
#1334=COLOUR_RGB('Steel - Satin',0.627450980392157,0.627450980392157,0.627450980392157);
#1335=COLOUR_RGB('ABS (White)',0.964705882352941,0.964705882352941,0.952941176470588);
ENDSEC;
END-ISO-10303-21;
