ISO-10303-21;
HEADER;
/* Generated by software containing ST-Developer
 * from STEP Tools, Inc. (www.steptools.com) 
 */

FILE_DESCRIPTION(
/* description */ (''),
/* implementation_level */ '2;1');

FILE_NAME(
/* name */ 'Upper Leg conector.step',
/* time_stamp */ '2025-12-12T13:05:01+01:00',
/* author */ (''),
/* organization */ (''),
/* preprocessor_version */ 'ST-DEVELOPER v20.1',
/* originating_system */ 'Autodesk Translation Framework v14.21.0.0',
/* authorisation */ '');

FILE_SCHEMA (('AUTOMOTIVE_DESIGN { 1 0 10303 214 3 1 1 }'));
ENDSEC;

DATA;
#10=MECHANICAL_DESIGN_GEOMETRIC_PRESENTATION_REPRESENTATION('',(#13),#1387);
#11=SHAPE_REPRESENTATION_RELATIONSHIP('SRR','None',#1394,#12);
#12=ADVANCED_BREP_SHAPE_REPRESENTATION('',(#14),#1386);
#13=STYLED_ITEM('',(#1404),#14);
#14=MANIFOLD_SOLID_BREP('Body1',#857);
#15=CYLINDRICAL_SURFACE('',#896,2.05);
#16=CYLINDRICAL_SURFACE('',#897,2.04999999999999);
#17=CYLINDRICAL_SURFACE('',#899,2.05);
#18=CYLINDRICAL_SURFACE('',#900,2.05);
#19=CYLINDRICAL_SURFACE('',#901,2.05000000000001);
#20=CYLINDRICAL_SURFACE('',#918,2.05);
#21=CYLINDRICAL_SURFACE('',#919,2.05000000000001);
#22=CYLINDRICAL_SURFACE('',#920,2.05);
#23=CYLINDRICAL_SURFACE('',#929,2.05);
#24=CYLINDRICAL_SURFACE('',#930,2.05000000000001);
#25=CIRCLE('',#872,2.05);
#26=CIRCLE('',#873,2.05);
#27=CIRCLE('',#874,2.05);
#28=CIRCLE('',#875,2.05000000000001);
#29=CIRCLE('',#876,2.05000000000001);
#30=CIRCLE('',#877,2.05);
#31=CIRCLE('',#878,2.05);
#32=CIRCLE('',#879,2.05);
#33=CIRCLE('',#880,2.05);
#34=CIRCLE('',#881,2.05000000000001);
#35=CIRCLE('',#883,2.04999999999999);
#36=CIRCLE('',#884,2.05);
#37=CIRCLE('',#885,2.05000000000001);
#38=CIRCLE('',#886,2.05);
#39=CIRCLE('',#887,2.05);
#40=CIRCLE('',#888,2.05);
#41=CIRCLE('',#889,2.05000000000001);
#42=CIRCLE('',#890,2.05);
#43=CIRCLE('',#891,2.05000000000001);
#44=CIRCLE('',#892,2.05);
#45=FACE_BOUND('',#108,.T.);
#46=FACE_BOUND('',#109,.T.);
#47=FACE_BOUND('',#110,.T.);
#48=FACE_BOUND('',#111,.T.);
#49=FACE_BOUND('',#112,.T.);
#50=FACE_BOUND('',#113,.T.);
#51=FACE_BOUND('',#114,.T.);
#52=FACE_BOUND('',#115,.T.);
#53=FACE_BOUND('',#116,.T.);
#54=FACE_BOUND('',#117,.T.);
#55=FACE_BOUND('',#118,.T.);
#56=FACE_BOUND('',#120,.T.);
#57=FACE_BOUND('',#121,.T.);
#58=FACE_BOUND('',#122,.T.);
#59=FACE_BOUND('',#123,.T.);
#60=FACE_BOUND('',#124,.T.);
#61=FACE_BOUND('',#125,.T.);
#62=FACE_BOUND('',#126,.T.);
#63=FACE_BOUND('',#127,.T.);
#64=FACE_BOUND('',#128,.T.);
#65=FACE_BOUND('',#129,.T.);
#66=FACE_BOUND('',#130,.T.);
#67=FACE_OUTER_BOUND('',#107,.T.);
#68=FACE_OUTER_BOUND('',#119,.T.);
#69=FACE_OUTER_BOUND('',#131,.T.);
#70=FACE_OUTER_BOUND('',#132,.T.);
#71=FACE_OUTER_BOUND('',#133,.T.);
#72=FACE_OUTER_BOUND('',#134,.T.);
#73=FACE_OUTER_BOUND('',#135,.T.);
#74=FACE_OUTER_BOUND('',#136,.T.);
#75=FACE_OUTER_BOUND('',#137,.T.);
#76=FACE_OUTER_BOUND('',#138,.T.);
#77=FACE_OUTER_BOUND('',#139,.T.);
#78=FACE_OUTER_BOUND('',#140,.T.);
#79=FACE_OUTER_BOUND('',#141,.T.);
#80=FACE_OUTER_BOUND('',#142,.T.);
#81=FACE_OUTER_BOUND('',#143,.T.);
#82=FACE_OUTER_BOUND('',#144,.T.);
#83=FACE_OUTER_BOUND('',#145,.T.);
#84=FACE_OUTER_BOUND('',#146,.T.);
#85=FACE_OUTER_BOUND('',#147,.T.);
#86=FACE_OUTER_BOUND('',#148,.T.);
#87=FACE_OUTER_BOUND('',#149,.T.);
#88=FACE_OUTER_BOUND('',#150,.T.);
#89=FACE_OUTER_BOUND('',#151,.T.);
#90=FACE_OUTER_BOUND('',#152,.T.);
#91=FACE_OUTER_BOUND('',#153,.T.);
#92=FACE_OUTER_BOUND('',#154,.T.);
#93=FACE_OUTER_BOUND('',#155,.T.);
#94=FACE_OUTER_BOUND('',#156,.T.);
#95=FACE_OUTER_BOUND('',#157,.T.);
#96=FACE_OUTER_BOUND('',#158,.T.);
#97=FACE_OUTER_BOUND('',#159,.T.);
#98=FACE_OUTER_BOUND('',#160,.T.);
#99=FACE_OUTER_BOUND('',#161,.T.);
#100=FACE_OUTER_BOUND('',#162,.T.);
#101=FACE_OUTER_BOUND('',#163,.T.);
#102=FACE_OUTER_BOUND('',#164,.T.);
#103=FACE_OUTER_BOUND('',#165,.T.);
#104=FACE_OUTER_BOUND('',#166,.T.);
#105=FACE_OUTER_BOUND('',#167,.T.);
#106=FACE_OUTER_BOUND('',#168,.T.);
#107=EDGE_LOOP('',(#555,#556,#557,#558,#559,#560,#561,#562,#563,#564,#565,
#566,#567,#568,#569,#570,#571,#572,#573,#574,#575,#576,#577,#578,#579,#580));
#108=EDGE_LOOP('',(#581,#582,#583,#584));
#109=EDGE_LOOP('',(#585));
#110=EDGE_LOOP('',(#586));
#111=EDGE_LOOP('',(#587));
#112=EDGE_LOOP('',(#588));
#113=EDGE_LOOP('',(#589));
#114=EDGE_LOOP('',(#590));
#115=EDGE_LOOP('',(#591));
#116=EDGE_LOOP('',(#592));
#117=EDGE_LOOP('',(#593));
#118=EDGE_LOOP('',(#594));
#119=EDGE_LOOP('',(#595,#596,#597,#598,#599,#600,#601,#602,#603,#604,#605,
#606,#607,#608,#609,#610,#611,#612,#613,#614,#615,#616,#617,#618));
#120=EDGE_LOOP('',(#619,#620,#621,#622));
#121=EDGE_LOOP('',(#623));
#122=EDGE_LOOP('',(#624));
#123=EDGE_LOOP('',(#625));
#124=EDGE_LOOP('',(#626));
#125=EDGE_LOOP('',(#627));
#126=EDGE_LOOP('',(#628));
#127=EDGE_LOOP('',(#629));
#128=EDGE_LOOP('',(#630));
#129=EDGE_LOOP('',(#631));
#130=EDGE_LOOP('',(#632));
#131=EDGE_LOOP('',(#633,#634,#635,#636));
#132=EDGE_LOOP('',(#637,#638,#639,#640));
#133=EDGE_LOOP('',(#641,#642,#643,#644));
#134=EDGE_LOOP('',(#645,#646,#647,#648));
#135=EDGE_LOOP('',(#649,#650,#651,#652));
#136=EDGE_LOOP('',(#653,#654,#655,#656));
#137=EDGE_LOOP('',(#657,#658,#659,#660));
#138=EDGE_LOOP('',(#661,#662,#663,#664));
#139=EDGE_LOOP('',(#665,#666,#667,#668));
#140=EDGE_LOOP('',(#669,#670,#671,#672));
#141=EDGE_LOOP('',(#673,#674,#675,#676));
#142=EDGE_LOOP('',(#677,#678,#679,#680));
#143=EDGE_LOOP('',(#681,#682,#683,#684));
#144=EDGE_LOOP('',(#685,#686,#687,#688));
#145=EDGE_LOOP('',(#689,#690,#691,#692));
#146=EDGE_LOOP('',(#693,#694,#695,#696));
#147=EDGE_LOOP('',(#697,#698,#699,#700));
#148=EDGE_LOOP('',(#701,#702,#703,#704));
#149=EDGE_LOOP('',(#705,#706,#707,#708));
#150=EDGE_LOOP('',(#709,#710,#711,#712));
#151=EDGE_LOOP('',(#713,#714,#715,#716));
#152=EDGE_LOOP('',(#717,#718,#719,#720));
#153=EDGE_LOOP('',(#721,#722,#723,#724));
#154=EDGE_LOOP('',(#725,#726,#727,#728));
#155=EDGE_LOOP('',(#729,#730,#731,#732));
#156=EDGE_LOOP('',(#733,#734,#735,#736));
#157=EDGE_LOOP('',(#737,#738,#739,#740));
#158=EDGE_LOOP('',(#741,#742,#743,#744));
#159=EDGE_LOOP('',(#745,#746,#747,#748));
#160=EDGE_LOOP('',(#749,#750,#751,#752));
#161=EDGE_LOOP('',(#753,#754,#755,#756));
#162=EDGE_LOOP('',(#757,#758,#759,#760));
#163=EDGE_LOOP('',(#761,#762,#763,#764,#765,#766));
#164=EDGE_LOOP('',(#767,#768,#769,#770));
#165=EDGE_LOOP('',(#771,#772,#773,#774));
#166=EDGE_LOOP('',(#775,#776,#777,#778));
#167=EDGE_LOOP('',(#779,#780,#781,#782));
#168=EDGE_LOOP('',(#783,#784,#785,#786));
#169=LINE('',#1153,#265);
#170=LINE('',#1155,#266);
#171=LINE('',#1157,#267);
#172=LINE('',#1159,#268);
#173=LINE('',#1161,#269);
#174=LINE('',#1163,#270);
#175=LINE('',#1165,#271);
#176=LINE('',#1167,#272);
#177=LINE('',#1169,#273);
#178=LINE('',#1171,#274);
#179=LINE('',#1173,#275);
#180=LINE('',#1175,#276);
#181=LINE('',#1177,#277);
#182=LINE('',#1179,#278);
#183=LINE('',#1181,#279);
#184=LINE('',#1183,#280);
#185=LINE('',#1185,#281);
#186=LINE('',#1187,#282);
#187=LINE('',#1189,#283);
#188=LINE('',#1191,#284);
#189=LINE('',#1193,#285);
#190=LINE('',#1195,#286);
#191=LINE('',#1197,#287);
#192=LINE('',#1199,#288);
#193=LINE('',#1201,#289);
#194=LINE('',#1202,#290);
#195=LINE('',#1205,#291);
#196=LINE('',#1207,#292);
#197=LINE('',#1209,#293);
#198=LINE('',#1210,#294);
#199=LINE('',#1234,#295);
#200=LINE('',#1236,#296);
#201=LINE('',#1238,#297);
#202=LINE('',#1240,#298);
#203=LINE('',#1242,#299);
#204=LINE('',#1244,#300);
#205=LINE('',#1246,#301);
#206=LINE('',#1248,#302);
#207=LINE('',#1250,#303);
#208=LINE('',#1252,#304);
#209=LINE('',#1254,#305);
#210=LINE('',#1256,#306);
#211=LINE('',#1258,#307);
#212=LINE('',#1260,#308);
#213=LINE('',#1262,#309);
#214=LINE('',#1264,#310);
#215=LINE('',#1266,#311);
#216=LINE('',#1268,#312);
#217=LINE('',#1270,#313);
#218=LINE('',#1272,#314);
#219=LINE('',#1274,#315);
#220=LINE('',#1276,#316);
#221=LINE('',#1278,#317);
#222=LINE('',#1279,#318);
#223=LINE('',#1282,#319);
#224=LINE('',#1284,#320);
#225=LINE('',#1286,#321);
#226=LINE('',#1287,#322);
#227=LINE('',#1309,#323);
#228=LINE('',#1310,#324);
#229=LINE('',#1312,#325);
#230=LINE('',#1314,#326);
#231=LINE('',#1316,#327);
#232=LINE('',#1318,#328);
#233=LINE('',#1320,#329);
#234=LINE('',#1322,#330);
#235=LINE('',#1324,#331);
#236=LINE('',#1326,#332);
#237=LINE('',#1328,#333);
#238=LINE('',#1329,#334);
#239=LINE('',#1331,#335);
#240=LINE('',#1332,#336);
#241=LINE('',#1334,#337);
#242=LINE('',#1337,#338);
#243=LINE('',#1340,#339);
#244=LINE('',#1341,#340);
#245=LINE('',#1343,#341);
#246=LINE('',#1344,#342);
#247=LINE('',#1346,#343);
#248=LINE('',#1348,#344);
#249=LINE('',#1349,#345);
#250=LINE('',#1351,#346);
#251=LINE('',#1353,#347);
#252=LINE('',#1357,#348);
#253=LINE('',#1359,#349);
#254=LINE('',#1361,#350);
#255=LINE('',#1363,#351);
#256=LINE('',#1365,#352);
#257=LINE('',#1367,#353);
#258=LINE('',#1369,#354);
#259=LINE('',#1372,#355);
#260=LINE('',#1374,#356);
#261=LINE('',#1376,#357);
#262=LINE('',#1377,#358);
#263=LINE('',#1381,#359);
#264=LINE('',#1383,#360);
#265=VECTOR('',#935,10.);
#266=VECTOR('',#936,10.);
#267=VECTOR('',#937,10.);
#268=VECTOR('',#938,10.);
#269=VECTOR('',#939,10.);
#270=VECTOR('',#940,10.);
#271=VECTOR('',#941,10.);
#272=VECTOR('',#942,10.);
#273=VECTOR('',#943,10.);
#274=VECTOR('',#944,10.);
#275=VECTOR('',#945,10.);
#276=VECTOR('',#946,10.);
#277=VECTOR('',#947,10.);
#278=VECTOR('',#948,10.);
#279=VECTOR('',#949,10.);
#280=VECTOR('',#950,10.);
#281=VECTOR('',#951,10.);
#282=VECTOR('',#952,10.);
#283=VECTOR('',#953,10.);
#284=VECTOR('',#954,10.);
#285=VECTOR('',#955,10.);
#286=VECTOR('',#956,10.);
#287=VECTOR('',#957,10.);
#288=VECTOR('',#958,10.);
#289=VECTOR('',#959,10.);
#290=VECTOR('',#960,10.);
#291=VECTOR('',#961,10.);
#292=VECTOR('',#962,10.);
#293=VECTOR('',#963,10.);
#294=VECTOR('',#964,10.);
#295=VECTOR('',#987,10.);
#296=VECTOR('',#988,10.);
#297=VECTOR('',#989,10.);
#298=VECTOR('',#990,10.);
#299=VECTOR('',#991,10.);
#300=VECTOR('',#992,10.);
#301=VECTOR('',#993,10.);
#302=VECTOR('',#994,10.);
#303=VECTOR('',#995,10.);
#304=VECTOR('',#996,10.);
#305=VECTOR('',#997,10.);
#306=VECTOR('',#998,10.);
#307=VECTOR('',#999,10.);
#308=VECTOR('',#1000,10.);
#309=VECTOR('',#1001,10.);
#310=VECTOR('',#1002,10.);
#311=VECTOR('',#1003,10.);
#312=VECTOR('',#1004,10.);
#313=VECTOR('',#1005,10.);
#314=VECTOR('',#1006,10.);
#315=VECTOR('',#1007,10.);
#316=VECTOR('',#1008,10.);
#317=VECTOR('',#1009,10.);
#318=VECTOR('',#1010,10.);
#319=VECTOR('',#1011,10.);
#320=VECTOR('',#1012,10.);
#321=VECTOR('',#1013,10.);
#322=VECTOR('',#1014,10.);
#323=VECTOR('',#1037,10.);
#324=VECTOR('',#1038,10.);
#325=VECTOR('',#1041,10.);
#326=VECTOR('',#1044,10.);
#327=VECTOR('',#1047,2.05);
#328=VECTOR('',#1050,2.04999999999999);
#329=VECTOR('',#1053,10.);
#330=VECTOR('',#1056,2.05);
#331=VECTOR('',#1059,2.05);
#332=VECTOR('',#1062,2.05000000000001);
#333=VECTOR('',#1065,10.);
#334=VECTOR('',#1066,10.);
#335=VECTOR('',#1069,10.);
#336=VECTOR('',#1070,10.);
#337=VECTOR('',#1073,10.);
#338=VECTOR('',#1078,10.);
#339=VECTOR('',#1083,10.);
#340=VECTOR('',#1084,10.);
#341=VECTOR('',#1087,10.);
#342=VECTOR('',#1088,10.);
#343=VECTOR('',#1091,10.);
#344=VECTOR('',#1094,10.);
#345=VECTOR('',#1095,10.);
#346=VECTOR('',#1098,10.);
#347=VECTOR('',#1101,10.);
#348=VECTOR('',#1108,10.);
#349=VECTOR('',#1111,10.);
#350=VECTOR('',#1114,2.05);
#351=VECTOR('',#1117,2.05000000000001);
#352=VECTOR('',#1120,2.05);
#353=VECTOR('',#1123,10.);
#354=VECTOR('',#1126,10.);
#355=VECTOR('',#1131,10.);
#356=VECTOR('',#1134,10.);
#357=VECTOR('',#1137,10.);
#358=VECTOR('',#1138,10.);
#359=VECTOR('',#1145,2.05);
#360=VECTOR('',#1148,2.05000000000001);
#361=VERTEX_POINT('',#1151);
#362=VERTEX_POINT('',#1152);
#363=VERTEX_POINT('',#1154);
#364=VERTEX_POINT('',#1156);
#365=VERTEX_POINT('',#1158);
#366=VERTEX_POINT('',#1160);
#367=VERTEX_POINT('',#1162);
#368=VERTEX_POINT('',#1164);
#369=VERTEX_POINT('',#1166);
#370=VERTEX_POINT('',#1168);
#371=VERTEX_POINT('',#1170);
#372=VERTEX_POINT('',#1172);
#373=VERTEX_POINT('',#1174);
#374=VERTEX_POINT('',#1176);
#375=VERTEX_POINT('',#1178);
#376=VERTEX_POINT('',#1180);
#377=VERTEX_POINT('',#1182);
#378=VERTEX_POINT('',#1184);
#379=VERTEX_POINT('',#1186);
#380=VERTEX_POINT('',#1188);
#381=VERTEX_POINT('',#1190);
#382=VERTEX_POINT('',#1192);
#383=VERTEX_POINT('',#1194);
#384=VERTEX_POINT('',#1196);
#385=VERTEX_POINT('',#1198);
#386=VERTEX_POINT('',#1200);
#387=VERTEX_POINT('',#1203);
#388=VERTEX_POINT('',#1204);
#389=VERTEX_POINT('',#1206);
#390=VERTEX_POINT('',#1208);
#391=VERTEX_POINT('',#1211);
#392=VERTEX_POINT('',#1213);
#393=VERTEX_POINT('',#1215);
#394=VERTEX_POINT('',#1217);
#395=VERTEX_POINT('',#1219);
#396=VERTEX_POINT('',#1221);
#397=VERTEX_POINT('',#1223);
#398=VERTEX_POINT('',#1225);
#399=VERTEX_POINT('',#1227);
#400=VERTEX_POINT('',#1229);
#401=VERTEX_POINT('',#1232);
#402=VERTEX_POINT('',#1233);
#403=VERTEX_POINT('',#1235);
#404=VERTEX_POINT('',#1237);
#405=VERTEX_POINT('',#1239);
#406=VERTEX_POINT('',#1241);
#407=VERTEX_POINT('',#1243);
#408=VERTEX_POINT('',#1245);
#409=VERTEX_POINT('',#1247);
#410=VERTEX_POINT('',#1249);
#411=VERTEX_POINT('',#1251);
#412=VERTEX_POINT('',#1253);
#413=VERTEX_POINT('',#1255);
#414=VERTEX_POINT('',#1257);
#415=VERTEX_POINT('',#1259);
#416=VERTEX_POINT('',#1261);
#417=VERTEX_POINT('',#1263);
#418=VERTEX_POINT('',#1265);
#419=VERTEX_POINT('',#1267);
#420=VERTEX_POINT('',#1269);
#421=VERTEX_POINT('',#1271);
#422=VERTEX_POINT('',#1273);
#423=VERTEX_POINT('',#1275);
#424=VERTEX_POINT('',#1277);
#425=VERTEX_POINT('',#1280);
#426=VERTEX_POINT('',#1281);
#427=VERTEX_POINT('',#1283);
#428=VERTEX_POINT('',#1285);
#429=VERTEX_POINT('',#1288);
#430=VERTEX_POINT('',#1290);
#431=VERTEX_POINT('',#1292);
#432=VERTEX_POINT('',#1294);
#433=VERTEX_POINT('',#1296);
#434=VERTEX_POINT('',#1298);
#435=VERTEX_POINT('',#1300);
#436=VERTEX_POINT('',#1302);
#437=VERTEX_POINT('',#1304);
#438=VERTEX_POINT('',#1306);
#439=EDGE_CURVE('',#361,#362,#169,.T.);
#440=EDGE_CURVE('',#363,#362,#170,.T.);
#441=EDGE_CURVE('',#363,#364,#171,.T.);
#442=EDGE_CURVE('',#365,#364,#172,.T.);
#443=EDGE_CURVE('',#366,#365,#173,.T.);
#444=EDGE_CURVE('',#367,#366,#174,.T.);
#445=EDGE_CURVE('',#368,#367,#175,.T.);
#446=EDGE_CURVE('',#369,#368,#176,.T.);
#447=EDGE_CURVE('',#369,#370,#177,.T.);
#448=EDGE_CURVE('',#371,#370,#178,.T.);
#449=EDGE_CURVE('',#372,#371,#179,.T.);
#450=EDGE_CURVE('',#373,#372,#180,.T.);
#451=EDGE_CURVE('',#374,#373,#181,.T.);
#452=EDGE_CURVE('',#375,#374,#182,.T.);
#453=EDGE_CURVE('',#375,#376,#183,.T.);
#454=EDGE_CURVE('',#376,#377,#184,.T.);
#455=EDGE_CURVE('',#377,#378,#185,.T.);
#456=EDGE_CURVE('',#379,#378,#186,.T.);
#457=EDGE_CURVE('',#380,#379,#187,.T.);
#458=EDGE_CURVE('',#381,#380,#188,.T.);
#459=EDGE_CURVE('',#382,#381,#189,.T.);
#460=EDGE_CURVE('',#383,#382,#190,.T.);
#461=EDGE_CURVE('',#383,#384,#191,.T.);
#462=EDGE_CURVE('',#385,#384,#192,.T.);
#463=EDGE_CURVE('',#386,#385,#193,.T.);
#464=EDGE_CURVE('',#361,#386,#194,.T.);
#465=EDGE_CURVE('',#387,#388,#195,.T.);
#466=EDGE_CURVE('',#389,#388,#196,.T.);
#467=EDGE_CURVE('',#390,#389,#197,.T.);
#468=EDGE_CURVE('',#390,#387,#198,.T.);
#469=EDGE_CURVE('',#391,#391,#25,.T.);
#470=EDGE_CURVE('',#392,#392,#26,.T.);
#471=EDGE_CURVE('',#393,#393,#27,.T.);
#472=EDGE_CURVE('',#394,#394,#28,.T.);
#473=EDGE_CURVE('',#395,#395,#29,.T.);
#474=EDGE_CURVE('',#396,#396,#30,.T.);
#475=EDGE_CURVE('',#397,#397,#31,.T.);
#476=EDGE_CURVE('',#398,#398,#32,.T.);
#477=EDGE_CURVE('',#399,#399,#33,.T.);
#478=EDGE_CURVE('',#400,#400,#34,.T.);
#479=EDGE_CURVE('',#401,#402,#199,.T.);
#480=EDGE_CURVE('',#403,#401,#200,.T.);
#481=EDGE_CURVE('',#404,#403,#201,.T.);
#482=EDGE_CURVE('',#405,#404,#202,.T.);
#483=EDGE_CURVE('',#405,#406,#203,.T.);
#484=EDGE_CURVE('',#407,#406,#204,.T.);
#485=EDGE_CURVE('',#407,#408,#205,.T.);
#486=EDGE_CURVE('',#409,#408,#206,.T.);
#487=EDGE_CURVE('',#410,#409,#207,.T.);
#488=EDGE_CURVE('',#411,#410,#208,.T.);
#489=EDGE_CURVE('',#412,#411,#209,.T.);
#490=EDGE_CURVE('',#413,#412,#210,.T.);
#491=EDGE_CURVE('',#413,#414,#211,.T.);
#492=EDGE_CURVE('',#415,#414,#212,.T.);
#493=EDGE_CURVE('',#415,#416,#213,.T.);
#494=EDGE_CURVE('',#417,#416,#214,.T.);
#495=EDGE_CURVE('',#418,#417,#215,.T.);
#496=EDGE_CURVE('',#419,#418,#216,.T.);
#497=EDGE_CURVE('',#420,#419,#217,.T.);
#498=EDGE_CURVE('',#421,#420,#218,.T.);
#499=EDGE_CURVE('',#422,#421,#219,.T.);
#500=EDGE_CURVE('',#423,#422,#220,.T.);
#501=EDGE_CURVE('',#424,#423,#221,.T.);
#502=EDGE_CURVE('',#402,#424,#222,.T.);
#503=EDGE_CURVE('',#425,#426,#223,.T.);
#504=EDGE_CURVE('',#426,#427,#224,.T.);
#505=EDGE_CURVE('',#428,#427,#225,.T.);
#506=EDGE_CURVE('',#425,#428,#226,.T.);
#507=EDGE_CURVE('',#429,#429,#35,.T.);
#508=EDGE_CURVE('',#430,#430,#36,.T.);
#509=EDGE_CURVE('',#431,#431,#37,.T.);
#510=EDGE_CURVE('',#432,#432,#38,.T.);
#511=EDGE_CURVE('',#433,#433,#39,.T.);
#512=EDGE_CURVE('',#434,#434,#40,.T.);
#513=EDGE_CURVE('',#435,#435,#41,.T.);
#514=EDGE_CURVE('',#436,#436,#42,.T.);
#515=EDGE_CURVE('',#437,#437,#43,.T.);
#516=EDGE_CURVE('',#438,#438,#44,.T.);
#517=EDGE_CURVE('',#424,#385,#227,.T.);
#518=EDGE_CURVE('',#386,#423,#228,.T.);
#519=EDGE_CURVE('',#422,#361,#229,.T.);
#520=EDGE_CURVE('',#384,#402,#230,.T.);
#521=EDGE_CURVE('',#392,#430,#231,.T.);
#522=EDGE_CURVE('',#391,#429,#232,.T.);
#523=EDGE_CURVE('',#362,#421,#233,.T.);
#524=EDGE_CURVE('',#433,#398,#234,.T.);
#525=EDGE_CURVE('',#432,#399,#235,.T.);
#526=EDGE_CURVE('',#431,#400,#236,.T.);
#527=EDGE_CURVE('',#418,#365,#237,.T.);
#528=EDGE_CURVE('',#364,#419,#238,.T.);
#529=EDGE_CURVE('',#366,#417,#239,.T.);
#530=EDGE_CURVE('',#416,#367,#240,.T.);
#531=EDGE_CURVE('',#368,#415,#241,.T.);
#532=EDGE_CURVE('',#420,#363,#242,.T.);
#533=EDGE_CURVE('',#382,#403,#243,.T.);
#534=EDGE_CURVE('',#401,#383,#244,.T.);
#535=EDGE_CURVE('',#374,#409,#245,.T.);
#536=EDGE_CURVE('',#408,#375,#246,.T.);
#537=EDGE_CURVE('',#414,#369,#247,.T.);
#538=EDGE_CURVE('',#390,#427,#248,.T.);
#539=EDGE_CURVE('',#428,#389,#249,.T.);
#540=EDGE_CURVE('',#387,#426,#250,.T.);
#541=EDGE_CURVE('',#425,#388,#251,.T.);
#542=EDGE_CURVE('',#370,#413,#252,.T.);
#543=EDGE_CURVE('',#410,#373,#253,.T.);
#544=EDGE_CURVE('',#396,#434,#254,.T.);
#545=EDGE_CURVE('',#395,#435,#255,.T.);
#546=EDGE_CURVE('',#397,#436,#256,.T.);
#547=EDGE_CURVE('',#412,#371,#257,.T.);
#548=EDGE_CURVE('',#372,#411,#258,.T.);
#549=EDGE_CURVE('',#404,#381,#259,.T.);
#550=EDGE_CURVE('',#378,#407,#260,.T.);
#551=EDGE_CURVE('',#406,#379,#261,.T.);
#552=EDGE_CURVE('',#380,#405,#262,.T.);
#553=EDGE_CURVE('',#438,#393,#263,.T.);
#554=EDGE_CURVE('',#437,#394,#264,.T.);
#555=ORIENTED_EDGE('',*,*,#439,.T.);
#556=ORIENTED_EDGE('',*,*,#440,.F.);
#557=ORIENTED_EDGE('',*,*,#441,.T.);
#558=ORIENTED_EDGE('',*,*,#442,.F.);
#559=ORIENTED_EDGE('',*,*,#443,.F.);
#560=ORIENTED_EDGE('',*,*,#444,.F.);
#561=ORIENTED_EDGE('',*,*,#445,.F.);
#562=ORIENTED_EDGE('',*,*,#446,.F.);
#563=ORIENTED_EDGE('',*,*,#447,.T.);
#564=ORIENTED_EDGE('',*,*,#448,.F.);
#565=ORIENTED_EDGE('',*,*,#449,.F.);
#566=ORIENTED_EDGE('',*,*,#450,.F.);
#567=ORIENTED_EDGE('',*,*,#451,.F.);
#568=ORIENTED_EDGE('',*,*,#452,.F.);
#569=ORIENTED_EDGE('',*,*,#453,.T.);
#570=ORIENTED_EDGE('',*,*,#454,.T.);
#571=ORIENTED_EDGE('',*,*,#455,.T.);
#572=ORIENTED_EDGE('',*,*,#456,.F.);
#573=ORIENTED_EDGE('',*,*,#457,.F.);
#574=ORIENTED_EDGE('',*,*,#458,.F.);
#575=ORIENTED_EDGE('',*,*,#459,.F.);
#576=ORIENTED_EDGE('',*,*,#460,.F.);
#577=ORIENTED_EDGE('',*,*,#461,.T.);
#578=ORIENTED_EDGE('',*,*,#462,.F.);
#579=ORIENTED_EDGE('',*,*,#463,.F.);
#580=ORIENTED_EDGE('',*,*,#464,.F.);
#581=ORIENTED_EDGE('',*,*,#465,.T.);
#582=ORIENTED_EDGE('',*,*,#466,.F.);
#583=ORIENTED_EDGE('',*,*,#467,.F.);
#584=ORIENTED_EDGE('',*,*,#468,.T.);
#585=ORIENTED_EDGE('',*,*,#469,.F.);
#586=ORIENTED_EDGE('',*,*,#470,.F.);
#587=ORIENTED_EDGE('',*,*,#471,.T.);
#588=ORIENTED_EDGE('',*,*,#472,.T.);
#589=ORIENTED_EDGE('',*,*,#473,.F.);
#590=ORIENTED_EDGE('',*,*,#474,.F.);
#591=ORIENTED_EDGE('',*,*,#475,.F.);
#592=ORIENTED_EDGE('',*,*,#476,.T.);
#593=ORIENTED_EDGE('',*,*,#477,.T.);
#594=ORIENTED_EDGE('',*,*,#478,.T.);
#595=ORIENTED_EDGE('',*,*,#479,.F.);
#596=ORIENTED_EDGE('',*,*,#480,.F.);
#597=ORIENTED_EDGE('',*,*,#481,.F.);
#598=ORIENTED_EDGE('',*,*,#482,.F.);
#599=ORIENTED_EDGE('',*,*,#483,.T.);
#600=ORIENTED_EDGE('',*,*,#484,.F.);
#601=ORIENTED_EDGE('',*,*,#485,.T.);
#602=ORIENTED_EDGE('',*,*,#486,.F.);
#603=ORIENTED_EDGE('',*,*,#487,.F.);
#604=ORIENTED_EDGE('',*,*,#488,.F.);
#605=ORIENTED_EDGE('',*,*,#489,.F.);
#606=ORIENTED_EDGE('',*,*,#490,.F.);
#607=ORIENTED_EDGE('',*,*,#491,.T.);
#608=ORIENTED_EDGE('',*,*,#492,.F.);
#609=ORIENTED_EDGE('',*,*,#493,.T.);
#610=ORIENTED_EDGE('',*,*,#494,.F.);
#611=ORIENTED_EDGE('',*,*,#495,.F.);
#612=ORIENTED_EDGE('',*,*,#496,.F.);
#613=ORIENTED_EDGE('',*,*,#497,.F.);
#614=ORIENTED_EDGE('',*,*,#498,.F.);
#615=ORIENTED_EDGE('',*,*,#499,.F.);
#616=ORIENTED_EDGE('',*,*,#500,.F.);
#617=ORIENTED_EDGE('',*,*,#501,.F.);
#618=ORIENTED_EDGE('',*,*,#502,.F.);
#619=ORIENTED_EDGE('',*,*,#503,.T.);
#620=ORIENTED_EDGE('',*,*,#504,.T.);
#621=ORIENTED_EDGE('',*,*,#505,.F.);
#622=ORIENTED_EDGE('',*,*,#506,.F.);
#623=ORIENTED_EDGE('',*,*,#507,.T.);
#624=ORIENTED_EDGE('',*,*,#508,.T.);
#625=ORIENTED_EDGE('',*,*,#509,.F.);
#626=ORIENTED_EDGE('',*,*,#510,.F.);
#627=ORIENTED_EDGE('',*,*,#511,.F.);
#628=ORIENTED_EDGE('',*,*,#512,.T.);
#629=ORIENTED_EDGE('',*,*,#513,.T.);
#630=ORIENTED_EDGE('',*,*,#514,.T.);
#631=ORIENTED_EDGE('',*,*,#515,.F.);
#632=ORIENTED_EDGE('',*,*,#516,.F.);
#633=ORIENTED_EDGE('',*,*,#517,.F.);
#634=ORIENTED_EDGE('',*,*,#501,.T.);
#635=ORIENTED_EDGE('',*,*,#518,.F.);
#636=ORIENTED_EDGE('',*,*,#463,.T.);
#637=ORIENTED_EDGE('',*,*,#464,.T.);
#638=ORIENTED_EDGE('',*,*,#518,.T.);
#639=ORIENTED_EDGE('',*,*,#500,.T.);
#640=ORIENTED_EDGE('',*,*,#519,.T.);
#641=ORIENTED_EDGE('',*,*,#502,.T.);
#642=ORIENTED_EDGE('',*,*,#517,.T.);
#643=ORIENTED_EDGE('',*,*,#462,.T.);
#644=ORIENTED_EDGE('',*,*,#520,.T.);
#645=ORIENTED_EDGE('',*,*,#470,.T.);
#646=ORIENTED_EDGE('',*,*,#521,.T.);
#647=ORIENTED_EDGE('',*,*,#508,.F.);
#648=ORIENTED_EDGE('',*,*,#521,.F.);
#649=ORIENTED_EDGE('',*,*,#469,.T.);
#650=ORIENTED_EDGE('',*,*,#522,.T.);
#651=ORIENTED_EDGE('',*,*,#507,.F.);
#652=ORIENTED_EDGE('',*,*,#522,.F.);
#653=ORIENTED_EDGE('',*,*,#499,.T.);
#654=ORIENTED_EDGE('',*,*,#523,.F.);
#655=ORIENTED_EDGE('',*,*,#439,.F.);
#656=ORIENTED_EDGE('',*,*,#519,.F.);
#657=ORIENTED_EDGE('',*,*,#511,.T.);
#658=ORIENTED_EDGE('',*,*,#524,.T.);
#659=ORIENTED_EDGE('',*,*,#476,.F.);
#660=ORIENTED_EDGE('',*,*,#524,.F.);
#661=ORIENTED_EDGE('',*,*,#510,.T.);
#662=ORIENTED_EDGE('',*,*,#525,.T.);
#663=ORIENTED_EDGE('',*,*,#477,.F.);
#664=ORIENTED_EDGE('',*,*,#525,.F.);
#665=ORIENTED_EDGE('',*,*,#509,.T.);
#666=ORIENTED_EDGE('',*,*,#526,.T.);
#667=ORIENTED_EDGE('',*,*,#478,.F.);
#668=ORIENTED_EDGE('',*,*,#526,.F.);
#669=ORIENTED_EDGE('',*,*,#496,.T.);
#670=ORIENTED_EDGE('',*,*,#527,.T.);
#671=ORIENTED_EDGE('',*,*,#442,.T.);
#672=ORIENTED_EDGE('',*,*,#528,.T.);
#673=ORIENTED_EDGE('',*,*,#444,.T.);
#674=ORIENTED_EDGE('',*,*,#529,.T.);
#675=ORIENTED_EDGE('',*,*,#494,.T.);
#676=ORIENTED_EDGE('',*,*,#530,.T.);
#677=ORIENTED_EDGE('',*,*,#445,.T.);
#678=ORIENTED_EDGE('',*,*,#530,.F.);
#679=ORIENTED_EDGE('',*,*,#493,.F.);
#680=ORIENTED_EDGE('',*,*,#531,.F.);
#681=ORIENTED_EDGE('',*,*,#527,.F.);
#682=ORIENTED_EDGE('',*,*,#495,.T.);
#683=ORIENTED_EDGE('',*,*,#529,.F.);
#684=ORIENTED_EDGE('',*,*,#443,.T.);
#685=ORIENTED_EDGE('',*,*,#497,.T.);
#686=ORIENTED_EDGE('',*,*,#528,.F.);
#687=ORIENTED_EDGE('',*,*,#441,.F.);
#688=ORIENTED_EDGE('',*,*,#532,.F.);
#689=ORIENTED_EDGE('',*,*,#498,.T.);
#690=ORIENTED_EDGE('',*,*,#532,.T.);
#691=ORIENTED_EDGE('',*,*,#440,.T.);
#692=ORIENTED_EDGE('',*,*,#523,.T.);
#693=ORIENTED_EDGE('',*,*,#460,.T.);
#694=ORIENTED_EDGE('',*,*,#533,.T.);
#695=ORIENTED_EDGE('',*,*,#480,.T.);
#696=ORIENTED_EDGE('',*,*,#534,.T.);
#697=ORIENTED_EDGE('',*,*,#452,.T.);
#698=ORIENTED_EDGE('',*,*,#535,.T.);
#699=ORIENTED_EDGE('',*,*,#486,.T.);
#700=ORIENTED_EDGE('',*,*,#536,.T.);
#701=ORIENTED_EDGE('',*,*,#446,.T.);
#702=ORIENTED_EDGE('',*,*,#531,.T.);
#703=ORIENTED_EDGE('',*,*,#492,.T.);
#704=ORIENTED_EDGE('',*,*,#537,.T.);
#705=ORIENTED_EDGE('',*,*,#538,.F.);
#706=ORIENTED_EDGE('',*,*,#467,.T.);
#707=ORIENTED_EDGE('',*,*,#539,.F.);
#708=ORIENTED_EDGE('',*,*,#505,.T.);
#709=ORIENTED_EDGE('',*,*,#540,.F.);
#710=ORIENTED_EDGE('',*,*,#468,.F.);
#711=ORIENTED_EDGE('',*,*,#538,.T.);
#712=ORIENTED_EDGE('',*,*,#504,.F.);
#713=ORIENTED_EDGE('',*,*,#541,.F.);
#714=ORIENTED_EDGE('',*,*,#506,.T.);
#715=ORIENTED_EDGE('',*,*,#539,.T.);
#716=ORIENTED_EDGE('',*,*,#466,.T.);
#717=ORIENTED_EDGE('',*,*,#540,.T.);
#718=ORIENTED_EDGE('',*,*,#503,.F.);
#719=ORIENTED_EDGE('',*,*,#541,.T.);
#720=ORIENTED_EDGE('',*,*,#465,.F.);
#721=ORIENTED_EDGE('',*,*,#461,.F.);
#722=ORIENTED_EDGE('',*,*,#534,.F.);
#723=ORIENTED_EDGE('',*,*,#479,.T.);
#724=ORIENTED_EDGE('',*,*,#520,.F.);
#725=ORIENTED_EDGE('',*,*,#447,.F.);
#726=ORIENTED_EDGE('',*,*,#537,.F.);
#727=ORIENTED_EDGE('',*,*,#491,.F.);
#728=ORIENTED_EDGE('',*,*,#542,.F.);
#729=ORIENTED_EDGE('',*,*,#487,.T.);
#730=ORIENTED_EDGE('',*,*,#535,.F.);
#731=ORIENTED_EDGE('',*,*,#451,.T.);
#732=ORIENTED_EDGE('',*,*,#543,.F.);
#733=ORIENTED_EDGE('',*,*,#474,.T.);
#734=ORIENTED_EDGE('',*,*,#544,.T.);
#735=ORIENTED_EDGE('',*,*,#512,.F.);
#736=ORIENTED_EDGE('',*,*,#544,.F.);
#737=ORIENTED_EDGE('',*,*,#473,.T.);
#738=ORIENTED_EDGE('',*,*,#545,.T.);
#739=ORIENTED_EDGE('',*,*,#513,.F.);
#740=ORIENTED_EDGE('',*,*,#545,.F.);
#741=ORIENTED_EDGE('',*,*,#475,.T.);
#742=ORIENTED_EDGE('',*,*,#546,.T.);
#743=ORIENTED_EDGE('',*,*,#514,.F.);
#744=ORIENTED_EDGE('',*,*,#546,.F.);
#745=ORIENTED_EDGE('',*,*,#490,.T.);
#746=ORIENTED_EDGE('',*,*,#547,.T.);
#747=ORIENTED_EDGE('',*,*,#448,.T.);
#748=ORIENTED_EDGE('',*,*,#542,.T.);
#749=ORIENTED_EDGE('',*,*,#450,.T.);
#750=ORIENTED_EDGE('',*,*,#548,.T.);
#751=ORIENTED_EDGE('',*,*,#488,.T.);
#752=ORIENTED_EDGE('',*,*,#543,.T.);
#753=ORIENTED_EDGE('',*,*,#547,.F.);
#754=ORIENTED_EDGE('',*,*,#489,.T.);
#755=ORIENTED_EDGE('',*,*,#548,.F.);
#756=ORIENTED_EDGE('',*,*,#449,.T.);
#757=ORIENTED_EDGE('',*,*,#459,.T.);
#758=ORIENTED_EDGE('',*,*,#549,.F.);
#759=ORIENTED_EDGE('',*,*,#481,.T.);
#760=ORIENTED_EDGE('',*,*,#533,.F.);
#761=ORIENTED_EDGE('',*,*,#485,.F.);
#762=ORIENTED_EDGE('',*,*,#550,.F.);
#763=ORIENTED_EDGE('',*,*,#455,.F.);
#764=ORIENTED_EDGE('',*,*,#454,.F.);
#765=ORIENTED_EDGE('',*,*,#453,.F.);
#766=ORIENTED_EDGE('',*,*,#536,.F.);
#767=ORIENTED_EDGE('',*,*,#551,.F.);
#768=ORIENTED_EDGE('',*,*,#483,.F.);
#769=ORIENTED_EDGE('',*,*,#552,.F.);
#770=ORIENTED_EDGE('',*,*,#457,.T.);
#771=ORIENTED_EDGE('',*,*,#482,.T.);
#772=ORIENTED_EDGE('',*,*,#549,.T.);
#773=ORIENTED_EDGE('',*,*,#458,.T.);
#774=ORIENTED_EDGE('',*,*,#552,.T.);
#775=ORIENTED_EDGE('',*,*,#484,.T.);
#776=ORIENTED_EDGE('',*,*,#551,.T.);
#777=ORIENTED_EDGE('',*,*,#456,.T.);
#778=ORIENTED_EDGE('',*,*,#550,.T.);
#779=ORIENTED_EDGE('',*,*,#516,.T.);
#780=ORIENTED_EDGE('',*,*,#553,.T.);
#781=ORIENTED_EDGE('',*,*,#471,.F.);
#782=ORIENTED_EDGE('',*,*,#553,.F.);
#783=ORIENTED_EDGE('',*,*,#515,.T.);
#784=ORIENTED_EDGE('',*,*,#554,.T.);
#785=ORIENTED_EDGE('',*,*,#472,.F.);
#786=ORIENTED_EDGE('',*,*,#554,.F.);
#787=PLANE('',#871);
#788=PLANE('',#882);
#789=PLANE('',#893);
#790=PLANE('',#894);
#791=PLANE('',#895);
#792=PLANE('',#898);
#793=PLANE('',#902);
#794=PLANE('',#903);
#795=PLANE('',#904);
#796=PLANE('',#905);
#797=PLANE('',#906);
#798=PLANE('',#907);
#799=PLANE('',#908);
#800=PLANE('',#909);
#801=PLANE('',#910);
#802=PLANE('',#911);
#803=PLANE('',#912);
#804=PLANE('',#913);
#805=PLANE('',#914);
#806=PLANE('',#915);
#807=PLANE('',#916);
#808=PLANE('',#917);
#809=PLANE('',#921);
#810=PLANE('',#922);
#811=PLANE('',#923);
#812=PLANE('',#924);
#813=PLANE('',#925);
#814=PLANE('',#926);
#815=PLANE('',#927);
#816=PLANE('',#928);
#817=ADVANCED_FACE('',(#67,#45,#46,#47,#48,#49,#50,#51,#52,#53,#54,#55),
#787,.T.);
#818=ADVANCED_FACE('',(#68,#56,#57,#58,#59,#60,#61,#62,#63,#64,#65,#66),
#788,.F.);
#819=ADVANCED_FACE('',(#69),#789,.T.);
#820=ADVANCED_FACE('',(#70),#790,.T.);
#821=ADVANCED_FACE('',(#71),#791,.T.);
#822=ADVANCED_FACE('',(#72),#15,.F.);
#823=ADVANCED_FACE('',(#73),#16,.F.);
#824=ADVANCED_FACE('',(#74),#792,.T.);
#825=ADVANCED_FACE('',(#75),#17,.F.);
#826=ADVANCED_FACE('',(#76),#18,.F.);
#827=ADVANCED_FACE('',(#77),#19,.F.);
#828=ADVANCED_FACE('',(#78),#793,.T.);
#829=ADVANCED_FACE('',(#79),#794,.T.);
#830=ADVANCED_FACE('',(#80),#795,.T.);
#831=ADVANCED_FACE('',(#81),#796,.T.);
#832=ADVANCED_FACE('',(#82),#797,.T.);
#833=ADVANCED_FACE('',(#83),#798,.T.);
#834=ADVANCED_FACE('',(#84),#799,.T.);
#835=ADVANCED_FACE('',(#85),#800,.T.);
#836=ADVANCED_FACE('',(#86),#801,.T.);
#837=ADVANCED_FACE('',(#87),#802,.F.);
#838=ADVANCED_FACE('',(#88),#803,.F.);
#839=ADVANCED_FACE('',(#89),#804,.F.);
#840=ADVANCED_FACE('',(#90),#805,.F.);
#841=ADVANCED_FACE('',(#91),#806,.T.);
#842=ADVANCED_FACE('',(#92),#807,.T.);
#843=ADVANCED_FACE('',(#93),#808,.T.);
#844=ADVANCED_FACE('',(#94),#20,.F.);
#845=ADVANCED_FACE('',(#95),#21,.F.);
#846=ADVANCED_FACE('',(#96),#22,.F.);
#847=ADVANCED_FACE('',(#97),#809,.T.);
#848=ADVANCED_FACE('',(#98),#810,.T.);
#849=ADVANCED_FACE('',(#99),#811,.T.);
#850=ADVANCED_FACE('',(#100),#812,.T.);
#851=ADVANCED_FACE('',(#101),#813,.F.);
#852=ADVANCED_FACE('',(#102),#814,.T.);
#853=ADVANCED_FACE('',(#103),#815,.T.);
#854=ADVANCED_FACE('',(#104),#816,.T.);
#855=ADVANCED_FACE('',(#105),#23,.F.);
#856=ADVANCED_FACE('',(#106),#24,.F.);
#857=CLOSED_SHELL('',(#817,#818,#819,#820,#821,#822,#823,#824,#825,#826,
#827,#828,#829,#830,#831,#832,#833,#834,#835,#836,#837,#838,#839,#840,#841,
#842,#843,#844,#845,#846,#847,#848,#849,#850,#851,#852,#853,#854,#855,#856));
#858=DERIVED_UNIT_ELEMENT(#860,1.);
#859=DERIVED_UNIT_ELEMENT(#1389,-3.);
#860=(
MASS_UNIT()
NAMED_UNIT(*)
SI_UNIT(.KILO.,.GRAM.)
);
#861=DERIVED_UNIT((#858,#859));
#862=MEASURE_REPRESENTATION_ITEM('density measure',
POSITIVE_RATIO_MEASURE(7850.),#861);
#863=PROPERTY_DEFINITION_REPRESENTATION(#868,#865);
#864=PROPERTY_DEFINITION_REPRESENTATION(#869,#866);
#865=REPRESENTATION('material name',(#867),#1386);
#866=REPRESENTATION('density',(#862),#1386);
#867=DESCRIPTIVE_REPRESENTATION_ITEM('Steel','Steel');
#868=PROPERTY_DEFINITION('material property','material name',#1396);
#869=PROPERTY_DEFINITION('material property','density of part',#1396);
#870=AXIS2_PLACEMENT_3D('',#1149,#931,#932);
#871=AXIS2_PLACEMENT_3D('',#1150,#933,#934);
#872=AXIS2_PLACEMENT_3D('',#1212,#965,#966);
#873=AXIS2_PLACEMENT_3D('',#1214,#967,#968);
#874=AXIS2_PLACEMENT_3D('',#1216,#969,#970);
#875=AXIS2_PLACEMENT_3D('',#1218,#971,#972);
#876=AXIS2_PLACEMENT_3D('',#1220,#973,#974);
#877=AXIS2_PLACEMENT_3D('',#1222,#975,#976);
#878=AXIS2_PLACEMENT_3D('',#1224,#977,#978);
#879=AXIS2_PLACEMENT_3D('',#1226,#979,#980);
#880=AXIS2_PLACEMENT_3D('',#1228,#981,#982);
#881=AXIS2_PLACEMENT_3D('',#1230,#983,#984);
#882=AXIS2_PLACEMENT_3D('',#1231,#985,#986);
#883=AXIS2_PLACEMENT_3D('',#1289,#1015,#1016);
#884=AXIS2_PLACEMENT_3D('',#1291,#1017,#1018);
#885=AXIS2_PLACEMENT_3D('',#1293,#1019,#1020);
#886=AXIS2_PLACEMENT_3D('',#1295,#1021,#1022);
#887=AXIS2_PLACEMENT_3D('',#1297,#1023,#1024);
#888=AXIS2_PLACEMENT_3D('',#1299,#1025,#1026);
#889=AXIS2_PLACEMENT_3D('',#1301,#1027,#1028);
#890=AXIS2_PLACEMENT_3D('',#1303,#1029,#1030);
#891=AXIS2_PLACEMENT_3D('',#1305,#1031,#1032);
#892=AXIS2_PLACEMENT_3D('',#1307,#1033,#1034);
#893=AXIS2_PLACEMENT_3D('',#1308,#1035,#1036);
#894=AXIS2_PLACEMENT_3D('',#1311,#1039,#1040);
#895=AXIS2_PLACEMENT_3D('',#1313,#1042,#1043);
#896=AXIS2_PLACEMENT_3D('',#1315,#1045,#1046);
#897=AXIS2_PLACEMENT_3D('',#1317,#1048,#1049);
#898=AXIS2_PLACEMENT_3D('',#1319,#1051,#1052);
#899=AXIS2_PLACEMENT_3D('',#1321,#1054,#1055);
#900=AXIS2_PLACEMENT_3D('',#1323,#1057,#1058);
#901=AXIS2_PLACEMENT_3D('',#1325,#1060,#1061);
#902=AXIS2_PLACEMENT_3D('',#1327,#1063,#1064);
#903=AXIS2_PLACEMENT_3D('',#1330,#1067,#1068);
#904=AXIS2_PLACEMENT_3D('',#1333,#1071,#1072);
#905=AXIS2_PLACEMENT_3D('',#1335,#1074,#1075);
#906=AXIS2_PLACEMENT_3D('',#1336,#1076,#1077);
#907=AXIS2_PLACEMENT_3D('',#1338,#1079,#1080);
#908=AXIS2_PLACEMENT_3D('',#1339,#1081,#1082);
#909=AXIS2_PLACEMENT_3D('',#1342,#1085,#1086);
#910=AXIS2_PLACEMENT_3D('',#1345,#1089,#1090);
#911=AXIS2_PLACEMENT_3D('',#1347,#1092,#1093);
#912=AXIS2_PLACEMENT_3D('',#1350,#1096,#1097);
#913=AXIS2_PLACEMENT_3D('',#1352,#1099,#1100);
#914=AXIS2_PLACEMENT_3D('',#1354,#1102,#1103);
#915=AXIS2_PLACEMENT_3D('',#1355,#1104,#1105);
#916=AXIS2_PLACEMENT_3D('',#1356,#1106,#1107);
#917=AXIS2_PLACEMENT_3D('',#1358,#1109,#1110);
#918=AXIS2_PLACEMENT_3D('',#1360,#1112,#1113);
#919=AXIS2_PLACEMENT_3D('',#1362,#1115,#1116);
#920=AXIS2_PLACEMENT_3D('',#1364,#1118,#1119);
#921=AXIS2_PLACEMENT_3D('',#1366,#1121,#1122);
#922=AXIS2_PLACEMENT_3D('',#1368,#1124,#1125);
#923=AXIS2_PLACEMENT_3D('',#1370,#1127,#1128);
#924=AXIS2_PLACEMENT_3D('',#1371,#1129,#1130);
#925=AXIS2_PLACEMENT_3D('',#1373,#1132,#1133);
#926=AXIS2_PLACEMENT_3D('',#1375,#1135,#1136);
#927=AXIS2_PLACEMENT_3D('',#1378,#1139,#1140);
#928=AXIS2_PLACEMENT_3D('',#1379,#1141,#1142);
#929=AXIS2_PLACEMENT_3D('',#1380,#1143,#1144);
#930=AXIS2_PLACEMENT_3D('',#1382,#1146,#1147);
#931=DIRECTION('axis',(0.,0.,1.));
#932=DIRECTION('refdir',(1.,0.,0.));
#933=DIRECTION('center_axis',(0.,-1.,0.));
#934=DIRECTION('ref_axis',(0.,0.,1.));
#935=DIRECTION('',(0.,0.,-1.));
#936=DIRECTION('',(0.707106781186563,0.,0.707106781186532));
#937=DIRECTION('',(-1.,0.,0.));
#938=DIRECTION('',(0.707106781186541,0.,0.707106781186554));
#939=DIRECTION('',(0.,0.,1.));
#940=DIRECTION('',(-0.707106781186548,0.,0.707106781186548));
#941=DIRECTION('',(-1.,0.,0.));
#942=DIRECTION('',(-0.707106932120983,0.,0.70710663025208));
#943=DIRECTION('',(0.,0.,-1.));
#944=DIRECTION('',(-0.707106781186548,0.,0.707106781186548));
#945=DIRECTION('',(-1.,0.,0.));
#946=DIRECTION('',(-0.707106781186549,0.,-0.707106781186546));
#947=DIRECTION('',(0.,0.,-1.));
#948=DIRECTION('',(-0.707106781186548,0.,-0.707106781186547));
#949=DIRECTION('',(1.,0.,0.));
#950=DIRECTION('',(1.,0.,0.));
#951=DIRECTION('',(1.,0.,0.));
#952=DIRECTION('',(-0.707106781186549,0.,-0.707106781186546));
#953=DIRECTION('',(0.,0.,-1.));
#954=DIRECTION('',(0.707106781186542,0.,-0.707106781186553));
#955=DIRECTION('',(1.,0.,0.));
#956=DIRECTION('',(0.707106781186548,0.,-0.707106781186548));
#957=DIRECTION('',(0.,0.,1.));
#958=DIRECTION('',(0.707106781186543,0.,-0.707106781186552));
#959=DIRECTION('',(1.,0.,0.));
#960=DIRECTION('',(0.707106781186544,0.,0.707106781186551));
#961=DIRECTION('',(-1.,0.,0.));
#962=DIRECTION('',(0.,0.,-1.));
#963=DIRECTION('',(-1.,0.,0.));
#964=DIRECTION('',(0.,0.,-1.));
#965=DIRECTION('center_axis',(0.,-1.,0.));
#966=DIRECTION('ref_axis',(1.,0.,0.));
#967=DIRECTION('center_axis',(0.,-1.,0.));
#968=DIRECTION('ref_axis',(1.,0.,0.));
#969=DIRECTION('center_axis',(0.,1.,0.));
#970=DIRECTION('ref_axis',(-1.,0.,0.));
#971=DIRECTION('center_axis',(0.,1.,0.));
#972=DIRECTION('ref_axis',(-1.,0.,0.));
#973=DIRECTION('center_axis',(0.,-1.,0.));
#974=DIRECTION('ref_axis',(1.,0.,0.));
#975=DIRECTION('center_axis',(0.,-1.,0.));
#976=DIRECTION('ref_axis',(1.,0.,0.));
#977=DIRECTION('center_axis',(0.,-1.,0.));
#978=DIRECTION('ref_axis',(1.,0.,0.));
#979=DIRECTION('center_axis',(0.,1.,0.));
#980=DIRECTION('ref_axis',(-1.,0.,0.));
#981=DIRECTION('center_axis',(0.,1.,0.));
#982=DIRECTION('ref_axis',(-1.,0.,0.));
#983=DIRECTION('center_axis',(0.,1.,0.));
#984=DIRECTION('ref_axis',(-1.,0.,0.));
#985=DIRECTION('center_axis',(0.,-1.,0.));
#986=DIRECTION('ref_axis',(0.,0.,-1.));
#987=DIRECTION('',(0.,0.,1.));
#988=DIRECTION('',(-0.707106781186548,0.,0.707106781186548));
#989=DIRECTION('',(-1.,0.,0.));
#990=DIRECTION('',(-0.707106781186542,0.,0.707106781186553));
#991=DIRECTION('',(0.,0.,-1.));
#992=DIRECTION('',(0.707106781186549,0.,0.707106781186546));
#993=DIRECTION('',(-1.,0.,0.));
#994=DIRECTION('',(0.707106781186548,0.,0.707106781186547));
#995=DIRECTION('',(0.,0.,1.));
#996=DIRECTION('',(0.707106781186549,0.,0.707106781186546));
#997=DIRECTION('',(1.,0.,0.));
#998=DIRECTION('',(0.707106781186548,0.,-0.707106781186548));
#999=DIRECTION('',(0.,0.,1.));
#1000=DIRECTION('',(0.707106932120983,0.,-0.70710663025208));
#1001=DIRECTION('',(-1.,0.,0.));
#1002=DIRECTION('',(0.707106781186548,0.,-0.707106781186548));
#1003=DIRECTION('',(0.,0.,-1.));
#1004=DIRECTION('',(-0.707106781186541,0.,-0.707106781186554));
#1005=DIRECTION('',(-1.,0.,0.));
#1006=DIRECTION('',(-0.707106781186563,0.,-0.707106781186532));
#1007=DIRECTION('',(0.,0.,-1.));
#1008=DIRECTION('',(-0.707106781186544,0.,-0.707106781186551));
#1009=DIRECTION('',(-1.,0.,0.));
#1010=DIRECTION('',(-0.707106781186543,0.,0.707106781186552));
#1011=DIRECTION('',(1.,0.,0.));
#1012=DIRECTION('',(0.,0.,1.));
#1013=DIRECTION('',(1.,0.,0.));
#1014=DIRECTION('',(0.,0.,1.));
#1015=DIRECTION('center_axis',(0.,-1.,0.));
#1016=DIRECTION('ref_axis',(1.,0.,0.));
#1017=DIRECTION('center_axis',(0.,-1.,0.));
#1018=DIRECTION('ref_axis',(1.,0.,0.));
#1019=DIRECTION('center_axis',(0.,1.,0.));
#1020=DIRECTION('ref_axis',(-1.,0.,0.));
#1021=DIRECTION('center_axis',(0.,1.,0.));
#1022=DIRECTION('ref_axis',(-1.,0.,0.));
#1023=DIRECTION('center_axis',(0.,1.,0.));
#1024=DIRECTION('ref_axis',(-1.,0.,0.));
#1025=DIRECTION('center_axis',(0.,-1.,0.));
#1026=DIRECTION('ref_axis',(1.,0.,0.));
#1027=DIRECTION('center_axis',(0.,-1.,0.));
#1028=DIRECTION('ref_axis',(1.,0.,0.));
#1029=DIRECTION('center_axis',(0.,-1.,0.));
#1030=DIRECTION('ref_axis',(1.,0.,0.));
#1031=DIRECTION('center_axis',(0.,1.,0.));
#1032=DIRECTION('ref_axis',(-1.,0.,0.));
#1033=DIRECTION('center_axis',(0.,1.,0.));
#1034=DIRECTION('ref_axis',(-1.,0.,0.));
#1035=DIRECTION('center_axis',(0.,0.,1.));
#1036=DIRECTION('ref_axis',(1.,0.,0.));
#1037=DIRECTION('',(-8.31627733801615E-17,-1.,0.));
#1038=DIRECTION('',(-3.32651093520647E-16,1.,0.));
#1039=DIRECTION('center_axis',(-0.707106781186551,-2.35219843997571E-16,
0.707106781186544));
#1040=DIRECTION('ref_axis',(0.707106781186544,0.,0.707106781186551));
#1041=DIRECTION('',(3.32651093520647E-16,-1.,0.));
#1042=DIRECTION('center_axis',(0.707106781186552,-5.88049609993927E-17,
0.707106781186543));
#1043=DIRECTION('ref_axis',(0.707106781186543,0.,-0.707106781186552));
#1044=DIRECTION('',(8.31627733801615E-17,1.,0.));
#1045=DIRECTION('center_axis',(1.40413558916231E-9,1.,0.));
#1046=DIRECTION('ref_axis',(1.,-1.40413558916231E-9,0.));
#1047=DIRECTION('',(1.40413558916231E-9,1.,0.));
#1048=DIRECTION('center_axis',(1.40413558916231E-9,1.,0.));
#1049=DIRECTION('ref_axis',(1.,-1.40413558916231E-9,0.));
#1050=DIRECTION('',(1.40413558916231E-9,1.,0.));
#1051=DIRECTION('center_axis',(-1.,-3.32651093520647E-16,0.));
#1052=DIRECTION('ref_axis',(3.32651093520647E-16,-1.,0.));
#1053=DIRECTION('',(-3.32651093520647E-16,1.,0.));
#1054=DIRECTION('center_axis',(-1.40413558916231E-9,-1.,0.));
#1055=DIRECTION('ref_axis',(-1.,1.40413558916231E-9,0.));
#1056=DIRECTION('',(-1.40413558916231E-9,-1.,0.));
#1057=DIRECTION('center_axis',(-1.40413558916231E-9,-1.,0.));
#1058=DIRECTION('ref_axis',(-1.,1.40413558916231E-9,0.));
#1059=DIRECTION('',(-1.40413558916231E-9,-1.,0.));
#1060=DIRECTION('center_axis',(-1.40413558916231E-9,-1.,0.));
#1061=DIRECTION('ref_axis',(-1.,1.40413558916231E-9,0.));
#1062=DIRECTION('',(-1.40413558916231E-9,-1.,0.));
#1063=DIRECTION('center_axis',(-0.707106781186554,0.,0.707106781186541));
#1064=DIRECTION('ref_axis',(0.707106781186541,0.,0.707106781186554));
#1065=DIRECTION('',(0.,-1.,0.));
#1066=DIRECTION('',(0.,1.,0.));
#1067=DIRECTION('center_axis',(-0.707106781186548,0.,-0.707106781186548));
#1068=DIRECTION('ref_axis',(-0.707106781186548,0.,0.707106781186548));
#1069=DIRECTION('',(0.,1.,0.));
#1070=DIRECTION('',(0.,-1.,0.));
#1071=DIRECTION('center_axis',(0.,0.,-1.));
#1072=DIRECTION('ref_axis',(0.,-1.,0.));
#1073=DIRECTION('',(-3.32651093520647E-16,1.,0.));
#1074=DIRECTION('center_axis',(-1.,0.,0.));
#1075=DIRECTION('ref_axis',(0.,0.,1.));
#1076=DIRECTION('center_axis',(0.,0.,1.));
#1077=DIRECTION('ref_axis',(0.,1.,0.));
#1078=DIRECTION('',(3.32651093520647E-16,-1.,0.));
#1079=DIRECTION('center_axis',(-0.707106781186532,-2.35219843997565E-16,
0.707106781186563));
#1080=DIRECTION('ref_axis',(0.707106781186563,0.,0.707106781186532));
#1081=DIRECTION('center_axis',(0.707106781186548,-5.88049609993923E-17,
0.707106781186548));
#1082=DIRECTION('ref_axis',(0.707106781186548,0.,-0.707106781186548));
#1083=DIRECTION('',(8.31627733801615E-17,1.,0.));
#1084=DIRECTION('',(-8.31627733801615E-17,-1.,0.));
#1085=DIRECTION('center_axis',(0.707106781186547,-5.88049609993923E-17,
-0.707106781186548));
#1086=DIRECTION('ref_axis',(-0.707106781186548,0.,-0.707106781186547));
#1087=DIRECTION('',(8.31627733801615E-17,1.,0.));
#1088=DIRECTION('',(-8.31627733801615E-17,-1.,0.));
#1089=DIRECTION('center_axis',(-0.70710663025208,-2.35219793789054E-16,
-0.707106932120983));
#1090=DIRECTION('ref_axis',(-0.707106932120983,0.,0.70710663025208));
#1091=DIRECTION('',(3.32651093520647E-16,-1.,0.));
#1092=DIRECTION('center_axis',(0.,0.,1.));
#1093=DIRECTION('ref_axis',(1.,0.,0.));
#1094=DIRECTION('',(0.,1.,0.));
#1095=DIRECTION('',(0.,-1.,0.));
#1096=DIRECTION('center_axis',(1.,0.,0.));
#1097=DIRECTION('ref_axis',(0.,0.,-1.));
#1098=DIRECTION('',(0.,1.,0.));
#1099=DIRECTION('center_axis',(-1.,0.,0.));
#1100=DIRECTION('ref_axis',(0.,0.,1.));
#1101=DIRECTION('',(0.,-1.,0.));
#1102=DIRECTION('center_axis',(0.,0.,-1.));
#1103=DIRECTION('ref_axis',(-1.,0.,0.));
#1104=DIRECTION('center_axis',(1.,-8.31627733801615E-17,0.));
#1105=DIRECTION('ref_axis',(8.31627733801615E-17,1.,0.));
#1106=DIRECTION('center_axis',(-1.,-3.32651093520647E-16,0.));
#1107=DIRECTION('ref_axis',(3.32651093520647E-16,-1.,0.));
#1108=DIRECTION('',(-3.32651093520647E-16,1.,0.));
#1109=DIRECTION('center_axis',(1.,-8.31627733801615E-17,0.));
#1110=DIRECTION('ref_axis',(8.31627733801615E-17,1.,0.));
#1111=DIRECTION('',(-8.31627733801615E-17,-1.,0.));
#1112=DIRECTION('center_axis',(1.40413558916231E-9,1.,0.));
#1113=DIRECTION('ref_axis',(1.,-1.40413558916231E-9,0.));
#1114=DIRECTION('',(1.40413558916231E-9,1.,0.));
#1115=DIRECTION('center_axis',(1.40413558916231E-9,1.,0.));
#1116=DIRECTION('ref_axis',(1.,-1.40413558916231E-9,0.));
#1117=DIRECTION('',(1.40413558916231E-9,1.,0.));
#1118=DIRECTION('center_axis',(1.40413558916231E-9,1.,0.));
#1119=DIRECTION('ref_axis',(1.,-1.40413558916231E-9,0.));
#1120=DIRECTION('',(1.40413558916231E-9,1.,0.));
#1121=DIRECTION('center_axis',(-0.707106781186548,-2.3521984399757E-16,
-0.707106781186548));
#1122=DIRECTION('ref_axis',(-0.707106781186548,0.,0.707106781186548));
#1123=DIRECTION('',(3.32651093520647E-16,-1.,0.));
#1124=DIRECTION('center_axis',(0.707106781186546,-5.88049609993922E-17,
-0.707106781186549));
#1125=DIRECTION('ref_axis',(-0.707106781186549,0.,-0.707106781186546));
#1126=DIRECTION('',(8.31627733801615E-17,1.,0.));
#1127=DIRECTION('center_axis',(0.,0.,-1.));
#1128=DIRECTION('ref_axis',(-1.,0.,0.));
#1129=DIRECTION('center_axis',(0.,0.,1.));
#1130=DIRECTION('ref_axis',(1.,0.,0.));
#1131=DIRECTION('',(0.,-1.,0.));
#1132=DIRECTION('center_axis',(0.,0.,1.));
#1133=DIRECTION('ref_axis',(0.,-1.,0.));
#1134=DIRECTION('',(0.,1.,0.));
#1135=DIRECTION('center_axis',(1.,0.,0.));
#1136=DIRECTION('ref_axis',(0.,0.,-1.));
#1137=DIRECTION('',(0.,-1.,0.));
#1138=DIRECTION('',(0.,1.,0.));
#1139=DIRECTION('center_axis',(0.707106781186553,0.,0.707106781186542));
#1140=DIRECTION('ref_axis',(0.707106781186542,0.,-0.707106781186553));
#1141=DIRECTION('center_axis',(0.707106781186546,0.,-0.707106781186549));
#1142=DIRECTION('ref_axis',(-0.707106781186549,0.,-0.707106781186546));
#1143=DIRECTION('center_axis',(-1.40413563392937E-9,-1.,0.));
#1144=DIRECTION('ref_axis',(-1.,1.40413563392937E-9,0.));
#1145=DIRECTION('',(-1.40413563392937E-9,-1.,0.));
#1146=DIRECTION('center_axis',(-1.40413563392937E-9,-1.,0.));
#1147=DIRECTION('ref_axis',(-1.,1.40413563392937E-9,0.));
#1148=DIRECTION('',(-1.40413563392937E-9,-1.,0.));
#1149=CARTESIAN_POINT('',(0.,0.,0.));
#1150=CARTESIAN_POINT('Origin',(1.39999999999998,134.9,126.891729985377));
#1151=CARTESIAN_POINT('',(-44.94,134.9,194.481729985377));
#1152=CARTESIAN_POINT('',(-44.94,134.9,181.891729985377));
#1153=CARTESIAN_POINT('',(-44.94,134.9,160.436729985377));
#1154=CARTESIAN_POINT('',(-49.94,134.9,176.891729985377));
#1155=CARTESIAN_POINT('',(-48.8549999999995,134.9,177.976729985378));
#1156=CARTESIAN_POINT('',(-67.0999985560775,134.89999698475,176.891729985377));
#1157=CARTESIAN_POINT('',(-60.0999986790121,134.89999698475,176.891729985377));
#1158=CARTESIAN_POINT('',(-68.0999985560775,134.89999698475,175.891729985377));
#1159=CARTESIAN_POINT('',(-63.4749989170584,134.9,180.516729624396));
#1160=CARTESIAN_POINT('',(-68.0999985560775,134.89999698475,147.891729985377));
#1161=CARTESIAN_POINT('',(-68.0999985560775,134.89999698475,176.891729985377));
#1162=CARTESIAN_POINT('',(-67.0999985560775,134.89999698475,146.891729985377));
#1163=CARTESIAN_POINT('',(-45.9749989170581,134.9,125.766730346358));
#1164=CARTESIAN_POINT('',(-49.9400021345355,134.9,146.891729985377));
#1165=CARTESIAN_POINT('',(-33.5999992780388,134.89999698475,146.891729985377));
#1166=CARTESIAN_POINT('',(-44.94,134.9,141.891729985378));
#1167=CARTESIAN_POINT('',(-31.3549958013689,134.9,128.30673158628));
#1168=CARTESIAN_POINT('',(-44.94,134.9,128.981729985377));
#1169=CARTESIAN_POINT('',(-44.94,134.9,131.481729985377));
#1170=CARTESIAN_POINT('',(-43.94,134.9,127.981729985377));
#1171=CARTESIAN_POINT('',(-32.8325,134.9,116.874229985377));
#1172=CARTESIAN_POINT('',(-15.94,134.9,127.981729985377));
#1173=CARTESIAN_POINT('',(-16.55,134.9,127.981729985377));
#1174=CARTESIAN_POINT('',(-14.94,134.8999969523,128.981729985377));
#1175=CARTESIAN_POINT('',(-12.3774999999999,134.9,131.544229985377));
#1176=CARTESIAN_POINT('',(-14.94,134.9,141.89174162591));
#1177=CARTESIAN_POINT('',(-14.94,134.8999969523,132.481729985377));
#1178=CARTESIAN_POINT('',(-9.93999999999998,134.9,146.89174162591));
#1179=CARTESIAN_POINT('',(-13.8550029101333,134.9,142.976738715777));
#1180=CARTESIAN_POINT('',(-5.10000000000002,134.8999969523,146.89174162591));
#1181=CARTESIAN_POINT('',(-7.77,134.9,146.89174162591));
#1182=CARTESIAN_POINT('',(3.89999999999998,134.8999969523,146.891729985377));
#1183=CARTESIAN_POINT('',(-4.77,134.8999969523,146.891729985377));
#1184=CARTESIAN_POINT('',(4.89999999999998,134.9,146.89174162591));
#1185=CARTESIAN_POINT('',(-4.77,134.9,146.89174162591));
#1186=CARTESIAN_POINT('',(5.89999993517995,134.9,147.89174162591));
#1187=CARTESIAN_POINT('',(-0.475002910133308,134.9,141.516738715777));
#1188=CARTESIAN_POINT('',(5.89999993517995,134.9,175.891729985377));
#1189=CARTESIAN_POINT('',(5.89999993517995,134.9,176.891729985377));
#1190=CARTESIAN_POINT('',(4.89999999999998,134.9,176.891729985377));
#1191=CARTESIAN_POINT('',(17.0249999999999,134.9,164.766729985377));
#1192=CARTESIAN_POINT('',(-9.93999999999998,134.9,176.891729985377));
#1193=CARTESIAN_POINT('',(0.563683979388881,134.9,176.891729985377));
#1194=CARTESIAN_POINT('',(-14.94,134.9,181.891729985377));
#1195=CARTESIAN_POINT('',(3.64499999999996,134.9,163.306729985377));
#1196=CARTESIAN_POINT('',(-14.94,134.9,194.481729985377));
#1197=CARTESIAN_POINT('',(-14.94,134.9,191.481729985377));
#1198=CARTESIAN_POINT('',(-15.94,134.9,195.481729985377));
#1199=CARTESIAN_POINT('',(4.54249999999992,134.9,174.999229985377));
#1200=CARTESIAN_POINT('',(-43.94,134.9,195.481729985377));
#1201=CARTESIAN_POINT('',(-14.94,134.9,195.481729985377));
#1202=CARTESIAN_POINT('',(-49.7525000000001,134.9,189.669229985377));
#1203=CARTESIAN_POINT('',(-38.5,134.9,154.721843070629));
#1204=CARTESIAN_POINT('',(-55.1000000000001,134.9,154.721843070629));
#1205=CARTESIAN_POINT('',(-18.55,134.9,154.721843070629));
#1206=CARTESIAN_POINT('',(-55.1000000000001,134.9,165.30000230968));
#1207=CARTESIAN_POINT('',(-55.1000000000001,134.9,140.806786528003));
#1208=CARTESIAN_POINT('',(-38.5,134.9,165.30000230968));
#1209=CARTESIAN_POINT('',(-26.85,134.9,165.30000230968));
#1210=CARTESIAN_POINT('',(-38.5,134.9,146.095866147529));
#1211=CARTESIAN_POINT('',(-41.99,134.9,191.481729985377));
#1212=CARTESIAN_POINT('Origin',(-39.94,134.9,191.481729985377));
#1213=CARTESIAN_POINT('',(-21.99,134.9,191.481729985377));
#1214=CARTESIAN_POINT('Origin',(-19.94,134.9,191.481729985377));
#1215=CARTESIAN_POINT('',(3.94999999283889,134.9,151.891735805644));
#1216=CARTESIAN_POINT('Origin',(1.89999999283889,134.9,151.891735805644));
#1217=CARTESIAN_POINT('',(3.9499999928389,134.9,171.891729985377));
#1218=CARTESIAN_POINT('Origin',(1.89999999283889,134.9,171.891729985377));
#1219=CARTESIAN_POINT('',(-31.99,134.9,131.981729985377));
#1220=CARTESIAN_POINT('Origin',(-29.94,134.9,131.981729985377));
#1221=CARTESIAN_POINT('',(-41.99,134.9,131.981729985377));
#1222=CARTESIAN_POINT('Origin',(-39.94,134.9,131.981729985377));
#1223=CARTESIAN_POINT('',(-21.99,134.9,131.981729985377));
#1224=CARTESIAN_POINT('Origin',(-19.94,134.9,131.981729985377));
#1225=CARTESIAN_POINT('',(-62.0500000071611,134.9,161.891729985377));
#1226=CARTESIAN_POINT('Origin',(-64.1000000071611,134.9,161.891729985377));
#1227=CARTESIAN_POINT('',(-62.0500000071611,134.9,171.891724165111));
#1228=CARTESIAN_POINT('Origin',(-64.1000000071611,134.9,171.891724165111));
#1229=CARTESIAN_POINT('',(-62.050000007161,134.9,151.891729985377));
#1230=CARTESIAN_POINT('Origin',(-64.1000000071611,134.9,151.891729985377));
#1231=CARTESIAN_POINT('Origin',(1.39999999999998,140.000002533197,195.000002756715));
#1232=CARTESIAN_POINT('',(-14.94,140.000002533197,181.891729985377));
#1233=CARTESIAN_POINT('',(-14.94,140.000002533197,194.481729985377));
#1234=CARTESIAN_POINT('',(-14.94,140.000002533197,184.231729985377));
#1235=CARTESIAN_POINT('',(-9.93999999999997,140.000002533197,176.891729985377));
#1236=CARTESIAN_POINT('',(-13.3820681928345,140.000002533197,180.333798178211));
#1237=CARTESIAN_POINT('',(4.89999999999998,140.000002533197,176.891729985377));
#1238=CARTESIAN_POINT('',(-1.93631602061112,140.000002533197,176.891729985377));
#1239=CARTESIAN_POINT('',(5.89999999999998,140.000002086163,175.891729985377));
#1240=CARTESIAN_POINT('',(-0.00206819283449594,140.000002533197,181.793798178211));
#1241=CARTESIAN_POINT('',(5.89999999999998,140.000002086163,147.89174162591));
#1242=CARTESIAN_POINT('',(5.89999999999998,140.000002086163,147.000002041459));
#1243=CARTESIAN_POINT('',(4.89999999999998,140.000002533197,146.89174162591));
#1244=CARTESIAN_POINT('',(16.5520652827011,140.000002533197,158.543806908611));
#1245=CARTESIAN_POINT('',(-9.93999999999998,140.000002533197,146.89174162591));
#1246=CARTESIAN_POINT('',(-7.77,140.000002533197,146.89174162591));
#1247=CARTESIAN_POINT('',(-14.94,140.000002533197,141.89174162591));
#1248=CARTESIAN_POINT('',(3.17206528270116,140.000002533197,160.003806908611));
#1249=CARTESIAN_POINT('',(-14.94,140.000002086163,128.981729985377));
#1250=CARTESIAN_POINT('',(-14.94,140.000002086163,155.740865938912));
#1251=CARTESIAN_POINT('',(-15.94,140.000002086163,127.981729985377));
#1252=CARTESIAN_POINT('',(4.6495681928345,140.000002533197,148.571298178211));
#1253=CARTESIAN_POINT('',(-43.94,140.000002086163,127.981729985377));
#1254=CARTESIAN_POINT('',(-22.44,140.000002086163,127.981729985377));
#1255=CARTESIAN_POINT('',(-44.94,140.000002533197,128.981729985377));
#1256=CARTESIAN_POINT('',(-49.8595681928345,140.000002533197,133.901298178211));
#1257=CARTESIAN_POINT('',(-44.94,140.000002533197,141.891729985378));
#1258=CARTESIAN_POINT('',(-44.94,140.000002533197,163.740866371046));
#1259=CARTESIAN_POINT('',(-49.9400021345355,140.000002533197,146.891729985377));
#1260=CARTESIAN_POINT('',(-48.3820639942018,140.000002533197,145.333792510138));
#1261=CARTESIAN_POINT('',(-67.0999985560775,140.000002533197,146.891729985377));
#1262=CARTESIAN_POINT('',(-28.6850005336339,140.000002533197,146.891729985377));
#1263=CARTESIAN_POINT('',(-68.1,140.000002533197,147.891729985377));
#1264=CARTESIAN_POINT('',(-63.0020671098925,140.000002533197,142.793798539192));
#1265=CARTESIAN_POINT('',(-68.1,140.000002533197,175.891729985377));
#1266=CARTESIAN_POINT('',(-68.1,140.000002533197,177.97293456388));
#1267=CARTESIAN_POINT('',(-67.0999985560775,140.000002533197,176.891729985377));
#1268=CARTESIAN_POINT('',(-46.447930724224,140.000002533197,197.543797817231));
#1269=CARTESIAN_POINT('',(-49.94,140.000002533197,176.891729985377));
#1270=CARTESIAN_POINT('',(-30.5350002682209,140.000002533197,176.891729985377));
#1271=CARTESIAN_POINT('',(-44.94,140.000002533197,181.891729985377));
#1272=CARTESIAN_POINT('',(-31.827931807165,140.000002533197,195.003798178211));
#1273=CARTESIAN_POINT('',(-44.94,140.000002533197,194.481729985377));
#1274=CARTESIAN_POINT('',(-44.94,140.000002533197,181.731729985377));
#1275=CARTESIAN_POINT('',(-43.94,140.000002533197,195.481729985377));
#1276=CARTESIAN_POINT('',(-32.7254318071656,140.000002533197,206.696298178211));
#1277=CARTESIAN_POINT('',(-15.94,140.000002533197,195.481729985377));
#1278=CARTESIAN_POINT('',(-22.4400031332993,140.000002533197,195.481729985377));
#1279=CARTESIAN_POINT('',(-12.4845681928345,140.000002533197,192.026298178211));
#1280=CARTESIAN_POINT('',(-55.1000000000001,140.000002533197,154.721843070629));
#1281=CARTESIAN_POINT('',(-38.5,140.000002533197,154.721843070629));
#1282=CARTESIAN_POINT('',(-18.55,140.000002533197,154.721843070629));
#1283=CARTESIAN_POINT('',(-38.5,140.000002533197,165.30000230968));
#1284=CARTESIAN_POINT('',(-38.5,140.000002533197,180.150002533197));
#1285=CARTESIAN_POINT('',(-55.1000000000001,140.000002533197,165.30000230968));
#1286=CARTESIAN_POINT('',(-26.85,140.000002533197,165.30000230968));
#1287=CARTESIAN_POINT('',(-55.1000000000001,140.000002533197,174.860922913672));
#1288=CARTESIAN_POINT('',(-41.9899999928389,140.000002533197,191.481729985377));
#1289=CARTESIAN_POINT('Origin',(-39.9399999928389,140.000002533197,191.481729985377));
#1290=CARTESIAN_POINT('',(-21.9899999928389,140.000002533197,191.481729985377));
#1291=CARTESIAN_POINT('Origin',(-19.9399999928389,140.000002533197,191.481729985377));
#1292=CARTESIAN_POINT('',(-62.05,140.000002533197,151.891729985377));
#1293=CARTESIAN_POINT('Origin',(-64.1,140.000002533197,151.891729985377));
#1294=CARTESIAN_POINT('',(-62.05,140.000002533197,171.891724165111));
#1295=CARTESIAN_POINT('Origin',(-64.1,140.000002533197,171.891724165111));
#1296=CARTESIAN_POINT('',(-62.05,140.000002533197,161.891729985377));
#1297=CARTESIAN_POINT('Origin',(-64.1,140.000002533197,161.891729985377));
#1298=CARTESIAN_POINT('',(-41.9899999928389,140.000002533197,131.981729985377));
#1299=CARTESIAN_POINT('Origin',(-39.9399999928389,140.000002533197,131.981729985377));
#1300=CARTESIAN_POINT('',(-31.9899999928389,140.000002533197,131.981729985377));
#1301=CARTESIAN_POINT('Origin',(-29.9399999928389,140.000002533197,131.981729985377));
#1302=CARTESIAN_POINT('',(-21.9899999928389,140.000002533197,131.981729985377));
#1303=CARTESIAN_POINT('Origin',(-19.9399999928389,140.000002533197,131.981729985377));
#1304=CARTESIAN_POINT('',(3.94999999999999,140.000002533197,171.891729985377));
#1305=CARTESIAN_POINT('Origin',(1.89999999999998,140.000002533197,171.891729985377));
#1306=CARTESIAN_POINT('',(3.94999999999998,140.000002533197,151.891735805644));
#1307=CARTESIAN_POINT('Origin',(1.89999999999998,140.000002533197,151.891735805644));
#1308=CARTESIAN_POINT('Origin',(-29.9400062665987,142.4,195.481729985377));
#1309=CARTESIAN_POINT('',(-15.94,141.2,195.481729985377));
#1310=CARTESIAN_POINT('',(-43.94,154.55,195.481729985377));
#1311=CARTESIAN_POINT('Origin',(-44.44,154.55,194.981729985377));
#1312=CARTESIAN_POINT('',(-44.94,154.55,194.481729985377));
#1313=CARTESIAN_POINT('Origin',(-15.44,141.2,194.981729985377));
#1314=CARTESIAN_POINT('',(-14.94,141.2,194.481729985377));
#1315=CARTESIAN_POINT('Origin',(-19.94,134.900000037797,191.481729985377));
#1316=CARTESIAN_POINT('',(-21.99,134.900000040675,191.481729985377));
#1317=CARTESIAN_POINT('Origin',(-39.94,134.900000065879,191.481729985377));
#1318=CARTESIAN_POINT('',(-41.99,134.900000068758,191.481729985377));
#1319=CARTESIAN_POINT('Origin',(-44.94,166.7,178.981729985377));
#1320=CARTESIAN_POINT('',(-44.94,135.8,181.891729985377));
#1321=CARTESIAN_POINT('Origin',(-64.1,140.000002631596,161.891729985377));
#1322=CARTESIAN_POINT('',(-62.05,140.000002628718,161.891729985377));
#1323=CARTESIAN_POINT('Origin',(-64.1,140.000002631596,171.891724165111));
#1324=CARTESIAN_POINT('',(-62.05,140.000002628718,171.891724165111));
#1325=CARTESIAN_POINT('Origin',(-64.1,140.000002631596,151.891729985377));
#1326=CARTESIAN_POINT('',(-62.0499999999999,140.000002628718,151.891729985377));
#1327=CARTESIAN_POINT('Origin',(-67.5999985560775,128.675000633299,176.391729985377));
#1328=CARTESIAN_POINT('',(-68.0999985560775,128.675000633299,175.891729985377));
#1329=CARTESIAN_POINT('',(-67.0999985560775,128.675000633299,176.891729985377));
#1330=CARTESIAN_POINT('Origin',(-67.5999985560775,143.675000633299,147.391729985377));
#1331=CARTESIAN_POINT('',(-68.0999985560775,143.675000633299,147.891729985377));
#1332=CARTESIAN_POINT('',(-67.0999985560775,143.675000633299,146.891729985377));
#1333=CARTESIAN_POINT('Origin',(-1.60000000000002,134.9,146.891729985377));
#1334=CARTESIAN_POINT('',(-49.9400021345355,150.8,146.891729985377));
#1335=CARTESIAN_POINT('Origin',(-68.0999985560775,152.450001266599,160.945866371046));
#1336=CARTESIAN_POINT('Origin',(-1.60000000000002,104.9,176.891729985377));
#1337=CARTESIAN_POINT('',(-49.94,135.8,176.891729985377));
#1338=CARTESIAN_POINT('Origin',(-47.44,135.8,179.391729985377));
#1339=CARTESIAN_POINT('Origin',(-12.44,131.212847415883,179.391729985377));
#1340=CARTESIAN_POINT('',(-9.93999999999998,131.212847415883,176.891729985377));
#1341=CARTESIAN_POINT('',(-14.94,131.212847415883,181.891729985377));
#1342=CARTESIAN_POINT('Origin',(-12.44,153.35,144.39174162591));
#1343=CARTESIAN_POINT('',(-14.94,153.35,141.89174162591));
#1344=CARTESIAN_POINT('',(-9.93999999999997,153.35,146.89174162591));
#1345=CARTESIAN_POINT('Origin',(-47.4400010672677,150.8,144.391729985377));
#1346=CARTESIAN_POINT('',(-44.94,150.8,141.891729985378));
#1347=CARTESIAN_POINT('Origin',(-55.1000000000001,124.000001847744,165.30000230968));
#1348=CARTESIAN_POINT('',(-38.5,124.000001847744,165.30000230968));
#1349=CARTESIAN_POINT('',(-55.1000000000001,124.000001847744,165.30000230968));
#1350=CARTESIAN_POINT('Origin',(-38.5,124.000001847744,165.30000230968));
#1351=CARTESIAN_POINT('',(-38.5,124.000001847744,154.721843070629));
#1352=CARTESIAN_POINT('Origin',(-55.1000000000001,124.000001847744,154.721843070629));
#1353=CARTESIAN_POINT('',(-55.1000000000001,124.000001847744,154.721843070629));
#1354=CARTESIAN_POINT('Origin',(-38.5,124.000001847744,154.721843070629));
#1355=CARTESIAN_POINT('Origin',(-14.94,140.,178.981729985377));
#1356=CARTESIAN_POINT('Origin',(-44.94,166.7,178.981729985377));
#1357=CARTESIAN_POINT('',(-44.94,163.775,128.981729985377));
#1358=CARTESIAN_POINT('Origin',(-14.94,140.,178.981729985377));
#1359=CARTESIAN_POINT('',(-14.94,150.425,128.981729985377));
#1360=CARTESIAN_POINT('Origin',(-39.94,134.900000065879,131.981729985377));
#1361=CARTESIAN_POINT('',(-41.99,134.900000068758,131.981729985377));
#1362=CARTESIAN_POINT('Origin',(-29.94,134.900000051838,131.981729985377));
#1363=CARTESIAN_POINT('',(-31.99,134.900000054716,131.981729985377));
#1364=CARTESIAN_POINT('Origin',(-19.94,134.900000037797,131.981729985377));
#1365=CARTESIAN_POINT('',(-21.99,134.900000040675,131.981729985377));
#1366=CARTESIAN_POINT('Origin',(-44.44,163.775,128.481729985377));
#1367=CARTESIAN_POINT('',(-43.94,163.775,127.981729985377));
#1368=CARTESIAN_POINT('Origin',(-15.44,150.425,128.481729985377));
#1369=CARTESIAN_POINT('',(-15.94,150.425,127.981729985377));
#1370=CARTESIAN_POINT('Origin',(-29.94,160.85,127.981729985377));
#1371=CARTESIAN_POINT('Origin',(-1.27263204122221,122.425694831766,176.891729985377));
#1372=CARTESIAN_POINT('',(4.89999999999998,127.454731456065,176.891729985377));
#1373=CARTESIAN_POINT('Origin',(-11.94,166.7,146.89174162591));
#1374=CARTESIAN_POINT('',(4.89999999999998,149.591884040182,146.89174162591));
#1375=CARTESIAN_POINT('Origin',(5.89999999999998,132.483768080364,161.945866013418));
#1376=CARTESIAN_POINT('',(5.89999999999998,149.591884040182,147.89174162591));
#1377=CARTESIAN_POINT('',(5.89999999999998,127.454731456065,175.891729985377));
#1378=CARTESIAN_POINT('Origin',(5.39999999999998,127.454731456065,176.391729985377));
#1379=CARTESIAN_POINT('Origin',(5.39999999999998,149.591884040182,147.39174162591));
#1380=CARTESIAN_POINT('Origin',(1.89999999999998,140.00000254454,151.891735805644));
#1381=CARTESIAN_POINT('',(3.94999999999998,140.000002541661,151.891735805644));
#1382=CARTESIAN_POINT('Origin',(1.89999999999998,140.00000254454,171.891729985377));
#1383=CARTESIAN_POINT('',(3.95,140.000002541661,171.891729985377));
#1384=UNCERTAINTY_MEASURE_WITH_UNIT(LENGTH_MEASURE(0.01),#1388,
'DISTANCE_ACCURACY_VALUE',
'Maximum model space distance between geometric entities at asserted c
onnectivities');
#1385=UNCERTAINTY_MEASURE_WITH_UNIT(LENGTH_MEASURE(0.01),#1388,
'DISTANCE_ACCURACY_VALUE',
'Maximum model space distance between geometric entities at asserted c
onnectivities');
#1386=(
GEOMETRIC_REPRESENTATION_CONTEXT(3)
GLOBAL_UNCERTAINTY_ASSIGNED_CONTEXT((#1384))
GLOBAL_UNIT_ASSIGNED_CONTEXT((#1388,#1390,#1391))
REPRESENTATION_CONTEXT('','3D')
);
#1387=(
GEOMETRIC_REPRESENTATION_CONTEXT(3)
GLOBAL_UNCERTAINTY_ASSIGNED_CONTEXT((#1385))
GLOBAL_UNIT_ASSIGNED_CONTEXT((#1388,#1390,#1391))
REPRESENTATION_CONTEXT('','3D')
);
#1388=(
LENGTH_UNIT()
NAMED_UNIT(*)
SI_UNIT(.MILLI.,.METRE.)
);
#1389=(
LENGTH_UNIT()
NAMED_UNIT(*)
SI_UNIT($,.METRE.)
);
#1390=(
NAMED_UNIT(*)
PLANE_ANGLE_UNIT()
SI_UNIT($,.RADIAN.)
);
#1391=(
NAMED_UNIT(*)
SI_UNIT($,.STERADIAN.)
SOLID_ANGLE_UNIT()
);
#1392=SHAPE_DEFINITION_REPRESENTATION(#1393,#1394);
#1393=PRODUCT_DEFINITION_SHAPE('',$,#1396);
#1394=SHAPE_REPRESENTATION('',(#870),#1386);
#1395=PRODUCT_DEFINITION_CONTEXT('part definition',#1400,'design');
#1396=PRODUCT_DEFINITION('Upper Leg conector','Upper Leg conector',#1397,
#1395);
#1397=PRODUCT_DEFINITION_FORMATION('',$,#1402);
#1398=PRODUCT_RELATED_PRODUCT_CATEGORY('Upper Leg conector',
'Upper Leg conector',(#1402));
#1399=APPLICATION_PROTOCOL_DEFINITION('international standard',
'automotive_design',2009,#1400);
#1400=APPLICATION_CONTEXT(
'Core Data for Automotive Mechanical Design Process');
#1401=PRODUCT_CONTEXT('part definition',#1400,'mechanical');
#1402=PRODUCT('Upper Leg conector','Upper Leg conector',$,(#1401));
#1403=PRESENTATION_STYLE_ASSIGNMENT((#1405));
#1404=PRESENTATION_STYLE_ASSIGNMENT((#1406));
#1405=SURFACE_STYLE_USAGE(.BOTH.,#1407);
#1406=SURFACE_STYLE_USAGE(.BOTH.,#1408);
#1407=SURFACE_SIDE_STYLE('',(#1409));
#1408=SURFACE_SIDE_STYLE('',(#1410));
#1409=SURFACE_STYLE_FILL_AREA(#1411);
#1410=SURFACE_STYLE_FILL_AREA(#1412);
#1411=FILL_AREA_STYLE('Steel - Satin',(#1413));
#1412=FILL_AREA_STYLE('ABS (White)',(#1414));
#1413=FILL_AREA_STYLE_COLOUR('Steel - Satin',#1415);
#1414=FILL_AREA_STYLE_COLOUR('ABS (White)',#1416);
#1415=COLOUR_RGB('Steel - Satin',0.627450980392157,0.627450980392157,0.627450980392157);
#1416=COLOUR_RGB('ABS (White)',0.964705882352941,0.964705882352941,0.952941176470588);
ENDSEC;
END-ISO-10303-21;
