ISO-10303-21;
HEADER;
/* Generated by software containing ST-Developer
 * from STEP Tools, Inc. (www.steptools.com) 
 */

FILE_DESCRIPTION(
/* description */ (''),
/* implementation_level */ '2;1');

FILE_NAME(
/* name */ 'Upper Leg lower hoop left.step',
/* time_stamp */ '2025-12-12T13:05:02+01:00',
/* author */ (''),
/* organization */ (''),
/* preprocessor_version */ 'ST-DEVELOPER v20.1',
/* originating_system */ 'Autodesk Translation Framework v14.21.0.0',
/* authorisation */ '');

FILE_SCHEMA (('AUTOMOTIVE_DESIGN { 1 0 10303 214 3 1 1 }'));
ENDSEC;

DATA;
#10=MECHANICAL_DESIGN_GEOMETRIC_PRESENTATION_REPRESENTATION('',(#13),#645);
#11=SHAPE_REPRESENTATION_RELATIONSHIP('SRR','None',#652,#12);
#12=ADVANCED_BREP_SHAPE_REPRESENTATION('',(#14),#644);
#13=STYLED_ITEM('',(#662),#14);
#14=MANIFOLD_SOLID_BREP('Body1',#382);
#15=CONICAL_SURFACE('',#415,14.5,0.785398163397447);
#16=FACE_BOUND('',#72,.T.);
#17=FACE_BOUND('',#73,.T.);
#18=FACE_BOUND('',#74,.T.);
#19=FACE_BOUND('',#82,.T.);
#20=FACE_BOUND('',#85,.T.);
#21=PLANE('',#399);
#22=PLANE('',#403);
#23=PLANE('',#407);
#24=PLANE('',#408);
#25=PLANE('',#409);
#26=PLANE('',#410);
#27=PLANE('',#411);
#28=PLANE('',#412);
#29=PLANE('',#413);
#30=PLANE('',#414);
#31=PLANE('',#418);
#32=PLANE('',#419);
#33=PLANE('',#420);
#34=PLANE('',#421);
#35=PLANE('',#423);
#36=PLANE('',#424);
#37=PLANE('',#427);
#38=FACE_OUTER_BOUND('',#61,.T.);
#39=FACE_OUTER_BOUND('',#62,.T.);
#40=FACE_OUTER_BOUND('',#63,.T.);
#41=FACE_OUTER_BOUND('',#64,.T.);
#42=FACE_OUTER_BOUND('',#65,.T.);
#43=FACE_OUTER_BOUND('',#66,.T.);
#44=FACE_OUTER_BOUND('',#67,.T.);
#45=FACE_OUTER_BOUND('',#68,.T.);
#46=FACE_OUTER_BOUND('',#69,.T.);
#47=FACE_OUTER_BOUND('',#70,.T.);
#48=FACE_OUTER_BOUND('',#71,.T.);
#49=FACE_OUTER_BOUND('',#75,.T.);
#50=FACE_OUTER_BOUND('',#76,.T.);
#51=FACE_OUTER_BOUND('',#77,.T.);
#52=FACE_OUTER_BOUND('',#78,.T.);
#53=FACE_OUTER_BOUND('',#79,.T.);
#54=FACE_OUTER_BOUND('',#80,.T.);
#55=FACE_OUTER_BOUND('',#81,.T.);
#56=FACE_OUTER_BOUND('',#83,.T.);
#57=FACE_OUTER_BOUND('',#84,.T.);
#58=FACE_OUTER_BOUND('',#86,.T.);
#59=FACE_OUTER_BOUND('',#87,.T.);
#60=FACE_OUTER_BOUND('',#88,.T.);
#61=EDGE_LOOP('',(#256,#257,#258,#259));
#62=EDGE_LOOP('',(#260));
#63=EDGE_LOOP('',(#261,#262,#263,#264));
#64=EDGE_LOOP('',(#265));
#65=EDGE_LOOP('',(#266,#267,#268,#269));
#66=EDGE_LOOP('',(#270));
#67=EDGE_LOOP('',(#271,#272,#273,#274));
#68=EDGE_LOOP('',(#275,#276,#277,#278,#279,#280));
#69=EDGE_LOOP('',(#281,#282,#283,#284));
#70=EDGE_LOOP('',(#285,#286,#287,#288));
#71=EDGE_LOOP('',(#289,#290,#291,#292,#293,#294));
#72=EDGE_LOOP('',(#295));
#73=EDGE_LOOP('',(#296));
#74=EDGE_LOOP('',(#297));
#75=EDGE_LOOP('',(#298,#299,#300,#301));
#76=EDGE_LOOP('',(#302,#303,#304,#305));
#77=EDGE_LOOP('',(#306,#307,#308,#309));
#78=EDGE_LOOP('',(#310,#311,#312,#313));
#79=EDGE_LOOP('',(#314,#315,#316,#317));
#80=EDGE_LOOP('',(#318,#319,#320,#321));
#81=EDGE_LOOP('',(#322,#323,#324,#325,#326));
#82=EDGE_LOOP('',(#327));
#83=EDGE_LOOP('',(#328,#329,#330,#331,#332,#333));
#84=EDGE_LOOP('',(#334,#335,#336,#337,#338));
#85=EDGE_LOOP('',(#339));
#86=EDGE_LOOP('',(#340,#341,#342,#343,#344,#345));
#87=EDGE_LOOP('',(#346,#347,#348,#349));
#88=EDGE_LOOP('',(#350,#351,#352,#353));
#89=LINE('',#543,#127);
#90=LINE('',#550,#128);
#91=LINE('',#557,#129);
#92=LINE('',#563,#130);
#93=LINE('',#565,#131);
#94=LINE('',#567,#132);
#95=LINE('',#568,#133);
#96=LINE('',#571,#134);
#97=LINE('',#573,#135);
#98=LINE('',#575,#136);
#99=LINE('',#577,#137);
#100=LINE('',#578,#138);
#101=LINE('',#582,#139);
#102=LINE('',#583,#140);
#103=LINE('',#584,#141);
#104=LINE('',#586,#142);
#105=LINE('',#589,#143);
#106=LINE('',#591,#144);
#107=LINE('',#593,#145);
#108=LINE('',#594,#146);
#109=LINE('',#597,#147);
#110=LINE('',#598,#148);
#111=LINE('',#601,#149);
#112=LINE('',#602,#150);
#113=LINE('',#606,#151);
#114=LINE('',#610,#152);
#115=LINE('',#613,#153);
#116=LINE('',#615,#154);
#117=LINE('',#616,#155);
#118=LINE('',#619,#156);
#119=LINE('',#620,#157);
#120=LINE('',#622,#158);
#121=LINE('',#624,#159);
#122=LINE('',#629,#160);
#123=LINE('',#630,#161);
#124=LINE('',#634,#162);
#125=LINE('',#638,#163);
#126=LINE('',#641,#164);
#127=VECTOR('',#436,2.05);
#128=VECTOR('',#445,2.05);
#129=VECTOR('',#454,2.05000000000001);
#130=VECTOR('',#461,10.);
#131=VECTOR('',#462,10.);
#132=VECTOR('',#463,10.);
#133=VECTOR('',#464,10.);
#134=VECTOR('',#467,10.);
#135=VECTOR('',#468,10.);
#136=VECTOR('',#469,10.);
#137=VECTOR('',#470,10.);
#138=VECTOR('',#471,10.);
#139=VECTOR('',#474,10.);
#140=VECTOR('',#475,10.);
#141=VECTOR('',#476,10.);
#142=VECTOR('',#479,10.);
#143=VECTOR('',#482,10.);
#144=VECTOR('',#483,10.);
#145=VECTOR('',#484,10.);
#146=VECTOR('',#485,10.);
#147=VECTOR('',#488,10.);
#148=VECTOR('',#489,10.);
#149=VECTOR('',#492,10.);
#150=VECTOR('',#493,10.);
#151=VECTOR('',#496,10.);
#152=VECTOR('',#499,10.);
#153=VECTOR('',#504,10.);
#154=VECTOR('',#505,10.);
#155=VECTOR('',#506,10.);
#156=VECTOR('',#509,10.);
#157=VECTOR('',#510,10.);
#158=VECTOR('',#513,10.);
#159=VECTOR('',#516,10.);
#160=VECTOR('',#521,10.);
#161=VECTOR('',#522,10.);
#162=VECTOR('',#527,10.);
#163=VECTOR('',#532,10.);
#164=VECTOR('',#537,8.00000000000001);
#165=CIRCLE('',#397,2.05);
#166=CIRCLE('',#398,2.05);
#167=CIRCLE('',#401,2.05);
#168=CIRCLE('',#402,2.05);
#169=CIRCLE('',#405,2.05000000000001);
#170=CIRCLE('',#406,2.05000000000001);
#171=CIRCLE('',#416,15.);
#172=CIRCLE('',#417,14.);
#173=CIRCLE('',#422,8.00000000000001);
#174=CIRCLE('',#425,15.);
#175=CIRCLE('',#426,8.00000000000001);
#176=VERTEX_POINT('',#540);
#177=VERTEX_POINT('',#542);
#178=VERTEX_POINT('',#547);
#179=VERTEX_POINT('',#549);
#180=VERTEX_POINT('',#554);
#181=VERTEX_POINT('',#556);
#182=VERTEX_POINT('',#561);
#183=VERTEX_POINT('',#562);
#184=VERTEX_POINT('',#564);
#185=VERTEX_POINT('',#566);
#186=VERTEX_POINT('',#570);
#187=VERTEX_POINT('',#572);
#188=VERTEX_POINT('',#574);
#189=VERTEX_POINT('',#576);
#190=VERTEX_POINT('',#580);
#191=VERTEX_POINT('',#581);
#192=VERTEX_POINT('',#588);
#193=VERTEX_POINT('',#590);
#194=VERTEX_POINT('',#592);
#195=VERTEX_POINT('',#596);
#196=VERTEX_POINT('',#600);
#197=VERTEX_POINT('',#604);
#198=VERTEX_POINT('',#605);
#199=VERTEX_POINT('',#607);
#200=VERTEX_POINT('',#609);
#201=VERTEX_POINT('',#614);
#202=VERTEX_POINT('',#618);
#203=VERTEX_POINT('',#625);
#204=VERTEX_POINT('',#628);
#205=VERTEX_POINT('',#632);
#206=VERTEX_POINT('',#635);
#207=EDGE_CURVE('',#176,#176,#165,.T.);
#208=EDGE_CURVE('',#176,#177,#89,.T.);
#209=EDGE_CURVE('',#177,#177,#166,.T.);
#210=EDGE_CURVE('',#178,#178,#167,.T.);
#211=EDGE_CURVE('',#178,#179,#90,.T.);
#212=EDGE_CURVE('',#179,#179,#168,.T.);
#213=EDGE_CURVE('',#180,#180,#169,.T.);
#214=EDGE_CURVE('',#180,#181,#91,.T.);
#215=EDGE_CURVE('',#181,#181,#170,.T.);
#216=EDGE_CURVE('',#182,#183,#92,.T.);
#217=EDGE_CURVE('',#183,#184,#93,.T.);
#218=EDGE_CURVE('',#184,#185,#94,.F.);
#219=EDGE_CURVE('',#185,#182,#95,.T.);
#220=EDGE_CURVE('',#186,#185,#96,.T.);
#221=EDGE_CURVE('',#187,#186,#97,.T.);
#222=EDGE_CURVE('',#188,#187,#98,.T.);
#223=EDGE_CURVE('',#188,#189,#99,.T.);
#224=EDGE_CURVE('',#189,#182,#100,.T.);
#225=EDGE_CURVE('',#190,#191,#101,.T.);
#226=EDGE_CURVE('',#191,#187,#102,.T.);
#227=EDGE_CURVE('',#186,#190,#103,.T.);
#228=EDGE_CURVE('',#184,#190,#104,.T.);
#229=EDGE_CURVE('',#191,#192,#105,.T.);
#230=EDGE_CURVE('',#193,#192,#106,.T.);
#231=EDGE_CURVE('',#193,#194,#107,.T.);
#232=EDGE_CURVE('',#194,#188,#108,.T.);
#233=EDGE_CURVE('',#190,#195,#109,.T.);
#234=EDGE_CURVE('',#192,#195,#110,.T.);
#235=EDGE_CURVE('',#196,#184,#111,.T.);
#236=EDGE_CURVE('',#195,#196,#112,.T.);
#237=EDGE_CURVE('',#197,#198,#113,.F.);
#238=EDGE_CURVE('',#198,#199,#171,.T.);
#239=EDGE_CURVE('',#199,#200,#114,.T.);
#240=EDGE_CURVE('',#200,#197,#172,.T.);
#241=EDGE_CURVE('',#196,#200,#115,.T.);
#242=EDGE_CURVE('',#199,#201,#116,.T.);
#243=EDGE_CURVE('',#201,#196,#117,.T.);
#244=EDGE_CURVE('',#202,#193,#118,.T.);
#245=EDGE_CURVE('',#195,#202,#119,.T.);
#246=EDGE_CURVE('',#201,#202,#120,.T.);
#247=EDGE_CURVE('',#197,#183,#121,.T.);
#248=EDGE_CURVE('',#203,#203,#173,.T.);
#249=EDGE_CURVE('',#199,#204,#122,.T.);
#250=EDGE_CURVE('',#204,#194,#123,.T.);
#251=EDGE_CURVE('',#205,#204,#174,.T.);
#252=EDGE_CURVE('',#205,#189,#124,.T.);
#253=EDGE_CURVE('',#206,#206,#175,.T.);
#254=EDGE_CURVE('',#198,#205,#125,.T.);
#255=EDGE_CURVE('',#206,#203,#126,.T.);
#256=ORIENTED_EDGE('',*,*,#207,.F.);
#257=ORIENTED_EDGE('',*,*,#208,.T.);
#258=ORIENTED_EDGE('',*,*,#209,.T.);
#259=ORIENTED_EDGE('',*,*,#208,.F.);
#260=ORIENTED_EDGE('',*,*,#209,.F.);
#261=ORIENTED_EDGE('',*,*,#210,.F.);
#262=ORIENTED_EDGE('',*,*,#211,.T.);
#263=ORIENTED_EDGE('',*,*,#212,.T.);
#264=ORIENTED_EDGE('',*,*,#211,.F.);
#265=ORIENTED_EDGE('',*,*,#212,.F.);
#266=ORIENTED_EDGE('',*,*,#213,.F.);
#267=ORIENTED_EDGE('',*,*,#214,.T.);
#268=ORIENTED_EDGE('',*,*,#215,.T.);
#269=ORIENTED_EDGE('',*,*,#214,.F.);
#270=ORIENTED_EDGE('',*,*,#215,.F.);
#271=ORIENTED_EDGE('',*,*,#216,.T.);
#272=ORIENTED_EDGE('',*,*,#217,.T.);
#273=ORIENTED_EDGE('',*,*,#218,.T.);
#274=ORIENTED_EDGE('',*,*,#219,.T.);
#275=ORIENTED_EDGE('',*,*,#219,.F.);
#276=ORIENTED_EDGE('',*,*,#220,.F.);
#277=ORIENTED_EDGE('',*,*,#221,.F.);
#278=ORIENTED_EDGE('',*,*,#222,.F.);
#279=ORIENTED_EDGE('',*,*,#223,.T.);
#280=ORIENTED_EDGE('',*,*,#224,.T.);
#281=ORIENTED_EDGE('',*,*,#225,.T.);
#282=ORIENTED_EDGE('',*,*,#226,.T.);
#283=ORIENTED_EDGE('',*,*,#221,.T.);
#284=ORIENTED_EDGE('',*,*,#227,.T.);
#285=ORIENTED_EDGE('',*,*,#220,.T.);
#286=ORIENTED_EDGE('',*,*,#218,.F.);
#287=ORIENTED_EDGE('',*,*,#228,.T.);
#288=ORIENTED_EDGE('',*,*,#227,.F.);
#289=ORIENTED_EDGE('',*,*,#226,.F.);
#290=ORIENTED_EDGE('',*,*,#229,.T.);
#291=ORIENTED_EDGE('',*,*,#230,.F.);
#292=ORIENTED_EDGE('',*,*,#231,.T.);
#293=ORIENTED_EDGE('',*,*,#232,.T.);
#294=ORIENTED_EDGE('',*,*,#222,.T.);
#295=ORIENTED_EDGE('',*,*,#207,.T.);
#296=ORIENTED_EDGE('',*,*,#210,.T.);
#297=ORIENTED_EDGE('',*,*,#213,.T.);
#298=ORIENTED_EDGE('',*,*,#225,.F.);
#299=ORIENTED_EDGE('',*,*,#233,.T.);
#300=ORIENTED_EDGE('',*,*,#234,.F.);
#301=ORIENTED_EDGE('',*,*,#229,.F.);
#302=ORIENTED_EDGE('',*,*,#228,.F.);
#303=ORIENTED_EDGE('',*,*,#235,.F.);
#304=ORIENTED_EDGE('',*,*,#236,.F.);
#305=ORIENTED_EDGE('',*,*,#233,.F.);
#306=ORIENTED_EDGE('',*,*,#237,.T.);
#307=ORIENTED_EDGE('',*,*,#238,.T.);
#308=ORIENTED_EDGE('',*,*,#239,.T.);
#309=ORIENTED_EDGE('',*,*,#240,.T.);
#310=ORIENTED_EDGE('',*,*,#241,.T.);
#311=ORIENTED_EDGE('',*,*,#239,.F.);
#312=ORIENTED_EDGE('',*,*,#242,.T.);
#313=ORIENTED_EDGE('',*,*,#243,.T.);
#314=ORIENTED_EDGE('',*,*,#244,.T.);
#315=ORIENTED_EDGE('',*,*,#230,.T.);
#316=ORIENTED_EDGE('',*,*,#234,.T.);
#317=ORIENTED_EDGE('',*,*,#245,.T.);
#318=ORIENTED_EDGE('',*,*,#246,.T.);
#319=ORIENTED_EDGE('',*,*,#245,.F.);
#320=ORIENTED_EDGE('',*,*,#236,.T.);
#321=ORIENTED_EDGE('',*,*,#243,.F.);
#322=ORIENTED_EDGE('',*,*,#217,.F.);
#323=ORIENTED_EDGE('',*,*,#247,.F.);
#324=ORIENTED_EDGE('',*,*,#240,.F.);
#325=ORIENTED_EDGE('',*,*,#241,.F.);
#326=ORIENTED_EDGE('',*,*,#235,.T.);
#327=ORIENTED_EDGE('',*,*,#248,.T.);
#328=ORIENTED_EDGE('',*,*,#242,.F.);
#329=ORIENTED_EDGE('',*,*,#249,.T.);
#330=ORIENTED_EDGE('',*,*,#250,.T.);
#331=ORIENTED_EDGE('',*,*,#231,.F.);
#332=ORIENTED_EDGE('',*,*,#244,.F.);
#333=ORIENTED_EDGE('',*,*,#246,.F.);
#334=ORIENTED_EDGE('',*,*,#250,.F.);
#335=ORIENTED_EDGE('',*,*,#251,.F.);
#336=ORIENTED_EDGE('',*,*,#252,.T.);
#337=ORIENTED_EDGE('',*,*,#223,.F.);
#338=ORIENTED_EDGE('',*,*,#232,.F.);
#339=ORIENTED_EDGE('',*,*,#253,.F.);
#340=ORIENTED_EDGE('',*,*,#216,.F.);
#341=ORIENTED_EDGE('',*,*,#224,.F.);
#342=ORIENTED_EDGE('',*,*,#252,.F.);
#343=ORIENTED_EDGE('',*,*,#254,.F.);
#344=ORIENTED_EDGE('',*,*,#237,.F.);
#345=ORIENTED_EDGE('',*,*,#247,.T.);
#346=ORIENTED_EDGE('',*,*,#238,.F.);
#347=ORIENTED_EDGE('',*,*,#254,.T.);
#348=ORIENTED_EDGE('',*,*,#251,.T.);
#349=ORIENTED_EDGE('',*,*,#249,.F.);
#350=ORIENTED_EDGE('',*,*,#253,.T.);
#351=ORIENTED_EDGE('',*,*,#255,.T.);
#352=ORIENTED_EDGE('',*,*,#248,.F.);
#353=ORIENTED_EDGE('',*,*,#255,.F.);
#354=CYLINDRICAL_SURFACE('',#396,2.05);
#355=CYLINDRICAL_SURFACE('',#400,2.05);
#356=CYLINDRICAL_SURFACE('',#404,2.05000000000001);
#357=CYLINDRICAL_SURFACE('',#428,15.);
#358=CYLINDRICAL_SURFACE('',#429,8.00000000000001);
#359=ADVANCED_FACE('',(#38),#354,.F.);
#360=ADVANCED_FACE('',(#39),#21,.T.);
#361=ADVANCED_FACE('',(#40),#355,.F.);
#362=ADVANCED_FACE('',(#41),#22,.T.);
#363=ADVANCED_FACE('',(#42),#356,.F.);
#364=ADVANCED_FACE('',(#43),#23,.T.);
#365=ADVANCED_FACE('',(#44),#24,.T.);
#366=ADVANCED_FACE('',(#45),#25,.T.);
#367=ADVANCED_FACE('',(#46),#26,.T.);
#368=ADVANCED_FACE('',(#47),#27,.T.);
#369=ADVANCED_FACE('',(#48,#16,#17,#18),#28,.F.);
#370=ADVANCED_FACE('',(#49),#29,.T.);
#371=ADVANCED_FACE('',(#50),#30,.T.);
#372=ADVANCED_FACE('',(#51),#15,.T.);
#373=ADVANCED_FACE('',(#52),#31,.T.);
#374=ADVANCED_FACE('',(#53),#32,.T.);
#375=ADVANCED_FACE('',(#54),#33,.T.);
#376=ADVANCED_FACE('',(#55,#19),#34,.T.);
#377=ADVANCED_FACE('',(#56),#35,.T.);
#378=ADVANCED_FACE('',(#57,#20),#36,.T.);
#379=ADVANCED_FACE('',(#58),#37,.T.);
#380=ADVANCED_FACE('',(#59),#357,.T.);
#381=ADVANCED_FACE('',(#60),#358,.F.);
#382=CLOSED_SHELL('',(#359,#360,#361,#362,#363,#364,#365,#366,#367,#368,
#369,#370,#371,#372,#373,#374,#375,#376,#377,#378,#379,#380,#381));
#383=DERIVED_UNIT_ELEMENT(#385,1.);
#384=DERIVED_UNIT_ELEMENT(#647,-3.);
#385=(
MASS_UNIT()
NAMED_UNIT(*)
SI_UNIT(.KILO.,.GRAM.)
);
#386=DERIVED_UNIT((#383,#384));
#387=MEASURE_REPRESENTATION_ITEM('density measure',
POSITIVE_RATIO_MEASURE(7850.),#386);
#388=PROPERTY_DEFINITION_REPRESENTATION(#393,#390);
#389=PROPERTY_DEFINITION_REPRESENTATION(#394,#391);
#390=REPRESENTATION('material name',(#392),#644);
#391=REPRESENTATION('density',(#387),#644);
#392=DESCRIPTIVE_REPRESENTATION_ITEM('Steel','Steel');
#393=PROPERTY_DEFINITION('material property','material name',#654);
#394=PROPERTY_DEFINITION('material property','density of part',#654);
#395=AXIS2_PLACEMENT_3D('',#538,#430,#431);
#396=AXIS2_PLACEMENT_3D('',#539,#432,#433);
#397=AXIS2_PLACEMENT_3D('',#541,#434,#435);
#398=AXIS2_PLACEMENT_3D('',#544,#437,#438);
#399=AXIS2_PLACEMENT_3D('',#545,#439,#440);
#400=AXIS2_PLACEMENT_3D('',#546,#441,#442);
#401=AXIS2_PLACEMENT_3D('',#548,#443,#444);
#402=AXIS2_PLACEMENT_3D('',#551,#446,#447);
#403=AXIS2_PLACEMENT_3D('',#552,#448,#449);
#404=AXIS2_PLACEMENT_3D('',#553,#450,#451);
#405=AXIS2_PLACEMENT_3D('',#555,#452,#453);
#406=AXIS2_PLACEMENT_3D('',#558,#455,#456);
#407=AXIS2_PLACEMENT_3D('',#559,#457,#458);
#408=AXIS2_PLACEMENT_3D('',#560,#459,#460);
#409=AXIS2_PLACEMENT_3D('',#569,#465,#466);
#410=AXIS2_PLACEMENT_3D('',#579,#472,#473);
#411=AXIS2_PLACEMENT_3D('',#585,#477,#478);
#412=AXIS2_PLACEMENT_3D('',#587,#480,#481);
#413=AXIS2_PLACEMENT_3D('',#595,#486,#487);
#414=AXIS2_PLACEMENT_3D('',#599,#490,#491);
#415=AXIS2_PLACEMENT_3D('',#603,#494,#495);
#416=AXIS2_PLACEMENT_3D('',#608,#497,#498);
#417=AXIS2_PLACEMENT_3D('',#611,#500,#501);
#418=AXIS2_PLACEMENT_3D('',#612,#502,#503);
#419=AXIS2_PLACEMENT_3D('',#617,#507,#508);
#420=AXIS2_PLACEMENT_3D('',#621,#511,#512);
#421=AXIS2_PLACEMENT_3D('',#623,#514,#515);
#422=AXIS2_PLACEMENT_3D('',#626,#517,#518);
#423=AXIS2_PLACEMENT_3D('',#627,#519,#520);
#424=AXIS2_PLACEMENT_3D('',#631,#523,#524);
#425=AXIS2_PLACEMENT_3D('',#633,#525,#526);
#426=AXIS2_PLACEMENT_3D('',#636,#528,#529);
#427=AXIS2_PLACEMENT_3D('',#637,#530,#531);
#428=AXIS2_PLACEMENT_3D('',#639,#533,#534);
#429=AXIS2_PLACEMENT_3D('',#640,#535,#536);
#430=DIRECTION('axis',(0.,0.,1.));
#431=DIRECTION('refdir',(1.,0.,0.));
#432=DIRECTION('center_axis',(-1.40413558916231E-9,-1.,0.));
#433=DIRECTION('ref_axis',(-1.,1.40413558916231E-9,0.));
#434=DIRECTION('center_axis',(0.,-1.,0.));
#435=DIRECTION('ref_axis',(-1.,0.,0.));
#436=DIRECTION('',(-1.40413558916231E-9,-1.,0.));
#437=DIRECTION('center_axis',(-1.40413562721431E-9,-1.,0.));
#438=DIRECTION('ref_axis',(-1.,1.40413562382948E-9,0.));
#439=DIRECTION('center_axis',(1.40413562721431E-9,1.,0.));
#440=DIRECTION('ref_axis',(-1.,1.40413562721431E-9,0.));
#441=DIRECTION('center_axis',(-1.40413558916231E-9,-1.,0.));
#442=DIRECTION('ref_axis',(-1.,1.40413558916231E-9,0.));
#443=DIRECTION('center_axis',(0.,-1.,0.));
#444=DIRECTION('ref_axis',(-1.,0.,0.));
#445=DIRECTION('',(-1.40413558916231E-9,-1.,0.));
#446=DIRECTION('center_axis',(-1.40413562721431E-9,-1.,0.));
#447=DIRECTION('ref_axis',(-1.,1.40413562382948E-9,0.));
#448=DIRECTION('center_axis',(1.40413562721431E-9,1.,0.));
#449=DIRECTION('ref_axis',(-1.,1.40413562721431E-9,0.));
#450=DIRECTION('center_axis',(-1.40413558916231E-9,-1.,0.));
#451=DIRECTION('ref_axis',(-1.,1.40413558916231E-9,0.));
#452=DIRECTION('center_axis',(0.,-1.,0.));
#453=DIRECTION('ref_axis',(-1.,0.,0.));
#454=DIRECTION('',(-1.40413558916231E-9,-1.,0.));
#455=DIRECTION('center_axis',(-1.4041356341532E-9,-1.,0.));
#456=DIRECTION('ref_axis',(-1.,1.40413564075361E-9,0.));
#457=DIRECTION('center_axis',(1.4041356341532E-9,1.,0.));
#458=DIRECTION('ref_axis',(-1.,1.4041356341532E-9,0.));
#459=DIRECTION('center_axis',(-0.707106781186548,0.,-0.707106781186548));
#460=DIRECTION('ref_axis',(-0.707106781186548,0.,0.707106781186548));
#461=DIRECTION('',(-0.707106781186548,0.,0.707106781186548));
#462=DIRECTION('',(0.,1.,0.));
#463=DIRECTION('',(-0.678598344545847,-0.281084637714822,0.678598344545847));
#464=DIRECTION('',(0.,-1.,0.));
#465=DIRECTION('center_axis',(1.22464679914735E-16,0.,-1.));
#466=DIRECTION('ref_axis',(-1.,0.,-1.22464679914735E-16));
#467=DIRECTION('',(0.707106781186548,-0.707106781186547,8.65956056235494E-17));
#468=DIRECTION('',(0.,-1.,0.));
#469=DIRECTION('',(-1.,0.,-1.22464679914735E-16));
#470=DIRECTION('',(0.,-1.,0.));
#471=DIRECTION('',(-1.,0.,-1.22464679914735E-16));
#472=DIRECTION('center_axis',(-0.70710678118656,0.,-0.707106781186535));
#473=DIRECTION('ref_axis',(-0.707106781186535,0.,0.70710678118656));
#474=DIRECTION('',(0.,1.,0.));
#475=DIRECTION('',(0.707106781186535,0.,-0.70710678118656));
#476=DIRECTION('',(-0.678598344545847,-0.281084637714822,0.678598344545847));
#477=DIRECTION('center_axis',(-0.499999999999999,-0.5,-0.707106781186548));
#478=DIRECTION('ref_axis',(-0.816496580927727,0.,0.577350269189625));
#479=DIRECTION('',(-0.707106781186548,0.707106781186547,-8.65956056235494E-17));
#480=DIRECTION('center_axis',(0.,-1.,0.));
#481=DIRECTION('ref_axis',(1.,0.,1.22464679914735E-16));
#482=DIRECTION('',(-1.22464679914735E-16,0.,1.));
#483=DIRECTION('',(-0.707106781186541,0.,-0.707106781186554));
#484=DIRECTION('',(1.,0.,1.22464679914735E-16));
#485=DIRECTION('',(1.22464679914735E-16,0.,-1.));
#486=DIRECTION('center_axis',(-1.,0.,-1.22464679914735E-16));
#487=DIRECTION('ref_axis',(-1.22464679914735E-16,0.,1.));
#488=DIRECTION('',(-1.22464679914735E-16,0.,1.));
#489=DIRECTION('',(0.,-1.,0.));
#490=DIRECTION('center_axis',(-0.707106781186547,-0.707106781186548,-8.65956056235493E-17));
#491=DIRECTION('ref_axis',(-1.22464679914735E-16,0.,1.));
#492=DIRECTION('',(1.22464679914735E-16,0.,-1.));
#493=DIRECTION('',(0.707106781186548,-0.707106781186547,8.65956056235494E-17));
#494=DIRECTION('center_axis',(1.,0.,0.));
#495=DIRECTION('ref_axis',(0.,-1.,0.));
#496=DIRECTION('',(-0.70710479204343,0.,0.70710877032407));
#497=DIRECTION('center_axis',(-1.,0.,-1.22464679914735E-16));
#498=DIRECTION('ref_axis',(0.,-1.,0.));
#499=DIRECTION('',(-0.707106781186554,0.,-0.707106781186541));
#500=DIRECTION('center_axis',(1.,0.,1.22464679914735E-16));
#501=DIRECTION('ref_axis',(0.,-1.,0.));
#502=DIRECTION('center_axis',(-0.707106781186554,0.,0.707106781186541));
#503=DIRECTION('ref_axis',(0.707106781186541,0.,0.707106781186554));
#504=DIRECTION('',(0.,-1.,0.));
#505=DIRECTION('',(0.,1.,0.));
#506=DIRECTION('',(-0.678598344545834,-0.281084637714853,-0.678598344545846));
#507=DIRECTION('center_axis',(-0.707106781186554,0.,0.707106781186541));
#508=DIRECTION('ref_axis',(0.707106781186541,0.,0.707106781186554));
#509=DIRECTION('',(0.,1.,0.));
#510=DIRECTION('',(0.678598344545837,0.281084637714842,0.678598344545849));
#511=DIRECTION('center_axis',(-0.499999999999998,-0.499999999999998,0.707106781186551));
#512=DIRECTION('ref_axis',(0.816496580927729,0.,0.577350269189622));
#513=DIRECTION('',(-0.707106781186548,0.707106781186547,-8.65956056235494E-17));
#514=DIRECTION('center_axis',(-1.,0.,-1.22464679914735E-16));
#515=DIRECTION('ref_axis',(0.,1.,0.));
#516=DIRECTION('',(1.22464679914735E-16,0.,-1.));
#517=DIRECTION('center_axis',(1.,0.,1.22464679914735E-16));
#518=DIRECTION('ref_axis',(0.,1.,0.));
#519=DIRECTION('center_axis',(-1.22464679914735E-16,0.,1.));
#520=DIRECTION('ref_axis',(0.,-1.,0.));
#521=DIRECTION('',(1.,0.,1.22464679914735E-16));
#522=DIRECTION('',(0.,1.,0.));
#523=DIRECTION('center_axis',(1.,0.,1.22464679914735E-16));
#524=DIRECTION('ref_axis',(0.,-1.,0.));
#525=DIRECTION('center_axis',(-1.,0.,-1.22464679914735E-16));
#526=DIRECTION('ref_axis',(0.,1.,0.));
#527=DIRECTION('',(1.22464679914735E-16,0.,-1.));
#528=DIRECTION('center_axis',(1.,0.,1.22464679914735E-16));
#529=DIRECTION('ref_axis',(0.,1.,0.));
#530=DIRECTION('center_axis',(0.,-1.,0.));
#531=DIRECTION('ref_axis',(-1.,0.,-1.22464679914735E-16));
#532=DIRECTION('',(1.,0.,1.22464679914735E-16));
#533=DIRECTION('center_axis',(1.,0.,1.22464679914735E-16));
#534=DIRECTION('ref_axis',(-1.98435237035684E-19,-0.999998687237463,0.00162034667606891));
#535=DIRECTION('center_axis',(1.,0.,1.22464679914735E-16));
#536=DIRECTION('ref_axis',(0.,1.,0.));
#537=DIRECTION('',(-1.,0.,-1.22464679914735E-16));
#538=CARTESIAN_POINT('',(0.,0.,0.));
#539=CARTESIAN_POINT('Origin',(-63.1,140.000002631596,161.891729985377));
#540=CARTESIAN_POINT('',(-61.0500000071611,134.9,161.891729985377));
#541=CARTESIAN_POINT('Origin',(-63.1000000071611,134.9,161.891729985377));
#542=CARTESIAN_POINT('',(-61.0500000217641,124.500002628718,161.891729985377));
#543=CARTESIAN_POINT('',(-61.05,140.000002628718,161.891729985377));
#544=CARTESIAN_POINT('Origin',(-63.1000000217641,124.500002631596,161.891729985377));
#545=CARTESIAN_POINT('Origin',(-63.1000000217641,124.500002631596,161.891729985377));
#546=CARTESIAN_POINT('Origin',(-63.1,140.000002631596,171.891724165111));
#547=CARTESIAN_POINT('',(-61.0500000071611,134.9,171.891724165111));
#548=CARTESIAN_POINT('Origin',(-63.1000000071611,134.9,171.891724165111));
#549=CARTESIAN_POINT('',(-61.0500000217641,124.500002628718,171.891724165111));
#550=CARTESIAN_POINT('',(-61.05,140.000002628718,171.891724165111));
#551=CARTESIAN_POINT('Origin',(-63.1000000217641,124.500002631596,171.891724165111));
#552=CARTESIAN_POINT('Origin',(-63.1000000217641,124.500002631596,171.891724165111));
#553=CARTESIAN_POINT('Origin',(-63.1,140.000002631596,151.891729985377));
#554=CARTESIAN_POINT('',(-61.050000007161,134.9,151.891729985377));
#555=CARTESIAN_POINT('Origin',(-63.1000000071611,134.9,151.891729985377));
#556=CARTESIAN_POINT('',(-61.0500000217641,124.500002628718,151.891729985377));
#557=CARTESIAN_POINT('',(-61.05,140.000002628718,151.891729985377));
#558=CARTESIAN_POINT('Origin',(-63.1000000217641,124.500002631596,151.891729985377));
#559=CARTESIAN_POINT('Origin',(-63.1000000217641,124.500002631596,151.891729985377));
#560=CARTESIAN_POINT('Origin',(-63.1,117.412847415883,147.391729985377));
#561=CARTESIAN_POINT('',(-62.6,104.851389663532,146.891729985377));
#562=CARTESIAN_POINT('',(-63.6,104.851389663532,147.891729985377));
#563=CARTESIAN_POINT('',(-61.98,104.851389663532,146.271729985377));
#564=CARTESIAN_POINT('',(-63.6,121.467534074566,147.891729985377));
#565=CARTESIAN_POINT('',(-63.6,117.412847415883,147.891729985377));
#566=CARTESIAN_POINT('',(-62.6,121.881747636939,146.891729985377));
#567=CARTESIAN_POINT('',(-63.552694247544,121.487128758811,147.844424232921));
#568=CARTESIAN_POINT('',(-62.6,117.412847415883,146.891729985377));
#569=CARTESIAN_POINT('Origin',(-59.9273679587778,122.425694831766,146.891729985377));
#570=CARTESIAN_POINT('',(-66.1,125.381747636939,146.891729985377));
#571=CARTESIAN_POINT('',(-63.0892753978079,122.371023034747,146.891729985377));
#572=CARTESIAN_POINT('',(-66.1,134.9,146.891729985377));
#573=CARTESIAN_POINT('',(-66.1,127.454731456065,146.891729985377));
#574=CARTESIAN_POINT('',(-59.1,134.9,146.891729985377));
#575=CARTESIAN_POINT('',(-67.09999993518,134.9,146.891729985377));
#576=CARTESIAN_POINT('',(-59.1,104.851389663532,146.891729985377));
#577=CARTESIAN_POINT('',(-59.1,117.412847415883,146.891729985377));
#578=CARTESIAN_POINT('',(-70.5947359175556,104.851389663532,146.891729985377));
#579=CARTESIAN_POINT('Origin',(-66.6,127.454731456065,147.391729985377));
#580=CARTESIAN_POINT('',(-67.1,124.967534074566,147.891729985377));
#581=CARTESIAN_POINT('',(-67.09999993518,134.9,147.891729985377));
#582=CARTESIAN_POINT('',(-67.1,127.454731456065,147.891729985377));
#583=CARTESIAN_POINT('',(-66.599999983795,134.9,147.391729969172));
#584=CARTESIAN_POINT('',(-66.1,125.381747636939,146.891729985377));
#585=CARTESIAN_POINT('Origin',(-63.4428287884012,122.017469644154,147.391729985377));
#586=CARTESIAN_POINT('',(-63.7963821789945,121.66391625356,147.891729985377));
#587=CARTESIAN_POINT('Origin',(-67.09999993518,134.9,146.891729985377));
#588=CARTESIAN_POINT('',(-67.09999993518,134.9,175.891729985377));
#589=CARTESIAN_POINT('',(-67.09999993518,134.9,146.891729985377));
#590=CARTESIAN_POINT('',(-66.1,134.9,176.891729985377));
#591=CARTESIAN_POINT('',(-74.0999999837949,134.9,168.891730001582));
#592=CARTESIAN_POINT('',(-59.1,134.9,176.891729985377));
#593=CARTESIAN_POINT('',(-65.34999996759,134.9,176.891729985377));
#594=CARTESIAN_POINT('',(-59.1,134.9,146.891729985377));
#595=CARTESIAN_POINT('Origin',(-67.1,132.483768080364,161.837593957336));
#596=CARTESIAN_POINT('',(-67.1,124.967534074566,175.891729985377));
#597=CARTESIAN_POINT('',(-67.1,124.967534074566,146.891729985377));
#598=CARTESIAN_POINT('',(-67.1,133.691884040182,175.891729985377));
#599=CARTESIAN_POINT('Origin',(-65.35,123.217534074566,154.391729985377));
#600=CARTESIAN_POINT('',(-63.6,121.467534074566,175.891729985377));
#601=CARTESIAN_POINT('',(-63.6,121.467534074566,169.337593957336));
#602=CARTESIAN_POINT('',(-67.8331164813585,125.700650555924,175.891729985377));
#603=CARTESIAN_POINT('Origin',(-63.1,104.9,161.891729985377));
#604=CARTESIAN_POINT('',(-63.6,104.851389663532,147.891814377232));
#605=CARTESIAN_POINT('',(-62.6,104.851389663532,146.891808751078));
#606=CARTESIAN_POINT('',(-63.1,104.851389663532,147.391811564155));
#607=CARTESIAN_POINT('',(-62.6,104.9,176.891729985377));
#608=CARTESIAN_POINT('Origin',(-62.6,104.9,161.891729985377));
#609=CARTESIAN_POINT('',(-63.6,104.9,175.891729985377));
#610=CARTESIAN_POINT('',(-62.6,104.9,176.891729985377));
#611=CARTESIAN_POINT('Origin',(-63.6,104.9,161.891729985377));
#612=CARTESIAN_POINT('Origin',(-63.1,123.65,176.391729985377));
#613=CARTESIAN_POINT('',(-63.6,123.65,175.891729985377));
#614=CARTESIAN_POINT('',(-62.6,121.881747636939,176.891729985377));
#615=CARTESIAN_POINT('',(-62.6,123.65,176.891729985377));
#616=CARTESIAN_POINT('',(-62.6,121.881747636939,176.891729985377));
#617=CARTESIAN_POINT('Origin',(-66.6,133.691884040182,176.391729985377));
#618=CARTESIAN_POINT('',(-66.1,125.381747636939,176.891729985377));
#619=CARTESIAN_POINT('',(-66.1,133.691884040182,176.891729985377));
#620=CARTESIAN_POINT('',(-67.1,124.967534074566,175.891729985377));
#621=CARTESIAN_POINT('Origin',(-67.4795630907653,126.054203946518,176.391729985377));
#622=CARTESIAN_POINT('',(-67.126009700172,126.407757337111,176.891729985377));
#623=CARTESIAN_POINT('Origin',(-63.6,112.4,161.891729985377));
#624=CARTESIAN_POINT('',(-63.6,104.851389663532,146.911729985377));
#625=CARTESIAN_POINT('',(-63.6,96.9,161.891729985377));
#626=CARTESIAN_POINT('Origin',(-63.6,104.9,161.891729985377));
#627=CARTESIAN_POINT('Origin',(-63.6,134.9,176.891729985377));
#628=CARTESIAN_POINT('',(-59.1,104.9,176.891729985377));
#629=CARTESIAN_POINT('',(-63.6,104.9,176.891729985377));
#630=CARTESIAN_POINT('',(-59.1,133.9,176.891729985377));
#631=CARTESIAN_POINT('Origin',(-59.1,112.4,161.891729985377));
#632=CARTESIAN_POINT('',(-59.1,104.851389663532,146.891808751078));
#633=CARTESIAN_POINT('Origin',(-59.1,104.9,161.891729985377));
#634=CARTESIAN_POINT('',(-59.1,104.851389663532,146.911729985377));
#635=CARTESIAN_POINT('',(-59.1,96.9,161.891729985377));
#636=CARTESIAN_POINT('Origin',(-59.1,104.9,161.891729985377));
#637=CARTESIAN_POINT('Origin',(-59.1,104.851389663532,146.911729985377));
#638=CARTESIAN_POINT('',(-63.6,104.851389663532,146.891808751078));
#639=CARTESIAN_POINT('Origin',(-63.6,104.9,161.891729985377));
#640=CARTESIAN_POINT('Origin',(-63.6,104.9,161.891729985377));
#641=CARTESIAN_POINT('',(-63.6,96.9,161.891729985377));
#642=UNCERTAINTY_MEASURE_WITH_UNIT(LENGTH_MEASURE(0.01),#646,
'DISTANCE_ACCURACY_VALUE',
'Maximum model space distance between geometric entities at asserted c
onnectivities');
#643=UNCERTAINTY_MEASURE_WITH_UNIT(LENGTH_MEASURE(0.01),#646,
'DISTANCE_ACCURACY_VALUE',
'Maximum model space distance between geometric entities at asserted c
onnectivities');
#644=(
GEOMETRIC_REPRESENTATION_CONTEXT(3)
GLOBAL_UNCERTAINTY_ASSIGNED_CONTEXT((#642))
GLOBAL_UNIT_ASSIGNED_CONTEXT((#646,#648,#649))
REPRESENTATION_CONTEXT('','3D')
);
#645=(
GEOMETRIC_REPRESENTATION_CONTEXT(3)
GLOBAL_UNCERTAINTY_ASSIGNED_CONTEXT((#643))
GLOBAL_UNIT_ASSIGNED_CONTEXT((#646,#648,#649))
REPRESENTATION_CONTEXT('','3D')
);
#646=(
LENGTH_UNIT()
NAMED_UNIT(*)
SI_UNIT(.MILLI.,.METRE.)
);
#647=(
LENGTH_UNIT()
NAMED_UNIT(*)
SI_UNIT($,.METRE.)
);
#648=(
NAMED_UNIT(*)
PLANE_ANGLE_UNIT()
SI_UNIT($,.RADIAN.)
);
#649=(
NAMED_UNIT(*)
SI_UNIT($,.STERADIAN.)
SOLID_ANGLE_UNIT()
);
#650=SHAPE_DEFINITION_REPRESENTATION(#651,#652);
#651=PRODUCT_DEFINITION_SHAPE('',$,#654);
#652=SHAPE_REPRESENTATION('',(#395),#644);
#653=PRODUCT_DEFINITION_CONTEXT('part definition',#658,'design');
#654=PRODUCT_DEFINITION('Upper Leg lower hoop left',
'Upper Leg lower hoop left',#655,#653);
#655=PRODUCT_DEFINITION_FORMATION('',$,#660);
#656=PRODUCT_RELATED_PRODUCT_CATEGORY('Upper Leg lower hoop left',
'Upper Leg lower hoop left',(#660));
#657=APPLICATION_PROTOCOL_DEFINITION('international standard',
'automotive_design',2009,#658);
#658=APPLICATION_CONTEXT(
'Core Data for Automotive Mechanical Design Process');
#659=PRODUCT_CONTEXT('part definition',#658,'mechanical');
#660=PRODUCT('Upper Leg lower hoop left','Upper Leg lower hoop left',$,
(#659));
#661=PRESENTATION_STYLE_ASSIGNMENT((#663));
#662=PRESENTATION_STYLE_ASSIGNMENT((#664));
#663=SURFACE_STYLE_USAGE(.BOTH.,#665);
#664=SURFACE_STYLE_USAGE(.BOTH.,#666);
#665=SURFACE_SIDE_STYLE('',(#667));
#666=SURFACE_SIDE_STYLE('',(#668));
#667=SURFACE_STYLE_FILL_AREA(#669);
#668=SURFACE_STYLE_FILL_AREA(#670);
#669=FILL_AREA_STYLE('Steel - Satin',(#671));
#670=FILL_AREA_STYLE('ABS (White)',(#672));
#671=FILL_AREA_STYLE_COLOUR('Steel - Satin',#673);
#672=FILL_AREA_STYLE_COLOUR('ABS (White)',#674);
#673=COLOUR_RGB('Steel - Satin',0.627450980392157,0.627450980392157,0.627450980392157);
#674=COLOUR_RGB('ABS (White)',0.964705882352941,0.964705882352941,0.952941176470588);
ENDSEC;
END-ISO-10303-21;
