ISO-10303-21;
HEADER;
/* Generated by software containing ST-Developer
 * from STEP Tools, Inc. (www.steptools.com) 
 */

FILE_DESCRIPTION(
/* description */ (''),
/* implementation_level */ '2;1');

FILE_NAME(
/* name */ 'Upper Leg upper hoop bottom.step',
/* time_stamp */ '2025-12-12T13:05:02+01:00',
/* author */ (''),
/* organization */ (''),
/* preprocessor_version */ 'ST-DEVELOPER v20.1',
/* originating_system */ 'Autodesk Translation Framework v14.21.0.0',
/* authorisation */ '');

FILE_SCHEMA (('AUTOMOTIVE_DESIGN { 1 0 10303 214 3 1 1 }'));
ENDSEC;

DATA;
#10=MECHANICAL_DESIGN_GEOMETRIC_PRESENTATION_REPRESENTATION('',(#13),#813);
#11=SHAPE_REPRESENTATION_RELATIONSHIP('SRR','None',#820,#12);
#12=ADVANCED_BREP_SHAPE_REPRESENTATION('',(#14),#812);
#13=STYLED_ITEM('',(#830),#14);
#14=MANIFOLD_SOLID_BREP('Body1',#472);
#15=CONICAL_SURFACE('',#528,14.5,0.785398163397457);
#16=FACE_BOUND('',#78,.T.);
#17=FACE_BOUND('',#79,.T.);
#18=FACE_BOUND('',#80,.T.);
#19=FACE_BOUND('',#83,.T.);
#20=FACE_BOUND('',#88,.T.);
#21=FACE_BOUND('',#91,.T.);
#22=FACE_BOUND('',#93,.T.);
#23=FACE_BOUND('',#101,.T.);
#24=PLANE('',#495);
#25=PLANE('',#498);
#26=PLANE('',#502);
#27=PLANE('',#505);
#28=PLANE('',#509);
#29=PLANE('',#511);
#30=PLANE('',#514);
#31=PLANE('',#515);
#32=PLANE('',#520);
#33=PLANE('',#521);
#34=PLANE('',#522);
#35=PLANE('',#524);
#36=PLANE('',#525);
#37=PLANE('',#526);
#38=PLANE('',#527);
#39=PLANE('',#529);
#40=PLANE('',#530);
#41=PLANE('',#531);
#42=PLANE('',#534);
#43=FACE_OUTER_BOUND('',#74,.T.);
#44=FACE_OUTER_BOUND('',#75,.T.);
#45=FACE_OUTER_BOUND('',#76,.T.);
#46=FACE_OUTER_BOUND('',#77,.T.);
#47=FACE_OUTER_BOUND('',#81,.T.);
#48=FACE_OUTER_BOUND('',#82,.T.);
#49=FACE_OUTER_BOUND('',#84,.T.);
#50=FACE_OUTER_BOUND('',#85,.T.);
#51=FACE_OUTER_BOUND('',#86,.T.);
#52=FACE_OUTER_BOUND('',#87,.T.);
#53=FACE_OUTER_BOUND('',#89,.T.);
#54=FACE_OUTER_BOUND('',#90,.T.);
#55=FACE_OUTER_BOUND('',#92,.T.);
#56=FACE_OUTER_BOUND('',#94,.T.);
#57=FACE_OUTER_BOUND('',#95,.T.);
#58=FACE_OUTER_BOUND('',#96,.T.);
#59=FACE_OUTER_BOUND('',#97,.T.);
#60=FACE_OUTER_BOUND('',#98,.T.);
#61=FACE_OUTER_BOUND('',#99,.T.);
#62=FACE_OUTER_BOUND('',#100,.T.);
#63=FACE_OUTER_BOUND('',#102,.T.);
#64=FACE_OUTER_BOUND('',#103,.T.);
#65=FACE_OUTER_BOUND('',#104,.T.);
#66=FACE_OUTER_BOUND('',#105,.T.);
#67=FACE_OUTER_BOUND('',#106,.T.);
#68=FACE_OUTER_BOUND('',#107,.T.);
#69=FACE_OUTER_BOUND('',#108,.T.);
#70=FACE_OUTER_BOUND('',#109,.T.);
#71=FACE_OUTER_BOUND('',#110,.T.);
#72=FACE_OUTER_BOUND('',#111,.T.);
#73=FACE_OUTER_BOUND('',#112,.T.);
#74=EDGE_LOOP('',(#310,#311,#312,#313));
#75=EDGE_LOOP('',(#314,#315,#316,#317));
#76=EDGE_LOOP('',(#318,#319,#320,#321));
#77=EDGE_LOOP('',(#322,#323,#324,#325,#326,#327));
#78=EDGE_LOOP('',(#328));
#79=EDGE_LOOP('',(#329));
#80=EDGE_LOOP('',(#330));
#81=EDGE_LOOP('',(#331,#332,#333,#334));
#82=EDGE_LOOP('',(#335));
#83=EDGE_LOOP('',(#336));
#84=EDGE_LOOP('',(#337,#338,#339,#340));
#85=EDGE_LOOP('',(#341));
#86=EDGE_LOOP('',(#342,#343,#344,#345));
#87=EDGE_LOOP('',(#346));
#88=EDGE_LOOP('',(#347));
#89=EDGE_LOOP('',(#348,#349,#350,#351));
#90=EDGE_LOOP('',(#352));
#91=EDGE_LOOP('',(#353));
#92=EDGE_LOOP('',(#354,#355,#356,#357));
#93=EDGE_LOOP('',(#358));
#94=EDGE_LOOP('',(#359,#360,#361,#362,#363,#364));
#95=EDGE_LOOP('',(#365,#366,#367,#368,#369,#370));
#96=EDGE_LOOP('',(#371,#372,#373,#374));
#97=EDGE_LOOP('',(#375,#376,#377,#378));
#98=EDGE_LOOP('',(#379,#380,#381,#382));
#99=EDGE_LOOP('',(#383,#384,#385,#386));
#100=EDGE_LOOP('',(#387,#388,#389,#390));
#101=EDGE_LOOP('',(#391));
#102=EDGE_LOOP('',(#392,#393,#394,#395));
#103=EDGE_LOOP('',(#396,#397,#398,#399));
#104=EDGE_LOOP('',(#400,#401,#402,#403));
#105=EDGE_LOOP('',(#404,#405,#406,#407));
#106=EDGE_LOOP('',(#408,#409,#410,#411));
#107=EDGE_LOOP('',(#412,#413,#414,#415));
#108=EDGE_LOOP('',(#416,#417,#418,#419));
#109=EDGE_LOOP('',(#420));
#110=EDGE_LOOP('',(#421,#422,#423,#424));
#111=EDGE_LOOP('',(#425));
#112=EDGE_LOOP('',(#426,#427,#428,#429));
#113=LINE('',#686,#153);
#114=LINE('',#692,#154);
#115=LINE('',#698,#155);
#116=LINE('',#703,#156);
#117=LINE('',#705,#157);
#118=LINE('',#707,#158);
#119=LINE('',#709,#159);
#120=LINE('',#711,#160);
#121=LINE('',#712,#161);
#122=LINE('',#715,#162);
#123=LINE('',#722,#163);
#124=LINE('',#727,#164);
#125=LINE('',#734,#165);
#126=LINE('',#741,#166);
#127=LINE('',#744,#167);
#128=LINE('',#749,#168);
#129=LINE('',#751,#169);
#130=LINE('',#753,#170);
#131=LINE('',#754,#171);
#132=LINE('',#758,#172);
#133=LINE('',#759,#173);
#134=LINE('',#761,#174);
#135=LINE('',#762,#175);
#136=LINE('',#768,#176);
#137=LINE('',#771,#177);
#138=LINE('',#773,#178);
#139=LINE('',#774,#179);
#140=LINE('',#777,#180);
#141=LINE('',#779,#181);
#142=LINE('',#780,#182);
#143=LINE('',#783,#183);
#144=LINE('',#786,#184);
#145=LINE('',#788,#185);
#146=LINE('',#789,#186);
#147=LINE('',#791,#187);
#148=LINE('',#792,#188);
#149=LINE('',#795,#189);
#150=LINE('',#797,#190);
#151=LINE('',#804,#191);
#152=LINE('',#809,#192);
#153=VECTOR('',#543,2.05);
#154=VECTOR('',#550,2.05000000000001);
#155=VECTOR('',#557,2.05);
#156=VECTOR('',#562,10.);
#157=VECTOR('',#563,10.);
#158=VECTOR('',#564,10.);
#159=VECTOR('',#565,10.);
#160=VECTOR('',#566,10.);
#161=VECTOR('',#567,10.);
#162=VECTOR('',#570,2.05);
#163=VECTOR('',#579,1.55);
#164=VECTOR('',#586,2.05000000000001);
#165=VECTOR('',#595,2.05);
#166=VECTOR('',#604,10.);
#167=VECTOR('',#607,10.);
#168=VECTOR('',#612,10.);
#169=VECTOR('',#613,10.);
#170=VECTOR('',#614,10.);
#171=VECTOR('',#615,10.);
#172=VECTOR('',#618,10.);
#173=VECTOR('',#619,10.);
#174=VECTOR('',#620,10.);
#175=VECTOR('',#621,10.);
#176=VECTOR('',#630,8.);
#177=VECTOR('',#633,10.);
#178=VECTOR('',#634,10.);
#179=VECTOR('',#635,10.);
#180=VECTOR('',#638,10.);
#181=VECTOR('',#639,10.);
#182=VECTOR('',#640,10.);
#183=VECTOR('',#643,10.);
#184=VECTOR('',#646,10.);
#185=VECTOR('',#649,10.);
#186=VECTOR('',#650,10.);
#187=VECTOR('',#653,10.);
#188=VECTOR('',#654,10.);
#189=VECTOR('',#659,10.);
#190=VECTOR('',#662,10.);
#191=VECTOR('',#673,1.55);
#192=VECTOR('',#680,1.55000000000001);
#193=CIRCLE('',#487,2.05);
#194=CIRCLE('',#488,2.05);
#195=CIRCLE('',#490,2.05000000000001);
#196=CIRCLE('',#491,2.05000000000001);
#197=CIRCLE('',#493,2.05);
#198=CIRCLE('',#494,2.05);
#199=CIRCLE('',#497,2.05);
#200=CIRCLE('',#499,1.55);
#201=CIRCLE('',#501,1.55);
#202=CIRCLE('',#504,2.05000000000001);
#203=CIRCLE('',#506,1.55000000000001);
#204=CIRCLE('',#508,2.05);
#205=CIRCLE('',#510,1.55);
#206=CIRCLE('',#512,15.);
#207=CIRCLE('',#513,8.);
#208=CIRCLE('',#517,15.);
#209=CIRCLE('',#519,8.);
#210=CIRCLE('',#523,14.);
#211=CIRCLE('',#532,1.55);
#212=CIRCLE('',#535,1.55000000000001);
#213=VERTEX_POINT('',#683);
#214=VERTEX_POINT('',#685);
#215=VERTEX_POINT('',#689);
#216=VERTEX_POINT('',#691);
#217=VERTEX_POINT('',#695);
#218=VERTEX_POINT('',#697);
#219=VERTEX_POINT('',#701);
#220=VERTEX_POINT('',#702);
#221=VERTEX_POINT('',#704);
#222=VERTEX_POINT('',#706);
#223=VERTEX_POINT('',#708);
#224=VERTEX_POINT('',#710);
#225=VERTEX_POINT('',#714);
#226=VERTEX_POINT('',#718);
#227=VERTEX_POINT('',#721);
#228=VERTEX_POINT('',#726);
#229=VERTEX_POINT('',#730);
#230=VERTEX_POINT('',#733);
#231=VERTEX_POINT('',#737);
#232=VERTEX_POINT('',#740);
#233=VERTEX_POINT('',#742);
#234=VERTEX_POINT('',#745);
#235=VERTEX_POINT('',#748);
#236=VERTEX_POINT('',#750);
#237=VERTEX_POINT('',#752);
#238=VERTEX_POINT('',#756);
#239=VERTEX_POINT('',#757);
#240=VERTEX_POINT('',#760);
#241=VERTEX_POINT('',#766);
#242=VERTEX_POINT('',#770);
#243=VERTEX_POINT('',#772);
#244=VERTEX_POINT('',#776);
#245=VERTEX_POINT('',#778);
#246=VERTEX_POINT('',#782);
#247=VERTEX_POINT('',#784);
#248=VERTEX_POINT('',#801);
#249=VERTEX_POINT('',#806);
#250=EDGE_CURVE('',#213,#213,#193,.T.);
#251=EDGE_CURVE('',#213,#214,#113,.T.);
#252=EDGE_CURVE('',#214,#214,#194,.T.);
#253=EDGE_CURVE('',#215,#215,#195,.T.);
#254=EDGE_CURVE('',#215,#216,#114,.T.);
#255=EDGE_CURVE('',#216,#216,#196,.T.);
#256=EDGE_CURVE('',#217,#217,#197,.T.);
#257=EDGE_CURVE('',#217,#218,#115,.T.);
#258=EDGE_CURVE('',#218,#218,#198,.T.);
#259=EDGE_CURVE('',#219,#220,#116,.T.);
#260=EDGE_CURVE('',#220,#221,#117,.T.);
#261=EDGE_CURVE('',#221,#222,#118,.T.);
#262=EDGE_CURVE('',#222,#223,#119,.T.);
#263=EDGE_CURVE('',#223,#224,#120,.T.);
#264=EDGE_CURVE('',#224,#219,#121,.T.);
#265=EDGE_CURVE('',#218,#225,#122,.T.);
#266=EDGE_CURVE('',#225,#225,#199,.T.);
#267=EDGE_CURVE('',#226,#226,#200,.T.);
#268=EDGE_CURVE('',#226,#227,#123,.T.);
#269=EDGE_CURVE('',#227,#227,#201,.T.);
#270=EDGE_CURVE('',#216,#228,#124,.T.);
#271=EDGE_CURVE('',#228,#228,#202,.T.);
#272=EDGE_CURVE('',#229,#229,#203,.T.);
#273=EDGE_CURVE('',#214,#230,#125,.T.);
#274=EDGE_CURVE('',#230,#230,#204,.T.);
#275=EDGE_CURVE('',#231,#231,#205,.T.);
#276=EDGE_CURVE('',#232,#223,#126,.T.);
#277=EDGE_CURVE('',#233,#232,#206,.T.);
#278=EDGE_CURVE('',#224,#233,#127,.T.);
#279=EDGE_CURVE('',#234,#234,#207,.T.);
#280=EDGE_CURVE('',#219,#235,#128,.T.);
#281=EDGE_CURVE('',#233,#236,#129,.T.);
#282=EDGE_CURVE('',#237,#236,#130,.T.);
#283=EDGE_CURVE('',#235,#237,#131,.T.);
#284=EDGE_CURVE('',#238,#239,#132,.T.);
#285=EDGE_CURVE('',#232,#238,#133,.T.);
#286=EDGE_CURVE('',#240,#222,#134,.T.);
#287=EDGE_CURVE('',#239,#240,#135,.T.);
#288=EDGE_CURVE('',#236,#238,#208,.T.);
#289=EDGE_CURVE('',#241,#241,#209,.T.);
#290=EDGE_CURVE('',#241,#234,#136,.T.);
#291=EDGE_CURVE('',#242,#220,#137,.T.);
#292=EDGE_CURVE('',#243,#242,#138,.T.);
#293=EDGE_CURVE('',#221,#243,#139,.T.);
#294=EDGE_CURVE('',#244,#242,#140,.T.);
#295=EDGE_CURVE('',#244,#245,#141,.T.);
#296=EDGE_CURVE('',#243,#245,#142,.T.);
#297=EDGE_CURVE('',#246,#244,#143,.T.);
#298=EDGE_CURVE('',#247,#246,#210,.T.);
#299=EDGE_CURVE('',#245,#247,#144,.T.);
#300=EDGE_CURVE('',#244,#237,#145,.T.);
#301=EDGE_CURVE('',#235,#242,#146,.T.);
#302=EDGE_CURVE('',#243,#240,#147,.T.);
#303=EDGE_CURVE('',#239,#245,#148,.T.);
#304=EDGE_CURVE('',#238,#247,#149,.T.);
#305=EDGE_CURVE('',#236,#246,#150,.T.);
#306=EDGE_CURVE('',#248,#248,#211,.T.);
#307=EDGE_CURVE('',#231,#248,#151,.T.);
#308=EDGE_CURVE('',#249,#249,#212,.T.);
#309=EDGE_CURVE('',#229,#249,#152,.T.);
#310=ORIENTED_EDGE('',*,*,#250,.F.);
#311=ORIENTED_EDGE('',*,*,#251,.T.);
#312=ORIENTED_EDGE('',*,*,#252,.T.);
#313=ORIENTED_EDGE('',*,*,#251,.F.);
#314=ORIENTED_EDGE('',*,*,#253,.F.);
#315=ORIENTED_EDGE('',*,*,#254,.T.);
#316=ORIENTED_EDGE('',*,*,#255,.T.);
#317=ORIENTED_EDGE('',*,*,#254,.F.);
#318=ORIENTED_EDGE('',*,*,#256,.F.);
#319=ORIENTED_EDGE('',*,*,#257,.T.);
#320=ORIENTED_EDGE('',*,*,#258,.T.);
#321=ORIENTED_EDGE('',*,*,#257,.F.);
#322=ORIENTED_EDGE('',*,*,#259,.T.);
#323=ORIENTED_EDGE('',*,*,#260,.T.);
#324=ORIENTED_EDGE('',*,*,#261,.T.);
#325=ORIENTED_EDGE('',*,*,#262,.T.);
#326=ORIENTED_EDGE('',*,*,#263,.T.);
#327=ORIENTED_EDGE('',*,*,#264,.T.);
#328=ORIENTED_EDGE('',*,*,#256,.T.);
#329=ORIENTED_EDGE('',*,*,#253,.T.);
#330=ORIENTED_EDGE('',*,*,#250,.T.);
#331=ORIENTED_EDGE('',*,*,#258,.F.);
#332=ORIENTED_EDGE('',*,*,#265,.T.);
#333=ORIENTED_EDGE('',*,*,#266,.T.);
#334=ORIENTED_EDGE('',*,*,#265,.F.);
#335=ORIENTED_EDGE('',*,*,#266,.F.);
#336=ORIENTED_EDGE('',*,*,#267,.F.);
#337=ORIENTED_EDGE('',*,*,#267,.T.);
#338=ORIENTED_EDGE('',*,*,#268,.T.);
#339=ORIENTED_EDGE('',*,*,#269,.T.);
#340=ORIENTED_EDGE('',*,*,#268,.F.);
#341=ORIENTED_EDGE('',*,*,#269,.F.);
#342=ORIENTED_EDGE('',*,*,#255,.F.);
#343=ORIENTED_EDGE('',*,*,#270,.T.);
#344=ORIENTED_EDGE('',*,*,#271,.T.);
#345=ORIENTED_EDGE('',*,*,#270,.F.);
#346=ORIENTED_EDGE('',*,*,#271,.F.);
#347=ORIENTED_EDGE('',*,*,#272,.F.);
#348=ORIENTED_EDGE('',*,*,#252,.F.);
#349=ORIENTED_EDGE('',*,*,#273,.T.);
#350=ORIENTED_EDGE('',*,*,#274,.T.);
#351=ORIENTED_EDGE('',*,*,#273,.F.);
#352=ORIENTED_EDGE('',*,*,#274,.F.);
#353=ORIENTED_EDGE('',*,*,#275,.F.);
#354=ORIENTED_EDGE('',*,*,#276,.F.);
#355=ORIENTED_EDGE('',*,*,#277,.F.);
#356=ORIENTED_EDGE('',*,*,#278,.F.);
#357=ORIENTED_EDGE('',*,*,#263,.F.);
#358=ORIENTED_EDGE('',*,*,#279,.F.);
#359=ORIENTED_EDGE('',*,*,#280,.F.);
#360=ORIENTED_EDGE('',*,*,#264,.F.);
#361=ORIENTED_EDGE('',*,*,#278,.T.);
#362=ORIENTED_EDGE('',*,*,#281,.T.);
#363=ORIENTED_EDGE('',*,*,#282,.F.);
#364=ORIENTED_EDGE('',*,*,#283,.F.);
#365=ORIENTED_EDGE('',*,*,#284,.F.);
#366=ORIENTED_EDGE('',*,*,#285,.F.);
#367=ORIENTED_EDGE('',*,*,#276,.T.);
#368=ORIENTED_EDGE('',*,*,#262,.F.);
#369=ORIENTED_EDGE('',*,*,#286,.F.);
#370=ORIENTED_EDGE('',*,*,#287,.F.);
#371=ORIENTED_EDGE('',*,*,#288,.F.);
#372=ORIENTED_EDGE('',*,*,#281,.F.);
#373=ORIENTED_EDGE('',*,*,#277,.T.);
#374=ORIENTED_EDGE('',*,*,#285,.T.);
#375=ORIENTED_EDGE('',*,*,#289,.F.);
#376=ORIENTED_EDGE('',*,*,#290,.T.);
#377=ORIENTED_EDGE('',*,*,#279,.T.);
#378=ORIENTED_EDGE('',*,*,#290,.F.);
#379=ORIENTED_EDGE('',*,*,#291,.F.);
#380=ORIENTED_EDGE('',*,*,#292,.F.);
#381=ORIENTED_EDGE('',*,*,#293,.F.);
#382=ORIENTED_EDGE('',*,*,#260,.F.);
#383=ORIENTED_EDGE('',*,*,#294,.F.);
#384=ORIENTED_EDGE('',*,*,#295,.T.);
#385=ORIENTED_EDGE('',*,*,#296,.F.);
#386=ORIENTED_EDGE('',*,*,#292,.T.);
#387=ORIENTED_EDGE('',*,*,#297,.F.);
#388=ORIENTED_EDGE('',*,*,#298,.F.);
#389=ORIENTED_EDGE('',*,*,#299,.F.);
#390=ORIENTED_EDGE('',*,*,#295,.F.);
#391=ORIENTED_EDGE('',*,*,#289,.T.);
#392=ORIENTED_EDGE('',*,*,#283,.T.);
#393=ORIENTED_EDGE('',*,*,#300,.F.);
#394=ORIENTED_EDGE('',*,*,#294,.T.);
#395=ORIENTED_EDGE('',*,*,#301,.F.);
#396=ORIENTED_EDGE('',*,*,#287,.T.);
#397=ORIENTED_EDGE('',*,*,#302,.F.);
#398=ORIENTED_EDGE('',*,*,#296,.T.);
#399=ORIENTED_EDGE('',*,*,#303,.F.);
#400=ORIENTED_EDGE('',*,*,#286,.T.);
#401=ORIENTED_EDGE('',*,*,#261,.F.);
#402=ORIENTED_EDGE('',*,*,#293,.T.);
#403=ORIENTED_EDGE('',*,*,#302,.T.);
#404=ORIENTED_EDGE('',*,*,#299,.T.);
#405=ORIENTED_EDGE('',*,*,#304,.F.);
#406=ORIENTED_EDGE('',*,*,#284,.T.);
#407=ORIENTED_EDGE('',*,*,#303,.T.);
#408=ORIENTED_EDGE('',*,*,#304,.T.);
#409=ORIENTED_EDGE('',*,*,#298,.T.);
#410=ORIENTED_EDGE('',*,*,#305,.F.);
#411=ORIENTED_EDGE('',*,*,#288,.T.);
#412=ORIENTED_EDGE('',*,*,#282,.T.);
#413=ORIENTED_EDGE('',*,*,#305,.T.);
#414=ORIENTED_EDGE('',*,*,#297,.T.);
#415=ORIENTED_EDGE('',*,*,#300,.T.);
#416=ORIENTED_EDGE('',*,*,#291,.T.);
#417=ORIENTED_EDGE('',*,*,#259,.F.);
#418=ORIENTED_EDGE('',*,*,#280,.T.);
#419=ORIENTED_EDGE('',*,*,#301,.T.);
#420=ORIENTED_EDGE('',*,*,#306,.F.);
#421=ORIENTED_EDGE('',*,*,#275,.T.);
#422=ORIENTED_EDGE('',*,*,#307,.T.);
#423=ORIENTED_EDGE('',*,*,#306,.T.);
#424=ORIENTED_EDGE('',*,*,#307,.F.);
#425=ORIENTED_EDGE('',*,*,#308,.F.);
#426=ORIENTED_EDGE('',*,*,#272,.T.);
#427=ORIENTED_EDGE('',*,*,#309,.T.);
#428=ORIENTED_EDGE('',*,*,#308,.T.);
#429=ORIENTED_EDGE('',*,*,#309,.F.);
#430=CYLINDRICAL_SURFACE('',#486,2.05);
#431=CYLINDRICAL_SURFACE('',#489,2.05000000000001);
#432=CYLINDRICAL_SURFACE('',#492,2.05);
#433=CYLINDRICAL_SURFACE('',#496,2.05);
#434=CYLINDRICAL_SURFACE('',#500,1.55);
#435=CYLINDRICAL_SURFACE('',#503,2.05000000000001);
#436=CYLINDRICAL_SURFACE('',#507,2.05);
#437=CYLINDRICAL_SURFACE('',#516,15.);
#438=CYLINDRICAL_SURFACE('',#518,8.);
#439=CYLINDRICAL_SURFACE('',#533,1.55);
#440=CYLINDRICAL_SURFACE('',#536,1.55000000000001);
#441=ADVANCED_FACE('',(#43),#430,.F.);
#442=ADVANCED_FACE('',(#44),#431,.F.);
#443=ADVANCED_FACE('',(#45),#432,.F.);
#444=ADVANCED_FACE('',(#46,#16,#17,#18),#24,.F.);
#445=ADVANCED_FACE('',(#47),#433,.F.);
#446=ADVANCED_FACE('',(#48,#19),#25,.T.);
#447=ADVANCED_FACE('',(#49),#434,.F.);
#448=ADVANCED_FACE('',(#50),#26,.T.);
#449=ADVANCED_FACE('',(#51),#435,.F.);
#450=ADVANCED_FACE('',(#52,#20),#27,.T.);
#451=ADVANCED_FACE('',(#53),#436,.F.);
#452=ADVANCED_FACE('',(#54,#21),#28,.T.);
#453=ADVANCED_FACE('',(#55,#22),#29,.F.);
#454=ADVANCED_FACE('',(#56),#30,.T.);
#455=ADVANCED_FACE('',(#57),#31,.T.);
#456=ADVANCED_FACE('',(#58),#437,.T.);
#457=ADVANCED_FACE('',(#59),#438,.F.);
#458=ADVANCED_FACE('',(#60),#32,.T.);
#459=ADVANCED_FACE('',(#61),#33,.T.);
#460=ADVANCED_FACE('',(#62,#23),#34,.T.);
#461=ADVANCED_FACE('',(#63),#35,.T.);
#462=ADVANCED_FACE('',(#64),#36,.T.);
#463=ADVANCED_FACE('',(#65),#37,.T.);
#464=ADVANCED_FACE('',(#66),#38,.T.);
#465=ADVANCED_FACE('',(#67),#15,.T.);
#466=ADVANCED_FACE('',(#68),#39,.T.);
#467=ADVANCED_FACE('',(#69),#40,.T.);
#468=ADVANCED_FACE('',(#70),#41,.T.);
#469=ADVANCED_FACE('',(#71),#439,.F.);
#470=ADVANCED_FACE('',(#72),#42,.T.);
#471=ADVANCED_FACE('',(#73),#440,.F.);
#472=CLOSED_SHELL('',(#441,#442,#443,#444,#445,#446,#447,#448,#449,#450,
#451,#452,#453,#454,#455,#456,#457,#458,#459,#460,#461,#462,#463,#464,#465,
#466,#467,#468,#469,#470,#471));
#473=DERIVED_UNIT_ELEMENT(#475,1.);
#474=DERIVED_UNIT_ELEMENT(#815,-3.);
#475=(
MASS_UNIT()
NAMED_UNIT(*)
SI_UNIT(.KILO.,.GRAM.)
);
#476=DERIVED_UNIT((#473,#474));
#477=MEASURE_REPRESENTATION_ITEM('density measure',
POSITIVE_RATIO_MEASURE(7850.),#476);
#478=PROPERTY_DEFINITION_REPRESENTATION(#483,#480);
#479=PROPERTY_DEFINITION_REPRESENTATION(#484,#481);
#480=REPRESENTATION('material name',(#482),#812);
#481=REPRESENTATION('density',(#477),#812);
#482=DESCRIPTIVE_REPRESENTATION_ITEM('Steel','Steel');
#483=PROPERTY_DEFINITION('material property','material name',#822);
#484=PROPERTY_DEFINITION('material property','density of part',#822);
#485=AXIS2_PLACEMENT_3D('',#681,#537,#538);
#486=AXIS2_PLACEMENT_3D('',#682,#539,#540);
#487=AXIS2_PLACEMENT_3D('',#684,#541,#542);
#488=AXIS2_PLACEMENT_3D('',#687,#544,#545);
#489=AXIS2_PLACEMENT_3D('',#688,#546,#547);
#490=AXIS2_PLACEMENT_3D('',#690,#548,#549);
#491=AXIS2_PLACEMENT_3D('',#693,#551,#552);
#492=AXIS2_PLACEMENT_3D('',#694,#553,#554);
#493=AXIS2_PLACEMENT_3D('',#696,#555,#556);
#494=AXIS2_PLACEMENT_3D('',#699,#558,#559);
#495=AXIS2_PLACEMENT_3D('',#700,#560,#561);
#496=AXIS2_PLACEMENT_3D('',#713,#568,#569);
#497=AXIS2_PLACEMENT_3D('',#716,#571,#572);
#498=AXIS2_PLACEMENT_3D('',#717,#573,#574);
#499=AXIS2_PLACEMENT_3D('',#719,#575,#576);
#500=AXIS2_PLACEMENT_3D('',#720,#577,#578);
#501=AXIS2_PLACEMENT_3D('',#723,#580,#581);
#502=AXIS2_PLACEMENT_3D('',#724,#582,#583);
#503=AXIS2_PLACEMENT_3D('',#725,#584,#585);
#504=AXIS2_PLACEMENT_3D('',#728,#587,#588);
#505=AXIS2_PLACEMENT_3D('',#729,#589,#590);
#506=AXIS2_PLACEMENT_3D('',#731,#591,#592);
#507=AXIS2_PLACEMENT_3D('',#732,#593,#594);
#508=AXIS2_PLACEMENT_3D('',#735,#596,#597);
#509=AXIS2_PLACEMENT_3D('',#736,#598,#599);
#510=AXIS2_PLACEMENT_3D('',#738,#600,#601);
#511=AXIS2_PLACEMENT_3D('',#739,#602,#603);
#512=AXIS2_PLACEMENT_3D('',#743,#605,#606);
#513=AXIS2_PLACEMENT_3D('',#746,#608,#609);
#514=AXIS2_PLACEMENT_3D('',#747,#610,#611);
#515=AXIS2_PLACEMENT_3D('',#755,#616,#617);
#516=AXIS2_PLACEMENT_3D('',#763,#622,#623);
#517=AXIS2_PLACEMENT_3D('',#764,#624,#625);
#518=AXIS2_PLACEMENT_3D('',#765,#626,#627);
#519=AXIS2_PLACEMENT_3D('',#767,#628,#629);
#520=AXIS2_PLACEMENT_3D('',#769,#631,#632);
#521=AXIS2_PLACEMENT_3D('',#775,#636,#637);
#522=AXIS2_PLACEMENT_3D('',#781,#641,#642);
#523=AXIS2_PLACEMENT_3D('',#785,#644,#645);
#524=AXIS2_PLACEMENT_3D('',#787,#647,#648);
#525=AXIS2_PLACEMENT_3D('',#790,#651,#652);
#526=AXIS2_PLACEMENT_3D('',#793,#655,#656);
#527=AXIS2_PLACEMENT_3D('',#794,#657,#658);
#528=AXIS2_PLACEMENT_3D('',#796,#660,#661);
#529=AXIS2_PLACEMENT_3D('',#798,#663,#664);
#530=AXIS2_PLACEMENT_3D('',#799,#665,#666);
#531=AXIS2_PLACEMENT_3D('',#800,#667,#668);
#532=AXIS2_PLACEMENT_3D('',#802,#669,#670);
#533=AXIS2_PLACEMENT_3D('',#803,#671,#672);
#534=AXIS2_PLACEMENT_3D('',#805,#674,#675);
#535=AXIS2_PLACEMENT_3D('',#807,#676,#677);
#536=AXIS2_PLACEMENT_3D('',#808,#678,#679);
#537=DIRECTION('axis',(0.,0.,1.));
#538=DIRECTION('refdir',(1.,0.,0.));
#539=DIRECTION('center_axis',(0.,-1.,0.));
#540=DIRECTION('ref_axis',(1.,0.,0.));
#541=DIRECTION('center_axis',(0.,1.,0.));
#542=DIRECTION('ref_axis',(1.,0.,0.));
#543=DIRECTION('',(0.,1.,0.));
#544=DIRECTION('center_axis',(0.,1.,0.));
#545=DIRECTION('ref_axis',(1.,0.,0.));
#546=DIRECTION('center_axis',(0.,-1.,0.));
#547=DIRECTION('ref_axis',(1.,0.,0.));
#548=DIRECTION('center_axis',(0.,1.,0.));
#549=DIRECTION('ref_axis',(1.,0.,0.));
#550=DIRECTION('',(0.,1.,0.));
#551=DIRECTION('center_axis',(0.,1.,0.));
#552=DIRECTION('ref_axis',(1.,0.,0.));
#553=DIRECTION('center_axis',(0.,-1.,0.));
#554=DIRECTION('ref_axis',(1.,0.,0.));
#555=DIRECTION('center_axis',(0.,1.,0.));
#556=DIRECTION('ref_axis',(1.,0.,0.));
#557=DIRECTION('',(0.,1.,0.));
#558=DIRECTION('center_axis',(0.,1.,0.));
#559=DIRECTION('ref_axis',(1.,0.,0.));
#560=DIRECTION('center_axis',(0.,1.,0.));
#561=DIRECTION('ref_axis',(-1.22464679914735E-16,0.,1.));
#562=DIRECTION('',(0.707106781186551,0.,-0.707106781186544));
#563=DIRECTION('',(1.,0.,1.22464679914735E-16));
#564=DIRECTION('',(0.707106781186539,0.,0.707106781186556));
#565=DIRECTION('',(-1.22464679914735E-16,0.,1.));
#566=DIRECTION('',(-1.,0.,-1.22464679914735E-16));
#567=DIRECTION('',(1.22464679914735E-16,0.,-1.));
#568=DIRECTION('center_axis',(1.40413558916231E-9,1.,0.));
#569=DIRECTION('ref_axis',(1.,-1.40413558916231E-9,0.));
#570=DIRECTION('',(1.40413558916231E-9,1.,0.));
#571=DIRECTION('center_axis',(1.40413562721431E-9,1.,0.));
#572=DIRECTION('ref_axis',(1.,-1.40413562382948E-9,0.));
#573=DIRECTION('center_axis',(-1.40413562721431E-9,-1.,0.));
#574=DIRECTION('ref_axis',(1.,-1.40413562721431E-9,0.));
#575=DIRECTION('center_axis',(-1.40413562721431E-9,-1.,0.));
#576=DIRECTION('ref_axis',(-1.,1.40413562721431E-9,-1.22464679914735E-16));
#577=DIRECTION('center_axis',(0.,1.,0.));
#578=DIRECTION('ref_axis',(-1.,0.,-1.22464679914735E-16));
#579=DIRECTION('',(0.,1.,0.));
#580=DIRECTION('center_axis',(0.,1.,0.));
#581=DIRECTION('ref_axis',(-1.,0.,-1.22464679914735E-16));
#582=DIRECTION('center_axis',(0.,-1.,0.));
#583=DIRECTION('ref_axis',(-1.,0.,-1.22464679914735E-16));
#584=DIRECTION('center_axis',(1.40413558916231E-9,1.,0.));
#585=DIRECTION('ref_axis',(1.,-1.40413558916231E-9,0.));
#586=DIRECTION('',(1.40413558916231E-9,1.,0.));
#587=DIRECTION('center_axis',(1.4041356341532E-9,1.,0.));
#588=DIRECTION('ref_axis',(1.,-1.40413564075361E-9,0.));
#589=DIRECTION('center_axis',(-1.4041356341532E-9,-1.,0.));
#590=DIRECTION('ref_axis',(1.,-1.4041356341532E-9,0.));
#591=DIRECTION('center_axis',(-1.4041356341532E-9,-1.,0.));
#592=DIRECTION('ref_axis',(-1.,1.4041356341532E-9,-1.22464679914735E-16));
#593=DIRECTION('center_axis',(1.40413558916231E-9,1.,0.));
#594=DIRECTION('ref_axis',(1.,-1.40413558916231E-9,0.));
#595=DIRECTION('',(1.40413558916231E-9,1.,0.));
#596=DIRECTION('center_axis',(1.40413562721431E-9,1.,0.));
#597=DIRECTION('ref_axis',(1.,-1.40413562382948E-9,0.));
#598=DIRECTION('center_axis',(-1.40413562721431E-9,-1.,0.));
#599=DIRECTION('ref_axis',(1.,-1.40413562721431E-9,0.));
#600=DIRECTION('center_axis',(-1.40413562721431E-9,-1.,0.));
#601=DIRECTION('ref_axis',(-1.,1.40413562721431E-9,-1.22464679914735E-16));
#602=DIRECTION('center_axis',(1.22464679914735E-16,0.,-1.));
#603=DIRECTION('ref_axis',(1.,0.,1.22464679914735E-16));
#604=DIRECTION('',(0.,-1.,0.));
#605=DIRECTION('center_axis',(1.22464679914735E-16,0.,-1.));
#606=DIRECTION('ref_axis',(1.,0.,1.22464679914735E-16));
#607=DIRECTION('',(-8.31627733801615E-17,1.,-1.01845024228232E-32));
#608=DIRECTION('center_axis',(-1.22464679914735E-16,0.,1.));
#609=DIRECTION('ref_axis',(1.,0.,1.22464679914735E-16));
#610=DIRECTION('center_axis',(-1.,-8.31627733801615E-17,-1.22464679914735E-16));
#611=DIRECTION('ref_axis',(-8.31627733801615E-17,1.,-1.01845024228232E-32));
#612=DIRECTION('',(-8.31627733801615E-17,1.,-1.01845024228232E-32));
#613=DIRECTION('',(1.22464679914735E-16,0.,-1.));
#614=DIRECTION('',(-8.31627733801615E-17,1.,-1.01845024228232E-32));
#615=DIRECTION('',(-1.45400566622942E-16,0.707106781186548,0.707106781186548));
#616=DIRECTION('center_axis',(1.,-3.32651093520647E-16,1.22464679914735E-16));
#617=DIRECTION('ref_axis',(-3.32651093520647E-16,-1.,-4.07380096912927E-32));
#618=DIRECTION('',(-3.32651093520647E-16,-1.,-4.07380096912927E-32));
#619=DIRECTION('',(1.22464679914735E-16,0.,-1.));
#620=DIRECTION('',(-3.32651093520647E-16,-1.,-4.07380096912927E-32));
#621=DIRECTION('',(-1.48624238374021E-16,-0.707106781186547,-0.707106781186547));
#622=DIRECTION('center_axis',(1.22464679914735E-16,0.,-1.));
#623=DIRECTION('ref_axis',(1.,0.,1.22464679914735E-16));
#624=DIRECTION('center_axis',(1.22464679914735E-16,0.,-1.));
#625=DIRECTION('ref_axis',(1.,0.,1.22464679914735E-16));
#626=DIRECTION('center_axis',(1.22464679914735E-16,0.,-1.));
#627=DIRECTION('ref_axis',(1.,0.,1.22464679914735E-16));
#628=DIRECTION('center_axis',(-1.22464679914735E-16,0.,1.));
#629=DIRECTION('ref_axis',(1.,0.,1.22464679914735E-16));
#630=DIRECTION('',(-1.22464679914735E-16,0.,1.));
#631=DIRECTION('center_axis',(1.22464679914735E-16,0.,-1.));
#632=DIRECTION('ref_axis',(-1.,0.,-1.22464679914735E-16));
#633=DIRECTION('',(8.31627733801615E-17,-1.,1.01845024228232E-32));
#634=DIRECTION('',(-1.,0.,-1.22464679914735E-16));
#635=DIRECTION('',(3.32651093520647E-16,1.,4.07380096912927E-32));
#636=DIRECTION('center_axis',(8.65956056235493E-17,0.707106781186548,-0.707106781186548));
#637=DIRECTION('ref_axis',(-1.,0.,-1.22464679914735E-16));
#638=DIRECTION('',(1.45400566622942E-16,-0.707106781186548,-0.707106781186548));
#639=DIRECTION('',(1.,0.,1.22464679914735E-16));
#640=DIRECTION('',(1.48624238374021E-16,0.707106781186548,0.707106781186548));
#641=DIRECTION('center_axis',(1.22464679914735E-16,0.,-1.));
#642=DIRECTION('ref_axis',(1.,0.,1.22464679914735E-16));
#643=DIRECTION('',(8.31627733801615E-17,-1.,1.01845024228232E-32));
#644=DIRECTION('center_axis',(-1.22464679914735E-16,0.,1.));
#645=DIRECTION('ref_axis',(1.,0.,1.22464679914735E-16));
#646=DIRECTION('',(3.32651093520647E-16,1.,4.07380096912927E-32));
#647=DIRECTION('center_axis',(-0.707106781186545,0.500000000000002,-0.500000000000002));
#648=DIRECTION('ref_axis',(-0.577350269189629,0.,0.816496580927724));
#649=DIRECTION('',(-0.678598344545845,-0.281084637714843,0.678598344545839));
#650=DIRECTION('',(0.678598344545845,0.281084637714843,-0.678598344545839));
#651=DIRECTION('center_axis',(0.707106781186533,0.50000000000001,-0.500000000000011));
#652=DIRECTION('ref_axis',(-0.577350269189642,0.,-0.816496580927714));
#653=DIRECTION('',(0.678598344545839,-0.281084637714814,0.678598344545857));
#654=DIRECTION('',(-0.678598344545843,0.281084637714798,-0.67859834454586));
#655=DIRECTION('center_axis',(0.707106781186556,-2.35219843997573E-16,-0.707106781186539));
#656=DIRECTION('ref_axis',(-0.707106781186539,0.,-0.707106781186556));
#657=DIRECTION('center_axis',(0.707106781186555,-2.35219843997572E-16,-0.70710678118654));
#658=DIRECTION('ref_axis',(-0.70710678118654,0.,-0.707106781186555));
#659=DIRECTION('',(-0.707106781186549,0.,-0.707106781186546));
#660=DIRECTION('center_axis',(0.,0.,1.));
#661=DIRECTION('ref_axis',(1.,0.,1.22464679914735E-16));
#662=DIRECTION('',(0.707106781186551,0.,-0.707106781186544));
#663=DIRECTION('center_axis',(-0.707106781186544,-5.88049609993921E-17,
-0.707106781186551));
#664=DIRECTION('ref_axis',(-0.707106781186551,0.,0.707106781186544));
#665=DIRECTION('center_axis',(-0.707106781186544,-5.88049609993921E-17,
-0.707106781186551));
#666=DIRECTION('ref_axis',(-0.707106781186551,0.,0.707106781186544));
#667=DIRECTION('center_axis',(0.,-1.,0.));
#668=DIRECTION('ref_axis',(-1.,0.,-1.22464679914735E-16));
#669=DIRECTION('center_axis',(0.,1.,0.));
#670=DIRECTION('ref_axis',(-1.,0.,-1.22464679914735E-16));
#671=DIRECTION('center_axis',(0.,1.,0.));
#672=DIRECTION('ref_axis',(-1.,0.,-1.22464679914735E-16));
#673=DIRECTION('',(0.,1.,0.));
#674=DIRECTION('center_axis',(0.,-1.,0.));
#675=DIRECTION('ref_axis',(-1.,0.,-1.22464679914735E-16));
#676=DIRECTION('center_axis',(0.,1.,0.));
#677=DIRECTION('ref_axis',(-1.,0.,-1.22464679914735E-16));
#678=DIRECTION('center_axis',(0.,1.,0.));
#679=DIRECTION('ref_axis',(-1.,0.,-1.22464679914735E-16));
#680=DIRECTION('',(0.,1.,0.));
#681=CARTESIAN_POINT('',(0.,0.,0.));
#682=CARTESIAN_POINT('Origin',(-19.9399999928389,140.000002533197,132.981729985377));
#683=CARTESIAN_POINT('',(-21.9899999928389,135.000002533197,132.981729985377));
#684=CARTESIAN_POINT('Origin',(-19.9399999928389,135.000002533197,132.981729985377));
#685=CARTESIAN_POINT('',(-21.9899999928389,140.000002533197,132.981729985377));
#686=CARTESIAN_POINT('',(-21.9899999928389,140.000002533197,132.981729985377));
#687=CARTESIAN_POINT('Origin',(-19.9399999928389,140.000002533197,132.981729985377));
#688=CARTESIAN_POINT('Origin',(-29.9399999928389,140.000002533197,132.981729985377));
#689=CARTESIAN_POINT('',(-31.9899999928389,135.000002533197,132.981729985377));
#690=CARTESIAN_POINT('Origin',(-29.9399999928389,135.000002533197,132.981729985377));
#691=CARTESIAN_POINT('',(-31.9899999928389,140.000002533197,132.981729985377));
#692=CARTESIAN_POINT('',(-31.9899999928389,140.000002533197,132.981729985377));
#693=CARTESIAN_POINT('Origin',(-29.9399999928389,140.000002533197,132.981729985377));
#694=CARTESIAN_POINT('Origin',(-39.9399999928389,140.000002533197,132.981729985377));
#695=CARTESIAN_POINT('',(-41.9899999928389,135.000002533197,132.981729985377));
#696=CARTESIAN_POINT('Origin',(-39.9399999928389,135.000002533197,132.981729985377));
#697=CARTESIAN_POINT('',(-41.9899999928389,140.000002533197,132.981729985377));
#698=CARTESIAN_POINT('',(-41.9899999928389,140.000002533197,132.981729985377));
#699=CARTESIAN_POINT('Origin',(-39.9399999928389,140.000002533197,132.981729985377));
#700=CARTESIAN_POINT('Origin',(-44.94,135.000002533197,128.981729985377));
#701=CARTESIAN_POINT('',(-44.94,135.000002533197,129.981729985377));
#702=CARTESIAN_POINT('',(-43.94,135.000002533197,128.981729985377));
#703=CARTESIAN_POINT('',(-44.44,135.000002533197,129.481729985377));
#704=CARTESIAN_POINT('',(-15.94,135.000002533197,128.981729985377));
#705=CARTESIAN_POINT('',(-37.4399968667007,135.000002533197,128.981729985377));
#706=CARTESIAN_POINT('',(-14.94,135.000002533197,129.981729985377));
#707=CARTESIAN_POINT('',(-22.9399999999998,135.000002533197,121.981729985377));
#708=CARTESIAN_POINT('',(-14.94,135.000002533197,136.981729985377));
#709=CARTESIAN_POINT('',(-14.94,135.000002533197,135.731729985377));
#710=CARTESIAN_POINT('',(-44.94,135.000002533197,136.981729985377));
#711=CARTESIAN_POINT('',(-37.44,135.000002533197,136.981729985377));
#712=CARTESIAN_POINT('',(-44.94,135.000002533197,135.731729985377));
#713=CARTESIAN_POINT('Origin',(-39.94,134.900000065879,132.981729985377));
#714=CARTESIAN_POINT('',(-41.9899999782359,150.400000068758,132.981729985377));
#715=CARTESIAN_POINT('',(-41.99,134.900000068758,132.981729985377));
#716=CARTESIAN_POINT('Origin',(-39.9399999782359,150.400000065879,132.981729985377));
#717=CARTESIAN_POINT('Origin',(-39.9399999782359,150.400000065879,132.981729985377));
#718=CARTESIAN_POINT('',(-38.39,150.400000063703,132.981729985377));
#719=CARTESIAN_POINT('Origin',(-39.94,150.400000065879,132.981729985377));
#720=CARTESIAN_POINT('Origin',(-39.94,134.9,132.981729985377));
#721=CARTESIAN_POINT('',(-38.39,151.9,132.981729985377));
#722=CARTESIAN_POINT('',(-38.39,134.9,132.981729985377));
#723=CARTESIAN_POINT('Origin',(-39.94,151.9,132.981729985377));
#724=CARTESIAN_POINT('Origin',(-39.94,151.9,132.981729985377));
#725=CARTESIAN_POINT('Origin',(-29.94,134.900000051838,132.981729985377));
#726=CARTESIAN_POINT('',(-31.9899999782359,150.400000054716,132.981729985377));
#727=CARTESIAN_POINT('',(-31.99,134.900000054716,132.981729985377));
#728=CARTESIAN_POINT('Origin',(-29.9399999782359,150.400000051838,132.981729985377));
#729=CARTESIAN_POINT('Origin',(-29.9399999782359,150.400000051838,132.981729985377));
#730=CARTESIAN_POINT('',(-28.39,150.400000049661,132.981729985377));
#731=CARTESIAN_POINT('Origin',(-29.94,150.400000051838,132.981729985377));
#732=CARTESIAN_POINT('Origin',(-19.94,134.900000037797,132.981729985377));
#733=CARTESIAN_POINT('',(-21.9899999782359,150.400000040675,132.981729985377));
#734=CARTESIAN_POINT('',(-21.99,134.900000040675,132.981729985377));
#735=CARTESIAN_POINT('Origin',(-19.9399999782359,150.400000037797,132.981729985377));
#736=CARTESIAN_POINT('Origin',(-19.9399999782359,150.400000037797,132.981729985377));
#737=CARTESIAN_POINT('',(-18.39,150.40000003562,132.981729985377));
#738=CARTESIAN_POINT('Origin',(-19.94,150.400000037797,132.981729985377));
#739=CARTESIAN_POINT('Origin',(-29.94,160.85,136.981729985377));
#740=CARTESIAN_POINT('',(-14.94,166.7,136.981729985377));
#741=CARTESIAN_POINT('',(-14.94,141.000002533197,136.981729985377));
#742=CARTESIAN_POINT('',(-44.94,166.7,136.981729985377));
#743=CARTESIAN_POINT('Origin',(-29.94,166.7,136.981729985377));
#744=CARTESIAN_POINT('',(-44.94,150.425,136.981729985377));
#745=CARTESIAN_POINT('',(-37.94,166.7,136.981729985377));
#746=CARTESIAN_POINT('Origin',(-29.94,166.7,136.981729985377));
#747=CARTESIAN_POINT('Origin',(-44.94,140.,142.481729985377));
#748=CARTESIAN_POINT('',(-44.94,150.485786437627,129.981729985377));
#749=CARTESIAN_POINT('',(-44.94,141.2,129.981729985377));
#750=CARTESIAN_POINT('',(-44.94,166.7,133.481729985377));
#751=CARTESIAN_POINT('',(-44.94,166.7,142.481729985377));
#752=CARTESIAN_POINT('',(-44.94,153.985786437627,133.481729985377));
#753=CARTESIAN_POINT('',(-44.94,150.425,133.481729985377));
#754=CARTESIAN_POINT('',(-44.94,151.717893218813,131.213836766563));
#755=CARTESIAN_POINT('Origin',(-14.94,166.7,142.481729985377));
#756=CARTESIAN_POINT('',(-14.94,166.7,133.481729985377));
#757=CARTESIAN_POINT('',(-14.94,153.985786437627,133.481729985377));
#758=CARTESIAN_POINT('',(-14.94,163.775,133.481729985377));
#759=CARTESIAN_POINT('',(-14.94,166.7,142.481729985377));
#760=CARTESIAN_POINT('',(-14.94,150.485786437627,129.981729985377));
#761=CARTESIAN_POINT('',(-14.94,154.55,129.981729985377));
#762=CARTESIAN_POINT('',(-14.94,158.392893218813,137.888836766563));
#763=CARTESIAN_POINT('Origin',(-29.94,166.7,142.481729985377));
#764=CARTESIAN_POINT('Origin',(-29.94,166.7,133.481729985377));
#765=CARTESIAN_POINT('Origin',(-29.94,166.7,142.481729985377));
#766=CARTESIAN_POINT('',(-37.94,166.7,132.481729985377));
#767=CARTESIAN_POINT('Origin',(-29.94,166.7,132.481729985377));
#768=CARTESIAN_POINT('',(-37.94,166.7,142.481729985377));
#769=CARTESIAN_POINT('Origin',(-29.9399937334013,142.4,128.981729985377));
#770=CARTESIAN_POINT('',(-43.94,150.9,128.981729985377));
#771=CARTESIAN_POINT('',(-43.94,141.2,128.981729985377));
#772=CARTESIAN_POINT('',(-15.94,150.9,128.981729985377));
#773=CARTESIAN_POINT('',(-44.94,150.9,128.981729985377));
#774=CARTESIAN_POINT('',(-15.94,154.55,128.981729985377));
#775=CARTESIAN_POINT('Origin',(-37.44,152.65,130.731729985377));
#776=CARTESIAN_POINT('',(-43.94,154.4,132.481729985377));
#777=CARTESIAN_POINT('',(-43.94,152.425,130.506729985377));
#778=CARTESIAN_POINT('',(-15.94,154.4,132.481729985377));
#779=CARTESIAN_POINT('',(-37.44,154.4,132.481729985377));
#780=CARTESIAN_POINT('',(-15.94,159.1,137.181729985377));
#781=CARTESIAN_POINT('Origin',(-29.94,160.85,132.481729985377));
#782=CARTESIAN_POINT('',(-43.94,166.7,132.481729985377));
#783=CARTESIAN_POINT('',(-43.94,150.425,132.481729985377));
#784=CARTESIAN_POINT('',(-15.94,166.7,132.481729985377));
#785=CARTESIAN_POINT('Origin',(-29.94,166.7,132.481729985377));
#786=CARTESIAN_POINT('',(-15.94,163.775,132.481729985377));
#787=CARTESIAN_POINT('Origin',(-44.44,152.071446609407,130.86028337597));
#788=CARTESIAN_POINT('',(-43.94,154.4,132.481729985377));
#789=CARTESIAN_POINT('',(-44.94,150.485786437627,129.981729985377));
#790=CARTESIAN_POINT('Origin',(-15.44,158.746446609407,137.53528337597));
#791=CARTESIAN_POINT('',(-15.94,150.9,128.981729985377));
#792=CARTESIAN_POINT('',(-14.94,153.985786437627,133.481729985377));
#793=CARTESIAN_POINT('Origin',(-15.44,154.55,129.481729985377));
#794=CARTESIAN_POINT('Origin',(-15.44,163.775,132.981729985377));
#795=CARTESIAN_POINT('',(-14.94,166.7,133.481729985377));
#796=CARTESIAN_POINT('Origin',(-29.94,166.7,132.981729985377));
#797=CARTESIAN_POINT('',(-44.94,166.7,133.481729985377));
#798=CARTESIAN_POINT('Origin',(-44.44,150.425,132.981729985377));
#799=CARTESIAN_POINT('Origin',(-44.44,141.2,129.481729985377));
#800=CARTESIAN_POINT('Origin',(-19.94,151.9,132.981729985377));
#801=CARTESIAN_POINT('',(-18.39,151.9,132.981729985377));
#802=CARTESIAN_POINT('Origin',(-19.94,151.9,132.981729985377));
#803=CARTESIAN_POINT('Origin',(-19.94,134.9,132.981729985377));
#804=CARTESIAN_POINT('',(-18.39,134.9,132.981729985377));
#805=CARTESIAN_POINT('Origin',(-29.94,151.9,132.981729985377));
#806=CARTESIAN_POINT('',(-28.39,151.9,132.981729985377));
#807=CARTESIAN_POINT('Origin',(-29.94,151.9,132.981729985377));
#808=CARTESIAN_POINT('Origin',(-29.94,134.9,132.981729985377));
#809=CARTESIAN_POINT('',(-28.39,134.9,132.981729985377));
#810=UNCERTAINTY_MEASURE_WITH_UNIT(LENGTH_MEASURE(0.01),#814,
'DISTANCE_ACCURACY_VALUE',
'Maximum model space distance between geometric entities at asserted c
onnectivities');
#811=UNCERTAINTY_MEASURE_WITH_UNIT(LENGTH_MEASURE(0.01),#814,
'DISTANCE_ACCURACY_VALUE',
'Maximum model space distance between geometric entities at asserted c
onnectivities');
#812=(
GEOMETRIC_REPRESENTATION_CONTEXT(3)
GLOBAL_UNCERTAINTY_ASSIGNED_CONTEXT((#810))
GLOBAL_UNIT_ASSIGNED_CONTEXT((#814,#816,#817))
REPRESENTATION_CONTEXT('','3D')
);
#813=(
GEOMETRIC_REPRESENTATION_CONTEXT(3)
GLOBAL_UNCERTAINTY_ASSIGNED_CONTEXT((#811))
GLOBAL_UNIT_ASSIGNED_CONTEXT((#814,#816,#817))
REPRESENTATION_CONTEXT('','3D')
);
#814=(
LENGTH_UNIT()
NAMED_UNIT(*)
SI_UNIT(.MILLI.,.METRE.)
);
#815=(
LENGTH_UNIT()
NAMED_UNIT(*)
SI_UNIT($,.METRE.)
);
#816=(
NAMED_UNIT(*)
PLANE_ANGLE_UNIT()
SI_UNIT($,.RADIAN.)
);
#817=(
NAMED_UNIT(*)
SI_UNIT($,.STERADIAN.)
SOLID_ANGLE_UNIT()
);
#818=SHAPE_DEFINITION_REPRESENTATION(#819,#820);
#819=PRODUCT_DEFINITION_SHAPE('',$,#822);
#820=SHAPE_REPRESENTATION('',(#485),#812);
#821=PRODUCT_DEFINITION_CONTEXT('part definition',#826,'design');
#822=PRODUCT_DEFINITION('Upper Leg upper hoop bottom',
'Upper Leg upper hoop bottom',#823,#821);
#823=PRODUCT_DEFINITION_FORMATION('',$,#828);
#824=PRODUCT_RELATED_PRODUCT_CATEGORY('Upper Leg upper hoop bottom',
'Upper Leg upper hoop bottom',(#828));
#825=APPLICATION_PROTOCOL_DEFINITION('international standard',
'automotive_design',2009,#826);
#826=APPLICATION_CONTEXT(
'Core Data for Automotive Mechanical Design Process');
#827=PRODUCT_CONTEXT('part definition',#826,'mechanical');
#828=PRODUCT('Upper Leg upper hoop bottom',
'Upper Leg upper hoop bottom',$,(#827));
#829=PRESENTATION_STYLE_ASSIGNMENT((#831));
#830=PRESENTATION_STYLE_ASSIGNMENT((#832));
#831=SURFACE_STYLE_USAGE(.BOTH.,#833);
#832=SURFACE_STYLE_USAGE(.BOTH.,#834);
#833=SURFACE_SIDE_STYLE('',(#835));
#834=SURFACE_SIDE_STYLE('',(#836));
#835=SURFACE_STYLE_FILL_AREA(#837);
#836=SURFACE_STYLE_FILL_AREA(#838);
#837=FILL_AREA_STYLE('Steel - Satin',(#839));
#838=FILL_AREA_STYLE('ABS (White)',(#840));
#839=FILL_AREA_STYLE_COLOUR('Steel - Satin',#841);
#840=FILL_AREA_STYLE_COLOUR('ABS (White)',#842);
#841=COLOUR_RGB('Steel - Satin',0.627450980392157,0.627450980392157,0.627450980392157);
#842=COLOUR_RGB('ABS (White)',0.964705882352941,0.964705882352941,0.952941176470588);
ENDSEC;
END-ISO-10303-21;
