ISO-10303-21;
HEADER;
/* Generated by software containing ST-Developer
 * from STEP Tools, Inc. (www.steptools.com) 
 */

FILE_DESCRIPTION(
/* description */ (''),
/* implementation_level */ '2;1');

FILE_NAME(
/* name */ 'battery holder.step',
/* time_stamp */ '2025-12-22T09:30:57+01:00',
/* author */ (''),
/* organization */ (''),
/* preprocessor_version */ 'ST-DEVELOPER v20.1',
/* originating_system */ 'Autodesk Translation Framework v14.21.0.0',
/* authorisation */ '');

FILE_SCHEMA (('AUTOMOTIVE_DESIGN { 1 0 10303 214 3 1 1 }'));
ENDSEC;

DATA;
#10=MECHANICAL_DESIGN_GEOMETRIC_PRESENTATION_REPRESENTATION('',(#13),#2169);
#11=SHAPE_REPRESENTATION_RELATIONSHIP('SRR','None',#2176,#12);
#12=ADVANCED_BREP_SHAPE_REPRESENTATION('',(#14),#2168);
#13=STYLED_ITEM('',(#2186),#14);
#14=MANIFOLD_SOLID_BREP('battery holder',#1357);
#15=CYLINDRICAL_SURFACE('',#1408,1.6);
#16=CYLINDRICAL_SURFACE('',#1411,1.60000000000001);
#17=CYLINDRICAL_SURFACE('',#1433,1.59999999999999);
#18=CYLINDRICAL_SURFACE('',#1435,1.6);
#19=CYLINDRICAL_SURFACE('',#1439,1.60000000000001);
#20=CYLINDRICAL_SURFACE('',#1441,1.59999999999998);
#21=CIRCLE('',#1373,1.59999999999999);
#22=CIRCLE('',#1374,1.6);
#23=CIRCLE('',#1375,1.60000000000001);
#24=CIRCLE('',#1376,1.59999999999998);
#25=CIRCLE('',#1395,1.60000000000001);
#26=CIRCLE('',#1397,1.6);
#27=CIRCLE('',#1399,1.60000000000001);
#28=CIRCLE('',#1406,1.6);
#29=CIRCLE('',#1426,1.60000000000001);
#30=CIRCLE('',#1432,1.59999999999999);
#31=CIRCLE('',#1436,1.6);
#32=CIRCLE('',#1442,1.59999999999998);
#33=FACE_BOUND('',#113,.T.);
#34=FACE_BOUND('',#114,.T.);
#35=FACE_BOUND('',#115,.T.);
#36=FACE_BOUND('',#116,.T.);
#37=FACE_BOUND('',#117,.T.);
#38=FACE_BOUND('',#138,.T.);
#39=FACE_BOUND('',#145,.T.);
#40=FACE_BOUND('',#165,.T.);
#41=FACE_BOUND('',#171,.T.);
#42=FACE_BOUND('',#177,.T.);
#43=FACE_BOUND('',#183,.T.);
#44=FACE_OUTER_BOUND('',#111,.T.);
#45=FACE_OUTER_BOUND('',#112,.T.);
#46=FACE_OUTER_BOUND('',#118,.T.);
#47=FACE_OUTER_BOUND('',#119,.T.);
#48=FACE_OUTER_BOUND('',#120,.T.);
#49=FACE_OUTER_BOUND('',#121,.T.);
#50=FACE_OUTER_BOUND('',#122,.T.);
#51=FACE_OUTER_BOUND('',#123,.T.);
#52=FACE_OUTER_BOUND('',#124,.T.);
#53=FACE_OUTER_BOUND('',#125,.T.);
#54=FACE_OUTER_BOUND('',#126,.T.);
#55=FACE_OUTER_BOUND('',#127,.T.);
#56=FACE_OUTER_BOUND('',#128,.T.);
#57=FACE_OUTER_BOUND('',#129,.T.);
#58=FACE_OUTER_BOUND('',#130,.T.);
#59=FACE_OUTER_BOUND('',#131,.T.);
#60=FACE_OUTER_BOUND('',#132,.T.);
#61=FACE_OUTER_BOUND('',#133,.T.);
#62=FACE_OUTER_BOUND('',#134,.T.);
#63=FACE_OUTER_BOUND('',#135,.T.);
#64=FACE_OUTER_BOUND('',#136,.T.);
#65=FACE_OUTER_BOUND('',#137,.T.);
#66=FACE_OUTER_BOUND('',#139,.T.);
#67=FACE_OUTER_BOUND('',#140,.T.);
#68=FACE_OUTER_BOUND('',#141,.T.);
#69=FACE_OUTER_BOUND('',#142,.T.);
#70=FACE_OUTER_BOUND('',#143,.T.);
#71=FACE_OUTER_BOUND('',#144,.T.);
#72=FACE_OUTER_BOUND('',#146,.T.);
#73=FACE_OUTER_BOUND('',#147,.T.);
#74=FACE_OUTER_BOUND('',#148,.T.);
#75=FACE_OUTER_BOUND('',#149,.T.);
#76=FACE_OUTER_BOUND('',#150,.T.);
#77=FACE_OUTER_BOUND('',#151,.T.);
#78=FACE_OUTER_BOUND('',#152,.T.);
#79=FACE_OUTER_BOUND('',#153,.T.);
#80=FACE_OUTER_BOUND('',#154,.T.);
#81=FACE_OUTER_BOUND('',#155,.T.);
#82=FACE_OUTER_BOUND('',#156,.T.);
#83=FACE_OUTER_BOUND('',#157,.T.);
#84=FACE_OUTER_BOUND('',#158,.T.);
#85=FACE_OUTER_BOUND('',#159,.T.);
#86=FACE_OUTER_BOUND('',#160,.T.);
#87=FACE_OUTER_BOUND('',#161,.T.);
#88=FACE_OUTER_BOUND('',#162,.T.);
#89=FACE_OUTER_BOUND('',#163,.T.);
#90=FACE_OUTER_BOUND('',#164,.T.);
#91=FACE_OUTER_BOUND('',#166,.T.);
#92=FACE_OUTER_BOUND('',#167,.T.);
#93=FACE_OUTER_BOUND('',#168,.T.);
#94=FACE_OUTER_BOUND('',#169,.T.);
#95=FACE_OUTER_BOUND('',#170,.T.);
#96=FACE_OUTER_BOUND('',#172,.T.);
#97=FACE_OUTER_BOUND('',#173,.T.);
#98=FACE_OUTER_BOUND('',#174,.T.);
#99=FACE_OUTER_BOUND('',#175,.T.);
#100=FACE_OUTER_BOUND('',#176,.T.);
#101=FACE_OUTER_BOUND('',#178,.T.);
#102=FACE_OUTER_BOUND('',#179,.T.);
#103=FACE_OUTER_BOUND('',#180,.T.);
#104=FACE_OUTER_BOUND('',#181,.T.);
#105=FACE_OUTER_BOUND('',#182,.T.);
#106=FACE_OUTER_BOUND('',#184,.T.);
#107=FACE_OUTER_BOUND('',#185,.T.);
#108=FACE_OUTER_BOUND('',#186,.T.);
#109=FACE_OUTER_BOUND('',#187,.T.);
#110=FACE_OUTER_BOUND('',#188,.T.);
#111=EDGE_LOOP('',(#853,#854,#855,#856));
#112=EDGE_LOOP('',(#857,#858,#859,#860,#861,#862,#863,#864,#865,#866,#867,
#868,#869,#870,#871,#872,#873,#874,#875,#876,#877,#878,#879,#880,#881,#882,
#883,#884,#885,#886,#887,#888));
#113=EDGE_LOOP('',(#889,#890,#891,#892));
#114=EDGE_LOOP('',(#893));
#115=EDGE_LOOP('',(#894));
#116=EDGE_LOOP('',(#895));
#117=EDGE_LOOP('',(#896));
#118=EDGE_LOOP('',(#897,#898,#899,#900));
#119=EDGE_LOOP('',(#901,#902,#903,#904));
#120=EDGE_LOOP('',(#905,#906,#907,#908));
#121=EDGE_LOOP('',(#909,#910,#911,#912));
#122=EDGE_LOOP('',(#913,#914,#915,#916));
#123=EDGE_LOOP('',(#917,#918,#919,#920));
#124=EDGE_LOOP('',(#921,#922,#923,#924));
#125=EDGE_LOOP('',(#925,#926,#927,#928));
#126=EDGE_LOOP('',(#929,#930,#931,#932));
#127=EDGE_LOOP('',(#933,#934,#935,#936));
#128=EDGE_LOOP('',(#937,#938,#939,#940));
#129=EDGE_LOOP('',(#941,#942,#943,#944));
#130=EDGE_LOOP('',(#945,#946,#947,#948));
#131=EDGE_LOOP('',(#949,#950,#951,#952));
#132=EDGE_LOOP('',(#953,#954,#955,#956));
#133=EDGE_LOOP('',(#957,#958,#959,#960));
#134=EDGE_LOOP('',(#961,#962,#963,#964));
#135=EDGE_LOOP('',(#965));
#136=EDGE_LOOP('',(#966));
#137=EDGE_LOOP('',(#967,#968,#969,#970,#971,#972,#973,#974,#975,#976,#977,
#978,#979,#980));
#138=EDGE_LOOP('',(#981));
#139=EDGE_LOOP('',(#982,#983,#984,#985));
#140=EDGE_LOOP('',(#986,#987,#988,#989));
#141=EDGE_LOOP('',(#990,#991,#992,#993));
#142=EDGE_LOOP('',(#994,#995,#996,#997));
#143=EDGE_LOOP('',(#998,#999,#1000,#1001,#1002,#1003,#1004,#1005,#1006,
#1007,#1008,#1009));
#144=EDGE_LOOP('',(#1010,#1011,#1012,#1013,#1014,#1015,#1016,#1017,#1018,
#1019,#1020,#1021,#1022,#1023));
#145=EDGE_LOOP('',(#1024));
#146=EDGE_LOOP('',(#1025,#1026,#1027,#1028,#1029,#1030,#1031,#1032,#1033,
#1034,#1035,#1036,#1037,#1038,#1039,#1040));
#147=EDGE_LOOP('',(#1041,#1042,#1043,#1044));
#148=EDGE_LOOP('',(#1045,#1046,#1047,#1048,#1049,#1050));
#149=EDGE_LOOP('',(#1051,#1052,#1053,#1054,#1055,#1056,#1057,#1058,#1059,
#1060));
#150=EDGE_LOOP('',(#1061,#1062,#1063,#1064));
#151=EDGE_LOOP('',(#1065,#1066,#1067,#1068,#1069,#1070));
#152=EDGE_LOOP('',(#1071,#1072,#1073,#1074));
#153=EDGE_LOOP('',(#1075,#1076,#1077,#1078));
#154=EDGE_LOOP('',(#1079,#1080,#1081,#1082));
#155=EDGE_LOOP('',(#1083,#1084,#1085,#1086));
#156=EDGE_LOOP('',(#1087,#1088,#1089,#1090));
#157=EDGE_LOOP('',(#1091,#1092,#1093,#1094));
#158=EDGE_LOOP('',(#1095,#1096,#1097,#1098));
#159=EDGE_LOOP('',(#1099,#1100,#1101,#1102));
#160=EDGE_LOOP('',(#1103,#1104,#1105,#1106));
#161=EDGE_LOOP('',(#1107,#1108,#1109,#1110));
#162=EDGE_LOOP('',(#1111,#1112,#1113,#1114));
#163=EDGE_LOOP('',(#1115,#1116,#1117,#1118));
#164=EDGE_LOOP('',(#1119,#1120,#1121,#1122,#1123));
#165=EDGE_LOOP('',(#1124));
#166=EDGE_LOOP('',(#1125,#1126,#1127,#1128));
#167=EDGE_LOOP('',(#1129,#1130,#1131,#1132));
#168=EDGE_LOOP('',(#1133,#1134,#1135,#1136));
#169=EDGE_LOOP('',(#1137,#1138,#1139,#1140));
#170=EDGE_LOOP('',(#1141,#1142,#1143,#1144,#1145));
#171=EDGE_LOOP('',(#1146));
#172=EDGE_LOOP('',(#1147,#1148,#1149,#1150));
#173=EDGE_LOOP('',(#1151,#1152,#1153,#1154));
#174=EDGE_LOOP('',(#1155,#1156,#1157,#1158));
#175=EDGE_LOOP('',(#1159,#1160,#1161,#1162));
#176=EDGE_LOOP('',(#1163,#1164,#1165,#1166,#1167));
#177=EDGE_LOOP('',(#1168));
#178=EDGE_LOOP('',(#1169,#1170,#1171,#1172));
#179=EDGE_LOOP('',(#1173,#1174,#1175,#1176));
#180=EDGE_LOOP('',(#1177,#1178,#1179,#1180));
#181=EDGE_LOOP('',(#1181,#1182,#1183,#1184));
#182=EDGE_LOOP('',(#1185,#1186,#1187,#1188,#1189));
#183=EDGE_LOOP('',(#1190));
#184=EDGE_LOOP('',(#1191,#1192,#1193,#1194));
#185=EDGE_LOOP('',(#1195,#1196,#1197,#1198,#1199,#1200,#1201,#1202,#1203,
#1204));
#186=EDGE_LOOP('',(#1205,#1206,#1207,#1208,#1209,#1210,#1211,#1212,#1213,
#1214));
#187=EDGE_LOOP('',(#1215,#1216,#1217,#1218));
#188=EDGE_LOOP('',(#1219,#1220,#1221,#1222,#1223,#1224,#1225,#1226,#1227,
#1228));
#189=LINE('',#1790,#365);
#190=LINE('',#1792,#366);
#191=LINE('',#1794,#367);
#192=LINE('',#1795,#368);
#193=LINE('',#1799,#369);
#194=LINE('',#1801,#370);
#195=LINE('',#1803,#371);
#196=LINE('',#1805,#372);
#197=LINE('',#1807,#373);
#198=LINE('',#1809,#374);
#199=LINE('',#1811,#375);
#200=LINE('',#1813,#376);
#201=LINE('',#1815,#377);
#202=LINE('',#1817,#378);
#203=LINE('',#1819,#379);
#204=LINE('',#1821,#380);
#205=LINE('',#1823,#381);
#206=LINE('',#1825,#382);
#207=LINE('',#1827,#383);
#208=LINE('',#1829,#384);
#209=LINE('',#1831,#385);
#210=LINE('',#1833,#386);
#211=LINE('',#1835,#387);
#212=LINE('',#1837,#388);
#213=LINE('',#1839,#389);
#214=LINE('',#1841,#390);
#215=LINE('',#1843,#391);
#216=LINE('',#1845,#392);
#217=LINE('',#1847,#393);
#218=LINE('',#1849,#394);
#219=LINE('',#1851,#395);
#220=LINE('',#1852,#396);
#221=LINE('',#1854,#397);
#222=LINE('',#1856,#398);
#223=LINE('',#1857,#399);
#224=LINE('',#1860,#400);
#225=LINE('',#1862,#401);
#226=LINE('',#1864,#402);
#227=LINE('',#1865,#403);
#228=LINE('',#1876,#404);
#229=LINE('',#1878,#405);
#230=LINE('',#1879,#406);
#231=LINE('',#1882,#407);
#232=LINE('',#1883,#408);
#233=LINE('',#1886,#409);
#234=LINE('',#1887,#410);
#235=LINE('',#1889,#411);
#236=LINE('',#1892,#412);
#237=LINE('',#1894,#413);
#238=LINE('',#1895,#414);
#239=LINE('',#1898,#415);
#240=LINE('',#1900,#416);
#241=LINE('',#1901,#417);
#242=LINE('',#1904,#418);
#243=LINE('',#1905,#419);
#244=LINE('',#1908,#420);
#245=LINE('',#1909,#421);
#246=LINE('',#1911,#422);
#247=LINE('',#1915,#423);
#248=LINE('',#1916,#424);
#249=LINE('',#1917,#425);
#250=LINE('',#1920,#426);
#251=LINE('',#1921,#427);
#252=LINE('',#1925,#428);
#253=LINE('',#1926,#429);
#254=LINE('',#1927,#430);
#255=LINE('',#1930,#431);
#256=LINE('',#1931,#432);
#257=LINE('',#1935,#433);
#258=LINE('',#1936,#434);
#259=LINE('',#1937,#435);
#260=LINE('',#1940,#436);
#261=LINE('',#1941,#437);
#262=LINE('',#1945,#438);
#263=LINE('',#1946,#439);
#264=LINE('',#1947,#440);
#265=LINE('',#1950,#441);
#266=LINE('',#1951,#442);
#267=LINE('',#1961,#443);
#268=LINE('',#1963,#444);
#269=LINE('',#1965,#445);
#270=LINE('',#1967,#446);
#271=LINE('',#1969,#447);
#272=LINE('',#1971,#448);
#273=LINE('',#1972,#449);
#274=LINE('',#1974,#450);
#275=LINE('',#1975,#451);
#276=LINE('',#1981,#452);
#277=LINE('',#1983,#453);
#278=LINE('',#1985,#454);
#279=LINE('',#1986,#455);
#280=LINE('',#1990,#456);
#281=LINE('',#1992,#457);
#282=LINE('',#1994,#458);
#283=LINE('',#1995,#459);
#284=LINE('',#1997,#460);
#285=LINE('',#1998,#461);
#286=LINE('',#2002,#462);
#287=LINE('',#2003,#463);
#288=LINE('',#2004,#464);
#289=LINE('',#2007,#465);
#290=LINE('',#2009,#466);
#291=LINE('',#2010,#467);
#292=LINE('',#2012,#468);
#293=LINE('',#2013,#469);
#294=LINE('',#2014,#470);
#295=LINE('',#2017,#471);
#296=LINE('',#2019,#472);
#297=LINE('',#2020,#473);
#298=LINE('',#2022,#474);
#299=LINE('',#2024,#475);
#300=LINE('',#2026,#476);
#301=LINE('',#2027,#477);
#302=LINE('',#2032,#478);
#303=LINE('',#2034,#479);
#304=LINE('',#2035,#480);
#305=LINE('',#2037,#481);
#306=LINE('',#2039,#482);
#307=LINE('',#2040,#483);
#308=LINE('',#2042,#484);
#309=LINE('',#2044,#485);
#310=LINE('',#2045,#486);
#311=LINE('',#2047,#487);
#312=LINE('',#2050,#488);
#313=LINE('',#2052,#489);
#314=LINE('',#2053,#490);
#315=LINE('',#2056,#491);
#316=LINE('',#2058,#492);
#317=LINE('',#2060,#493);
#318=LINE('',#2062,#494);
#319=LINE('',#2063,#495);
#320=LINE('',#2065,#496);
#321=LINE('',#2068,#497);
#322=LINE('',#2070,#498);
#323=LINE('',#2071,#499);
#324=LINE('',#2075,#500);
#325=LINE('',#2076,#501);
#326=LINE('',#2077,#502);
#327=LINE('',#2080,#503);
#328=LINE('',#2081,#504);
#329=LINE('',#2084,#505);
#330=LINE('',#2085,#506);
#331=LINE('',#2087,#507);
#332=LINE('',#2089,#508);
#333=LINE('',#2091,#509);
#334=LINE('',#2094,#510);
#335=LINE('',#2096,#511);
#336=LINE('',#2099,#512);
#337=LINE('',#2100,#513);
#338=LINE('',#2102,#514);
#339=LINE('',#2105,#515);
#340=LINE('',#2106,#516);
#341=LINE('',#2109,#517);
#342=LINE('',#2110,#518);
#343=LINE('',#2115,#519);
#344=LINE('',#2116,#520);
#345=LINE('',#2119,#521);
#346=LINE('',#2120,#522);
#347=LINE('',#2122,#523);
#348=LINE('',#2125,#524);
#349=LINE('',#2126,#525);
#350=LINE('',#2129,#526);
#351=LINE('',#2130,#527);
#352=LINE('',#2134,#528);
#353=LINE('',#2136,#529);
#354=LINE('',#2140,#530);
#355=LINE('',#2143,#531);
#356=LINE('',#2144,#532);
#357=LINE('',#2146,#533);
#358=LINE('',#2148,#534);
#359=LINE('',#2150,#535);
#360=LINE('',#2154,#536);
#361=LINE('',#2156,#537);
#362=LINE('',#2158,#538);
#363=LINE('',#2160,#539);
#364=LINE('',#2162,#540);
#365=VECTOR('',#1454,10.);
#366=VECTOR('',#1455,10.);
#367=VECTOR('',#1456,10.);
#368=VECTOR('',#1457,10.);
#369=VECTOR('',#1460,10.);
#370=VECTOR('',#1461,10.);
#371=VECTOR('',#1462,10.);
#372=VECTOR('',#1463,10.);
#373=VECTOR('',#1464,10.);
#374=VECTOR('',#1465,10.);
#375=VECTOR('',#1466,10.);
#376=VECTOR('',#1467,10.);
#377=VECTOR('',#1468,10.);
#378=VECTOR('',#1469,10.);
#379=VECTOR('',#1470,10.);
#380=VECTOR('',#1471,10.);
#381=VECTOR('',#1472,10.);
#382=VECTOR('',#1473,10.);
#383=VECTOR('',#1474,10.);
#384=VECTOR('',#1475,10.);
#385=VECTOR('',#1476,10.);
#386=VECTOR('',#1477,10.);
#387=VECTOR('',#1478,10.);
#388=VECTOR('',#1479,10.);
#389=VECTOR('',#1480,10.);
#390=VECTOR('',#1481,10.);
#391=VECTOR('',#1482,10.);
#392=VECTOR('',#1483,10.);
#393=VECTOR('',#1484,10.);
#394=VECTOR('',#1485,10.);
#395=VECTOR('',#1486,10.);
#396=VECTOR('',#1487,10.);
#397=VECTOR('',#1488,10.);
#398=VECTOR('',#1489,10.);
#399=VECTOR('',#1490,10.);
#400=VECTOR('',#1491,10.);
#401=VECTOR('',#1492,10.);
#402=VECTOR('',#1493,10.);
#403=VECTOR('',#1494,10.);
#404=VECTOR('',#1505,10.);
#405=VECTOR('',#1506,10.);
#406=VECTOR('',#1507,10.);
#407=VECTOR('',#1510,10.);
#408=VECTOR('',#1511,10.);
#409=VECTOR('',#1514,10.);
#410=VECTOR('',#1515,10.);
#411=VECTOR('',#1518,10.);
#412=VECTOR('',#1521,10.);
#413=VECTOR('',#1522,10.);
#414=VECTOR('',#1523,10.);
#415=VECTOR('',#1526,10.);
#416=VECTOR('',#1527,10.);
#417=VECTOR('',#1528,10.);
#418=VECTOR('',#1531,10.);
#419=VECTOR('',#1532,10.);
#420=VECTOR('',#1535,10.);
#421=VECTOR('',#1536,10.);
#422=VECTOR('',#1539,10.);
#423=VECTOR('',#1542,10.);
#424=VECTOR('',#1543,10.);
#425=VECTOR('',#1544,10.);
#426=VECTOR('',#1547,10.);
#427=VECTOR('',#1548,10.);
#428=VECTOR('',#1551,10.);
#429=VECTOR('',#1552,10.);
#430=VECTOR('',#1553,10.);
#431=VECTOR('',#1556,10.);
#432=VECTOR('',#1557,10.);
#433=VECTOR('',#1560,10.);
#434=VECTOR('',#1561,10.);
#435=VECTOR('',#1562,10.);
#436=VECTOR('',#1565,10.);
#437=VECTOR('',#1566,10.);
#438=VECTOR('',#1569,10.);
#439=VECTOR('',#1570,10.);
#440=VECTOR('',#1571,10.);
#441=VECTOR('',#1574,10.);
#442=VECTOR('',#1575,10.);
#443=VECTOR('',#1586,10.);
#444=VECTOR('',#1587,10.);
#445=VECTOR('',#1588,10.);
#446=VECTOR('',#1589,10.);
#447=VECTOR('',#1590,10.);
#448=VECTOR('',#1591,10.);
#449=VECTOR('',#1592,10.);
#450=VECTOR('',#1593,10.);
#451=VECTOR('',#1594,10.);
#452=VECTOR('',#1599,10.);
#453=VECTOR('',#1600,10.);
#454=VECTOR('',#1601,10.);
#455=VECTOR('',#1602,10.);
#456=VECTOR('',#1605,10.);
#457=VECTOR('',#1606,10.);
#458=VECTOR('',#1607,10.);
#459=VECTOR('',#1608,10.);
#460=VECTOR('',#1611,10.);
#461=VECTOR('',#1612,10.);
#462=VECTOR('',#1615,10.);
#463=VECTOR('',#1616,10.);
#464=VECTOR('',#1617,10.);
#465=VECTOR('',#1620,10.);
#466=VECTOR('',#1621,10.);
#467=VECTOR('',#1622,10.);
#468=VECTOR('',#1623,10.);
#469=VECTOR('',#1624,10.);
#470=VECTOR('',#1625,10.);
#471=VECTOR('',#1628,10.);
#472=VECTOR('',#1629,10.);
#473=VECTOR('',#1630,10.);
#474=VECTOR('',#1631,10.);
#475=VECTOR('',#1632,10.);
#476=VECTOR('',#1633,10.);
#477=VECTOR('',#1634,10.);
#478=VECTOR('',#1639,10.);
#479=VECTOR('',#1640,10.);
#480=VECTOR('',#1641,10.);
#481=VECTOR('',#1642,10.);
#482=VECTOR('',#1643,10.);
#483=VECTOR('',#1644,10.);
#484=VECTOR('',#1645,10.);
#485=VECTOR('',#1646,10.);
#486=VECTOR('',#1647,10.);
#487=VECTOR('',#1650,1.6);
#488=VECTOR('',#1653,10.);
#489=VECTOR('',#1654,10.);
#490=VECTOR('',#1655,10.);
#491=VECTOR('',#1658,10.);
#492=VECTOR('',#1659,10.);
#493=VECTOR('',#1660,10.);
#494=VECTOR('',#1661,10.);
#495=VECTOR('',#1662,10.);
#496=VECTOR('',#1665,1.60000000000001);
#497=VECTOR('',#1668,10.);
#498=VECTOR('',#1669,10.);
#499=VECTOR('',#1670,10.);
#500=VECTOR('',#1673,10.);
#501=VECTOR('',#1674,10.);
#502=VECTOR('',#1675,10.);
#503=VECTOR('',#1678,10.);
#504=VECTOR('',#1679,10.);
#505=VECTOR('',#1682,10.);
#506=VECTOR('',#1683,10.);
#507=VECTOR('',#1686,10.);
#508=VECTOR('',#1689,10.);
#509=VECTOR('',#1692,10.);
#510=VECTOR('',#1697,10.);
#511=VECTOR('',#1700,10.);
#512=VECTOR('',#1703,10.);
#513=VECTOR('',#1704,10.);
#514=VECTOR('',#1707,10.);
#515=VECTOR('',#1710,10.);
#516=VECTOR('',#1711,10.);
#517=VECTOR('',#1714,10.);
#518=VECTOR('',#1715,10.);
#519=VECTOR('',#1720,10.);
#520=VECTOR('',#1721,10.);
#521=VECTOR('',#1724,10.);
#522=VECTOR('',#1725,10.);
#523=VECTOR('',#1728,10.);
#524=VECTOR('',#1731,10.);
#525=VECTOR('',#1732,10.);
#526=VECTOR('',#1735,10.);
#527=VECTOR('',#1736,10.);
#528=VECTOR('',#1741,1.59999999999999);
#529=VECTOR('',#1744,10.);
#530=VECTOR('',#1749,1.6);
#531=VECTOR('',#1752,10.);
#532=VECTOR('',#1753,10.);
#533=VECTOR('',#1756,10.);
#534=VECTOR('',#1759,1.60000000000001);
#535=VECTOR('',#1762,10.);
#536=VECTOR('',#1767,1.59999999999998);
#537=VECTOR('',#1770,10.);
#538=VECTOR('',#1773,10.);
#539=VECTOR('',#1776,10.);
#540=VECTOR('',#1779,10.);
#541=VERTEX_POINT('',#1788);
#542=VERTEX_POINT('',#1789);
#543=VERTEX_POINT('',#1791);
#544=VERTEX_POINT('',#1793);
#545=VERTEX_POINT('',#1797);
#546=VERTEX_POINT('',#1798);
#547=VERTEX_POINT('',#1800);
#548=VERTEX_POINT('',#1802);
#549=VERTEX_POINT('',#1804);
#550=VERTEX_POINT('',#1806);
#551=VERTEX_POINT('',#1808);
#552=VERTEX_POINT('',#1810);
#553=VERTEX_POINT('',#1812);
#554=VERTEX_POINT('',#1814);
#555=VERTEX_POINT('',#1816);
#556=VERTEX_POINT('',#1818);
#557=VERTEX_POINT('',#1820);
#558=VERTEX_POINT('',#1822);
#559=VERTEX_POINT('',#1824);
#560=VERTEX_POINT('',#1826);
#561=VERTEX_POINT('',#1828);
#562=VERTEX_POINT('',#1830);
#563=VERTEX_POINT('',#1832);
#564=VERTEX_POINT('',#1834);
#565=VERTEX_POINT('',#1836);
#566=VERTEX_POINT('',#1838);
#567=VERTEX_POINT('',#1840);
#568=VERTEX_POINT('',#1842);
#569=VERTEX_POINT('',#1844);
#570=VERTEX_POINT('',#1846);
#571=VERTEX_POINT('',#1848);
#572=VERTEX_POINT('',#1850);
#573=VERTEX_POINT('',#1853);
#574=VERTEX_POINT('',#1855);
#575=VERTEX_POINT('',#1858);
#576=VERTEX_POINT('',#1859);
#577=VERTEX_POINT('',#1861);
#578=VERTEX_POINT('',#1863);
#579=VERTEX_POINT('',#1866);
#580=VERTEX_POINT('',#1868);
#581=VERTEX_POINT('',#1870);
#582=VERTEX_POINT('',#1872);
#583=VERTEX_POINT('',#1875);
#584=VERTEX_POINT('',#1877);
#585=VERTEX_POINT('',#1881);
#586=VERTEX_POINT('',#1885);
#587=VERTEX_POINT('',#1891);
#588=VERTEX_POINT('',#1893);
#589=VERTEX_POINT('',#1897);
#590=VERTEX_POINT('',#1899);
#591=VERTEX_POINT('',#1903);
#592=VERTEX_POINT('',#1907);
#593=VERTEX_POINT('',#1913);
#594=VERTEX_POINT('',#1914);
#595=VERTEX_POINT('',#1919);
#596=VERTEX_POINT('',#1923);
#597=VERTEX_POINT('',#1924);
#598=VERTEX_POINT('',#1929);
#599=VERTEX_POINT('',#1933);
#600=VERTEX_POINT('',#1934);
#601=VERTEX_POINT('',#1939);
#602=VERTEX_POINT('',#1943);
#603=VERTEX_POINT('',#1944);
#604=VERTEX_POINT('',#1949);
#605=VERTEX_POINT('',#1953);
#606=VERTEX_POINT('',#1956);
#607=VERTEX_POINT('',#1959);
#608=VERTEX_POINT('',#1960);
#609=VERTEX_POINT('',#1962);
#610=VERTEX_POINT('',#1964);
#611=VERTEX_POINT('',#1966);
#612=VERTEX_POINT('',#1968);
#613=VERTEX_POINT('',#1970);
#614=VERTEX_POINT('',#1973);
#615=VERTEX_POINT('',#1976);
#616=VERTEX_POINT('',#1979);
#617=VERTEX_POINT('',#1980);
#618=VERTEX_POINT('',#1982);
#619=VERTEX_POINT('',#1984);
#620=VERTEX_POINT('',#1988);
#621=VERTEX_POINT('',#1989);
#622=VERTEX_POINT('',#1991);
#623=VERTEX_POINT('',#1993);
#624=VERTEX_POINT('',#2000);
#625=VERTEX_POINT('',#2001);
#626=VERTEX_POINT('',#2006);
#627=VERTEX_POINT('',#2008);
#628=VERTEX_POINT('',#2011);
#629=VERTEX_POINT('',#2016);
#630=VERTEX_POINT('',#2018);
#631=VERTEX_POINT('',#2021);
#632=VERTEX_POINT('',#2023);
#633=VERTEX_POINT('',#2025);
#634=VERTEX_POINT('',#2028);
#635=VERTEX_POINT('',#2031);
#636=VERTEX_POINT('',#2033);
#637=VERTEX_POINT('',#2036);
#638=VERTEX_POINT('',#2038);
#639=VERTEX_POINT('',#2041);
#640=VERTEX_POINT('',#2043);
#641=VERTEX_POINT('',#2049);
#642=VERTEX_POINT('',#2051);
#643=VERTEX_POINT('',#2055);
#644=VERTEX_POINT('',#2057);
#645=VERTEX_POINT('',#2059);
#646=VERTEX_POINT('',#2061);
#647=VERTEX_POINT('',#2067);
#648=VERTEX_POINT('',#2069);
#649=VERTEX_POINT('',#2073);
#650=VERTEX_POINT('',#2074);
#651=VERTEX_POINT('',#2079);
#652=VERTEX_POINT('',#2083);
#653=VERTEX_POINT('',#2098);
#654=VERTEX_POINT('',#2104);
#655=VERTEX_POINT('',#2108);
#656=VERTEX_POINT('',#2111);
#657=VERTEX_POINT('',#2114);
#658=VERTEX_POINT('',#2118);
#659=VERTEX_POINT('',#2124);
#660=VERTEX_POINT('',#2128);
#661=VERTEX_POINT('',#2131);
#662=VERTEX_POINT('',#2138);
#663=VERTEX_POINT('',#2142);
#664=VERTEX_POINT('',#2152);
#665=EDGE_CURVE('',#541,#542,#189,.T.);
#666=EDGE_CURVE('',#541,#543,#190,.T.);
#667=EDGE_CURVE('',#543,#544,#191,.T.);
#668=EDGE_CURVE('',#544,#542,#192,.T.);
#669=EDGE_CURVE('',#545,#546,#193,.T.);
#670=EDGE_CURVE('',#547,#545,#194,.T.);
#671=EDGE_CURVE('',#547,#548,#195,.T.);
#672=EDGE_CURVE('',#549,#548,#196,.T.);
#673=EDGE_CURVE('',#550,#549,#197,.T.);
#674=EDGE_CURVE('',#551,#550,#198,.T.);
#675=EDGE_CURVE('',#552,#551,#199,.T.);
#676=EDGE_CURVE('',#553,#552,#200,.T.);
#677=EDGE_CURVE('',#554,#553,#201,.T.);
#678=EDGE_CURVE('',#554,#555,#202,.T.);
#679=EDGE_CURVE('',#556,#555,#203,.T.);
#680=EDGE_CURVE('',#556,#557,#204,.T.);
#681=EDGE_CURVE('',#557,#558,#205,.T.);
#682=EDGE_CURVE('',#558,#559,#206,.T.);
#683=EDGE_CURVE('',#560,#559,#207,.T.);
#684=EDGE_CURVE('',#560,#561,#208,.T.);
#685=EDGE_CURVE('',#562,#561,#209,.T.);
#686=EDGE_CURVE('',#563,#562,#210,.T.);
#687=EDGE_CURVE('',#564,#563,#211,.T.);
#688=EDGE_CURVE('',#564,#565,#212,.T.);
#689=EDGE_CURVE('',#566,#565,#213,.T.);
#690=EDGE_CURVE('',#566,#567,#214,.T.);
#691=EDGE_CURVE('',#567,#568,#215,.T.);
#692=EDGE_CURVE('',#569,#568,#216,.T.);
#693=EDGE_CURVE('',#570,#569,#217,.T.);
#694=EDGE_CURVE('',#571,#570,#218,.T.);
#695=EDGE_CURVE('',#572,#571,#219,.T.);
#696=EDGE_CURVE('',#541,#572,#220,.T.);
#697=EDGE_CURVE('',#573,#542,#221,.T.);
#698=EDGE_CURVE('',#574,#573,#222,.T.);
#699=EDGE_CURVE('',#546,#574,#223,.T.);
#700=EDGE_CURVE('',#575,#576,#224,.T.);
#701=EDGE_CURVE('',#577,#575,#225,.T.);
#702=EDGE_CURVE('',#578,#577,#226,.T.);
#703=EDGE_CURVE('',#576,#578,#227,.T.);
#704=EDGE_CURVE('',#579,#579,#21,.T.);
#705=EDGE_CURVE('',#580,#580,#22,.T.);
#706=EDGE_CURVE('',#581,#581,#23,.T.);
#707=EDGE_CURVE('',#582,#582,#24,.T.);
#708=EDGE_CURVE('',#546,#583,#228,.T.);
#709=EDGE_CURVE('',#583,#584,#229,.T.);
#710=EDGE_CURVE('',#584,#545,#230,.T.);
#711=EDGE_CURVE('',#574,#585,#231,.T.);
#712=EDGE_CURVE('',#583,#585,#232,.T.);
#713=EDGE_CURVE('',#573,#586,#233,.T.);
#714=EDGE_CURVE('',#585,#586,#234,.T.);
#715=EDGE_CURVE('',#586,#544,#235,.T.);
#716=EDGE_CURVE('',#547,#587,#236,.T.);
#717=EDGE_CURVE('',#587,#588,#237,.T.);
#718=EDGE_CURVE('',#588,#548,#238,.T.);
#719=EDGE_CURVE('',#551,#589,#239,.T.);
#720=EDGE_CURVE('',#589,#590,#240,.T.);
#721=EDGE_CURVE('',#590,#552,#241,.T.);
#722=EDGE_CURVE('',#550,#591,#242,.T.);
#723=EDGE_CURVE('',#589,#591,#243,.T.);
#724=EDGE_CURVE('',#549,#592,#244,.T.);
#725=EDGE_CURVE('',#591,#592,#245,.T.);
#726=EDGE_CURVE('',#592,#588,#246,.T.);
#727=EDGE_CURVE('',#593,#594,#247,.T.);
#728=EDGE_CURVE('',#594,#566,#248,.T.);
#729=EDGE_CURVE('',#565,#593,#249,.T.);
#730=EDGE_CURVE('',#595,#564,#250,.T.);
#731=EDGE_CURVE('',#593,#595,#251,.T.);
#732=EDGE_CURVE('',#596,#597,#252,.T.);
#733=EDGE_CURVE('',#597,#570,#253,.T.);
#734=EDGE_CURVE('',#569,#596,#254,.T.);
#735=EDGE_CURVE('',#568,#598,#255,.T.);
#736=EDGE_CURVE('',#596,#598,#256,.T.);
#737=EDGE_CURVE('',#599,#600,#257,.T.);
#738=EDGE_CURVE('',#600,#556,#258,.T.);
#739=EDGE_CURVE('',#555,#599,#259,.T.);
#740=EDGE_CURVE('',#601,#554,#260,.T.);
#741=EDGE_CURVE('',#599,#601,#261,.T.);
#742=EDGE_CURVE('',#602,#603,#262,.T.);
#743=EDGE_CURVE('',#603,#560,#263,.T.);
#744=EDGE_CURVE('',#559,#602,#264,.T.);
#745=EDGE_CURVE('',#604,#603,#265,.T.);
#746=EDGE_CURVE('',#561,#604,#266,.T.);
#747=EDGE_CURVE('',#605,#605,#25,.T.);
#748=EDGE_CURVE('',#606,#606,#26,.T.);
#749=EDGE_CURVE('',#607,#608,#267,.T.);
#750=EDGE_CURVE('',#608,#609,#268,.T.);
#751=EDGE_CURVE('',#609,#610,#269,.T.);
#752=EDGE_CURVE('',#610,#611,#270,.T.);
#753=EDGE_CURVE('',#611,#612,#271,.T.);
#754=EDGE_CURVE('',#612,#613,#272,.T.);
#755=EDGE_CURVE('',#613,#584,#273,.T.);
#756=EDGE_CURVE('',#543,#614,#274,.T.);
#757=EDGE_CURVE('',#614,#607,#275,.T.);
#758=EDGE_CURVE('',#615,#615,#27,.T.);
#759=EDGE_CURVE('',#616,#617,#276,.T.);
#760=EDGE_CURVE('',#618,#616,#277,.T.);
#761=EDGE_CURVE('',#619,#618,#278,.T.);
#762=EDGE_CURVE('',#617,#619,#279,.T.);
#763=EDGE_CURVE('',#620,#621,#280,.T.);
#764=EDGE_CURVE('',#622,#620,#281,.T.);
#765=EDGE_CURVE('',#622,#623,#282,.T.);
#766=EDGE_CURVE('',#621,#623,#283,.T.);
#767=EDGE_CURVE('',#619,#608,#284,.T.);
#768=EDGE_CURVE('',#609,#618,#285,.T.);
#769=EDGE_CURVE('',#624,#625,#286,.T.);
#770=EDGE_CURVE('',#623,#624,#287,.T.);
#771=EDGE_CURVE('',#625,#622,#288,.T.);
#772=EDGE_CURVE('',#626,#616,#289,.T.);
#773=EDGE_CURVE('',#626,#627,#290,.T.);
#774=EDGE_CURVE('',#625,#627,#291,.T.);
#775=EDGE_CURVE('',#628,#620,#292,.T.);
#776=EDGE_CURVE('',#578,#628,#293,.T.);
#777=EDGE_CURVE('',#577,#610,#294,.T.);
#778=EDGE_CURVE('',#621,#629,#295,.T.);
#779=EDGE_CURVE('',#629,#630,#296,.T.);
#780=EDGE_CURVE('',#630,#590,#297,.T.);
#781=EDGE_CURVE('',#587,#631,#298,.T.);
#782=EDGE_CURVE('',#631,#632,#299,.T.);
#783=EDGE_CURVE('',#632,#633,#300,.T.);
#784=EDGE_CURVE('',#633,#628,#301,.T.);
#785=EDGE_CURVE('',#634,#634,#28,.T.);
#786=EDGE_CURVE('',#635,#607,#302,.T.);
#787=EDGE_CURVE('',#636,#635,#303,.T.);
#788=EDGE_CURVE('',#563,#636,#304,.T.);
#789=EDGE_CURVE('',#637,#562,#305,.T.);
#790=EDGE_CURVE('',#638,#637,#306,.T.);
#791=EDGE_CURVE('',#638,#629,#307,.T.);
#792=EDGE_CURVE('',#639,#624,#308,.T.);
#793=EDGE_CURVE('',#639,#640,#309,.T.);
#794=EDGE_CURVE('',#617,#640,#310,.T.);
#795=EDGE_CURVE('',#634,#606,#311,.T.);
#796=EDGE_CURVE('',#641,#630,#312,.T.);
#797=EDGE_CURVE('',#642,#641,#313,.T.);
#798=EDGE_CURVE('',#553,#642,#314,.T.);
#799=EDGE_CURVE('',#613,#643,#315,.T.);
#800=EDGE_CURVE('',#644,#643,#316,.T.);
#801=EDGE_CURVE('',#644,#645,#317,.T.);
#802=EDGE_CURVE('',#646,#645,#318,.T.);
#803=EDGE_CURVE('',#646,#631,#319,.T.);
#804=EDGE_CURVE('',#615,#605,#320,.T.);
#805=EDGE_CURVE('',#647,#572,#321,.T.);
#806=EDGE_CURVE('',#648,#647,#322,.T.);
#807=EDGE_CURVE('',#648,#614,#323,.T.);
#808=EDGE_CURVE('',#649,#650,#324,.T.);
#809=EDGE_CURVE('',#650,#644,#325,.T.);
#810=EDGE_CURVE('',#643,#649,#326,.T.);
#811=EDGE_CURVE('',#651,#650,#327,.T.);
#812=EDGE_CURVE('',#645,#651,#328,.T.);
#813=EDGE_CURVE('',#651,#652,#329,.T.);
#814=EDGE_CURVE('',#652,#646,#330,.T.);
#815=EDGE_CURVE('',#632,#652,#331,.T.);
#816=EDGE_CURVE('',#640,#626,#332,.T.);
#817=EDGE_CURVE('',#627,#639,#333,.T.);
#818=EDGE_CURVE('',#649,#612,#334,.T.);
#819=EDGE_CURVE('',#604,#637,#335,.T.);
#820=EDGE_CURVE('',#604,#653,#336,.T.);
#821=EDGE_CURVE('',#653,#638,#337,.T.);
#822=EDGE_CURVE('',#636,#595,#338,.T.);
#823=EDGE_CURVE('',#635,#654,#339,.T.);
#824=EDGE_CURVE('',#654,#595,#340,.T.);
#825=EDGE_CURVE('',#654,#655,#341,.T.);
#826=EDGE_CURVE('',#655,#594,#342,.T.);
#827=EDGE_CURVE('',#656,#656,#29,.T.);
#828=EDGE_CURVE('',#571,#657,#343,.T.);
#829=EDGE_CURVE('',#657,#647,#344,.T.);
#830=EDGE_CURVE('',#657,#658,#345,.T.);
#831=EDGE_CURVE('',#658,#648,#346,.T.);
#832=EDGE_CURVE('',#642,#601,#347,.T.);
#833=EDGE_CURVE('',#641,#659,#348,.T.);
#834=EDGE_CURVE('',#659,#601,#349,.T.);
#835=EDGE_CURVE('',#659,#660,#350,.T.);
#836=EDGE_CURVE('',#660,#600,#351,.T.);
#837=EDGE_CURVE('',#661,#661,#30,.T.);
#838=EDGE_CURVE('',#661,#579,#352,.T.);
#839=EDGE_CURVE('',#557,#660,#353,.T.);
#840=EDGE_CURVE('',#662,#662,#31,.T.);
#841=EDGE_CURVE('',#662,#580,#354,.T.);
#842=EDGE_CURVE('',#558,#663,#355,.T.);
#843=EDGE_CURVE('',#602,#663,#356,.T.);
#844=EDGE_CURVE('',#663,#653,#357,.T.);
#845=EDGE_CURVE('',#656,#581,#358,.T.);
#846=EDGE_CURVE('',#567,#655,#359,.T.);
#847=EDGE_CURVE('',#664,#664,#32,.T.);
#848=EDGE_CURVE('',#664,#582,#360,.T.);
#849=EDGE_CURVE('',#657,#597,#361,.T.);
#850=EDGE_CURVE('',#598,#658,#362,.T.);
#851=EDGE_CURVE('',#575,#611,#363,.T.);
#852=EDGE_CURVE('',#576,#633,#364,.T.);
#853=ORIENTED_EDGE('',*,*,#665,.F.);
#854=ORIENTED_EDGE('',*,*,#666,.T.);
#855=ORIENTED_EDGE('',*,*,#667,.T.);
#856=ORIENTED_EDGE('',*,*,#668,.T.);
#857=ORIENTED_EDGE('',*,*,#669,.F.);
#858=ORIENTED_EDGE('',*,*,#670,.F.);
#859=ORIENTED_EDGE('',*,*,#671,.T.);
#860=ORIENTED_EDGE('',*,*,#672,.F.);
#861=ORIENTED_EDGE('',*,*,#673,.F.);
#862=ORIENTED_EDGE('',*,*,#674,.F.);
#863=ORIENTED_EDGE('',*,*,#675,.F.);
#864=ORIENTED_EDGE('',*,*,#676,.F.);
#865=ORIENTED_EDGE('',*,*,#677,.F.);
#866=ORIENTED_EDGE('',*,*,#678,.T.);
#867=ORIENTED_EDGE('',*,*,#679,.F.);
#868=ORIENTED_EDGE('',*,*,#680,.T.);
#869=ORIENTED_EDGE('',*,*,#681,.T.);
#870=ORIENTED_EDGE('',*,*,#682,.T.);
#871=ORIENTED_EDGE('',*,*,#683,.F.);
#872=ORIENTED_EDGE('',*,*,#684,.T.);
#873=ORIENTED_EDGE('',*,*,#685,.F.);
#874=ORIENTED_EDGE('',*,*,#686,.F.);
#875=ORIENTED_EDGE('',*,*,#687,.F.);
#876=ORIENTED_EDGE('',*,*,#688,.T.);
#877=ORIENTED_EDGE('',*,*,#689,.F.);
#878=ORIENTED_EDGE('',*,*,#690,.T.);
#879=ORIENTED_EDGE('',*,*,#691,.T.);
#880=ORIENTED_EDGE('',*,*,#692,.F.);
#881=ORIENTED_EDGE('',*,*,#693,.F.);
#882=ORIENTED_EDGE('',*,*,#694,.F.);
#883=ORIENTED_EDGE('',*,*,#695,.F.);
#884=ORIENTED_EDGE('',*,*,#696,.F.);
#885=ORIENTED_EDGE('',*,*,#665,.T.);
#886=ORIENTED_EDGE('',*,*,#697,.F.);
#887=ORIENTED_EDGE('',*,*,#698,.F.);
#888=ORIENTED_EDGE('',*,*,#699,.F.);
#889=ORIENTED_EDGE('',*,*,#700,.F.);
#890=ORIENTED_EDGE('',*,*,#701,.F.);
#891=ORIENTED_EDGE('',*,*,#702,.F.);
#892=ORIENTED_EDGE('',*,*,#703,.F.);
#893=ORIENTED_EDGE('',*,*,#704,.F.);
#894=ORIENTED_EDGE('',*,*,#705,.F.);
#895=ORIENTED_EDGE('',*,*,#706,.F.);
#896=ORIENTED_EDGE('',*,*,#707,.F.);
#897=ORIENTED_EDGE('',*,*,#669,.T.);
#898=ORIENTED_EDGE('',*,*,#708,.T.);
#899=ORIENTED_EDGE('',*,*,#709,.T.);
#900=ORIENTED_EDGE('',*,*,#710,.T.);
#901=ORIENTED_EDGE('',*,*,#699,.T.);
#902=ORIENTED_EDGE('',*,*,#711,.T.);
#903=ORIENTED_EDGE('',*,*,#712,.F.);
#904=ORIENTED_EDGE('',*,*,#708,.F.);
#905=ORIENTED_EDGE('',*,*,#698,.T.);
#906=ORIENTED_EDGE('',*,*,#713,.T.);
#907=ORIENTED_EDGE('',*,*,#714,.F.);
#908=ORIENTED_EDGE('',*,*,#711,.F.);
#909=ORIENTED_EDGE('',*,*,#668,.F.);
#910=ORIENTED_EDGE('',*,*,#715,.F.);
#911=ORIENTED_EDGE('',*,*,#713,.F.);
#912=ORIENTED_EDGE('',*,*,#697,.T.);
#913=ORIENTED_EDGE('',*,*,#671,.F.);
#914=ORIENTED_EDGE('',*,*,#716,.T.);
#915=ORIENTED_EDGE('',*,*,#717,.T.);
#916=ORIENTED_EDGE('',*,*,#718,.T.);
#917=ORIENTED_EDGE('',*,*,#675,.T.);
#918=ORIENTED_EDGE('',*,*,#719,.T.);
#919=ORIENTED_EDGE('',*,*,#720,.T.);
#920=ORIENTED_EDGE('',*,*,#721,.T.);
#921=ORIENTED_EDGE('',*,*,#674,.T.);
#922=ORIENTED_EDGE('',*,*,#722,.T.);
#923=ORIENTED_EDGE('',*,*,#723,.F.);
#924=ORIENTED_EDGE('',*,*,#719,.F.);
#925=ORIENTED_EDGE('',*,*,#673,.T.);
#926=ORIENTED_EDGE('',*,*,#724,.T.);
#927=ORIENTED_EDGE('',*,*,#725,.F.);
#928=ORIENTED_EDGE('',*,*,#722,.F.);
#929=ORIENTED_EDGE('',*,*,#718,.F.);
#930=ORIENTED_EDGE('',*,*,#726,.F.);
#931=ORIENTED_EDGE('',*,*,#724,.F.);
#932=ORIENTED_EDGE('',*,*,#672,.T.);
#933=ORIENTED_EDGE('',*,*,#727,.T.);
#934=ORIENTED_EDGE('',*,*,#728,.T.);
#935=ORIENTED_EDGE('',*,*,#689,.T.);
#936=ORIENTED_EDGE('',*,*,#729,.T.);
#937=ORIENTED_EDGE('',*,*,#729,.F.);
#938=ORIENTED_EDGE('',*,*,#688,.F.);
#939=ORIENTED_EDGE('',*,*,#730,.F.);
#940=ORIENTED_EDGE('',*,*,#731,.F.);
#941=ORIENTED_EDGE('',*,*,#732,.T.);
#942=ORIENTED_EDGE('',*,*,#733,.T.);
#943=ORIENTED_EDGE('',*,*,#693,.T.);
#944=ORIENTED_EDGE('',*,*,#734,.T.);
#945=ORIENTED_EDGE('',*,*,#734,.F.);
#946=ORIENTED_EDGE('',*,*,#692,.T.);
#947=ORIENTED_EDGE('',*,*,#735,.T.);
#948=ORIENTED_EDGE('',*,*,#736,.F.);
#949=ORIENTED_EDGE('',*,*,#737,.T.);
#950=ORIENTED_EDGE('',*,*,#738,.T.);
#951=ORIENTED_EDGE('',*,*,#679,.T.);
#952=ORIENTED_EDGE('',*,*,#739,.T.);
#953=ORIENTED_EDGE('',*,*,#739,.F.);
#954=ORIENTED_EDGE('',*,*,#678,.F.);
#955=ORIENTED_EDGE('',*,*,#740,.F.);
#956=ORIENTED_EDGE('',*,*,#741,.F.);
#957=ORIENTED_EDGE('',*,*,#742,.T.);
#958=ORIENTED_EDGE('',*,*,#743,.T.);
#959=ORIENTED_EDGE('',*,*,#683,.T.);
#960=ORIENTED_EDGE('',*,*,#744,.T.);
#961=ORIENTED_EDGE('',*,*,#743,.F.);
#962=ORIENTED_EDGE('',*,*,#745,.F.);
#963=ORIENTED_EDGE('',*,*,#746,.F.);
#964=ORIENTED_EDGE('',*,*,#684,.F.);
#965=ORIENTED_EDGE('',*,*,#747,.F.);
#966=ORIENTED_EDGE('',*,*,#748,.F.);
#967=ORIENTED_EDGE('',*,*,#749,.T.);
#968=ORIENTED_EDGE('',*,*,#750,.T.);
#969=ORIENTED_EDGE('',*,*,#751,.T.);
#970=ORIENTED_EDGE('',*,*,#752,.T.);
#971=ORIENTED_EDGE('',*,*,#753,.T.);
#972=ORIENTED_EDGE('',*,*,#754,.T.);
#973=ORIENTED_EDGE('',*,*,#755,.T.);
#974=ORIENTED_EDGE('',*,*,#709,.F.);
#975=ORIENTED_EDGE('',*,*,#712,.T.);
#976=ORIENTED_EDGE('',*,*,#714,.T.);
#977=ORIENTED_EDGE('',*,*,#715,.T.);
#978=ORIENTED_EDGE('',*,*,#667,.F.);
#979=ORIENTED_EDGE('',*,*,#756,.T.);
#980=ORIENTED_EDGE('',*,*,#757,.T.);
#981=ORIENTED_EDGE('',*,*,#758,.T.);
#982=ORIENTED_EDGE('',*,*,#759,.F.);
#983=ORIENTED_EDGE('',*,*,#760,.F.);
#984=ORIENTED_EDGE('',*,*,#761,.F.);
#985=ORIENTED_EDGE('',*,*,#762,.F.);
#986=ORIENTED_EDGE('',*,*,#763,.F.);
#987=ORIENTED_EDGE('',*,*,#764,.F.);
#988=ORIENTED_EDGE('',*,*,#765,.T.);
#989=ORIENTED_EDGE('',*,*,#766,.F.);
#990=ORIENTED_EDGE('',*,*,#750,.F.);
#991=ORIENTED_EDGE('',*,*,#767,.F.);
#992=ORIENTED_EDGE('',*,*,#761,.T.);
#993=ORIENTED_EDGE('',*,*,#768,.F.);
#994=ORIENTED_EDGE('',*,*,#769,.F.);
#995=ORIENTED_EDGE('',*,*,#770,.F.);
#996=ORIENTED_EDGE('',*,*,#765,.F.);
#997=ORIENTED_EDGE('',*,*,#771,.F.);
#998=ORIENTED_EDGE('',*,*,#768,.T.);
#999=ORIENTED_EDGE('',*,*,#760,.T.);
#1000=ORIENTED_EDGE('',*,*,#772,.F.);
#1001=ORIENTED_EDGE('',*,*,#773,.T.);
#1002=ORIENTED_EDGE('',*,*,#774,.F.);
#1003=ORIENTED_EDGE('',*,*,#771,.T.);
#1004=ORIENTED_EDGE('',*,*,#764,.T.);
#1005=ORIENTED_EDGE('',*,*,#775,.F.);
#1006=ORIENTED_EDGE('',*,*,#776,.F.);
#1007=ORIENTED_EDGE('',*,*,#702,.T.);
#1008=ORIENTED_EDGE('',*,*,#777,.T.);
#1009=ORIENTED_EDGE('',*,*,#751,.F.);
#1010=ORIENTED_EDGE('',*,*,#778,.T.);
#1011=ORIENTED_EDGE('',*,*,#779,.T.);
#1012=ORIENTED_EDGE('',*,*,#780,.T.);
#1013=ORIENTED_EDGE('',*,*,#720,.F.);
#1014=ORIENTED_EDGE('',*,*,#723,.T.);
#1015=ORIENTED_EDGE('',*,*,#725,.T.);
#1016=ORIENTED_EDGE('',*,*,#726,.T.);
#1017=ORIENTED_EDGE('',*,*,#717,.F.);
#1018=ORIENTED_EDGE('',*,*,#781,.T.);
#1019=ORIENTED_EDGE('',*,*,#782,.T.);
#1020=ORIENTED_EDGE('',*,*,#783,.T.);
#1021=ORIENTED_EDGE('',*,*,#784,.T.);
#1022=ORIENTED_EDGE('',*,*,#775,.T.);
#1023=ORIENTED_EDGE('',*,*,#763,.T.);
#1024=ORIENTED_EDGE('',*,*,#785,.T.);
#1025=ORIENTED_EDGE('',*,*,#749,.F.);
#1026=ORIENTED_EDGE('',*,*,#786,.F.);
#1027=ORIENTED_EDGE('',*,*,#787,.F.);
#1028=ORIENTED_EDGE('',*,*,#788,.F.);
#1029=ORIENTED_EDGE('',*,*,#686,.T.);
#1030=ORIENTED_EDGE('',*,*,#789,.F.);
#1031=ORIENTED_EDGE('',*,*,#790,.F.);
#1032=ORIENTED_EDGE('',*,*,#791,.T.);
#1033=ORIENTED_EDGE('',*,*,#778,.F.);
#1034=ORIENTED_EDGE('',*,*,#766,.T.);
#1035=ORIENTED_EDGE('',*,*,#770,.T.);
#1036=ORIENTED_EDGE('',*,*,#792,.F.);
#1037=ORIENTED_EDGE('',*,*,#793,.T.);
#1038=ORIENTED_EDGE('',*,*,#794,.F.);
#1039=ORIENTED_EDGE('',*,*,#762,.T.);
#1040=ORIENTED_EDGE('',*,*,#767,.T.);
#1041=ORIENTED_EDGE('',*,*,#785,.F.);
#1042=ORIENTED_EDGE('',*,*,#795,.T.);
#1043=ORIENTED_EDGE('',*,*,#748,.T.);
#1044=ORIENTED_EDGE('',*,*,#795,.F.);
#1045=ORIENTED_EDGE('',*,*,#721,.F.);
#1046=ORIENTED_EDGE('',*,*,#780,.F.);
#1047=ORIENTED_EDGE('',*,*,#796,.F.);
#1048=ORIENTED_EDGE('',*,*,#797,.F.);
#1049=ORIENTED_EDGE('',*,*,#798,.F.);
#1050=ORIENTED_EDGE('',*,*,#676,.T.);
#1051=ORIENTED_EDGE('',*,*,#716,.F.);
#1052=ORIENTED_EDGE('',*,*,#670,.T.);
#1053=ORIENTED_EDGE('',*,*,#710,.F.);
#1054=ORIENTED_EDGE('',*,*,#755,.F.);
#1055=ORIENTED_EDGE('',*,*,#799,.T.);
#1056=ORIENTED_EDGE('',*,*,#800,.F.);
#1057=ORIENTED_EDGE('',*,*,#801,.T.);
#1058=ORIENTED_EDGE('',*,*,#802,.F.);
#1059=ORIENTED_EDGE('',*,*,#803,.T.);
#1060=ORIENTED_EDGE('',*,*,#781,.F.);
#1061=ORIENTED_EDGE('',*,*,#758,.F.);
#1062=ORIENTED_EDGE('',*,*,#804,.T.);
#1063=ORIENTED_EDGE('',*,*,#747,.T.);
#1064=ORIENTED_EDGE('',*,*,#804,.F.);
#1065=ORIENTED_EDGE('',*,*,#666,.F.);
#1066=ORIENTED_EDGE('',*,*,#696,.T.);
#1067=ORIENTED_EDGE('',*,*,#805,.F.);
#1068=ORIENTED_EDGE('',*,*,#806,.F.);
#1069=ORIENTED_EDGE('',*,*,#807,.T.);
#1070=ORIENTED_EDGE('',*,*,#756,.F.);
#1071=ORIENTED_EDGE('',*,*,#808,.T.);
#1072=ORIENTED_EDGE('',*,*,#809,.T.);
#1073=ORIENTED_EDGE('',*,*,#800,.T.);
#1074=ORIENTED_EDGE('',*,*,#810,.T.);
#1075=ORIENTED_EDGE('',*,*,#809,.F.);
#1076=ORIENTED_EDGE('',*,*,#811,.F.);
#1077=ORIENTED_EDGE('',*,*,#812,.F.);
#1078=ORIENTED_EDGE('',*,*,#801,.F.);
#1079=ORIENTED_EDGE('',*,*,#813,.T.);
#1080=ORIENTED_EDGE('',*,*,#814,.T.);
#1081=ORIENTED_EDGE('',*,*,#802,.T.);
#1082=ORIENTED_EDGE('',*,*,#812,.T.);
#1083=ORIENTED_EDGE('',*,*,#814,.F.);
#1084=ORIENTED_EDGE('',*,*,#815,.F.);
#1085=ORIENTED_EDGE('',*,*,#782,.F.);
#1086=ORIENTED_EDGE('',*,*,#803,.F.);
#1087=ORIENTED_EDGE('',*,*,#794,.T.);
#1088=ORIENTED_EDGE('',*,*,#816,.T.);
#1089=ORIENTED_EDGE('',*,*,#772,.T.);
#1090=ORIENTED_EDGE('',*,*,#759,.T.);
#1091=ORIENTED_EDGE('',*,*,#816,.F.);
#1092=ORIENTED_EDGE('',*,*,#793,.F.);
#1093=ORIENTED_EDGE('',*,*,#817,.F.);
#1094=ORIENTED_EDGE('',*,*,#773,.F.);
#1095=ORIENTED_EDGE('',*,*,#792,.T.);
#1096=ORIENTED_EDGE('',*,*,#769,.T.);
#1097=ORIENTED_EDGE('',*,*,#774,.T.);
#1098=ORIENTED_EDGE('',*,*,#817,.T.);
#1099=ORIENTED_EDGE('',*,*,#810,.F.);
#1100=ORIENTED_EDGE('',*,*,#799,.F.);
#1101=ORIENTED_EDGE('',*,*,#754,.F.);
#1102=ORIENTED_EDGE('',*,*,#818,.F.);
#1103=ORIENTED_EDGE('',*,*,#789,.T.);
#1104=ORIENTED_EDGE('',*,*,#685,.T.);
#1105=ORIENTED_EDGE('',*,*,#746,.T.);
#1106=ORIENTED_EDGE('',*,*,#819,.T.);
#1107=ORIENTED_EDGE('',*,*,#820,.T.);
#1108=ORIENTED_EDGE('',*,*,#821,.T.);
#1109=ORIENTED_EDGE('',*,*,#790,.T.);
#1110=ORIENTED_EDGE('',*,*,#819,.F.);
#1111=ORIENTED_EDGE('',*,*,#730,.T.);
#1112=ORIENTED_EDGE('',*,*,#687,.T.);
#1113=ORIENTED_EDGE('',*,*,#788,.T.);
#1114=ORIENTED_EDGE('',*,*,#822,.T.);
#1115=ORIENTED_EDGE('',*,*,#787,.T.);
#1116=ORIENTED_EDGE('',*,*,#823,.T.);
#1117=ORIENTED_EDGE('',*,*,#824,.T.);
#1118=ORIENTED_EDGE('',*,*,#822,.F.);
#1119=ORIENTED_EDGE('',*,*,#727,.F.);
#1120=ORIENTED_EDGE('',*,*,#731,.T.);
#1121=ORIENTED_EDGE('',*,*,#824,.F.);
#1122=ORIENTED_EDGE('',*,*,#825,.T.);
#1123=ORIENTED_EDGE('',*,*,#826,.T.);
#1124=ORIENTED_EDGE('',*,*,#827,.T.);
#1125=ORIENTED_EDGE('',*,*,#805,.T.);
#1126=ORIENTED_EDGE('',*,*,#695,.T.);
#1127=ORIENTED_EDGE('',*,*,#828,.T.);
#1128=ORIENTED_EDGE('',*,*,#829,.T.);
#1129=ORIENTED_EDGE('',*,*,#830,.T.);
#1130=ORIENTED_EDGE('',*,*,#831,.T.);
#1131=ORIENTED_EDGE('',*,*,#806,.T.);
#1132=ORIENTED_EDGE('',*,*,#829,.F.);
#1133=ORIENTED_EDGE('',*,*,#740,.T.);
#1134=ORIENTED_EDGE('',*,*,#677,.T.);
#1135=ORIENTED_EDGE('',*,*,#798,.T.);
#1136=ORIENTED_EDGE('',*,*,#832,.T.);
#1137=ORIENTED_EDGE('',*,*,#797,.T.);
#1138=ORIENTED_EDGE('',*,*,#833,.T.);
#1139=ORIENTED_EDGE('',*,*,#834,.T.);
#1140=ORIENTED_EDGE('',*,*,#832,.F.);
#1141=ORIENTED_EDGE('',*,*,#737,.F.);
#1142=ORIENTED_EDGE('',*,*,#741,.T.);
#1143=ORIENTED_EDGE('',*,*,#834,.F.);
#1144=ORIENTED_EDGE('',*,*,#835,.T.);
#1145=ORIENTED_EDGE('',*,*,#836,.T.);
#1146=ORIENTED_EDGE('',*,*,#837,.T.);
#1147=ORIENTED_EDGE('',*,*,#837,.F.);
#1148=ORIENTED_EDGE('',*,*,#838,.T.);
#1149=ORIENTED_EDGE('',*,*,#704,.T.);
#1150=ORIENTED_EDGE('',*,*,#838,.F.);
#1151=ORIENTED_EDGE('',*,*,#738,.F.);
#1152=ORIENTED_EDGE('',*,*,#836,.F.);
#1153=ORIENTED_EDGE('',*,*,#839,.F.);
#1154=ORIENTED_EDGE('',*,*,#680,.F.);
#1155=ORIENTED_EDGE('',*,*,#840,.F.);
#1156=ORIENTED_EDGE('',*,*,#841,.T.);
#1157=ORIENTED_EDGE('',*,*,#705,.T.);
#1158=ORIENTED_EDGE('',*,*,#841,.F.);
#1159=ORIENTED_EDGE('',*,*,#744,.F.);
#1160=ORIENTED_EDGE('',*,*,#682,.F.);
#1161=ORIENTED_EDGE('',*,*,#842,.T.);
#1162=ORIENTED_EDGE('',*,*,#843,.F.);
#1163=ORIENTED_EDGE('',*,*,#742,.F.);
#1164=ORIENTED_EDGE('',*,*,#843,.T.);
#1165=ORIENTED_EDGE('',*,*,#844,.T.);
#1166=ORIENTED_EDGE('',*,*,#820,.F.);
#1167=ORIENTED_EDGE('',*,*,#745,.T.);
#1168=ORIENTED_EDGE('',*,*,#840,.T.);
#1169=ORIENTED_EDGE('',*,*,#827,.F.);
#1170=ORIENTED_EDGE('',*,*,#845,.T.);
#1171=ORIENTED_EDGE('',*,*,#706,.T.);
#1172=ORIENTED_EDGE('',*,*,#845,.F.);
#1173=ORIENTED_EDGE('',*,*,#728,.F.);
#1174=ORIENTED_EDGE('',*,*,#826,.F.);
#1175=ORIENTED_EDGE('',*,*,#846,.F.);
#1176=ORIENTED_EDGE('',*,*,#690,.F.);
#1177=ORIENTED_EDGE('',*,*,#847,.F.);
#1178=ORIENTED_EDGE('',*,*,#848,.T.);
#1179=ORIENTED_EDGE('',*,*,#707,.T.);
#1180=ORIENTED_EDGE('',*,*,#848,.F.);
#1181=ORIENTED_EDGE('',*,*,#733,.F.);
#1182=ORIENTED_EDGE('',*,*,#849,.F.);
#1183=ORIENTED_EDGE('',*,*,#828,.F.);
#1184=ORIENTED_EDGE('',*,*,#694,.T.);
#1185=ORIENTED_EDGE('',*,*,#732,.F.);
#1186=ORIENTED_EDGE('',*,*,#736,.T.);
#1187=ORIENTED_EDGE('',*,*,#850,.T.);
#1188=ORIENTED_EDGE('',*,*,#830,.F.);
#1189=ORIENTED_EDGE('',*,*,#849,.T.);
#1190=ORIENTED_EDGE('',*,*,#847,.T.);
#1191=ORIENTED_EDGE('',*,*,#701,.T.);
#1192=ORIENTED_EDGE('',*,*,#851,.T.);
#1193=ORIENTED_EDGE('',*,*,#752,.F.);
#1194=ORIENTED_EDGE('',*,*,#777,.F.);
#1195=ORIENTED_EDGE('',*,*,#818,.T.);
#1196=ORIENTED_EDGE('',*,*,#753,.F.);
#1197=ORIENTED_EDGE('',*,*,#851,.F.);
#1198=ORIENTED_EDGE('',*,*,#700,.T.);
#1199=ORIENTED_EDGE('',*,*,#852,.T.);
#1200=ORIENTED_EDGE('',*,*,#783,.F.);
#1201=ORIENTED_EDGE('',*,*,#815,.T.);
#1202=ORIENTED_EDGE('',*,*,#813,.F.);
#1203=ORIENTED_EDGE('',*,*,#811,.T.);
#1204=ORIENTED_EDGE('',*,*,#808,.F.);
#1205=ORIENTED_EDGE('',*,*,#691,.F.);
#1206=ORIENTED_EDGE('',*,*,#846,.T.);
#1207=ORIENTED_EDGE('',*,*,#825,.F.);
#1208=ORIENTED_EDGE('',*,*,#823,.F.);
#1209=ORIENTED_EDGE('',*,*,#786,.T.);
#1210=ORIENTED_EDGE('',*,*,#757,.F.);
#1211=ORIENTED_EDGE('',*,*,#807,.F.);
#1212=ORIENTED_EDGE('',*,*,#831,.F.);
#1213=ORIENTED_EDGE('',*,*,#850,.F.);
#1214=ORIENTED_EDGE('',*,*,#735,.F.);
#1215=ORIENTED_EDGE('',*,*,#703,.T.);
#1216=ORIENTED_EDGE('',*,*,#776,.T.);
#1217=ORIENTED_EDGE('',*,*,#784,.F.);
#1218=ORIENTED_EDGE('',*,*,#852,.F.);
#1219=ORIENTED_EDGE('',*,*,#681,.F.);
#1220=ORIENTED_EDGE('',*,*,#839,.T.);
#1221=ORIENTED_EDGE('',*,*,#835,.F.);
#1222=ORIENTED_EDGE('',*,*,#833,.F.);
#1223=ORIENTED_EDGE('',*,*,#796,.T.);
#1224=ORIENTED_EDGE('',*,*,#779,.F.);
#1225=ORIENTED_EDGE('',*,*,#791,.F.);
#1226=ORIENTED_EDGE('',*,*,#821,.F.);
#1227=ORIENTED_EDGE('',*,*,#844,.F.);
#1228=ORIENTED_EDGE('',*,*,#842,.F.);
#1229=PLANE('',#1371);
#1230=PLANE('',#1372);
#1231=PLANE('',#1377);
#1232=PLANE('',#1378);
#1233=PLANE('',#1379);
#1234=PLANE('',#1380);
#1235=PLANE('',#1381);
#1236=PLANE('',#1382);
#1237=PLANE('',#1383);
#1238=PLANE('',#1384);
#1239=PLANE('',#1385);
#1240=PLANE('',#1386);
#1241=PLANE('',#1387);
#1242=PLANE('',#1388);
#1243=PLANE('',#1389);
#1244=PLANE('',#1390);
#1245=PLANE('',#1391);
#1246=PLANE('',#1392);
#1247=PLANE('',#1393);
#1248=PLANE('',#1394);
#1249=PLANE('',#1396);
#1250=PLANE('',#1398);
#1251=PLANE('',#1400);
#1252=PLANE('',#1401);
#1253=PLANE('',#1402);
#1254=PLANE('',#1403);
#1255=PLANE('',#1404);
#1256=PLANE('',#1405);
#1257=PLANE('',#1407);
#1258=PLANE('',#1409);
#1259=PLANE('',#1410);
#1260=PLANE('',#1412);
#1261=PLANE('',#1413);
#1262=PLANE('',#1414);
#1263=PLANE('',#1415);
#1264=PLANE('',#1416);
#1265=PLANE('',#1417);
#1266=PLANE('',#1418);
#1267=PLANE('',#1419);
#1268=PLANE('',#1420);
#1269=PLANE('',#1421);
#1270=PLANE('',#1422);
#1271=PLANE('',#1423);
#1272=PLANE('',#1424);
#1273=PLANE('',#1425);
#1274=PLANE('',#1427);
#1275=PLANE('',#1428);
#1276=PLANE('',#1429);
#1277=PLANE('',#1430);
#1278=PLANE('',#1431);
#1279=PLANE('',#1434);
#1280=PLANE('',#1437);
#1281=PLANE('',#1438);
#1282=PLANE('',#1440);
#1283=PLANE('',#1443);
#1284=PLANE('',#1444);
#1285=PLANE('',#1445);
#1286=PLANE('',#1446);
#1287=PLANE('',#1447);
#1288=PLANE('',#1448);
#1289=PLANE('',#1449);
#1290=ADVANCED_FACE('',(#44),#1229,.T.);
#1291=ADVANCED_FACE('',(#45,#33,#34,#35,#36,#37),#1230,.F.);
#1292=ADVANCED_FACE('',(#46),#1231,.T.);
#1293=ADVANCED_FACE('',(#47),#1232,.T.);
#1294=ADVANCED_FACE('',(#48),#1233,.T.);
#1295=ADVANCED_FACE('',(#49),#1234,.T.);
#1296=ADVANCED_FACE('',(#50),#1235,.T.);
#1297=ADVANCED_FACE('',(#51),#1236,.T.);
#1298=ADVANCED_FACE('',(#52),#1237,.T.);
#1299=ADVANCED_FACE('',(#53),#1238,.T.);
#1300=ADVANCED_FACE('',(#54),#1239,.T.);
#1301=ADVANCED_FACE('',(#55),#1240,.T.);
#1302=ADVANCED_FACE('',(#56),#1241,.T.);
#1303=ADVANCED_FACE('',(#57),#1242,.T.);
#1304=ADVANCED_FACE('',(#58),#1243,.T.);
#1305=ADVANCED_FACE('',(#59),#1244,.T.);
#1306=ADVANCED_FACE('',(#60),#1245,.T.);
#1307=ADVANCED_FACE('',(#61),#1246,.T.);
#1308=ADVANCED_FACE('',(#62),#1247,.T.);
#1309=ADVANCED_FACE('',(#63),#1248,.F.);
#1310=ADVANCED_FACE('',(#64),#1249,.F.);
#1311=ADVANCED_FACE('',(#65,#38),#1250,.T.);
#1312=ADVANCED_FACE('',(#66),#1251,.F.);
#1313=ADVANCED_FACE('',(#67),#1252,.F.);
#1314=ADVANCED_FACE('',(#68),#1253,.F.);
#1315=ADVANCED_FACE('',(#69),#1254,.F.);
#1316=ADVANCED_FACE('',(#70),#1255,.T.);
#1317=ADVANCED_FACE('',(#71,#39),#1256,.T.);
#1318=ADVANCED_FACE('',(#72),#1257,.T.);
#1319=ADVANCED_FACE('',(#73),#15,.F.);
#1320=ADVANCED_FACE('',(#74),#1258,.T.);
#1321=ADVANCED_FACE('',(#75),#1259,.T.);
#1322=ADVANCED_FACE('',(#76),#16,.F.);
#1323=ADVANCED_FACE('',(#77),#1260,.T.);
#1324=ADVANCED_FACE('',(#78),#1261,.T.);
#1325=ADVANCED_FACE('',(#79),#1262,.F.);
#1326=ADVANCED_FACE('',(#80),#1263,.T.);
#1327=ADVANCED_FACE('',(#81),#1264,.F.);
#1328=ADVANCED_FACE('',(#82),#1265,.T.);
#1329=ADVANCED_FACE('',(#83),#1266,.F.);
#1330=ADVANCED_FACE('',(#84),#1267,.T.);
#1331=ADVANCED_FACE('',(#85),#1268,.F.);
#1332=ADVANCED_FACE('',(#86),#1269,.T.);
#1333=ADVANCED_FACE('',(#87),#1270,.T.);
#1334=ADVANCED_FACE('',(#88),#1271,.T.);
#1335=ADVANCED_FACE('',(#89),#1272,.T.);
#1336=ADVANCED_FACE('',(#90,#40),#1273,.T.);
#1337=ADVANCED_FACE('',(#91),#1274,.T.);
#1338=ADVANCED_FACE('',(#92),#1275,.T.);
#1339=ADVANCED_FACE('',(#93),#1276,.T.);
#1340=ADVANCED_FACE('',(#94),#1277,.T.);
#1341=ADVANCED_FACE('',(#95,#41),#1278,.T.);
#1342=ADVANCED_FACE('',(#96),#17,.F.);
#1343=ADVANCED_FACE('',(#97),#1279,.T.);
#1344=ADVANCED_FACE('',(#98),#18,.F.);
#1345=ADVANCED_FACE('',(#99),#1280,.T.);
#1346=ADVANCED_FACE('',(#100,#42),#1281,.T.);
#1347=ADVANCED_FACE('',(#101),#19,.F.);
#1348=ADVANCED_FACE('',(#102),#1282,.T.);
#1349=ADVANCED_FACE('',(#103),#20,.F.);
#1350=ADVANCED_FACE('',(#104),#1283,.T.);
#1351=ADVANCED_FACE('',(#105,#43),#1284,.T.);
#1352=ADVANCED_FACE('',(#106),#1285,.T.);
#1353=ADVANCED_FACE('',(#107),#1286,.T.);
#1354=ADVANCED_FACE('',(#108),#1287,.T.);
#1355=ADVANCED_FACE('',(#109),#1288,.T.);
#1356=ADVANCED_FACE('',(#110),#1289,.T.);
#1357=CLOSED_SHELL('',(#1290,#1291,#1292,#1293,#1294,#1295,#1296,#1297,
#1298,#1299,#1300,#1301,#1302,#1303,#1304,#1305,#1306,#1307,#1308,#1309,
#1310,#1311,#1312,#1313,#1314,#1315,#1316,#1317,#1318,#1319,#1320,#1321,
#1322,#1323,#1324,#1325,#1326,#1327,#1328,#1329,#1330,#1331,#1332,#1333,
#1334,#1335,#1336,#1337,#1338,#1339,#1340,#1341,#1342,#1343,#1344,#1345,
#1346,#1347,#1348,#1349,#1350,#1351,#1352,#1353,#1354,#1355,#1356));
#1358=DERIVED_UNIT_ELEMENT(#1360,1.);
#1359=DERIVED_UNIT_ELEMENT(#2171,-3.);
#1360=(
MASS_UNIT()
NAMED_UNIT(*)
SI_UNIT(.KILO.,.GRAM.)
);
#1361=DERIVED_UNIT((#1358,#1359));
#1362=MEASURE_REPRESENTATION_ITEM('density measure',
POSITIVE_RATIO_MEASURE(7850.),#1361);
#1363=PROPERTY_DEFINITION_REPRESENTATION(#1368,#1365);
#1364=PROPERTY_DEFINITION_REPRESENTATION(#1369,#1366);
#1365=REPRESENTATION('material name',(#1367),#2168);
#1366=REPRESENTATION('density',(#1362),#2168);
#1367=DESCRIPTIVE_REPRESENTATION_ITEM('Steel','Steel');
#1368=PROPERTY_DEFINITION('material property','material name',#2178);
#1369=PROPERTY_DEFINITION('material property','density of part',#2178);
#1370=AXIS2_PLACEMENT_3D('',#1786,#1450,#1451);
#1371=AXIS2_PLACEMENT_3D('',#1787,#1452,#1453);
#1372=AXIS2_PLACEMENT_3D('',#1796,#1458,#1459);
#1373=AXIS2_PLACEMENT_3D('',#1867,#1495,#1496);
#1374=AXIS2_PLACEMENT_3D('',#1869,#1497,#1498);
#1375=AXIS2_PLACEMENT_3D('',#1871,#1499,#1500);
#1376=AXIS2_PLACEMENT_3D('',#1873,#1501,#1502);
#1377=AXIS2_PLACEMENT_3D('',#1874,#1503,#1504);
#1378=AXIS2_PLACEMENT_3D('',#1880,#1508,#1509);
#1379=AXIS2_PLACEMENT_3D('',#1884,#1512,#1513);
#1380=AXIS2_PLACEMENT_3D('',#1888,#1516,#1517);
#1381=AXIS2_PLACEMENT_3D('',#1890,#1519,#1520);
#1382=AXIS2_PLACEMENT_3D('',#1896,#1524,#1525);
#1383=AXIS2_PLACEMENT_3D('',#1902,#1529,#1530);
#1384=AXIS2_PLACEMENT_3D('',#1906,#1533,#1534);
#1385=AXIS2_PLACEMENT_3D('',#1910,#1537,#1538);
#1386=AXIS2_PLACEMENT_3D('',#1912,#1540,#1541);
#1387=AXIS2_PLACEMENT_3D('',#1918,#1545,#1546);
#1388=AXIS2_PLACEMENT_3D('',#1922,#1549,#1550);
#1389=AXIS2_PLACEMENT_3D('',#1928,#1554,#1555);
#1390=AXIS2_PLACEMENT_3D('',#1932,#1558,#1559);
#1391=AXIS2_PLACEMENT_3D('',#1938,#1563,#1564);
#1392=AXIS2_PLACEMENT_3D('',#1942,#1567,#1568);
#1393=AXIS2_PLACEMENT_3D('',#1948,#1572,#1573);
#1394=AXIS2_PLACEMENT_3D('',#1952,#1576,#1577);
#1395=AXIS2_PLACEMENT_3D('',#1954,#1578,#1579);
#1396=AXIS2_PLACEMENT_3D('',#1955,#1580,#1581);
#1397=AXIS2_PLACEMENT_3D('',#1957,#1582,#1583);
#1398=AXIS2_PLACEMENT_3D('',#1958,#1584,#1585);
#1399=AXIS2_PLACEMENT_3D('',#1977,#1595,#1596);
#1400=AXIS2_PLACEMENT_3D('',#1978,#1597,#1598);
#1401=AXIS2_PLACEMENT_3D('',#1987,#1603,#1604);
#1402=AXIS2_PLACEMENT_3D('',#1996,#1609,#1610);
#1403=AXIS2_PLACEMENT_3D('',#1999,#1613,#1614);
#1404=AXIS2_PLACEMENT_3D('',#2005,#1618,#1619);
#1405=AXIS2_PLACEMENT_3D('',#2015,#1626,#1627);
#1406=AXIS2_PLACEMENT_3D('',#2029,#1635,#1636);
#1407=AXIS2_PLACEMENT_3D('',#2030,#1637,#1638);
#1408=AXIS2_PLACEMENT_3D('',#2046,#1648,#1649);
#1409=AXIS2_PLACEMENT_3D('',#2048,#1651,#1652);
#1410=AXIS2_PLACEMENT_3D('',#2054,#1656,#1657);
#1411=AXIS2_PLACEMENT_3D('',#2064,#1663,#1664);
#1412=AXIS2_PLACEMENT_3D('',#2066,#1666,#1667);
#1413=AXIS2_PLACEMENT_3D('',#2072,#1671,#1672);
#1414=AXIS2_PLACEMENT_3D('',#2078,#1676,#1677);
#1415=AXIS2_PLACEMENT_3D('',#2082,#1680,#1681);
#1416=AXIS2_PLACEMENT_3D('',#2086,#1684,#1685);
#1417=AXIS2_PLACEMENT_3D('',#2088,#1687,#1688);
#1418=AXIS2_PLACEMENT_3D('',#2090,#1690,#1691);
#1419=AXIS2_PLACEMENT_3D('',#2092,#1693,#1694);
#1420=AXIS2_PLACEMENT_3D('',#2093,#1695,#1696);
#1421=AXIS2_PLACEMENT_3D('',#2095,#1698,#1699);
#1422=AXIS2_PLACEMENT_3D('',#2097,#1701,#1702);
#1423=AXIS2_PLACEMENT_3D('',#2101,#1705,#1706);
#1424=AXIS2_PLACEMENT_3D('',#2103,#1708,#1709);
#1425=AXIS2_PLACEMENT_3D('',#2107,#1712,#1713);
#1426=AXIS2_PLACEMENT_3D('',#2112,#1716,#1717);
#1427=AXIS2_PLACEMENT_3D('',#2113,#1718,#1719);
#1428=AXIS2_PLACEMENT_3D('',#2117,#1722,#1723);
#1429=AXIS2_PLACEMENT_3D('',#2121,#1726,#1727);
#1430=AXIS2_PLACEMENT_3D('',#2123,#1729,#1730);
#1431=AXIS2_PLACEMENT_3D('',#2127,#1733,#1734);
#1432=AXIS2_PLACEMENT_3D('',#2132,#1737,#1738);
#1433=AXIS2_PLACEMENT_3D('',#2133,#1739,#1740);
#1434=AXIS2_PLACEMENT_3D('',#2135,#1742,#1743);
#1435=AXIS2_PLACEMENT_3D('',#2137,#1745,#1746);
#1436=AXIS2_PLACEMENT_3D('',#2139,#1747,#1748);
#1437=AXIS2_PLACEMENT_3D('',#2141,#1750,#1751);
#1438=AXIS2_PLACEMENT_3D('',#2145,#1754,#1755);
#1439=AXIS2_PLACEMENT_3D('',#2147,#1757,#1758);
#1440=AXIS2_PLACEMENT_3D('',#2149,#1760,#1761);
#1441=AXIS2_PLACEMENT_3D('',#2151,#1763,#1764);
#1442=AXIS2_PLACEMENT_3D('',#2153,#1765,#1766);
#1443=AXIS2_PLACEMENT_3D('',#2155,#1768,#1769);
#1444=AXIS2_PLACEMENT_3D('',#2157,#1771,#1772);
#1445=AXIS2_PLACEMENT_3D('',#2159,#1774,#1775);
#1446=AXIS2_PLACEMENT_3D('',#2161,#1777,#1778);
#1447=AXIS2_PLACEMENT_3D('',#2163,#1780,#1781);
#1448=AXIS2_PLACEMENT_3D('',#2164,#1782,#1783);
#1449=AXIS2_PLACEMENT_3D('',#2165,#1784,#1785);
#1450=DIRECTION('axis',(0.,0.,1.));
#1451=DIRECTION('refdir',(1.,0.,0.));
#1452=DIRECTION('center_axis',(0.707106781186544,0.707106781186551,0.));
#1453=DIRECTION('ref_axis',(0.,0.,-1.));
#1454=DIRECTION('',(0.707106781186551,-0.707106781186544,0.));
#1455=DIRECTION('',(0.,0.,1.));
#1456=DIRECTION('',(0.707106781186551,-0.707106781186544,0.));
#1457=DIRECTION('',(0.,0.,-1.));
#1458=DIRECTION('center_axis',(0.,0.,1.));
#1459=DIRECTION('ref_axis',(1.,0.,0.));
#1460=DIRECTION('',(0.707106781186551,0.707106781186544,0.));
#1461=DIRECTION('',(0.,1.,0.));
#1462=DIRECTION('',(0.707106781186547,-0.707106781186548,0.));
#1463=DIRECTION('',(-1.,0.,0.));
#1464=DIRECTION('',(0.,1.,0.));
#1465=DIRECTION('',(1.,0.,0.));
#1466=DIRECTION('',(0.707106781186547,0.707106781186548,0.));
#1467=DIRECTION('',(0.,1.,0.));
#1468=DIRECTION('',(-0.70710678118653,0.707106781186565,0.));
#1469=DIRECTION('',(1.,0.,0.));
#1470=DIRECTION('',(-0.707106781186549,0.707106781186546,0.));
#1471=DIRECTION('',(0.,-1.,0.));
#1472=DIRECTION('',(-1.,0.,0.));
#1473=DIRECTION('',(0.,1.,0.));
#1474=DIRECTION('',(-0.707106781186549,-0.707106781186546,0.));
#1475=DIRECTION('',(1.,0.,0.));
#1476=DIRECTION('',(-0.707106781186529,-0.707106781186566,0.));
#1477=DIRECTION('',(0.,-1.,0.));
#1478=DIRECTION('',(0.707106781186541,-0.707106781186554,0.));
#1479=DIRECTION('',(-1.,0.,0.));
#1480=DIRECTION('',(0.707106781186543,-0.707106781186552,0.));
#1481=DIRECTION('',(0.,1.,0.));
#1482=DIRECTION('',(1.,0.,0.));
#1483=DIRECTION('',(0.,1.,0.));
#1484=DIRECTION('',(0.707106781186543,0.707106781186552,0.));
#1485=DIRECTION('',(1.,0.,0.));
#1486=DIRECTION('',(0.707106781186542,0.707106781186553,0.));
#1487=DIRECTION('',(0.,1.,0.));
#1488=DIRECTION('',(-1.,0.,0.));
#1489=DIRECTION('',(0.,1.,0.));
#1490=DIRECTION('',(1.,0.,0.));
#1491=DIRECTION('',(7.87007775830771E-18,-1.,0.));
#1492=DIRECTION('',(1.,0.,0.));
#1493=DIRECTION('',(0.,1.,0.));
#1494=DIRECTION('',(-1.,0.,0.));
#1495=DIRECTION('center_axis',(0.,0.,-1.));
#1496=DIRECTION('ref_axis',(-1.,0.,0.));
#1497=DIRECTION('center_axis',(0.,0.,-1.));
#1498=DIRECTION('ref_axis',(-1.,0.,0.));
#1499=DIRECTION('center_axis',(0.,0.,-1.));
#1500=DIRECTION('ref_axis',(-1.,0.,0.));
#1501=DIRECTION('center_axis',(0.,0.,-1.));
#1502=DIRECTION('ref_axis',(-1.,0.,0.));
#1503=DIRECTION('center_axis',(0.707106781186544,-0.707106781186551,0.));
#1504=DIRECTION('ref_axis',(0.,0.,-1.));
#1505=DIRECTION('',(0.,0.,1.));
#1506=DIRECTION('',(-0.707106781186551,-0.707106781186544,0.));
#1507=DIRECTION('',(0.,0.,-1.));
#1508=DIRECTION('center_axis',(0.,-1.,0.));
#1509=DIRECTION('ref_axis',(1.,0.,0.));
#1510=DIRECTION('',(0.,0.,1.));
#1511=DIRECTION('',(1.,0.,0.));
#1512=DIRECTION('center_axis',(1.,0.,0.));
#1513=DIRECTION('ref_axis',(0.,1.,0.));
#1514=DIRECTION('',(0.,0.,1.));
#1515=DIRECTION('',(0.,1.,0.));
#1516=DIRECTION('center_axis',(0.,1.,0.));
#1517=DIRECTION('ref_axis',(-1.,0.,0.));
#1518=DIRECTION('',(-1.,0.,0.));
#1519=DIRECTION('center_axis',(0.707106781186548,0.707106781186547,0.));
#1520=DIRECTION('ref_axis',(0.,0.,-1.));
#1521=DIRECTION('',(0.,0.,1.));
#1522=DIRECTION('',(0.707106781186547,-0.707106781186548,0.));
#1523=DIRECTION('',(0.,0.,-1.));
#1524=DIRECTION('center_axis',(0.707106781186548,-0.707106781186547,0.));
#1525=DIRECTION('ref_axis',(0.,0.,-1.));
#1526=DIRECTION('',(0.,0.,1.));
#1527=DIRECTION('',(-0.707106781186547,-0.707106781186548,0.));
#1528=DIRECTION('',(0.,0.,-1.));
#1529=DIRECTION('center_axis',(0.,-1.,0.));
#1530=DIRECTION('ref_axis',(1.,0.,0.));
#1531=DIRECTION('',(0.,0.,1.));
#1532=DIRECTION('',(1.,0.,0.));
#1533=DIRECTION('center_axis',(1.,0.,0.));
#1534=DIRECTION('ref_axis',(0.,1.,0.));
#1535=DIRECTION('',(0.,0.,1.));
#1536=DIRECTION('',(0.,1.,0.));
#1537=DIRECTION('center_axis',(0.,1.,0.));
#1538=DIRECTION('ref_axis',(-1.,0.,0.));
#1539=DIRECTION('',(-1.,0.,0.));
#1540=DIRECTION('center_axis',(-0.707106781186552,-0.707106781186543,0.));
#1541=DIRECTION('ref_axis',(0.,0.,1.));
#1542=DIRECTION('',(-0.707106781186543,0.707106781186552,0.));
#1543=DIRECTION('',(0.,0.,-1.));
#1544=DIRECTION('',(0.,0.,1.));
#1545=DIRECTION('center_axis',(0.,-1.,0.));
#1546=DIRECTION('ref_axis',(1.,0.,0.));
#1547=DIRECTION('',(0.,0.,-1.));
#1548=DIRECTION('',(1.,0.,0.));
#1549=DIRECTION('center_axis',(0.707106781186552,-0.707106781186543,0.));
#1550=DIRECTION('ref_axis',(0.,0.,-1.));
#1551=DIRECTION('',(-0.707106781186543,-0.707106781186552,0.));
#1552=DIRECTION('',(0.,0.,-1.));
#1553=DIRECTION('',(0.,0.,1.));
#1554=DIRECTION('center_axis',(1.,0.,0.));
#1555=DIRECTION('ref_axis',(0.,1.,0.));
#1556=DIRECTION('',(0.,0.,1.));
#1557=DIRECTION('',(0.,1.,0.));
#1558=DIRECTION('center_axis',(0.707106781186546,0.707106781186549,0.));
#1559=DIRECTION('ref_axis',(0.,0.,-1.));
#1560=DIRECTION('',(0.707106781186549,-0.707106781186546,0.));
#1561=DIRECTION('',(0.,0.,-1.));
#1562=DIRECTION('',(0.,0.,1.));
#1563=DIRECTION('center_axis',(0.,1.,0.));
#1564=DIRECTION('ref_axis',(-1.,0.,0.));
#1565=DIRECTION('',(0.,0.,-1.));
#1566=DIRECTION('',(-1.,0.,0.));
#1567=DIRECTION('center_axis',(-0.707106781186546,0.707106781186549,0.));
#1568=DIRECTION('ref_axis',(0.,0.,1.));
#1569=DIRECTION('',(0.707106781186549,0.707106781186546,0.));
#1570=DIRECTION('',(0.,0.,-1.));
#1571=DIRECTION('',(0.,0.,1.));
#1572=DIRECTION('center_axis',(0.,1.,0.));
#1573=DIRECTION('ref_axis',(-1.,0.,0.));
#1574=DIRECTION('',(-1.,0.,0.));
#1575=DIRECTION('',(0.,0.,1.));
#1576=DIRECTION('center_axis',(0.,0.,-1.));
#1577=DIRECTION('ref_axis',(1.,0.,0.));
#1578=DIRECTION('center_axis',(0.,0.,-1.));
#1579=DIRECTION('ref_axis',(1.,0.,0.));
#1580=DIRECTION('center_axis',(0.,0.,-1.));
#1581=DIRECTION('ref_axis',(1.,0.,0.));
#1582=DIRECTION('center_axis',(0.,0.,-1.));
#1583=DIRECTION('ref_axis',(1.,0.,0.));
#1584=DIRECTION('center_axis',(0.,0.,1.));
#1585=DIRECTION('ref_axis',(1.,0.,0.));
#1586=DIRECTION('',(0.,-1.,0.));
#1587=DIRECTION('',(1.,0.,0.));
#1588=DIRECTION('',(0.,1.,0.));
#1589=DIRECTION('',(1.,0.,0.));
#1590=DIRECTION('',(7.87007775830771E-18,-1.,0.));
#1591=DIRECTION('',(1.,0.,0.));
#1592=DIRECTION('',(0.,1.,0.));
#1593=DIRECTION('',(0.,1.,0.));
#1594=DIRECTION('',(-1.,0.,0.));
#1595=DIRECTION('center_axis',(0.,0.,-1.));
#1596=DIRECTION('ref_axis',(1.,0.,0.));
#1597=DIRECTION('center_axis',(0.,0.,-1.));
#1598=DIRECTION('ref_axis',(-1.,0.,0.));
#1599=DIRECTION('',(-1.,0.,0.));
#1600=DIRECTION('',(0.,-1.,0.));
#1601=DIRECTION('',(1.,0.,0.));
#1602=DIRECTION('',(0.,1.,0.));
#1603=DIRECTION('center_axis',(0.,-1.,0.));
#1604=DIRECTION('ref_axis',(-1.,0.,0.));
#1605=DIRECTION('',(-1.,0.,0.));
#1606=DIRECTION('',(0.,0.,1.));
#1607=DIRECTION('',(-1.,0.,0.));
#1608=DIRECTION('',(0.,0.,-1.));
#1609=DIRECTION('center_axis',(0.,1.,0.));
#1610=DIRECTION('ref_axis',(1.,0.,0.));
#1611=DIRECTION('',(0.,0.,1.));
#1612=DIRECTION('',(0.,0.,-1.));
#1613=DIRECTION('center_axis',(0.,0.,-1.));
#1614=DIRECTION('ref_axis',(-1.,0.,0.));
#1615=DIRECTION('',(1.,0.,0.));
#1616=DIRECTION('',(0.,1.,0.));
#1617=DIRECTION('',(0.,-1.,0.));
#1618=DIRECTION('center_axis',(1.,0.,0.));
#1619=DIRECTION('ref_axis',(0.,1.,0.));
#1620=DIRECTION('',(0.,0.707106781186554,0.707106781186541));
#1621=DIRECTION('',(0.,-1.,0.));
#1622=DIRECTION('',(0.,0.707106781186548,-0.707106781186548));
#1623=DIRECTION('',(0.,1.,0.));
#1624=DIRECTION('',(0.,0.,1.));
#1625=DIRECTION('',(0.,0.,1.));
#1626=DIRECTION('center_axis',(0.,0.,1.));
#1627=DIRECTION('ref_axis',(1.,0.,0.));
#1628=DIRECTION('',(0.,-1.,0.));
#1629=DIRECTION('',(1.,0.,0.));
#1630=DIRECTION('',(0.,1.,0.));
#1631=DIRECTION('',(0.,1.,0.));
#1632=DIRECTION('',(-1.,0.,0.));
#1633=DIRECTION('',(7.87007775830771E-18,-1.,0.));
#1634=DIRECTION('',(-1.,0.,0.));
#1635=DIRECTION('center_axis',(0.,0.,-1.));
#1636=DIRECTION('ref_axis',(1.,0.,0.));
#1637=DIRECTION('center_axis',(-1.,0.,0.));
#1638=DIRECTION('ref_axis',(0.,-1.,0.));
#1639=DIRECTION('',(0.,0.,1.));
#1640=DIRECTION('',(0.,1.,0.));
#1641=DIRECTION('',(0.,0.,1.));
#1642=DIRECTION('',(0.,0.,-1.));
#1643=DIRECTION('',(0.,1.,0.));
#1644=DIRECTION('',(0.,0.,1.));
#1645=DIRECTION('',(0.,-0.707106781186548,0.707106781186548));
#1646=DIRECTION('',(0.,1.,0.));
#1647=DIRECTION('',(0.,-0.707106781186554,-0.707106781186541));
#1648=DIRECTION('center_axis',(0.,0.,1.));
#1649=DIRECTION('ref_axis',(1.,0.,0.));
#1650=DIRECTION('',(0.,0.,-1.));
#1651=DIRECTION('center_axis',(1.,0.,0.));
#1652=DIRECTION('ref_axis',(0.,1.,0.));
#1653=DIRECTION('',(0.,0.,1.));
#1654=DIRECTION('',(0.,-1.,0.));
#1655=DIRECTION('',(0.,0.,1.));
#1656=DIRECTION('center_axis',(1.,0.,0.));
#1657=DIRECTION('ref_axis',(0.,1.,0.));
#1658=DIRECTION('',(0.,0.,-1.));
#1659=DIRECTION('',(0.,0.707106781186554,0.707106781186541));
#1660=DIRECTION('',(0.,-1.,0.));
#1661=DIRECTION('',(0.,0.707106781186548,-0.707106781186548));
#1662=DIRECTION('',(0.,0.,1.));
#1663=DIRECTION('center_axis',(0.,0.,1.));
#1664=DIRECTION('ref_axis',(1.,0.,0.));
#1665=DIRECTION('',(0.,0.,-1.));
#1666=DIRECTION('center_axis',(1.,0.,0.));
#1667=DIRECTION('ref_axis',(0.,1.,0.));
#1668=DIRECTION('',(0.,0.,-1.));
#1669=DIRECTION('',(0.,-1.,0.));
#1670=DIRECTION('',(0.,0.,1.));
#1671=DIRECTION('center_axis',(0.,-0.707106781186541,0.707106781186554));
#1672=DIRECTION('ref_axis',(1.,0.,0.));
#1673=DIRECTION('',(5.56498535136485E-18,-0.707106781186554,-0.707106781186541));
#1674=DIRECTION('',(1.,0.,0.));
#1675=DIRECTION('',(-1.,0.,0.));
#1676=DIRECTION('center_axis',(0.,0.,-1.));
#1677=DIRECTION('ref_axis',(0.,1.,0.));
#1678=DIRECTION('',(-7.87007775830771E-18,1.,0.));
#1679=DIRECTION('',(-1.,0.,0.));
#1680=DIRECTION('center_axis',(0.,0.707106781186548,0.707106781186548));
#1681=DIRECTION('ref_axis',(1.,0.,0.));
#1682=DIRECTION('',(5.5649853513648E-18,-0.707106781186548,0.707106781186548));
#1683=DIRECTION('',(1.,0.,0.));
#1684=DIRECTION('center_axis',(0.,-1.,0.));
#1685=DIRECTION('ref_axis',(0.,0.,-1.));
#1686=DIRECTION('',(0.,0.,-1.));
#1687=DIRECTION('center_axis',(0.,-0.707106781186541,0.707106781186554));
#1688=DIRECTION('ref_axis',(1.,0.,0.));
#1689=DIRECTION('',(1.,0.,0.));
#1690=DIRECTION('center_axis',(0.,0.,-1.));
#1691=DIRECTION('ref_axis',(0.,1.,0.));
#1692=DIRECTION('',(-1.,0.,0.));
#1693=DIRECTION('center_axis',(0.,0.707106781186548,0.707106781186548));
#1694=DIRECTION('ref_axis',(1.,0.,0.));
#1695=DIRECTION('center_axis',(0.,1.,0.));
#1696=DIRECTION('ref_axis',(0.,0.,1.));
#1697=DIRECTION('',(0.,0.,1.));
#1698=DIRECTION('center_axis',(-0.707106781186566,0.707106781186529,0.));
#1699=DIRECTION('ref_axis',(0.,0.,1.));
#1700=DIRECTION('',(0.577350269189616,0.577350269189646,0.577350269189616));
#1701=DIRECTION('center_axis',(-0.707106781186548,0.,0.707106781186548));
#1702=DIRECTION('ref_axis',(0.707106781186548,0.,0.707106781186548));
#1703=DIRECTION('',(0.,-1.,0.));
#1704=DIRECTION('',(0.707106781186548,0.,0.707106781186548));
#1705=DIRECTION('center_axis',(-0.707106781186554,-0.707106781186541,0.));
#1706=DIRECTION('ref_axis',(0.,0.,1.));
#1707=DIRECTION('',(-0.577350269189622,0.577350269189633,-0.577350269189622));
#1708=DIRECTION('center_axis',(-0.707106781186548,0.,0.707106781186548));
#1709=DIRECTION('ref_axis',(0.707106781186548,0.,0.707106781186548));
#1710=DIRECTION('',(-0.707106781186548,0.,-0.707106781186548));
#1711=DIRECTION('',(0.,-1.,0.));
#1712=DIRECTION('center_axis',(0.,0.,1.));
#1713=DIRECTION('ref_axis',(-1.,0.,0.));
#1714=DIRECTION('',(-1.,0.,0.));
#1715=DIRECTION('',(0.,-1.,0.));
#1716=DIRECTION('center_axis',(0.,0.,-1.));
#1717=DIRECTION('ref_axis',(-1.,0.,0.));
#1718=DIRECTION('center_axis',(0.707106781186553,-0.707106781186542,0.));
#1719=DIRECTION('ref_axis',(0.,0.,-1.));
#1720=DIRECTION('',(0.,0.,1.));
#1721=DIRECTION('',(-0.577350269189624,-0.577350269189632,0.577350269189622));
#1722=DIRECTION('center_axis',(0.707106781186546,0.,0.707106781186549));
#1723=DIRECTION('ref_axis',(0.707106781186549,0.,-0.707106781186546));
#1724=DIRECTION('',(0.,1.,0.));
#1725=DIRECTION('',(-0.707106781186549,0.,0.707106781186546));
#1726=DIRECTION('center_axis',(0.707106781186565,0.70710678118653,0.));
#1727=DIRECTION('ref_axis',(0.,0.,-1.));
#1728=DIRECTION('',(0.577350269189617,-0.577350269189646,-0.577350269189615));
#1729=DIRECTION('center_axis',(0.707106781186546,0.,0.707106781186549));
#1730=DIRECTION('ref_axis',(0.707106781186549,0.,-0.707106781186546));
#1731=DIRECTION('',(0.707106781186549,0.,-0.707106781186546));
#1732=DIRECTION('',(0.,1.,0.));
#1733=DIRECTION('center_axis',(0.,0.,1.));
#1734=DIRECTION('ref_axis',(-1.,0.,0.));
#1735=DIRECTION('',(1.,0.,0.));
#1736=DIRECTION('',(0.,1.,0.));
#1737=DIRECTION('center_axis',(0.,0.,-1.));
#1738=DIRECTION('ref_axis',(-1.,0.,0.));
#1739=DIRECTION('center_axis',(0.,0.,1.));
#1740=DIRECTION('ref_axis',(-1.,0.,0.));
#1741=DIRECTION('',(0.,0.,-1.));
#1742=DIRECTION('center_axis',(1.,0.,0.));
#1743=DIRECTION('ref_axis',(0.,1.,0.));
#1744=DIRECTION('',(0.,0.,1.));
#1745=DIRECTION('center_axis',(0.,0.,1.));
#1746=DIRECTION('ref_axis',(-1.,0.,0.));
#1747=DIRECTION('center_axis',(0.,0.,-1.));
#1748=DIRECTION('ref_axis',(-1.,0.,0.));
#1749=DIRECTION('',(0.,0.,-1.));
#1750=DIRECTION('center_axis',(-1.,0.,0.));
#1751=DIRECTION('ref_axis',(0.,-1.,0.));
#1752=DIRECTION('',(0.,0.,1.));
#1753=DIRECTION('',(0.,-1.,0.));
#1754=DIRECTION('center_axis',(0.,0.,1.));
#1755=DIRECTION('ref_axis',(-1.,0.,0.));
#1756=DIRECTION('',(1.,0.,0.));
#1757=DIRECTION('center_axis',(0.,0.,1.));
#1758=DIRECTION('ref_axis',(-1.,0.,0.));
#1759=DIRECTION('',(0.,0.,-1.));
#1760=DIRECTION('center_axis',(-1.,0.,0.));
#1761=DIRECTION('ref_axis',(0.,-1.,0.));
#1762=DIRECTION('',(0.,0.,1.));
#1763=DIRECTION('center_axis',(0.,0.,1.));
#1764=DIRECTION('ref_axis',(-1.,0.,0.));
#1765=DIRECTION('center_axis',(0.,0.,-1.));
#1766=DIRECTION('ref_axis',(-1.,0.,0.));
#1767=DIRECTION('',(0.,0.,-1.));
#1768=DIRECTION('center_axis',(0.,-1.,0.));
#1769=DIRECTION('ref_axis',(1.,0.,0.));
#1770=DIRECTION('',(1.,0.,0.));
#1771=DIRECTION('center_axis',(0.,0.,1.));
#1772=DIRECTION('ref_axis',(-1.,0.,0.));
#1773=DIRECTION('',(-1.,0.,0.));
#1774=DIRECTION('center_axis',(0.,-1.,0.));
#1775=DIRECTION('ref_axis',(1.,0.,0.));
#1776=DIRECTION('',(0.,0.,1.));
#1777=DIRECTION('center_axis',(-1.,-7.87007775830771E-18,0.));
#1778=DIRECTION('ref_axis',(7.87007775830771E-18,-1.,0.));
#1779=DIRECTION('',(0.,0.,1.));
#1780=DIRECTION('center_axis',(0.,1.,0.));
#1781=DIRECTION('ref_axis',(-1.,0.,0.));
#1782=DIRECTION('center_axis',(0.,1.,0.));
#1783=DIRECTION('ref_axis',(-1.,0.,0.));
#1784=DIRECTION('center_axis',(0.,-1.,0.));
#1785=DIRECTION('ref_axis',(1.,0.,0.));
#1786=CARTESIAN_POINT('',(0.,0.,0.));
#1787=CARTESIAN_POINT('Origin',(-1.00000038785593,343.068879210783,142.931729987896));
#1788=CARTESIAN_POINT('',(-2.50000038785593,344.568879210783,146.931729987896));
#1789=CARTESIAN_POINT('',(0.499999612143995,341.568879210783,146.931729987896));
#1790=CARTESIAN_POINT('',(-3.3663908683504,345.435269691278,146.931729987896));
#1791=CARTESIAN_POINT('',(-2.50000038785593,344.568879210783,172.931729987896));
#1792=CARTESIAN_POINT('',(-2.50000038785593,344.568879210783,142.931729987896));
#1793=CARTESIAN_POINT('',(0.499999612144066,341.568879210783,172.931729987896));
#1794=CARTESIAN_POINT('',(-3.36639086835041,345.435269691278,172.931729987896));
#1795=CARTESIAN_POINT('',(0.499999612144066,341.568879210783,142.931729987896));
#1796=CARTESIAN_POINT('Origin',(-30.0000003878561,323.534441132761,146.931729987896));
#1797=CARTESIAN_POINT('',(-2.50000038785593,333.568879210783,146.931729987896));
#1798=CARTESIAN_POINT('',(0.499999612144138,336.568879210783,146.931729987896));
#1799=CARTESIAN_POINT('',(-11.1336099073617,324.935269691278,146.931729987896));
#1800=CARTESIAN_POINT('',(-2.50000038785593,313.500003054738,146.931729987896));
#1801=CARTESIAN_POINT('',(-2.50000038785593,286.767222093749,146.931729987896));
#1802=CARTESIAN_POINT('',(0.499999612144049,310.500003054738,146.931729987896));
#1803=CARTESIAN_POINT('',(-11.1336099073616,322.133612574244,146.931729987896));
#1804=CARTESIAN_POINT('',(4.49999961214407,310.500003054738,146.931729987896));
#1805=CARTESIAN_POINT('',(-12.750000387856,310.500003054738,146.931729987896));
#1806=CARTESIAN_POINT('',(4.49999961214407,305.500003054738,146.931729987896));
#1807=CARTESIAN_POINT('',(4.49999961214407,314.517222093749,146.931729987896));
#1808=CARTESIAN_POINT('',(0.499999612144049,305.500003054738,146.931729987896));
#1809=CARTESIAN_POINT('',(-16.250000387856,305.500003054738,146.931729987896));
#1810=CARTESIAN_POINT('',(-2.50000038785593,302.500003054738,146.931729987896));
#1811=CARTESIAN_POINT('',(-3.36639086835032,301.633612574244,146.931729987896));
#1812=CARTESIAN_POINT('',(-2.50000038785593,258.000003054738,146.931729987896));
#1813=CARTESIAN_POINT('',(-2.50000038785593,286.767222093749,146.931729987896));
#1814=CARTESIAN_POINT('',(-1.50000038785593,257.000003054738,146.931729987896));
#1815=CARTESIAN_POINT('',(-25.5086099073613,281.008612574245,146.931729987896));
#1816=CARTESIAN_POINT('',(2.49999961214407,257.000003054738,146.931729987896));
#1817=CARTESIAN_POINT('',(-2.50000038785593,257.000003054738,146.931729987896));
#1818=CARTESIAN_POINT('',(4.49999961214407,255.000003054738,146.931729987896));
#1819=CARTESIAN_POINT('',(-21.7586099073617,281.258612574244,146.931729987896));
#1820=CARTESIAN_POINT('',(4.49999961214407,250.000003054738,146.931729987896));
#1821=CARTESIAN_POINT('',(4.49999961214407,257.000003054738,146.931729987896));
#1822=CARTESIAN_POINT('',(-64.5000003878563,250.000003054738,146.931729987896));
#1823=CARTESIAN_POINT('',(4.49999961214407,250.000003054738,146.931729987896));
#1824=CARTESIAN_POINT('',(-64.5000003878563,255.000003054738,146.931729987896));
#1825=CARTESIAN_POINT('',(-64.5000003878563,250.000003054738,146.931729987896));
#1826=CARTESIAN_POINT('',(-62.5000003878563,257.000003054738,146.931729987896));
#1827=CARTESIAN_POINT('',(-38.2413908683506,281.258612574244,146.931729987896));
#1828=CARTESIAN_POINT('',(-58.5000003878563,257.000003054738,146.931729987896));
#1829=CARTESIAN_POINT('',(-64.5000003878563,257.000003054738,146.931729987896));
#1830=CARTESIAN_POINT('',(-57.5000003878563,258.000003054738,146.931729987896));
#1831=CARTESIAN_POINT('',(-34.491390868351,281.008612574245,146.931729987896));
#1832=CARTESIAN_POINT('',(-57.5000003878563,389.068879210783,146.931729987896));
#1833=CARTESIAN_POINT('',(-57.5000003878563,360.301660171772,146.931729987896));
#1834=CARTESIAN_POINT('',(-58.5000003878563,390.068879210783,146.931729987896));
#1835=CARTESIAN_POINT('',(-34.4913908683507,366.060269691277,146.931729987896));
#1836=CARTESIAN_POINT('',(-62.5000003878563,390.068879210783,146.931729987896));
#1837=CARTESIAN_POINT('',(-57.5000003878563,390.068879210783,146.931729987896));
#1838=CARTESIAN_POINT('',(-64.5000003878563,392.068879210783,146.931729987896));
#1839=CARTESIAN_POINT('',(-38.2413908683507,365.810269691277,146.931729987896));
#1840=CARTESIAN_POINT('',(-64.5000003878563,397.068879210783,146.931729987896));
#1841=CARTESIAN_POINT('',(-64.5000003878563,390.068879210783,146.931729987896));
#1842=CARTESIAN_POINT('',(4.49999961214407,397.068879210783,146.931729987896));
#1843=CARTESIAN_POINT('',(-64.5000003878563,397.068879210783,146.931729987896));
#1844=CARTESIAN_POINT('',(4.49999961214407,392.068879210783,146.931729987896));
#1845=CARTESIAN_POINT('',(4.49999961214407,390.068879210783,146.931729987896));
#1846=CARTESIAN_POINT('',(2.49999961214407,390.068879210783,146.931729987896));
#1847=CARTESIAN_POINT('',(-21.7586099073615,365.810269691277,146.931729987896));
#1848=CARTESIAN_POINT('',(-1.50000038785593,390.068879210783,146.931729987896));
#1849=CARTESIAN_POINT('',(-2.50000038785593,390.068879210783,146.931729987896));
#1850=CARTESIAN_POINT('',(-2.50000038785593,389.068879210783,146.931729987896));
#1851=CARTESIAN_POINT('',(-25.5086099073615,366.060269691277,146.931729987896));
#1852=CARTESIAN_POINT('',(-2.50000038785593,286.767222093749,146.931729987896));
#1853=CARTESIAN_POINT('',(4.49999961214407,341.568879210783,146.931729987896));
#1854=CARTESIAN_POINT('',(-12.750000387856,341.568879210783,146.931729987896));
#1855=CARTESIAN_POINT('',(4.49999961214407,336.568879210783,146.931729987896));
#1856=CARTESIAN_POINT('',(4.49999961214407,330.051660171772,146.931729987896));
#1857=CARTESIAN_POINT('',(-16.250000387856,336.568879210783,146.931729987896));
#1858=CARTESIAN_POINT('',(-5.50000038785593,394.068879210783,146.931729987896));
#1859=CARTESIAN_POINT('',(-5.50000038785593,253.000003054738,146.931729987896));
#1860=CARTESIAN_POINT('',(-5.50000038785593,358.801660171772,146.931729987896));
#1861=CARTESIAN_POINT('',(-54.5000003878563,394.068879210783,146.931729987896));
#1862=CARTESIAN_POINT('',(-42.2500003878562,394.068879210783,146.931729987896));
#1863=CARTESIAN_POINT('',(-54.5000003878563,253.000003054738,146.931729987896));
#1864=CARTESIAN_POINT('',(-54.5000003878563,288.267222093749,146.931729987896));
#1865=CARTESIAN_POINT('',(-17.750000387856,253.000003054738,146.931729987896));
#1866=CARTESIAN_POINT('',(2.59999961214406,253.500003054738,146.931729987896));
#1867=CARTESIAN_POINT('Origin',(0.999999612144066,253.500003054738,146.931729987896));
#1868=CARTESIAN_POINT('',(-59.4000003878565,253.500003054739,146.931729987896));
#1869=CARTESIAN_POINT('Origin',(-61.0000003878565,253.500003054739,146.931729987896));
#1870=CARTESIAN_POINT('',(-59.4000003878563,393.568879210783,146.931729987896));
#1871=CARTESIAN_POINT('Origin',(-61.0000003878563,393.568879210783,146.931729987896));
#1872=CARTESIAN_POINT('',(2.59999961214405,393.568879210783,146.931729987896));
#1873=CARTESIAN_POINT('Origin',(0.999999612144066,393.568879210783,146.931729987896));
#1874=CARTESIAN_POINT('Origin',(-1.00000038785593,335.068879210783,142.931729987896));
#1875=CARTESIAN_POINT('',(0.499999612144065,336.568879210783,172.931729987896));
#1876=CARTESIAN_POINT('',(0.499999612144066,336.568879210783,142.931729987896));
#1877=CARTESIAN_POINT('',(-2.50000038785593,333.568879210783,172.931729987896));
#1878=CARTESIAN_POINT('',(-11.1336099073617,324.935269691278,172.931729987896));
#1879=CARTESIAN_POINT('',(-2.50000038785593,333.568879210783,142.931729987896));
#1880=CARTESIAN_POINT('Origin',(-2.50000038785593,336.568879210783,146.931729987896));
#1881=CARTESIAN_POINT('',(4.49999961214407,336.568879210783,172.931729987896));
#1882=CARTESIAN_POINT('',(4.49999961214407,336.568879210783,146.931729987896));
#1883=CARTESIAN_POINT('',(-9.50000038785593,336.568879210783,172.931729987896));
#1884=CARTESIAN_POINT('Origin',(4.49999961214407,336.568879210783,146.931729987896));
#1885=CARTESIAN_POINT('',(4.49999961214407,341.568879210783,172.931729987896));
#1886=CARTESIAN_POINT('',(4.49999961214407,341.568879210783,146.931729987896));
#1887=CARTESIAN_POINT('',(4.49999961214407,336.568879210783,172.931729987896));
#1888=CARTESIAN_POINT('Origin',(4.49999961214407,341.568879210783,146.931729987896));
#1889=CARTESIAN_POINT('',(4.49999961214407,341.568879210783,172.931729987896));
#1890=CARTESIAN_POINT('Origin',(-1.00000038785593,312.000003054738,142.931729987896));
#1891=CARTESIAN_POINT('',(-2.50000038785593,313.500003054738,172.931729987896));
#1892=CARTESIAN_POINT('',(-2.50000038785593,313.500003054738,142.931729987896));
#1893=CARTESIAN_POINT('',(0.499999612144066,310.500003054738,172.931729987896));
#1894=CARTESIAN_POINT('',(-11.1336099073616,322.133612574244,172.931729987896));
#1895=CARTESIAN_POINT('',(0.499999612144066,310.500003054738,142.931729987896));
#1896=CARTESIAN_POINT('Origin',(-1.00000038785593,304.000003054738,142.931729987896));
#1897=CARTESIAN_POINT('',(0.499999612144065,305.500003054738,172.931729987896));
#1898=CARTESIAN_POINT('',(0.499999612144066,305.500003054738,142.931729987896));
#1899=CARTESIAN_POINT('',(-2.50000038785593,302.500003054738,172.931729987896));
#1900=CARTESIAN_POINT('',(-3.36639086835032,301.633612574244,172.931729987896));
#1901=CARTESIAN_POINT('',(-2.50000038785593,302.500003054738,142.931729987896));
#1902=CARTESIAN_POINT('Origin',(-2.50000038785593,305.500003054738,146.931729987896));
#1903=CARTESIAN_POINT('',(4.49999961214407,305.500003054738,172.931729987896));
#1904=CARTESIAN_POINT('',(4.49999961214407,305.500003054738,146.931729987896));
#1905=CARTESIAN_POINT('',(-9.50000038785593,305.500003054738,172.931729987896));
#1906=CARTESIAN_POINT('Origin',(4.49999961214407,305.500003054738,146.931729987896));
#1907=CARTESIAN_POINT('',(4.49999961214407,310.500003054738,172.931729987896));
#1908=CARTESIAN_POINT('',(4.49999961214407,310.500003054738,146.931729987896));
#1909=CARTESIAN_POINT('',(4.49999961214407,305.500003054738,172.931729987896));
#1910=CARTESIAN_POINT('Origin',(4.49999961214407,310.500003054738,146.931729987896));
#1911=CARTESIAN_POINT('',(4.49999961214407,310.500003054738,172.931729987896));
#1912=CARTESIAN_POINT('Origin',(-63.5000003878563,391.068879210783,146.931729987896));
#1913=CARTESIAN_POINT('',(-62.5000003878563,390.068879210783,148.931729987896));
#1914=CARTESIAN_POINT('',(-64.5000003878563,392.068879210783,148.931729987896));
#1915=CARTESIAN_POINT('',(-63.5000003878563,391.068879210783,148.931729987896));
#1916=CARTESIAN_POINT('',(-64.5000003878563,392.068879210783,146.931729987896));
#1917=CARTESIAN_POINT('',(-62.5000003878563,390.068879210783,146.931729987896));
#1918=CARTESIAN_POINT('Origin',(-64.5000003878563,390.068879210783,146.931729987896));
#1919=CARTESIAN_POINT('',(-58.5000003878563,390.068879210783,148.931729987896));
#1920=CARTESIAN_POINT('',(-58.5000003878563,390.068879210783,142.931729987896));
#1921=CARTESIAN_POINT('',(-57.5000003878563,390.068879210783,148.931729987896));
#1922=CARTESIAN_POINT('Origin',(3.49999961214407,391.068879210783,146.931729987896));
#1923=CARTESIAN_POINT('',(4.49999961214407,392.068879210783,148.931729987896));
#1924=CARTESIAN_POINT('',(2.49999961214407,390.068879210783,148.931729987896));
#1925=CARTESIAN_POINT('',(3.49999961214407,391.068879210783,148.931729987896));
#1926=CARTESIAN_POINT('',(2.49999961214407,390.068879210783,146.931729987896));
#1927=CARTESIAN_POINT('',(4.49999961214407,392.068879210783,146.931729987896));
#1928=CARTESIAN_POINT('Origin',(4.49999961214407,390.068879210783,146.931729987896));
#1929=CARTESIAN_POINT('',(4.49999961214407,397.068879210783,148.931729987896));
#1930=CARTESIAN_POINT('',(4.49999961214407,397.068879210783,146.931729987896));
#1931=CARTESIAN_POINT('',(4.49999961214407,390.068879210783,148.931729987896));
#1932=CARTESIAN_POINT('Origin',(3.49999961214407,256.000003054738,146.931729987896));
#1933=CARTESIAN_POINT('',(2.49999961214407,257.000003054738,148.931729987896));
#1934=CARTESIAN_POINT('',(4.49999961214407,255.000003054738,148.931729987896));
#1935=CARTESIAN_POINT('',(3.49999961214407,256.000003054738,148.931729987896));
#1936=CARTESIAN_POINT('',(4.49999961214407,255.000003054738,146.931729987896));
#1937=CARTESIAN_POINT('',(2.49999961214407,257.000003054738,146.931729987896));
#1938=CARTESIAN_POINT('Origin',(4.49999961214407,257.000003054738,146.931729987896));
#1939=CARTESIAN_POINT('',(-1.50000038785593,257.000003054738,148.931729987896));
#1940=CARTESIAN_POINT('',(-1.50000038785593,257.000003054738,142.931729987896));
#1941=CARTESIAN_POINT('',(-2.50000038785593,257.000003054738,148.931729987896));
#1942=CARTESIAN_POINT('Origin',(-63.5000003878563,256.000003054738,146.931729987896));
#1943=CARTESIAN_POINT('',(-64.5000003878563,255.000003054738,148.931729987896));
#1944=CARTESIAN_POINT('',(-62.5000003878563,257.000003054738,148.931729987896));
#1945=CARTESIAN_POINT('',(-63.5000003878563,256.000003054738,148.931729987896));
#1946=CARTESIAN_POINT('',(-62.5000003878563,257.000003054738,146.931729987896));
#1947=CARTESIAN_POINT('',(-64.5000003878563,255.000003054738,146.931729987896));
#1948=CARTESIAN_POINT('Origin',(-57.5000003878563,257.000003054738,146.931729987896));
#1949=CARTESIAN_POINT('',(-58.5000003878563,257.000003054738,148.931729987896));
#1950=CARTESIAN_POINT('',(-64.5000003878563,257.000003054738,148.931729987896));
#1951=CARTESIAN_POINT('',(-58.5000003878563,257.000003054738,142.931729987896));
#1952=CARTESIAN_POINT('Origin',(1.99999961214407,339.068879210783,156.931729987896));
#1953=CARTESIAN_POINT('',(0.399999612144061,339.068879210783,156.931729987896));
#1954=CARTESIAN_POINT('Origin',(1.99999961214407,339.068879210783,156.931729987896));
#1955=CARTESIAN_POINT('Origin',(1.29999961214407,308.000003054738,156.931729987896));
#1956=CARTESIAN_POINT('',(-0.300000387855939,308.000003054738,156.931729987896));
#1957=CARTESIAN_POINT('Origin',(1.29999961214407,308.000003054738,156.931729987896));
#1958=CARTESIAN_POINT('Origin',(-30.0000003878561,323.534441132761,172.931729987896));
#1959=CARTESIAN_POINT('',(-57.5000003878563,397.068879210783,172.931729987896));
#1960=CARTESIAN_POINT('',(-57.5000003878563,333.568879210783,172.931729987896));
#1961=CARTESIAN_POINT('',(-57.5000003878563,334.051660171772,172.931729987896));
#1962=CARTESIAN_POINT('',(-54.5000003878563,333.568879210783,172.931729987896));
#1963=CARTESIAN_POINT('',(-43.7500003878562,333.568879210783,172.931729987896));
#1964=CARTESIAN_POINT('',(-54.5000003878563,394.068879210783,172.931729987896));
#1965=CARTESIAN_POINT('',(-54.5000003878563,253.000003054738,172.931729987896));
#1966=CARTESIAN_POINT('',(-5.50000038785593,394.068879210783,172.931729987896));
#1967=CARTESIAN_POINT('',(-54.5000003878563,394.068879210783,172.931729987896));
#1968=CARTESIAN_POINT('',(-5.50000038785593,333.534441132761,172.931729987896));
#1969=CARTESIAN_POINT('',(-5.50000038785593,394.068879210783,172.931729987896));
#1970=CARTESIAN_POINT('',(-2.50000038785593,333.534441132761,172.931729987896));
#1971=CARTESIAN_POINT('',(-43.7500003878562,333.534441132761,172.931729987896));
#1972=CARTESIAN_POINT('',(-2.50000038785593,397.068879210783,172.931729987896));
#1973=CARTESIAN_POINT('',(-2.50000038785593,397.068879210783,172.931729987896));
#1974=CARTESIAN_POINT('',(-2.50000038785593,397.068879210783,172.931729987896));
#1975=CARTESIAN_POINT('',(-57.5000003878563,397.068879210783,172.931729987896));
#1976=CARTESIAN_POINT('',(0.399999612144061,339.068879210783,172.931729987896));
#1977=CARTESIAN_POINT('Origin',(1.99999961214407,339.068879210783,172.931729987896));
#1978=CARTESIAN_POINT('Origin',(-56.0000003878563,323.534441132761,166.931729987896));
#1979=CARTESIAN_POINT('',(-54.5000003878563,333.534441132761,166.931729987896));
#1980=CARTESIAN_POINT('',(-57.5000003878563,333.534441132761,166.931729987896));
#1981=CARTESIAN_POINT('',(-57.5000003878563,333.534441132761,166.931729987896));
#1982=CARTESIAN_POINT('',(-54.5000003878563,333.568879210783,166.931729987896));
#1983=CARTESIAN_POINT('',(-54.5000003878563,288.267222093749,166.931729987896));
#1984=CARTESIAN_POINT('',(-57.5000003878563,333.568879210783,166.931729987896));
#1985=CARTESIAN_POINT('',(-54.5000003878563,333.568879210783,166.931729987896));
#1986=CARTESIAN_POINT('',(-57.5000003878563,360.301660171772,166.931729987896));
#1987=CARTESIAN_POINT('Origin',(-54.5000003878563,313.500003054738,172.931729987896));
#1988=CARTESIAN_POINT('',(-54.5000003878563,313.500003054738,172.931729987896));
#1989=CARTESIAN_POINT('',(-57.5000003878563,313.500003054738,172.931729987896));
#1990=CARTESIAN_POINT('',(-42.2500003878562,313.500003054738,172.931729987896));
#1991=CARTESIAN_POINT('',(-54.5000003878563,313.500003054738,166.931729987896));
#1992=CARTESIAN_POINT('',(-54.5000003878563,313.500003054738,155.931729987896));
#1993=CARTESIAN_POINT('',(-57.5000003878563,313.500003054738,166.931729987896));
#1994=CARTESIAN_POINT('',(-57.5000003878563,313.500003054738,166.931729987896));
#1995=CARTESIAN_POINT('',(-57.5000003878563,313.500003054738,142.931729987896));
#1996=CARTESIAN_POINT('Origin',(-57.5000003878563,333.568879210783,172.931729987896));
#1997=CARTESIAN_POINT('',(-57.5000003878563,333.568879210783,142.931729987896));
#1998=CARTESIAN_POINT('',(-54.5000003878563,333.568879210783,155.931729987896));
#1999=CARTESIAN_POINT('Origin',(-56.0000003878563,323.534441132761,166.931729987896));
#2000=CARTESIAN_POINT('',(-57.5000003878563,313.534441132761,166.931729987896));
#2001=CARTESIAN_POINT('',(-54.5000003878563,313.534441132761,166.931729987896));
#2002=CARTESIAN_POINT('',(-57.5000003878563,313.534441132761,166.931729987896));
#2003=CARTESIAN_POINT('',(-57.5000003878563,360.301660171772,166.931729987896));
#2004=CARTESIAN_POINT('',(-54.5000003878563,288.267222093749,166.931729987896));
#2005=CARTESIAN_POINT('Origin',(-54.5000003878563,253.000003054738,138.931729987896));
#2006=CARTESIAN_POINT('',(-54.5000003878563,329.534441132761,162.931729987896));
#2007=CARTESIAN_POINT('',(-54.5000003878563,305.400831613255,138.798120468391));
#2008=CARTESIAN_POINT('',(-54.5000003878563,317.534441132761,162.931729987896));
#2009=CARTESIAN_POINT('',(-54.5000003878563,283.267222093749,162.931729987896));
#2010=CARTESIAN_POINT('',(-54.5000003878563,306.400831613255,174.065339507402));
#2011=CARTESIAN_POINT('',(-54.5000003878563,253.000003054738,172.931729987896));
#2012=CARTESIAN_POINT('',(-54.5000003878563,253.000003054738,172.931729987896));
#2013=CARTESIAN_POINT('',(-54.5000003878563,253.000003054738,138.931729987896));
#2014=CARTESIAN_POINT('',(-54.5000003878563,394.068879210783,138.931729987896));
#2015=CARTESIAN_POINT('Origin',(-30.0000003878561,323.534441132761,172.931729987896));
#2016=CARTESIAN_POINT('',(-57.5000003878563,250.000003054738,172.931729987896));
#2017=CARTESIAN_POINT('',(-57.5000003878563,250.000003054738,172.931729987896));
#2018=CARTESIAN_POINT('',(-2.50000038785593,250.000003054738,172.931729987896));
#2019=CARTESIAN_POINT('',(-2.50000038785593,250.000003054738,172.931729987896));
#2020=CARTESIAN_POINT('',(-2.50000038785593,397.068879210783,172.931729987896));
#2021=CARTESIAN_POINT('',(-2.50000038785593,313.534441132761,172.931729987896));
#2022=CARTESIAN_POINT('',(-2.50000038785593,397.068879210783,172.931729987896));
#2023=CARTESIAN_POINT('',(-5.50000038785593,313.534441132761,172.931729987896));
#2024=CARTESIAN_POINT('',(-43.7500003878562,313.534441132761,172.931729987896));
#2025=CARTESIAN_POINT('',(-5.50000038785593,253.000003054738,172.931729987896));
#2026=CARTESIAN_POINT('',(-5.50000038785593,394.068879210783,172.931729987896));
#2027=CARTESIAN_POINT('',(-5.50000038785593,253.000003054738,172.931729987896));
#2028=CARTESIAN_POINT('',(-0.300000387855939,308.000003054738,172.931729987896));
#2029=CARTESIAN_POINT('Origin',(1.29999961214407,308.000003054738,172.931729987896));
#2030=CARTESIAN_POINT('Origin',(-57.5000003878563,397.068879210783,138.931729987896));
#2031=CARTESIAN_POINT('',(-57.5000003878563,397.068879210783,149.931729987896));
#2032=CARTESIAN_POINT('',(-57.5000003878563,397.068879210783,138.931729987896));
#2033=CARTESIAN_POINT('',(-57.5000003878563,389.068879210783,149.931729987896));
#2034=CARTESIAN_POINT('',(-57.5000003878563,395.318879210783,149.931729987896));
#2035=CARTESIAN_POINT('',(-57.5000003878563,389.068879210783,142.931729987896));
#2036=CARTESIAN_POINT('',(-57.5000003878563,258.000003054738,149.931729987896));
#2037=CARTESIAN_POINT('',(-57.5000003878563,258.000003054738,142.931729987896));
#2038=CARTESIAN_POINT('',(-57.5000003878563,250.000003054738,149.931729987896));
#2039=CARTESIAN_POINT('',(-57.5000003878563,325.284441132761,149.931729987896));
#2040=CARTESIAN_POINT('',(-57.5000003878563,250.000003054738,138.931729987896));
#2041=CARTESIAN_POINT('',(-57.5000003878563,317.534441132761,162.931729987896));
#2042=CARTESIAN_POINT('',(-57.5000003878563,342.418050652266,138.048120468391));
#2043=CARTESIAN_POINT('',(-57.5000003878563,329.534441132761,162.931729987896));
#2044=CARTESIAN_POINT('',(-57.5000003878563,355.301660171772,162.931729987896));
#2045=CARTESIAN_POINT('',(-57.5000003878563,341.418050652267,174.815339507402));
#2046=CARTESIAN_POINT('Origin',(1.29999961214407,308.000003054738,146.931729987896));
#2047=CARTESIAN_POINT('',(-0.300000387855939,308.000003054738,146.931729987896));
#2048=CARTESIAN_POINT('Origin',(-2.50000038785593,250.000003054738,138.931729987896));
#2049=CARTESIAN_POINT('',(-2.50000038785593,250.000003054738,149.931729987896));
#2050=CARTESIAN_POINT('',(-2.50000038785593,250.000003054738,138.931729987896));
#2051=CARTESIAN_POINT('',(-2.50000038785593,258.000003054738,149.931729987896));
#2052=CARTESIAN_POINT('',(-2.50000038785593,251.750003054738,149.931729987896));
#2053=CARTESIAN_POINT('',(-2.50000038785593,258.000003054738,142.931729987896));
#2054=CARTESIAN_POINT('Origin',(-2.50000038785593,250.000003054738,138.931729987896));
#2055=CARTESIAN_POINT('',(-2.50000038785593,333.534441132761,166.931729987896));
#2056=CARTESIAN_POINT('',(-2.50000038785593,333.534441132761,150.931729987896));
#2057=CARTESIAN_POINT('',(-2.50000038785593,329.534441132761,162.931729987896));
#2058=CARTESIAN_POINT('',(-2.50000038785593,304.650831613255,138.048120468391));
#2059=CARTESIAN_POINT('',(-2.50000038785593,317.534441132761,162.931729987896));
#2060=CARTESIAN_POINT('',(-2.50000038785593,281.767222093749,162.931729987896));
#2061=CARTESIAN_POINT('',(-2.50000038785593,313.534441132761,166.931729987896));
#2062=CARTESIAN_POINT('',(-2.50000038785593,305.650831613255,174.815339507402));
#2063=CARTESIAN_POINT('',(-2.50000038785593,313.534441132761,155.931729987896));
#2064=CARTESIAN_POINT('Origin',(1.99999961214407,339.068879210783,146.931729987896));
#2065=CARTESIAN_POINT('',(0.399999612144061,339.068879210783,146.931729987896));
#2066=CARTESIAN_POINT('Origin',(-2.50000038785593,250.000003054738,138.931729987896));
#2067=CARTESIAN_POINT('',(-2.50000038785593,389.068879210783,149.931729987896));
#2068=CARTESIAN_POINT('',(-2.50000038785593,389.068879210783,142.931729987896));
#2069=CARTESIAN_POINT('',(-2.50000038785593,397.068879210783,149.931729987896));
#2070=CARTESIAN_POINT('',(-2.50000038785593,321.784441132761,149.931729987896));
#2071=CARTESIAN_POINT('',(-2.50000038785593,397.068879210783,138.931729987896));
#2072=CARTESIAN_POINT('Origin',(-57.5000003878563,331.534441132761,164.931729987896));
#2073=CARTESIAN_POINT('',(-5.50000038785594,333.534441132761,166.931729987896));
#2074=CARTESIAN_POINT('',(-5.50000038785594,329.534441132761,162.931729987896));
#2075=CARTESIAN_POINT('',(-5.50000038785594,340.668050652267,174.065339507402));
#2076=CARTESIAN_POINT('',(-57.5000003878563,329.534441132761,162.931729987896));
#2077=CARTESIAN_POINT('',(-57.5000003878563,333.534441132761,166.931729987896));
#2078=CARTESIAN_POINT('Origin',(-57.5000003878563,313.534441132761,162.931729987896));
#2079=CARTESIAN_POINT('',(-5.50000038785594,317.534441132761,162.931729987896));
#2080=CARTESIAN_POINT('',(-5.50000038785594,353.801660171772,162.931729987896));
#2081=CARTESIAN_POINT('',(-57.5000003878563,317.534441132761,162.931729987896));
#2082=CARTESIAN_POINT('Origin',(-57.5000003878563,315.534441132761,164.931729987896));
#2083=CARTESIAN_POINT('',(-5.50000038785594,313.534441132761,166.931729987896));
#2084=CARTESIAN_POINT('',(-5.50000038785594,341.668050652266,138.798120468391));
#2085=CARTESIAN_POINT('',(-57.5000003878563,313.534441132761,166.931729987896));
#2086=CARTESIAN_POINT('Origin',(-57.5000003878563,313.534441132761,172.931729987896));
#2087=CARTESIAN_POINT('',(-5.50000038785594,313.534441132761,155.931729987896));
#2088=CARTESIAN_POINT('Origin',(-57.5000003878563,331.534441132761,164.931729987896));
#2089=CARTESIAN_POINT('',(-57.5000003878563,329.534441132761,162.931729987896));
#2090=CARTESIAN_POINT('Origin',(-57.5000003878563,313.534441132761,162.931729987896));
#2091=CARTESIAN_POINT('',(-57.5000003878563,317.534441132761,162.931729987896));
#2092=CARTESIAN_POINT('Origin',(-57.5000003878563,315.534441132761,164.931729987896));
#2093=CARTESIAN_POINT('Origin',(-57.5000003878563,333.534441132761,162.931729987896));
#2094=CARTESIAN_POINT('',(-5.50000038785594,333.534441132761,150.931729987896));
#2095=CARTESIAN_POINT('Origin',(-58.0000003878563,257.500003054738,142.931729987896));
#2096=CARTESIAN_POINT('',(-58.5000003878563,257.000003054738,148.931729987896));
#2097=CARTESIAN_POINT('Origin',(-58.0000003878563,325.284441132761,149.431729987896));
#2098=CARTESIAN_POINT('',(-58.5000003878563,250.000003054738,148.931729987896));
#2099=CARTESIAN_POINT('',(-58.5000003878563,325.284441132761,148.931729987896));
#2100=CARTESIAN_POINT('',(-60.5000003878563,250.000003054738,146.931729987896));
#2101=CARTESIAN_POINT('Origin',(-58.0000003878563,389.568879210783,142.931729987896));
#2102=CARTESIAN_POINT('',(-57.5000003878563,389.068879210783,149.931729987896));
#2103=CARTESIAN_POINT('Origin',(-58.0000003878563,395.318879210783,149.431729987896));
#2104=CARTESIAN_POINT('',(-58.5000003878563,397.068879210783,148.931729987896));
#2105=CARTESIAN_POINT('',(-46.7500003878562,397.068879210783,160.681729987896));
#2106=CARTESIAN_POINT('',(-58.5000003878563,395.318879210783,148.931729987896));
#2107=CARTESIAN_POINT('Origin',(-61.0000003878563,393.568879210783,148.931729987896));
#2108=CARTESIAN_POINT('',(-64.5000003878563,397.068879210783,148.931729987896));
#2109=CARTESIAN_POINT('',(-64.5000003878563,397.068879210783,148.931729987896));
#2110=CARTESIAN_POINT('',(-64.5000003878563,390.068879210783,148.931729987896));
#2111=CARTESIAN_POINT('',(-59.4000003878563,393.568879210783,148.931729987896));
#2112=CARTESIAN_POINT('Origin',(-61.0000003878563,393.568879210783,148.931729987896));
#2113=CARTESIAN_POINT('Origin',(-2.00000038785593,389.568879210783,142.931729987896));
#2114=CARTESIAN_POINT('',(-1.50000038785593,390.068879210783,148.931729987896));
#2115=CARTESIAN_POINT('',(-1.50000038785593,390.068879210783,142.931729987896));
#2116=CARTESIAN_POINT('',(-1.50000038785593,390.068879210783,148.931729987896));
#2117=CARTESIAN_POINT('Origin',(-2.00000038785593,321.784441132761,149.431729987896));
#2118=CARTESIAN_POINT('',(-1.50000038785593,397.068879210783,148.931729987896));
#2119=CARTESIAN_POINT('',(-1.50000038785593,321.784441132761,148.931729987896));
#2120=CARTESIAN_POINT('',(0.499999612144063,397.068879210783,146.931729987896));
#2121=CARTESIAN_POINT('Origin',(-2.00000038785593,257.500003054738,142.931729987896));
#2122=CARTESIAN_POINT('',(-2.50000038785593,258.000003054738,149.931729987896));
#2123=CARTESIAN_POINT('Origin',(-2.00000038785593,251.750003054738,149.431729987896));
#2124=CARTESIAN_POINT('',(-1.50000038785593,250.000003054738,148.931729987896));
#2125=CARTESIAN_POINT('',(-13.2500003878561,250.000003054738,160.681729987896));
#2126=CARTESIAN_POINT('',(-1.50000038785593,251.750003054738,148.931729987896));
#2127=CARTESIAN_POINT('Origin',(0.999999612144067,253.500003054738,148.931729987896));
#2128=CARTESIAN_POINT('',(4.49999961214407,250.000003054738,148.931729987896));
#2129=CARTESIAN_POINT('',(4.49999961214407,250.000003054738,148.931729987896));
#2130=CARTESIAN_POINT('',(4.49999961214407,257.000003054738,148.931729987896));
#2131=CARTESIAN_POINT('',(2.59999961214406,253.500003054738,148.931729987896));
#2132=CARTESIAN_POINT('Origin',(0.999999612144066,253.500003054738,148.931729987896));
#2133=CARTESIAN_POINT('Origin',(0.999999612144066,253.500003054738,146.931729987896));
#2134=CARTESIAN_POINT('',(2.59999961214406,253.500003054738,146.931729987896));
#2135=CARTESIAN_POINT('Origin',(4.49999961214407,250.000003054738,146.931729987896));
#2136=CARTESIAN_POINT('',(4.49999961214407,250.000003054738,146.931729987896));
#2137=CARTESIAN_POINT('Origin',(-61.0000003878565,253.500003054739,146.931729987896));
#2138=CARTESIAN_POINT('',(-59.4000003878565,253.500003054739,148.931729987896));
#2139=CARTESIAN_POINT('Origin',(-61.0000003878565,253.500003054739,148.931729987896));
#2140=CARTESIAN_POINT('',(-59.4000003878565,253.500003054739,146.931729987896));
#2141=CARTESIAN_POINT('Origin',(-64.5000003878563,257.000003054738,146.931729987896));
#2142=CARTESIAN_POINT('',(-64.5000003878563,250.000003054738,148.931729987896));
#2143=CARTESIAN_POINT('',(-64.5000003878563,250.000003054738,146.931729987896));
#2144=CARTESIAN_POINT('',(-64.5000003878563,250.000003054738,148.931729987896));
#2145=CARTESIAN_POINT('Origin',(-61.0000003878563,253.500003054738,148.931729987896));
#2146=CARTESIAN_POINT('',(-57.5000003878563,250.000003054738,148.931729987896));
#2147=CARTESIAN_POINT('Origin',(-61.0000003878563,393.568879210783,146.931729987896));
#2148=CARTESIAN_POINT('',(-59.4000003878563,393.568879210783,146.931729987896));
#2149=CARTESIAN_POINT('Origin',(-64.5000003878563,397.068879210783,146.931729987896));
#2150=CARTESIAN_POINT('',(-64.5000003878563,397.068879210783,146.931729987896));
#2151=CARTESIAN_POINT('Origin',(0.999999612144066,393.568879210783,146.931729987896));
#2152=CARTESIAN_POINT('',(2.59999961214405,393.568879210783,148.931729987896));
#2153=CARTESIAN_POINT('Origin',(0.999999612144066,393.568879210783,148.931729987896));
#2154=CARTESIAN_POINT('',(2.59999961214405,393.568879210783,146.931729987896));
#2155=CARTESIAN_POINT('Origin',(-2.50000038785593,390.068879210783,146.931729987896));
#2156=CARTESIAN_POINT('',(-2.50000038785593,390.068879210783,148.931729987896));
#2157=CARTESIAN_POINT('Origin',(0.999999612144066,393.568879210783,148.931729987896));
#2158=CARTESIAN_POINT('',(4.49999961214407,397.068879210783,148.931729987896));
#2159=CARTESIAN_POINT('Origin',(-54.5000003878563,394.068879210783,138.931729987896));
#2160=CARTESIAN_POINT('',(-5.50000038785593,394.068879210783,138.931729987896));
#2161=CARTESIAN_POINT('Origin',(-5.50000038785593,394.068879210783,138.931729987896));
#2162=CARTESIAN_POINT('',(-5.50000038785593,253.000003054738,138.931729987896));
#2163=CARTESIAN_POINT('Origin',(-2.50000038785593,397.068879210783,138.931729987896));
#2164=CARTESIAN_POINT('Origin',(-5.50000038785593,253.000003054738,138.931729987896));
#2165=CARTESIAN_POINT('Origin',(-57.5000003878563,250.000003054738,138.931729987896));
#2166=UNCERTAINTY_MEASURE_WITH_UNIT(LENGTH_MEASURE(0.01),#2170,
'DISTANCE_ACCURACY_VALUE',
'Maximum model space distance between geometric entities at asserted c
onnectivities');
#2167=UNCERTAINTY_MEASURE_WITH_UNIT(LENGTH_MEASURE(0.01),#2170,
'DISTANCE_ACCURACY_VALUE',
'Maximum model space distance between geometric entities at asserted c
onnectivities');
#2168=(
GEOMETRIC_REPRESENTATION_CONTEXT(3)
GLOBAL_UNCERTAINTY_ASSIGNED_CONTEXT((#2166))
GLOBAL_UNIT_ASSIGNED_CONTEXT((#2170,#2172,#2173))
REPRESENTATION_CONTEXT('','3D')
);
#2169=(
GEOMETRIC_REPRESENTATION_CONTEXT(3)
GLOBAL_UNCERTAINTY_ASSIGNED_CONTEXT((#2167))
GLOBAL_UNIT_ASSIGNED_CONTEXT((#2170,#2172,#2173))
REPRESENTATION_CONTEXT('','3D')
);
#2170=(
LENGTH_UNIT()
NAMED_UNIT(*)
SI_UNIT(.MILLI.,.METRE.)
);
#2171=(
LENGTH_UNIT()
NAMED_UNIT(*)
SI_UNIT($,.METRE.)
);
#2172=(
NAMED_UNIT(*)
PLANE_ANGLE_UNIT()
SI_UNIT($,.RADIAN.)
);
#2173=(
NAMED_UNIT(*)
SI_UNIT($,.STERADIAN.)
SOLID_ANGLE_UNIT()
);
#2174=SHAPE_DEFINITION_REPRESENTATION(#2175,#2176);
#2175=PRODUCT_DEFINITION_SHAPE('',$,#2178);
#2176=SHAPE_REPRESENTATION('',(#1370),#2168);
#2177=PRODUCT_DEFINITION_CONTEXT('part definition',#2182,'design');
#2178=PRODUCT_DEFINITION('battery holder','battery holder',#2179,#2177);
#2179=PRODUCT_DEFINITION_FORMATION('',$,#2184);
#2180=PRODUCT_RELATED_PRODUCT_CATEGORY('battery holder',
'battery holder',(#2184));
#2181=APPLICATION_PROTOCOL_DEFINITION('international standard',
'automotive_design',2009,#2182);
#2182=APPLICATION_CONTEXT(
'Core Data for Automotive Mechanical Design Process');
#2183=PRODUCT_CONTEXT('part definition',#2182,'mechanical');
#2184=PRODUCT('battery holder','battery holder',$,(#2183));
#2185=PRESENTATION_STYLE_ASSIGNMENT((#2187));
#2186=PRESENTATION_STYLE_ASSIGNMENT((#2188));
#2187=SURFACE_STYLE_USAGE(.BOTH.,#2189);
#2188=SURFACE_STYLE_USAGE(.BOTH.,#2190);
#2189=SURFACE_SIDE_STYLE('',(#2191));
#2190=SURFACE_SIDE_STYLE('',(#2192));
#2191=SURFACE_STYLE_FILL_AREA(#2193);
#2192=SURFACE_STYLE_FILL_AREA(#2194);
#2193=FILL_AREA_STYLE('Steel - Satin',(#2195));
#2194=FILL_AREA_STYLE('ABS (White)',(#2196));
#2195=FILL_AREA_STYLE_COLOUR('Steel - Satin',#2197);
#2196=FILL_AREA_STYLE_COLOUR('ABS (White)',#2198);
#2197=COLOUR_RGB('Steel - Satin',0.627450980392157,0.627450980392157,0.627450980392157);
#2198=COLOUR_RGB('ABS (White)',0.964705882352941,0.964705882352941,0.952941176470588);
ENDSEC;
END-ISO-10303-21;
