ISO-10303-21;
HEADER;
/* Generated by software containing ST-Developer
 * from STEP Tools, Inc. (www.steptools.com) 
 */

FILE_DESCRIPTION(
/* description */ (''),
/* implementation_level */ '2;1');

FILE_NAME(
/* name */ 'Foot.step',
/* time_stamp */ '2025-09-30T07:47:24+02:00',
/* author */ (''),
/* organization */ (''),
/* preprocessor_version */ 'ST-DEVELOPER v20.1',
/* originating_system */ 'Autodesk Translation Framework v14.17.0.0',
/* authorisation */ '');

FILE_SCHEMA (('AUTOMOTIVE_DESIGN { 1 0 10303 214 3 1 1 }'));
ENDSEC;

DATA;
#10=MECHANICAL_DESIGN_GEOMETRIC_PRESENTATION_REPRESENTATION('',(#17),#1534);
#11=ITEM_DEFINED_TRANSFORMATION($,$,#844,#949);
#12=(
REPRESENTATION_RELATIONSHIP($,$,#1545,#1544)
REPRESENTATION_RELATIONSHIP_WITH_TRANSFORMATION(#11)
SHAPE_REPRESENTATION_RELATIONSHIP()
);
#13=CONTEXT_DEPENDENT_SHAPE_REPRESENTATION(#12,#1543);
#14=NEXT_ASSEMBLY_USAGE_OCCURRENCE('Foot:1','Foot:1','Foot:1',#1547,#1548,
'Foot:1');
#15=SHAPE_REPRESENTATION_RELATIONSHIP('SRR','None',#1545,#16);
#16=ADVANCED_BREP_SHAPE_REPRESENTATION('',(#18),#1533);
#17=STYLED_ITEM('',(#1559),#18);
#18=MANIFOLD_SOLID_BREP('Body1',#830);
#19=FACE_BOUND('',#156,.T.);
#20=SPHERICAL_SURFACE('',#859,0.750000000000002);
#21=SPHERICAL_SURFACE('',#863,0.749999999999998);
#22=SPHERICAL_SURFACE('',#869,0.750000000000002);
#23=SPHERICAL_SURFACE('',#875,0.749999999999994);
#24=SPHERICAL_SURFACE('',#879,0.750000000000001);
#25=SPHERICAL_SURFACE('',#884,0.749999999999998);
#26=SPHERICAL_SURFACE('',#888,0.75);
#27=SPHERICAL_SURFACE('',#893,0.749999999999998);
#28=SPHERICAL_SURFACE('',#897,0.750000000000001);
#29=SPHERICAL_SURFACE('',#901,0.749999999999998);
#30=SPHERICAL_SURFACE('',#905,0.750000000000003);
#31=SPHERICAL_SURFACE('',#912,0.750000000000001);
#32=PLANE('',#850);
#33=PLANE('',#933);
#34=PLANE('',#934);
#35=PLANE('',#935);
#36=PLANE('',#936);
#37=PLANE('',#938);
#38=PLANE('',#939);
#39=PLANE('',#940);
#40=PLANE('',#941);
#41=PLANE('',#942);
#42=PLANE('',#943);
#43=PLANE('',#944);
#44=PLANE('',#945);
#45=PLANE('',#948);
#46=ELLIPSE('',#848,2.32274794145695,0.75);
#47=ELLIPSE('',#849,2.32274794146647,0.75);
#48=ELLIPSE('',#852,1.12954101406265,0.75);
#49=ELLIPSE('',#857,1.12954101405932,0.75);
#50=B_SPLINE_CURVE_WITH_KNOTS('',3,(#1256,#1257,#1258,#1259),
 .UNSPECIFIED.,.F.,.F.,(4,4),(0.00313526876909791,0.00634306748528774),
 .UNSPECIFIED.);
#51=B_SPLINE_CURVE_WITH_KNOTS('',3,(#1262,#1263,#1264,#1265,#1266),
 .UNSPECIFIED.,.F.,.F.,(4,1,4),(0.121146011370747,0.1320275855894,0.135923877322693),
 .UNSPECIFIED.);
#52=B_SPLINE_CURVE_WITH_KNOTS('',3,(#1267,#1268,#1269,#1270,#1271,#1272,
#1273,#1274),.UNSPECIFIED.,.F.,.F.,(4,2,2,4),(-5.31650317831819E-5,0.,0.00456815098948071,
0.00589624015004219),.UNSPECIFIED.);
#53=B_SPLINE_CURVE_WITH_KNOTS('',3,(#1297,#1298,#1299,#1300,#1301,#1302,
#1303,#1304),.UNSPECIFIED.,.F.,.F.,(4,2,2,4),(1.50680978933771E-6,0.00144586904872722,
0.00596628554496374,0.00601738441225933),.UNSPECIFIED.);
#54=B_SPLINE_CURVE_WITH_KNOTS('',3,(#1305,#1306,#1307,#1308,#1309),
 .UNSPECIFIED.,.F.,.F.,(4,1,4),(0.0826322607537907,0.0866634706911436,0.0975525262550951),
 .UNSPECIFIED.);
#55=B_SPLINE_CURVE_WITH_KNOTS('',3,(#1312,#1313,#1314,#1315),
 .UNSPECIFIED.,.F.,.F.,(4,4),(-3.26831824733645E-5,0.00317555501417991),
 .UNSPECIFIED.);
#56=B_SPLINE_SURFACE_WITH_KNOTS('',3,3,((#1234,#1235,#1236,#1237,#1238),
(#1239,#1240,#1241,#1242,#1243),(#1244,#1245,#1246,#1247,#1248),(#1249,
#1250,#1251,#1252,#1253)),.UNSPECIFIED.,.F.,.F.,.F.,(4,4),(4,1,4),(0.,1.),
(-0.142909159808054,-0.1320275855894,-0.121146011370747),.UNSPECIFIED.);
#57=B_SPLINE_SURFACE_WITH_KNOTS('',3,3,((#1275,#1276,#1277,#1278,#1279),
(#1280,#1281,#1282,#1283,#1284),(#1285,#1286,#1287,#1288,#1289),(#1290,
#1291,#1292,#1293,#1294)),.UNSPECIFIED.,.F.,.F.,.F.,(4,4),(4,1,4),(0.,1.),
(-0.0975525262550951,-0.0866634706911436,-0.0757744151271921),
 .UNSPECIFIED.);
#58=FACE_OUTER_BOUND('',#112,.T.);
#59=FACE_OUTER_BOUND('',#113,.T.);
#60=FACE_OUTER_BOUND('',#114,.T.);
#61=FACE_OUTER_BOUND('',#115,.T.);
#62=FACE_OUTER_BOUND('',#116,.T.);
#63=FACE_OUTER_BOUND('',#117,.T.);
#64=FACE_OUTER_BOUND('',#118,.T.);
#65=FACE_OUTER_BOUND('',#119,.T.);
#66=FACE_OUTER_BOUND('',#120,.T.);
#67=FACE_OUTER_BOUND('',#121,.T.);
#68=FACE_OUTER_BOUND('',#122,.T.);
#69=FACE_OUTER_BOUND('',#123,.T.);
#70=FACE_OUTER_BOUND('',#124,.T.);
#71=FACE_OUTER_BOUND('',#125,.T.);
#72=FACE_OUTER_BOUND('',#126,.T.);
#73=FACE_OUTER_BOUND('',#127,.T.);
#74=FACE_OUTER_BOUND('',#128,.T.);
#75=FACE_OUTER_BOUND('',#129,.T.);
#76=FACE_OUTER_BOUND('',#130,.T.);
#77=FACE_OUTER_BOUND('',#131,.T.);
#78=FACE_OUTER_BOUND('',#132,.T.);
#79=FACE_OUTER_BOUND('',#133,.T.);
#80=FACE_OUTER_BOUND('',#134,.T.);
#81=FACE_OUTER_BOUND('',#135,.T.);
#82=FACE_OUTER_BOUND('',#136,.T.);
#83=FACE_OUTER_BOUND('',#137,.T.);
#84=FACE_OUTER_BOUND('',#138,.T.);
#85=FACE_OUTER_BOUND('',#139,.T.);
#86=FACE_OUTER_BOUND('',#140,.T.);
#87=FACE_OUTER_BOUND('',#141,.T.);
#88=FACE_OUTER_BOUND('',#142,.T.);
#89=FACE_OUTER_BOUND('',#143,.T.);
#90=FACE_OUTER_BOUND('',#144,.T.);
#91=FACE_OUTER_BOUND('',#145,.T.);
#92=FACE_OUTER_BOUND('',#146,.T.);
#93=FACE_OUTER_BOUND('',#147,.T.);
#94=FACE_OUTER_BOUND('',#148,.T.);
#95=FACE_OUTER_BOUND('',#149,.T.);
#96=FACE_OUTER_BOUND('',#150,.T.);
#97=FACE_OUTER_BOUND('',#151,.T.);
#98=FACE_OUTER_BOUND('',#152,.T.);
#99=FACE_OUTER_BOUND('',#153,.T.);
#100=FACE_OUTER_BOUND('',#154,.T.);
#101=FACE_OUTER_BOUND('',#155,.T.);
#102=FACE_OUTER_BOUND('',#157,.T.);
#103=FACE_OUTER_BOUND('',#158,.T.);
#104=FACE_OUTER_BOUND('',#159,.T.);
#105=FACE_OUTER_BOUND('',#160,.T.);
#106=FACE_OUTER_BOUND('',#161,.T.);
#107=FACE_OUTER_BOUND('',#162,.T.);
#108=FACE_OUTER_BOUND('',#163,.T.);
#109=FACE_OUTER_BOUND('',#164,.T.);
#110=FACE_OUTER_BOUND('',#165,.T.);
#111=FACE_OUTER_BOUND('',#166,.T.);
#112=EDGE_LOOP('',(#516,#517,#518,#519));
#113=EDGE_LOOP('',(#520,#521,#522,#523,#524));
#114=EDGE_LOOP('',(#525,#526,#527,#528,#529));
#115=EDGE_LOOP('',(#530,#531,#532,#533,#534,#535,#536,#537));
#116=EDGE_LOOP('',(#538,#539,#540,#541,#542));
#117=EDGE_LOOP('',(#543,#544,#545,#546,#547,#548));
#118=EDGE_LOOP('',(#549,#550,#551,#552,#553,#554));
#119=EDGE_LOOP('',(#555,#556,#557));
#120=EDGE_LOOP('',(#558,#559,#560));
#121=EDGE_LOOP('',(#561,#562,#563,#564));
#122=EDGE_LOOP('',(#565,#566,#567));
#123=EDGE_LOOP('',(#568,#569,#570,#571));
#124=EDGE_LOOP('',(#572,#573,#574,#575,#576));
#125=EDGE_LOOP('',(#577,#578,#579));
#126=EDGE_LOOP('',(#580,#581,#582,#583));
#127=EDGE_LOOP('',(#584,#585,#586));
#128=EDGE_LOOP('',(#587,#588,#589,#590));
#129=EDGE_LOOP('',(#591,#592,#593));
#130=EDGE_LOOP('',(#594,#595,#596));
#131=EDGE_LOOP('',(#597,#598,#599,#600));
#132=EDGE_LOOP('',(#601,#602,#603));
#133=EDGE_LOOP('',(#604,#605,#606));
#134=EDGE_LOOP('',(#607,#608,#609,#610));
#135=EDGE_LOOP('',(#611,#612,#613));
#136=EDGE_LOOP('',(#614,#615,#616,#617));
#137=EDGE_LOOP('',(#618,#619,#620));
#138=EDGE_LOOP('',(#621,#622,#623,#624));
#139=EDGE_LOOP('',(#625,#626,#627,#628));
#140=EDGE_LOOP('',(#629,#630,#631));
#141=EDGE_LOOP('',(#632,#633,#634,#635));
#142=EDGE_LOOP('',(#636,#637,#638,#639));
#143=EDGE_LOOP('',(#640,#641,#642,#643));
#144=EDGE_LOOP('',(#644,#645,#646,#647));
#145=EDGE_LOOP('',(#648,#649,#650,#651));
#146=EDGE_LOOP('',(#652,#653,#654,#655));
#147=EDGE_LOOP('',(#656,#657,#658,#659));
#148=EDGE_LOOP('',(#660,#661,#662,#663));
#149=EDGE_LOOP('',(#664,#665,#666,#667));
#150=EDGE_LOOP('',(#668,#669,#670,#671));
#151=EDGE_LOOP('',(#672,#673,#674,#675));
#152=EDGE_LOOP('',(#676,#677,#678,#679,#680));
#153=EDGE_LOOP('',(#681,#682,#683,#684));
#154=EDGE_LOOP('',(#685,#686,#687,#688,#689));
#155=EDGE_LOOP('',(#690,#691,#692,#693,#694,#695,#696,#697,#698,#699,#700,
#701,#702,#703,#704,#705));
#156=EDGE_LOOP('',(#706));
#157=EDGE_LOOP('',(#707,#708,#709,#710));
#158=EDGE_LOOP('',(#711,#712,#713,#714,#715));
#159=EDGE_LOOP('',(#716,#717,#718,#719,#720));
#160=EDGE_LOOP('',(#721,#722,#723,#724));
#161=EDGE_LOOP('',(#725,#726,#727,#728,#729));
#162=EDGE_LOOP('',(#730,#731,#732,#733,#734));
#163=EDGE_LOOP('',(#735,#736,#737,#738,#739,#740));
#164=EDGE_LOOP('',(#741));
#165=EDGE_LOOP('',(#742,#743,#744,#745));
#166=EDGE_LOOP('',(#746,#747,#748,#749));
#167=LINE('',#1230,#226);
#168=LINE('',#1233,#227);
#169=LINE('',#1318,#228);
#170=LINE('',#1320,#229);
#171=LINE('',#1322,#230);
#172=LINE('',#1324,#231);
#173=LINE('',#1325,#232);
#174=LINE('',#1330,#233);
#175=LINE('',#1334,#234);
#176=LINE('',#1337,#235);
#177=LINE('',#1342,#236);
#178=LINE('',#1345,#237);
#179=LINE('',#1364,#238);
#180=LINE('',#1365,#239);
#181=LINE('',#1373,#240);
#182=LINE('',#1374,#241);
#183=LINE('',#1376,#242);
#184=LINE('',#1382,#243);
#185=LINE('',#1383,#244);
#186=LINE('',#1391,#245);
#187=LINE('',#1406,#246);
#188=LINE('',#1419,#247);
#189=LINE('',#1425,#248);
#190=LINE('',#1426,#249);
#191=LINE('',#1438,#250);
#192=LINE('',#1439,#251);
#193=LINE('',#1441,#252);
#194=LINE('',#1442,#253);
#195=LINE('',#1451,#254);
#196=LINE('',#1452,#255);
#197=LINE('',#1454,#256);
#198=LINE('',#1455,#257);
#199=LINE('',#1460,#258);
#200=LINE('',#1461,#259);
#201=LINE('',#1463,#260);
#202=LINE('',#1464,#261);
#203=LINE('',#1469,#262);
#204=LINE('',#1470,#263);
#205=LINE('',#1475,#264);
#206=LINE('',#1476,#265);
#207=LINE('',#1478,#266);
#208=LINE('',#1479,#267);
#209=LINE('',#1484,#268);
#210=LINE('',#1485,#269);
#211=LINE('',#1490,#270);
#212=LINE('',#1491,#271);
#213=LINE('',#1493,#272);
#214=LINE('',#1494,#273);
#215=LINE('',#1499,#274);
#216=LINE('',#1500,#275);
#217=LINE('',#1502,#276);
#218=LINE('',#1504,#277);
#219=LINE('',#1506,#278);
#220=LINE('',#1508,#279);
#221=LINE('',#1509,#280);
#222=LINE('',#1510,#281);
#223=LINE('',#1511,#282);
#224=LINE('',#1512,#283);
#225=LINE('',#1526,#284);
#226=VECTOR('',#958,10.);
#227=VECTOR('',#961,0.75);
#228=VECTOR('',#968,10.);
#229=VECTOR('',#969,10.);
#230=VECTOR('',#970,10.);
#231=VECTOR('',#971,10.);
#232=VECTOR('',#972,10.);
#233=VECTOR('',#977,10.);
#234=VECTOR('',#982,10.);
#235=VECTOR('',#985,10.);
#236=VECTOR('',#990,10.);
#237=VECTOR('',#993,10.);
#238=VECTOR('',#1014,10.);
#239=VECTOR('',#1015,10.);
#240=VECTOR('',#1026,10.);
#241=VECTOR('',#1027,10.);
#242=VECTOR('',#1030,10.);
#243=VECTOR('',#1039,10.);
#244=VECTOR('',#1040,10.);
#245=VECTOR('',#1051,10.);
#246=VECTOR('',#1070,10.);
#247=VECTOR('',#1087,10.);
#248=VECTOR('',#1096,10.);
#249=VECTOR('',#1097,10.);
#250=VECTOR('',#1110,10.);
#251=VECTOR('',#1111,10.);
#252=VECTOR('',#1114,10.);
#253=VECTOR('',#1115,10.);
#254=VECTOR('',#1126,10.);
#255=VECTOR('',#1127,10.);
#256=VECTOR('',#1130,10.);
#257=VECTOR('',#1131,10.);
#258=VECTOR('',#1136,10.);
#259=VECTOR('',#1137,10.);
#260=VECTOR('',#1140,10.);
#261=VECTOR('',#1141,10.);
#262=VECTOR('',#1146,10.);
#263=VECTOR('',#1147,10.);
#264=VECTOR('',#1152,10.);
#265=VECTOR('',#1153,10.);
#266=VECTOR('',#1156,10.);
#267=VECTOR('',#1157,10.);
#268=VECTOR('',#1162,10.);
#269=VECTOR('',#1163,10.);
#270=VECTOR('',#1168,10.);
#271=VECTOR('',#1169,10.);
#272=VECTOR('',#1172,10.);
#273=VECTOR('',#1173,10.);
#274=VECTOR('',#1178,10.);
#275=VECTOR('',#1179,10.);
#276=VECTOR('',#1182,10.);
#277=VECTOR('',#1185,10.);
#278=VECTOR('',#1188,10.);
#279=VECTOR('',#1191,10.);
#280=VECTOR('',#1192,10.);
#281=VECTOR('',#1193,10.);
#282=VECTOR('',#1194,10.);
#283=VECTOR('',#1195,10.);
#284=VECTOR('',#1218,2.5);
#285=CIRCLE('',#846,0.750000000000002);
#286=CIRCLE('',#847,0.750000000008907);
#287=CIRCLE('',#853,0.749999999999998);
#288=CIRCLE('',#855,0.749999999999996);
#289=CIRCLE('',#858,0.750000000000003);
#290=CIRCLE('',#860,0.750000000000002);
#291=CIRCLE('',#861,0.750000000000003);
#292=CIRCLE('',#862,0.749999999999998);
#293=CIRCLE('',#864,0.750000000000002);
#294=CIRCLE('',#865,0.749999999999998);
#295=CIRCLE('',#866,0.750000000000003);
#296=CIRCLE('',#868,0.75);
#297=CIRCLE('',#870,0.749999999999998);
#298=CIRCLE('',#871,0.750000000000003);
#299=CIRCLE('',#872,0.750000000000001);
#300=CIRCLE('',#876,0.749999999999994);
#301=CIRCLE('',#877,0.749999999999999);
#302=CIRCLE('',#880,0.749999999999995);
#303=CIRCLE('',#881,0.750000000000001);
#304=CIRCLE('',#882,0.749999999999998);
#305=CIRCLE('',#885,0.750000000000003);
#306=CIRCLE('',#886,0.749999999999998);
#307=CIRCLE('',#887,0.749999999999998);
#308=CIRCLE('',#889,0.749999999999995);
#309=CIRCLE('',#890,0.749999999999999);
#310=CIRCLE('',#891,0.750000000000003);
#311=CIRCLE('',#894,0.750000000000002);
#312=CIRCLE('',#895,0.749999999999998);
#313=CIRCLE('',#896,0.750000000000003);
#314=CIRCLE('',#898,0.750000000000003);
#315=CIRCLE('',#899,0.750000000000001);
#316=CIRCLE('',#902,0.749999999999998);
#317=CIRCLE('',#903,0.749999999999999);
#318=CIRCLE('',#906,0.749999999999997);
#319=CIRCLE('',#907,0.750000000000003);
#320=CIRCLE('',#908,0.749999999999995);
#321=CIRCLE('',#910,0.75);
#322=CIRCLE('',#913,0.749999999999997);
#323=CIRCLE('',#914,0.750000000000001);
#324=CIRCLE('',#915,0.749999999999997);
#325=CIRCLE('',#919,0.75);
#326=CIRCLE('',#922,0.75);
#327=CIRCLE('',#924,0.75);
#328=CIRCLE('',#927,0.75);
#329=CIRCLE('',#929,0.75);
#330=CIRCLE('',#932,0.75);
#331=CIRCLE('',#937,2.35);
#332=CIRCLE('',#946,2.35);
#333=VERTEX_POINT('',#1226);
#334=VERTEX_POINT('',#1227);
#335=VERTEX_POINT('',#1229);
#336=VERTEX_POINT('',#1231);
#337=VERTEX_POINT('',#1254);
#338=VERTEX_POINT('',#1255);
#339=VERTEX_POINT('',#1261);
#340=VERTEX_POINT('',#1295);
#341=VERTEX_POINT('',#1296);
#342=VERTEX_POINT('',#1310);
#343=VERTEX_POINT('',#1317);
#344=VERTEX_POINT('',#1319);
#345=VERTEX_POINT('',#1321);
#346=VERTEX_POINT('',#1323);
#347=VERTEX_POINT('',#1327);
#348=VERTEX_POINT('',#1329);
#349=VERTEX_POINT('',#1333);
#350=VERTEX_POINT('',#1335);
#351=VERTEX_POINT('',#1339);
#352=VERTEX_POINT('',#1341);
#353=VERTEX_POINT('',#1343);
#354=VERTEX_POINT('',#1347);
#355=VERTEX_POINT('',#1348);
#356=VERTEX_POINT('',#1350);
#357=VERTEX_POINT('',#1354);
#358=VERTEX_POINT('',#1355);
#359=VERTEX_POINT('',#1357);
#360=VERTEX_POINT('',#1361);
#361=VERTEX_POINT('',#1362);
#362=VERTEX_POINT('',#1367);
#363=VERTEX_POINT('',#1369);
#364=VERTEX_POINT('',#1378);
#365=VERTEX_POINT('',#1385);
#366=VERTEX_POINT('',#1386);
#367=VERTEX_POINT('',#1393);
#368=VERTEX_POINT('',#1394);
#369=VERTEX_POINT('',#1396);
#370=VERTEX_POINT('',#1400);
#371=VERTEX_POINT('',#1401);
#372=VERTEX_POINT('',#1408);
#373=VERTEX_POINT('',#1409);
#374=VERTEX_POINT('',#1411);
#375=VERTEX_POINT('',#1415);
#376=VERTEX_POINT('',#1421);
#377=VERTEX_POINT('',#1428);
#378=VERTEX_POINT('',#1429);
#379=VERTEX_POINT('',#1431);
#380=VERTEX_POINT('',#1435);
#381=VERTEX_POINT('',#1436);
#382=VERTEX_POINT('',#1444);
#383=VERTEX_POINT('',#1445);
#384=VERTEX_POINT('',#1447);
#385=VERTEX_POINT('',#1457);
#386=VERTEX_POINT('',#1458);
#387=VERTEX_POINT('',#1466);
#388=VERTEX_POINT('',#1467);
#389=VERTEX_POINT('',#1472);
#390=VERTEX_POINT('',#1473);
#391=VERTEX_POINT('',#1481);
#392=VERTEX_POINT('',#1482);
#393=VERTEX_POINT('',#1487);
#394=VERTEX_POINT('',#1488);
#395=VERTEX_POINT('',#1496);
#396=VERTEX_POINT('',#1497);
#397=VERTEX_POINT('',#1513);
#398=VERTEX_POINT('',#1523);
#399=EDGE_CURVE('',#333,#334,#285,.T.);
#400=EDGE_CURVE('',#335,#334,#167,.T.);
#401=EDGE_CURVE('',#335,#336,#286,.T.);
#402=EDGE_CURVE('',#336,#333,#168,.T.);
#403=EDGE_CURVE('',#337,#338,#50,.T.);
#404=EDGE_CURVE('',#334,#338,#46,.T.);
#405=EDGE_CURVE('',#333,#339,#51,.T.);
#406=EDGE_CURVE('',#339,#337,#52,.T.);
#407=EDGE_CURVE('',#340,#341,#53,.T.);
#408=EDGE_CURVE('',#341,#336,#54,.T.);
#409=EDGE_CURVE('',#342,#335,#47,.T.);
#410=EDGE_CURVE('',#342,#340,#55,.T.);
#411=EDGE_CURVE('',#343,#341,#169,.T.);
#412=EDGE_CURVE('',#344,#343,#170,.T.);
#413=EDGE_CURVE('',#345,#344,#171,.T.);
#414=EDGE_CURVE('',#346,#345,#172,.T.);
#415=EDGE_CURVE('',#339,#346,#173,.T.);
#416=EDGE_CURVE('',#340,#347,#48,.T.);
#417=EDGE_CURVE('',#347,#348,#174,.T.);
#418=EDGE_CURVE('',#348,#343,#287,.F.);
#419=EDGE_CURVE('',#335,#349,#175,.T.);
#420=EDGE_CURVE('',#349,#350,#288,.F.);
#421=EDGE_CURVE('',#350,#347,#176,.T.);
#422=EDGE_CURVE('',#351,#337,#49,.T.);
#423=EDGE_CURVE('',#351,#352,#177,.T.);
#424=EDGE_CURVE('',#352,#353,#289,.F.);
#425=EDGE_CURVE('',#353,#334,#178,.T.);
#426=EDGE_CURVE('',#354,#355,#290,.F.);
#427=EDGE_CURVE('',#356,#354,#291,.F.);
#428=EDGE_CURVE('',#355,#356,#292,.F.);
#429=EDGE_CURVE('',#357,#358,#293,.F.);
#430=EDGE_CURVE('',#359,#357,#294,.F.);
#431=EDGE_CURVE('',#358,#359,#295,.F.);
#432=EDGE_CURVE('',#360,#361,#296,.T.);
#433=EDGE_CURVE('',#361,#359,#179,.T.);
#434=EDGE_CURVE('',#357,#360,#180,.T.);
#435=EDGE_CURVE('',#362,#346,#297,.F.);
#436=EDGE_CURVE('',#363,#362,#298,.F.);
#437=EDGE_CURVE('',#346,#363,#299,.F.);
#438=EDGE_CURVE('',#362,#355,#181,.T.);
#439=EDGE_CURVE('',#356,#363,#182,.T.);
#440=EDGE_CURVE('',#363,#351,#183,.T.);
#441=EDGE_CURVE('',#364,#352,#300,.F.);
#442=EDGE_CURVE('',#353,#364,#301,.F.);
#443=EDGE_CURVE('',#359,#364,#184,.T.);
#444=EDGE_CURVE('',#352,#358,#185,.T.);
#445=EDGE_CURVE('',#365,#366,#302,.F.);
#446=EDGE_CURVE('',#345,#365,#303,.F.);
#447=EDGE_CURVE('',#366,#345,#304,.F.);
#448=EDGE_CURVE('',#365,#362,#186,.T.);
#449=EDGE_CURVE('',#367,#368,#305,.F.);
#450=EDGE_CURVE('',#369,#367,#306,.F.);
#451=EDGE_CURVE('',#368,#369,#307,.F.);
#452=EDGE_CURVE('',#370,#371,#308,.F.);
#453=EDGE_CURVE('',#344,#370,#309,.F.);
#454=EDGE_CURVE('',#371,#344,#310,.F.);
#455=EDGE_CURVE('',#370,#366,#187,.T.);
#456=EDGE_CURVE('',#372,#373,#311,.F.);
#457=EDGE_CURVE('',#374,#372,#312,.F.);
#458=EDGE_CURVE('',#373,#374,#313,.F.);
#459=EDGE_CURVE('',#375,#348,#314,.F.);
#460=EDGE_CURVE('',#343,#375,#315,.F.);
#461=EDGE_CURVE('',#375,#371,#188,.T.);
#462=EDGE_CURVE('',#376,#349,#316,.F.);
#463=EDGE_CURVE('',#350,#376,#317,.F.);
#464=EDGE_CURVE('',#372,#376,#189,.T.);
#465=EDGE_CURVE('',#349,#374,#190,.T.);
#466=EDGE_CURVE('',#377,#378,#318,.F.);
#467=EDGE_CURVE('',#379,#377,#319,.F.);
#468=EDGE_CURVE('',#378,#379,#320,.F.);
#469=EDGE_CURVE('',#380,#381,#321,.T.);
#470=EDGE_CURVE('',#381,#379,#191,.T.);
#471=EDGE_CURVE('',#377,#380,#192,.T.);
#472=EDGE_CURVE('',#379,#375,#193,.T.);
#473=EDGE_CURVE('',#348,#378,#194,.T.);
#474=EDGE_CURVE('',#382,#383,#322,.F.);
#475=EDGE_CURVE('',#384,#382,#323,.F.);
#476=EDGE_CURVE('',#383,#384,#324,.F.);
#477=EDGE_CURVE('',#378,#384,#195,.T.);
#478=EDGE_CURVE('',#382,#377,#196,.T.);
#479=EDGE_CURVE('',#376,#383,#197,.T.);
#480=EDGE_CURVE('',#384,#350,#198,.T.);
#481=EDGE_CURVE('',#385,#386,#325,.T.);
#482=EDGE_CURVE('',#386,#382,#199,.T.);
#483=EDGE_CURVE('',#383,#385,#200,.T.);
#484=EDGE_CURVE('',#374,#369,#201,.T.);
#485=EDGE_CURVE('',#367,#373,#202,.T.);
#486=EDGE_CURVE('',#387,#388,#326,.T.);
#487=EDGE_CURVE('',#388,#372,#203,.T.);
#488=EDGE_CURVE('',#373,#387,#204,.T.);
#489=EDGE_CURVE('',#389,#390,#327,.T.);
#490=EDGE_CURVE('',#390,#370,#205,.T.);
#491=EDGE_CURVE('',#371,#389,#206,.T.);
#492=EDGE_CURVE('',#364,#368,#207,.T.);
#493=EDGE_CURVE('',#369,#353,#208,.T.);
#494=EDGE_CURVE('',#391,#392,#328,.T.);
#495=EDGE_CURVE('',#392,#367,#209,.T.);
#496=EDGE_CURVE('',#368,#391,#210,.T.);
#497=EDGE_CURVE('',#393,#394,#329,.T.);
#498=EDGE_CURVE('',#394,#365,#211,.T.);
#499=EDGE_CURVE('',#366,#393,#212,.T.);
#500=EDGE_CURVE('',#358,#356,#213,.T.);
#501=EDGE_CURVE('',#354,#357,#214,.T.);
#502=EDGE_CURVE('',#395,#396,#330,.T.);
#503=EDGE_CURVE('',#396,#354,#215,.T.);
#504=EDGE_CURVE('',#355,#395,#216,.T.);
#505=EDGE_CURVE('',#381,#389,#217,.T.);
#506=EDGE_CURVE('',#380,#386,#218,.T.);
#507=EDGE_CURVE('',#388,#385,#219,.T.);
#508=EDGE_CURVE('',#387,#392,#220,.T.);
#509=EDGE_CURVE('',#361,#391,#221,.T.);
#510=EDGE_CURVE('',#360,#396,#222,.T.);
#511=EDGE_CURVE('',#394,#395,#223,.T.);
#512=EDGE_CURVE('',#393,#390,#224,.T.);
#513=EDGE_CURVE('',#397,#397,#331,.F.);
#514=EDGE_CURVE('',#398,#398,#332,.F.);
#515=EDGE_CURVE('',#398,#397,#225,.T.);
#516=ORIENTED_EDGE('',*,*,#399,.T.);
#517=ORIENTED_EDGE('',*,*,#400,.F.);
#518=ORIENTED_EDGE('',*,*,#401,.T.);
#519=ORIENTED_EDGE('',*,*,#402,.T.);
#520=ORIENTED_EDGE('',*,*,#403,.T.);
#521=ORIENTED_EDGE('',*,*,#404,.F.);
#522=ORIENTED_EDGE('',*,*,#399,.F.);
#523=ORIENTED_EDGE('',*,*,#405,.T.);
#524=ORIENTED_EDGE('',*,*,#406,.T.);
#525=ORIENTED_EDGE('',*,*,#407,.T.);
#526=ORIENTED_EDGE('',*,*,#408,.T.);
#527=ORIENTED_EDGE('',*,*,#401,.F.);
#528=ORIENTED_EDGE('',*,*,#409,.F.);
#529=ORIENTED_EDGE('',*,*,#410,.T.);
#530=ORIENTED_EDGE('',*,*,#405,.F.);
#531=ORIENTED_EDGE('',*,*,#402,.F.);
#532=ORIENTED_EDGE('',*,*,#408,.F.);
#533=ORIENTED_EDGE('',*,*,#411,.F.);
#534=ORIENTED_EDGE('',*,*,#412,.F.);
#535=ORIENTED_EDGE('',*,*,#413,.F.);
#536=ORIENTED_EDGE('',*,*,#414,.F.);
#537=ORIENTED_EDGE('',*,*,#415,.F.);
#538=ORIENTED_EDGE('',*,*,#407,.F.);
#539=ORIENTED_EDGE('',*,*,#416,.T.);
#540=ORIENTED_EDGE('',*,*,#417,.T.);
#541=ORIENTED_EDGE('',*,*,#418,.T.);
#542=ORIENTED_EDGE('',*,*,#411,.T.);
#543=ORIENTED_EDGE('',*,*,#410,.F.);
#544=ORIENTED_EDGE('',*,*,#409,.T.);
#545=ORIENTED_EDGE('',*,*,#419,.T.);
#546=ORIENTED_EDGE('',*,*,#420,.T.);
#547=ORIENTED_EDGE('',*,*,#421,.T.);
#548=ORIENTED_EDGE('',*,*,#416,.F.);
#549=ORIENTED_EDGE('',*,*,#403,.F.);
#550=ORIENTED_EDGE('',*,*,#422,.F.);
#551=ORIENTED_EDGE('',*,*,#423,.T.);
#552=ORIENTED_EDGE('',*,*,#424,.T.);
#553=ORIENTED_EDGE('',*,*,#425,.T.);
#554=ORIENTED_EDGE('',*,*,#404,.T.);
#555=ORIENTED_EDGE('',*,*,#426,.F.);
#556=ORIENTED_EDGE('',*,*,#427,.F.);
#557=ORIENTED_EDGE('',*,*,#428,.F.);
#558=ORIENTED_EDGE('',*,*,#429,.F.);
#559=ORIENTED_EDGE('',*,*,#430,.F.);
#560=ORIENTED_EDGE('',*,*,#431,.F.);
#561=ORIENTED_EDGE('',*,*,#432,.T.);
#562=ORIENTED_EDGE('',*,*,#433,.T.);
#563=ORIENTED_EDGE('',*,*,#430,.T.);
#564=ORIENTED_EDGE('',*,*,#434,.T.);
#565=ORIENTED_EDGE('',*,*,#435,.F.);
#566=ORIENTED_EDGE('',*,*,#436,.F.);
#567=ORIENTED_EDGE('',*,*,#437,.F.);
#568=ORIENTED_EDGE('',*,*,#436,.T.);
#569=ORIENTED_EDGE('',*,*,#438,.T.);
#570=ORIENTED_EDGE('',*,*,#428,.T.);
#571=ORIENTED_EDGE('',*,*,#439,.T.);
#572=ORIENTED_EDGE('',*,*,#406,.F.);
#573=ORIENTED_EDGE('',*,*,#415,.T.);
#574=ORIENTED_EDGE('',*,*,#437,.T.);
#575=ORIENTED_EDGE('',*,*,#440,.T.);
#576=ORIENTED_EDGE('',*,*,#422,.T.);
#577=ORIENTED_EDGE('',*,*,#424,.F.);
#578=ORIENTED_EDGE('',*,*,#441,.F.);
#579=ORIENTED_EDGE('',*,*,#442,.F.);
#580=ORIENTED_EDGE('',*,*,#431,.T.);
#581=ORIENTED_EDGE('',*,*,#443,.T.);
#582=ORIENTED_EDGE('',*,*,#441,.T.);
#583=ORIENTED_EDGE('',*,*,#444,.T.);
#584=ORIENTED_EDGE('',*,*,#445,.F.);
#585=ORIENTED_EDGE('',*,*,#446,.F.);
#586=ORIENTED_EDGE('',*,*,#447,.F.);
#587=ORIENTED_EDGE('',*,*,#446,.T.);
#588=ORIENTED_EDGE('',*,*,#448,.T.);
#589=ORIENTED_EDGE('',*,*,#435,.T.);
#590=ORIENTED_EDGE('',*,*,#414,.T.);
#591=ORIENTED_EDGE('',*,*,#449,.F.);
#592=ORIENTED_EDGE('',*,*,#450,.F.);
#593=ORIENTED_EDGE('',*,*,#451,.F.);
#594=ORIENTED_EDGE('',*,*,#452,.F.);
#595=ORIENTED_EDGE('',*,*,#453,.F.);
#596=ORIENTED_EDGE('',*,*,#454,.F.);
#597=ORIENTED_EDGE('',*,*,#447,.T.);
#598=ORIENTED_EDGE('',*,*,#413,.T.);
#599=ORIENTED_EDGE('',*,*,#453,.T.);
#600=ORIENTED_EDGE('',*,*,#455,.T.);
#601=ORIENTED_EDGE('',*,*,#456,.F.);
#602=ORIENTED_EDGE('',*,*,#457,.F.);
#603=ORIENTED_EDGE('',*,*,#458,.F.);
#604=ORIENTED_EDGE('',*,*,#459,.F.);
#605=ORIENTED_EDGE('',*,*,#460,.F.);
#606=ORIENTED_EDGE('',*,*,#418,.F.);
#607=ORIENTED_EDGE('',*,*,#460,.T.);
#608=ORIENTED_EDGE('',*,*,#461,.T.);
#609=ORIENTED_EDGE('',*,*,#454,.T.);
#610=ORIENTED_EDGE('',*,*,#412,.T.);
#611=ORIENTED_EDGE('',*,*,#420,.F.);
#612=ORIENTED_EDGE('',*,*,#462,.F.);
#613=ORIENTED_EDGE('',*,*,#463,.F.);
#614=ORIENTED_EDGE('',*,*,#457,.T.);
#615=ORIENTED_EDGE('',*,*,#464,.T.);
#616=ORIENTED_EDGE('',*,*,#462,.T.);
#617=ORIENTED_EDGE('',*,*,#465,.T.);
#618=ORIENTED_EDGE('',*,*,#466,.F.);
#619=ORIENTED_EDGE('',*,*,#467,.F.);
#620=ORIENTED_EDGE('',*,*,#468,.F.);
#621=ORIENTED_EDGE('',*,*,#469,.T.);
#622=ORIENTED_EDGE('',*,*,#470,.T.);
#623=ORIENTED_EDGE('',*,*,#467,.T.);
#624=ORIENTED_EDGE('',*,*,#471,.T.);
#625=ORIENTED_EDGE('',*,*,#468,.T.);
#626=ORIENTED_EDGE('',*,*,#472,.T.);
#627=ORIENTED_EDGE('',*,*,#459,.T.);
#628=ORIENTED_EDGE('',*,*,#473,.T.);
#629=ORIENTED_EDGE('',*,*,#474,.F.);
#630=ORIENTED_EDGE('',*,*,#475,.F.);
#631=ORIENTED_EDGE('',*,*,#476,.F.);
#632=ORIENTED_EDGE('',*,*,#466,.T.);
#633=ORIENTED_EDGE('',*,*,#477,.T.);
#634=ORIENTED_EDGE('',*,*,#475,.T.);
#635=ORIENTED_EDGE('',*,*,#478,.T.);
#636=ORIENTED_EDGE('',*,*,#463,.T.);
#637=ORIENTED_EDGE('',*,*,#479,.T.);
#638=ORIENTED_EDGE('',*,*,#476,.T.);
#639=ORIENTED_EDGE('',*,*,#480,.T.);
#640=ORIENTED_EDGE('',*,*,#481,.T.);
#641=ORIENTED_EDGE('',*,*,#482,.T.);
#642=ORIENTED_EDGE('',*,*,#474,.T.);
#643=ORIENTED_EDGE('',*,*,#483,.T.);
#644=ORIENTED_EDGE('',*,*,#458,.T.);
#645=ORIENTED_EDGE('',*,*,#484,.T.);
#646=ORIENTED_EDGE('',*,*,#450,.T.);
#647=ORIENTED_EDGE('',*,*,#485,.T.);
#648=ORIENTED_EDGE('',*,*,#486,.T.);
#649=ORIENTED_EDGE('',*,*,#487,.T.);
#650=ORIENTED_EDGE('',*,*,#456,.T.);
#651=ORIENTED_EDGE('',*,*,#488,.T.);
#652=ORIENTED_EDGE('',*,*,#489,.T.);
#653=ORIENTED_EDGE('',*,*,#490,.T.);
#654=ORIENTED_EDGE('',*,*,#452,.T.);
#655=ORIENTED_EDGE('',*,*,#491,.T.);
#656=ORIENTED_EDGE('',*,*,#442,.T.);
#657=ORIENTED_EDGE('',*,*,#492,.T.);
#658=ORIENTED_EDGE('',*,*,#451,.T.);
#659=ORIENTED_EDGE('',*,*,#493,.T.);
#660=ORIENTED_EDGE('',*,*,#494,.T.);
#661=ORIENTED_EDGE('',*,*,#495,.T.);
#662=ORIENTED_EDGE('',*,*,#449,.T.);
#663=ORIENTED_EDGE('',*,*,#496,.T.);
#664=ORIENTED_EDGE('',*,*,#497,.T.);
#665=ORIENTED_EDGE('',*,*,#498,.T.);
#666=ORIENTED_EDGE('',*,*,#445,.T.);
#667=ORIENTED_EDGE('',*,*,#499,.T.);
#668=ORIENTED_EDGE('',*,*,#429,.T.);
#669=ORIENTED_EDGE('',*,*,#500,.T.);
#670=ORIENTED_EDGE('',*,*,#427,.T.);
#671=ORIENTED_EDGE('',*,*,#501,.T.);
#672=ORIENTED_EDGE('',*,*,#502,.T.);
#673=ORIENTED_EDGE('',*,*,#503,.T.);
#674=ORIENTED_EDGE('',*,*,#426,.T.);
#675=ORIENTED_EDGE('',*,*,#504,.T.);
#676=ORIENTED_EDGE('',*,*,#491,.F.);
#677=ORIENTED_EDGE('',*,*,#461,.F.);
#678=ORIENTED_EDGE('',*,*,#472,.F.);
#679=ORIENTED_EDGE('',*,*,#470,.F.);
#680=ORIENTED_EDGE('',*,*,#505,.T.);
#681=ORIENTED_EDGE('',*,*,#471,.F.);
#682=ORIENTED_EDGE('',*,*,#478,.F.);
#683=ORIENTED_EDGE('',*,*,#482,.F.);
#684=ORIENTED_EDGE('',*,*,#506,.F.);
#685=ORIENTED_EDGE('',*,*,#483,.F.);
#686=ORIENTED_EDGE('',*,*,#479,.F.);
#687=ORIENTED_EDGE('',*,*,#464,.F.);
#688=ORIENTED_EDGE('',*,*,#487,.F.);
#689=ORIENTED_EDGE('',*,*,#507,.T.);
#690=ORIENTED_EDGE('',*,*,#489,.F.);
#691=ORIENTED_EDGE('',*,*,#505,.F.);
#692=ORIENTED_EDGE('',*,*,#469,.F.);
#693=ORIENTED_EDGE('',*,*,#506,.T.);
#694=ORIENTED_EDGE('',*,*,#481,.F.);
#695=ORIENTED_EDGE('',*,*,#507,.F.);
#696=ORIENTED_EDGE('',*,*,#486,.F.);
#697=ORIENTED_EDGE('',*,*,#508,.T.);
#698=ORIENTED_EDGE('',*,*,#494,.F.);
#699=ORIENTED_EDGE('',*,*,#509,.F.);
#700=ORIENTED_EDGE('',*,*,#432,.F.);
#701=ORIENTED_EDGE('',*,*,#510,.T.);
#702=ORIENTED_EDGE('',*,*,#502,.F.);
#703=ORIENTED_EDGE('',*,*,#511,.F.);
#704=ORIENTED_EDGE('',*,*,#497,.F.);
#705=ORIENTED_EDGE('',*,*,#512,.T.);
#706=ORIENTED_EDGE('',*,*,#513,.T.);
#707=ORIENTED_EDGE('',*,*,#488,.F.);
#708=ORIENTED_EDGE('',*,*,#485,.F.);
#709=ORIENTED_EDGE('',*,*,#495,.F.);
#710=ORIENTED_EDGE('',*,*,#508,.F.);
#711=ORIENTED_EDGE('',*,*,#421,.F.);
#712=ORIENTED_EDGE('',*,*,#480,.F.);
#713=ORIENTED_EDGE('',*,*,#477,.F.);
#714=ORIENTED_EDGE('',*,*,#473,.F.);
#715=ORIENTED_EDGE('',*,*,#417,.F.);
#716=ORIENTED_EDGE('',*,*,#439,.F.);
#717=ORIENTED_EDGE('',*,*,#500,.F.);
#718=ORIENTED_EDGE('',*,*,#444,.F.);
#719=ORIENTED_EDGE('',*,*,#423,.F.);
#720=ORIENTED_EDGE('',*,*,#440,.F.);
#721=ORIENTED_EDGE('',*,*,#490,.F.);
#722=ORIENTED_EDGE('',*,*,#512,.F.);
#723=ORIENTED_EDGE('',*,*,#499,.F.);
#724=ORIENTED_EDGE('',*,*,#455,.F.);
#725=ORIENTED_EDGE('',*,*,#498,.F.);
#726=ORIENTED_EDGE('',*,*,#511,.T.);
#727=ORIENTED_EDGE('',*,*,#504,.F.);
#728=ORIENTED_EDGE('',*,*,#438,.F.);
#729=ORIENTED_EDGE('',*,*,#448,.F.);
#730=ORIENTED_EDGE('',*,*,#433,.F.);
#731=ORIENTED_EDGE('',*,*,#509,.T.);
#732=ORIENTED_EDGE('',*,*,#496,.F.);
#733=ORIENTED_EDGE('',*,*,#492,.F.);
#734=ORIENTED_EDGE('',*,*,#443,.F.);
#735=ORIENTED_EDGE('',*,*,#419,.F.);
#736=ORIENTED_EDGE('',*,*,#400,.T.);
#737=ORIENTED_EDGE('',*,*,#425,.F.);
#738=ORIENTED_EDGE('',*,*,#493,.F.);
#739=ORIENTED_EDGE('',*,*,#484,.F.);
#740=ORIENTED_EDGE('',*,*,#465,.F.);
#741=ORIENTED_EDGE('',*,*,#514,.F.);
#742=ORIENTED_EDGE('',*,*,#514,.T.);
#743=ORIENTED_EDGE('',*,*,#515,.T.);
#744=ORIENTED_EDGE('',*,*,#513,.F.);
#745=ORIENTED_EDGE('',*,*,#515,.F.);
#746=ORIENTED_EDGE('',*,*,#503,.F.);
#747=ORIENTED_EDGE('',*,*,#510,.F.);
#748=ORIENTED_EDGE('',*,*,#434,.F.);
#749=ORIENTED_EDGE('',*,*,#501,.F.);
#750=CYLINDRICAL_SURFACE('',#845,0.75);
#751=CYLINDRICAL_SURFACE('',#851,0.75);
#752=CYLINDRICAL_SURFACE('',#854,0.75);
#753=CYLINDRICAL_SURFACE('',#856,0.75);
#754=CYLINDRICAL_SURFACE('',#867,0.75);
#755=CYLINDRICAL_SURFACE('',#873,0.75);
#756=CYLINDRICAL_SURFACE('',#874,0.75);
#757=CYLINDRICAL_SURFACE('',#878,0.75);
#758=CYLINDRICAL_SURFACE('',#883,0.75);
#759=CYLINDRICAL_SURFACE('',#892,0.75);
#760=CYLINDRICAL_SURFACE('',#900,0.75);
#761=CYLINDRICAL_SURFACE('',#904,0.75);
#762=CYLINDRICAL_SURFACE('',#909,0.75);
#763=CYLINDRICAL_SURFACE('',#911,0.75);
#764=CYLINDRICAL_SURFACE('',#916,0.75);
#765=CYLINDRICAL_SURFACE('',#917,0.75);
#766=CYLINDRICAL_SURFACE('',#918,0.75);
#767=CYLINDRICAL_SURFACE('',#920,0.75);
#768=CYLINDRICAL_SURFACE('',#921,0.75);
#769=CYLINDRICAL_SURFACE('',#923,0.75);
#770=CYLINDRICAL_SURFACE('',#925,0.75);
#771=CYLINDRICAL_SURFACE('',#926,0.75);
#772=CYLINDRICAL_SURFACE('',#928,0.75);
#773=CYLINDRICAL_SURFACE('',#930,0.75);
#774=CYLINDRICAL_SURFACE('',#931,0.75);
#775=CYLINDRICAL_SURFACE('',#947,2.35);
#776=ADVANCED_FACE('',(#58),#750,.T.);
#777=ADVANCED_FACE('',(#59),#56,.F.);
#778=ADVANCED_FACE('',(#60),#57,.F.);
#779=ADVANCED_FACE('',(#61),#32,.T.);
#780=ADVANCED_FACE('',(#62),#751,.T.);
#781=ADVANCED_FACE('',(#63),#752,.T.);
#782=ADVANCED_FACE('',(#64),#753,.T.);
#783=ADVANCED_FACE('',(#65),#20,.T.);
#784=ADVANCED_FACE('',(#66),#21,.T.);
#785=ADVANCED_FACE('',(#67),#754,.T.);
#786=ADVANCED_FACE('',(#68),#22,.T.);
#787=ADVANCED_FACE('',(#69),#755,.T.);
#788=ADVANCED_FACE('',(#70),#756,.T.);
#789=ADVANCED_FACE('',(#71),#23,.T.);
#790=ADVANCED_FACE('',(#72),#757,.T.);
#791=ADVANCED_FACE('',(#73),#24,.T.);
#792=ADVANCED_FACE('',(#74),#758,.T.);
#793=ADVANCED_FACE('',(#75),#25,.T.);
#794=ADVANCED_FACE('',(#76),#26,.T.);
#795=ADVANCED_FACE('',(#77),#759,.T.);
#796=ADVANCED_FACE('',(#78),#27,.T.);
#797=ADVANCED_FACE('',(#79),#28,.T.);
#798=ADVANCED_FACE('',(#80),#760,.T.);
#799=ADVANCED_FACE('',(#81),#29,.T.);
#800=ADVANCED_FACE('',(#82),#761,.T.);
#801=ADVANCED_FACE('',(#83),#30,.T.);
#802=ADVANCED_FACE('',(#84),#762,.T.);
#803=ADVANCED_FACE('',(#85),#763,.T.);
#804=ADVANCED_FACE('',(#86),#31,.T.);
#805=ADVANCED_FACE('',(#87),#764,.T.);
#806=ADVANCED_FACE('',(#88),#765,.T.);
#807=ADVANCED_FACE('',(#89),#766,.T.);
#808=ADVANCED_FACE('',(#90),#767,.T.);
#809=ADVANCED_FACE('',(#91),#768,.T.);
#810=ADVANCED_FACE('',(#92),#769,.T.);
#811=ADVANCED_FACE('',(#93),#770,.T.);
#812=ADVANCED_FACE('',(#94),#771,.T.);
#813=ADVANCED_FACE('',(#95),#772,.T.);
#814=ADVANCED_FACE('',(#96),#773,.T.);
#815=ADVANCED_FACE('',(#97),#774,.T.);
#816=ADVANCED_FACE('',(#98),#33,.T.);
#817=ADVANCED_FACE('',(#99),#34,.T.);
#818=ADVANCED_FACE('',(#100),#35,.T.);
#819=ADVANCED_FACE('',(#101,#19),#36,.F.);
#820=ADVANCED_FACE('',(#102),#37,.T.);
#821=ADVANCED_FACE('',(#103),#38,.T.);
#822=ADVANCED_FACE('',(#104),#39,.T.);
#823=ADVANCED_FACE('',(#105),#40,.T.);
#824=ADVANCED_FACE('',(#106),#41,.T.);
#825=ADVANCED_FACE('',(#107),#42,.T.);
#826=ADVANCED_FACE('',(#108),#43,.T.);
#827=ADVANCED_FACE('',(#109),#44,.F.);
#828=ADVANCED_FACE('',(#110),#775,.F.);
#829=ADVANCED_FACE('',(#111),#45,.T.);
#830=CLOSED_SHELL('',(#776,#777,#778,#779,#780,#781,#782,#783,#784,#785,
#786,#787,#788,#789,#790,#791,#792,#793,#794,#795,#796,#797,#798,#799,#800,
#801,#802,#803,#804,#805,#806,#807,#808,#809,#810,#811,#812,#813,#814,#815,
#816,#817,#818,#819,#820,#821,#822,#823,#824,#825,#826,#827,#828,#829));
#831=DERIVED_UNIT_ELEMENT(#833,1.);
#832=DERIVED_UNIT_ELEMENT(#1536,-3.);
#833=(
MASS_UNIT()
NAMED_UNIT(*)
SI_UNIT(.KILO.,.GRAM.)
);
#834=DERIVED_UNIT((#831,#832));
#835=MEASURE_REPRESENTATION_ITEM('density measure',
POSITIVE_RATIO_MEASURE(7850.),#834);
#836=PROPERTY_DEFINITION_REPRESENTATION(#841,#838);
#837=PROPERTY_DEFINITION_REPRESENTATION(#842,#839);
#838=REPRESENTATION('material name',(#840),#1533);
#839=REPRESENTATION('density',(#835),#1533);
#840=DESCRIPTIVE_REPRESENTATION_ITEM('Steel','Steel');
#841=PROPERTY_DEFINITION('material property','material name',#1548);
#842=PROPERTY_DEFINITION('material property','density of part',#1548);
#843=AXIS2_PLACEMENT_3D('',#1223,#950,#951);
#844=AXIS2_PLACEMENT_3D('',#1224,#952,#953);
#845=AXIS2_PLACEMENT_3D('',#1225,#954,#955);
#846=AXIS2_PLACEMENT_3D('',#1228,#956,#957);
#847=AXIS2_PLACEMENT_3D('',#1232,#959,#960);
#848=AXIS2_PLACEMENT_3D('',#1260,#962,#963);
#849=AXIS2_PLACEMENT_3D('',#1311,#964,#965);
#850=AXIS2_PLACEMENT_3D('',#1316,#966,#967);
#851=AXIS2_PLACEMENT_3D('',#1326,#973,#974);
#852=AXIS2_PLACEMENT_3D('',#1328,#975,#976);
#853=AXIS2_PLACEMENT_3D('',#1331,#978,#979);
#854=AXIS2_PLACEMENT_3D('',#1332,#980,#981);
#855=AXIS2_PLACEMENT_3D('',#1336,#983,#984);
#856=AXIS2_PLACEMENT_3D('',#1338,#986,#987);
#857=AXIS2_PLACEMENT_3D('',#1340,#988,#989);
#858=AXIS2_PLACEMENT_3D('',#1344,#991,#992);
#859=AXIS2_PLACEMENT_3D('',#1346,#994,#995);
#860=AXIS2_PLACEMENT_3D('',#1349,#996,#997);
#861=AXIS2_PLACEMENT_3D('',#1351,#998,#999);
#862=AXIS2_PLACEMENT_3D('',#1352,#1000,#1001);
#863=AXIS2_PLACEMENT_3D('',#1353,#1002,#1003);
#864=AXIS2_PLACEMENT_3D('',#1356,#1004,#1005);
#865=AXIS2_PLACEMENT_3D('',#1358,#1006,#1007);
#866=AXIS2_PLACEMENT_3D('',#1359,#1008,#1009);
#867=AXIS2_PLACEMENT_3D('',#1360,#1010,#1011);
#868=AXIS2_PLACEMENT_3D('',#1363,#1012,#1013);
#869=AXIS2_PLACEMENT_3D('',#1366,#1016,#1017);
#870=AXIS2_PLACEMENT_3D('',#1368,#1018,#1019);
#871=AXIS2_PLACEMENT_3D('',#1370,#1020,#1021);
#872=AXIS2_PLACEMENT_3D('',#1371,#1022,#1023);
#873=AXIS2_PLACEMENT_3D('',#1372,#1024,#1025);
#874=AXIS2_PLACEMENT_3D('',#1375,#1028,#1029);
#875=AXIS2_PLACEMENT_3D('',#1377,#1031,#1032);
#876=AXIS2_PLACEMENT_3D('',#1379,#1033,#1034);
#877=AXIS2_PLACEMENT_3D('',#1380,#1035,#1036);
#878=AXIS2_PLACEMENT_3D('',#1381,#1037,#1038);
#879=AXIS2_PLACEMENT_3D('',#1384,#1041,#1042);
#880=AXIS2_PLACEMENT_3D('',#1387,#1043,#1044);
#881=AXIS2_PLACEMENT_3D('',#1388,#1045,#1046);
#882=AXIS2_PLACEMENT_3D('',#1389,#1047,#1048);
#883=AXIS2_PLACEMENT_3D('',#1390,#1049,#1050);
#884=AXIS2_PLACEMENT_3D('',#1392,#1052,#1053);
#885=AXIS2_PLACEMENT_3D('',#1395,#1054,#1055);
#886=AXIS2_PLACEMENT_3D('',#1397,#1056,#1057);
#887=AXIS2_PLACEMENT_3D('',#1398,#1058,#1059);
#888=AXIS2_PLACEMENT_3D('',#1399,#1060,#1061);
#889=AXIS2_PLACEMENT_3D('',#1402,#1062,#1063);
#890=AXIS2_PLACEMENT_3D('',#1403,#1064,#1065);
#891=AXIS2_PLACEMENT_3D('',#1404,#1066,#1067);
#892=AXIS2_PLACEMENT_3D('',#1405,#1068,#1069);
#893=AXIS2_PLACEMENT_3D('',#1407,#1071,#1072);
#894=AXIS2_PLACEMENT_3D('',#1410,#1073,#1074);
#895=AXIS2_PLACEMENT_3D('',#1412,#1075,#1076);
#896=AXIS2_PLACEMENT_3D('',#1413,#1077,#1078);
#897=AXIS2_PLACEMENT_3D('',#1414,#1079,#1080);
#898=AXIS2_PLACEMENT_3D('',#1416,#1081,#1082);
#899=AXIS2_PLACEMENT_3D('',#1417,#1083,#1084);
#900=AXIS2_PLACEMENT_3D('',#1418,#1085,#1086);
#901=AXIS2_PLACEMENT_3D('',#1420,#1088,#1089);
#902=AXIS2_PLACEMENT_3D('',#1422,#1090,#1091);
#903=AXIS2_PLACEMENT_3D('',#1423,#1092,#1093);
#904=AXIS2_PLACEMENT_3D('',#1424,#1094,#1095);
#905=AXIS2_PLACEMENT_3D('',#1427,#1098,#1099);
#906=AXIS2_PLACEMENT_3D('',#1430,#1100,#1101);
#907=AXIS2_PLACEMENT_3D('',#1432,#1102,#1103);
#908=AXIS2_PLACEMENT_3D('',#1433,#1104,#1105);
#909=AXIS2_PLACEMENT_3D('',#1434,#1106,#1107);
#910=AXIS2_PLACEMENT_3D('',#1437,#1108,#1109);
#911=AXIS2_PLACEMENT_3D('',#1440,#1112,#1113);
#912=AXIS2_PLACEMENT_3D('',#1443,#1116,#1117);
#913=AXIS2_PLACEMENT_3D('',#1446,#1118,#1119);
#914=AXIS2_PLACEMENT_3D('',#1448,#1120,#1121);
#915=AXIS2_PLACEMENT_3D('',#1449,#1122,#1123);
#916=AXIS2_PLACEMENT_3D('',#1450,#1124,#1125);
#917=AXIS2_PLACEMENT_3D('',#1453,#1128,#1129);
#918=AXIS2_PLACEMENT_3D('',#1456,#1132,#1133);
#919=AXIS2_PLACEMENT_3D('',#1459,#1134,#1135);
#920=AXIS2_PLACEMENT_3D('',#1462,#1138,#1139);
#921=AXIS2_PLACEMENT_3D('',#1465,#1142,#1143);
#922=AXIS2_PLACEMENT_3D('',#1468,#1144,#1145);
#923=AXIS2_PLACEMENT_3D('',#1471,#1148,#1149);
#924=AXIS2_PLACEMENT_3D('',#1474,#1150,#1151);
#925=AXIS2_PLACEMENT_3D('',#1477,#1154,#1155);
#926=AXIS2_PLACEMENT_3D('',#1480,#1158,#1159);
#927=AXIS2_PLACEMENT_3D('',#1483,#1160,#1161);
#928=AXIS2_PLACEMENT_3D('',#1486,#1164,#1165);
#929=AXIS2_PLACEMENT_3D('',#1489,#1166,#1167);
#930=AXIS2_PLACEMENT_3D('',#1492,#1170,#1171);
#931=AXIS2_PLACEMENT_3D('',#1495,#1174,#1175);
#932=AXIS2_PLACEMENT_3D('',#1498,#1176,#1177);
#933=AXIS2_PLACEMENT_3D('',#1501,#1180,#1181);
#934=AXIS2_PLACEMENT_3D('',#1503,#1183,#1184);
#935=AXIS2_PLACEMENT_3D('',#1505,#1186,#1187);
#936=AXIS2_PLACEMENT_3D('',#1507,#1189,#1190);
#937=AXIS2_PLACEMENT_3D('',#1514,#1196,#1197);
#938=AXIS2_PLACEMENT_3D('',#1515,#1198,#1199);
#939=AXIS2_PLACEMENT_3D('',#1516,#1200,#1201);
#940=AXIS2_PLACEMENT_3D('',#1517,#1202,#1203);
#941=AXIS2_PLACEMENT_3D('',#1518,#1204,#1205);
#942=AXIS2_PLACEMENT_3D('',#1519,#1206,#1207);
#943=AXIS2_PLACEMENT_3D('',#1520,#1208,#1209);
#944=AXIS2_PLACEMENT_3D('',#1521,#1210,#1211);
#945=AXIS2_PLACEMENT_3D('',#1522,#1212,#1213);
#946=AXIS2_PLACEMENT_3D('',#1524,#1214,#1215);
#947=AXIS2_PLACEMENT_3D('',#1525,#1216,#1217);
#948=AXIS2_PLACEMENT_3D('',#1527,#1219,#1220);
#949=AXIS2_PLACEMENT_3D('',#1528,#1221,#1222);
#950=DIRECTION('axis',(0.,0.,1.));
#951=DIRECTION('refdir',(1.,0.,0.));
#952=DIRECTION('axis',(0.,0.,1.));
#953=DIRECTION('refdir',(1.,0.,0.));
#954=DIRECTION('center_axis',(-1.,-3.70051261289149E-14,-2.53764138416713E-12));
#955=DIRECTION('ref_axis',(2.51058433301902E-12,0.131441991019242,-0.99132386382902));
#956=DIRECTION('center_axis',(1.,5.35142162904979E-14,2.5396527209727E-12));
#957=DIRECTION('ref_axis',(2.54019028034235E-12,-0.0165266681866664,-0.999863425292999));
#958=DIRECTION('',(-1.,4.98052088946605E-15,2.49026044473303E-15));
#959=DIRECTION('center_axis',(-1.,-5.31721199155684E-14,-2.54558037371808E-12));
#960=DIRECTION('ref_axis',(2.5165055224538E-12,0.131441991017479,-0.991323863829254));
#961=DIRECTION('',(-1.,-3.70051261289149E-14,-2.53764138416713E-12));
#962=DIRECTION('center_axis',(0.,-0.447213595499958,0.894427190999916));
#963=DIRECTION('ref_axis',(-0.755592057516035,0.585887799919872,0.292943899959936));
#964=DIRECTION('center_axis',(0.,-0.447213595499958,0.894427190999916));
#965=DIRECTION('ref_axis',(0.755592057518639,0.585887799917186,0.292943899958593));
#966=DIRECTION('center_axis',(2.53790637797935E-12,-0.0165266681866624,
-0.999863425292999));
#967=DIRECTION('ref_axis',(-1.,0.,-2.53825303914446E-12));
#968=DIRECTION('',(-0.609540511527526,0.792646650752277,-0.0131015975346436));
#969=DIRECTION('',(0.715119023430617,0.698907239432734,-0.0115521857739334));
#970=DIRECTION('',(1.,4.91405788378367E-12,2.45702894189183E-12));
#971=DIRECTION('',(0.715119023430747,-0.698907239432541,0.0115521857775605));
#972=DIRECTION('',(-0.609540511527127,-0.792646650752635,0.0131015975315552));
#973=DIRECTION('center_axis',(0.609540511527526,-0.792646650752277,0.0131015975346436));
#974=DIRECTION('ref_axis',(0.239877067316226,0.168661711592238,-0.956039862986133));
#975=DIRECTION('center_axis',(-0.0795035062665977,-0.905703068502141,-0.416390614924403));
#976=DIRECTION('ref_axis',(-0.885770105463401,0.255798625708476,-0.38727042664398));
#977=DIRECTION('',(0.609540511527526,-0.792646650752277,0.0131015975346436));
#978=DIRECTION('center_axis',(0.609540511527511,-0.792646650752289,0.0131015975346354));
#979=DIRECTION('ref_axis',(0.457264160807162,0.338037002104001,-0.822581590147665));
#980=DIRECTION('center_axis',(0.715119023432084,0.410102595038143,0.566057103010398));
#981=DIRECTION('ref_axis',(0.243975694918149,0.612438058610651,-0.751927845377748));
#982=DIRECTION('',(0.715119023432084,0.410102595038143,0.566057103010398));
#983=DIRECTION('center_axis',(0.715119023432083,0.410102595038143,0.566057103010399));
#984=DIRECTION('ref_axis',(0.,0.809806741146397,-0.586696720626468));
#985=DIRECTION('',(-0.715119023432084,-0.410102595038143,-0.566057103010398));
#986=DIRECTION('center_axis',(-0.715119023429277,0.410102595039831,0.566057103012721));
#987=DIRECTION('ref_axis',(-0.243975694918309,0.612438058612088,-0.751927845376526));
#988=DIRECTION('center_axis',(0.0795035062645467,-0.905703068501009,-0.416390614927257));
#989=DIRECTION('ref_axis',(0.885770105463313,0.255798625708184,-0.387270426644375));
#990=DIRECTION('',(-0.715119023429277,0.410102595039831,0.566057103012721));
#991=DIRECTION('center_axis',(-0.715119023429264,0.410102595039849,0.566057103012724));
#992=DIRECTION('ref_axis',(-0.457264160807681,0.338037002107255,-0.82258159014604));
#993=DIRECTION('',(0.715119023429277,-0.410102595039831,-0.566057103012721));
#994=DIRECTION('center_axis',(0.,0.,1.));
#995=DIRECTION('ref_axis',(-0.996622716018741,-0.0821167578234085,0.));
#996=DIRECTION('center_axis',(-3.62664639539586E-15,0.447213595499964,-0.894427190999913));
#997=DIRECTION('ref_axis',(-0.989889781235508,-0.126864403220186,-0.0634322016100903));
#998=DIRECTION('center_axis',(0.141838714762639,-0.885384336429995,-0.442692168215003));
#999=DIRECTION('ref_axis',(-0.457264160807681,0.338037002107255,-0.82258159014604));
#1000=DIRECTION('center_axis',(-0.715119023430747,0.410102595037473,0.566057103012572));
#1001=DIRECTION('ref_axis',(-0.655042473902235,-0.675822081547527,-0.337911040773763));
#1002=DIRECTION('center_axis',(0.,0.,1.));
#1003=DIRECTION('ref_axis',(-0.964817482788648,0.26292056767278,0.));
#1004=DIRECTION('center_axis',(-0.14183871476264,0.885384336429989,0.442692168215015));
#1005=DIRECTION('ref_axis',(-0.989889781235508,-0.126864403220186,-0.0634322016100932));
#1006=DIRECTION('center_axis',(-4.59169325225466E-15,0.447213595499953,
-0.894427190999918));
#1007=DIRECTION('ref_axis',(-0.755592057516034,0.585887799919873,0.292943899959937));
#1008=DIRECTION('center_axis',(-0.609540511528861,-0.792646650751277,0.0131015975330755));
#1009=DIRECTION('ref_axis',(-0.457264160807681,0.338037002107255,-0.82258159014604));
#1010=DIRECTION('center_axis',(9.18338650450933E-18,-0.447213595499958,
0.894427190999916));
#1011=DIRECTION('ref_axis',(-0.959391275531357,0.252298839370005,0.126149419685006));
#1012=DIRECTION('center_axis',(0.,0.447213595499958,-0.894427190999916));
#1013=DIRECTION('ref_axis',(-0.959391275531357,0.252298839370005,0.126149419685006));
#1014=DIRECTION('',(-9.18338650450932E-18,0.447213595499958,-0.894427190999916));
#1015=DIRECTION('',(9.18338650450932E-18,-0.447213595499958,0.894427190999916));
#1016=DIRECTION('center_axis',(1.,0.,0.));
#1017=DIRECTION('ref_axis',(0.,-1.,0.));
#1018=DIRECTION('center_axis',(-0.715119023430747,0.698907239432541,-0.0115521857775649));
#1019=DIRECTION('ref_axis',(-0.655042473902235,-0.675822081547527,-0.337911040773762));
#1020=DIRECTION('center_axis',(0.71511902343075,-0.410102595037468,-0.566057103012571));
#1021=DIRECTION('ref_axis',(-0.457264160807681,0.338037002107255,-0.82258159014604));
#1022=DIRECTION('center_axis',(-0.609540511527131,-0.792646650752632,0.013101597531557));
#1023=DIRECTION('ref_axis',(2.54019028034236E-12,-0.0165266681866664,-0.999863425292999));
#1024=DIRECTION('center_axis',(0.715119023430747,-0.410102595037476,-0.56605710301257));
#1025=DIRECTION('ref_axis',(-0.677170586242214,-0.205643042242649,-0.706506147394037));
#1026=DIRECTION('',(-0.715119023430747,0.410102595037476,0.56605710301257));
#1027=DIRECTION('',(0.715119023430747,-0.410102595037476,-0.56605710301257));
#1028=DIRECTION('center_axis',(-0.609540511527127,-0.792646650752635,0.0131015975315552));
#1029=DIRECTION('ref_axis',(-0.239877067314099,0.168661711594126,-0.956039862986333));
#1030=DIRECTION('',(0.609540511527127,0.792646650752635,-0.0131015975315552));
#1031=DIRECTION('center_axis',(0.,0.,1.));
#1032=DIRECTION('ref_axis',(1.,0.,0.));
#1033=DIRECTION('center_axis',(0.609540511528869,0.79264665075127,-0.0131015975330833));
#1034=DIRECTION('ref_axis',(-0.755592057516032,0.585887799919876,0.292943899959935));
#1035=DIRECTION('center_axis',(-0.609540511528874,-0.465106712424298,-0.641978279120859));
#1036=DIRECTION('ref_axis',(0.,0.809806741146395,-0.586696720626472));
#1037=DIRECTION('center_axis',(-0.609540511528866,-0.792646650751272,0.0131015975330821));
#1038=DIRECTION('ref_axis',(-0.75143428702599,0.572424632357845,-0.328141055876474));
#1039=DIRECTION('',(0.609540511528866,0.792646650751272,-0.0131015975330821));
#1040=DIRECTION('',(-0.609540511528866,-0.792646650751272,0.0131015975330821));
#1041=DIRECTION('center_axis',(0.,0.,1.));
#1042=DIRECTION('ref_axis',(1.,0.,0.));
#1043=DIRECTION('center_axis',(2.53056056798417E-15,0.447213595499959,-0.894427190999915));
#1044=DIRECTION('ref_axis',(-0.655042473902238,-0.675822081547523,-0.337911040773765));
#1045=DIRECTION('center_axis',(0.715119023430741,-0.698907239432548,0.0115521857775651));
#1046=DIRECTION('ref_axis',(2.54019028034236E-12,-0.0165266681866664,-0.999863425292999));
#1047=DIRECTION('center_axis',(-1.,-4.9108000161363E-12,-2.4652890035326E-12));
#1048=DIRECTION('ref_axis',(5.49486382321146E-12,-0.894427190999917,-0.447213595499957));
#1049=DIRECTION('center_axis',(0.715119023430747,-0.698907239432541,0.0115521857775605));
#1050=DIRECTION('ref_axis',(-0.398788861112824,-0.421500865059416,-0.81443505880242));
#1051=DIRECTION('',(-0.715119023430747,0.698907239432541,-0.0115521857775605));
#1052=DIRECTION('center_axis',(0.,0.,1.));
#1053=DIRECTION('ref_axis',(1.,0.,0.));
#1054=DIRECTION('center_axis',(-9.33644294625123E-15,0.447213595499956,
-0.894427190999917));
#1055=DIRECTION('ref_axis',(5.92118946466748E-15,0.894427190999917,0.447213595499956));
#1056=DIRECTION('center_axis',(-1.,-3.91688721956791E-15,-5.40640771151628E-15));
#1057=DIRECTION('ref_axis',(0.,0.809806741146396,-0.58669672062647));
#1058=DIRECTION('center_axis',(0.609540511528867,0.465106712424297,0.641978279120867));
#1059=DIRECTION('ref_axis',(-0.755592057516034,0.585887799919873,0.292943899959937));
#1060=DIRECTION('center_axis',(0.,0.,1.));
#1061=DIRECTION('ref_axis',(1.,0.,0.));
#1062=DIRECTION('center_axis',(-3.00136253415351E-15,0.44721359549996,-0.894427190999915));
#1063=DIRECTION('ref_axis',(5.49486382321148E-12,-0.894427190999915,-0.44721359549996));
#1064=DIRECTION('center_axis',(1.,4.92046094875993E-12,2.459207320436E-12));
#1065=DIRECTION('ref_axis',(2.54019028034236E-12,-0.0165266681866664,-0.999863425292999));
#1066=DIRECTION('center_axis',(-0.715119023430611,-0.69890723943274,0.0115521857739347));
#1067=DIRECTION('ref_axis',(0.655042473903391,-0.675822081546628,-0.337911040773319));
#1068=DIRECTION('center_axis',(-1.,-4.91405788378367E-12,-2.45702894189183E-12));
#1069=DIRECTION('ref_axis',(4.70251061299194E-12,-0.532742613261136,-0.84627732334956));
#1070=DIRECTION('',(-1.,-4.91405788378367E-12,-2.45702894189183E-12));
#1071=DIRECTION('center_axis',(0.,0.,1.));
#1072=DIRECTION('ref_axis',(1.,0.,0.));
#1073=DIRECTION('center_axis',(3.52029816004978E-15,0.447213595499958,-0.894427190999916));
#1074=DIRECTION('ref_axis',(0.755592057518641,0.585887799917182,0.292943899958594));
#1075=DIRECTION('center_axis',(-0.609540511525794,0.465106712425686,0.641978279122779));
#1076=DIRECTION('ref_axis',(0.,0.809806741146396,-0.58669672062647));
#1077=DIRECTION('center_axis',(1.,-9.88823546491131E-15,6.53628877917061E-15));
#1078=DIRECTION('ref_axis',(5.92118946466748E-15,0.894427190999917,0.447213595499956));
#1079=DIRECTION('center_axis',(1.,0.,0.));
#1080=DIRECTION('ref_axis',(0.,-1.,0.));
#1081=DIRECTION('center_axis',(-0.715119023430617,-0.41010259504049,-0.56605710301055));
#1082=DIRECTION('ref_axis',(0.655042473903386,-0.675822081546634,-0.337911040773317));
#1083=DIRECTION('center_axis',(0.715119023430624,0.698907239432727,-0.0115521857739344));
#1084=DIRECTION('ref_axis',(2.54019028034236E-12,-0.0165266681866664,-0.999863425292999));
#1085=DIRECTION('center_axis',(0.715119023430617,0.698907239432734,-0.0115521857739334));
#1086=DIRECTION('ref_axis',(0.398788861116196,-0.421500865058431,-0.814435058801278));
#1087=DIRECTION('',(-0.715119023430617,-0.698907239432734,0.0115521857739334));
#1088=DIRECTION('center_axis',(0.,0.,1.));
#1089=DIRECTION('ref_axis',(1.,0.,0.));
#1090=DIRECTION('center_axis',(0.609540511525789,-0.465106712425688,-0.641978279122781));
#1091=DIRECTION('ref_axis',(0.755592057518639,0.585887799917185,0.292943899958593));
#1092=DIRECTION('center_axis',(-0.609540511525788,0.792646650753639,-0.0131015975331228));
#1093=DIRECTION('ref_axis',(0.457264160807162,0.338037002104,-0.822581590147666));
#1094=DIRECTION('center_axis',(-0.609540511525788,0.46510671242569,0.641978279122781));
#1095=DIRECTION('ref_axis',(0.468132801272225,0.864713159339071,-0.181996792386187));
#1096=DIRECTION('',(0.609540511525788,-0.46510671242569,-0.641978279122781));
#1097=DIRECTION('',(-0.609540511525788,0.46510671242569,0.641978279122781));
#1098=DIRECTION('center_axis',(0.,0.,1.));
#1099=DIRECTION('ref_axis',(1.,0.,0.));
#1100=DIRECTION('center_axis',(-0.141838714770494,-0.885384336428987,-0.442692168214501));
#1101=DIRECTION('ref_axis',(0.989889781234383,-0.12686440322721,-0.0634322016136078));
#1102=DIRECTION('center_axis',(9.16592577832168E-15,0.447213595499965,-0.894427190999912));
#1103=DIRECTION('ref_axis',(0.655042473903386,-0.675822081546634,-0.337911040773317));
#1104=DIRECTION('center_axis',(0.715119023430622,0.410102595040489,0.566057103010545));
#1105=DIRECTION('ref_axis',(0.457264160807158,0.338037002104002,-0.822581590147667));
#1106=DIRECTION('center_axis',(1.05930442381888E-17,-0.447213595499958,
0.894427190999916));
#1107=DIRECTION('ref_axis',(0.877851822593784,-0.428370099394223,-0.214185049697112));
#1108=DIRECTION('center_axis',(0.,0.447213595499958,-0.894427190999916));
#1109=DIRECTION('ref_axis',(0.877851822593784,-0.428370099394223,-0.214185049697112));
#1110=DIRECTION('',(-1.05930442381888E-17,0.447213595499958,-0.894427190999916));
#1111=DIRECTION('',(3.72430406964145E-18,-0.447213595499958,0.894427190999916));
#1112=DIRECTION('center_axis',(0.715119023430617,0.410102595040493,0.566057103010548));
#1113=DIRECTION('ref_axis',(0.677170586241878,-0.205643042243873,-0.706506147394002));
#1114=DIRECTION('',(-0.715119023430617,-0.410102595040493,-0.566057103010548));
#1115=DIRECTION('',(0.715119023430617,0.410102595040493,0.566057103010548));
#1116=DIRECTION('center_axis',(0.,0.,1.));
#1117=DIRECTION('ref_axis',(1.,0.,0.));
#1118=DIRECTION('center_axis',(-3.29071349743791E-15,0.447213595499954,
-0.894427190999918));
#1119=DIRECTION('ref_axis',(0.989889781234383,-0.12686440322721,-0.0634322016136078));
#1120=DIRECTION('center_axis',(0.141838714770494,0.885384336428994,0.442692168214488));
#1121=DIRECTION('ref_axis',(0.45726416080716,0.338037002103999,-0.822581590147667));
#1122=DIRECTION('center_axis',(0.609540511525788,-0.792646650753639,0.0131015975331228));
#1123=DIRECTION('ref_axis',(0.75559205751864,0.585887799917186,0.29294389995859));
#1124=DIRECTION('center_axis',(-0.141838714770499,-0.88538433642899,-0.442692168214495));
#1125=DIRECTION('ref_axis',(0.846322308314029,0.123497629479523,-0.518157201979237));
#1126=DIRECTION('',(0.141838714770499,0.88538433642899,0.442692168214495));
#1127=DIRECTION('',(-0.141838714770499,-0.88538433642899,-0.442692168214495));
#1128=DIRECTION('center_axis',(-0.609540511525788,0.792646650753639,-0.0131015975331175));
#1129=DIRECTION('ref_axis',(0.751434287027687,0.572424632354465,-0.328141055878486));
#1130=DIRECTION('',(0.609540511525788,-0.792646650753639,0.0131015975331175));
#1131=DIRECTION('',(-0.609540511525788,0.792646650753639,-0.0131015975331174));
#1132=DIRECTION('center_axis',(0.,0.447213595499958,-0.894427190999916));
#1133=DIRECTION('ref_axis',(0.959391275533037,0.252298839364897,0.126149419682451));
#1134=DIRECTION('center_axis',(0.,0.447213595499958,-0.894427190999916));
#1135=DIRECTION('ref_axis',(0.959391275533037,0.252298839364897,0.126149419682451));
#1136=DIRECTION('',(6.86874016854731E-18,0.447213595499958,-0.894427190999916));
#1137=DIRECTION('',(4.19437849740545E-17,-0.447213595499958,0.894427190999916));
#1138=DIRECTION('center_axis',(1.,-4.98052088946605E-15,-2.49026044473303E-15));
#1139=DIRECTION('ref_axis',(6.92564155079814E-15,0.996667426636329,-0.0815723034008341));
#1140=DIRECTION('',(-1.,4.98052088946605E-15,2.49026044473302E-15));
#1141=DIRECTION('',(1.,-4.98052088946605E-15,-2.49026044473303E-15));
#1142=DIRECTION('center_axis',(7.3467092035822E-17,-0.447213595499958,0.894427190999916));
#1143=DIRECTION('ref_axis',(0.415305626074756,0.813644264749973,0.406822132374986));
#1144=DIRECTION('center_axis',(0.,0.447213595499958,-0.894427190999916));
#1145=DIRECTION('ref_axis',(0.415305626074756,0.813644264749973,0.406822132374986));
#1146=DIRECTION('',(-3.15233070617675E-17,0.447213595499958,-0.894427190999916));
#1147=DIRECTION('',(7.34670920358217E-17,-0.447213595499958,0.894427190999916));
#1148=DIRECTION('center_axis',(0.,0.447213595499958,-0.894427190999916));
#1149=DIRECTION('ref_axis',(0.34957684597722,-0.837995717772648,-0.418997858886324));
#1150=DIRECTION('center_axis',(0.,0.447213595499958,-0.894427190999916));
#1151=DIRECTION('ref_axis',(0.34957684597722,-0.837995717772648,-0.418997858886324));
#1152=DIRECTION('',(3.04982913188174E-28,0.447213595499958,-0.894427190999916));
#1153=DIRECTION('',(-3.63621618317482E-17,-0.447213595499958,0.894427190999916));
#1154=DIRECTION('center_axis',(-0.609540511528866,-0.465106712424299,-0.641978279120866));
#1155=DIRECTION('ref_axis',(-0.468132801270364,0.864713159340274,-0.181996792385259));
#1156=DIRECTION('',(0.609540511528866,0.465106712424299,0.641978279120866));
#1157=DIRECTION('',(-0.609540511528866,-0.465106712424299,-0.641978279120866));
#1158=DIRECTION('center_axis',(-7.34670920360747E-17,0.447213595499958,
-0.894427190999916));
#1159=DIRECTION('ref_axis',(-0.415305626072935,0.813644264750718,0.406822132375356));
#1160=DIRECTION('center_axis',(0.,0.447213595499958,-0.894427190999916));
#1161=DIRECTION('ref_axis',(-0.415305626072935,0.813644264750718,0.406822132375356));
#1162=DIRECTION('',(-7.34670920360744E-17,0.447213595499958,-0.894427190999916));
#1163=DIRECTION('',(1.15410877009985E-16,-0.447213595499958,0.894427190999916));
#1164=DIRECTION('center_axis',(-8.47443539045851E-17,-0.447213595499958,
0.894427190999916));
#1165=DIRECTION('ref_axis',(-0.349576845971358,-0.837995717774604,-0.418997858887302));
#1166=DIRECTION('center_axis',(0.,0.447213595499958,-0.894427190999916));
#1167=DIRECTION('ref_axis',(-0.349576845971358,-0.837995717774604,-0.418997858887302));
#1168=DIRECTION('',(4.83821920729008E-17,0.447213595499958,-0.894427190999916));
#1169=DIRECTION('',(-8.474435390489E-17,-0.447213595499958,0.894427190999916));
#1170=DIRECTION('center_axis',(-0.141838714762636,0.885384336429997,0.442692168214999));
#1171=DIRECTION('ref_axis',(-0.846322308314994,0.123497629485534,-0.518157201976229));
#1172=DIRECTION('',(0.141838714762636,-0.885384336429997,-0.442692168214999));
#1173=DIRECTION('',(-0.141838714762636,0.885384336429997,0.442692168214999));
#1174=DIRECTION('center_axis',(-1.05930442380731E-17,0.447213595499958,
-0.894427190999916));
#1175=DIRECTION('ref_axis',(-0.877851822595326,-0.428370099391695,-0.214185049695848));
#1176=DIRECTION('center_axis',(0.,0.447213595499958,-0.894427190999916));
#1177=DIRECTION('ref_axis',(-0.877851822595326,-0.428370099391695,-0.214185049695848));
#1178=DIRECTION('',(-3.72430406951798E-18,0.447213595499958,-0.894427190999916));
#1179=DIRECTION('',(1.05930442380731E-17,-0.447213595499958,0.894427190999916));
#1180=DIRECTION('center_axis',(0.655042473903387,-0.675822081546634,-0.337911040773317));
#1181=DIRECTION('ref_axis',(-0.45845499937481,0.,-0.888717623066091));
#1182=DIRECTION('',(-0.75559205751684,-0.585887799919042,-0.292943899959521));
#1183=DIRECTION('center_axis',(0.989889781234382,-0.126864403227215,-0.0634322016136077));
#1184=DIRECTION('ref_axis',(-0.141838714770499,-0.88538433642899,-0.442692168214495));
#1185=DIRECTION('',(0.141838714770499,0.88538433642899,0.442692168214495));
#1186=DIRECTION('center_axis',(0.755592057518641,0.585887799917184,0.292943899958592));
#1187=DIRECTION('ref_axis',(0.361484114822525,0.,-0.932378268049495));
#1188=DIRECTION('',(0.655042473901309,-0.675822081548244,-0.337911040774122));
#1189=DIRECTION('center_axis',(0.,0.447213595499958,-0.894427190999916));
#1190=DIRECTION('ref_axis',(-1.,0.,0.));
#1191=DIRECTION('',(-1.,4.98052088946605E-15,2.49026044473302E-15));
#1192=DIRECTION('',(0.655042473904315,0.675822081545914,0.337911040772957));
#1193=DIRECTION('',(0.141838714762636,-0.885384336429997,-0.442692168214999));
#1194=DIRECTION('',(-0.755592057517837,0.585887799918013,0.292943899959007));
#1195=DIRECTION('',(1.,4.91405788378367E-12,2.45702894189183E-12));
#1196=DIRECTION('center_axis',(0.,-0.447213595499958,0.894427190999916));
#1197=DIRECTION('ref_axis',(-1.,0.,0.));
#1198=DIRECTION('center_axis',(5.5683916361019E-15,0.894427190999916,0.447213595499958));
#1199=DIRECTION('ref_axis',(1.,-4.98052088946605E-15,-2.49026044473302E-15));
#1200=DIRECTION('center_axis',(0.45726416080716,0.338037002104004,-0.822581590147665));
#1201=DIRECTION('ref_axis',(-0.874033475950444,0.,-0.485865704611866));
#1202=DIRECTION('center_axis',(-0.45726416080768,0.338037002107253,-0.822581590146041));
#1203=DIRECTION('ref_axis',(-0.874033475949802,0.,0.485865704613021));
#1204=DIRECTION('center_axis',(5.49408373675452E-12,-0.894427190999916,
-0.447213595499958));
#1205=DIRECTION('ref_axis',(-1.,-4.91405788378367E-12,-2.45702894189183E-12));
#1206=DIRECTION('center_axis',(-0.655042473902236,-0.675822081547526,-0.337911040773763));
#1207=DIRECTION('ref_axis',(-0.458454999375924,0.,0.888717623065517));
#1208=DIRECTION('center_axis',(-0.755592057516035,0.585887799919873,0.292943899959936));
#1209=DIRECTION('ref_axis',(0.361484114825051,0.,0.932378268048516));
#1210=DIRECTION('center_axis',(2.57223175427937E-15,0.809806741146396,-0.58669672062647));
#1211=DIRECTION('ref_axis',(-1.,0.,-4.38426134636096E-15));
#1212=DIRECTION('center_axis',(0.,0.447213595499958,-0.894427190999916));
#1213=DIRECTION('ref_axis',(-1.,0.,0.));
#1214=DIRECTION('center_axis',(0.,-0.447213595499958,0.894427190999916));
#1215=DIRECTION('ref_axis',(-1.,0.,0.));
#1216=DIRECTION('center_axis',(0.,-0.447213595499958,0.894427190999916));
#1217=DIRECTION('ref_axis',(-1.,0.,0.));
#1218=DIRECTION('',(0.,-0.447213595499958,0.894427190999916));
#1219=DIRECTION('center_axis',(-0.989889781235509,-0.126864403220183,-0.0634322016100913));
#1220=DIRECTION('ref_axis',(-0.141838714762636,0.885384336429997,0.442692168214999));
#1221=DIRECTION('',(0.,0.,1.));
#1222=DIRECTION('',(1.,0.,0.));
#1223=CARTESIAN_POINT('',(0.,0.,0.));
#1224=CARTESIAN_POINT('',(0.,0.,0.));
#1225=CARTESIAN_POINT('Origin',(-32.7913127503651,43.8091590425564,9.87112517002711));
#1226=CARTESIAN_POINT('',(-30.7535508419234,43.7967640414165,9.12122760106253));
#1227=CARTESIAN_POINT('',(-30.7535508419234,43.9077405358208,9.12763227215534));
#1228=CARTESIAN_POINT('Origin',(-30.7535508419253,43.8091590425565,9.87112517003228));
#1229=CARTESIAN_POINT('',(-29.2464492400474,43.9077405358208,9.12763227215534));
#1230=CARTESIAN_POINT('',(-32.7913127503632,43.9077405358208,9.12763227215535));
#1231=CARTESIAN_POINT('',(-29.2464492400474,43.7967640414165,9.12122760106636));
#1232=CARTESIAN_POINT('Origin',(-29.2464492400493,43.8091590425565,9.87112517003611));
#1233=CARTESIAN_POINT('',(-32.7913127503632,43.7967640414164,9.12122760105736));
#1234=CARTESIAN_POINT('Ctrl Pts',(-30.8667428834291,43.8981879459835,9.12285468547074));
#1235=CARTESIAN_POINT('Ctrl Pts',(-30.8667399045554,43.8981852768117,9.12285464265078));
#1236=CARTESIAN_POINT('Ctrl Pts',(-30.8328873885809,43.9046993108109,9.12611165965039));
#1237=CARTESIAN_POINT('Ctrl Pts',(-30.7806817923232,43.9077405358208,9.12763227215534));
#1238=CARTESIAN_POINT('Ctrl Pts',(-30.7535508419234,43.9077405358208,9.12763227215534));
#1239=CARTESIAN_POINT('Ctrl Pts',(-30.889722736694,43.89392478768,9.12072439808494));
#1240=CARTESIAN_POINT('Ctrl Pts',(-30.8875431029118,43.8820689638321,9.12092036211549));
#1241=CARTESIAN_POINT('Ctrl Pts',(-30.8426029511563,43.871055700728,9.12222798741903));
#1242=CARTESIAN_POINT('Ctrl Pts',(-30.7837751227468,43.8709745959246,9.1227573886624));
#1243=CARTESIAN_POINT('Ctrl Pts',(-30.7535508419228,43.8709745959248,9.12275738866245));
#1244=CARTESIAN_POINT('Ctrl Pts',(-30.9128072022858,43.8896637611026,9.11969206850534));
#1245=CARTESIAN_POINT('Ctrl Pts',(-30.9084382949378,43.8658996791049,9.12008486324911));
#1246=CARTESIAN_POINT('Ctrl Pts',(-30.852435730467,43.837184046919,9.12055952607169));
#1247=CARTESIAN_POINT('Ctrl Pts',(-30.78690279193,43.8338466941938,9.12061466465291));
#1248=CARTESIAN_POINT('Ctrl Pts',(-30.7535508419221,43.8338466941942,9.12061466465298));
#1249=CARTESIAN_POINT('Ctrl Pts',(-30.935891697757,43.8854209514893,9.11976219758979));
#1250=CARTESIAN_POINT('Ctrl Pts',(-30.9293335136092,43.8497485937502,9.12035182333756));
#1251=CARTESIAN_POINT('Ctrl Pts',(-30.8622685921414,43.8033491009664,9.12111875710276));
#1252=CARTESIAN_POINT('Ctrl Pts',(-30.790030489902,43.7967640414505,9.12122760106188));
#1253=CARTESIAN_POINT('Ctrl Pts',(-30.7535508419215,43.7967640414511,9.12122760106196));
#1254=CARTESIAN_POINT('',(-30.8981997082978,43.892350739053,9.12062742694565));
#1255=CARTESIAN_POINT('',(-30.8667399045554,43.8981852768117,9.12285464265078));
#1256=CARTESIAN_POINT('Ctrl Pts',(-30.8982001955762,43.8923511714714,9.12062758301561));
#1257=CARTESIAN_POINT('Ctrl Pts',(-30.8876993064974,43.8942953130641,9.12114182459994));
#1258=CARTESIAN_POINT('Ctrl Pts',(-30.8772102385596,43.8962414123756,9.12188433400041));
#1259=CARTESIAN_POINT('Ctrl Pts',(-30.8667428770212,43.8981879445131,9.12285468581257));
#1260=CARTESIAN_POINT('Origin',(-29.2803499721692,42.4555422022589,8.40153310537438));
#1261=CARTESIAN_POINT('',(-30.8970556883951,43.8309622046066,9.12066234216647));
#1262=CARTESIAN_POINT('Ctrl Pts',(-30.7535508419215,43.7967640414511,9.12122760106196));
#1263=CARTESIAN_POINT('Ctrl Pts',(-30.790030489902,43.7967640414505,9.12122760106188));
#1264=CARTESIAN_POINT('Ctrl Pts',(-30.8390824455321,43.8012355050851,9.12115369257193));
#1265=CARTESIAN_POINT('Ctrl Pts',(-30.8857491305807,43.8240647645484,9.12077634944018));
#1266=CARTESIAN_POINT('Ctrl Pts',(-30.8967083910848,43.8314756496366,9.12065385547176));
#1267=CARTESIAN_POINT('Ctrl Pts',(-30.8970556883813,43.8309622045987,9.12066234216659));
#1268=CARTESIAN_POINT('Ctrl Pts',(-30.8970839383519,43.8311371313369,9.12065945081555));
#1269=CARTESIAN_POINT('Ctrl Pts',(-30.8971120642838,43.8313120848976,9.12065659232736));
#1270=CARTESIAN_POINT('Ctrl Pts',(-30.8995458278995,43.8465210165373,9.12041098328043));
#1271=CARTESIAN_POINT('Ctrl Pts',(-30.901409470396,43.8640312615864,9.12044151537117));
#1272=CARTESIAN_POINT('Ctrl Pts',(-30.8998676751219,43.8835961000282,9.12057369695529));
#1273=CARTESIAN_POINT('Ctrl Pts',(-30.8992447783507,43.8880160667618,9.12060630091331));
#1274=CARTESIAN_POINT('Ctrl Pts',(-30.8981997082978,43.892350739053,9.12062742694565));
#1275=CARTESIAN_POINT('Ctrl Pts',(-29.2464492400488,43.9077405358208,9.12763227215535));
#1276=CARTESIAN_POINT('Ctrl Pts',(-29.219454240302,43.9077405358209,9.12763227215537));
#1277=CARTESIAN_POINT('Ctrl Pts',(-29.1670947945311,43.9047041238523,9.12611406617109));
#1278=CARTESIAN_POINT('Ctrl Pts',(-29.1332601774429,43.8981852768169,9.12285464265337));
#1279=CARTESIAN_POINT('Ctrl Pts',(-29.1332571985692,43.8981879459886,9.12285468547333));
#1280=CARTESIAN_POINT('Ctrl Pts',(-29.2464492400483,43.8709745959332,9.12275738866485));
#1281=CARTESIAN_POINT('Ctrl Pts',(-29.2163764102662,43.8709745959334,9.12275738866491));
#1282=CARTESIAN_POINT('Ctrl Pts',(-29.1573798211722,43.8710568483135,9.12222880101679));
#1283=CARTESIAN_POINT('Ctrl Pts',(-29.1124585018409,43.8820606810491,9.12092049902492));
#1284=CARTESIAN_POINT('Ctrl Pts',(-29.1102773453099,43.8939247876876,9.12072439808875));
#1285=CARTESIAN_POINT('Ctrl Pts',(-29.2464492400478,43.8338466942112,9.12061466465653));
#1286=CARTESIAN_POINT('Ctrl Pts',(-29.2132644135392,43.8338466942115,9.12061466465661));
#1287=CARTESIAN_POINT('Ctrl Pts',(-29.147547577786,43.8371813841468,9.12055956962402));
#1288=CARTESIAN_POINT('Ctrl Pts',(-29.0915648393041,43.8658830769017,9.1200851376703));
#1289=CARTESIAN_POINT('Ctrl Pts',(-29.0871928797239,43.8896637611127,9.1196920685098));
#1290=CARTESIAN_POINT('Ctrl Pts',(-29.2464492400474,43.7967640414767,9.12122760106536));
#1291=CARTESIAN_POINT('Ctrl Pts',(-29.2101523881675,43.7967640414772,9.12122760106545));
#1292=CARTESIAN_POINT('Ctrl Pts',(-29.1377152519546,43.8033426414545,9.12111886387592));
#1293=CARTESIAN_POINT('Ctrl Pts',(-29.0706711501243,43.8497236721145,9.12035223527014));
#1294=CARTESIAN_POINT('Ctrl Pts',(-29.0641083842585,43.8854209515018,9.11976219759434));
#1295=CARTESIAN_POINT('',(-29.1018003736928,43.8923507390587,9.1206274269488));
#1296=CARTESIAN_POINT('',(-29.1029443935835,43.8309622046466,9.12066234217036));
#1297=CARTESIAN_POINT('Ctrl Pts',(-29.1018003736928,43.8923507390587,9.1206274269488));
#1298=CARTESIAN_POINT('Ctrl Pts',(-29.1006719601038,43.8876703799737,9.12060461613165));
#1299=CARTESIAN_POINT('Ctrl Pts',(-29.100034809422,43.8828821046265,9.1205684371882));
#1300=CARTESIAN_POINT('Ctrl Pts',(-29.0986801749799,43.8632522933037,9.12043783015474));
#1301=CARTESIAN_POINT('Ctrl Pts',(-29.1005007491291,43.84622414462,9.12041551855154));
#1302=CARTESIAN_POINT('Ctrl Pts',(-29.1028906225477,43.8312958835687,9.12065685710973));
#1303=CARTESIAN_POINT('Ctrl Pts',(-29.102917451969,43.8311290300268,9.12065958472606));
#1304=CARTESIAN_POINT('Ctrl Pts',(-29.1029443936046,43.8309622046342,9.12066234217056));
#1305=CARTESIAN_POINT('Ctrl Pts',(-29.1021895712449,43.8322187824412,9.12064157228946));
#1306=CARTESIAN_POINT('Ctrl Pts',(-29.1134297946521,43.8244600415772,9.12076981594007));
#1307=CARTESIAN_POINT('Ctrl Pts',(-29.1605254348425,43.8012710649611,9.12115310480964));
#1308=CARTESIAN_POINT('Ctrl Pts',(-29.2101523881675,43.7967640414772,9.12122760106545));
#1309=CARTESIAN_POINT('Ctrl Pts',(-29.2464492400474,43.7967640414767,9.12122760106536));
#1310=CARTESIAN_POINT('',(-29.1332601774429,43.8981852768169,9.12285464265337));
#1311=CARTESIAN_POINT('Origin',(-30.7196501098134,42.4555422022589,8.40153310537439));
#1312=CARTESIAN_POINT('Ctrl Pts',(-29.1332571985692,43.8981879459886,9.12285468547333));
#1313=CARTESIAN_POINT('Ctrl Pts',(-29.1227869714118,43.896245538641,9.12188407036211));
#1314=CARTESIAN_POINT('Ctrl Pts',(-29.1122995518052,43.8942950537059,9.12114176491552));
#1315=CARTESIAN_POINT('Ctrl Pts',(-29.101799886404,43.892351171481,9.12062758301863));
#1316=CARTESIAN_POINT('Origin',(-27.7601885283482,41.7272760425591,9.15543401427439));
#1317=CARTESIAN_POINT('',(-26.8698201563855,40.9270068253436,9.16866160464385));
#1318=CARTESIAN_POINT('',(-28.1884833725022,42.6417968384072,9.14031796806093));
#1319=CARTESIAN_POINT('',(-27.8002152921248,40.0177037938261,9.18369140681533));
#1320=CARTESIAN_POINT('',(-27.4706803578514,40.3397681546717,9.17836802895095));
#1321=CARTESIAN_POINT('',(-32.199784789863,40.0177037938045,9.18369140680452));
#1322=CARTESIAN_POINT('',(-26.6402827720362,40.0177037938318,9.18369140681818));
#1323=CARTESIAN_POINT('',(-33.1301799255911,40.9270068253106,9.1686616046285));
#1324=CARTESIAN_POINT('',(-31.3838908280756,39.220306188904,9.19687153250743));
#1325=CARTESIAN_POINT('',(-31.7016532777322,42.7846632755757,9.13795653933849));
#1326=CARTESIAN_POINT('Origin',(-28.1884833725041,42.6541918395472,9.89021553703069));
#1327=CARTESIAN_POINT('',(-28.514155236738,43.7771932054069,9.25890787971937));
#1328=CARTESIAN_POINT('Origin',(-28.8571033573434,43.5236654538289,9.87584407233012));
#1329=CARTESIAN_POINT('',(-26.526872035782,41.1929295780615,9.30162298100285));
#1330=CARTESIAN_POINT('',(-27.8455352518987,42.9077195911252,9.27327934441994));
#1331=CARTESIAN_POINT('Origin',(-26.8698201563874,40.9394018264835,9.9185591736136));
#1332=CARTESIAN_POINT('Origin',(-28.4242951359921,43.7718699749143,10.2184362281945));
#1333=CARTESIAN_POINT('',(-26.1259073800811,45.6972920269214,11.5977174288858));
#1334=CARTESIAN_POINT('',(-28.4242951359921,44.3792250307741,9.77841368772461));
#1335=CARTESIAN_POINT('',(-25.7829592594758,45.3434647226397,11.4208037767449));
#1336=CARTESIAN_POINT('Origin',(-26.1259073800811,45.0899369710616,12.0377399693556));
#1337=CARTESIAN_POINT('',(-28.0813470153867,44.0253977264923,9.60150003558371));
#1338=CARTESIAN_POINT('Origin',(-32.0089584323979,44.0203298442116,10.5613808365204));
#1339=CARTESIAN_POINT('',(-31.4858448452228,43.7771932054052,9.25890787971485));
#1340=CARTESIAN_POINT('Origin',(-31.142896724617,43.5236654538247,9.87584407232438));
#1341=CARTESIAN_POINT('',(-34.2170408224665,45.3434647226399,11.4208037767431));
#1342=CARTESIAN_POINT('',(-32.3519065530036,44.273857595792,9.94444464391082));
#1343=CARTESIAN_POINT('',(-33.8740927018607,45.6972920269192,11.5977174288827));
#1344=CARTESIAN_POINT('Origin',(-33.8740927018607,45.0899369710595,12.0377399693526));
#1345=CARTESIAN_POINT('',(-32.0089584323979,44.6276849000714,10.1213582960505));
#1346=CARTESIAN_POINT('Origin',(-34.0605750613211,41.4729598036134,10.6550194801087));
#1347=CARTESIAN_POINT('',(-34.8029923972478,41.3778115011982,10.6074453289011));
#1348=CARTESIAN_POINT('',(-34.5518569167478,40.9660932424527,10.4015861995284));
#1349=CARTESIAN_POINT('Origin',(-34.0605750613211,41.4729598036134,10.6550194801087));
#1350=CARTESIAN_POINT('',(-34.4035231819269,41.7264875551938,10.0380832874992));
#1351=CARTESIAN_POINT('Origin',(-34.0605750613211,41.4729598036134,10.6550194801087));
#1352=CARTESIAN_POINT('Origin',(-34.0605750613211,41.4729598036134,10.6550194801087));
#1353=CARTESIAN_POINT('Origin',(-34.5079644756104,44.2656499401478,12.0513645483759));
#1354=CARTESIAN_POINT('',(-35.2503818115371,44.1705016377327,12.0037903971684));
#1355=CARTESIAN_POINT('',(-34.8509125962162,44.5191776917283,11.4344283557664));
#1356=CARTESIAN_POINT('Origin',(-34.5079644756104,44.2656499401478,12.0513645483759));
#1357=CARTESIAN_POINT('',(-35.0746585187475,44.7050657900877,12.2710724733459));
#1358=CARTESIAN_POINT('Origin',(-34.5079644756104,44.2656499401478,12.0513645483759));
#1359=CARTESIAN_POINT('Origin',(-34.5079644756104,44.2656499401479,12.0513645483759));
#1360=CARTESIAN_POINT('Origin',(-34.5079644756104,42.233065801271,16.1165328261297));
#1361=CARTESIAN_POINT('',(-35.2503818115371,42.1379174988558,16.0689586749221));
#1362=CARTESIAN_POINT('',(-35.0746585187475,42.6724816512109,16.3362407510996));
#1363=CARTESIAN_POINT('Origin',(-34.5079644756104,42.233065801271,16.1165328261297));
#1364=CARTESIAN_POINT('',(-35.0746585187475,42.6724816512109,16.3362407510996));
#1365=CARTESIAN_POINT('',(-35.2503818115371,42.1379174988558,16.0689586749221));
#1366=CARTESIAN_POINT('Origin',(-33.130179925593,40.9394018264506,9.91855917359826));
#1367=CARTESIAN_POINT('',(-33.6214617810197,40.4325352652899,9.66512589301793));
#1368=CARTESIAN_POINT('Origin',(-33.130179925593,40.9394018264506,9.91855917359825));
#1369=CARTESIAN_POINT('',(-33.4731280461988,41.192929578031,9.30162298098872));
#1370=CARTESIAN_POINT('Origin',(-33.130179925593,40.9394018264506,9.91855917359826));
#1371=CARTESIAN_POINT('Origin',(-33.130179925593,40.9394018264506,9.91855917359825));
#1372=CARTESIAN_POINT('Origin',(-33.5641969667697,41.1882995750004,10.2621081786407));
#1373=CARTESIAN_POINT('',(-34.0554788221964,40.6814330138397,10.0086748980604));
#1374=CARTESIAN_POINT('',(-33.9071450873755,41.4418273265808,9.64517198603119));
#1375=CARTESIAN_POINT('Origin',(-31.7016532777341,42.7970582767157,9.88785410830824));
#1376=CARTESIAN_POINT('',(-32.0446013983398,43.0505860282961,9.27091791569871));
#1377=CARTESIAN_POINT('Origin',(-33.8740927018607,45.0899369710595,12.0377399693526));
#1378=CARTESIAN_POINT('',(-34.4407867449978,45.5293528209994,12.2574478943225));
#1379=CARTESIAN_POINT('Origin',(-33.8740927018607,45.0899369710595,12.0377399693526));
#1380=CARTESIAN_POINT('Origin',(-33.8740927018607,45.0899369710594,12.0377399693526));
#1381=CARTESIAN_POINT('Origin',(-35.0422899268463,43.5708129747246,12.0628494568953));
#1382=CARTESIAN_POINT('',(-35.6089839699833,44.0102288246645,12.2825573818653));
#1383=CARTESIAN_POINT('',(-35.3852380474521,43.824340726305,11.4459132642858));
#1384=CARTESIAN_POINT('Origin',(-32.1997847898649,40.0300987949445,9.93358897577427));
#1385=CARTESIAN_POINT('',(-32.6910666452916,39.5232322337839,9.68015569519395));
#1386=CARTESIAN_POINT('',(-32.1997847898608,39.3592784016946,9.5981787791493));
#1387=CARTESIAN_POINT('Origin',(-32.1997847898649,40.0300987949445,9.93358897577427));
#1388=CARTESIAN_POINT('Origin',(-32.1997847898649,40.0300987949445,9.93358897577427));
#1389=CARTESIAN_POINT('Origin',(-32.1997847898649,40.0300987949445,9.93358897577427));
#1390=CARTESIAN_POINT('Origin',(-31.3838908280775,39.232701190044,9.94676910147718));
#1391=CARTESIAN_POINT('',(-31.8751726835042,38.7258346288834,9.69333582089686));
#1392=CARTESIAN_POINT('Origin',(-33.240220928111,45.5736095263877,12.7053443414959));
#1393=CARTESIAN_POINT('',(-33.240220928111,46.2444299196377,13.0407545381208));
#1394=CARTESIAN_POINT('',(-33.806914971248,46.0130253763277,12.9250522664658));
#1395=CARTESIAN_POINT('Origin',(-33.240220928111,45.5736095263877,12.7053443414959));
#1396=CARTESIAN_POINT('',(-33.240220928111,46.1809645822475,12.265321801026));
#1397=CARTESIAN_POINT('Origin',(-33.240220928111,45.5736095263877,12.7053443414959));
#1398=CARTESIAN_POINT('Origin',(-33.240220928111,45.5736095263877,12.7053443414959));
#1399=CARTESIAN_POINT('Origin',(-27.8002152921267,40.0300987949662,9.93358897578508));
#1400=CARTESIAN_POINT('',(-27.8002152921226,39.3592784017162,9.59817877916011));
#1401=CARTESIAN_POINT('',(-27.3089334366992,39.5232322338062,9.68015569520509));
#1402=CARTESIAN_POINT('Origin',(-27.8002152921267,40.0300987949662,9.93358897578508));
#1403=CARTESIAN_POINT('Origin',(-27.8002152921267,40.0300987949662,9.93358897578508));
#1404=CARTESIAN_POINT('Origin',(-27.8002152921267,40.0300987949662,9.93358897578508));
#1405=CARTESIAN_POINT('Origin',(-26.6402827720381,40.0300987949718,9.93358897578793));
#1406=CARTESIAN_POINT('',(-26.640282772034,39.3592784017219,9.59817877916296));
#1407=CARTESIAN_POINT('Origin',(-26.7597791538228,45.5736095263877,12.7053443414959));
#1408=CARTESIAN_POINT('',(-26.1930851106839,46.0130253763256,12.9250522664648));
#1409=CARTESIAN_POINT('',(-26.7597791538228,46.2444299196377,13.0407545381208));
#1410=CARTESIAN_POINT('Origin',(-26.7597791538228,45.5736095263877,12.7053443414959));
#1411=CARTESIAN_POINT('',(-26.7597791538228,46.1809645822475,12.265321801026));
#1412=CARTESIAN_POINT('Origin',(-26.7597791538228,45.5736095263877,12.7053443414959));
#1413=CARTESIAN_POINT('Origin',(-26.7597791538228,45.5736095263877,12.7053443414959));
#1414=CARTESIAN_POINT('Origin',(-26.8698201563874,40.9394018264835,9.9185591736136));
#1415=CARTESIAN_POINT('',(-26.3785383009598,40.4325352653236,9.66512589303361));
#1416=CARTESIAN_POINT('Origin',(-26.8698201563874,40.9394018264835,9.9185591736136));
#1417=CARTESIAN_POINT('Origin',(-26.8698201563874,40.9394018264835,9.9185591736136));
#1418=CARTESIAN_POINT('Origin',(-27.4706803578533,40.3521631558117,9.9282655979207));
#1419=CARTESIAN_POINT('',(-26.9793985024258,39.8452965946517,9.67483231734071));
#1420=CARTESIAN_POINT('Origin',(-26.1259073800811,45.0899369710616,12.0377399693556));
#1421=CARTESIAN_POINT('',(-25.5592133369422,45.5293528209995,12.2574478943246));
#1422=CARTESIAN_POINT('Origin',(-26.1259073800811,45.0899369710616,12.0377399693556));
#1423=CARTESIAN_POINT('Origin',(-26.1259073800811,45.0899369710616,12.0377399693556));
#1424=CARTESIAN_POINT('Origin',(-27.6999731508494,46.2910196586606,13.6955724113936));
#1425=CARTESIAN_POINT('',(-27.1332791077104,46.7304355085985,13.9152803363626));
#1426=CARTESIAN_POINT('',(-27.6999731508494,46.8983747145204,13.2555498709238));
#1427=CARTESIAN_POINT('Origin',(-25.9394250206481,41.4729598036568,10.6550194801304));
#1428=CARTESIAN_POINT('',(-25.1970076847223,41.3778115012364,10.6074453289202));
#1429=CARTESIAN_POINT('',(-25.5964769000427,41.7264875552348,10.0380832875197));
#1430=CARTESIAN_POINT('Origin',(-25.9394250206481,41.4729598036568,10.6550194801304));
#1431=CARTESIAN_POINT('',(-25.4481431652205,40.9660932424968,10.4015861995504));
#1432=CARTESIAN_POINT('Origin',(-25.9394250206481,41.4729598036568,10.6550194801304));
#1433=CARTESIAN_POINT('Origin',(-25.9394250206481,41.4729598036568,10.6550194801304));
#1434=CARTESIAN_POINT('Origin',(-25.9394250206481,39.4403756647799,14.7201877578841));
#1435=CARTESIAN_POINT('',(-25.1970076847223,39.3452273623595,14.6726136066739));
#1436=CARTESIAN_POINT('',(-25.4481431652205,38.9335091036199,14.4667544773042));
#1437=CARTESIAN_POINT('Origin',(-25.9394250206481,39.4403756647799,14.7201877578842));
#1438=CARTESIAN_POINT('',(-25.4481431652205,38.9335091036199,14.4667544773042));
#1439=CARTESIAN_POINT('',(-25.1970076847223,39.3452273623595,14.6726136066739));
#1440=CARTESIAN_POINT('Origin',(-25.4415926310373,41.7584540335476,11.0490819382873));
#1441=CARTESIAN_POINT('',(-24.9503107756098,41.2515874723876,10.7956486577074));
#1442=CARTESIAN_POINT('',(-25.098644510432,42.0119817851256,10.4321457456766));
#1443=CARTESIAN_POINT('Origin',(-25.4920356063394,44.2656499401538,12.0513645483789));
#1444=CARTESIAN_POINT('',(-24.7496182704137,44.1705016377334,12.0037903971687));
#1445=CARTESIAN_POINT('',(-24.9253415632005,44.7050657900917,12.2710724733479));
#1446=CARTESIAN_POINT('Origin',(-25.4920356063394,44.2656499401538,12.0513645483789));
#1447=CARTESIAN_POINT('',(-25.1490874857341,44.5191776917318,11.4344283557682));
#1448=CARTESIAN_POINT('Origin',(-25.4920356063394,44.2656499401538,12.0513645483789));
#1449=CARTESIAN_POINT('Origin',(-25.4920356063394,44.2656499401538,12.0513645483789));
#1450=CARTESIAN_POINT('Origin',(-25.3229715745471,45.3209799030955,12.5790295298498));
#1451=CARTESIAN_POINT('',(-24.9800234539418,45.5745076546735,11.962093337239));
#1452=CARTESIAN_POINT('',(-24.5805542386213,45.2258316006751,12.5314553786396));
#1453=CARTESIAN_POINT('Origin',(-25.680025475683,44.5101120185442,12.0473238528683));
#1454=CARTESIAN_POINT('',(-25.113331432544,44.9495278684821,12.2670317778373));
#1455=CARTESIAN_POINT('',(-25.3370773550776,44.7636397701222,11.4303876602576));
#1456=CARTESIAN_POINT('Origin',(-25.4920356063394,42.233065801277,16.1165328261327));
#1457=CARTESIAN_POINT('',(-24.9253415632005,42.6724816512148,16.3362407511016));
#1458=CARTESIAN_POINT('',(-24.7496182704137,42.1379174988565,16.0689586749225));
#1459=CARTESIAN_POINT('Origin',(-25.4920356063394,42.233065801277,16.1165328261327));
#1460=CARTESIAN_POINT('',(-24.7496182704137,42.1379174988565,16.0689586749225));
#1461=CARTESIAN_POINT('',(-24.9253415632005,42.6724816512148,16.3362407511016));
#1462=CARTESIAN_POINT('Origin',(-34.1869691050618,45.5736095263878,12.7053443414959));
#1463=CARTESIAN_POINT('',(-34.1869691050618,46.1809645822476,12.265321801026));
#1464=CARTESIAN_POINT('',(-34.1869691050618,46.2444299196377,13.0407545381208));
#1465=CARTESIAN_POINT('Origin',(-26.7597791538228,43.5410253875108,16.7705126192496));
#1466=CARTESIAN_POINT('',(-26.7597791538228,44.2118457807608,17.1059228158746));
#1467=CARTESIAN_POINT('',(-26.1930851106839,43.9804412374487,16.9902205442186));
#1468=CARTESIAN_POINT('Origin',(-26.7597791538228,43.5410253875108,16.7705126192496));
#1469=CARTESIAN_POINT('',(-26.1930851106839,43.9804412374487,16.9902205442186));
#1470=CARTESIAN_POINT('',(-26.7597791538228,44.2118457807608,17.1059228158746));
#1471=CARTESIAN_POINT('Origin',(-27.8002152921267,37.9975146560893,13.9987572535388));
#1472=CARTESIAN_POINT('',(-27.3089334366992,37.4906480949293,13.7453239729588));
#1473=CARTESIAN_POINT('',(-27.8002152921226,37.3266942628393,13.6633470569139));
#1474=CARTESIAN_POINT('Origin',(-27.8002152921267,37.9975146560893,13.9987572535388));
#1475=CARTESIAN_POINT('',(-27.8002152921226,37.3266942628393,13.6633470569139));
#1476=CARTESIAN_POINT('',(-27.3089334366992,37.4906480949293,13.7453239729588));
#1477=CARTESIAN_POINT('Origin',(-33.3371102368406,45.4996786440265,12.6032988982367));
#1478=CARTESIAN_POINT('',(-33.9038042799776,45.9390944939664,12.8230068232066));
#1479=CARTESIAN_POINT('',(-33.3371102368406,46.1070336998863,12.1632763577668));
#1480=CARTESIAN_POINT('Origin',(-33.240220928111,43.5410253875109,16.7705126192496));
#1481=CARTESIAN_POINT('',(-33.806914971248,43.9804412374508,16.9902205442196));
#1482=CARTESIAN_POINT('',(-33.240220928111,44.2118457807608,17.1059228158746));
#1483=CARTESIAN_POINT('Origin',(-33.240220928111,43.5410253875109,16.7705126192496));
#1484=CARTESIAN_POINT('',(-33.240220928111,44.2118457807608,17.1059228158746));
#1485=CARTESIAN_POINT('',(-33.806914971248,43.9804412374508,16.9902205442196));
#1486=CARTESIAN_POINT('Origin',(-32.1997847898649,37.9975146560677,13.998757253528));
#1487=CARTESIAN_POINT('',(-32.1997847898608,37.3266942628177,13.6633470569031));
#1488=CARTESIAN_POINT('',(-32.6910666452916,37.490648094907,13.7453239729477));
#1489=CARTESIAN_POINT('Origin',(-32.1997847898649,37.9975146560677,13.998757253528));
#1490=CARTESIAN_POINT('',(-32.6910666452916,37.490648094907,13.7453239729477));
#1491=CARTESIAN_POINT('',(-32.1997847898608,37.3266942628177,13.6633470569031));
#1492=CARTESIAN_POINT('Origin',(-33.849776712267,40.1571162646321,9.99709771061808));
#1493=CARTESIAN_POINT('',(-34.1927248328728,40.4106440162126,9.38016151800855));
#1494=CARTESIAN_POINT('',(-34.5921940481936,40.061967962217,9.94952355941051));
#1495=CARTESIAN_POINT('Origin',(-34.0605750613211,39.4403756647365,14.7201877578624));
#1496=CARTESIAN_POINT('',(-34.5518569167478,38.9335091035758,14.4667544772821));
#1497=CARTESIAN_POINT('',(-34.8029923972478,39.3452273623213,14.6726136066549));
#1498=CARTESIAN_POINT('Origin',(-34.0605750613211,39.4403756647365,14.7201877578624));
#1499=CARTESIAN_POINT('',(-34.8029923972478,39.3452273623213,14.6726136066549));
#1500=CARTESIAN_POINT('',(-34.5518569167478,38.9335091035758,14.4667544772821));
#1501=CARTESIAN_POINT('Origin',(-26.3785383009598,38.2120785992746,14.1060392251315));
#1502=CARTESIAN_POINT('',(-26.7047892210479,37.9591028938124,13.9795513724004));
#1503=CARTESIAN_POINT('Origin',(-24.4173746221717,44.2118457807608,17.1059228158746));
#1504=CARTESIAN_POINT('',(-25.5203770157303,37.3266942628505,13.6633470569195));
#1505=CARTESIAN_POINT('Origin',(-25.5592133369422,43.3264614443318,16.6632306476601));
#1506=CARTESIAN_POINT('',(-25.8044107586639,43.5794371497869,16.7897185003876));
#1507=CARTESIAN_POINT('Origin',(-30.000000040966,40.7692700217837,15.384634936386));
#1508=CARTESIAN_POINT('',(-24.4173746221717,44.2118457807608,17.1059228158746));
#1509=CARTESIAN_POINT('',(-34.1955893232661,43.5794371497941,16.7897185003912));
#1510=CARTESIAN_POINT('',(-35.5826254597604,44.2118457807608,17.1059228158746));
#1511=CARTESIAN_POINT('',(-33.2952108609242,37.9591028937743,13.9795513723813));
#1512=CARTESIAN_POINT('',(-34.479623066257,37.3266942628065,13.6633470568975));
#1513=CARTESIAN_POINT('',(-27.650000040966,40.770860190758,15.3854300208732));
#1514=CARTESIAN_POINT('Origin',(-30.0000000409661,40.770860190758,15.3854300208732));
#1515=CARTESIAN_POINT('Origin',(-35.5826254597604,44.2118457807608,17.1059228158746));
#1516=CARTESIAN_POINT('Origin',(-26.644322235041,45.1015103700317,10.8425511780107));
#1517=CARTESIAN_POINT('Origin',(-32.8041766501581,41.6589346110563,9.12126329852296));
#1518=CARTESIAN_POINT('Origin',(-25.5203770157303,37.3266942628505,13.6633470569195));
#1519=CARTESIAN_POINT('Origin',(-33.6214617810197,38.2120785992414,14.1060392251149));
#1520=CARTESIAN_POINT('Origin',(-34.4407867449978,43.3264614443308,16.6632306476596));
#1521=CARTESIAN_POINT('Origin',(-32.7913127503632,45.1778271470407,10.8807095665152));
#1522=CARTESIAN_POINT('Origin',(-30.0000000409661,43.2305349660078,10.4660804703736));
#1523=CARTESIAN_POINT('',(-27.650000040966,43.2305349660078,10.4660804703736));
#1524=CARTESIAN_POINT('Origin',(-30.0000000409661,43.2305349660078,10.4660804703736));
#1525=CARTESIAN_POINT('Origin',(-30.0000000409661,43.9013553592577,9.12443968387377));
#1526=CARTESIAN_POINT('',(-27.650000040966,43.9013553592577,9.12443968387377));
#1527=CARTESIAN_POINT('Origin',(-34.479623066257,37.3266942628065,13.6633470568975));
#1528=CARTESIAN_POINT('',(0.,0.,0.));
#1529=UNCERTAINTY_MEASURE_WITH_UNIT(LENGTH_MEASURE(0.01),#1535,
'DISTANCE_ACCURACY_VALUE',
'Maximum model space distance between geometric entities at asserted c
onnectivities');
#1530=UNCERTAINTY_MEASURE_WITH_UNIT(LENGTH_MEASURE(0.01),#1535,
'DISTANCE_ACCURACY_VALUE',
'Maximum model space distance between geometric entities at asserted c
onnectivities');
#1531=UNCERTAINTY_MEASURE_WITH_UNIT(LENGTH_MEASURE(0.01),#1535,
'DISTANCE_ACCURACY_VALUE',
'Maximum model space distance between geometric entities at asserted c
onnectivities');
#1532=(
GEOMETRIC_REPRESENTATION_CONTEXT(3)
GLOBAL_UNCERTAINTY_ASSIGNED_CONTEXT((#1529))
GLOBAL_UNIT_ASSIGNED_CONTEXT((#1535,#1537,#1538))
REPRESENTATION_CONTEXT('','3D')
);
#1533=(
GEOMETRIC_REPRESENTATION_CONTEXT(3)
GLOBAL_UNCERTAINTY_ASSIGNED_CONTEXT((#1530))
GLOBAL_UNIT_ASSIGNED_CONTEXT((#1535,#1537,#1538))
REPRESENTATION_CONTEXT('','3D')
);
#1534=(
GEOMETRIC_REPRESENTATION_CONTEXT(3)
GLOBAL_UNCERTAINTY_ASSIGNED_CONTEXT((#1531))
GLOBAL_UNIT_ASSIGNED_CONTEXT((#1535,#1537,#1538))
REPRESENTATION_CONTEXT('','3D')
);
#1535=(
LENGTH_UNIT()
NAMED_UNIT(*)
SI_UNIT(.MILLI.,.METRE.)
);
#1536=(
LENGTH_UNIT()
NAMED_UNIT(*)
SI_UNIT($,.METRE.)
);
#1537=(
NAMED_UNIT(*)
PLANE_ANGLE_UNIT()
SI_UNIT($,.RADIAN.)
);
#1538=(
NAMED_UNIT(*)
SI_UNIT($,.STERADIAN.)
SOLID_ANGLE_UNIT()
);
#1539=SHAPE_DEFINITION_REPRESENTATION(#1541,#1544);
#1540=SHAPE_DEFINITION_REPRESENTATION(#1542,#1545);
#1541=PRODUCT_DEFINITION_SHAPE('',$,#1547);
#1542=PRODUCT_DEFINITION_SHAPE('',$,#1548);
#1543=PRODUCT_DEFINITION_SHAPE($,$,#14);
#1544=SHAPE_REPRESENTATION('',(#843,#949),#1532);
#1545=SHAPE_REPRESENTATION('',(#844),#1533);
#1546=PRODUCT_DEFINITION_CONTEXT('part definition',#1554,'design');
#1547=PRODUCT_DEFINITION('Leg V1','Leg V1 v22',#1549,#1546);
#1548=PRODUCT_DEFINITION('Foot','Foot',#1550,#1546);
#1549=PRODUCT_DEFINITION_FORMATION('',$,#1556);
#1550=PRODUCT_DEFINITION_FORMATION('',$,#1557);
#1551=PRODUCT_RELATED_PRODUCT_CATEGORY('Leg V1 v22','Leg V1 v22',(#1556));
#1552=PRODUCT_RELATED_PRODUCT_CATEGORY('Foot','Foot',(#1557));
#1553=APPLICATION_PROTOCOL_DEFINITION('international standard',
'automotive_design',2009,#1554);
#1554=APPLICATION_CONTEXT(
'Core Data for Automotive Mechanical Design Process');
#1555=PRODUCT_CONTEXT('part definition',#1554,'mechanical');
#1556=PRODUCT('Leg V1','Leg V1 v22',$,(#1555));
#1557=PRODUCT('Foot','Foot',$,(#1555));
#1558=PRESENTATION_STYLE_ASSIGNMENT((#1560));
#1559=PRESENTATION_STYLE_ASSIGNMENT((#1561));
#1560=SURFACE_STYLE_USAGE(.BOTH.,#1562);
#1561=SURFACE_STYLE_USAGE(.BOTH.,#1563);
#1562=SURFACE_SIDE_STYLE('',(#1564));
#1563=SURFACE_SIDE_STYLE('',(#1565));
#1564=SURFACE_STYLE_FILL_AREA(#1566);
#1565=SURFACE_STYLE_FILL_AREA(#1567);
#1566=FILL_AREA_STYLE('Steel - Satin',(#1568));
#1567=FILL_AREA_STYLE('ABS (White)',(#1569));
#1568=FILL_AREA_STYLE_COLOUR('Steel - Satin',#1570);
#1569=FILL_AREA_STYLE_COLOUR('ABS (White)',#1571);
#1570=COLOUR_RGB('Steel - Satin',0.627450980392157,0.627450980392157,0.627450980392157);
#1571=COLOUR_RGB('ABS (White)',0.964705882352941,0.964705882352941,0.952941176470588);
ENDSEC;
END-ISO-10303-21;
