ISO-10303-21;
HEADER;
/* Generated by software containing ST-Developer
 * from STEP Tools, Inc. (www.steptools.com) 
 */

FILE_DESCRIPTION(
/* description */ (''),
/* implementation_level */ '2;1');

FILE_NAME(
/* name */ 'Lower Leg hoop left.step',
/* time_stamp */ '2025-09-30T07:45:28+02:00',
/* author */ (''),
/* organization */ (''),
/* preprocessor_version */ 'ST-DEVELOPER v20.1',
/* originating_system */ 'Autodesk Translation Framework v14.17.0.0',
/* authorisation */ '');

FILE_SCHEMA (('AUTOMOTIVE_DESIGN { 1 0 10303 214 3 1 1 }'));
ENDSEC;

DATA;
#10=MECHANICAL_DESIGN_GEOMETRIC_PRESENTATION_REPRESENTATION('',(#17),#454);
#11=ITEM_DEFINED_TRANSFORMATION($,$,#278,#302);
#12=(
REPRESENTATION_RELATIONSHIP($,$,#465,#464)
REPRESENTATION_RELATIONSHIP_WITH_TRANSFORMATION(#11)
SHAPE_REPRESENTATION_RELATIONSHIP()
);
#13=CONTEXT_DEPENDENT_SHAPE_REPRESENTATION(#12,#463);
#14=NEXT_ASSEMBLY_USAGE_OCCURRENCE('Lower Leg hoop left:1',
'Lower Leg hoop left:1','Lower Leg hoop left:1',#467,#468,
'Lower Leg hoop left:1');
#15=SHAPE_REPRESENTATION_RELATIONSHIP('SRR','None',#465,#16);
#16=ADVANCED_BREP_SHAPE_REPRESENTATION('',(#18),#453);
#17=STYLED_ITEM('',(#479),#18);
#18=MANIFOLD_SOLID_BREP('Lower Leg',#264);
#19=CYLINDRICAL_SURFACE('',#293,2.);
#20=CYLINDRICAL_SURFACE('',#294,2.);
#21=CYLINDRICAL_SURFACE('',#295,2.);
#22=CYLINDRICAL_SURFACE('',#300,15.);
#23=CYLINDRICAL_SURFACE('',#301,7.99999999999999);
#24=FACE_BOUND('',#58,.T.);
#25=FACE_BOUND('',#59,.T.);
#26=FACE_BOUND('',#60,.T.);
#27=FACE_BOUND('',#63,.T.);
#28=FACE_BOUND('',#64,.T.);
#29=FACE_BOUND('',#65,.T.);
#30=FACE_BOUND('',#66,.T.);
#31=FACE_BOUND('',#72,.T.);
#32=CIRCLE('',#282,2.);
#33=CIRCLE('',#283,2.);
#34=CIRCLE('',#284,2.);
#35=CIRCLE('',#287,15.);
#36=CIRCLE('',#288,7.99999999999999);
#37=CIRCLE('',#289,2.);
#38=CIRCLE('',#290,2.);
#39=CIRCLE('',#291,2.);
#40=CIRCLE('',#297,15.);
#41=CIRCLE('',#298,7.99999999999999);
#42=FACE_OUTER_BOUND('',#55,.T.);
#43=FACE_OUTER_BOUND('',#56,.T.);
#44=FACE_OUTER_BOUND('',#57,.T.);
#45=FACE_OUTER_BOUND('',#61,.T.);
#46=FACE_OUTER_BOUND('',#62,.T.);
#47=FACE_OUTER_BOUND('',#67,.T.);
#48=FACE_OUTER_BOUND('',#68,.T.);
#49=FACE_OUTER_BOUND('',#69,.T.);
#50=FACE_OUTER_BOUND('',#70,.T.);
#51=FACE_OUTER_BOUND('',#71,.T.);
#52=FACE_OUTER_BOUND('',#73,.T.);
#53=FACE_OUTER_BOUND('',#74,.T.);
#54=FACE_OUTER_BOUND('',#75,.T.);
#55=EDGE_LOOP('',(#177,#178,#179,#180));
#56=EDGE_LOOP('',(#181,#182,#183,#184));
#57=EDGE_LOOP('',(#185,#186,#187,#188));
#58=EDGE_LOOP('',(#189));
#59=EDGE_LOOP('',(#190));
#60=EDGE_LOOP('',(#191));
#61=EDGE_LOOP('',(#192,#193,#194,#195));
#62=EDGE_LOOP('',(#196,#197,#198,#199));
#63=EDGE_LOOP('',(#200));
#64=EDGE_LOOP('',(#201));
#65=EDGE_LOOP('',(#202));
#66=EDGE_LOOP('',(#203));
#67=EDGE_LOOP('',(#204,#205,#206,#207,#208,#209,#210));
#68=EDGE_LOOP('',(#211,#212,#213,#214));
#69=EDGE_LOOP('',(#215,#216,#217,#218));
#70=EDGE_LOOP('',(#219,#220,#221,#222));
#71=EDGE_LOOP('',(#223,#224,#225,#226));
#72=EDGE_LOOP('',(#227));
#73=EDGE_LOOP('',(#228,#229,#230,#231,#232,#233,#234));
#74=EDGE_LOOP('',(#235,#236,#237,#238));
#75=EDGE_LOOP('',(#239,#240,#241,#242));
#76=LINE('',#383,#99);
#77=LINE('',#385,#100);
#78=LINE('',#387,#101);
#79=LINE('',#388,#102);
#80=LINE('',#392,#103);
#81=LINE('',#394,#104);
#82=LINE('',#396,#105);
#83=LINE('',#397,#106);
#84=LINE('',#399,#107);
#85=LINE('',#400,#108);
#86=LINE('',#409,#109);
#87=LINE('',#411,#110);
#88=LINE('',#412,#111);
#89=LINE('',#415,#112);
#90=LINE('',#418,#113);
#91=LINE('',#429,#114);
#92=LINE('',#430,#115);
#93=LINE('',#432,#116);
#94=LINE('',#434,#117);
#95=LINE('',#436,#118);
#96=LINE('',#439,#119);
#97=LINE('',#444,#120);
#98=LINE('',#447,#121);
#99=VECTOR('',#309,10.);
#100=VECTOR('',#310,10.);
#101=VECTOR('',#311,10.);
#102=VECTOR('',#312,10.);
#103=VECTOR('',#315,10.);
#104=VECTOR('',#316,10.);
#105=VECTOR('',#317,10.);
#106=VECTOR('',#318,10.);
#107=VECTOR('',#321,10.);
#108=VECTOR('',#322,10.);
#109=VECTOR('',#331,10.);
#110=VECTOR('',#332,10.);
#111=VECTOR('',#333,10.);
#112=VECTOR('',#336,10.);
#113=VECTOR('',#339,10.);
#114=VECTOR('',#350,10.);
#115=VECTOR('',#351,10.);
#116=VECTOR('',#354,2.);
#117=VECTOR('',#357,2.);
#118=VECTOR('',#360,2.);
#119=VECTOR('',#363,10.);
#120=VECTOR('',#370,10.);
#121=VECTOR('',#375,7.99999999999999);
#122=VERTEX_POINT('',#381);
#123=VERTEX_POINT('',#382);
#124=VERTEX_POINT('',#384);
#125=VERTEX_POINT('',#386);
#126=VERTEX_POINT('',#390);
#127=VERTEX_POINT('',#391);
#128=VERTEX_POINT('',#393);
#129=VERTEX_POINT('',#395);
#130=VERTEX_POINT('',#401);
#131=VERTEX_POINT('',#403);
#132=VERTEX_POINT('',#405);
#133=VERTEX_POINT('',#408);
#134=VERTEX_POINT('',#410);
#135=VERTEX_POINT('',#414);
#136=VERTEX_POINT('',#416);
#137=VERTEX_POINT('',#419);
#138=VERTEX_POINT('',#421);
#139=VERTEX_POINT('',#423);
#140=VERTEX_POINT('',#425);
#141=VERTEX_POINT('',#428);
#142=VERTEX_POINT('',#438);
#143=VERTEX_POINT('',#441);
#144=EDGE_CURVE('',#122,#123,#76,.T.);
#145=EDGE_CURVE('',#124,#123,#77,.T.);
#146=EDGE_CURVE('',#124,#125,#78,.T.);
#147=EDGE_CURVE('',#125,#122,#79,.T.);
#148=EDGE_CURVE('',#126,#127,#80,.T.);
#149=EDGE_CURVE('',#126,#128,#81,.T.);
#150=EDGE_CURVE('',#129,#128,#82,.T.);
#151=EDGE_CURVE('',#127,#129,#83,.T.);
#152=EDGE_CURVE('',#123,#129,#84,.T.);
#153=EDGE_CURVE('',#128,#124,#85,.T.);
#154=EDGE_CURVE('',#130,#130,#32,.T.);
#155=EDGE_CURVE('',#131,#131,#33,.T.);
#156=EDGE_CURVE('',#132,#132,#34,.T.);
#157=EDGE_CURVE('',#133,#126,#86,.T.);
#158=EDGE_CURVE('',#127,#134,#87,.T.);
#159=EDGE_CURVE('',#134,#133,#88,.T.);
#160=EDGE_CURVE('',#135,#134,#89,.T.);
#161=EDGE_CURVE('',#136,#135,#35,.T.);
#162=EDGE_CURVE('',#133,#136,#90,.T.);
#163=EDGE_CURVE('',#137,#137,#36,.T.);
#164=EDGE_CURVE('',#138,#138,#37,.T.);
#165=EDGE_CURVE('',#139,#139,#38,.T.);
#166=EDGE_CURVE('',#140,#140,#39,.T.);
#167=EDGE_CURVE('',#122,#141,#91,.T.);
#168=EDGE_CURVE('',#135,#141,#92,.T.);
#169=EDGE_CURVE('',#140,#130,#93,.T.);
#170=EDGE_CURVE('',#139,#131,#94,.T.);
#171=EDGE_CURVE('',#138,#132,#95,.T.);
#172=EDGE_CURVE('',#142,#125,#96,.T.);
#173=EDGE_CURVE('',#142,#141,#40,.T.);
#174=EDGE_CURVE('',#143,#143,#41,.T.);
#175=EDGE_CURVE('',#136,#142,#97,.T.);
#176=EDGE_CURVE('',#137,#143,#98,.T.);
#177=ORIENTED_EDGE('',*,*,#144,.T.);
#178=ORIENTED_EDGE('',*,*,#145,.F.);
#179=ORIENTED_EDGE('',*,*,#146,.T.);
#180=ORIENTED_EDGE('',*,*,#147,.T.);
#181=ORIENTED_EDGE('',*,*,#148,.F.);
#182=ORIENTED_EDGE('',*,*,#149,.T.);
#183=ORIENTED_EDGE('',*,*,#150,.F.);
#184=ORIENTED_EDGE('',*,*,#151,.F.);
#185=ORIENTED_EDGE('',*,*,#152,.T.);
#186=ORIENTED_EDGE('',*,*,#150,.T.);
#187=ORIENTED_EDGE('',*,*,#153,.T.);
#188=ORIENTED_EDGE('',*,*,#145,.T.);
#189=ORIENTED_EDGE('',*,*,#154,.T.);
#190=ORIENTED_EDGE('',*,*,#155,.T.);
#191=ORIENTED_EDGE('',*,*,#156,.T.);
#192=ORIENTED_EDGE('',*,*,#157,.T.);
#193=ORIENTED_EDGE('',*,*,#148,.T.);
#194=ORIENTED_EDGE('',*,*,#158,.T.);
#195=ORIENTED_EDGE('',*,*,#159,.T.);
#196=ORIENTED_EDGE('',*,*,#159,.F.);
#197=ORIENTED_EDGE('',*,*,#160,.F.);
#198=ORIENTED_EDGE('',*,*,#161,.F.);
#199=ORIENTED_EDGE('',*,*,#162,.F.);
#200=ORIENTED_EDGE('',*,*,#163,.F.);
#201=ORIENTED_EDGE('',*,*,#164,.T.);
#202=ORIENTED_EDGE('',*,*,#165,.T.);
#203=ORIENTED_EDGE('',*,*,#166,.T.);
#204=ORIENTED_EDGE('',*,*,#158,.F.);
#205=ORIENTED_EDGE('',*,*,#151,.T.);
#206=ORIENTED_EDGE('',*,*,#152,.F.);
#207=ORIENTED_EDGE('',*,*,#144,.F.);
#208=ORIENTED_EDGE('',*,*,#167,.T.);
#209=ORIENTED_EDGE('',*,*,#168,.F.);
#210=ORIENTED_EDGE('',*,*,#160,.T.);
#211=ORIENTED_EDGE('',*,*,#166,.F.);
#212=ORIENTED_EDGE('',*,*,#169,.T.);
#213=ORIENTED_EDGE('',*,*,#154,.F.);
#214=ORIENTED_EDGE('',*,*,#169,.F.);
#215=ORIENTED_EDGE('',*,*,#165,.F.);
#216=ORIENTED_EDGE('',*,*,#170,.T.);
#217=ORIENTED_EDGE('',*,*,#155,.F.);
#218=ORIENTED_EDGE('',*,*,#170,.F.);
#219=ORIENTED_EDGE('',*,*,#164,.F.);
#220=ORIENTED_EDGE('',*,*,#171,.T.);
#221=ORIENTED_EDGE('',*,*,#156,.F.);
#222=ORIENTED_EDGE('',*,*,#171,.F.);
#223=ORIENTED_EDGE('',*,*,#147,.F.);
#224=ORIENTED_EDGE('',*,*,#172,.F.);
#225=ORIENTED_EDGE('',*,*,#173,.T.);
#226=ORIENTED_EDGE('',*,*,#167,.F.);
#227=ORIENTED_EDGE('',*,*,#174,.T.);
#228=ORIENTED_EDGE('',*,*,#157,.F.);
#229=ORIENTED_EDGE('',*,*,#162,.T.);
#230=ORIENTED_EDGE('',*,*,#175,.T.);
#231=ORIENTED_EDGE('',*,*,#172,.T.);
#232=ORIENTED_EDGE('',*,*,#146,.F.);
#233=ORIENTED_EDGE('',*,*,#153,.F.);
#234=ORIENTED_EDGE('',*,*,#149,.F.);
#235=ORIENTED_EDGE('',*,*,#173,.F.);
#236=ORIENTED_EDGE('',*,*,#175,.F.);
#237=ORIENTED_EDGE('',*,*,#161,.T.);
#238=ORIENTED_EDGE('',*,*,#168,.T.);
#239=ORIENTED_EDGE('',*,*,#163,.T.);
#240=ORIENTED_EDGE('',*,*,#176,.T.);
#241=ORIENTED_EDGE('',*,*,#174,.F.);
#242=ORIENTED_EDGE('',*,*,#176,.F.);
#243=PLANE('',#279);
#244=PLANE('',#280);
#245=PLANE('',#281);
#246=PLANE('',#285);
#247=PLANE('',#286);
#248=PLANE('',#292);
#249=PLANE('',#296);
#250=PLANE('',#299);
#251=ADVANCED_FACE('',(#42),#243,.T.);
#252=ADVANCED_FACE('',(#43),#244,.T.);
#253=ADVANCED_FACE('',(#44,#24,#25,#26),#245,.T.);
#254=ADVANCED_FACE('',(#45),#246,.T.);
#255=ADVANCED_FACE('',(#46,#27,#28,#29,#30),#247,.F.);
#256=ADVANCED_FACE('',(#47),#248,.F.);
#257=ADVANCED_FACE('',(#48),#19,.F.);
#258=ADVANCED_FACE('',(#49),#20,.F.);
#259=ADVANCED_FACE('',(#50),#21,.F.);
#260=ADVANCED_FACE('',(#51,#31),#249,.T.);
#261=ADVANCED_FACE('',(#52),#250,.F.);
#262=ADVANCED_FACE('',(#53),#22,.T.);
#263=ADVANCED_FACE('',(#54),#23,.F.);
#264=CLOSED_SHELL('',(#251,#252,#253,#254,#255,#256,#257,#258,#259,#260,
#261,#262,#263));
#265=DERIVED_UNIT_ELEMENT(#267,1.);
#266=DERIVED_UNIT_ELEMENT(#456,-3.);
#267=(
MASS_UNIT()
NAMED_UNIT(*)
SI_UNIT(.KILO.,.GRAM.)
);
#268=DERIVED_UNIT((#265,#266));
#269=MEASURE_REPRESENTATION_ITEM('density measure',
POSITIVE_RATIO_MEASURE(7850.),#268);
#270=PROPERTY_DEFINITION_REPRESENTATION(#275,#272);
#271=PROPERTY_DEFINITION_REPRESENTATION(#276,#273);
#272=REPRESENTATION('material name',(#274),#453);
#273=REPRESENTATION('density',(#269),#453);
#274=DESCRIPTIVE_REPRESENTATION_ITEM('Steel','Steel');
#275=PROPERTY_DEFINITION('material property','material name',#468);
#276=PROPERTY_DEFINITION('material property','density of part',#468);
#277=AXIS2_PLACEMENT_3D('',#378,#303,#304);
#278=AXIS2_PLACEMENT_3D('',#379,#305,#306);
#279=AXIS2_PLACEMENT_3D('',#380,#307,#308);
#280=AXIS2_PLACEMENT_3D('',#389,#313,#314);
#281=AXIS2_PLACEMENT_3D('',#398,#319,#320);
#282=AXIS2_PLACEMENT_3D('',#402,#323,#324);
#283=AXIS2_PLACEMENT_3D('',#404,#325,#326);
#284=AXIS2_PLACEMENT_3D('',#406,#327,#328);
#285=AXIS2_PLACEMENT_3D('',#407,#329,#330);
#286=AXIS2_PLACEMENT_3D('',#413,#334,#335);
#287=AXIS2_PLACEMENT_3D('',#417,#337,#338);
#288=AXIS2_PLACEMENT_3D('',#420,#340,#341);
#289=AXIS2_PLACEMENT_3D('',#422,#342,#343);
#290=AXIS2_PLACEMENT_3D('',#424,#344,#345);
#291=AXIS2_PLACEMENT_3D('',#426,#346,#347);
#292=AXIS2_PLACEMENT_3D('',#427,#348,#349);
#293=AXIS2_PLACEMENT_3D('',#431,#352,#353);
#294=AXIS2_PLACEMENT_3D('',#433,#355,#356);
#295=AXIS2_PLACEMENT_3D('',#435,#358,#359);
#296=AXIS2_PLACEMENT_3D('',#437,#361,#362);
#297=AXIS2_PLACEMENT_3D('',#440,#364,#365);
#298=AXIS2_PLACEMENT_3D('',#442,#366,#367);
#299=AXIS2_PLACEMENT_3D('',#443,#368,#369);
#300=AXIS2_PLACEMENT_3D('',#445,#371,#372);
#301=AXIS2_PLACEMENT_3D('',#446,#373,#374);
#302=AXIS2_PLACEMENT_3D('',#448,#376,#377);
#303=DIRECTION('axis',(0.,0.,1.));
#304=DIRECTION('refdir',(1.,0.,0.));
#305=DIRECTION('axis',(0.,0.,1.));
#306=DIRECTION('refdir',(1.,0.,0.));
#307=DIRECTION('center_axis',(0.707106781186545,0.,0.70710678118655));
#308=DIRECTION('ref_axis',(0.70710678118655,0.,-0.707106781186545));
#309=DIRECTION('',(0.70710678118655,0.,-0.707106781186545));
#310=DIRECTION('',(0.,-1.,0.));
#311=DIRECTION('',(-0.70710678118655,0.,0.707106781186545));
#312=DIRECTION('',(0.,-1.,0.));
#313=DIRECTION('center_axis',(0.,0.,-1.));
#314=DIRECTION('ref_axis',(0.,1.,0.));
#315=DIRECTION('',(0.,-1.,0.));
#316=DIRECTION('',(1.,0.,0.));
#317=DIRECTION('',(0.,1.,0.));
#318=DIRECTION('',(1.,0.,0.));
#319=DIRECTION('center_axis',(1.,0.,0.));
#320=DIRECTION('ref_axis',(0.,1.,0.));
#321=DIRECTION('',(0.,0.,-1.));
#322=DIRECTION('',(0.,0.,1.));
#323=DIRECTION('center_axis',(-1.,0.,0.));
#324=DIRECTION('ref_axis',(0.,1.,0.));
#325=DIRECTION('center_axis',(-1.,0.,0.));
#326=DIRECTION('ref_axis',(0.,1.,0.));
#327=DIRECTION('center_axis',(-1.,0.,0.));
#328=DIRECTION('ref_axis',(0.,1.,0.));
#329=DIRECTION('center_axis',(-0.341743063086701,0.,-0.939793423488438));
#330=DIRECTION('ref_axis',(-0.939793423488438,0.,0.341743063086701));
#331=DIRECTION('',(0.939793423488438,0.,-0.341743063086701));
#332=DIRECTION('',(-0.939793423488438,0.,0.341743063086701));
#333=DIRECTION('',(0.,1.,0.));
#334=DIRECTION('center_axis',(1.,0.,0.));
#335=DIRECTION('ref_axis',(0.,1.,0.));
#336=DIRECTION('',(0.,0.,-1.));
#337=DIRECTION('center_axis',(1.,0.,0.));
#338=DIRECTION('ref_axis',(0.,1.,0.));
#339=DIRECTION('',(0.,0.,1.));
#340=DIRECTION('center_axis',(-1.,0.,0.));
#341=DIRECTION('ref_axis',(0.,1.,0.));
#342=DIRECTION('center_axis',(1.,0.,0.));
#343=DIRECTION('ref_axis',(0.,-1.,-1.80411241501588E-16));
#344=DIRECTION('center_axis',(1.,0.,0.));
#345=DIRECTION('ref_axis',(0.,-1.,-1.80411241501588E-16));
#346=DIRECTION('center_axis',(1.,0.,0.));
#347=DIRECTION('ref_axis',(0.,-1.,-1.80411241501588E-16));
#348=DIRECTION('center_axis',(0.,1.,0.));
#349=DIRECTION('ref_axis',(0.,0.,1.));
#350=DIRECTION('',(0.,0.,1.));
#351=DIRECTION('',(1.,0.,0.));
#352=DIRECTION('center_axis',(1.,0.,0.));
#353=DIRECTION('ref_axis',(0.,-1.,-1.80411241501588E-16));
#354=DIRECTION('',(1.,0.,0.));
#355=DIRECTION('center_axis',(1.,0.,0.));
#356=DIRECTION('ref_axis',(0.,-1.,-1.80411241501588E-16));
#357=DIRECTION('',(1.,0.,0.));
#358=DIRECTION('center_axis',(1.,0.,0.));
#359=DIRECTION('ref_axis',(0.,-1.,-1.80411241501588E-16));
#360=DIRECTION('',(1.,0.,0.));
#361=DIRECTION('center_axis',(1.,0.,0.));
#362=DIRECTION('ref_axis',(0.,0.,1.));
#363=DIRECTION('',(0.,0.,-1.));
#364=DIRECTION('center_axis',(1.,0.,0.));
#365=DIRECTION('ref_axis',(0.,1.,0.));
#366=DIRECTION('center_axis',(-1.,0.,0.));
#367=DIRECTION('ref_axis',(0.,1.,0.));
#368=DIRECTION('center_axis',(0.,-1.,0.));
#369=DIRECTION('ref_axis',(0.,0.,-1.));
#370=DIRECTION('',(1.,0.,0.));
#371=DIRECTION('center_axis',(-1.,0.,0.));
#372=DIRECTION('ref_axis',(0.,1.,0.));
#373=DIRECTION('center_axis',(-1.,0.,0.));
#374=DIRECTION('ref_axis',(0.,1.,0.));
#375=DIRECTION('',(1.,0.,0.));
#376=DIRECTION('',(0.,0.,1.));
#377=DIRECTION('',(1.,0.,0.));
#378=CARTESIAN_POINT('',(0.,0.,0.));
#379=CARTESIAN_POINT('',(0.,0.,0.));
#380=CARTESIAN_POINT('Origin',(-53.25,30.,128.250002250075));
#381=CARTESIAN_POINT('',(-54.5,0.,129.500002250075));
#382=CARTESIAN_POINT('',(-52.,0.,127.000002250075));
#383=CARTESIAN_POINT('',(-55.8749994374812,2.22044604925031E-15,130.875001687556));
#384=CARTESIAN_POINT('',(-52.,30.,127.000002250075));
#385=CARTESIAN_POINT('',(-52.,30.,127.000002250075));
#386=CARTESIAN_POINT('',(-54.5,30.,129.500002250075));
#387=CARTESIAN_POINT('',(-63.3749994374812,30.,138.375001687556));
#388=CARTESIAN_POINT('',(-54.5,30.,129.500002250075));
#389=CARTESIAN_POINT('Origin',(-54.5,0.,118.000002250075));
#390=CARTESIAN_POINT('',(-54.5,30.,118.));
#391=CARTESIAN_POINT('',(-54.5,0.,118.000002250075));
#392=CARTESIAN_POINT('',(-54.5,0.,118.));
#393=CARTESIAN_POINT('',(-52.,30.,118.000002250075));
#394=CARTESIAN_POINT('',(-54.5,30.,118.000002250075));
#395=CARTESIAN_POINT('',(-52.,0.,118.000002250075));
#396=CARTESIAN_POINT('',(-52.,0.,118.000002250075));
#397=CARTESIAN_POINT('',(-54.5,0.,118.000002250075));
#398=CARTESIAN_POINT('Origin',(-52.,15.,122.500002250075));
#399=CARTESIAN_POINT('',(-52.,0.,127.000002250075));
#400=CARTESIAN_POINT('',(-52.,30.,118.000002250075));
#401=CARTESIAN_POINT('',(-52.,27.,123.));
#402=CARTESIAN_POINT('Origin',(-52.,25.,123.));
#403=CARTESIAN_POINT('',(-52.,17.0000000745058,123.));
#404=CARTESIAN_POINT('Origin',(-52.,15.0000000745058,123.));
#405=CARTESIAN_POINT('',(-52.,7.0000000745058,123.));
#406=CARTESIAN_POINT('Origin',(-52.,5.00000007450581,123.));
#407=CARTESIAN_POINT('Origin',(-57.25,7.5,119.));
#408=CARTESIAN_POINT('',(-60.,30.,120.));
#409=CARTESIAN_POINT('',(-65.3695255474452,30.,121.952554744525));
#410=CARTESIAN_POINT('',(-60.,0.,120.));
#411=CARTESIAN_POINT('',(-60.5520072992701,0.,120.200729927007));
#412=CARTESIAN_POINT('',(-60.,7.5,120.));
#413=CARTESIAN_POINT('Origin',(-60.,15.,93.939784837187));
#414=CARTESIAN_POINT('',(-60.,0.,162.));
#415=CARTESIAN_POINT('',(-60.,0.,132.));
#416=CARTESIAN_POINT('',(-60.,30.,162.));
#417=CARTESIAN_POINT('Origin',(-60.,15.,162.));
#418=CARTESIAN_POINT('',(-60.,30.,132.));
#419=CARTESIAN_POINT('',(-60.,7.00000000000001,162.));
#420=CARTESIAN_POINT('Origin',(-60.,15.,162.));
#421=CARTESIAN_POINT('',(-60.,7.0000000745058,123.));
#422=CARTESIAN_POINT('Origin',(-60.,5.00000007450581,123.));
#423=CARTESIAN_POINT('',(-60.,17.0000000745058,123.));
#424=CARTESIAN_POINT('Origin',(-60.,15.0000000745058,123.));
#425=CARTESIAN_POINT('',(-60.,27.,123.));
#426=CARTESIAN_POINT('Origin',(-60.,25.,123.));
#427=CARTESIAN_POINT('Origin',(-60.,0.,132.));
#428=CARTESIAN_POINT('',(-54.5,0.,162.));
#429=CARTESIAN_POINT('',(-54.5,0.,130.500001125038));
#430=CARTESIAN_POINT('',(-60.,0.,162.));
#431=CARTESIAN_POINT('Origin',(-60.,25.,123.));
#432=CARTESIAN_POINT('',(-60.,27.,123.));
#433=CARTESIAN_POINT('Origin',(-60.,15.0000000745058,123.));
#434=CARTESIAN_POINT('',(-60.,17.0000000745058,123.));
#435=CARTESIAN_POINT('Origin',(-60.,5.00000007450581,123.));
#436=CARTESIAN_POINT('',(-60.,7.0000000745058,123.));
#437=CARTESIAN_POINT('Origin',(-54.5,30.,138.000002250075));
#438=CARTESIAN_POINT('',(-54.5,30.,162.));
#439=CARTESIAN_POINT('',(-54.5,30.,135.500001125038));
#440=CARTESIAN_POINT('Origin',(-54.5,15.,162.));
#441=CARTESIAN_POINT('',(-54.5,7.00000000000001,162.));
#442=CARTESIAN_POINT('Origin',(-54.5,15.,162.));
#443=CARTESIAN_POINT('Origin',(-60.,30.,162.));
#444=CARTESIAN_POINT('',(-60.,30.,162.));
#445=CARTESIAN_POINT('Origin',(-60.,15.,162.));
#446=CARTESIAN_POINT('Origin',(-60.,15.,162.));
#447=CARTESIAN_POINT('',(-60.,7.00000000000001,162.));
#448=CARTESIAN_POINT('',(-2.5,0.,0.));
#449=UNCERTAINTY_MEASURE_WITH_UNIT(LENGTH_MEASURE(0.01),#455,
'DISTANCE_ACCURACY_VALUE',
'Maximum model space distance between geometric entities at asserted c
onnectivities');
#450=UNCERTAINTY_MEASURE_WITH_UNIT(LENGTH_MEASURE(0.01),#455,
'DISTANCE_ACCURACY_VALUE',
'Maximum model space distance between geometric entities at asserted c
onnectivities');
#451=UNCERTAINTY_MEASURE_WITH_UNIT(LENGTH_MEASURE(0.01),#455,
'DISTANCE_ACCURACY_VALUE',
'Maximum model space distance between geometric entities at asserted c
onnectivities');
#452=(
GEOMETRIC_REPRESENTATION_CONTEXT(3)
GLOBAL_UNCERTAINTY_ASSIGNED_CONTEXT((#449))
GLOBAL_UNIT_ASSIGNED_CONTEXT((#455,#457,#458))
REPRESENTATION_CONTEXT('','3D')
);
#453=(
GEOMETRIC_REPRESENTATION_CONTEXT(3)
GLOBAL_UNCERTAINTY_ASSIGNED_CONTEXT((#450))
GLOBAL_UNIT_ASSIGNED_CONTEXT((#455,#457,#458))
REPRESENTATION_CONTEXT('','3D')
);
#454=(
GEOMETRIC_REPRESENTATION_CONTEXT(3)
GLOBAL_UNCERTAINTY_ASSIGNED_CONTEXT((#451))
GLOBAL_UNIT_ASSIGNED_CONTEXT((#455,#457,#458))
REPRESENTATION_CONTEXT('','3D')
);
#455=(
LENGTH_UNIT()
NAMED_UNIT(*)
SI_UNIT(.MILLI.,.METRE.)
);
#456=(
LENGTH_UNIT()
NAMED_UNIT(*)
SI_UNIT($,.METRE.)
);
#457=(
NAMED_UNIT(*)
PLANE_ANGLE_UNIT()
SI_UNIT($,.RADIAN.)
);
#458=(
NAMED_UNIT(*)
SI_UNIT($,.STERADIAN.)
SOLID_ANGLE_UNIT()
);
#459=SHAPE_DEFINITION_REPRESENTATION(#461,#464);
#460=SHAPE_DEFINITION_REPRESENTATION(#462,#465);
#461=PRODUCT_DEFINITION_SHAPE('',$,#467);
#462=PRODUCT_DEFINITION_SHAPE('',$,#468);
#463=PRODUCT_DEFINITION_SHAPE($,$,#14);
#464=SHAPE_REPRESENTATION('',(#277,#302),#452);
#465=SHAPE_REPRESENTATION('',(#278),#453);
#466=PRODUCT_DEFINITION_CONTEXT('part definition',#474,'design');
#467=PRODUCT_DEFINITION('Leg V1','Leg V1 v22',#469,#466);
#468=PRODUCT_DEFINITION('Lower Leg hoop left','Lower Leg hoop left',#470,
#466);
#469=PRODUCT_DEFINITION_FORMATION('',$,#476);
#470=PRODUCT_DEFINITION_FORMATION('',$,#477);
#471=PRODUCT_RELATED_PRODUCT_CATEGORY('Leg V1 v22','Leg V1 v22',(#476));
#472=PRODUCT_RELATED_PRODUCT_CATEGORY('Lower Leg hoop left',
'Lower Leg hoop left',(#477));
#473=APPLICATION_PROTOCOL_DEFINITION('international standard',
'automotive_design',2009,#474);
#474=APPLICATION_CONTEXT(
'Core Data for Automotive Mechanical Design Process');
#475=PRODUCT_CONTEXT('part definition',#474,'mechanical');
#476=PRODUCT('Leg V1','Leg V1 v22',$,(#475));
#477=PRODUCT('Lower Leg hoop left','Lower Leg hoop left',$,(#475));
#478=PRESENTATION_STYLE_ASSIGNMENT((#480));
#479=PRESENTATION_STYLE_ASSIGNMENT((#481));
#480=SURFACE_STYLE_USAGE(.BOTH.,#482);
#481=SURFACE_STYLE_USAGE(.BOTH.,#483);
#482=SURFACE_SIDE_STYLE('',(#484));
#483=SURFACE_SIDE_STYLE('',(#485));
#484=SURFACE_STYLE_FILL_AREA(#486);
#485=SURFACE_STYLE_FILL_AREA(#487);
#486=FILL_AREA_STYLE('Steel - Satin',(#488));
#487=FILL_AREA_STYLE('ABS (White)',(#489));
#488=FILL_AREA_STYLE_COLOUR('Steel - Satin',#490);
#489=FILL_AREA_STYLE_COLOUR('ABS (White)',#491);
#490=COLOUR_RGB('Steel - Satin',0.627450980392157,0.627450980392157,0.627450980392157);
#491=COLOUR_RGB('ABS (White)',0.964705882352941,0.964705882352941,0.952941176470588);
ENDSEC;
END-ISO-10303-21;
