ISO-10303-21;
HEADER;
/* Generated by software containing ST-Developer
 * from STEP Tools, Inc. (www.steptools.com) 
 */

FILE_DESCRIPTION(
/* description */ (''),
/* implementation_level */ '2;1');

FILE_NAME(
/* name */ 'Middle Leg Front.step',
/* time_stamp */ '2025-09-30T07:46:07+02:00',
/* author */ (''),
/* organization */ (''),
/* preprocessor_version */ 'ST-DEVELOPER v20.1',
/* originating_system */ 'Autodesk Translation Framework v14.17.0.0',
/* authorisation */ '');

FILE_SCHEMA (('AUTOMOTIVE_DESIGN { 1 0 10303 214 3 1 1 }'));
ENDSEC;

DATA;
#10=MECHANICAL_DESIGN_GEOMETRIC_PRESENTATION_REPRESENTATION('',(#17),#2142);
#11=ITEM_DEFINED_TRANSFORMATION($,$,#1334,#1428);
#12=(
REPRESENTATION_RELATIONSHIP($,$,#2153,#2152)
REPRESENTATION_RELATIONSHIP_WITH_TRANSFORMATION(#11)
SHAPE_REPRESENTATION_RELATIONSHIP()
);
#13=CONTEXT_DEPENDENT_SHAPE_REPRESENTATION(#12,#2151);
#14=NEXT_ASSEMBLY_USAGE_OCCURRENCE('Middle Leg Front:1',
'Middle Leg Front:1','Middle Leg Front:1',#2155,#2156,
'Middle Leg Front:1');
#15=SHAPE_REPRESENTATION_RELATIONSHIP('SRR','None',#2153,#16);
#16=ADVANCED_BREP_SHAPE_REPRESENTATION('',(#18),#2141);
#17=STYLED_ITEM('',(#2167),#18);
#18=MANIFOLD_SOLID_BREP('Middle Leg Front',#1320);
#19=CONICAL_SURFACE('',#1405,3.7,0.785398163397437);
#20=CONICAL_SURFACE('',#1408,3.70000005215406,0.785398163397437);
#21=CYLINDRICAL_SURFACE('',#1368,2.1);
#22=CYLINDRICAL_SURFACE('',#1370,2.1);
#23=CYLINDRICAL_SURFACE('',#1372,2.10000000000001);
#24=CYLINDRICAL_SURFACE('',#1374,2.10000000000001);
#25=CYLINDRICAL_SURFACE('',#1376,2.10000000000001);
#26=CYLINDRICAL_SURFACE('',#1378,2.09999999999999);
#27=CYLINDRICAL_SURFACE('',#1380,2.1);
#28=CYLINDRICAL_SURFACE('',#1382,2.1);
#29=CYLINDRICAL_SURFACE('',#1393,3.50000005215406);
#30=CYLINDRICAL_SURFACE('',#1409,3.50000000000001);
#31=CYLINDRICAL_SURFACE('',#1417,1.6);
#32=CYLINDRICAL_SURFACE('',#1418,1.6);
#33=CYLINDRICAL_SURFACE('',#1419,1.59999999999999);
#34=FACE_BOUND('',#156,.T.);
#35=FACE_BOUND('',#157,.T.);
#36=FACE_BOUND('',#158,.T.);
#37=FACE_BOUND('',#180,.T.);
#38=FACE_BOUND('',#181,.T.);
#39=FACE_BOUND('',#182,.T.);
#40=FACE_BOUND('',#183,.T.);
#41=FACE_BOUND('',#184,.T.);
#42=FACE_BOUND('',#185,.T.);
#43=FACE_BOUND('',#186,.T.);
#44=FACE_BOUND('',#187,.T.);
#45=FACE_BOUND('',#188,.T.);
#46=FACE_BOUND('',#189,.T.);
#47=FACE_BOUND('',#190,.T.);
#48=FACE_BOUND('',#200,.T.);
#49=FACE_BOUND('',#201,.T.);
#50=FACE_BOUND('',#202,.T.);
#51=FACE_BOUND('',#203,.T.);
#52=FACE_BOUND('',#204,.T.);
#53=FACE_BOUND('',#205,.T.);
#54=FACE_BOUND('',#206,.T.);
#55=FACE_BOUND('',#207,.T.);
#56=FACE_BOUND('',#208,.T.);
#57=FACE_BOUND('',#209,.T.);
#58=FACE_BOUND('',#210,.T.);
#59=FACE_BOUND('',#212,.T.);
#60=FACE_BOUND('',#213,.T.);
#61=FACE_BOUND('',#214,.T.);
#62=CIRCLE('',#1336,1.59999999999999);
#63=CIRCLE('',#1337,1.6);
#64=CIRCLE('',#1338,1.6);
#65=CIRCLE('',#1360,2.1);
#66=CIRCLE('',#1361,2.1);
#67=CIRCLE('',#1362,2.10000000000001);
#68=CIRCLE('',#1363,2.10000000000001);
#69=CIRCLE('',#1364,2.10000000000001);
#70=CIRCLE('',#1365,2.09999999999999);
#71=CIRCLE('',#1366,2.1);
#72=CIRCLE('',#1367,2.1);
#73=CIRCLE('',#1369,2.1);
#74=CIRCLE('',#1371,2.1);
#75=CIRCLE('',#1373,2.10000000000001);
#76=CIRCLE('',#1375,2.10000000000001);
#77=CIRCLE('',#1377,2.10000000000001);
#78=CIRCLE('',#1379,2.09999999999999);
#79=CIRCLE('',#1381,2.1);
#80=CIRCLE('',#1383,2.1);
#81=CIRCLE('',#1385,3.9);
#82=CIRCLE('',#1386,3.90000005215406);
#83=CIRCLE('',#1388,3.50000000000001);
#84=CIRCLE('',#1389,3.50000005215406);
#85=CIRCLE('',#1390,1.59999999999999);
#86=CIRCLE('',#1391,1.6);
#87=CIRCLE('',#1392,1.6);
#88=CIRCLE('',#1394,3.50000005215406);
#89=CIRCLE('',#1406,3.50000000000001);
#90=FACE_OUTER_BOUND('',#155,.T.);
#91=FACE_OUTER_BOUND('',#159,.T.);
#92=FACE_OUTER_BOUND('',#160,.T.);
#93=FACE_OUTER_BOUND('',#161,.T.);
#94=FACE_OUTER_BOUND('',#162,.T.);
#95=FACE_OUTER_BOUND('',#163,.T.);
#96=FACE_OUTER_BOUND('',#164,.T.);
#97=FACE_OUTER_BOUND('',#165,.T.);
#98=FACE_OUTER_BOUND('',#166,.T.);
#99=FACE_OUTER_BOUND('',#167,.T.);
#100=FACE_OUTER_BOUND('',#168,.T.);
#101=FACE_OUTER_BOUND('',#169,.T.);
#102=FACE_OUTER_BOUND('',#170,.T.);
#103=FACE_OUTER_BOUND('',#171,.T.);
#104=FACE_OUTER_BOUND('',#172,.T.);
#105=FACE_OUTER_BOUND('',#173,.T.);
#106=FACE_OUTER_BOUND('',#174,.T.);
#107=FACE_OUTER_BOUND('',#175,.T.);
#108=FACE_OUTER_BOUND('',#176,.T.);
#109=FACE_OUTER_BOUND('',#177,.T.);
#110=FACE_OUTER_BOUND('',#178,.T.);
#111=FACE_OUTER_BOUND('',#179,.T.);
#112=FACE_OUTER_BOUND('',#191,.T.);
#113=FACE_OUTER_BOUND('',#192,.T.);
#114=FACE_OUTER_BOUND('',#193,.T.);
#115=FACE_OUTER_BOUND('',#194,.T.);
#116=FACE_OUTER_BOUND('',#195,.T.);
#117=FACE_OUTER_BOUND('',#196,.T.);
#118=FACE_OUTER_BOUND('',#197,.T.);
#119=FACE_OUTER_BOUND('',#198,.T.);
#120=FACE_OUTER_BOUND('',#199,.T.);
#121=FACE_OUTER_BOUND('',#211,.T.);
#122=FACE_OUTER_BOUND('',#215,.T.);
#123=FACE_OUTER_BOUND('',#216,.T.);
#124=FACE_OUTER_BOUND('',#217,.T.);
#125=FACE_OUTER_BOUND('',#218,.T.);
#126=FACE_OUTER_BOUND('',#219,.T.);
#127=FACE_OUTER_BOUND('',#220,.T.);
#128=FACE_OUTER_BOUND('',#221,.T.);
#129=FACE_OUTER_BOUND('',#222,.T.);
#130=FACE_OUTER_BOUND('',#223,.T.);
#131=FACE_OUTER_BOUND('',#224,.T.);
#132=FACE_OUTER_BOUND('',#225,.T.);
#133=FACE_OUTER_BOUND('',#226,.T.);
#134=FACE_OUTER_BOUND('',#227,.T.);
#135=FACE_OUTER_BOUND('',#228,.T.);
#136=FACE_OUTER_BOUND('',#229,.T.);
#137=FACE_OUTER_BOUND('',#230,.T.);
#138=FACE_OUTER_BOUND('',#231,.T.);
#139=FACE_OUTER_BOUND('',#232,.T.);
#140=FACE_OUTER_BOUND('',#233,.T.);
#141=FACE_OUTER_BOUND('',#234,.T.);
#142=FACE_OUTER_BOUND('',#235,.T.);
#143=FACE_OUTER_BOUND('',#236,.T.);
#144=FACE_OUTER_BOUND('',#237,.T.);
#145=FACE_OUTER_BOUND('',#238,.T.);
#146=FACE_OUTER_BOUND('',#239,.T.);
#147=FACE_OUTER_BOUND('',#240,.T.);
#148=FACE_OUTER_BOUND('',#241,.T.);
#149=FACE_OUTER_BOUND('',#242,.T.);
#150=FACE_OUTER_BOUND('',#243,.T.);
#151=FACE_OUTER_BOUND('',#244,.T.);
#152=FACE_OUTER_BOUND('',#245,.T.);
#153=FACE_OUTER_BOUND('',#246,.T.);
#154=FACE_OUTER_BOUND('',#247,.T.);
#155=EDGE_LOOP('',(#847,#848,#849,#850));
#156=EDGE_LOOP('',(#851));
#157=EDGE_LOOP('',(#852));
#158=EDGE_LOOP('',(#853));
#159=EDGE_LOOP('',(#854,#855,#856,#857));
#160=EDGE_LOOP('',(#858,#859,#860,#861,#862));
#161=EDGE_LOOP('',(#863,#864,#865,#866));
#162=EDGE_LOOP('',(#867,#868,#869,#870));
#163=EDGE_LOOP('',(#871,#872,#873,#874,#875));
#164=EDGE_LOOP('',(#876,#877,#878,#879));
#165=EDGE_LOOP('',(#880,#881,#882,#883));
#166=EDGE_LOOP('',(#884,#885,#886,#887,#888));
#167=EDGE_LOOP('',(#889,#890,#891,#892));
#168=EDGE_LOOP('',(#893,#894,#895,#896));
#169=EDGE_LOOP('',(#897,#898,#899,#900,#901));
#170=EDGE_LOOP('',(#902,#903,#904,#905));
#171=EDGE_LOOP('',(#906,#907,#908,#909,#910));
#172=EDGE_LOOP('',(#911,#912,#913,#914));
#173=EDGE_LOOP('',(#915,#916,#917,#918,#919));
#174=EDGE_LOOP('',(#920,#921,#922,#923));
#175=EDGE_LOOP('',(#924,#925,#926,#927,#928));
#176=EDGE_LOOP('',(#929,#930,#931,#932));
#177=EDGE_LOOP('',(#933,#934,#935,#936,#937));
#178=EDGE_LOOP('',(#938,#939,#940,#941));
#179=EDGE_LOOP('',(#942,#943,#944,#945,#946,#947,#948,#949));
#180=EDGE_LOOP('',(#950));
#181=EDGE_LOOP('',(#951));
#182=EDGE_LOOP('',(#952));
#183=EDGE_LOOP('',(#953));
#184=EDGE_LOOP('',(#954));
#185=EDGE_LOOP('',(#955));
#186=EDGE_LOOP('',(#956));
#187=EDGE_LOOP('',(#957));
#188=EDGE_LOOP('',(#958,#959,#960,#961));
#189=EDGE_LOOP('',(#962,#963,#964,#965,#966,#967,#968,#969,#970,#971,#972,
#973));
#190=EDGE_LOOP('',(#974,#975,#976,#977,#978,#979,#980,#981,#982,#983,#984,
#985));
#191=EDGE_LOOP('',(#986,#987,#988,#989));
#192=EDGE_LOOP('',(#990,#991,#992,#993));
#193=EDGE_LOOP('',(#994,#995,#996,#997));
#194=EDGE_LOOP('',(#998,#999,#1000,#1001));
#195=EDGE_LOOP('',(#1002,#1003,#1004,#1005));
#196=EDGE_LOOP('',(#1006,#1007,#1008,#1009));
#197=EDGE_LOOP('',(#1010,#1011,#1012,#1013));
#198=EDGE_LOOP('',(#1014,#1015,#1016,#1017));
#199=EDGE_LOOP('',(#1018,#1019,#1020,#1021,#1022,#1023,#1024,#1025));
#200=EDGE_LOOP('',(#1026));
#201=EDGE_LOOP('',(#1027));
#202=EDGE_LOOP('',(#1028));
#203=EDGE_LOOP('',(#1029));
#204=EDGE_LOOP('',(#1030));
#205=EDGE_LOOP('',(#1031));
#206=EDGE_LOOP('',(#1032));
#207=EDGE_LOOP('',(#1033));
#208=EDGE_LOOP('',(#1034,#1035,#1036,#1037));
#209=EDGE_LOOP('',(#1038,#1039,#1040,#1041));
#210=EDGE_LOOP('',(#1042,#1043,#1044,#1045));
#211=EDGE_LOOP('',(#1046,#1047,#1048,#1049));
#212=EDGE_LOOP('',(#1050));
#213=EDGE_LOOP('',(#1051));
#214=EDGE_LOOP('',(#1052));
#215=EDGE_LOOP('',(#1053,#1054,#1055,#1056));
#216=EDGE_LOOP('',(#1057,#1058,#1059,#1060));
#217=EDGE_LOOP('',(#1061,#1062,#1063,#1064));
#218=EDGE_LOOP('',(#1065,#1066,#1067,#1068));
#219=EDGE_LOOP('',(#1069,#1070,#1071,#1072));
#220=EDGE_LOOP('',(#1073,#1074,#1075,#1076));
#221=EDGE_LOOP('',(#1077,#1078,#1079,#1080));
#222=EDGE_LOOP('',(#1081,#1082,#1083,#1084,#1085));
#223=EDGE_LOOP('',(#1086,#1087,#1088,#1089));
#224=EDGE_LOOP('',(#1090,#1091,#1092,#1093,#1094));
#225=EDGE_LOOP('',(#1095,#1096,#1097,#1098));
#226=EDGE_LOOP('',(#1099,#1100,#1101,#1102));
#227=EDGE_LOOP('',(#1103,#1104,#1105,#1106));
#228=EDGE_LOOP('',(#1107,#1108,#1109,#1110));
#229=EDGE_LOOP('',(#1111,#1112,#1113,#1114));
#230=EDGE_LOOP('',(#1115,#1116,#1117,#1118));
#231=EDGE_LOOP('',(#1119,#1120,#1121,#1122,#1123));
#232=EDGE_LOOP('',(#1124,#1125,#1126,#1127));
#233=EDGE_LOOP('',(#1128,#1129,#1130,#1131));
#234=EDGE_LOOP('',(#1132,#1133,#1134,#1135,#1136));
#235=EDGE_LOOP('',(#1137,#1138,#1139,#1140));
#236=EDGE_LOOP('',(#1141,#1142,#1143,#1144));
#237=EDGE_LOOP('',(#1145,#1146,#1147,#1148));
#238=EDGE_LOOP('',(#1149,#1150,#1151,#1152));
#239=EDGE_LOOP('',(#1153,#1154,#1155,#1156));
#240=EDGE_LOOP('',(#1157,#1158,#1159,#1160));
#241=EDGE_LOOP('',(#1161,#1162,#1163,#1164,#1165,#1166,#1167,#1168));
#242=EDGE_LOOP('',(#1169,#1170,#1171,#1172));
#243=EDGE_LOOP('',(#1173,#1174,#1175,#1176,#1177,#1178,#1179,#1180));
#244=EDGE_LOOP('',(#1181,#1182,#1183,#1184,#1185,#1186,#1187,#1188));
#245=EDGE_LOOP('',(#1189,#1190,#1191,#1192));
#246=EDGE_LOOP('',(#1193,#1194,#1195,#1196,#1197,#1198,#1199,#1200));
#247=EDGE_LOOP('',(#1201,#1202,#1203,#1204));
#248=LINE('',#1777,#399);
#249=LINE('',#1779,#400);
#250=LINE('',#1781,#401);
#251=LINE('',#1782,#402);
#252=LINE('',#1792,#403);
#253=LINE('',#1794,#404);
#254=LINE('',#1796,#405);
#255=LINE('',#1797,#406);
#256=LINE('',#1800,#407);
#257=LINE('',#1802,#408);
#258=LINE('',#1804,#409);
#259=LINE('',#1805,#410);
#260=LINE('',#1808,#411);
#261=LINE('',#1809,#412);
#262=LINE('',#1813,#413);
#263=LINE('',#1815,#414);
#264=LINE('',#1817,#415);
#265=LINE('',#1818,#416);
#266=LINE('',#1821,#417);
#267=LINE('',#1823,#418);
#268=LINE('',#1825,#419);
#269=LINE('',#1826,#420);
#270=LINE('',#1829,#421);
#271=LINE('',#1830,#422);
#272=LINE('',#1834,#423);
#273=LINE('',#1836,#424);
#274=LINE('',#1838,#425);
#275=LINE('',#1839,#426);
#276=LINE('',#1842,#427);
#277=LINE('',#1844,#428);
#278=LINE('',#1846,#429);
#279=LINE('',#1847,#430);
#280=LINE('',#1850,#431);
#281=LINE('',#1851,#432);
#282=LINE('',#1855,#433);
#283=LINE('',#1857,#434);
#284=LINE('',#1859,#435);
#285=LINE('',#1860,#436);
#286=LINE('',#1863,#437);
#287=LINE('',#1865,#438);
#288=LINE('',#1867,#439);
#289=LINE('',#1868,#440);
#290=LINE('',#1871,#441);
#291=LINE('',#1872,#442);
#292=LINE('',#1875,#443);
#293=LINE('',#1877,#444);
#294=LINE('',#1878,#445);
#295=LINE('',#1880,#446);
#296=LINE('',#1883,#447);
#297=LINE('',#1885,#448);
#298=LINE('',#1886,#449);
#299=LINE('',#1888,#450);
#300=LINE('',#1891,#451);
#301=LINE('',#1893,#452);
#302=LINE('',#1894,#453);
#303=LINE('',#1896,#454);
#304=LINE('',#1899,#455);
#305=LINE('',#1901,#456);
#306=LINE('',#1902,#457);
#307=LINE('',#1904,#458);
#308=LINE('',#1908,#459);
#309=LINE('',#1910,#460);
#310=LINE('',#1912,#461);
#311=LINE('',#1914,#462);
#312=LINE('',#1916,#463);
#313=LINE('',#1918,#464);
#314=LINE('',#1920,#465);
#315=LINE('',#1921,#466);
#316=LINE('',#1940,#467);
#317=LINE('',#1942,#468);
#318=LINE('',#1944,#469);
#319=LINE('',#1945,#470);
#320=LINE('',#1947,#471);
#321=LINE('',#1949,#472);
#322=LINE('',#1950,#473);
#323=LINE('',#1952,#474);
#324=LINE('',#1954,#475);
#325=LINE('',#1955,#476);
#326=LINE('',#1957,#477);
#327=LINE('',#1959,#478);
#328=LINE('',#1960,#479);
#329=LINE('',#1962,#480);
#330=LINE('',#1964,#481);
#331=LINE('',#1965,#482);
#332=LINE('',#1968,#483);
#333=LINE('',#1972,#484);
#334=LINE('',#1976,#485);
#335=LINE('',#1980,#486);
#336=LINE('',#1984,#487);
#337=LINE('',#1988,#488);
#338=LINE('',#1992,#489);
#339=LINE('',#1996,#490);
#340=LINE('',#2001,#491);
#341=LINE('',#2003,#492);
#342=LINE('',#2005,#493);
#343=LINE('',#2007,#494);
#344=LINE('',#2009,#495);
#345=LINE('',#2011,#496);
#346=LINE('',#2013,#497);
#347=LINE('',#2014,#498);
#348=LINE('',#2017,#499);
#349=LINE('',#2019,#500);
#350=LINE('',#2021,#501);
#351=LINE('',#2022,#502);
#352=LINE('',#2025,#503);
#353=LINE('',#2027,#504);
#354=LINE('',#2029,#505);
#355=LINE('',#2030,#506);
#356=LINE('',#2033,#507);
#357=LINE('',#2037,#508);
#358=LINE('',#2044,#509);
#359=LINE('',#2047,#510);
#360=LINE('',#2056,#511);
#361=LINE('',#2059,#512);
#362=LINE('',#2062,#513);
#363=LINE('',#2063,#514);
#364=LINE('',#2065,#515);
#365=LINE('',#2066,#516);
#366=LINE('',#2068,#517);
#367=LINE('',#2070,#518);
#368=LINE('',#2074,#519);
#369=LINE('',#2076,#520);
#370=LINE('',#2077,#521);
#371=LINE('',#2079,#522);
#372=LINE('',#2080,#523);
#373=LINE('',#2083,#524);
#374=LINE('',#2085,#525);
#375=LINE('',#2086,#526);
#376=LINE('',#2088,#527);
#377=LINE('',#2089,#528);
#378=LINE('',#2091,#529);
#379=LINE('',#2092,#530);
#380=LINE('',#2095,#531);
#381=LINE('',#2098,#532);
#382=LINE('',#2099,#533);
#383=LINE('',#2102,#534);
#384=LINE('',#2105,#535);
#385=LINE('',#2106,#536);
#386=LINE('',#2109,#537);
#387=LINE('',#2111,#538);
#388=LINE('',#2115,#539);
#389=LINE('',#2117,#540);
#390=LINE('',#2119,#541);
#391=LINE('',#2121,#542);
#392=LINE('',#2122,#543);
#393=LINE('',#2124,#544);
#394=LINE('',#2126,#545);
#395=LINE('',#2129,#546);
#396=LINE('',#2130,#547);
#397=LINE('',#2132,#548);
#398=LINE('',#2134,#549);
#399=VECTOR('',#1435,10.);
#400=VECTOR('',#1436,10.);
#401=VECTOR('',#1437,10.);
#402=VECTOR('',#1438,10.);
#403=VECTOR('',#1447,10.);
#404=VECTOR('',#1448,10.);
#405=VECTOR('',#1449,10.);
#406=VECTOR('',#1450,10.);
#407=VECTOR('',#1453,10.);
#408=VECTOR('',#1454,10.);
#409=VECTOR('',#1455,10.);
#410=VECTOR('',#1456,10.);
#411=VECTOR('',#1459,10.);
#412=VECTOR('',#1460,10.);
#413=VECTOR('',#1463,10.);
#414=VECTOR('',#1464,10.);
#415=VECTOR('',#1465,10.);
#416=VECTOR('',#1466,10.);
#417=VECTOR('',#1469,10.);
#418=VECTOR('',#1470,10.);
#419=VECTOR('',#1471,10.);
#420=VECTOR('',#1472,10.);
#421=VECTOR('',#1475,10.);
#422=VECTOR('',#1476,10.);
#423=VECTOR('',#1479,10.);
#424=VECTOR('',#1480,10.);
#425=VECTOR('',#1481,10.);
#426=VECTOR('',#1482,10.);
#427=VECTOR('',#1485,10.);
#428=VECTOR('',#1486,10.);
#429=VECTOR('',#1487,10.);
#430=VECTOR('',#1488,10.);
#431=VECTOR('',#1491,10.);
#432=VECTOR('',#1492,10.);
#433=VECTOR('',#1495,10.);
#434=VECTOR('',#1496,10.);
#435=VECTOR('',#1497,10.);
#436=VECTOR('',#1498,10.);
#437=VECTOR('',#1501,10.);
#438=VECTOR('',#1502,10.);
#439=VECTOR('',#1503,10.);
#440=VECTOR('',#1504,10.);
#441=VECTOR('',#1507,10.);
#442=VECTOR('',#1508,10.);
#443=VECTOR('',#1511,10.);
#444=VECTOR('',#1512,10.);
#445=VECTOR('',#1513,10.);
#446=VECTOR('',#1516,10.);
#447=VECTOR('',#1519,10.);
#448=VECTOR('',#1520,10.);
#449=VECTOR('',#1521,10.);
#450=VECTOR('',#1524,10.);
#451=VECTOR('',#1527,10.);
#452=VECTOR('',#1528,10.);
#453=VECTOR('',#1529,10.);
#454=VECTOR('',#1532,10.);
#455=VECTOR('',#1535,10.);
#456=VECTOR('',#1536,10.);
#457=VECTOR('',#1537,10.);
#458=VECTOR('',#1540,10.);
#459=VECTOR('',#1543,10.);
#460=VECTOR('',#1544,10.);
#461=VECTOR('',#1545,10.);
#462=VECTOR('',#1546,10.);
#463=VECTOR('',#1547,10.);
#464=VECTOR('',#1548,10.);
#465=VECTOR('',#1549,10.);
#466=VECTOR('',#1550,10.);
#467=VECTOR('',#1567,10.);
#468=VECTOR('',#1568,10.);
#469=VECTOR('',#1569,10.);
#470=VECTOR('',#1570,10.);
#471=VECTOR('',#1571,10.);
#472=VECTOR('',#1572,10.);
#473=VECTOR('',#1573,10.);
#474=VECTOR('',#1574,10.);
#475=VECTOR('',#1575,10.);
#476=VECTOR('',#1576,10.);
#477=VECTOR('',#1577,10.);
#478=VECTOR('',#1578,10.);
#479=VECTOR('',#1579,10.);
#480=VECTOR('',#1580,10.);
#481=VECTOR('',#1581,10.);
#482=VECTOR('',#1582,10.);
#483=VECTOR('',#1585,2.1);
#484=VECTOR('',#1590,2.1);
#485=VECTOR('',#1595,2.10000000000001);
#486=VECTOR('',#1600,2.10000000000001);
#487=VECTOR('',#1605,2.10000000000001);
#488=VECTOR('',#1610,2.09999999999999);
#489=VECTOR('',#1615,2.1);
#490=VECTOR('',#1620,2.1);
#491=VECTOR('',#1625,10.);
#492=VECTOR('',#1626,10.);
#493=VECTOR('',#1627,10.);
#494=VECTOR('',#1628,10.);
#495=VECTOR('',#1629,10.);
#496=VECTOR('',#1630,10.);
#497=VECTOR('',#1631,10.);
#498=VECTOR('',#1632,10.);
#499=VECTOR('',#1633,10.);
#500=VECTOR('',#1634,10.);
#501=VECTOR('',#1635,10.);
#502=VECTOR('',#1636,10.);
#503=VECTOR('',#1637,10.);
#504=VECTOR('',#1638,10.);
#505=VECTOR('',#1639,10.);
#506=VECTOR('',#1640,10.);
#507=VECTOR('',#1641,10.);
#508=VECTOR('',#1644,10.);
#509=VECTOR('',#1651,10.);
#510=VECTOR('',#1654,10.);
#511=VECTOR('',#1663,10.);
#512=VECTOR('',#1666,10.);
#513=VECTOR('',#1669,10.);
#514=VECTOR('',#1670,10.);
#515=VECTOR('',#1673,10.);
#516=VECTOR('',#1674,10.);
#517=VECTOR('',#1677,10.);
#518=VECTOR('',#1680,10.);
#519=VECTOR('',#1685,10.);
#520=VECTOR('',#1686,10.);
#521=VECTOR('',#1687,10.);
#522=VECTOR('',#1690,10.);
#523=VECTOR('',#1691,10.);
#524=VECTOR('',#1694,10.);
#525=VECTOR('',#1695,10.);
#526=VECTOR('',#1696,10.);
#527=VECTOR('',#1699,10.);
#528=VECTOR('',#1700,10.);
#529=VECTOR('',#1703,10.);
#530=VECTOR('',#1704,10.);
#531=VECTOR('',#1707,10.);
#532=VECTOR('',#1712,10.);
#533=VECTOR('',#1713,10.);
#534=VECTOR('',#1718,10.);
#535=VECTOR('',#1723,10.);
#536=VECTOR('',#1724,10.);
#537=VECTOR('',#1729,10.);
#538=VECTOR('',#1732,10.);
#539=VECTOR('',#1739,1.6);
#540=VECTOR('',#1742,1.6);
#541=VECTOR('',#1745,1.59999999999999);
#542=VECTOR('',#1748,10.);
#543=VECTOR('',#1749,10.);
#544=VECTOR('',#1752,10.);
#545=VECTOR('',#1755,10.);
#546=VECTOR('',#1760,10.);
#547=VECTOR('',#1761,10.);
#548=VECTOR('',#1764,10.);
#549=VECTOR('',#1767,10.);
#550=VERTEX_POINT('',#1775);
#551=VERTEX_POINT('',#1776);
#552=VERTEX_POINT('',#1778);
#553=VERTEX_POINT('',#1780);
#554=VERTEX_POINT('',#1783);
#555=VERTEX_POINT('',#1785);
#556=VERTEX_POINT('',#1787);
#557=VERTEX_POINT('',#1790);
#558=VERTEX_POINT('',#1791);
#559=VERTEX_POINT('',#1793);
#560=VERTEX_POINT('',#1795);
#561=VERTEX_POINT('',#1799);
#562=VERTEX_POINT('',#1801);
#563=VERTEX_POINT('',#1803);
#564=VERTEX_POINT('',#1807);
#565=VERTEX_POINT('',#1811);
#566=VERTEX_POINT('',#1812);
#567=VERTEX_POINT('',#1814);
#568=VERTEX_POINT('',#1816);
#569=VERTEX_POINT('',#1820);
#570=VERTEX_POINT('',#1822);
#571=VERTEX_POINT('',#1824);
#572=VERTEX_POINT('',#1828);
#573=VERTEX_POINT('',#1832);
#574=VERTEX_POINT('',#1833);
#575=VERTEX_POINT('',#1835);
#576=VERTEX_POINT('',#1837);
#577=VERTEX_POINT('',#1841);
#578=VERTEX_POINT('',#1843);
#579=VERTEX_POINT('',#1845);
#580=VERTEX_POINT('',#1849);
#581=VERTEX_POINT('',#1853);
#582=VERTEX_POINT('',#1854);
#583=VERTEX_POINT('',#1856);
#584=VERTEX_POINT('',#1858);
#585=VERTEX_POINT('',#1862);
#586=VERTEX_POINT('',#1864);
#587=VERTEX_POINT('',#1866);
#588=VERTEX_POINT('',#1870);
#589=VERTEX_POINT('',#1874);
#590=VERTEX_POINT('',#1876);
#591=VERTEX_POINT('',#1882);
#592=VERTEX_POINT('',#1884);
#593=VERTEX_POINT('',#1890);
#594=VERTEX_POINT('',#1892);
#595=VERTEX_POINT('',#1898);
#596=VERTEX_POINT('',#1900);
#597=VERTEX_POINT('',#1906);
#598=VERTEX_POINT('',#1907);
#599=VERTEX_POINT('',#1909);
#600=VERTEX_POINT('',#1911);
#601=VERTEX_POINT('',#1913);
#602=VERTEX_POINT('',#1915);
#603=VERTEX_POINT('',#1917);
#604=VERTEX_POINT('',#1919);
#605=VERTEX_POINT('',#1922);
#606=VERTEX_POINT('',#1924);
#607=VERTEX_POINT('',#1926);
#608=VERTEX_POINT('',#1928);
#609=VERTEX_POINT('',#1930);
#610=VERTEX_POINT('',#1932);
#611=VERTEX_POINT('',#1934);
#612=VERTEX_POINT('',#1936);
#613=VERTEX_POINT('',#1938);
#614=VERTEX_POINT('',#1939);
#615=VERTEX_POINT('',#1941);
#616=VERTEX_POINT('',#1943);
#617=VERTEX_POINT('',#1946);
#618=VERTEX_POINT('',#1948);
#619=VERTEX_POINT('',#1951);
#620=VERTEX_POINT('',#1953);
#621=VERTEX_POINT('',#1956);
#622=VERTEX_POINT('',#1958);
#623=VERTEX_POINT('',#1961);
#624=VERTEX_POINT('',#1963);
#625=VERTEX_POINT('',#1967);
#626=VERTEX_POINT('',#1971);
#627=VERTEX_POINT('',#1975);
#628=VERTEX_POINT('',#1979);
#629=VERTEX_POINT('',#1983);
#630=VERTEX_POINT('',#1987);
#631=VERTEX_POINT('',#1991);
#632=VERTEX_POINT('',#1995);
#633=VERTEX_POINT('',#1999);
#634=VERTEX_POINT('',#2000);
#635=VERTEX_POINT('',#2002);
#636=VERTEX_POINT('',#2004);
#637=VERTEX_POINT('',#2006);
#638=VERTEX_POINT('',#2008);
#639=VERTEX_POINT('',#2010);
#640=VERTEX_POINT('',#2012);
#641=VERTEX_POINT('',#2015);
#642=VERTEX_POINT('',#2016);
#643=VERTEX_POINT('',#2018);
#644=VERTEX_POINT('',#2020);
#645=VERTEX_POINT('',#2023);
#646=VERTEX_POINT('',#2024);
#647=VERTEX_POINT('',#2026);
#648=VERTEX_POINT('',#2028);
#649=VERTEX_POINT('',#2031);
#650=VERTEX_POINT('',#2032);
#651=VERTEX_POINT('',#2034);
#652=VERTEX_POINT('',#2036);
#653=VERTEX_POINT('',#2040);
#654=VERTEX_POINT('',#2041);
#655=VERTEX_POINT('',#2043);
#656=VERTEX_POINT('',#2045);
#657=VERTEX_POINT('',#2048);
#658=VERTEX_POINT('',#2050);
#659=VERTEX_POINT('',#2052);
#660=VERTEX_POINT('',#2055);
#661=VERTEX_POINT('',#2057);
#662=VERTEX_POINT('',#2061);
#663=VERTEX_POINT('',#2073);
#664=VERTEX_POINT('',#2075);
#665=VERTEX_POINT('',#2082);
#666=VERTEX_POINT('',#2084);
#667=VERTEX_POINT('',#2094);
#668=EDGE_CURVE('',#550,#551,#248,.T.);
#669=EDGE_CURVE('',#552,#550,#249,.T.);
#670=EDGE_CURVE('',#553,#552,#250,.T.);
#671=EDGE_CURVE('',#551,#553,#251,.T.);
#672=EDGE_CURVE('',#554,#554,#62,.T.);
#673=EDGE_CURVE('',#555,#555,#63,.T.);
#674=EDGE_CURVE('',#556,#556,#64,.T.);
#675=EDGE_CURVE('',#557,#558,#252,.T.);
#676=EDGE_CURVE('',#557,#559,#253,.T.);
#677=EDGE_CURVE('',#560,#559,#254,.T.);
#678=EDGE_CURVE('',#560,#558,#255,.T.);
#679=EDGE_CURVE('',#561,#559,#256,.T.);
#680=EDGE_CURVE('',#562,#561,#257,.T.);
#681=EDGE_CURVE('',#563,#562,#258,.T.);
#682=EDGE_CURVE('',#563,#560,#259,.T.);
#683=EDGE_CURVE('',#564,#557,#260,.T.);
#684=EDGE_CURVE('',#561,#564,#261,.T.);
#685=EDGE_CURVE('',#565,#566,#262,.T.);
#686=EDGE_CURVE('',#565,#567,#263,.T.);
#687=EDGE_CURVE('',#568,#567,#264,.T.);
#688=EDGE_CURVE('',#568,#566,#265,.T.);
#689=EDGE_CURVE('',#569,#567,#266,.T.);
#690=EDGE_CURVE('',#570,#569,#267,.T.);
#691=EDGE_CURVE('',#571,#570,#268,.T.);
#692=EDGE_CURVE('',#571,#568,#269,.T.);
#693=EDGE_CURVE('',#572,#565,#270,.T.);
#694=EDGE_CURVE('',#569,#572,#271,.T.);
#695=EDGE_CURVE('',#573,#574,#272,.T.);
#696=EDGE_CURVE('',#573,#575,#273,.T.);
#697=EDGE_CURVE('',#576,#575,#274,.T.);
#698=EDGE_CURVE('',#576,#574,#275,.T.);
#699=EDGE_CURVE('',#577,#575,#276,.T.);
#700=EDGE_CURVE('',#578,#577,#277,.T.);
#701=EDGE_CURVE('',#579,#578,#278,.T.);
#702=EDGE_CURVE('',#579,#576,#279,.T.);
#703=EDGE_CURVE('',#580,#573,#280,.T.);
#704=EDGE_CURVE('',#577,#580,#281,.T.);
#705=EDGE_CURVE('',#581,#582,#282,.T.);
#706=EDGE_CURVE('',#581,#583,#283,.T.);
#707=EDGE_CURVE('',#584,#583,#284,.T.);
#708=EDGE_CURVE('',#584,#582,#285,.T.);
#709=EDGE_CURVE('',#585,#583,#286,.T.);
#710=EDGE_CURVE('',#586,#585,#287,.T.);
#711=EDGE_CURVE('',#587,#586,#288,.T.);
#712=EDGE_CURVE('',#587,#584,#289,.T.);
#713=EDGE_CURVE('',#588,#581,#290,.T.);
#714=EDGE_CURVE('',#585,#588,#291,.T.);
#715=EDGE_CURVE('',#566,#589,#292,.T.);
#716=EDGE_CURVE('',#590,#589,#293,.T.);
#717=EDGE_CURVE('',#572,#590,#294,.T.);
#718=EDGE_CURVE('',#589,#571,#295,.T.);
#719=EDGE_CURVE('',#582,#591,#296,.T.);
#720=EDGE_CURVE('',#592,#591,#297,.T.);
#721=EDGE_CURVE('',#588,#592,#298,.T.);
#722=EDGE_CURVE('',#591,#587,#299,.T.);
#723=EDGE_CURVE('',#574,#593,#300,.T.);
#724=EDGE_CURVE('',#594,#593,#301,.T.);
#725=EDGE_CURVE('',#580,#594,#302,.T.);
#726=EDGE_CURVE('',#593,#579,#303,.T.);
#727=EDGE_CURVE('',#558,#595,#304,.T.);
#728=EDGE_CURVE('',#596,#595,#305,.T.);
#729=EDGE_CURVE('',#564,#596,#306,.T.);
#730=EDGE_CURVE('',#595,#563,#307,.T.);
#731=EDGE_CURVE('',#597,#598,#308,.T.);
#732=EDGE_CURVE('',#599,#597,#309,.T.);
#733=EDGE_CURVE('',#599,#600,#310,.T.);
#734=EDGE_CURVE('',#601,#600,#311,.T.);
#735=EDGE_CURVE('',#602,#601,#312,.T.);
#736=EDGE_CURVE('',#603,#602,#313,.T.);
#737=EDGE_CURVE('',#603,#604,#314,.T.);
#738=EDGE_CURVE('',#598,#604,#315,.T.);
#739=EDGE_CURVE('',#605,#605,#65,.T.);
#740=EDGE_CURVE('',#606,#606,#66,.T.);
#741=EDGE_CURVE('',#607,#607,#67,.T.);
#742=EDGE_CURVE('',#608,#608,#68,.T.);
#743=EDGE_CURVE('',#609,#609,#69,.T.);
#744=EDGE_CURVE('',#610,#610,#70,.T.);
#745=EDGE_CURVE('',#611,#611,#71,.T.);
#746=EDGE_CURVE('',#612,#612,#72,.T.);
#747=EDGE_CURVE('',#613,#614,#316,.T.);
#748=EDGE_CURVE('',#614,#615,#317,.T.);
#749=EDGE_CURVE('',#615,#616,#318,.T.);
#750=EDGE_CURVE('',#616,#613,#319,.T.);
#751=EDGE_CURVE('',#590,#617,#320,.T.);
#752=EDGE_CURVE('',#617,#618,#321,.T.);
#753=EDGE_CURVE('',#618,#578,#322,.T.);
#754=EDGE_CURVE('',#594,#619,#323,.T.);
#755=EDGE_CURVE('',#619,#620,#324,.T.);
#756=EDGE_CURVE('',#620,#570,#325,.T.);
#757=EDGE_CURVE('',#592,#621,#326,.T.);
#758=EDGE_CURVE('',#621,#622,#327,.T.);
#759=EDGE_CURVE('',#622,#562,#328,.T.);
#760=EDGE_CURVE('',#596,#623,#329,.T.);
#761=EDGE_CURVE('',#623,#624,#330,.T.);
#762=EDGE_CURVE('',#624,#586,#331,.T.);
#763=EDGE_CURVE('',#605,#625,#332,.T.);
#764=EDGE_CURVE('',#625,#625,#73,.T.);
#765=EDGE_CURVE('',#606,#626,#333,.T.);
#766=EDGE_CURVE('',#626,#626,#74,.T.);
#767=EDGE_CURVE('',#607,#627,#334,.T.);
#768=EDGE_CURVE('',#627,#627,#75,.T.);
#769=EDGE_CURVE('',#608,#628,#335,.T.);
#770=EDGE_CURVE('',#628,#628,#76,.T.);
#771=EDGE_CURVE('',#609,#629,#336,.T.);
#772=EDGE_CURVE('',#629,#629,#77,.T.);
#773=EDGE_CURVE('',#610,#630,#337,.T.);
#774=EDGE_CURVE('',#630,#630,#78,.T.);
#775=EDGE_CURVE('',#611,#631,#338,.T.);
#776=EDGE_CURVE('',#631,#631,#79,.T.);
#777=EDGE_CURVE('',#612,#632,#339,.T.);
#778=EDGE_CURVE('',#632,#632,#80,.T.);
#779=EDGE_CURVE('',#633,#634,#340,.T.);
#780=EDGE_CURVE('',#635,#633,#341,.T.);
#781=EDGE_CURVE('',#636,#635,#342,.T.);
#782=EDGE_CURVE('',#636,#637,#343,.T.);
#783=EDGE_CURVE('',#638,#637,#344,.T.);
#784=EDGE_CURVE('',#639,#638,#345,.T.);
#785=EDGE_CURVE('',#640,#639,#346,.T.);
#786=EDGE_CURVE('',#640,#634,#347,.T.);
#787=EDGE_CURVE('',#641,#642,#348,.T.);
#788=EDGE_CURVE('',#642,#643,#349,.T.);
#789=EDGE_CURVE('',#643,#644,#350,.T.);
#790=EDGE_CURVE('',#644,#641,#351,.T.);
#791=EDGE_CURVE('',#645,#646,#352,.T.);
#792=EDGE_CURVE('',#646,#647,#353,.T.);
#793=EDGE_CURVE('',#647,#648,#354,.T.);
#794=EDGE_CURVE('',#648,#645,#355,.T.);
#795=EDGE_CURVE('',#649,#650,#356,.T.);
#796=EDGE_CURVE('',#651,#649,#81,.T.);
#797=EDGE_CURVE('',#652,#651,#357,.T.);
#798=EDGE_CURVE('',#650,#652,#82,.T.);
#799=EDGE_CURVE('',#653,#654,#83,.T.);
#800=EDGE_CURVE('',#655,#653,#358,.T.);
#801=EDGE_CURVE('',#656,#655,#84,.T.);
#802=EDGE_CURVE('',#654,#656,#359,.T.);
#803=EDGE_CURVE('',#657,#657,#85,.T.);
#804=EDGE_CURVE('',#658,#658,#86,.T.);
#805=EDGE_CURVE('',#659,#659,#87,.T.);
#806=EDGE_CURVE('',#660,#655,#360,.T.);
#807=EDGE_CURVE('',#661,#660,#88,.T.);
#808=EDGE_CURVE('',#661,#656,#361,.T.);
#809=EDGE_CURVE('',#662,#653,#362,.T.);
#810=EDGE_CURVE('',#660,#662,#363,.T.);
#811=EDGE_CURVE('',#613,#552,#364,.T.);
#812=EDGE_CURVE('',#614,#550,#365,.T.);
#813=EDGE_CURVE('',#616,#553,#366,.T.);
#814=EDGE_CURVE('',#615,#551,#367,.T.);
#815=EDGE_CURVE('',#598,#663,#368,.T.);
#816=EDGE_CURVE('',#663,#664,#369,.T.);
#817=EDGE_CURVE('',#664,#597,#370,.T.);
#818=EDGE_CURVE('',#604,#636,#371,.T.);
#819=EDGE_CURVE('',#635,#663,#372,.T.);
#820=EDGE_CURVE('',#601,#665,#373,.T.);
#821=EDGE_CURVE('',#665,#666,#374,.T.);
#822=EDGE_CURVE('',#666,#602,#375,.T.);
#823=EDGE_CURVE('',#600,#640,#376,.T.);
#824=EDGE_CURVE('',#639,#665,#377,.T.);
#825=EDGE_CURVE('',#662,#649,#378,.T.);
#826=EDGE_CURVE('',#650,#660,#379,.T.);
#827=EDGE_CURVE('',#667,#651,#380,.T.);
#828=EDGE_CURVE('',#662,#667,#89,.T.);
#829=EDGE_CURVE('',#661,#652,#381,.T.);
#830=EDGE_CURVE('',#667,#661,#382,.T.);
#831=EDGE_CURVE('',#667,#654,#383,.T.);
#832=EDGE_CURVE('',#664,#633,#384,.T.);
#833=EDGE_CURVE('',#634,#599,#385,.T.);
#834=EDGE_CURVE('',#637,#603,#386,.T.);
#835=EDGE_CURVE('',#666,#638,#387,.T.);
#836=EDGE_CURVE('',#555,#659,#388,.T.);
#837=EDGE_CURVE('',#556,#658,#389,.T.);
#838=EDGE_CURVE('',#554,#657,#390,.T.);
#839=EDGE_CURVE('',#648,#617,#391,.T.);
#840=EDGE_CURVE('',#647,#618,#392,.T.);
#841=EDGE_CURVE('',#646,#619,#393,.T.);
#842=EDGE_CURVE('',#645,#620,#394,.T.);
#843=EDGE_CURVE('',#644,#622,#395,.T.);
#844=EDGE_CURVE('',#643,#623,#396,.T.);
#845=EDGE_CURVE('',#642,#624,#397,.T.);
#846=EDGE_CURVE('',#641,#621,#398,.T.);
#847=ORIENTED_EDGE('',*,*,#668,.F.);
#848=ORIENTED_EDGE('',*,*,#669,.F.);
#849=ORIENTED_EDGE('',*,*,#670,.F.);
#850=ORIENTED_EDGE('',*,*,#671,.F.);
#851=ORIENTED_EDGE('',*,*,#672,.F.);
#852=ORIENTED_EDGE('',*,*,#673,.F.);
#853=ORIENTED_EDGE('',*,*,#674,.F.);
#854=ORIENTED_EDGE('',*,*,#675,.F.);
#855=ORIENTED_EDGE('',*,*,#676,.T.);
#856=ORIENTED_EDGE('',*,*,#677,.F.);
#857=ORIENTED_EDGE('',*,*,#678,.T.);
#858=ORIENTED_EDGE('',*,*,#677,.T.);
#859=ORIENTED_EDGE('',*,*,#679,.F.);
#860=ORIENTED_EDGE('',*,*,#680,.F.);
#861=ORIENTED_EDGE('',*,*,#681,.F.);
#862=ORIENTED_EDGE('',*,*,#682,.T.);
#863=ORIENTED_EDGE('',*,*,#676,.F.);
#864=ORIENTED_EDGE('',*,*,#683,.F.);
#865=ORIENTED_EDGE('',*,*,#684,.F.);
#866=ORIENTED_EDGE('',*,*,#679,.T.);
#867=ORIENTED_EDGE('',*,*,#685,.F.);
#868=ORIENTED_EDGE('',*,*,#686,.T.);
#869=ORIENTED_EDGE('',*,*,#687,.F.);
#870=ORIENTED_EDGE('',*,*,#688,.T.);
#871=ORIENTED_EDGE('',*,*,#687,.T.);
#872=ORIENTED_EDGE('',*,*,#689,.F.);
#873=ORIENTED_EDGE('',*,*,#690,.F.);
#874=ORIENTED_EDGE('',*,*,#691,.F.);
#875=ORIENTED_EDGE('',*,*,#692,.T.);
#876=ORIENTED_EDGE('',*,*,#686,.F.);
#877=ORIENTED_EDGE('',*,*,#693,.F.);
#878=ORIENTED_EDGE('',*,*,#694,.F.);
#879=ORIENTED_EDGE('',*,*,#689,.T.);
#880=ORIENTED_EDGE('',*,*,#695,.F.);
#881=ORIENTED_EDGE('',*,*,#696,.T.);
#882=ORIENTED_EDGE('',*,*,#697,.F.);
#883=ORIENTED_EDGE('',*,*,#698,.T.);
#884=ORIENTED_EDGE('',*,*,#697,.T.);
#885=ORIENTED_EDGE('',*,*,#699,.F.);
#886=ORIENTED_EDGE('',*,*,#700,.F.);
#887=ORIENTED_EDGE('',*,*,#701,.F.);
#888=ORIENTED_EDGE('',*,*,#702,.T.);
#889=ORIENTED_EDGE('',*,*,#696,.F.);
#890=ORIENTED_EDGE('',*,*,#703,.F.);
#891=ORIENTED_EDGE('',*,*,#704,.F.);
#892=ORIENTED_EDGE('',*,*,#699,.T.);
#893=ORIENTED_EDGE('',*,*,#705,.F.);
#894=ORIENTED_EDGE('',*,*,#706,.T.);
#895=ORIENTED_EDGE('',*,*,#707,.F.);
#896=ORIENTED_EDGE('',*,*,#708,.T.);
#897=ORIENTED_EDGE('',*,*,#707,.T.);
#898=ORIENTED_EDGE('',*,*,#709,.F.);
#899=ORIENTED_EDGE('',*,*,#710,.F.);
#900=ORIENTED_EDGE('',*,*,#711,.F.);
#901=ORIENTED_EDGE('',*,*,#712,.T.);
#902=ORIENTED_EDGE('',*,*,#706,.F.);
#903=ORIENTED_EDGE('',*,*,#713,.F.);
#904=ORIENTED_EDGE('',*,*,#714,.F.);
#905=ORIENTED_EDGE('',*,*,#709,.T.);
#906=ORIENTED_EDGE('',*,*,#685,.T.);
#907=ORIENTED_EDGE('',*,*,#715,.T.);
#908=ORIENTED_EDGE('',*,*,#716,.F.);
#909=ORIENTED_EDGE('',*,*,#717,.F.);
#910=ORIENTED_EDGE('',*,*,#693,.T.);
#911=ORIENTED_EDGE('',*,*,#688,.F.);
#912=ORIENTED_EDGE('',*,*,#692,.F.);
#913=ORIENTED_EDGE('',*,*,#718,.F.);
#914=ORIENTED_EDGE('',*,*,#715,.F.);
#915=ORIENTED_EDGE('',*,*,#705,.T.);
#916=ORIENTED_EDGE('',*,*,#719,.T.);
#917=ORIENTED_EDGE('',*,*,#720,.F.);
#918=ORIENTED_EDGE('',*,*,#721,.F.);
#919=ORIENTED_EDGE('',*,*,#713,.T.);
#920=ORIENTED_EDGE('',*,*,#708,.F.);
#921=ORIENTED_EDGE('',*,*,#712,.F.);
#922=ORIENTED_EDGE('',*,*,#722,.F.);
#923=ORIENTED_EDGE('',*,*,#719,.F.);
#924=ORIENTED_EDGE('',*,*,#695,.T.);
#925=ORIENTED_EDGE('',*,*,#723,.T.);
#926=ORIENTED_EDGE('',*,*,#724,.F.);
#927=ORIENTED_EDGE('',*,*,#725,.F.);
#928=ORIENTED_EDGE('',*,*,#703,.T.);
#929=ORIENTED_EDGE('',*,*,#698,.F.);
#930=ORIENTED_EDGE('',*,*,#702,.F.);
#931=ORIENTED_EDGE('',*,*,#726,.F.);
#932=ORIENTED_EDGE('',*,*,#723,.F.);
#933=ORIENTED_EDGE('',*,*,#675,.T.);
#934=ORIENTED_EDGE('',*,*,#727,.T.);
#935=ORIENTED_EDGE('',*,*,#728,.F.);
#936=ORIENTED_EDGE('',*,*,#729,.F.);
#937=ORIENTED_EDGE('',*,*,#683,.T.);
#938=ORIENTED_EDGE('',*,*,#678,.F.);
#939=ORIENTED_EDGE('',*,*,#682,.F.);
#940=ORIENTED_EDGE('',*,*,#730,.F.);
#941=ORIENTED_EDGE('',*,*,#727,.F.);
#942=ORIENTED_EDGE('',*,*,#731,.F.);
#943=ORIENTED_EDGE('',*,*,#732,.F.);
#944=ORIENTED_EDGE('',*,*,#733,.T.);
#945=ORIENTED_EDGE('',*,*,#734,.F.);
#946=ORIENTED_EDGE('',*,*,#735,.F.);
#947=ORIENTED_EDGE('',*,*,#736,.F.);
#948=ORIENTED_EDGE('',*,*,#737,.T.);
#949=ORIENTED_EDGE('',*,*,#738,.F.);
#950=ORIENTED_EDGE('',*,*,#739,.T.);
#951=ORIENTED_EDGE('',*,*,#740,.T.);
#952=ORIENTED_EDGE('',*,*,#741,.T.);
#953=ORIENTED_EDGE('',*,*,#742,.T.);
#954=ORIENTED_EDGE('',*,*,#743,.T.);
#955=ORIENTED_EDGE('',*,*,#744,.T.);
#956=ORIENTED_EDGE('',*,*,#745,.T.);
#957=ORIENTED_EDGE('',*,*,#746,.T.);
#958=ORIENTED_EDGE('',*,*,#747,.T.);
#959=ORIENTED_EDGE('',*,*,#748,.T.);
#960=ORIENTED_EDGE('',*,*,#749,.T.);
#961=ORIENTED_EDGE('',*,*,#750,.T.);
#962=ORIENTED_EDGE('',*,*,#690,.T.);
#963=ORIENTED_EDGE('',*,*,#694,.T.);
#964=ORIENTED_EDGE('',*,*,#717,.T.);
#965=ORIENTED_EDGE('',*,*,#751,.T.);
#966=ORIENTED_EDGE('',*,*,#752,.T.);
#967=ORIENTED_EDGE('',*,*,#753,.T.);
#968=ORIENTED_EDGE('',*,*,#700,.T.);
#969=ORIENTED_EDGE('',*,*,#704,.T.);
#970=ORIENTED_EDGE('',*,*,#725,.T.);
#971=ORIENTED_EDGE('',*,*,#754,.T.);
#972=ORIENTED_EDGE('',*,*,#755,.T.);
#973=ORIENTED_EDGE('',*,*,#756,.T.);
#974=ORIENTED_EDGE('',*,*,#710,.T.);
#975=ORIENTED_EDGE('',*,*,#714,.T.);
#976=ORIENTED_EDGE('',*,*,#721,.T.);
#977=ORIENTED_EDGE('',*,*,#757,.T.);
#978=ORIENTED_EDGE('',*,*,#758,.T.);
#979=ORIENTED_EDGE('',*,*,#759,.T.);
#980=ORIENTED_EDGE('',*,*,#680,.T.);
#981=ORIENTED_EDGE('',*,*,#684,.T.);
#982=ORIENTED_EDGE('',*,*,#729,.T.);
#983=ORIENTED_EDGE('',*,*,#760,.T.);
#984=ORIENTED_EDGE('',*,*,#761,.T.);
#985=ORIENTED_EDGE('',*,*,#762,.T.);
#986=ORIENTED_EDGE('',*,*,#739,.F.);
#987=ORIENTED_EDGE('',*,*,#763,.T.);
#988=ORIENTED_EDGE('',*,*,#764,.F.);
#989=ORIENTED_EDGE('',*,*,#763,.F.);
#990=ORIENTED_EDGE('',*,*,#740,.F.);
#991=ORIENTED_EDGE('',*,*,#765,.T.);
#992=ORIENTED_EDGE('',*,*,#766,.F.);
#993=ORIENTED_EDGE('',*,*,#765,.F.);
#994=ORIENTED_EDGE('',*,*,#741,.F.);
#995=ORIENTED_EDGE('',*,*,#767,.T.);
#996=ORIENTED_EDGE('',*,*,#768,.F.);
#997=ORIENTED_EDGE('',*,*,#767,.F.);
#998=ORIENTED_EDGE('',*,*,#742,.F.);
#999=ORIENTED_EDGE('',*,*,#769,.T.);
#1000=ORIENTED_EDGE('',*,*,#770,.F.);
#1001=ORIENTED_EDGE('',*,*,#769,.F.);
#1002=ORIENTED_EDGE('',*,*,#743,.F.);
#1003=ORIENTED_EDGE('',*,*,#771,.T.);
#1004=ORIENTED_EDGE('',*,*,#772,.F.);
#1005=ORIENTED_EDGE('',*,*,#771,.F.);
#1006=ORIENTED_EDGE('',*,*,#744,.F.);
#1007=ORIENTED_EDGE('',*,*,#773,.T.);
#1008=ORIENTED_EDGE('',*,*,#774,.F.);
#1009=ORIENTED_EDGE('',*,*,#773,.F.);
#1010=ORIENTED_EDGE('',*,*,#745,.F.);
#1011=ORIENTED_EDGE('',*,*,#775,.T.);
#1012=ORIENTED_EDGE('',*,*,#776,.F.);
#1013=ORIENTED_EDGE('',*,*,#775,.F.);
#1014=ORIENTED_EDGE('',*,*,#746,.F.);
#1015=ORIENTED_EDGE('',*,*,#777,.T.);
#1016=ORIENTED_EDGE('',*,*,#778,.F.);
#1017=ORIENTED_EDGE('',*,*,#777,.F.);
#1018=ORIENTED_EDGE('',*,*,#779,.F.);
#1019=ORIENTED_EDGE('',*,*,#780,.F.);
#1020=ORIENTED_EDGE('',*,*,#781,.F.);
#1021=ORIENTED_EDGE('',*,*,#782,.T.);
#1022=ORIENTED_EDGE('',*,*,#783,.F.);
#1023=ORIENTED_EDGE('',*,*,#784,.F.);
#1024=ORIENTED_EDGE('',*,*,#785,.F.);
#1025=ORIENTED_EDGE('',*,*,#786,.T.);
#1026=ORIENTED_EDGE('',*,*,#764,.T.);
#1027=ORIENTED_EDGE('',*,*,#766,.T.);
#1028=ORIENTED_EDGE('',*,*,#768,.T.);
#1029=ORIENTED_EDGE('',*,*,#770,.T.);
#1030=ORIENTED_EDGE('',*,*,#772,.T.);
#1031=ORIENTED_EDGE('',*,*,#774,.T.);
#1032=ORIENTED_EDGE('',*,*,#776,.T.);
#1033=ORIENTED_EDGE('',*,*,#778,.T.);
#1034=ORIENTED_EDGE('',*,*,#787,.T.);
#1035=ORIENTED_EDGE('',*,*,#788,.T.);
#1036=ORIENTED_EDGE('',*,*,#789,.T.);
#1037=ORIENTED_EDGE('',*,*,#790,.T.);
#1038=ORIENTED_EDGE('',*,*,#791,.T.);
#1039=ORIENTED_EDGE('',*,*,#792,.T.);
#1040=ORIENTED_EDGE('',*,*,#793,.T.);
#1041=ORIENTED_EDGE('',*,*,#794,.T.);
#1042=ORIENTED_EDGE('',*,*,#795,.F.);
#1043=ORIENTED_EDGE('',*,*,#796,.F.);
#1044=ORIENTED_EDGE('',*,*,#797,.F.);
#1045=ORIENTED_EDGE('',*,*,#798,.F.);
#1046=ORIENTED_EDGE('',*,*,#799,.F.);
#1047=ORIENTED_EDGE('',*,*,#800,.F.);
#1048=ORIENTED_EDGE('',*,*,#801,.F.);
#1049=ORIENTED_EDGE('',*,*,#802,.F.);
#1050=ORIENTED_EDGE('',*,*,#803,.T.);
#1051=ORIENTED_EDGE('',*,*,#804,.T.);
#1052=ORIENTED_EDGE('',*,*,#805,.T.);
#1053=ORIENTED_EDGE('',*,*,#801,.T.);
#1054=ORIENTED_EDGE('',*,*,#806,.F.);
#1055=ORIENTED_EDGE('',*,*,#807,.F.);
#1056=ORIENTED_EDGE('',*,*,#808,.T.);
#1057=ORIENTED_EDGE('',*,*,#800,.T.);
#1058=ORIENTED_EDGE('',*,*,#809,.F.);
#1059=ORIENTED_EDGE('',*,*,#810,.F.);
#1060=ORIENTED_EDGE('',*,*,#806,.T.);
#1061=ORIENTED_EDGE('',*,*,#747,.F.);
#1062=ORIENTED_EDGE('',*,*,#811,.T.);
#1063=ORIENTED_EDGE('',*,*,#669,.T.);
#1064=ORIENTED_EDGE('',*,*,#812,.F.);
#1065=ORIENTED_EDGE('',*,*,#750,.F.);
#1066=ORIENTED_EDGE('',*,*,#813,.T.);
#1067=ORIENTED_EDGE('',*,*,#670,.T.);
#1068=ORIENTED_EDGE('',*,*,#811,.F.);
#1069=ORIENTED_EDGE('',*,*,#749,.F.);
#1070=ORIENTED_EDGE('',*,*,#814,.T.);
#1071=ORIENTED_EDGE('',*,*,#671,.T.);
#1072=ORIENTED_EDGE('',*,*,#813,.F.);
#1073=ORIENTED_EDGE('',*,*,#748,.F.);
#1074=ORIENTED_EDGE('',*,*,#812,.T.);
#1075=ORIENTED_EDGE('',*,*,#668,.T.);
#1076=ORIENTED_EDGE('',*,*,#814,.F.);
#1077=ORIENTED_EDGE('',*,*,#815,.T.);
#1078=ORIENTED_EDGE('',*,*,#816,.T.);
#1079=ORIENTED_EDGE('',*,*,#817,.T.);
#1080=ORIENTED_EDGE('',*,*,#731,.T.);
#1081=ORIENTED_EDGE('',*,*,#815,.F.);
#1082=ORIENTED_EDGE('',*,*,#738,.T.);
#1083=ORIENTED_EDGE('',*,*,#818,.T.);
#1084=ORIENTED_EDGE('',*,*,#781,.T.);
#1085=ORIENTED_EDGE('',*,*,#819,.T.);
#1086=ORIENTED_EDGE('',*,*,#820,.T.);
#1087=ORIENTED_EDGE('',*,*,#821,.T.);
#1088=ORIENTED_EDGE('',*,*,#822,.T.);
#1089=ORIENTED_EDGE('',*,*,#735,.T.);
#1090=ORIENTED_EDGE('',*,*,#820,.F.);
#1091=ORIENTED_EDGE('',*,*,#734,.T.);
#1092=ORIENTED_EDGE('',*,*,#823,.T.);
#1093=ORIENTED_EDGE('',*,*,#785,.T.);
#1094=ORIENTED_EDGE('',*,*,#824,.T.);
#1095=ORIENTED_EDGE('',*,*,#825,.T.);
#1096=ORIENTED_EDGE('',*,*,#795,.T.);
#1097=ORIENTED_EDGE('',*,*,#826,.T.);
#1098=ORIENTED_EDGE('',*,*,#810,.T.);
#1099=ORIENTED_EDGE('',*,*,#827,.T.);
#1100=ORIENTED_EDGE('',*,*,#796,.T.);
#1101=ORIENTED_EDGE('',*,*,#825,.F.);
#1102=ORIENTED_EDGE('',*,*,#828,.T.);
#1103=ORIENTED_EDGE('',*,*,#829,.T.);
#1104=ORIENTED_EDGE('',*,*,#797,.T.);
#1105=ORIENTED_EDGE('',*,*,#827,.F.);
#1106=ORIENTED_EDGE('',*,*,#830,.T.);
#1107=ORIENTED_EDGE('',*,*,#826,.F.);
#1108=ORIENTED_EDGE('',*,*,#798,.T.);
#1109=ORIENTED_EDGE('',*,*,#829,.F.);
#1110=ORIENTED_EDGE('',*,*,#807,.T.);
#1111=ORIENTED_EDGE('',*,*,#799,.T.);
#1112=ORIENTED_EDGE('',*,*,#831,.F.);
#1113=ORIENTED_EDGE('',*,*,#828,.F.);
#1114=ORIENTED_EDGE('',*,*,#809,.T.);
#1115=ORIENTED_EDGE('',*,*,#802,.T.);
#1116=ORIENTED_EDGE('',*,*,#808,.F.);
#1117=ORIENTED_EDGE('',*,*,#830,.F.);
#1118=ORIENTED_EDGE('',*,*,#831,.T.);
#1119=ORIENTED_EDGE('',*,*,#817,.F.);
#1120=ORIENTED_EDGE('',*,*,#832,.T.);
#1121=ORIENTED_EDGE('',*,*,#779,.T.);
#1122=ORIENTED_EDGE('',*,*,#833,.T.);
#1123=ORIENTED_EDGE('',*,*,#732,.T.);
#1124=ORIENTED_EDGE('',*,*,#833,.F.);
#1125=ORIENTED_EDGE('',*,*,#786,.F.);
#1126=ORIENTED_EDGE('',*,*,#823,.F.);
#1127=ORIENTED_EDGE('',*,*,#733,.F.);
#1128=ORIENTED_EDGE('',*,*,#818,.F.);
#1129=ORIENTED_EDGE('',*,*,#737,.F.);
#1130=ORIENTED_EDGE('',*,*,#834,.F.);
#1131=ORIENTED_EDGE('',*,*,#782,.F.);
#1132=ORIENTED_EDGE('',*,*,#822,.F.);
#1133=ORIENTED_EDGE('',*,*,#835,.T.);
#1134=ORIENTED_EDGE('',*,*,#783,.T.);
#1135=ORIENTED_EDGE('',*,*,#834,.T.);
#1136=ORIENTED_EDGE('',*,*,#736,.T.);
#1137=ORIENTED_EDGE('',*,*,#816,.F.);
#1138=ORIENTED_EDGE('',*,*,#819,.F.);
#1139=ORIENTED_EDGE('',*,*,#780,.T.);
#1140=ORIENTED_EDGE('',*,*,#832,.F.);
#1141=ORIENTED_EDGE('',*,*,#821,.F.);
#1142=ORIENTED_EDGE('',*,*,#824,.F.);
#1143=ORIENTED_EDGE('',*,*,#784,.T.);
#1144=ORIENTED_EDGE('',*,*,#835,.F.);
#1145=ORIENTED_EDGE('',*,*,#673,.T.);
#1146=ORIENTED_EDGE('',*,*,#836,.T.);
#1147=ORIENTED_EDGE('',*,*,#805,.F.);
#1148=ORIENTED_EDGE('',*,*,#836,.F.);
#1149=ORIENTED_EDGE('',*,*,#674,.T.);
#1150=ORIENTED_EDGE('',*,*,#837,.T.);
#1151=ORIENTED_EDGE('',*,*,#804,.F.);
#1152=ORIENTED_EDGE('',*,*,#837,.F.);
#1153=ORIENTED_EDGE('',*,*,#672,.T.);
#1154=ORIENTED_EDGE('',*,*,#838,.T.);
#1155=ORIENTED_EDGE('',*,*,#803,.F.);
#1156=ORIENTED_EDGE('',*,*,#838,.F.);
#1157=ORIENTED_EDGE('',*,*,#752,.F.);
#1158=ORIENTED_EDGE('',*,*,#839,.F.);
#1159=ORIENTED_EDGE('',*,*,#793,.F.);
#1160=ORIENTED_EDGE('',*,*,#840,.T.);
#1161=ORIENTED_EDGE('',*,*,#701,.T.);
#1162=ORIENTED_EDGE('',*,*,#753,.F.);
#1163=ORIENTED_EDGE('',*,*,#840,.F.);
#1164=ORIENTED_EDGE('',*,*,#792,.F.);
#1165=ORIENTED_EDGE('',*,*,#841,.T.);
#1166=ORIENTED_EDGE('',*,*,#754,.F.);
#1167=ORIENTED_EDGE('',*,*,#724,.T.);
#1168=ORIENTED_EDGE('',*,*,#726,.T.);
#1169=ORIENTED_EDGE('',*,*,#755,.F.);
#1170=ORIENTED_EDGE('',*,*,#841,.F.);
#1171=ORIENTED_EDGE('',*,*,#791,.F.);
#1172=ORIENTED_EDGE('',*,*,#842,.T.);
#1173=ORIENTED_EDGE('',*,*,#691,.T.);
#1174=ORIENTED_EDGE('',*,*,#756,.F.);
#1175=ORIENTED_EDGE('',*,*,#842,.F.);
#1176=ORIENTED_EDGE('',*,*,#794,.F.);
#1177=ORIENTED_EDGE('',*,*,#839,.T.);
#1178=ORIENTED_EDGE('',*,*,#751,.F.);
#1179=ORIENTED_EDGE('',*,*,#716,.T.);
#1180=ORIENTED_EDGE('',*,*,#718,.T.);
#1181=ORIENTED_EDGE('',*,*,#681,.T.);
#1182=ORIENTED_EDGE('',*,*,#759,.F.);
#1183=ORIENTED_EDGE('',*,*,#843,.F.);
#1184=ORIENTED_EDGE('',*,*,#789,.F.);
#1185=ORIENTED_EDGE('',*,*,#844,.T.);
#1186=ORIENTED_EDGE('',*,*,#760,.F.);
#1187=ORIENTED_EDGE('',*,*,#728,.T.);
#1188=ORIENTED_EDGE('',*,*,#730,.T.);
#1189=ORIENTED_EDGE('',*,*,#761,.F.);
#1190=ORIENTED_EDGE('',*,*,#844,.F.);
#1191=ORIENTED_EDGE('',*,*,#788,.F.);
#1192=ORIENTED_EDGE('',*,*,#845,.T.);
#1193=ORIENTED_EDGE('',*,*,#711,.T.);
#1194=ORIENTED_EDGE('',*,*,#762,.F.);
#1195=ORIENTED_EDGE('',*,*,#845,.F.);
#1196=ORIENTED_EDGE('',*,*,#787,.F.);
#1197=ORIENTED_EDGE('',*,*,#846,.T.);
#1198=ORIENTED_EDGE('',*,*,#757,.F.);
#1199=ORIENTED_EDGE('',*,*,#720,.T.);
#1200=ORIENTED_EDGE('',*,*,#722,.T.);
#1201=ORIENTED_EDGE('',*,*,#758,.F.);
#1202=ORIENTED_EDGE('',*,*,#846,.F.);
#1203=ORIENTED_EDGE('',*,*,#790,.F.);
#1204=ORIENTED_EDGE('',*,*,#843,.T.);
#1205=PLANE('',#1335);
#1206=PLANE('',#1339);
#1207=PLANE('',#1340);
#1208=PLANE('',#1341);
#1209=PLANE('',#1342);
#1210=PLANE('',#1343);
#1211=PLANE('',#1344);
#1212=PLANE('',#1345);
#1213=PLANE('',#1346);
#1214=PLANE('',#1347);
#1215=PLANE('',#1348);
#1216=PLANE('',#1349);
#1217=PLANE('',#1350);
#1218=PLANE('',#1351);
#1219=PLANE('',#1352);
#1220=PLANE('',#1353);
#1221=PLANE('',#1354);
#1222=PLANE('',#1355);
#1223=PLANE('',#1356);
#1224=PLANE('',#1357);
#1225=PLANE('',#1358);
#1226=PLANE('',#1359);
#1227=PLANE('',#1384);
#1228=PLANE('',#1387);
#1229=PLANE('',#1395);
#1230=PLANE('',#1396);
#1231=PLANE('',#1397);
#1232=PLANE('',#1398);
#1233=PLANE('',#1399);
#1234=PLANE('',#1400);
#1235=PLANE('',#1401);
#1236=PLANE('',#1402);
#1237=PLANE('',#1403);
#1238=PLANE('',#1404);
#1239=PLANE('',#1407);
#1240=PLANE('',#1410);
#1241=PLANE('',#1411);
#1242=PLANE('',#1412);
#1243=PLANE('',#1413);
#1244=PLANE('',#1414);
#1245=PLANE('',#1415);
#1246=PLANE('',#1416);
#1247=PLANE('',#1420);
#1248=PLANE('',#1421);
#1249=PLANE('',#1422);
#1250=PLANE('',#1423);
#1251=PLANE('',#1424);
#1252=PLANE('',#1425);
#1253=PLANE('',#1426);
#1254=PLANE('',#1427);
#1255=ADVANCED_FACE('',(#90,#34,#35,#36),#1205,.F.);
#1256=ADVANCED_FACE('',(#91),#1206,.T.);
#1257=ADVANCED_FACE('',(#92),#1207,.F.);
#1258=ADVANCED_FACE('',(#93),#1208,.F.);
#1259=ADVANCED_FACE('',(#94),#1209,.T.);
#1260=ADVANCED_FACE('',(#95),#1210,.F.);
#1261=ADVANCED_FACE('',(#96),#1211,.F.);
#1262=ADVANCED_FACE('',(#97),#1212,.T.);
#1263=ADVANCED_FACE('',(#98),#1213,.F.);
#1264=ADVANCED_FACE('',(#99),#1214,.F.);
#1265=ADVANCED_FACE('',(#100),#1215,.T.);
#1266=ADVANCED_FACE('',(#101),#1216,.F.);
#1267=ADVANCED_FACE('',(#102),#1217,.F.);
#1268=ADVANCED_FACE('',(#103),#1218,.F.);
#1269=ADVANCED_FACE('',(#104),#1219,.F.);
#1270=ADVANCED_FACE('',(#105),#1220,.F.);
#1271=ADVANCED_FACE('',(#106),#1221,.F.);
#1272=ADVANCED_FACE('',(#107),#1222,.F.);
#1273=ADVANCED_FACE('',(#108),#1223,.F.);
#1274=ADVANCED_FACE('',(#109),#1224,.F.);
#1275=ADVANCED_FACE('',(#110),#1225,.F.);
#1276=ADVANCED_FACE('',(#111,#37,#38,#39,#40,#41,#42,#43,#44,#45,#46,#47),
#1226,.T.);
#1277=ADVANCED_FACE('',(#112),#21,.F.);
#1278=ADVANCED_FACE('',(#113),#22,.F.);
#1279=ADVANCED_FACE('',(#114),#23,.F.);
#1280=ADVANCED_FACE('',(#115),#24,.F.);
#1281=ADVANCED_FACE('',(#116),#25,.F.);
#1282=ADVANCED_FACE('',(#117),#26,.F.);
#1283=ADVANCED_FACE('',(#118),#27,.F.);
#1284=ADVANCED_FACE('',(#119),#28,.F.);
#1285=ADVANCED_FACE('',(#120,#48,#49,#50,#51,#52,#53,#54,#55,#56,#57,#58),
#1227,.F.);
#1286=ADVANCED_FACE('',(#121,#59,#60,#61),#1228,.T.);
#1287=ADVANCED_FACE('',(#122),#29,.F.);
#1288=ADVANCED_FACE('',(#123),#1229,.F.);
#1289=ADVANCED_FACE('',(#124),#1230,.F.);
#1290=ADVANCED_FACE('',(#125),#1231,.F.);
#1291=ADVANCED_FACE('',(#126),#1232,.F.);
#1292=ADVANCED_FACE('',(#127),#1233,.F.);
#1293=ADVANCED_FACE('',(#128),#1234,.T.);
#1294=ADVANCED_FACE('',(#129),#1235,.T.);
#1295=ADVANCED_FACE('',(#130),#1236,.T.);
#1296=ADVANCED_FACE('',(#131),#1237,.T.);
#1297=ADVANCED_FACE('',(#132),#1238,.T.);
#1298=ADVANCED_FACE('',(#133),#19,.F.);
#1299=ADVANCED_FACE('',(#134),#1239,.T.);
#1300=ADVANCED_FACE('',(#135),#20,.F.);
#1301=ADVANCED_FACE('',(#136),#30,.F.);
#1302=ADVANCED_FACE('',(#137),#1240,.F.);
#1303=ADVANCED_FACE('',(#138),#1241,.T.);
#1304=ADVANCED_FACE('',(#139),#1242,.F.);
#1305=ADVANCED_FACE('',(#140),#1243,.F.);
#1306=ADVANCED_FACE('',(#141),#1244,.T.);
#1307=ADVANCED_FACE('',(#142),#1245,.T.);
#1308=ADVANCED_FACE('',(#143),#1246,.T.);
#1309=ADVANCED_FACE('',(#144),#31,.F.);
#1310=ADVANCED_FACE('',(#145),#32,.F.);
#1311=ADVANCED_FACE('',(#146),#33,.F.);
#1312=ADVANCED_FACE('',(#147),#1247,.F.);
#1313=ADVANCED_FACE('',(#148),#1248,.F.);
#1314=ADVANCED_FACE('',(#149),#1249,.F.);
#1315=ADVANCED_FACE('',(#150),#1250,.F.);
#1316=ADVANCED_FACE('',(#151),#1251,.F.);
#1317=ADVANCED_FACE('',(#152),#1252,.F.);
#1318=ADVANCED_FACE('',(#153),#1253,.F.);
#1319=ADVANCED_FACE('',(#154),#1254,.F.);
#1320=CLOSED_SHELL('',(#1255,#1256,#1257,#1258,#1259,#1260,#1261,#1262,
#1263,#1264,#1265,#1266,#1267,#1268,#1269,#1270,#1271,#1272,#1273,#1274,
#1275,#1276,#1277,#1278,#1279,#1280,#1281,#1282,#1283,#1284,#1285,#1286,
#1287,#1288,#1289,#1290,#1291,#1292,#1293,#1294,#1295,#1296,#1297,#1298,
#1299,#1300,#1301,#1302,#1303,#1304,#1305,#1306,#1307,#1308,#1309,#1310,
#1311,#1312,#1313,#1314,#1315,#1316,#1317,#1318,#1319));
#1321=DERIVED_UNIT_ELEMENT(#1323,1.);
#1322=DERIVED_UNIT_ELEMENT(#2144,-3.);
#1323=(
MASS_UNIT()
NAMED_UNIT(*)
SI_UNIT(.KILO.,.GRAM.)
);
#1324=DERIVED_UNIT((#1321,#1322));
#1325=MEASURE_REPRESENTATION_ITEM('density measure',
POSITIVE_RATIO_MEASURE(7850.),#1324);
#1326=PROPERTY_DEFINITION_REPRESENTATION(#1331,#1328);
#1327=PROPERTY_DEFINITION_REPRESENTATION(#1332,#1329);
#1328=REPRESENTATION('material name',(#1330),#2141);
#1329=REPRESENTATION('density',(#1325),#2141);
#1330=DESCRIPTIVE_REPRESENTATION_ITEM('Steel','Steel');
#1331=PROPERTY_DEFINITION('material property','material name',#2156);
#1332=PROPERTY_DEFINITION('material property','density of part',#2156);
#1333=AXIS2_PLACEMENT_3D('',#1772,#1429,#1430);
#1334=AXIS2_PLACEMENT_3D('',#1773,#1431,#1432);
#1335=AXIS2_PLACEMENT_3D('',#1774,#1433,#1434);
#1336=AXIS2_PLACEMENT_3D('',#1784,#1439,#1440);
#1337=AXIS2_PLACEMENT_3D('',#1786,#1441,#1442);
#1338=AXIS2_PLACEMENT_3D('',#1788,#1443,#1444);
#1339=AXIS2_PLACEMENT_3D('',#1789,#1445,#1446);
#1340=AXIS2_PLACEMENT_3D('',#1798,#1451,#1452);
#1341=AXIS2_PLACEMENT_3D('',#1806,#1457,#1458);
#1342=AXIS2_PLACEMENT_3D('',#1810,#1461,#1462);
#1343=AXIS2_PLACEMENT_3D('',#1819,#1467,#1468);
#1344=AXIS2_PLACEMENT_3D('',#1827,#1473,#1474);
#1345=AXIS2_PLACEMENT_3D('',#1831,#1477,#1478);
#1346=AXIS2_PLACEMENT_3D('',#1840,#1483,#1484);
#1347=AXIS2_PLACEMENT_3D('',#1848,#1489,#1490);
#1348=AXIS2_PLACEMENT_3D('',#1852,#1493,#1494);
#1349=AXIS2_PLACEMENT_3D('',#1861,#1499,#1500);
#1350=AXIS2_PLACEMENT_3D('',#1869,#1505,#1506);
#1351=AXIS2_PLACEMENT_3D('',#1873,#1509,#1510);
#1352=AXIS2_PLACEMENT_3D('',#1879,#1514,#1515);
#1353=AXIS2_PLACEMENT_3D('',#1881,#1517,#1518);
#1354=AXIS2_PLACEMENT_3D('',#1887,#1522,#1523);
#1355=AXIS2_PLACEMENT_3D('',#1889,#1525,#1526);
#1356=AXIS2_PLACEMENT_3D('',#1895,#1530,#1531);
#1357=AXIS2_PLACEMENT_3D('',#1897,#1533,#1534);
#1358=AXIS2_PLACEMENT_3D('',#1903,#1538,#1539);
#1359=AXIS2_PLACEMENT_3D('',#1905,#1541,#1542);
#1360=AXIS2_PLACEMENT_3D('',#1923,#1551,#1552);
#1361=AXIS2_PLACEMENT_3D('',#1925,#1553,#1554);
#1362=AXIS2_PLACEMENT_3D('',#1927,#1555,#1556);
#1363=AXIS2_PLACEMENT_3D('',#1929,#1557,#1558);
#1364=AXIS2_PLACEMENT_3D('',#1931,#1559,#1560);
#1365=AXIS2_PLACEMENT_3D('',#1933,#1561,#1562);
#1366=AXIS2_PLACEMENT_3D('',#1935,#1563,#1564);
#1367=AXIS2_PLACEMENT_3D('',#1937,#1565,#1566);
#1368=AXIS2_PLACEMENT_3D('',#1966,#1583,#1584);
#1369=AXIS2_PLACEMENT_3D('',#1969,#1586,#1587);
#1370=AXIS2_PLACEMENT_3D('',#1970,#1588,#1589);
#1371=AXIS2_PLACEMENT_3D('',#1973,#1591,#1592);
#1372=AXIS2_PLACEMENT_3D('',#1974,#1593,#1594);
#1373=AXIS2_PLACEMENT_3D('',#1977,#1596,#1597);
#1374=AXIS2_PLACEMENT_3D('',#1978,#1598,#1599);
#1375=AXIS2_PLACEMENT_3D('',#1981,#1601,#1602);
#1376=AXIS2_PLACEMENT_3D('',#1982,#1603,#1604);
#1377=AXIS2_PLACEMENT_3D('',#1985,#1606,#1607);
#1378=AXIS2_PLACEMENT_3D('',#1986,#1608,#1609);
#1379=AXIS2_PLACEMENT_3D('',#1989,#1611,#1612);
#1380=AXIS2_PLACEMENT_3D('',#1990,#1613,#1614);
#1381=AXIS2_PLACEMENT_3D('',#1993,#1616,#1617);
#1382=AXIS2_PLACEMENT_3D('',#1994,#1618,#1619);
#1383=AXIS2_PLACEMENT_3D('',#1997,#1621,#1622);
#1384=AXIS2_PLACEMENT_3D('',#1998,#1623,#1624);
#1385=AXIS2_PLACEMENT_3D('',#2035,#1642,#1643);
#1386=AXIS2_PLACEMENT_3D('',#2038,#1645,#1646);
#1387=AXIS2_PLACEMENT_3D('',#2039,#1647,#1648);
#1388=AXIS2_PLACEMENT_3D('',#2042,#1649,#1650);
#1389=AXIS2_PLACEMENT_3D('',#2046,#1652,#1653);
#1390=AXIS2_PLACEMENT_3D('',#2049,#1655,#1656);
#1391=AXIS2_PLACEMENT_3D('',#2051,#1657,#1658);
#1392=AXIS2_PLACEMENT_3D('',#2053,#1659,#1660);
#1393=AXIS2_PLACEMENT_3D('',#2054,#1661,#1662);
#1394=AXIS2_PLACEMENT_3D('',#2058,#1664,#1665);
#1395=AXIS2_PLACEMENT_3D('',#2060,#1667,#1668);
#1396=AXIS2_PLACEMENT_3D('',#2064,#1671,#1672);
#1397=AXIS2_PLACEMENT_3D('',#2067,#1675,#1676);
#1398=AXIS2_PLACEMENT_3D('',#2069,#1678,#1679);
#1399=AXIS2_PLACEMENT_3D('',#2071,#1681,#1682);
#1400=AXIS2_PLACEMENT_3D('',#2072,#1683,#1684);
#1401=AXIS2_PLACEMENT_3D('',#2078,#1688,#1689);
#1402=AXIS2_PLACEMENT_3D('',#2081,#1692,#1693);
#1403=AXIS2_PLACEMENT_3D('',#2087,#1697,#1698);
#1404=AXIS2_PLACEMENT_3D('',#2090,#1701,#1702);
#1405=AXIS2_PLACEMENT_3D('',#2093,#1705,#1706);
#1406=AXIS2_PLACEMENT_3D('',#2096,#1708,#1709);
#1407=AXIS2_PLACEMENT_3D('',#2097,#1710,#1711);
#1408=AXIS2_PLACEMENT_3D('',#2100,#1714,#1715);
#1409=AXIS2_PLACEMENT_3D('',#2101,#1716,#1717);
#1410=AXIS2_PLACEMENT_3D('',#2103,#1719,#1720);
#1411=AXIS2_PLACEMENT_3D('',#2104,#1721,#1722);
#1412=AXIS2_PLACEMENT_3D('',#2107,#1725,#1726);
#1413=AXIS2_PLACEMENT_3D('',#2108,#1727,#1728);
#1414=AXIS2_PLACEMENT_3D('',#2110,#1730,#1731);
#1415=AXIS2_PLACEMENT_3D('',#2112,#1733,#1734);
#1416=AXIS2_PLACEMENT_3D('',#2113,#1735,#1736);
#1417=AXIS2_PLACEMENT_3D('',#2114,#1737,#1738);
#1418=AXIS2_PLACEMENT_3D('',#2116,#1740,#1741);
#1419=AXIS2_PLACEMENT_3D('',#2118,#1743,#1744);
#1420=AXIS2_PLACEMENT_3D('',#2120,#1746,#1747);
#1421=AXIS2_PLACEMENT_3D('',#2123,#1750,#1751);
#1422=AXIS2_PLACEMENT_3D('',#2125,#1753,#1754);
#1423=AXIS2_PLACEMENT_3D('',#2127,#1756,#1757);
#1424=AXIS2_PLACEMENT_3D('',#2128,#1758,#1759);
#1425=AXIS2_PLACEMENT_3D('',#2131,#1762,#1763);
#1426=AXIS2_PLACEMENT_3D('',#2133,#1765,#1766);
#1427=AXIS2_PLACEMENT_3D('',#2135,#1768,#1769);
#1428=AXIS2_PLACEMENT_3D('',#2136,#1770,#1771);
#1429=DIRECTION('axis',(0.,0.,1.));
#1430=DIRECTION('refdir',(1.,0.,0.));
#1431=DIRECTION('axis',(0.,0.,1.));
#1432=DIRECTION('refdir',(1.,0.,0.));
#1433=DIRECTION('center_axis',(1.,0.,0.));
#1434=DIRECTION('ref_axis',(0.,1.,0.));
#1435=DIRECTION('',(0.,1.,0.));
#1436=DIRECTION('',(0.,0.,-1.));
#1437=DIRECTION('',(0.,-1.,0.));
#1438=DIRECTION('',(0.,0.,1.));
#1439=DIRECTION('center_axis',(-1.,0.,0.));
#1440=DIRECTION('ref_axis',(0.,1.,0.));
#1441=DIRECTION('center_axis',(-1.,0.,0.));
#1442=DIRECTION('ref_axis',(0.,1.,0.));
#1443=DIRECTION('center_axis',(-1.,0.,0.));
#1444=DIRECTION('ref_axis',(0.,1.,0.));
#1445=DIRECTION('center_axis',(-0.707106781186547,0.707106781186548,-6.33090308397284E-27));
#1446=DIRECTION('ref_axis',(-8.95324900342404E-27,0.,1.));
#1447=DIRECTION('',(0.707106781186548,0.707106781186547,-6.33090564774767E-27));
#1448=DIRECTION('',(0.,8.95324900342403E-27,1.));
#1449=DIRECTION('',(-0.707106781186548,-0.707106781186547,6.33090564774767E-27));
#1450=DIRECTION('',(0.,-8.95324900342403E-27,-1.));
#1451=DIRECTION('center_axis',(0.,8.95325262914919E-27,1.));
#1452=DIRECTION('ref_axis',(-5.89805981832115E-17,-1.,8.95325262914919E-27));
#1453=DIRECTION('',(1.,0.,0.));
#1454=DIRECTION('',(0.,-1.,8.95325262914919E-27));
#1455=DIRECTION('',(-1.,0.,0.));
#1456=DIRECTION('',(-5.89805981832115E-17,-1.,8.95325262914919E-27));
#1457=DIRECTION('center_axis',(0.,-1.,8.95324900342403E-27));
#1458=DIRECTION('ref_axis',(-6.1473183791847E-17,-8.95324900342403E-27,
-1.));
#1459=DIRECTION('',(1.,0.,0.));
#1460=DIRECTION('',(0.,-8.95324900342403E-27,-1.));
#1461=DIRECTION('center_axis',(-0.707106781186548,0.707106781186547,-6.33090308397283E-27));
#1462=DIRECTION('ref_axis',(-8.95324900342403E-27,0.,1.));
#1463=DIRECTION('',(0.707106781186547,0.707106781186548,-6.33090564774768E-27));
#1464=DIRECTION('',(0.,8.95324900342403E-27,1.));
#1465=DIRECTION('',(-0.707106781186547,-0.707106781186548,6.33090564774768E-27));
#1466=DIRECTION('',(0.,-8.95324900342403E-27,-1.));
#1467=DIRECTION('center_axis',(0.,8.95325262914919E-27,1.));
#1468=DIRECTION('ref_axis',(-5.89805981832115E-17,-1.,8.95325262914919E-27));
#1469=DIRECTION('',(1.,0.,0.));
#1470=DIRECTION('',(0.,-1.,8.95325262914919E-27));
#1471=DIRECTION('',(-1.,0.,0.));
#1472=DIRECTION('',(-5.89805981832115E-17,-1.,8.95325262914919E-27));
#1473=DIRECTION('center_axis',(0.,-1.,8.95324900342403E-27));
#1474=DIRECTION('ref_axis',(-6.1473183791847E-17,-8.95324900342403E-27,
-1.));
#1475=DIRECTION('',(1.,0.,0.));
#1476=DIRECTION('',(0.,-8.95324900342403E-27,-1.));
#1477=DIRECTION('center_axis',(-0.707106781186546,-0.707106781186549,6.33090308397285E-27));
#1478=DIRECTION('ref_axis',(8.95324900342406E-27,0.,1.));
#1479=DIRECTION('',(0.707106781186549,-0.707106781186546,6.33090564774766E-27));
#1480=DIRECTION('',(0.,-8.95324900342403E-27,-1.));
#1481=DIRECTION('',(-0.707106781186549,0.707106781186546,-6.33090564774766E-27));
#1482=DIRECTION('',(0.,8.95324900342403E-27,1.));
#1483=DIRECTION('center_axis',(0.,-8.95325262914919E-27,-1.));
#1484=DIRECTION('ref_axis',(5.89805981832115E-17,1.,-8.95325262914919E-27));
#1485=DIRECTION('',(1.,0.,0.));
#1486=DIRECTION('',(0.,1.,-8.95325262914919E-27));
#1487=DIRECTION('',(-1.,0.,0.));
#1488=DIRECTION('',(5.89805981832115E-17,1.,-8.95325262914919E-27));
#1489=DIRECTION('center_axis',(0.,1.,-8.95324900342403E-27));
#1490=DIRECTION('ref_axis',(6.1473183791847E-17,8.95324900342403E-27,1.));
#1491=DIRECTION('',(1.,0.,0.));
#1492=DIRECTION('',(0.,8.95324900342403E-27,1.));
#1493=DIRECTION('center_axis',(-0.707106781186546,-0.707106781186549,6.33090308397285E-27));
#1494=DIRECTION('ref_axis',(8.95324900342406E-27,0.,1.));
#1495=DIRECTION('',(0.707106781186549,-0.707106781186546,6.33090564774766E-27));
#1496=DIRECTION('',(0.,-8.95324900342403E-27,-1.));
#1497=DIRECTION('',(-0.707106781186549,0.707106781186546,-6.33090564774766E-27));
#1498=DIRECTION('',(0.,8.95324900342403E-27,1.));
#1499=DIRECTION('center_axis',(0.,-8.95325262914919E-27,-1.));
#1500=DIRECTION('ref_axis',(5.89805981832115E-17,1.,-8.95325262914919E-27));
#1501=DIRECTION('',(1.,0.,0.));
#1502=DIRECTION('',(0.,1.,-8.95325262914919E-27));
#1503=DIRECTION('',(-1.,0.,0.));
#1504=DIRECTION('',(5.89805981832115E-17,1.,-8.95325262914919E-27));
#1505=DIRECTION('center_axis',(0.,1.,-8.95324900342403E-27));
#1506=DIRECTION('ref_axis',(6.1473183791847E-17,8.95324900342403E-27,1.));
#1507=DIRECTION('',(1.,0.,0.));
#1508=DIRECTION('',(0.,8.95324900342403E-27,1.));
#1509=DIRECTION('center_axis',(0.,-8.95325262914919E-27,-1.));
#1510=DIRECTION('ref_axis',(5.89805981832115E-17,1.,-8.95325262914919E-27));
#1511=DIRECTION('',(5.89805981832115E-17,1.,-8.95325262914919E-27));
#1512=DIRECTION('',(1.,0.,0.));
#1513=DIRECTION('',(0.,1.,-8.95325262914919E-27));
#1514=DIRECTION('center_axis',(1.,0.,0.));
#1515=DIRECTION('ref_axis',(0.,0.,-1.));
#1516=DIRECTION('',(0.,0.,1.));
#1517=DIRECTION('center_axis',(0.,8.95325262914919E-27,1.));
#1518=DIRECTION('ref_axis',(-5.89805981832115E-17,-1.,8.95325262914919E-27));
#1519=DIRECTION('',(-5.89805981832115E-17,-1.,8.95325262914919E-27));
#1520=DIRECTION('',(1.,0.,0.));
#1521=DIRECTION('',(0.,-1.,8.95325262914919E-27));
#1522=DIRECTION('center_axis',(1.,0.,0.));
#1523=DIRECTION('ref_axis',(0.,0.,-1.));
#1524=DIRECTION('',(0.,0.,-1.));
#1525=DIRECTION('center_axis',(0.,8.95325262914919E-27,1.));
#1526=DIRECTION('ref_axis',(-5.89805981832115E-17,-1.,8.95325262914919E-27));
#1527=DIRECTION('',(-5.89805981832115E-17,-1.,8.95325262914919E-27));
#1528=DIRECTION('',(1.,0.,0.));
#1529=DIRECTION('',(0.,-1.,8.95325262914919E-27));
#1530=DIRECTION('center_axis',(1.,0.,0.));
#1531=DIRECTION('ref_axis',(0.,0.,-1.));
#1532=DIRECTION('',(0.,0.,-1.));
#1533=DIRECTION('center_axis',(0.,-8.95325262914919E-27,-1.));
#1534=DIRECTION('ref_axis',(5.89805981832115E-17,1.,-8.95325262914919E-27));
#1535=DIRECTION('',(5.89805981832115E-17,1.,-8.95325262914919E-27));
#1536=DIRECTION('',(1.,0.,0.));
#1537=DIRECTION('',(0.,1.,-8.95325262914919E-27));
#1538=DIRECTION('center_axis',(1.,0.,0.));
#1539=DIRECTION('ref_axis',(0.,0.,-1.));
#1540=DIRECTION('',(0.,0.,1.));
#1541=DIRECTION('center_axis',(-1.,0.,0.));
#1542=DIRECTION('ref_axis',(0.,0.,1.));
#1543=DIRECTION('',(0.,1.,0.));
#1544=DIRECTION('',(0.,0.707106781186546,-0.707106781186549));
#1545=DIRECTION('',(0.,0.,1.));
#1546=DIRECTION('',(0.,-0.707106781186549,-0.707106781186546));
#1547=DIRECTION('',(0.,-1.,0.));
#1548=DIRECTION('',(0.,-0.707106781186554,0.707106781186541));
#1549=DIRECTION('',(0.,0.,-1.));
#1550=DIRECTION('',(0.,0.707106781186544,0.707106781186551));
#1551=DIRECTION('center_axis',(1.,0.,0.));
#1552=DIRECTION('ref_axis',(6.16790569236198E-17,1.,0.));
#1553=DIRECTION('center_axis',(1.,0.,0.));
#1554=DIRECTION('ref_axis',(0.,1.,0.));
#1555=DIRECTION('center_axis',(1.,0.,0.));
#1556=DIRECTION('ref_axis',(0.,1.,0.));
#1557=DIRECTION('center_axis',(1.,0.,0.));
#1558=DIRECTION('ref_axis',(0.,1.,0.));
#1559=DIRECTION('center_axis',(1.,0.,0.));
#1560=DIRECTION('ref_axis',(0.,1.,0.));
#1561=DIRECTION('center_axis',(1.,0.,0.));
#1562=DIRECTION('ref_axis',(0.,1.,0.));
#1563=DIRECTION('center_axis',(1.,0.,0.));
#1564=DIRECTION('ref_axis',(0.,1.,0.));
#1565=DIRECTION('center_axis',(1.,0.,0.));
#1566=DIRECTION('ref_axis',(6.16790569236198E-17,1.,0.));
#1567=DIRECTION('',(0.,0.,-1.));
#1568=DIRECTION('',(0.,1.,0.));
#1569=DIRECTION('',(0.,0.,1.));
#1570=DIRECTION('',(0.,-1.,0.));
#1571=DIRECTION('',(0.,0.,-1.));
#1572=DIRECTION('',(0.,1.,0.));
#1573=DIRECTION('',(0.,0.,1.));
#1574=DIRECTION('',(0.,0.,1.));
#1575=DIRECTION('',(0.,-1.,0.));
#1576=DIRECTION('',(0.,0.,-1.));
#1577=DIRECTION('',(0.,0.,1.));
#1578=DIRECTION('',(0.,-1.,0.));
#1579=DIRECTION('',(0.,0.,-1.));
#1580=DIRECTION('',(0.,0.,-1.));
#1581=DIRECTION('',(0.,1.,0.));
#1582=DIRECTION('',(0.,0.,1.));
#1583=DIRECTION('center_axis',(1.,-6.16790569236198E-17,0.));
#1584=DIRECTION('ref_axis',(6.16790569236198E-17,1.,0.));
#1585=DIRECTION('',(1.,-6.16790569236198E-17,0.));
#1586=DIRECTION('center_axis',(-1.,0.,0.));
#1587=DIRECTION('ref_axis',(6.16790569236198E-17,1.,0.));
#1588=DIRECTION('center_axis',(1.,0.,0.));
#1589=DIRECTION('ref_axis',(0.,1.,0.));
#1590=DIRECTION('',(1.,0.,0.));
#1591=DIRECTION('center_axis',(-1.,0.,0.));
#1592=DIRECTION('ref_axis',(0.,1.,0.));
#1593=DIRECTION('center_axis',(1.,0.,0.));
#1594=DIRECTION('ref_axis',(0.,1.,0.));
#1595=DIRECTION('',(1.,0.,0.));
#1596=DIRECTION('center_axis',(-1.,0.,0.));
#1597=DIRECTION('ref_axis',(0.,1.,0.));
#1598=DIRECTION('center_axis',(1.,0.,0.));
#1599=DIRECTION('ref_axis',(0.,1.,0.));
#1600=DIRECTION('',(1.,0.,0.));
#1601=DIRECTION('center_axis',(-1.,0.,0.));
#1602=DIRECTION('ref_axis',(0.,1.,0.));
#1603=DIRECTION('center_axis',(1.,0.,0.));
#1604=DIRECTION('ref_axis',(0.,1.,0.));
#1605=DIRECTION('',(1.,0.,0.));
#1606=DIRECTION('center_axis',(-1.,0.,0.));
#1607=DIRECTION('ref_axis',(0.,1.,0.));
#1608=DIRECTION('center_axis',(1.,0.,0.));
#1609=DIRECTION('ref_axis',(0.,1.,0.));
#1610=DIRECTION('',(1.,0.,0.));
#1611=DIRECTION('center_axis',(-1.,0.,0.));
#1612=DIRECTION('ref_axis',(0.,1.,0.));
#1613=DIRECTION('center_axis',(1.,0.,0.));
#1614=DIRECTION('ref_axis',(0.,1.,0.));
#1615=DIRECTION('',(1.,0.,0.));
#1616=DIRECTION('center_axis',(-1.,0.,0.));
#1617=DIRECTION('ref_axis',(0.,1.,0.));
#1618=DIRECTION('center_axis',(1.,-6.16790569236198E-17,0.));
#1619=DIRECTION('ref_axis',(6.16790569236198E-17,1.,0.));
#1620=DIRECTION('',(1.,-6.16790569236198E-17,0.));
#1621=DIRECTION('center_axis',(-1.,0.,0.));
#1622=DIRECTION('ref_axis',(6.16790569236198E-17,1.,0.));
#1623=DIRECTION('center_axis',(-1.,0.,0.));
#1624=DIRECTION('ref_axis',(0.,-1.,0.));
#1625=DIRECTION('',(0.,-0.707106781186546,0.707106781186549));
#1626=DIRECTION('',(0.,-1.,0.));
#1627=DIRECTION('',(0.,-0.707106781186544,-0.707106781186551));
#1628=DIRECTION('',(0.,0.,1.));
#1629=DIRECTION('',(0.,0.707106781186554,-0.707106781186541));
#1630=DIRECTION('',(0.,1.,0.));
#1631=DIRECTION('',(0.,0.707106781186549,0.707106781186546));
#1632=DIRECTION('',(0.,0.,-1.));
#1633=DIRECTION('',(0.,0.,-1.));
#1634=DIRECTION('',(0.,-1.,0.));
#1635=DIRECTION('',(0.,0.,1.));
#1636=DIRECTION('',(0.,1.,0.));
#1637=DIRECTION('',(0.,1.,0.));
#1638=DIRECTION('',(0.,0.,-1.));
#1639=DIRECTION('',(0.,-1.,0.));
#1640=DIRECTION('',(0.,0.,1.));
#1641=DIRECTION('',(0.,4.01185068938926E-9,1.));
#1642=DIRECTION('center_axis',(1.,0.,0.));
#1643=DIRECTION('ref_axis',(0.,1.,0.));
#1644=DIRECTION('',(0.,4.01185068505604E-9,-1.));
#1645=DIRECTION('center_axis',(1.,0.,0.));
#1646=DIRECTION('ref_axis',(0.,1.,0.));
#1647=DIRECTION('center_axis',(1.,0.,0.));
#1648=DIRECTION('ref_axis',(0.,1.,0.));
#1649=DIRECTION('center_axis',(-1.,0.,0.));
#1650=DIRECTION('ref_axis',(0.,1.,0.));
#1651=DIRECTION('',(0.,-4.01185068938926E-9,-1.));
#1652=DIRECTION('center_axis',(-1.,0.,0.));
#1653=DIRECTION('ref_axis',(0.,1.,0.));
#1654=DIRECTION('',(0.,-4.01185068505604E-9,1.));
#1655=DIRECTION('center_axis',(-1.,0.,0.));
#1656=DIRECTION('ref_axis',(0.,1.,0.));
#1657=DIRECTION('center_axis',(-1.,0.,0.));
#1658=DIRECTION('ref_axis',(0.,1.,0.));
#1659=DIRECTION('center_axis',(-1.,0.,0.));
#1660=DIRECTION('ref_axis',(0.,1.,0.));
#1661=DIRECTION('center_axis',(-1.,0.,0.));
#1662=DIRECTION('ref_axis',(0.,-1.52827301547742E-14,1.));
#1663=DIRECTION('',(-1.,0.,0.));
#1664=DIRECTION('center_axis',(-1.,0.,0.));
#1665=DIRECTION('ref_axis',(0.,1.,0.));
#1666=DIRECTION('',(-1.,0.,0.));
#1667=DIRECTION('center_axis',(0.,1.,-4.01185068938926E-9));
#1668=DIRECTION('ref_axis',(0.,-4.01185068938926E-9,-1.));
#1669=DIRECTION('',(-1.,0.,0.));
#1670=DIRECTION('',(0.,-4.01185068938926E-9,-1.));
#1671=DIRECTION('center_axis',(0.,-1.,0.));
#1672=DIRECTION('ref_axis',(0.,0.,-1.));
#1673=DIRECTION('',(1.,0.,0.));
#1674=DIRECTION('',(1.,0.,0.));
#1675=DIRECTION('center_axis',(0.,0.,1.));
#1676=DIRECTION('ref_axis',(0.,-1.,0.));
#1677=DIRECTION('',(1.,0.,0.));
#1678=DIRECTION('center_axis',(0.,1.,0.));
#1679=DIRECTION('ref_axis',(0.,0.,1.));
#1680=DIRECTION('',(1.,0.,0.));
#1681=DIRECTION('center_axis',(0.,0.,-1.));
#1682=DIRECTION('ref_axis',(0.,1.,0.));
#1683=DIRECTION('center_axis',(-0.707106781186546,0.,-0.707106781186549));
#1684=DIRECTION('ref_axis',(-0.707106781186549,0.,0.707106781186546));
#1685=DIRECTION('',(0.577350269189629,-0.577350269189622,-0.577350269189627));
#1686=DIRECTION('',(0.,-1.,0.));
#1687=DIRECTION('',(-0.577350269189628,-0.577350269189623,0.577350269189626));
#1688=DIRECTION('center_axis',(0.,0.707106781186551,-0.707106781186544));
#1689=DIRECTION('ref_axis',(-1.,0.,0.));
#1690=DIRECTION('',(1.,0.,0.));
#1691=DIRECTION('',(-1.,0.,0.));
#1692=DIRECTION('center_axis',(-0.707106781186552,0.,0.707106781186543));
#1693=DIRECTION('ref_axis',(0.707106781186543,0.,0.707106781186552));
#1694=DIRECTION('',(0.57735026918962,0.57735026918963,0.577350269189628));
#1695=DIRECTION('',(0.,1.,0.));
#1696=DIRECTION('',(-0.577350269189617,0.577350269189635,-0.577350269189625));
#1697=DIRECTION('center_axis',(0.,-0.707106781186546,0.707106781186549));
#1698=DIRECTION('ref_axis',(1.,0.,0.));
#1699=DIRECTION('',(1.,0.,0.));
#1700=DIRECTION('',(-1.,0.,0.));
#1701=DIRECTION('center_axis',(0.707106781186548,-0.707106781186548,2.83680682757507E-9));
#1702=DIRECTION('ref_axis',(4.01185068938926E-9,0.,-1.));
#1703=DIRECTION('',(0.707106781186548,0.707106781186548,-2.83681165250067E-9));
#1704=DIRECTION('',(-0.707106781186548,-0.707106781186548,2.83681165250067E-9));
#1705=DIRECTION('center_axis',(1.,0.,0.));
#1706=DIRECTION('ref_axis',(0.,1.,0.));
#1707=DIRECTION('',(0.707106781186555,-0.70710678118654,0.));
#1708=DIRECTION('center_axis',(-1.,0.,0.));
#1709=DIRECTION('ref_axis',(0.,1.,0.));
#1710=DIRECTION('center_axis',(0.707106781186555,0.70710678118654,2.83680682451099E-9));
#1711=DIRECTION('ref_axis',(4.01185068505595E-9,0.,-1.));
#1712=DIRECTION('',(0.70710678118654,-0.707106781186555,-2.83681165250064E-9));
#1713=DIRECTION('',(0.,-4.01185068505604E-9,1.));
#1714=DIRECTION('center_axis',(1.,0.,0.));
#1715=DIRECTION('ref_axis',(0.,-1.34834885604695E-14,1.));
#1716=DIRECTION('center_axis',(-1.,0.,0.));
#1717=DIRECTION('ref_axis',(0.,1.,0.));
#1718=DIRECTION('',(-1.,0.,0.));
#1719=DIRECTION('center_axis',(0.,-1.,-4.01185068505604E-9));
#1720=DIRECTION('ref_axis',(0.,-4.01185068505604E-9,1.));
#1721=DIRECTION('center_axis',(0.,-0.707106781186549,-0.707106781186546));
#1722=DIRECTION('ref_axis',(-1.,0.,0.));
#1723=DIRECTION('',(1.,0.,0.));
#1724=DIRECTION('',(-1.,0.,0.));
#1725=DIRECTION('center_axis',(0.,1.,0.));
#1726=DIRECTION('ref_axis',(0.,0.,1.));
#1727=DIRECTION('center_axis',(0.,-1.,0.));
#1728=DIRECTION('ref_axis',(0.,0.,-1.));
#1729=DIRECTION('',(-1.,0.,0.));
#1730=DIRECTION('center_axis',(0.,0.707106781186541,0.707106781186554));
#1731=DIRECTION('ref_axis',(1.,0.,0.));
#1732=DIRECTION('',(1.,0.,0.));
#1733=DIRECTION('center_axis',(0.,0.,-1.));
#1734=DIRECTION('ref_axis',(-1.,0.,0.));
#1735=DIRECTION('center_axis',(0.,0.,1.));
#1736=DIRECTION('ref_axis',(1.,0.,0.));
#1737=DIRECTION('center_axis',(1.,0.,0.));
#1738=DIRECTION('ref_axis',(0.,1.,0.));
#1739=DIRECTION('',(1.,0.,0.));
#1740=DIRECTION('center_axis',(1.,0.,0.));
#1741=DIRECTION('ref_axis',(0.,1.,0.));
#1742=DIRECTION('',(1.,0.,0.));
#1743=DIRECTION('center_axis',(1.,0.,0.));
#1744=DIRECTION('ref_axis',(0.,1.,0.));
#1745=DIRECTION('',(1.,0.,0.));
#1746=DIRECTION('center_axis',(0.,0.,-1.));
#1747=DIRECTION('ref_axis',(0.,-1.,0.));
#1748=DIRECTION('',(-1.,0.,0.));
#1749=DIRECTION('',(-1.,0.,0.));
#1750=DIRECTION('center_axis',(0.,1.,0.));
#1751=DIRECTION('ref_axis',(0.,0.,-1.));
#1752=DIRECTION('',(-1.,0.,0.));
#1753=DIRECTION('center_axis',(0.,0.,1.));
#1754=DIRECTION('ref_axis',(0.,1.,0.));
#1755=DIRECTION('',(-1.,0.,0.));
#1756=DIRECTION('center_axis',(0.,-1.,0.));
#1757=DIRECTION('ref_axis',(0.,0.,1.));
#1758=DIRECTION('center_axis',(0.,-1.,0.));
#1759=DIRECTION('ref_axis',(0.,0.,1.));
#1760=DIRECTION('',(-1.,0.,0.));
#1761=DIRECTION('',(-1.,0.,0.));
#1762=DIRECTION('center_axis',(0.,0.,-1.));
#1763=DIRECTION('ref_axis',(0.,-1.,0.));
#1764=DIRECTION('',(-1.,0.,0.));
#1765=DIRECTION('center_axis',(0.,1.,0.));
#1766=DIRECTION('ref_axis',(0.,0.,-1.));
#1767=DIRECTION('',(-1.,0.,0.));
#1768=DIRECTION('center_axis',(0.,0.,1.));
#1769=DIRECTION('ref_axis',(0.,1.,0.));
#1770=DIRECTION('',(0.,0.,1.));
#1771=DIRECTION('',(1.,0.,0.));
#1772=CARTESIAN_POINT('',(0.,0.,0.));
#1773=CARTESIAN_POINT('',(0.,0.,0.));
#1774=CARTESIAN_POINT('Origin',(-9.60000000000005,60.0000008940697,162.000002264977));
#1775=CARTESIAN_POINT('',(-9.60000000000005,55.0000008195639,152.000002115965));
#1776=CARTESIAN_POINT('',(-9.60000000000005,65.0000009685755,152.000002115965));
#1777=CARTESIAN_POINT('',(-9.60000000000005,65.0000009685755,152.000002115965));
#1778=CARTESIAN_POINT('',(-9.60000000000005,55.0000008195639,172.000002413988));
#1779=CARTESIAN_POINT('',(-9.60000000000005,55.0000008195639,152.000002115965));
#1780=CARTESIAN_POINT('',(-9.60000000000005,65.0000009685755,172.000002413988));
#1781=CARTESIAN_POINT('',(-9.60000000000005,55.0000008195639,172.000002413988));
#1782=CARTESIAN_POINT('',(-9.60000000000005,65.0000009685755,172.000002413988));
#1783=CARTESIAN_POINT('',(-9.60000000000005,58.4000008940697,156.500002279878));
#1784=CARTESIAN_POINT('Origin',(-9.60000000000005,60.0000008940697,156.500002279878));
#1785=CARTESIAN_POINT('',(-9.60000000000005,58.4000008940697,169.500002279878));
#1786=CARTESIAN_POINT('Origin',(-9.60000000000005,60.0000008940697,169.500002279878));
#1787=CARTESIAN_POINT('',(-9.60000000000005,58.4000008940697,163.000002279878));
#1788=CARTESIAN_POINT('Origin',(-9.60000000000005,60.0000008940697,163.000002279878));
#1789=CARTESIAN_POINT('Origin',(-10.3000000000001,0.500000067055359,162.500002264977));
#1790=CARTESIAN_POINT('',(-11.3000000000001,-0.499999932944641,161.000002264977));
#1791=CARTESIAN_POINT('',(-9.30000000000014,1.50000006705536,161.000002264977));
#1792=CARTESIAN_POINT('',(-11.1750000000001,-0.374999932944642,161.000002264977));
#1793=CARTESIAN_POINT('',(-11.3000000000001,-0.499999932944641,163.000002264977));
#1794=CARTESIAN_POINT('',(-11.3000000000001,-0.499999932944641,162.500002264977));
#1795=CARTESIAN_POINT('',(-9.30000000000014,1.50000006705536,163.000002264977));
#1796=CARTESIAN_POINT('',(-9.92500000000014,0.875000067055358,163.000002264977));
#1797=CARTESIAN_POINT('',(-9.30000000000014,1.50000006705536,162.500002264977));
#1798=CARTESIAN_POINT('Origin',(-12.8000000000001,4.50000006705536,163.000002264977));
#1799=CARTESIAN_POINT('',(-12.8000000000001,-0.499999932944641,163.000002264977));
#1800=CARTESIAN_POINT('',(-12.8000000000001,-0.499999932944641,163.000002264977));
#1801=CARTESIAN_POINT('',(-12.8000000000001,4.50000006705536,163.000002264977));
#1802=CARTESIAN_POINT('',(-12.8,32.2500004805625,163.000002264977));
#1803=CARTESIAN_POINT('',(-9.30000000000014,4.50000006705536,163.000002264977));
#1804=CARTESIAN_POINT('',(-9.80000000000009,4.50000006705523,163.000002264977));
#1805=CARTESIAN_POINT('',(-9.30000000000014,9.50000006705536,163.000002264977));
#1806=CARTESIAN_POINT('Origin',(-12.8000000000001,-0.499999932944641,163.000002264977));
#1807=CARTESIAN_POINT('',(-12.8000000000001,-0.499999932944641,161.000002264977));
#1808=CARTESIAN_POINT('',(-12.8000000000001,-0.499999932944641,161.000002264977));
#1809=CARTESIAN_POINT('',(-12.8,-0.499999932944641,162.500002264977));
#1810=CARTESIAN_POINT('Origin',(-10.3000000000001,70.0000017210842,162.500002421439));
#1811=CARTESIAN_POINT('',(-11.3000000000001,69.0000017210842,161.000002421439));
#1812=CARTESIAN_POINT('',(-9.30000000000014,71.0000017210842,161.000002421439));
#1813=CARTESIAN_POINT('',(-11.1750000000001,69.1250017210842,161.000002421439));
#1814=CARTESIAN_POINT('',(-11.3000000000001,69.0000017210842,163.000002421439));
#1815=CARTESIAN_POINT('',(-11.3000000000001,69.0000017210842,162.500002421439));
#1816=CARTESIAN_POINT('',(-9.30000000000014,71.0000017210842,163.000002421439));
#1817=CARTESIAN_POINT('',(-9.92500000000014,70.3750017210842,163.000002421439));
#1818=CARTESIAN_POINT('',(-9.30000000000014,71.0000017210842,162.500002421439));
#1819=CARTESIAN_POINT('Origin',(-12.8000000000001,74.0000017210842,163.000002421439));
#1820=CARTESIAN_POINT('',(-12.8000000000001,69.0000017210842,163.000002421439));
#1821=CARTESIAN_POINT('',(-12.8000000000001,69.0000017210842,163.000002421439));
#1822=CARTESIAN_POINT('',(-12.8000000000001,74.0000017210842,163.000002421439));
#1823=CARTESIAN_POINT('',(-12.8,67.000001307577,163.000002421439));
#1824=CARTESIAN_POINT('',(-9.30000000000014,74.0000017210842,163.000002421439));
#1825=CARTESIAN_POINT('',(-9.80000000000009,74.0000017210841,163.000002421439));
#1826=CARTESIAN_POINT('',(-9.30000000000014,79.0000017210842,163.000002421439));
#1827=CARTESIAN_POINT('Origin',(-12.8000000000001,69.0000017210842,163.000002421439));
#1828=CARTESIAN_POINT('',(-12.8000000000001,69.0000017210842,161.000002421439));
#1829=CARTESIAN_POINT('',(-12.8000000000001,69.0000017210842,161.000002421439));
#1830=CARTESIAN_POINT('',(-12.8,69.0000017210842,162.500002343208));
#1831=CARTESIAN_POINT('Origin',(-10.3000000000001,119.500001721084,161.500002421439));
#1832=CARTESIAN_POINT('',(-11.3000000000001,120.500001721084,163.000002421439));
#1833=CARTESIAN_POINT('',(-9.30000000000014,118.500001721084,163.000002421439));
#1834=CARTESIAN_POINT('',(-11.1750000000001,120.375001721084,163.000002421439));
#1835=CARTESIAN_POINT('',(-11.3000000000001,120.500001721084,161.000002421439));
#1836=CARTESIAN_POINT('',(-11.3000000000001,120.500001721084,161.500002421439));
#1837=CARTESIAN_POINT('',(-9.30000000000014,118.500001721084,161.000002421439));
#1838=CARTESIAN_POINT('',(-9.92500000000014,119.125001721084,161.000002421439));
#1839=CARTESIAN_POINT('',(-9.30000000000014,118.500001721084,161.500002421439));
#1840=CARTESIAN_POINT('Origin',(-12.8000000000001,115.500001721084,161.000002421439));
#1841=CARTESIAN_POINT('',(-12.8000000000001,120.500001721084,161.000002421439));
#1842=CARTESIAN_POINT('',(-12.8000000000001,120.500001721084,161.000002421439));
#1843=CARTESIAN_POINT('',(-12.8000000000001,115.500001721084,161.000002421439));
#1844=CARTESIAN_POINT('',(-12.8,87.750001307577,161.000002421439));
#1845=CARTESIAN_POINT('',(-9.30000000000014,115.500001721084,161.000002421439));
#1846=CARTESIAN_POINT('',(-9.80000000000009,115.500001721084,161.000002421439));
#1847=CARTESIAN_POINT('',(-9.30000000000014,110.500001721084,161.000002421439));
#1848=CARTESIAN_POINT('Origin',(-12.8000000000001,120.500001721084,161.000002421439));
#1849=CARTESIAN_POINT('',(-12.8000000000001,120.500001721084,163.000002421439));
#1850=CARTESIAN_POINT('',(-12.8000000000001,120.500001721084,163.000002421439));
#1851=CARTESIAN_POINT('',(-12.8,120.500001721084,161.500002343208));
#1852=CARTESIAN_POINT('Origin',(-10.3000000000001,50.0000006854535,161.500002264977));
#1853=CARTESIAN_POINT('',(-11.3000000000001,51.0000006854535,163.000002264977));
#1854=CARTESIAN_POINT('',(-9.30000000000014,49.0000006854535,163.000002264977));
#1855=CARTESIAN_POINT('',(-11.1750000000001,50.8750006854535,163.000002264977));
#1856=CARTESIAN_POINT('',(-11.3000000000001,51.0000006854535,161.000002264977));
#1857=CARTESIAN_POINT('',(-11.3000000000001,51.0000006854535,161.500002264977));
#1858=CARTESIAN_POINT('',(-9.30000000000014,49.0000006854535,161.000002264977));
#1859=CARTESIAN_POINT('',(-9.92500000000014,49.6250006854535,161.000002264977));
#1860=CARTESIAN_POINT('',(-9.30000000000014,49.0000006854535,161.500002264977));
#1861=CARTESIAN_POINT('Origin',(-12.8000000000001,46.0000006854535,161.000002264977));
#1862=CARTESIAN_POINT('',(-12.8000000000001,51.0000006854535,161.000002264977));
#1863=CARTESIAN_POINT('',(-12.8000000000001,51.0000006854535,161.000002264977));
#1864=CARTESIAN_POINT('',(-12.8000000000001,46.0000006854535,161.000002264977));
#1865=CARTESIAN_POINT('',(-12.8,53.0000007897616,161.000002264977));
#1866=CARTESIAN_POINT('',(-9.30000000000014,46.0000006854535,161.000002264977));
#1867=CARTESIAN_POINT('',(-9.80000000000009,46.0000006854534,161.000002264977));
#1868=CARTESIAN_POINT('',(-9.30000000000014,41.0000006854535,161.000002264977));
#1869=CARTESIAN_POINT('Origin',(-12.8000000000001,51.0000006854535,161.000002264977));
#1870=CARTESIAN_POINT('',(-12.8000000000001,51.0000006854535,163.000002264977));
#1871=CARTESIAN_POINT('',(-12.8000000000001,51.0000006854535,163.000002264977));
#1872=CARTESIAN_POINT('',(-12.8,51.0000006854535,161.500002264977));
#1873=CARTESIAN_POINT('Origin',(-12.8000000000001,69.0000017210842,161.000002421439));
#1874=CARTESIAN_POINT('',(-9.30000000000014,74.0000017210842,161.000002421439));
#1875=CARTESIAN_POINT('',(-9.30000000000014,69.0000017210842,161.000002421439));
#1876=CARTESIAN_POINT('',(-12.8000000000001,74.0000017210842,161.000002421439));
#1877=CARTESIAN_POINT('',(-9.80000000000009,74.0000017210841,161.000002421439));
#1878=CARTESIAN_POINT('',(-12.8,64.500001307577,161.000002421439));
#1879=CARTESIAN_POINT('Origin',(-9.30000000000014,71.5000017210842,162.000002421439));
#1880=CARTESIAN_POINT('',(-9.30000000000014,74.0000017210841,156.750002421439));
#1881=CARTESIAN_POINT('Origin',(-12.8000000000001,51.0000006854535,163.000002264977));
#1882=CARTESIAN_POINT('',(-9.30000000000014,46.0000006854535,163.000002264977));
#1883=CARTESIAN_POINT('',(-9.30000000000014,51.0000006854535,163.000002264977));
#1884=CARTESIAN_POINT('',(-12.8000000000001,46.0000006854535,163.000002264977));
#1885=CARTESIAN_POINT('',(-9.80000000000009,46.0000006854534,163.000002264977));
#1886=CARTESIAN_POINT('',(-12.8,55.5000007897616,163.000002264977));
#1887=CARTESIAN_POINT('Origin',(-9.30000000000014,48.5000006854535,162.000002264977));
#1888=CARTESIAN_POINT('',(-9.30000000000014,46.0000006854534,167.250002343208));
#1889=CARTESIAN_POINT('Origin',(-12.8000000000001,120.500001721084,163.000002421439));
#1890=CARTESIAN_POINT('',(-9.30000000000014,115.500001721084,163.000002421439));
#1891=CARTESIAN_POINT('',(-9.30000000000014,120.500001721084,163.000002421439));
#1892=CARTESIAN_POINT('',(-12.8000000000001,115.500001721084,163.000002421439));
#1893=CARTESIAN_POINT('',(-9.80000000000009,115.500001721084,163.000002421439));
#1894=CARTESIAN_POINT('',(-12.8,90.250001307577,163.000002421439));
#1895=CARTESIAN_POINT('Origin',(-9.30000000000014,118.000001721084,162.000002421439));
#1896=CARTESIAN_POINT('',(-9.30000000000014,115.500001721084,167.250002421439));
#1897=CARTESIAN_POINT('Origin',(-12.8000000000001,-0.499999932944641,161.000002264977));
#1898=CARTESIAN_POINT('',(-9.30000000000014,4.50000006705536,161.000002264977));
#1899=CARTESIAN_POINT('',(-9.30000000000014,-0.499999932944641,161.000002264977));
#1900=CARTESIAN_POINT('',(-12.8000000000001,4.50000006705536,161.000002264977));
#1901=CARTESIAN_POINT('',(-9.80000000000009,4.50000006705523,161.000002264977));
#1902=CARTESIAN_POINT('',(-12.8,29.7500004805625,161.000002264977));
#1903=CARTESIAN_POINT('Origin',(-9.30000000000014,2.00000006705536,162.000002264977));
#1904=CARTESIAN_POINT('',(-9.30000000000014,4.50000006705523,156.750002186745));
#1905=CARTESIAN_POINT('Origin',(-12.8,60.0000008940697,162.000002264977));
#1906=CARTESIAN_POINT('',(-12.8,-1.99999993294477,150.999996848404));
#1907=CARTESIAN_POINT('',(-12.8,122.999997228384,150.999996848404));
#1908=CARTESIAN_POINT('',(-12.8,91.9999990612268,150.999996848404));
#1909=CARTESIAN_POINT('',(-12.8,-2.99999993294477,151.999996848404));
#1910=CARTESIAN_POINT('',(-12.8,10.7499989196657,138.249997995794));
#1911=CARTESIAN_POINT('',(-12.8,-2.99999993294477,171.999996356666));
#1912=CARTESIAN_POINT('',(-12.8,-2.99999993294477,172.999996356666));
#1913=CARTESIAN_POINT('',(-12.8,-1.99999993294478,172.999996356666));
#1914=CARTESIAN_POINT('',(-12.8,10.7500017508865,185.749998040497));
#1915=CARTESIAN_POINT('',(-12.8,122.999997228384,172.999996356666));
#1916=CARTESIAN_POINT('',(-12.8,28.5000004805624,172.999996356666));
#1917=CARTESIAN_POINT('',(-12.8,123.999997228384,171.999996356666));
#1918=CARTESIAN_POINT('',(-12.8,109.999996667728,185.999996917322));
#1919=CARTESIAN_POINT('',(-12.8,123.999997228384,151.999996848404));
#1920=CARTESIAN_POINT('',(-12.8,123.999997228384,167.499999310821));
#1921=CARTESIAN_POINT('',(-12.8,109.999999498949,137.999999118969));
#1922=CARTESIAN_POINT('',(-12.8,-1.20000007241377,166.999999635853));
#1923=CARTESIAN_POINT('Origin',(-12.8,0.899999927586235,166.999999635853));
#1924=CARTESIAN_POINT('',(-12.8,68.7,156.891729985377));
#1925=CARTESIAN_POINT('Origin',(-12.8,70.8,156.891729985377));
#1926=CARTESIAN_POINT('',(-12.8,47.1000000000001,167.1));
#1927=CARTESIAN_POINT('Origin',(-12.8,49.2000000000001,167.1));
#1928=CARTESIAN_POINT('',(-12.8,116.9,166.891729985377));
#1929=CARTESIAN_POINT('Origin',(-12.8,119.,166.891729985377));
#1930=CARTESIAN_POINT('',(-12.8,116.9,156.891729985377));
#1931=CARTESIAN_POINT('Origin',(-12.8,119.,156.891729985377));
#1932=CARTESIAN_POINT('',(-12.8,68.7000000000001,166.891729985377));
#1933=CARTESIAN_POINT('Origin',(-12.8,70.8,166.891729985377));
#1934=CARTESIAN_POINT('',(-12.8,47.1000000000001,157.1));
#1935=CARTESIAN_POINT('Origin',(-12.8,49.2000000000001,157.1));
#1936=CARTESIAN_POINT('',(-12.8,-1.20000007957781,156.999999635853));
#1937=CARTESIAN_POINT('Origin',(-12.8,0.899999920422188,156.999999635853));
#1938=CARTESIAN_POINT('',(-12.8,55.0000008195639,172.000002413988));
#1939=CARTESIAN_POINT('',(-12.8,55.0000008195639,152.000002115965));
#1940=CARTESIAN_POINT('',(-12.8,55.0000008195639,167.000002339482));
#1941=CARTESIAN_POINT('',(-12.8,65.0000009685755,152.000002115965));
#1942=CARTESIAN_POINT('',(-12.8,57.5000008568168,152.000002115965));
#1943=CARTESIAN_POINT('',(-12.8,65.0000009685755,172.000002413988));
#1944=CARTESIAN_POINT('',(-12.8,65.0000009685755,157.000002190471));
#1945=CARTESIAN_POINT('',(-12.8,62.5000009313226,172.000002413988));
#1946=CARTESIAN_POINT('',(-12.8,74.0000017210841,151.500002421439));
#1947=CARTESIAN_POINT('',(-12.8,74.0000017210841,156.750002343208));
#1948=CARTESIAN_POINT('',(-12.8,115.500001721084,151.500002421439));
#1949=CARTESIAN_POINT('',(-12.8,87.7500013075769,151.500002421439));
#1950=CARTESIAN_POINT('',(-12.8,115.500001721084,167.250002343208));
#1951=CARTESIAN_POINT('',(-12.8,115.500001721084,172.500002421439));
#1952=CARTESIAN_POINT('',(-12.8,115.500001721084,167.250002343208));
#1953=CARTESIAN_POINT('',(-12.8,74.0000017210841,172.500002421439));
#1954=CARTESIAN_POINT('',(-12.8,67.0000013075769,172.500002421439));
#1955=CARTESIAN_POINT('',(-12.8,74.0000017210841,156.750002343208));
#1956=CARTESIAN_POINT('',(-12.8,46.0000006854534,172.500002421439));
#1957=CARTESIAN_POINT('',(-12.8,46.0000006854534,167.250002343208));
#1958=CARTESIAN_POINT('',(-12.8,4.50000006705523,172.500002421439));
#1959=CARTESIAN_POINT('',(-12.8,32.2500004805624,172.500002421439));
#1960=CARTESIAN_POINT('',(-12.8,4.50000006705523,156.750002186745));
#1961=CARTESIAN_POINT('',(-12.8,4.50000006705523,151.500002108514));
#1962=CARTESIAN_POINT('',(-12.8,4.50000006705523,156.750002186745));
#1963=CARTESIAN_POINT('',(-12.8,46.0000006854534,151.500002108514));
#1964=CARTESIAN_POINT('',(-12.8,53.0000007897615,151.500002108514));
#1965=CARTESIAN_POINT('',(-12.8,46.0000006854534,167.250002343208));
#1966=CARTESIAN_POINT('Origin',(-15.8000000000001,0.899999927586235,166.999999635853));
#1967=CARTESIAN_POINT('',(-6.80000000000005,-1.20000007241377,166.999999635853));
#1968=CARTESIAN_POINT('',(-15.8000000000001,-1.20000007241377,166.999999635853));
#1969=CARTESIAN_POINT('Origin',(-6.80000000000005,0.899999927586235,166.999999635853));
#1970=CARTESIAN_POINT('Origin',(-15.8000000019733,70.8,156.891729985377));
#1971=CARTESIAN_POINT('',(-6.80000000000004,68.7,156.891729985377));
#1972=CARTESIAN_POINT('',(-15.8000000019733,68.7,156.891729985377));
#1973=CARTESIAN_POINT('Origin',(-6.80000000000004,70.8,156.891729985377));
#1974=CARTESIAN_POINT('Origin',(-15.8000000019733,49.2000000000001,167.1));
#1975=CARTESIAN_POINT('',(-6.80000000000004,47.1000000000001,167.1));
#1976=CARTESIAN_POINT('',(-15.8000000019733,47.1000000000001,167.1));
#1977=CARTESIAN_POINT('Origin',(-6.80000000000004,49.2000000000001,167.1));
#1978=CARTESIAN_POINT('Origin',(-15.8000000000001,119.,166.891729985377));
#1979=CARTESIAN_POINT('',(-6.80000000000004,116.9,166.891729985377));
#1980=CARTESIAN_POINT('',(-15.8000000000001,116.9,166.891729985377));
#1981=CARTESIAN_POINT('Origin',(-6.80000000000004,119.,166.891729985377));
#1982=CARTESIAN_POINT('Origin',(-15.8000000000001,119.,156.891729985377));
#1983=CARTESIAN_POINT('',(-6.80000000000004,116.9,156.891729985377));
#1984=CARTESIAN_POINT('',(-15.8000000000001,116.9,156.891729985377));
#1985=CARTESIAN_POINT('Origin',(-6.80000000000004,119.,156.891729985377));
#1986=CARTESIAN_POINT('Origin',(-15.8000000019733,70.8,166.891729985377));
#1987=CARTESIAN_POINT('',(-6.80000000000004,68.7000000000001,166.891729985377));
#1988=CARTESIAN_POINT('',(-15.8000000019733,68.7000000000001,166.891729985377));
#1989=CARTESIAN_POINT('Origin',(-6.80000000000004,70.8,166.891729985377));
#1990=CARTESIAN_POINT('Origin',(-15.8000000019733,49.2000000000001,157.1));
#1991=CARTESIAN_POINT('',(-6.80000000000004,47.1000000000001,157.1));
#1992=CARTESIAN_POINT('',(-15.8000000019733,47.1000000000001,157.1));
#1993=CARTESIAN_POINT('Origin',(-6.80000000000004,49.2000000000001,157.1));
#1994=CARTESIAN_POINT('Origin',(-15.8000000000002,0.899999920422188,156.999999635853));
#1995=CARTESIAN_POINT('',(-6.80000000000005,-1.20000007957781,156.999999635853));
#1996=CARTESIAN_POINT('',(-15.8000000000002,-1.20000007957781,156.999999635853));
#1997=CARTESIAN_POINT('Origin',(-6.80000000000005,0.899999920422187,156.999999635853));
#1998=CARTESIAN_POINT('Origin',(-6.80000000000004,60.0000008940697,162.000002264977));
#1999=CARTESIAN_POINT('',(-6.80000000000004,-0.999999932944782,149.999996848404));
#2000=CARTESIAN_POINT('',(-6.80000000000004,-2.99999993294477,151.999996848404));
#2001=CARTESIAN_POINT('',(-6.80000000000004,10.7499989196657,138.249997995794));
#2002=CARTESIAN_POINT('',(-6.80000000000004,121.999997228384,149.999996848404));
#2003=CARTESIAN_POINT('',(-6.80000000000004,91.9999990612268,149.999996848404));
#2004=CARTESIAN_POINT('',(-6.80000000000004,123.999997228384,151.999996848404));
#2005=CARTESIAN_POINT('',(-6.80000000000004,109.999999498949,137.999999118969));
#2006=CARTESIAN_POINT('',(-6.80000000000004,123.999997228384,171.999996356666));
#2007=CARTESIAN_POINT('',(-6.80000000000004,123.999997228384,167.499999310821));
#2008=CARTESIAN_POINT('',(-6.80000000000004,121.999997228384,173.999996356666));
#2009=CARTESIAN_POINT('',(-6.80000000000004,109.999996667728,185.999996917322));
#2010=CARTESIAN_POINT('',(-6.80000000000004,-0.999999932944773,173.999996356666));
#2011=CARTESIAN_POINT('',(-6.80000000000004,28.5000004805624,173.999996356666));
#2012=CARTESIAN_POINT('',(-6.80000000000004,-2.99999993294477,171.999996356666));
#2013=CARTESIAN_POINT('',(-6.80000000000004,10.7500017508865,185.749998040497));
#2014=CARTESIAN_POINT('',(-6.80000000000004,-2.99999993294477,156.49999955669));
#2015=CARTESIAN_POINT('',(-6.80000000000004,46.0000006854534,172.500002421439));
#2016=CARTESIAN_POINT('',(-6.80000000000004,46.0000006854534,151.500002108514));
#2017=CARTESIAN_POINT('',(-6.80000000000004,46.0000006854534,167.250002343208));
#2018=CARTESIAN_POINT('',(-6.80000000000004,4.50000006705523,151.500002108514));
#2019=CARTESIAN_POINT('',(-6.80000000000004,53.0000007897615,151.500002108514));
#2020=CARTESIAN_POINT('',(-6.80000000000004,4.50000006705523,172.500002421439));
#2021=CARTESIAN_POINT('',(-6.80000000000004,4.50000006705523,156.750002186745));
#2022=CARTESIAN_POINT('',(-6.80000000000004,32.2500004805624,172.500002421439));
#2023=CARTESIAN_POINT('',(-6.80000000000004,74.0000017210841,172.500002421439));
#2024=CARTESIAN_POINT('',(-6.80000000000004,115.500001721084,172.500002421439));
#2025=CARTESIAN_POINT('',(-6.80000000000004,67.0000013075769,172.500002421439));
#2026=CARTESIAN_POINT('',(-6.80000000000004,115.500001721084,151.500002421439));
#2027=CARTESIAN_POINT('',(-6.80000000000004,115.500001721084,167.250002343208));
#2028=CARTESIAN_POINT('',(-6.80000000000004,74.0000017210841,151.500002421439));
#2029=CARTESIAN_POINT('',(-6.80000000000004,87.7500013075769,151.500002421439));
#2030=CARTESIAN_POINT('',(-6.80000000000004,74.0000017210841,156.750002343208));
#2031=CARTESIAN_POINT('',(-6.80000000000004,63.9000008940697,156.500002292314));
#2032=CARTESIAN_POINT('',(-6.80000000000004,63.9000009462237,169.500002264232));
#2033=CARTESIAN_POINT('',(-6.80000000000004,63.9000009311793,165.750002256781));
#2034=CARTESIAN_POINT('',(-6.80000000000004,56.1000008940697,156.500002279878));
#2035=CARTESIAN_POINT('Origin',(-6.80000000000004,60.0000008940697,156.500002279878));
#2036=CARTESIAN_POINT('',(-6.80000000000004,56.1000008419156,169.500002264231));
#2037=CARTESIAN_POINT('',(-6.80000000000004,56.1000008830371,159.250002263802));
#2038=CARTESIAN_POINT('Origin',(-6.80000000000004,60.0000008940697,169.500002279878));
#2039=CARTESIAN_POINT('Origin',(-8.80000000000004,60.0000008940697,163.000002305955));
#2040=CARTESIAN_POINT('',(-8.80000000000004,63.5000008940697,156.500002293919));
#2041=CARTESIAN_POINT('',(-8.80000000000004,56.5000008940697,156.500002279878));
#2042=CARTESIAN_POINT('Origin',(-8.80000000000004,60.0000008940697,156.500002279878));
#2043=CARTESIAN_POINT('',(-8.80000000000004,63.5000009462237,169.500002265836));
#2044=CARTESIAN_POINT('',(-8.80000000000004,63.5000009331852,166.250002278875));
#2045=CARTESIAN_POINT('',(-8.80000000000004,56.5000008419156,169.500002265836));
#2046=CARTESIAN_POINT('Origin',(-8.80000000000004,60.0000008940697,169.500002279878));
#2047=CARTESIAN_POINT('',(-8.80000000000004,56.5000008810312,159.750002285895));
#2048=CARTESIAN_POINT('',(-8.80000000000004,58.4000008940697,156.500002279878));
#2049=CARTESIAN_POINT('Origin',(-8.80000000000004,60.0000008940697,156.500002279878));
#2050=CARTESIAN_POINT('',(-8.80000000000004,58.4000008940697,163.000002279878));
#2051=CARTESIAN_POINT('Origin',(-8.80000000000004,60.0000008940697,163.000002279878));
#2052=CARTESIAN_POINT('',(-8.80000000000004,58.4000008940697,169.500002279878));
#2053=CARTESIAN_POINT('Origin',(-8.80000000000004,60.0000008940697,169.500002279878));
#2054=CARTESIAN_POINT('Origin',(-6.80000000000004,60.0000008940697,169.500002279878));
#2055=CARTESIAN_POINT('',(-7.20000000000004,63.5000009462237,169.500002265836));
#2056=CARTESIAN_POINT('',(-6.80000000000004,63.5000009462237,169.500002265836));
#2057=CARTESIAN_POINT('',(-7.20000000000004,56.5000008419156,169.500002265836));
#2058=CARTESIAN_POINT('Origin',(-7.20000000000004,60.0000008940697,169.500002279878));
#2059=CARTESIAN_POINT('',(-6.80000000000004,56.5000008419156,169.500002265836));
#2060=CARTESIAN_POINT('Origin',(-6.80000000000004,63.5000009462237,169.500002265836));
#2061=CARTESIAN_POINT('',(-7.20000000000004,63.5000008940697,156.500002293919));
#2062=CARTESIAN_POINT('',(-6.80000000000004,63.5000008940697,156.500002293919));
#2063=CARTESIAN_POINT('',(-7.20000000000004,63.5000009311793,165.750002258386));
#2064=CARTESIAN_POINT('Origin',(-12.8,55.0000008195639,172.000002413988));
#2065=CARTESIAN_POINT('',(-12.8,55.0000008195639,172.000002413988));
#2066=CARTESIAN_POINT('',(-12.8,55.0000008195639,152.000002115965));
#2067=CARTESIAN_POINT('Origin',(-12.8,65.0000009685755,172.000002413988));
#2068=CARTESIAN_POINT('',(-12.8,65.0000009685755,172.000002413988));
#2069=CARTESIAN_POINT('Origin',(-12.8,65.0000009685755,152.000002115965));
#2070=CARTESIAN_POINT('',(-12.8,65.0000009685755,152.000002115965));
#2071=CARTESIAN_POINT('Origin',(-12.8,55.0000008195639,152.000002115965));
#2072=CARTESIAN_POINT('Origin',(-12.3,91.9999990612268,150.499996848404));
#2073=CARTESIAN_POINT('',(-11.8,121.999997228384,149.999996848404));
#2074=CARTESIAN_POINT('',(-7.46666697214052,117.666664200525,145.666663820545));
#2075=CARTESIAN_POINT('',(-11.8,-0.999999932944773,149.999996848404));
#2076=CARTESIAN_POINT('',(-11.8,91.9999990612268,149.999996848404));
#2077=CARTESIAN_POINT('',(3.03333316569522,13.8333332327504,135.166663682709));
#2078=CARTESIAN_POINT('Origin',(-12.8,122.999997228384,150.999996848404));
#2079=CARTESIAN_POINT('',(-12.8,123.999997228384,151.999996848404));
#2080=CARTESIAN_POINT('',(-12.8,121.999997228384,149.999996848404));
#2081=CARTESIAN_POINT('Origin',(-12.3,28.5000004805624,173.499996356666));
#2082=CARTESIAN_POINT('',(-11.8,-0.999999932944775,173.999996356666));
#2083=CARTESIAN_POINT('',(-7.54999993108218,3.25000013597316,178.249996425584));
#2084=CARTESIAN_POINT('',(-11.8,121.999997228384,173.999996356666));
#2085=CARTESIAN_POINT('',(-11.8,28.5000004805624,173.999996356666));
#2086=CARTESIAN_POINT('',(3.11666612463693,107.083331103747,188.916662481303));
#2087=CARTESIAN_POINT('Origin',(-12.8,-1.99999993294477,172.999996356666));
#2088=CARTESIAN_POINT('',(-12.8,-2.99999993294477,171.999996356666));
#2089=CARTESIAN_POINT('',(-12.8,-0.999999932944775,173.999996356666));
#2090=CARTESIAN_POINT('Origin',(-7.00000000000004,63.7000009311793,165.750002257583));
#2091=CARTESIAN_POINT('',(-7.20000000000004,63.5000008940697,156.500002293919));
#2092=CARTESIAN_POINT('',(-6.80000000000004,63.9000009462237,169.500002264232));
#2093=CARTESIAN_POINT('Origin',(-7.00000000000004,60.0000008940697,156.500002279878));
#2094=CARTESIAN_POINT('',(-7.20000000000004,56.5000008940697,156.500002279878));
#2095=CARTESIAN_POINT('',(-7.20000000000004,56.5000008940697,156.500002279878));
#2096=CARTESIAN_POINT('Origin',(-7.20000000000004,60.0000008940697,156.500002279878));
#2097=CARTESIAN_POINT('Origin',(-7.00000000000004,56.3000008830371,159.250002264604));
#2098=CARTESIAN_POINT('',(-7.20000000000004,56.5000008419156,169.500002265836));
#2099=CARTESIAN_POINT('',(-7.20000000000004,56.5000008830371,159.250002265406));
#2100=CARTESIAN_POINT('Origin',(-7.00000000000004,60.0000008940697,169.500002279878));
#2101=CARTESIAN_POINT('Origin',(-6.80000000000004,60.0000008940697,156.500002279878));
#2102=CARTESIAN_POINT('',(-6.80000000000004,56.5000008940697,156.500002279878));
#2103=CARTESIAN_POINT('Origin',(-6.80000000000004,56.5000008940697,156.500002279878));
#2104=CARTESIAN_POINT('Origin',(-12.8,-1.99999993294477,150.999996848404));
#2105=CARTESIAN_POINT('',(-12.8,-0.999999932944773,149.999996848404));
#2106=CARTESIAN_POINT('',(-12.8,-2.99999993294477,151.999996848404));
#2107=CARTESIAN_POINT('Origin',(-12.8,-2.99999993294477,150.999996848404));
#2108=CARTESIAN_POINT('Origin',(-12.8,123.999997228384,172.999996356666));
#2109=CARTESIAN_POINT('',(-12.8,123.999997228384,171.999996356666));
#2110=CARTESIAN_POINT('Origin',(-12.8,122.999997228384,172.999996356666));
#2111=CARTESIAN_POINT('',(-12.8,121.999997228384,173.999996356666));
#2112=CARTESIAN_POINT('Origin',(-12.8,123.999997228384,149.999996848404));
#2113=CARTESIAN_POINT('Origin',(-12.8,-2.99999993294477,173.999996356666));
#2114=CARTESIAN_POINT('Origin',(-12.8,60.0000008940697,169.500002279878));
#2115=CARTESIAN_POINT('',(-12.8,58.4000008940697,169.500002279878));
#2116=CARTESIAN_POINT('Origin',(-12.8,60.0000008940697,163.000002279878));
#2117=CARTESIAN_POINT('',(-12.8,58.4000008940697,163.000002279878));
#2118=CARTESIAN_POINT('Origin',(-12.8,60.0000008940697,156.500002279878));
#2119=CARTESIAN_POINT('',(-12.8,58.4000008940697,156.500002279878));
#2120=CARTESIAN_POINT('Origin',(-6.80000000000004,115.500001721084,151.500002421439));
#2121=CARTESIAN_POINT('',(-6.80000000000004,74.0000017210841,151.500002421439));
#2122=CARTESIAN_POINT('',(-6.80000000000004,115.500001721084,151.500002421439));
#2123=CARTESIAN_POINT('Origin',(-6.80000000000004,115.500001721084,172.500002421439));
#2124=CARTESIAN_POINT('',(-6.80000000000004,115.500001721084,172.500002421439));
#2125=CARTESIAN_POINT('Origin',(-6.80000000000004,74.0000017210841,172.500002421439));
#2126=CARTESIAN_POINT('',(-6.80000000000004,74.0000017210841,172.500002421439));
#2127=CARTESIAN_POINT('Origin',(-6.80000000000004,74.0000017210841,151.500002421439));
#2128=CARTESIAN_POINT('Origin',(-6.80000000000004,4.50000006705523,151.500002108514));
#2129=CARTESIAN_POINT('',(-6.80000000000004,4.50000006705523,172.500002421439));
#2130=CARTESIAN_POINT('',(-6.80000000000004,4.50000006705523,151.500002108514));
#2131=CARTESIAN_POINT('Origin',(-6.80000000000004,46.0000006854534,151.500002108514));
#2132=CARTESIAN_POINT('',(-6.80000000000004,46.0000006854534,151.500002108514));
#2133=CARTESIAN_POINT('Origin',(-6.80000000000004,46.0000006854534,172.500002421439));
#2134=CARTESIAN_POINT('',(-6.80000000000004,46.0000006854534,172.500002421439));
#2135=CARTESIAN_POINT('Origin',(-6.80000000000004,4.50000006705523,172.500002421439));
#2136=CARTESIAN_POINT('',(0.,0.,0.));
#2137=UNCERTAINTY_MEASURE_WITH_UNIT(LENGTH_MEASURE(0.01),#2143,
'DISTANCE_ACCURACY_VALUE',
'Maximum model space distance between geometric entities at asserted c
onnectivities');
#2138=UNCERTAINTY_MEASURE_WITH_UNIT(LENGTH_MEASURE(0.01),#2143,
'DISTANCE_ACCURACY_VALUE',
'Maximum model space distance between geometric entities at asserted c
onnectivities');
#2139=UNCERTAINTY_MEASURE_WITH_UNIT(LENGTH_MEASURE(0.01),#2143,
'DISTANCE_ACCURACY_VALUE',
'Maximum model space distance between geometric entities at asserted c
onnectivities');
#2140=(
GEOMETRIC_REPRESENTATION_CONTEXT(3)
GLOBAL_UNCERTAINTY_ASSIGNED_CONTEXT((#2137))
GLOBAL_UNIT_ASSIGNED_CONTEXT((#2143,#2145,#2146))
REPRESENTATION_CONTEXT('','3D')
);
#2141=(
GEOMETRIC_REPRESENTATION_CONTEXT(3)
GLOBAL_UNCERTAINTY_ASSIGNED_CONTEXT((#2138))
GLOBAL_UNIT_ASSIGNED_CONTEXT((#2143,#2145,#2146))
REPRESENTATION_CONTEXT('','3D')
);
#2142=(
GEOMETRIC_REPRESENTATION_CONTEXT(3)
GLOBAL_UNCERTAINTY_ASSIGNED_CONTEXT((#2139))
GLOBAL_UNIT_ASSIGNED_CONTEXT((#2143,#2145,#2146))
REPRESENTATION_CONTEXT('','3D')
);
#2143=(
LENGTH_UNIT()
NAMED_UNIT(*)
SI_UNIT(.MILLI.,.METRE.)
);
#2144=(
LENGTH_UNIT()
NAMED_UNIT(*)
SI_UNIT($,.METRE.)
);
#2145=(
NAMED_UNIT(*)
PLANE_ANGLE_UNIT()
SI_UNIT($,.RADIAN.)
);
#2146=(
NAMED_UNIT(*)
SI_UNIT($,.STERADIAN.)
SOLID_ANGLE_UNIT()
);
#2147=SHAPE_DEFINITION_REPRESENTATION(#2149,#2152);
#2148=SHAPE_DEFINITION_REPRESENTATION(#2150,#2153);
#2149=PRODUCT_DEFINITION_SHAPE('',$,#2155);
#2150=PRODUCT_DEFINITION_SHAPE('',$,#2156);
#2151=PRODUCT_DEFINITION_SHAPE($,$,#14);
#2152=SHAPE_REPRESENTATION('',(#1333,#1428),#2140);
#2153=SHAPE_REPRESENTATION('',(#1334),#2141);
#2154=PRODUCT_DEFINITION_CONTEXT('part definition',#2162,'design');
#2155=PRODUCT_DEFINITION('Leg V1','Leg V1 v22',#2157,#2154);
#2156=PRODUCT_DEFINITION('Middle Leg Front','Middle Leg Front',#2158,#2154);
#2157=PRODUCT_DEFINITION_FORMATION('',$,#2164);
#2158=PRODUCT_DEFINITION_FORMATION('',$,#2165);
#2159=PRODUCT_RELATED_PRODUCT_CATEGORY('Leg V1 v22','Leg V1 v22',(#2164));
#2160=PRODUCT_RELATED_PRODUCT_CATEGORY('Middle Leg Front',
'Middle Leg Front',(#2165));
#2161=APPLICATION_PROTOCOL_DEFINITION('international standard',
'automotive_design',2009,#2162);
#2162=APPLICATION_CONTEXT(
'Core Data for Automotive Mechanical Design Process');
#2163=PRODUCT_CONTEXT('part definition',#2162,'mechanical');
#2164=PRODUCT('Leg V1','Leg V1 v22',$,(#2163));
#2165=PRODUCT('Middle Leg Front','Middle Leg Front',$,(#2163));
#2166=PRESENTATION_STYLE_ASSIGNMENT((#2168));
#2167=PRESENTATION_STYLE_ASSIGNMENT((#2169));
#2168=SURFACE_STYLE_USAGE(.BOTH.,#2170);
#2169=SURFACE_STYLE_USAGE(.BOTH.,#2171);
#2170=SURFACE_SIDE_STYLE('',(#2172));
#2171=SURFACE_SIDE_STYLE('',(#2173));
#2172=SURFACE_STYLE_FILL_AREA(#2174);
#2173=SURFACE_STYLE_FILL_AREA(#2175);
#2174=FILL_AREA_STYLE('Steel - Satin',(#2176));
#2175=FILL_AREA_STYLE('ABS (White)',(#2177));
#2176=FILL_AREA_STYLE_COLOUR('Steel - Satin',#2178);
#2177=FILL_AREA_STYLE_COLOUR('ABS (White)',#2179);
#2178=COLOUR_RGB('Steel - Satin',0.627450980392157,0.627450980392157,0.627450980392157);
#2179=COLOUR_RGB('ABS (White)',0.964705882352941,0.964705882352941,0.952941176470588);
ENDSEC;
END-ISO-10303-21;
