ISO-10303-21;
HEADER;
/* Generated by software containing ST-Developer
 * from STEP Tools, Inc. (www.steptools.com) 
 */

FILE_DESCRIPTION(
/* description */ (''),
/* implementation_level */ '2;1');

FILE_NAME(
/* name */ 'Upper Leg conector.step',
/* time_stamp */ '2025-09-30T07:46:18+02:00',
/* author */ (''),
/* organization */ (''),
/* preprocessor_version */ 'ST-DEVELOPER v20.1',
/* originating_system */ 'Autodesk Translation Framework v14.17.0.0',
/* authorisation */ '');

FILE_SCHEMA (('AUTOMOTIVE_DESIGN { 1 0 10303 214 3 1 1 }','MODEL_BASED_INTEGRATED_MANUFACTURING_SCHEMA'));
ENDSEC;

DATA;
#10=MECHANICAL_DESIGN_GEOMETRIC_PRESENTATION_REPRESENTATION('',(#17),#2058);
#11=ITEM_DEFINED_TRANSFORMATION($,$,#1287,#1374);
#12=(
REPRESENTATION_RELATIONSHIP($,$,#2069,#2068)
REPRESENTATION_RELATIONSHIP_WITH_TRANSFORMATION(#11)
SHAPE_REPRESENTATION_RELATIONSHIP()
);
#13=CONTEXT_DEPENDENT_SHAPE_REPRESENTATION(#12,#2067);
#14=NEXT_ASSEMBLY_USAGE_OCCURRENCE('Upper Leg conector:1',
'Upper Leg conector:1','Upper Leg conector:1',#2071,#2072,
'Upper Leg conector:1');
#15=SHAPE_REPRESENTATION_RELATIONSHIP('SRR','None',#2069,#16);
#16=ADVANCED_BREP_SHAPE_REPRESENTATION('',(#18),#2057);
#17=STYLED_ITEM('',(#2083),#18);
#18=MANIFOLD_SOLID_BREP('Body1',#1273);
#19=FACE_BOUND('',#151,.T.);
#20=FACE_BOUND('',#152,.T.);
#21=FACE_BOUND('',#153,.T.);
#22=FACE_BOUND('',#154,.T.);
#23=FACE_BOUND('',#155,.T.);
#24=FACE_BOUND('',#156,.T.);
#25=FACE_BOUND('',#157,.T.);
#26=FACE_BOUND('',#158,.T.);
#27=FACE_BOUND('',#159,.T.);
#28=FACE_BOUND('',#160,.T.);
#29=FACE_BOUND('',#161,.T.);
#30=FACE_BOUND('',#162,.T.);
#31=FACE_BOUND('',#163,.T.);
#32=FACE_BOUND('',#166,.T.);
#33=FACE_BOUND('',#167,.T.);
#34=FACE_BOUND('',#168,.T.);
#35=FACE_BOUND('',#169,.T.);
#36=FACE_BOUND('',#170,.T.);
#37=FACE_BOUND('',#171,.T.);
#38=FACE_BOUND('',#172,.T.);
#39=FACE_BOUND('',#173,.T.);
#40=FACE_BOUND('',#174,.T.);
#41=FACE_BOUND('',#175,.T.);
#42=FACE_BOUND('',#176,.T.);
#43=FACE_BOUND('',#177,.T.);
#44=FACE_BOUND('',#178,.T.);
#45=CIRCLE('',#1292,2.05);
#46=CIRCLE('',#1293,2.05);
#47=CIRCLE('',#1295,2.05000000000001);
#48=CIRCLE('',#1296,2.05000000000001);
#49=CIRCLE('',#1298,2.05);
#50=CIRCLE('',#1299,2.05);
#51=CIRCLE('',#1302,2.05);
#52=CIRCLE('',#1303,2.05000000000001);
#53=CIRCLE('',#1304,2.04999999999999);
#54=CIRCLE('',#1305,2.05);
#55=CIRCLE('',#1306,2.05000000000001);
#56=CIRCLE('',#1307,2.05);
#57=CIRCLE('',#1308,2.05);
#58=CIRCLE('',#1309,2.05);
#59=CIRCLE('',#1310,2.05000000000001);
#60=CIRCLE('',#1313,2.05000000000001);
#61=CIRCLE('',#1314,2.05);
#62=CIRCLE('',#1315,2.05);
#63=CIRCLE('',#1316,2.05);
#64=CIRCLE('',#1317,2.05);
#65=CIRCLE('',#1318,2.05000000000001);
#66=CIRCLE('',#1319,2.05000000000001);
#67=CIRCLE('',#1320,2.05);
#68=CIRCLE('',#1321,2.05);
#69=CYLINDRICAL_SURFACE('',#1291,2.05);
#70=CYLINDRICAL_SURFACE('',#1294,2.05000000000001);
#71=CYLINDRICAL_SURFACE('',#1297,2.05);
#72=CYLINDRICAL_SURFACE('',#1355,2.05);
#73=CYLINDRICAL_SURFACE('',#1356,2.05);
#74=CYLINDRICAL_SURFACE('',#1357,2.05000000000001);
#75=CYLINDRICAL_SURFACE('',#1365,2.05000000000001);
#76=CYLINDRICAL_SURFACE('',#1366,2.05);
#77=CYLINDRICAL_SURFACE('',#1367,2.05);
#78=CYLINDRICAL_SURFACE('',#1371,2.05);
#79=CYLINDRICAL_SURFACE('',#1372,2.05000000000001);
#80=CYLINDRICAL_SURFACE('',#1373,2.04999999999999);
#81=FACE_OUTER_BOUND('',#143,.T.);
#82=FACE_OUTER_BOUND('',#144,.T.);
#83=FACE_OUTER_BOUND('',#145,.T.);
#84=FACE_OUTER_BOUND('',#146,.T.);
#85=FACE_OUTER_BOUND('',#147,.T.);
#86=FACE_OUTER_BOUND('',#148,.T.);
#87=FACE_OUTER_BOUND('',#149,.T.);
#88=FACE_OUTER_BOUND('',#150,.T.);
#89=FACE_OUTER_BOUND('',#164,.T.);
#90=FACE_OUTER_BOUND('',#165,.T.);
#91=FACE_OUTER_BOUND('',#179,.T.);
#92=FACE_OUTER_BOUND('',#180,.T.);
#93=FACE_OUTER_BOUND('',#181,.T.);
#94=FACE_OUTER_BOUND('',#182,.T.);
#95=FACE_OUTER_BOUND('',#183,.T.);
#96=FACE_OUTER_BOUND('',#184,.T.);
#97=FACE_OUTER_BOUND('',#185,.T.);
#98=FACE_OUTER_BOUND('',#186,.T.);
#99=FACE_OUTER_BOUND('',#187,.T.);
#100=FACE_OUTER_BOUND('',#188,.T.);
#101=FACE_OUTER_BOUND('',#189,.T.);
#102=FACE_OUTER_BOUND('',#190,.T.);
#103=FACE_OUTER_BOUND('',#191,.T.);
#104=FACE_OUTER_BOUND('',#192,.T.);
#105=FACE_OUTER_BOUND('',#193,.T.);
#106=FACE_OUTER_BOUND('',#194,.T.);
#107=FACE_OUTER_BOUND('',#195,.T.);
#108=FACE_OUTER_BOUND('',#196,.T.);
#109=FACE_OUTER_BOUND('',#197,.T.);
#110=FACE_OUTER_BOUND('',#198,.T.);
#111=FACE_OUTER_BOUND('',#199,.T.);
#112=FACE_OUTER_BOUND('',#200,.T.);
#113=FACE_OUTER_BOUND('',#201,.T.);
#114=FACE_OUTER_BOUND('',#202,.T.);
#115=FACE_OUTER_BOUND('',#203,.T.);
#116=FACE_OUTER_BOUND('',#204,.T.);
#117=FACE_OUTER_BOUND('',#205,.T.);
#118=FACE_OUTER_BOUND('',#206,.T.);
#119=FACE_OUTER_BOUND('',#207,.T.);
#120=FACE_OUTER_BOUND('',#208,.T.);
#121=FACE_OUTER_BOUND('',#209,.T.);
#122=FACE_OUTER_BOUND('',#210,.T.);
#123=FACE_OUTER_BOUND('',#211,.T.);
#124=FACE_OUTER_BOUND('',#212,.T.);
#125=FACE_OUTER_BOUND('',#213,.T.);
#126=FACE_OUTER_BOUND('',#214,.T.);
#127=FACE_OUTER_BOUND('',#215,.T.);
#128=FACE_OUTER_BOUND('',#216,.T.);
#129=FACE_OUTER_BOUND('',#217,.T.);
#130=FACE_OUTER_BOUND('',#218,.T.);
#131=FACE_OUTER_BOUND('',#219,.T.);
#132=FACE_OUTER_BOUND('',#220,.T.);
#133=FACE_OUTER_BOUND('',#221,.T.);
#134=FACE_OUTER_BOUND('',#222,.T.);
#135=FACE_OUTER_BOUND('',#223,.T.);
#136=FACE_OUTER_BOUND('',#224,.T.);
#137=FACE_OUTER_BOUND('',#225,.T.);
#138=FACE_OUTER_BOUND('',#226,.T.);
#139=FACE_OUTER_BOUND('',#227,.T.);
#140=FACE_OUTER_BOUND('',#228,.T.);
#141=FACE_OUTER_BOUND('',#229,.T.);
#142=FACE_OUTER_BOUND('',#230,.T.);
#143=EDGE_LOOP('',(#815,#816,#817,#818));
#144=EDGE_LOOP('',(#819,#820,#821,#822));
#145=EDGE_LOOP('',(#823,#824,#825,#826));
#146=EDGE_LOOP('',(#827,#828,#829,#830));
#147=EDGE_LOOP('',(#831,#832,#833,#834));
#148=EDGE_LOOP('',(#835,#836,#837,#838));
#149=EDGE_LOOP('',(#839,#840,#841,#842,#843,#844));
#150=EDGE_LOOP('',(#845,#846,#847,#848,#849,#850,#851,#852,#853,#854,#855,
#856,#857,#858,#859,#860,#861,#862,#863,#864,#865,#866,#867,#868,#869,#870));
#151=EDGE_LOOP('',(#871));
#152=EDGE_LOOP('',(#872));
#153=EDGE_LOOP('',(#873));
#154=EDGE_LOOP('',(#874));
#155=EDGE_LOOP('',(#875));
#156=EDGE_LOOP('',(#876));
#157=EDGE_LOOP('',(#877));
#158=EDGE_LOOP('',(#878));
#159=EDGE_LOOP('',(#879));
#160=EDGE_LOOP('',(#880,#881,#882,#883,#884,#885,#886,#887));
#161=EDGE_LOOP('',(#888));
#162=EDGE_LOOP('',(#889));
#163=EDGE_LOOP('',(#890));
#164=EDGE_LOOP('',(#891,#892,#893,#894));
#165=EDGE_LOOP('',(#895,#896,#897,#898,#899,#900,#901,#902,#903,#904,#905,
#906,#907,#908,#909,#910,#911,#912,#913,#914,#915,#916,#917,#918,#919,#920,
#921,#922,#923,#924,#925));
#166=EDGE_LOOP('',(#926));
#167=EDGE_LOOP('',(#927));
#168=EDGE_LOOP('',(#928));
#169=EDGE_LOOP('',(#929));
#170=EDGE_LOOP('',(#930));
#171=EDGE_LOOP('',(#931));
#172=EDGE_LOOP('',(#932));
#173=EDGE_LOOP('',(#933));
#174=EDGE_LOOP('',(#934));
#175=EDGE_LOOP('',(#935,#936,#937,#938,#939,#940,#941,#942));
#176=EDGE_LOOP('',(#943));
#177=EDGE_LOOP('',(#944));
#178=EDGE_LOOP('',(#945));
#179=EDGE_LOOP('',(#946,#947,#948,#949));
#180=EDGE_LOOP('',(#950,#951,#952,#953));
#181=EDGE_LOOP('',(#954,#955,#956,#957));
#182=EDGE_LOOP('',(#958,#959,#960,#961));
#183=EDGE_LOOP('',(#962,#963,#964,#965));
#184=EDGE_LOOP('',(#966,#967,#968,#969));
#185=EDGE_LOOP('',(#970,#971,#972,#973));
#186=EDGE_LOOP('',(#974,#975,#976,#977));
#187=EDGE_LOOP('',(#978,#979,#980,#981));
#188=EDGE_LOOP('',(#982,#983,#984,#985));
#189=EDGE_LOOP('',(#986,#987,#988,#989));
#190=EDGE_LOOP('',(#990,#991,#992,#993));
#191=EDGE_LOOP('',(#994,#995,#996,#997));
#192=EDGE_LOOP('',(#998,#999,#1000,#1001));
#193=EDGE_LOOP('',(#1002,#1003,#1004,#1005));
#194=EDGE_LOOP('',(#1006,#1007,#1008,#1009));
#195=EDGE_LOOP('',(#1010,#1011,#1012,#1013));
#196=EDGE_LOOP('',(#1014,#1015,#1016,#1017));
#197=EDGE_LOOP('',(#1018,#1019,#1020,#1021));
#198=EDGE_LOOP('',(#1022,#1023,#1024,#1025));
#199=EDGE_LOOP('',(#1026,#1027,#1028,#1029));
#200=EDGE_LOOP('',(#1030,#1031,#1032,#1033));
#201=EDGE_LOOP('',(#1034,#1035,#1036,#1037));
#202=EDGE_LOOP('',(#1038,#1039,#1040,#1041));
#203=EDGE_LOOP('',(#1042,#1043,#1044,#1045));
#204=EDGE_LOOP('',(#1046,#1047,#1048,#1049));
#205=EDGE_LOOP('',(#1050,#1051,#1052,#1053));
#206=EDGE_LOOP('',(#1054,#1055,#1056,#1057));
#207=EDGE_LOOP('',(#1058,#1059,#1060,#1061));
#208=EDGE_LOOP('',(#1062,#1063,#1064,#1065));
#209=EDGE_LOOP('',(#1066,#1067,#1068,#1069));
#210=EDGE_LOOP('',(#1070,#1071,#1072,#1073));
#211=EDGE_LOOP('',(#1074,#1075,#1076,#1077));
#212=EDGE_LOOP('',(#1078,#1079,#1080,#1081));
#213=EDGE_LOOP('',(#1082,#1083,#1084,#1085));
#214=EDGE_LOOP('',(#1086,#1087,#1088,#1089));
#215=EDGE_LOOP('',(#1090,#1091,#1092,#1093,#1094,#1095,#1096,#1097,#1098));
#216=EDGE_LOOP('',(#1099,#1100,#1101,#1102));
#217=EDGE_LOOP('',(#1103,#1104,#1105,#1106));
#218=EDGE_LOOP('',(#1107,#1108,#1109,#1110));
#219=EDGE_LOOP('',(#1111,#1112,#1113,#1114,#1115,#1116));
#220=EDGE_LOOP('',(#1117,#1118,#1119,#1120));
#221=EDGE_LOOP('',(#1121,#1122,#1123,#1124));
#222=EDGE_LOOP('',(#1125,#1126,#1127,#1128));
#223=EDGE_LOOP('',(#1129,#1130,#1131,#1132));
#224=EDGE_LOOP('',(#1133,#1134,#1135,#1136));
#225=EDGE_LOOP('',(#1137,#1138,#1139,#1140));
#226=EDGE_LOOP('',(#1141,#1142,#1143,#1144));
#227=EDGE_LOOP('',(#1145,#1146,#1147,#1148));
#228=EDGE_LOOP('',(#1149,#1150,#1151,#1152));
#229=EDGE_LOOP('',(#1153,#1154,#1155,#1156));
#230=EDGE_LOOP('',(#1157,#1158,#1159,#1160));
#231=LINE('',#1707,#380);
#232=LINE('',#1709,#381);
#233=LINE('',#1711,#382);
#234=LINE('',#1712,#383);
#235=LINE('',#1715,#384);
#236=LINE('',#1717,#385);
#237=LINE('',#1718,#386);
#238=LINE('',#1721,#387);
#239=LINE('',#1723,#388);
#240=LINE('',#1724,#389);
#241=LINE('',#1729,#390);
#242=LINE('',#1735,#391);
#243=LINE('',#1741,#392);
#244=LINE('',#1745,#393);
#245=LINE('',#1747,#394);
#246=LINE('',#1749,#395);
#247=LINE('',#1751,#396);
#248=LINE('',#1752,#397);
#249=LINE('',#1755,#398);
#250=LINE('',#1757,#399);
#251=LINE('',#1759,#400);
#252=LINE('',#1761,#401);
#253=LINE('',#1763,#402);
#254=LINE('',#1765,#403);
#255=LINE('',#1767,#404);
#256=LINE('',#1769,#405);
#257=LINE('',#1771,#406);
#258=LINE('',#1773,#407);
#259=LINE('',#1775,#408);
#260=LINE('',#1777,#409);
#261=LINE('',#1779,#410);
#262=LINE('',#1781,#411);
#263=LINE('',#1783,#412);
#264=LINE('',#1785,#413);
#265=LINE('',#1787,#414);
#266=LINE('',#1789,#415);
#267=LINE('',#1791,#416);
#268=LINE('',#1793,#417);
#269=LINE('',#1795,#418);
#270=LINE('',#1796,#419);
#271=LINE('',#1811,#420);
#272=LINE('',#1813,#421);
#273=LINE('',#1815,#422);
#274=LINE('',#1817,#423);
#275=LINE('',#1819,#424);
#276=LINE('',#1821,#425);
#277=LINE('',#1823,#426);
#278=LINE('',#1824,#427);
#279=LINE('',#1833,#428);
#280=LINE('',#1834,#429);
#281=LINE('',#1837,#430);
#282=LINE('',#1839,#431);
#283=LINE('',#1841,#432);
#284=LINE('',#1843,#433);
#285=LINE('',#1845,#434);
#286=LINE('',#1847,#435);
#287=LINE('',#1849,#436);
#288=LINE('',#1851,#437);
#289=LINE('',#1853,#438);
#290=LINE('',#1855,#439);
#291=LINE('',#1857,#440);
#292=LINE('',#1859,#441);
#293=LINE('',#1861,#442);
#294=LINE('',#1863,#443);
#295=LINE('',#1865,#444);
#296=LINE('',#1867,#445);
#297=LINE('',#1869,#446);
#298=LINE('',#1871,#447);
#299=LINE('',#1873,#448);
#300=LINE('',#1875,#449);
#301=LINE('',#1877,#450);
#302=LINE('',#1879,#451);
#303=LINE('',#1881,#452);
#304=LINE('',#1882,#453);
#305=LINE('',#1897,#454);
#306=LINE('',#1899,#455);
#307=LINE('',#1901,#456);
#308=LINE('',#1903,#457);
#309=LINE('',#1905,#458);
#310=LINE('',#1907,#459);
#311=LINE('',#1909,#460);
#312=LINE('',#1910,#461);
#313=LINE('',#1918,#462);
#314=LINE('',#1919,#463);
#315=LINE('',#1921,#464);
#316=LINE('',#1922,#465);
#317=LINE('',#1925,#466);
#318=LINE('',#1927,#467);
#319=LINE('',#1928,#468);
#320=LINE('',#1931,#469);
#321=LINE('',#1932,#470);
#322=LINE('',#1935,#471);
#323=LINE('',#1936,#472);
#324=LINE('',#1939,#473);
#325=LINE('',#1940,#474);
#326=LINE('',#1943,#475);
#327=LINE('',#1944,#476);
#328=LINE('',#1947,#477);
#329=LINE('',#1948,#478);
#330=LINE('',#1951,#479);
#331=LINE('',#1952,#480);
#332=LINE('',#1954,#481);
#333=LINE('',#1957,#482);
#334=LINE('',#1959,#483);
#335=LINE('',#1960,#484);
#336=LINE('',#1963,#485);
#337=LINE('',#1964,#486);
#338=LINE('',#1967,#487);
#339=LINE('',#1968,#488);
#340=LINE('',#1971,#489);
#341=LINE('',#1972,#490);
#342=LINE('',#1975,#491);
#343=LINE('',#1977,#492);
#344=LINE('',#1978,#493);
#345=LINE('',#1980,#494);
#346=LINE('',#1981,#495);
#347=LINE('',#1983,#496);
#348=LINE('',#1985,#497);
#349=LINE('',#1987,#498);
#350=LINE('',#1989,#499);
#351=LINE('',#1992,#500);
#352=LINE('',#1993,#501);
#353=LINE('',#1995,#502);
#354=LINE('',#1997,#503);
#355=LINE('',#1999,#504);
#356=LINE('',#2001,#505);
#357=LINE('',#2004,#506);
#358=LINE('',#2006,#507);
#359=LINE('',#2008,#508);
#360=LINE('',#2010,#509);
#361=LINE('',#2012,#510);
#362=LINE('',#2013,#511);
#363=LINE('',#2015,#512);
#364=LINE('',#2017,#513);
#365=LINE('',#2019,#514);
#366=LINE('',#2021,#515);
#367=LINE('',#2023,#516);
#368=LINE('',#2027,#517);
#369=LINE('',#2029,#518);
#370=LINE('',#2030,#519);
#371=LINE('',#2032,#520);
#372=LINE('',#2036,#521);
#373=LINE('',#2038,#522);
#374=LINE('',#2040,#523);
#375=LINE('',#2042,#524);
#376=LINE('',#2043,#525);
#377=LINE('',#2047,#526);
#378=LINE('',#2049,#527);
#379=LINE('',#2051,#528);
#380=VECTOR('',#1381,10.);
#381=VECTOR('',#1382,10.);
#382=VECTOR('',#1383,10.);
#383=VECTOR('',#1384,10.);
#384=VECTOR('',#1387,10.);
#385=VECTOR('',#1388,10.);
#386=VECTOR('',#1389,10.);
#387=VECTOR('',#1392,10.);
#388=VECTOR('',#1393,10.);
#389=VECTOR('',#1394,10.);
#390=VECTOR('',#1399,2.05);
#391=VECTOR('',#1406,2.05000000000001);
#392=VECTOR('',#1413,2.05);
#393=VECTOR('',#1418,10.);
#394=VECTOR('',#1419,10.);
#395=VECTOR('',#1420,10.);
#396=VECTOR('',#1421,10.);
#397=VECTOR('',#1422,10.);
#398=VECTOR('',#1425,10.);
#399=VECTOR('',#1426,10.);
#400=VECTOR('',#1427,10.);
#401=VECTOR('',#1428,10.);
#402=VECTOR('',#1429,10.);
#403=VECTOR('',#1430,10.);
#404=VECTOR('',#1431,10.);
#405=VECTOR('',#1432,10.);
#406=VECTOR('',#1433,10.);
#407=VECTOR('',#1434,10.);
#408=VECTOR('',#1435,10.);
#409=VECTOR('',#1436,10.);
#410=VECTOR('',#1437,10.);
#411=VECTOR('',#1438,10.);
#412=VECTOR('',#1439,10.);
#413=VECTOR('',#1440,10.);
#414=VECTOR('',#1441,10.);
#415=VECTOR('',#1442,10.);
#416=VECTOR('',#1443,10.);
#417=VECTOR('',#1444,10.);
#418=VECTOR('',#1445,10.);
#419=VECTOR('',#1446,10.);
#420=VECTOR('',#1459,10.);
#421=VECTOR('',#1460,10.);
#422=VECTOR('',#1461,10.);
#423=VECTOR('',#1462,10.);
#424=VECTOR('',#1463,10.);
#425=VECTOR('',#1464,10.);
#426=VECTOR('',#1465,10.);
#427=VECTOR('',#1466,10.);
#428=VECTOR('',#1475,10.);
#429=VECTOR('',#1476,10.);
#430=VECTOR('',#1479,10.);
#431=VECTOR('',#1480,10.);
#432=VECTOR('',#1481,10.);
#433=VECTOR('',#1482,10.);
#434=VECTOR('',#1483,10.);
#435=VECTOR('',#1484,10.);
#436=VECTOR('',#1485,10.);
#437=VECTOR('',#1486,10.);
#438=VECTOR('',#1487,10.);
#439=VECTOR('',#1488,10.);
#440=VECTOR('',#1489,10.);
#441=VECTOR('',#1490,10.);
#442=VECTOR('',#1491,10.);
#443=VECTOR('',#1492,10.);
#444=VECTOR('',#1493,10.);
#445=VECTOR('',#1494,10.);
#446=VECTOR('',#1495,10.);
#447=VECTOR('',#1496,10.);
#448=VECTOR('',#1497,10.);
#449=VECTOR('',#1498,10.);
#450=VECTOR('',#1499,10.);
#451=VECTOR('',#1500,10.);
#452=VECTOR('',#1501,10.);
#453=VECTOR('',#1502,10.);
#454=VECTOR('',#1515,10.);
#455=VECTOR('',#1516,10.);
#456=VECTOR('',#1517,10.);
#457=VECTOR('',#1518,10.);
#458=VECTOR('',#1519,10.);
#459=VECTOR('',#1520,10.);
#460=VECTOR('',#1521,10.);
#461=VECTOR('',#1522,10.);
#462=VECTOR('',#1531,10.);
#463=VECTOR('',#1532,10.);
#464=VECTOR('',#1535,10.);
#465=VECTOR('',#1536,10.);
#466=VECTOR('',#1539,10.);
#467=VECTOR('',#1540,10.);
#468=VECTOR('',#1541,10.);
#469=VECTOR('',#1544,10.);
#470=VECTOR('',#1545,10.);
#471=VECTOR('',#1548,10.);
#472=VECTOR('',#1549,10.);
#473=VECTOR('',#1552,10.);
#474=VECTOR('',#1553,10.);
#475=VECTOR('',#1556,10.);
#476=VECTOR('',#1557,10.);
#477=VECTOR('',#1560,10.);
#478=VECTOR('',#1561,10.);
#479=VECTOR('',#1564,10.);
#480=VECTOR('',#1565,10.);
#481=VECTOR('',#1568,10.);
#482=VECTOR('',#1571,10.);
#483=VECTOR('',#1572,10.);
#484=VECTOR('',#1573,10.);
#485=VECTOR('',#1576,10.);
#486=VECTOR('',#1577,10.);
#487=VECTOR('',#1580,10.);
#488=VECTOR('',#1581,10.);
#489=VECTOR('',#1584,10.);
#490=VECTOR('',#1585,10.);
#491=VECTOR('',#1588,10.);
#492=VECTOR('',#1589,10.);
#493=VECTOR('',#1590,10.);
#494=VECTOR('',#1593,10.);
#495=VECTOR('',#1594,10.);
#496=VECTOR('',#1597,10.);
#497=VECTOR('',#1600,10.);
#498=VECTOR('',#1603,10.);
#499=VECTOR('',#1606,10.);
#500=VECTOR('',#1609,10.);
#501=VECTOR('',#1610,10.);
#502=VECTOR('',#1613,10.);
#503=VECTOR('',#1616,10.);
#504=VECTOR('',#1619,10.);
#505=VECTOR('',#1622,10.);
#506=VECTOR('',#1627,10.);
#507=VECTOR('',#1630,10.);
#508=VECTOR('',#1633,10.);
#509=VECTOR('',#1636,10.);
#510=VECTOR('',#1639,10.);
#511=VECTOR('',#1640,10.);
#512=VECTOR('',#1643,10.);
#513=VECTOR('',#1646,10.);
#514=VECTOR('',#1649,2.05);
#515=VECTOR('',#1652,2.05);
#516=VECTOR('',#1655,2.05000000000001);
#517=VECTOR('',#1662,10.);
#518=VECTOR('',#1665,10.);
#519=VECTOR('',#1666,10.);
#520=VECTOR('',#1669,10.);
#521=VECTOR('',#1676,2.05000000000001);
#522=VECTOR('',#1679,2.05);
#523=VECTOR('',#1682,2.05);
#524=VECTOR('',#1685,10.);
#525=VECTOR('',#1686,10.);
#526=VECTOR('',#1693,2.05);
#527=VECTOR('',#1696,2.05000000000001);
#528=VECTOR('',#1699,2.04999999999999);
#529=VERTEX_POINT('',#1705);
#530=VERTEX_POINT('',#1706);
#531=VERTEX_POINT('',#1708);
#532=VERTEX_POINT('',#1710);
#533=VERTEX_POINT('',#1714);
#534=VERTEX_POINT('',#1716);
#535=VERTEX_POINT('',#1720);
#536=VERTEX_POINT('',#1722);
#537=VERTEX_POINT('',#1726);
#538=VERTEX_POINT('',#1728);
#539=VERTEX_POINT('',#1732);
#540=VERTEX_POINT('',#1734);
#541=VERTEX_POINT('',#1738);
#542=VERTEX_POINT('',#1740);
#543=VERTEX_POINT('',#1744);
#544=VERTEX_POINT('',#1746);
#545=VERTEX_POINT('',#1748);
#546=VERTEX_POINT('',#1750);
#547=VERTEX_POINT('',#1754);
#548=VERTEX_POINT('',#1756);
#549=VERTEX_POINT('',#1758);
#550=VERTEX_POINT('',#1760);
#551=VERTEX_POINT('',#1762);
#552=VERTEX_POINT('',#1764);
#553=VERTEX_POINT('',#1766);
#554=VERTEX_POINT('',#1768);
#555=VERTEX_POINT('',#1770);
#556=VERTEX_POINT('',#1772);
#557=VERTEX_POINT('',#1774);
#558=VERTEX_POINT('',#1776);
#559=VERTEX_POINT('',#1778);
#560=VERTEX_POINT('',#1780);
#561=VERTEX_POINT('',#1782);
#562=VERTEX_POINT('',#1784);
#563=VERTEX_POINT('',#1786);
#564=VERTEX_POINT('',#1788);
#565=VERTEX_POINT('',#1790);
#566=VERTEX_POINT('',#1792);
#567=VERTEX_POINT('',#1794);
#568=VERTEX_POINT('',#1797);
#569=VERTEX_POINT('',#1799);
#570=VERTEX_POINT('',#1801);
#571=VERTEX_POINT('',#1803);
#572=VERTEX_POINT('',#1805);
#573=VERTEX_POINT('',#1807);
#574=VERTEX_POINT('',#1809);
#575=VERTEX_POINT('',#1810);
#576=VERTEX_POINT('',#1812);
#577=VERTEX_POINT('',#1814);
#578=VERTEX_POINT('',#1816);
#579=VERTEX_POINT('',#1818);
#580=VERTEX_POINT('',#1820);
#581=VERTEX_POINT('',#1822);
#582=VERTEX_POINT('',#1825);
#583=VERTEX_POINT('',#1827);
#584=VERTEX_POINT('',#1829);
#585=VERTEX_POINT('',#1832);
#586=VERTEX_POINT('',#1836);
#587=VERTEX_POINT('',#1838);
#588=VERTEX_POINT('',#1840);
#589=VERTEX_POINT('',#1842);
#590=VERTEX_POINT('',#1844);
#591=VERTEX_POINT('',#1846);
#592=VERTEX_POINT('',#1848);
#593=VERTEX_POINT('',#1850);
#594=VERTEX_POINT('',#1852);
#595=VERTEX_POINT('',#1854);
#596=VERTEX_POINT('',#1856);
#597=VERTEX_POINT('',#1858);
#598=VERTEX_POINT('',#1860);
#599=VERTEX_POINT('',#1862);
#600=VERTEX_POINT('',#1864);
#601=VERTEX_POINT('',#1866);
#602=VERTEX_POINT('',#1868);
#603=VERTEX_POINT('',#1870);
#604=VERTEX_POINT('',#1872);
#605=VERTEX_POINT('',#1874);
#606=VERTEX_POINT('',#1876);
#607=VERTEX_POINT('',#1878);
#608=VERTEX_POINT('',#1880);
#609=VERTEX_POINT('',#1883);
#610=VERTEX_POINT('',#1885);
#611=VERTEX_POINT('',#1887);
#612=VERTEX_POINT('',#1889);
#613=VERTEX_POINT('',#1891);
#614=VERTEX_POINT('',#1893);
#615=VERTEX_POINT('',#1895);
#616=VERTEX_POINT('',#1896);
#617=VERTEX_POINT('',#1898);
#618=VERTEX_POINT('',#1900);
#619=VERTEX_POINT('',#1902);
#620=VERTEX_POINT('',#1904);
#621=VERTEX_POINT('',#1906);
#622=VERTEX_POINT('',#1908);
#623=VERTEX_POINT('',#1911);
#624=VERTEX_POINT('',#1913);
#625=VERTEX_POINT('',#1915);
#626=VERTEX_POINT('',#1924);
#627=VERTEX_POINT('',#1926);
#628=VERTEX_POINT('',#1930);
#629=VERTEX_POINT('',#1934);
#630=VERTEX_POINT('',#1938);
#631=VERTEX_POINT('',#1942);
#632=VERTEX_POINT('',#1946);
#633=VERTEX_POINT('',#1950);
#634=VERTEX_POINT('',#1956);
#635=VERTEX_POINT('',#1958);
#636=VERTEX_POINT('',#1962);
#637=VERTEX_POINT('',#1966);
#638=VERTEX_POINT('',#1970);
#639=VERTEX_POINT('',#1974);
#640=VERTEX_POINT('',#1976);
#641=VERTEX_POINT('',#1991);
#642=EDGE_CURVE('',#529,#530,#231,.T.);
#643=EDGE_CURVE('',#529,#531,#232,.T.);
#644=EDGE_CURVE('',#532,#531,#233,.T.);
#645=EDGE_CURVE('',#532,#530,#234,.T.);
#646=EDGE_CURVE('',#533,#532,#235,.T.);
#647=EDGE_CURVE('',#531,#534,#236,.T.);
#648=EDGE_CURVE('',#534,#533,#237,.T.);
#649=EDGE_CURVE('',#535,#529,#238,.T.);
#650=EDGE_CURVE('',#530,#536,#239,.T.);
#651=EDGE_CURVE('',#536,#535,#240,.T.);
#652=EDGE_CURVE('',#537,#537,#45,.T.);
#653=EDGE_CURVE('',#537,#538,#241,.T.);
#654=EDGE_CURVE('',#538,#538,#46,.T.);
#655=EDGE_CURVE('',#539,#539,#47,.T.);
#656=EDGE_CURVE('',#539,#540,#242,.T.);
#657=EDGE_CURVE('',#540,#540,#48,.T.);
#658=EDGE_CURVE('',#541,#541,#49,.T.);
#659=EDGE_CURVE('',#541,#542,#243,.T.);
#660=EDGE_CURVE('',#542,#542,#50,.T.);
#661=EDGE_CURVE('',#534,#543,#244,.T.);
#662=EDGE_CURVE('',#544,#543,#245,.T.);
#663=EDGE_CURVE('',#544,#545,#246,.T.);
#664=EDGE_CURVE('',#546,#545,#247,.T.);
#665=EDGE_CURVE('',#546,#533,#248,.T.);
#666=EDGE_CURVE('',#535,#547,#249,.T.);
#667=EDGE_CURVE('',#548,#547,#250,.T.);
#668=EDGE_CURVE('',#548,#549,#251,.T.);
#669=EDGE_CURVE('',#549,#550,#252,.T.);
#670=EDGE_CURVE('',#550,#551,#253,.T.);
#671=EDGE_CURVE('',#552,#551,#254,.T.);
#672=EDGE_CURVE('',#553,#552,#255,.T.);
#673=EDGE_CURVE('',#554,#553,#256,.T.);
#674=EDGE_CURVE('',#555,#554,#257,.T.);
#675=EDGE_CURVE('',#556,#555,#258,.T.);
#676=EDGE_CURVE('',#557,#556,#259,.T.);
#677=EDGE_CURVE('',#558,#557,#260,.T.);
#678=EDGE_CURVE('',#559,#558,#261,.T.);
#679=EDGE_CURVE('',#560,#559,#262,.T.);
#680=EDGE_CURVE('',#561,#560,#263,.T.);
#681=EDGE_CURVE('',#562,#561,#264,.T.);
#682=EDGE_CURVE('',#563,#562,#265,.T.);
#683=EDGE_CURVE('',#564,#563,#266,.T.);
#684=EDGE_CURVE('',#564,#565,#267,.T.);
#685=EDGE_CURVE('',#566,#565,#268,.T.);
#686=EDGE_CURVE('',#566,#567,#269,.T.);
#687=EDGE_CURVE('',#543,#567,#270,.T.);
#688=EDGE_CURVE('',#568,#568,#51,.T.);
#689=EDGE_CURVE('',#569,#569,#52,.T.);
#690=EDGE_CURVE('',#570,#570,#53,.T.);
#691=EDGE_CURVE('',#571,#571,#54,.T.);
#692=EDGE_CURVE('',#572,#572,#55,.T.);
#693=EDGE_CURVE('',#573,#573,#56,.T.);
#694=EDGE_CURVE('',#574,#575,#271,.T.);
#695=EDGE_CURVE('',#576,#574,#272,.T.);
#696=EDGE_CURVE('',#577,#576,#273,.T.);
#697=EDGE_CURVE('',#578,#577,#274,.T.);
#698=EDGE_CURVE('',#579,#578,#275,.T.);
#699=EDGE_CURVE('',#580,#579,#276,.T.);
#700=EDGE_CURVE('',#581,#580,#277,.T.);
#701=EDGE_CURVE('',#575,#581,#278,.T.);
#702=EDGE_CURVE('',#582,#582,#57,.T.);
#703=EDGE_CURVE('',#583,#583,#58,.T.);
#704=EDGE_CURVE('',#584,#584,#59,.T.);
#705=EDGE_CURVE('',#585,#536,#279,.T.);
#706=EDGE_CURVE('',#547,#585,#280,.T.);
#707=EDGE_CURVE('',#586,#544,#281,.T.);
#708=EDGE_CURVE('',#586,#587,#282,.T.);
#709=EDGE_CURVE('',#587,#588,#283,.T.);
#710=EDGE_CURVE('',#588,#589,#284,.T.);
#711=EDGE_CURVE('',#589,#590,#285,.T.);
#712=EDGE_CURVE('',#590,#591,#286,.T.);
#713=EDGE_CURVE('',#591,#592,#287,.T.);
#714=EDGE_CURVE('',#593,#592,#288,.T.);
#715=EDGE_CURVE('',#594,#593,#289,.T.);
#716=EDGE_CURVE('',#595,#594,#290,.T.);
#717=EDGE_CURVE('',#596,#595,#291,.T.);
#718=EDGE_CURVE('',#597,#596,#292,.T.);
#719=EDGE_CURVE('',#597,#598,#293,.T.);
#720=EDGE_CURVE('',#599,#598,#294,.T.);
#721=EDGE_CURVE('',#600,#599,#295,.T.);
#722=EDGE_CURVE('',#601,#600,#296,.T.);
#723=EDGE_CURVE('',#601,#602,#297,.T.);
#724=EDGE_CURVE('',#603,#602,#298,.T.);
#725=EDGE_CURVE('',#603,#604,#299,.T.);
#726=EDGE_CURVE('',#605,#604,#300,.T.);
#727=EDGE_CURVE('',#606,#605,#301,.T.);
#728=EDGE_CURVE('',#607,#606,#302,.T.);
#729=EDGE_CURVE('',#608,#607,#303,.T.);
#730=EDGE_CURVE('',#585,#608,#304,.T.);
#731=EDGE_CURVE('',#609,#609,#60,.T.);
#732=EDGE_CURVE('',#610,#610,#61,.T.);
#733=EDGE_CURVE('',#611,#611,#62,.T.);
#734=EDGE_CURVE('',#612,#612,#63,.T.);
#735=EDGE_CURVE('',#613,#613,#64,.T.);
#736=EDGE_CURVE('',#614,#614,#65,.T.);
#737=EDGE_CURVE('',#615,#616,#305,.T.);
#738=EDGE_CURVE('',#617,#615,#306,.T.);
#739=EDGE_CURVE('',#618,#617,#307,.T.);
#740=EDGE_CURVE('',#619,#618,#308,.T.);
#741=EDGE_CURVE('',#620,#619,#309,.T.);
#742=EDGE_CURVE('',#621,#620,#310,.T.);
#743=EDGE_CURVE('',#622,#621,#311,.T.);
#744=EDGE_CURVE('',#616,#622,#312,.T.);
#745=EDGE_CURVE('',#623,#623,#66,.T.);
#746=EDGE_CURVE('',#624,#624,#67,.T.);
#747=EDGE_CURVE('',#625,#625,#68,.T.);
#748=EDGE_CURVE('',#602,#556,#313,.T.);
#749=EDGE_CURVE('',#557,#601,#314,.T.);
#750=EDGE_CURVE('',#561,#597,#315,.T.);
#751=EDGE_CURVE('',#598,#560,#316,.T.);
#752=EDGE_CURVE('',#575,#626,#317,.T.);
#753=EDGE_CURVE('',#626,#627,#318,.T.);
#754=EDGE_CURVE('',#574,#627,#319,.T.);
#755=EDGE_CURVE('',#581,#628,#320,.T.);
#756=EDGE_CURVE('',#628,#626,#321,.T.);
#757=EDGE_CURVE('',#580,#629,#322,.T.);
#758=EDGE_CURVE('',#629,#628,#323,.T.);
#759=EDGE_CURVE('',#579,#630,#324,.T.);
#760=EDGE_CURVE('',#630,#629,#325,.T.);
#761=EDGE_CURVE('',#578,#631,#326,.T.);
#762=EDGE_CURVE('',#631,#630,#327,.T.);
#763=EDGE_CURVE('',#632,#631,#328,.T.);
#764=EDGE_CURVE('',#577,#632,#329,.T.);
#765=EDGE_CURVE('',#633,#632,#330,.T.);
#766=EDGE_CURVE('',#576,#633,#331,.T.);
#767=EDGE_CURVE('',#627,#633,#332,.T.);
#768=EDGE_CURVE('',#632,#634,#333,.T.);
#769=EDGE_CURVE('',#635,#634,#334,.T.);
#770=EDGE_CURVE('',#635,#631,#335,.T.);
#771=EDGE_CURVE('',#636,#633,#336,.T.);
#772=EDGE_CURVE('',#634,#636,#337,.T.);
#773=EDGE_CURVE('',#627,#637,#338,.T.);
#774=EDGE_CURVE('',#636,#637,#339,.T.);
#775=EDGE_CURVE('',#638,#626,#340,.T.);
#776=EDGE_CURVE('',#637,#638,#341,.T.);
#777=EDGE_CURVE('',#616,#639,#342,.T.);
#778=EDGE_CURVE('',#639,#640,#343,.T.);
#779=EDGE_CURVE('',#615,#640,#344,.T.);
#780=EDGE_CURVE('',#622,#638,#345,.T.);
#781=EDGE_CURVE('',#638,#639,#346,.T.);
#782=EDGE_CURVE('',#621,#637,#347,.T.);
#783=EDGE_CURVE('',#620,#636,#348,.T.);
#784=EDGE_CURVE('',#619,#634,#349,.T.);
#785=EDGE_CURVE('',#618,#635,#350,.T.);
#786=EDGE_CURVE('',#641,#635,#351,.T.);
#787=EDGE_CURVE('',#617,#641,#352,.T.);
#788=EDGE_CURVE('',#640,#641,#353,.T.);
#789=EDGE_CURVE('',#630,#641,#354,.T.);
#790=EDGE_CURVE('',#640,#629,#355,.T.);
#791=EDGE_CURVE('',#628,#639,#356,.T.);
#792=EDGE_CURVE('',#608,#548,#357,.T.);
#793=EDGE_CURVE('',#567,#586,#358,.T.);
#794=EDGE_CURVE('',#596,#562,#359,.T.);
#795=EDGE_CURVE('',#555,#603,#360,.T.);
#796=EDGE_CURVE('',#565,#593,#361,.T.);
#797=EDGE_CURVE('',#594,#564,#362,.T.);
#798=EDGE_CURVE('',#563,#595,#363,.T.);
#799=EDGE_CURVE('',#592,#566,#364,.T.);
#800=EDGE_CURVE('',#573,#625,#365,.T.);
#801=EDGE_CURVE('',#571,#624,#366,.T.);
#802=EDGE_CURVE('',#572,#623,#367,.T.);
#803=EDGE_CURVE('',#604,#554,#368,.T.);
#804=EDGE_CURVE('',#553,#605,#369,.T.);
#805=EDGE_CURVE('',#606,#552,#370,.T.);
#806=EDGE_CURVE('',#551,#607,#371,.T.);
#807=EDGE_CURVE('',#584,#614,#372,.T.);
#808=EDGE_CURVE('',#583,#613,#373,.T.);
#809=EDGE_CURVE('',#582,#612,#374,.T.);
#810=EDGE_CURVE('',#559,#599,#375,.T.);
#811=EDGE_CURVE('',#600,#558,#376,.T.);
#812=EDGE_CURVE('',#611,#568,#377,.T.);
#813=EDGE_CURVE('',#609,#569,#378,.T.);
#814=EDGE_CURVE('',#610,#570,#379,.T.);
#815=ORIENTED_EDGE('',*,*,#642,.F.);
#816=ORIENTED_EDGE('',*,*,#643,.T.);
#817=ORIENTED_EDGE('',*,*,#644,.F.);
#818=ORIENTED_EDGE('',*,*,#645,.T.);
#819=ORIENTED_EDGE('',*,*,#646,.T.);
#820=ORIENTED_EDGE('',*,*,#644,.T.);
#821=ORIENTED_EDGE('',*,*,#647,.T.);
#822=ORIENTED_EDGE('',*,*,#648,.T.);
#823=ORIENTED_EDGE('',*,*,#649,.T.);
#824=ORIENTED_EDGE('',*,*,#642,.T.);
#825=ORIENTED_EDGE('',*,*,#650,.T.);
#826=ORIENTED_EDGE('',*,*,#651,.T.);
#827=ORIENTED_EDGE('',*,*,#652,.T.);
#828=ORIENTED_EDGE('',*,*,#653,.T.);
#829=ORIENTED_EDGE('',*,*,#654,.F.);
#830=ORIENTED_EDGE('',*,*,#653,.F.);
#831=ORIENTED_EDGE('',*,*,#655,.T.);
#832=ORIENTED_EDGE('',*,*,#656,.T.);
#833=ORIENTED_EDGE('',*,*,#657,.F.);
#834=ORIENTED_EDGE('',*,*,#656,.F.);
#835=ORIENTED_EDGE('',*,*,#658,.T.);
#836=ORIENTED_EDGE('',*,*,#659,.T.);
#837=ORIENTED_EDGE('',*,*,#660,.F.);
#838=ORIENTED_EDGE('',*,*,#659,.F.);
#839=ORIENTED_EDGE('',*,*,#661,.T.);
#840=ORIENTED_EDGE('',*,*,#662,.F.);
#841=ORIENTED_EDGE('',*,*,#663,.T.);
#842=ORIENTED_EDGE('',*,*,#664,.F.);
#843=ORIENTED_EDGE('',*,*,#665,.T.);
#844=ORIENTED_EDGE('',*,*,#648,.F.);
#845=ORIENTED_EDGE('',*,*,#666,.T.);
#846=ORIENTED_EDGE('',*,*,#667,.F.);
#847=ORIENTED_EDGE('',*,*,#668,.T.);
#848=ORIENTED_EDGE('',*,*,#669,.T.);
#849=ORIENTED_EDGE('',*,*,#670,.T.);
#850=ORIENTED_EDGE('',*,*,#671,.F.);
#851=ORIENTED_EDGE('',*,*,#672,.F.);
#852=ORIENTED_EDGE('',*,*,#673,.F.);
#853=ORIENTED_EDGE('',*,*,#674,.F.);
#854=ORIENTED_EDGE('',*,*,#675,.F.);
#855=ORIENTED_EDGE('',*,*,#676,.F.);
#856=ORIENTED_EDGE('',*,*,#677,.F.);
#857=ORIENTED_EDGE('',*,*,#678,.F.);
#858=ORIENTED_EDGE('',*,*,#679,.F.);
#859=ORIENTED_EDGE('',*,*,#680,.F.);
#860=ORIENTED_EDGE('',*,*,#681,.F.);
#861=ORIENTED_EDGE('',*,*,#682,.F.);
#862=ORIENTED_EDGE('',*,*,#683,.F.);
#863=ORIENTED_EDGE('',*,*,#684,.T.);
#864=ORIENTED_EDGE('',*,*,#685,.F.);
#865=ORIENTED_EDGE('',*,*,#686,.T.);
#866=ORIENTED_EDGE('',*,*,#687,.F.);
#867=ORIENTED_EDGE('',*,*,#661,.F.);
#868=ORIENTED_EDGE('',*,*,#647,.F.);
#869=ORIENTED_EDGE('',*,*,#643,.F.);
#870=ORIENTED_EDGE('',*,*,#649,.F.);
#871=ORIENTED_EDGE('',*,*,#654,.T.);
#872=ORIENTED_EDGE('',*,*,#657,.T.);
#873=ORIENTED_EDGE('',*,*,#660,.T.);
#874=ORIENTED_EDGE('',*,*,#688,.T.);
#875=ORIENTED_EDGE('',*,*,#689,.T.);
#876=ORIENTED_EDGE('',*,*,#690,.T.);
#877=ORIENTED_EDGE('',*,*,#691,.F.);
#878=ORIENTED_EDGE('',*,*,#692,.F.);
#879=ORIENTED_EDGE('',*,*,#693,.F.);
#880=ORIENTED_EDGE('',*,*,#694,.F.);
#881=ORIENTED_EDGE('',*,*,#695,.F.);
#882=ORIENTED_EDGE('',*,*,#696,.F.);
#883=ORIENTED_EDGE('',*,*,#697,.F.);
#884=ORIENTED_EDGE('',*,*,#698,.F.);
#885=ORIENTED_EDGE('',*,*,#699,.F.);
#886=ORIENTED_EDGE('',*,*,#700,.F.);
#887=ORIENTED_EDGE('',*,*,#701,.F.);
#888=ORIENTED_EDGE('',*,*,#702,.F.);
#889=ORIENTED_EDGE('',*,*,#703,.F.);
#890=ORIENTED_EDGE('',*,*,#704,.F.);
#891=ORIENTED_EDGE('',*,*,#705,.F.);
#892=ORIENTED_EDGE('',*,*,#706,.F.);
#893=ORIENTED_EDGE('',*,*,#666,.F.);
#894=ORIENTED_EDGE('',*,*,#651,.F.);
#895=ORIENTED_EDGE('',*,*,#663,.F.);
#896=ORIENTED_EDGE('',*,*,#707,.F.);
#897=ORIENTED_EDGE('',*,*,#708,.T.);
#898=ORIENTED_EDGE('',*,*,#709,.T.);
#899=ORIENTED_EDGE('',*,*,#710,.T.);
#900=ORIENTED_EDGE('',*,*,#711,.T.);
#901=ORIENTED_EDGE('',*,*,#712,.T.);
#902=ORIENTED_EDGE('',*,*,#713,.T.);
#903=ORIENTED_EDGE('',*,*,#714,.F.);
#904=ORIENTED_EDGE('',*,*,#715,.F.);
#905=ORIENTED_EDGE('',*,*,#716,.F.);
#906=ORIENTED_EDGE('',*,*,#717,.F.);
#907=ORIENTED_EDGE('',*,*,#718,.F.);
#908=ORIENTED_EDGE('',*,*,#719,.T.);
#909=ORIENTED_EDGE('',*,*,#720,.F.);
#910=ORIENTED_EDGE('',*,*,#721,.F.);
#911=ORIENTED_EDGE('',*,*,#722,.F.);
#912=ORIENTED_EDGE('',*,*,#723,.T.);
#913=ORIENTED_EDGE('',*,*,#724,.F.);
#914=ORIENTED_EDGE('',*,*,#725,.T.);
#915=ORIENTED_EDGE('',*,*,#726,.F.);
#916=ORIENTED_EDGE('',*,*,#727,.F.);
#917=ORIENTED_EDGE('',*,*,#728,.F.);
#918=ORIENTED_EDGE('',*,*,#729,.F.);
#919=ORIENTED_EDGE('',*,*,#730,.F.);
#920=ORIENTED_EDGE('',*,*,#705,.T.);
#921=ORIENTED_EDGE('',*,*,#650,.F.);
#922=ORIENTED_EDGE('',*,*,#645,.F.);
#923=ORIENTED_EDGE('',*,*,#646,.F.);
#924=ORIENTED_EDGE('',*,*,#665,.F.);
#925=ORIENTED_EDGE('',*,*,#664,.T.);
#926=ORIENTED_EDGE('',*,*,#655,.F.);
#927=ORIENTED_EDGE('',*,*,#658,.F.);
#928=ORIENTED_EDGE('',*,*,#652,.F.);
#929=ORIENTED_EDGE('',*,*,#731,.F.);
#930=ORIENTED_EDGE('',*,*,#732,.F.);
#931=ORIENTED_EDGE('',*,*,#733,.F.);
#932=ORIENTED_EDGE('',*,*,#734,.T.);
#933=ORIENTED_EDGE('',*,*,#735,.T.);
#934=ORIENTED_EDGE('',*,*,#736,.T.);
#935=ORIENTED_EDGE('',*,*,#737,.F.);
#936=ORIENTED_EDGE('',*,*,#738,.F.);
#937=ORIENTED_EDGE('',*,*,#739,.F.);
#938=ORIENTED_EDGE('',*,*,#740,.F.);
#939=ORIENTED_EDGE('',*,*,#741,.F.);
#940=ORIENTED_EDGE('',*,*,#742,.F.);
#941=ORIENTED_EDGE('',*,*,#743,.F.);
#942=ORIENTED_EDGE('',*,*,#744,.F.);
#943=ORIENTED_EDGE('',*,*,#745,.T.);
#944=ORIENTED_EDGE('',*,*,#746,.T.);
#945=ORIENTED_EDGE('',*,*,#747,.T.);
#946=ORIENTED_EDGE('',*,*,#676,.T.);
#947=ORIENTED_EDGE('',*,*,#748,.F.);
#948=ORIENTED_EDGE('',*,*,#723,.F.);
#949=ORIENTED_EDGE('',*,*,#749,.F.);
#950=ORIENTED_EDGE('',*,*,#719,.F.);
#951=ORIENTED_EDGE('',*,*,#750,.F.);
#952=ORIENTED_EDGE('',*,*,#680,.T.);
#953=ORIENTED_EDGE('',*,*,#751,.F.);
#954=ORIENTED_EDGE('',*,*,#694,.T.);
#955=ORIENTED_EDGE('',*,*,#752,.T.);
#956=ORIENTED_EDGE('',*,*,#753,.T.);
#957=ORIENTED_EDGE('',*,*,#754,.F.);
#958=ORIENTED_EDGE('',*,*,#701,.T.);
#959=ORIENTED_EDGE('',*,*,#755,.T.);
#960=ORIENTED_EDGE('',*,*,#756,.T.);
#961=ORIENTED_EDGE('',*,*,#752,.F.);
#962=ORIENTED_EDGE('',*,*,#700,.T.);
#963=ORIENTED_EDGE('',*,*,#757,.T.);
#964=ORIENTED_EDGE('',*,*,#758,.T.);
#965=ORIENTED_EDGE('',*,*,#755,.F.);
#966=ORIENTED_EDGE('',*,*,#699,.T.);
#967=ORIENTED_EDGE('',*,*,#759,.T.);
#968=ORIENTED_EDGE('',*,*,#760,.T.);
#969=ORIENTED_EDGE('',*,*,#757,.F.);
#970=ORIENTED_EDGE('',*,*,#698,.T.);
#971=ORIENTED_EDGE('',*,*,#761,.T.);
#972=ORIENTED_EDGE('',*,*,#762,.T.);
#973=ORIENTED_EDGE('',*,*,#759,.F.);
#974=ORIENTED_EDGE('',*,*,#763,.T.);
#975=ORIENTED_EDGE('',*,*,#761,.F.);
#976=ORIENTED_EDGE('',*,*,#697,.T.);
#977=ORIENTED_EDGE('',*,*,#764,.T.);
#978=ORIENTED_EDGE('',*,*,#765,.T.);
#979=ORIENTED_EDGE('',*,*,#764,.F.);
#980=ORIENTED_EDGE('',*,*,#696,.T.);
#981=ORIENTED_EDGE('',*,*,#766,.T.);
#982=ORIENTED_EDGE('',*,*,#767,.T.);
#983=ORIENTED_EDGE('',*,*,#766,.F.);
#984=ORIENTED_EDGE('',*,*,#695,.T.);
#985=ORIENTED_EDGE('',*,*,#754,.T.);
#986=ORIENTED_EDGE('',*,*,#763,.F.);
#987=ORIENTED_EDGE('',*,*,#768,.T.);
#988=ORIENTED_EDGE('',*,*,#769,.F.);
#989=ORIENTED_EDGE('',*,*,#770,.T.);
#990=ORIENTED_EDGE('',*,*,#765,.F.);
#991=ORIENTED_EDGE('',*,*,#771,.F.);
#992=ORIENTED_EDGE('',*,*,#772,.F.);
#993=ORIENTED_EDGE('',*,*,#768,.F.);
#994=ORIENTED_EDGE('',*,*,#767,.F.);
#995=ORIENTED_EDGE('',*,*,#773,.T.);
#996=ORIENTED_EDGE('',*,*,#774,.F.);
#997=ORIENTED_EDGE('',*,*,#771,.T.);
#998=ORIENTED_EDGE('',*,*,#753,.F.);
#999=ORIENTED_EDGE('',*,*,#775,.F.);
#1000=ORIENTED_EDGE('',*,*,#776,.F.);
#1001=ORIENTED_EDGE('',*,*,#773,.F.);
#1002=ORIENTED_EDGE('',*,*,#737,.T.);
#1003=ORIENTED_EDGE('',*,*,#777,.T.);
#1004=ORIENTED_EDGE('',*,*,#778,.T.);
#1005=ORIENTED_EDGE('',*,*,#779,.F.);
#1006=ORIENTED_EDGE('',*,*,#744,.T.);
#1007=ORIENTED_EDGE('',*,*,#780,.T.);
#1008=ORIENTED_EDGE('',*,*,#781,.T.);
#1009=ORIENTED_EDGE('',*,*,#777,.F.);
#1010=ORIENTED_EDGE('',*,*,#743,.T.);
#1011=ORIENTED_EDGE('',*,*,#782,.T.);
#1012=ORIENTED_EDGE('',*,*,#776,.T.);
#1013=ORIENTED_EDGE('',*,*,#780,.F.);
#1014=ORIENTED_EDGE('',*,*,#742,.T.);
#1015=ORIENTED_EDGE('',*,*,#783,.T.);
#1016=ORIENTED_EDGE('',*,*,#774,.T.);
#1017=ORIENTED_EDGE('',*,*,#782,.F.);
#1018=ORIENTED_EDGE('',*,*,#741,.T.);
#1019=ORIENTED_EDGE('',*,*,#784,.T.);
#1020=ORIENTED_EDGE('',*,*,#772,.T.);
#1021=ORIENTED_EDGE('',*,*,#783,.F.);
#1022=ORIENTED_EDGE('',*,*,#769,.T.);
#1023=ORIENTED_EDGE('',*,*,#784,.F.);
#1024=ORIENTED_EDGE('',*,*,#740,.T.);
#1025=ORIENTED_EDGE('',*,*,#785,.T.);
#1026=ORIENTED_EDGE('',*,*,#786,.T.);
#1027=ORIENTED_EDGE('',*,*,#785,.F.);
#1028=ORIENTED_EDGE('',*,*,#739,.T.);
#1029=ORIENTED_EDGE('',*,*,#787,.T.);
#1030=ORIENTED_EDGE('',*,*,#788,.T.);
#1031=ORIENTED_EDGE('',*,*,#787,.F.);
#1032=ORIENTED_EDGE('',*,*,#738,.T.);
#1033=ORIENTED_EDGE('',*,*,#779,.T.);
#1034=ORIENTED_EDGE('',*,*,#762,.F.);
#1035=ORIENTED_EDGE('',*,*,#770,.F.);
#1036=ORIENTED_EDGE('',*,*,#786,.F.);
#1037=ORIENTED_EDGE('',*,*,#789,.F.);
#1038=ORIENTED_EDGE('',*,*,#760,.F.);
#1039=ORIENTED_EDGE('',*,*,#789,.T.);
#1040=ORIENTED_EDGE('',*,*,#788,.F.);
#1041=ORIENTED_EDGE('',*,*,#790,.T.);
#1042=ORIENTED_EDGE('',*,*,#758,.F.);
#1043=ORIENTED_EDGE('',*,*,#790,.F.);
#1044=ORIENTED_EDGE('',*,*,#778,.F.);
#1045=ORIENTED_EDGE('',*,*,#791,.F.);
#1046=ORIENTED_EDGE('',*,*,#756,.F.);
#1047=ORIENTED_EDGE('',*,*,#791,.T.);
#1048=ORIENTED_EDGE('',*,*,#781,.F.);
#1049=ORIENTED_EDGE('',*,*,#775,.T.);
#1050=ORIENTED_EDGE('',*,*,#730,.T.);
#1051=ORIENTED_EDGE('',*,*,#792,.T.);
#1052=ORIENTED_EDGE('',*,*,#667,.T.);
#1053=ORIENTED_EDGE('',*,*,#706,.T.);
#1054=ORIENTED_EDGE('',*,*,#707,.T.);
#1055=ORIENTED_EDGE('',*,*,#662,.T.);
#1056=ORIENTED_EDGE('',*,*,#687,.T.);
#1057=ORIENTED_EDGE('',*,*,#793,.T.);
#1058=ORIENTED_EDGE('',*,*,#718,.T.);
#1059=ORIENTED_EDGE('',*,*,#794,.T.);
#1060=ORIENTED_EDGE('',*,*,#681,.T.);
#1061=ORIENTED_EDGE('',*,*,#750,.T.);
#1062=ORIENTED_EDGE('',*,*,#675,.T.);
#1063=ORIENTED_EDGE('',*,*,#795,.T.);
#1064=ORIENTED_EDGE('',*,*,#724,.T.);
#1065=ORIENTED_EDGE('',*,*,#748,.T.);
#1066=ORIENTED_EDGE('',*,*,#796,.F.);
#1067=ORIENTED_EDGE('',*,*,#684,.F.);
#1068=ORIENTED_EDGE('',*,*,#797,.F.);
#1069=ORIENTED_EDGE('',*,*,#715,.T.);
#1070=ORIENTED_EDGE('',*,*,#683,.T.);
#1071=ORIENTED_EDGE('',*,*,#798,.T.);
#1072=ORIENTED_EDGE('',*,*,#716,.T.);
#1073=ORIENTED_EDGE('',*,*,#797,.T.);
#1074=ORIENTED_EDGE('',*,*,#685,.T.);
#1075=ORIENTED_EDGE('',*,*,#796,.T.);
#1076=ORIENTED_EDGE('',*,*,#714,.T.);
#1077=ORIENTED_EDGE('',*,*,#799,.T.);
#1078=ORIENTED_EDGE('',*,*,#693,.T.);
#1079=ORIENTED_EDGE('',*,*,#800,.T.);
#1080=ORIENTED_EDGE('',*,*,#747,.F.);
#1081=ORIENTED_EDGE('',*,*,#800,.F.);
#1082=ORIENTED_EDGE('',*,*,#691,.T.);
#1083=ORIENTED_EDGE('',*,*,#801,.T.);
#1084=ORIENTED_EDGE('',*,*,#746,.F.);
#1085=ORIENTED_EDGE('',*,*,#801,.F.);
#1086=ORIENTED_EDGE('',*,*,#692,.T.);
#1087=ORIENTED_EDGE('',*,*,#802,.T.);
#1088=ORIENTED_EDGE('',*,*,#745,.F.);
#1089=ORIENTED_EDGE('',*,*,#802,.F.);
#1090=ORIENTED_EDGE('',*,*,#686,.F.);
#1091=ORIENTED_EDGE('',*,*,#799,.F.);
#1092=ORIENTED_EDGE('',*,*,#713,.F.);
#1093=ORIENTED_EDGE('',*,*,#712,.F.);
#1094=ORIENTED_EDGE('',*,*,#711,.F.);
#1095=ORIENTED_EDGE('',*,*,#710,.F.);
#1096=ORIENTED_EDGE('',*,*,#709,.F.);
#1097=ORIENTED_EDGE('',*,*,#708,.F.);
#1098=ORIENTED_EDGE('',*,*,#793,.F.);
#1099=ORIENTED_EDGE('',*,*,#717,.T.);
#1100=ORIENTED_EDGE('',*,*,#798,.F.);
#1101=ORIENTED_EDGE('',*,*,#682,.T.);
#1102=ORIENTED_EDGE('',*,*,#794,.F.);
#1103=ORIENTED_EDGE('',*,*,#674,.T.);
#1104=ORIENTED_EDGE('',*,*,#803,.F.);
#1105=ORIENTED_EDGE('',*,*,#725,.F.);
#1106=ORIENTED_EDGE('',*,*,#795,.F.);
#1107=ORIENTED_EDGE('',*,*,#804,.F.);
#1108=ORIENTED_EDGE('',*,*,#672,.T.);
#1109=ORIENTED_EDGE('',*,*,#805,.F.);
#1110=ORIENTED_EDGE('',*,*,#727,.T.);
#1111=ORIENTED_EDGE('',*,*,#729,.T.);
#1112=ORIENTED_EDGE('',*,*,#806,.F.);
#1113=ORIENTED_EDGE('',*,*,#670,.F.);
#1114=ORIENTED_EDGE('',*,*,#669,.F.);
#1115=ORIENTED_EDGE('',*,*,#668,.F.);
#1116=ORIENTED_EDGE('',*,*,#792,.F.);
#1117=ORIENTED_EDGE('',*,*,#728,.T.);
#1118=ORIENTED_EDGE('',*,*,#805,.T.);
#1119=ORIENTED_EDGE('',*,*,#671,.T.);
#1120=ORIENTED_EDGE('',*,*,#806,.T.);
#1121=ORIENTED_EDGE('',*,*,#673,.T.);
#1122=ORIENTED_EDGE('',*,*,#804,.T.);
#1123=ORIENTED_EDGE('',*,*,#726,.T.);
#1124=ORIENTED_EDGE('',*,*,#803,.T.);
#1125=ORIENTED_EDGE('',*,*,#704,.T.);
#1126=ORIENTED_EDGE('',*,*,#807,.T.);
#1127=ORIENTED_EDGE('',*,*,#736,.F.);
#1128=ORIENTED_EDGE('',*,*,#807,.F.);
#1129=ORIENTED_EDGE('',*,*,#703,.T.);
#1130=ORIENTED_EDGE('',*,*,#808,.T.);
#1131=ORIENTED_EDGE('',*,*,#735,.F.);
#1132=ORIENTED_EDGE('',*,*,#808,.F.);
#1133=ORIENTED_EDGE('',*,*,#702,.T.);
#1134=ORIENTED_EDGE('',*,*,#809,.T.);
#1135=ORIENTED_EDGE('',*,*,#734,.F.);
#1136=ORIENTED_EDGE('',*,*,#809,.F.);
#1137=ORIENTED_EDGE('',*,*,#810,.F.);
#1138=ORIENTED_EDGE('',*,*,#678,.T.);
#1139=ORIENTED_EDGE('',*,*,#811,.F.);
#1140=ORIENTED_EDGE('',*,*,#721,.T.);
#1141=ORIENTED_EDGE('',*,*,#722,.T.);
#1142=ORIENTED_EDGE('',*,*,#811,.T.);
#1143=ORIENTED_EDGE('',*,*,#677,.T.);
#1144=ORIENTED_EDGE('',*,*,#749,.T.);
#1145=ORIENTED_EDGE('',*,*,#679,.T.);
#1146=ORIENTED_EDGE('',*,*,#810,.T.);
#1147=ORIENTED_EDGE('',*,*,#720,.T.);
#1148=ORIENTED_EDGE('',*,*,#751,.T.);
#1149=ORIENTED_EDGE('',*,*,#733,.T.);
#1150=ORIENTED_EDGE('',*,*,#812,.T.);
#1151=ORIENTED_EDGE('',*,*,#688,.F.);
#1152=ORIENTED_EDGE('',*,*,#812,.F.);
#1153=ORIENTED_EDGE('',*,*,#731,.T.);
#1154=ORIENTED_EDGE('',*,*,#813,.T.);
#1155=ORIENTED_EDGE('',*,*,#689,.F.);
#1156=ORIENTED_EDGE('',*,*,#813,.F.);
#1157=ORIENTED_EDGE('',*,*,#732,.T.);
#1158=ORIENTED_EDGE('',*,*,#814,.T.);
#1159=ORIENTED_EDGE('',*,*,#690,.F.);
#1160=ORIENTED_EDGE('',*,*,#814,.F.);
#1161=PLANE('',#1288);
#1162=PLANE('',#1289);
#1163=PLANE('',#1290);
#1164=PLANE('',#1300);
#1165=PLANE('',#1301);
#1166=PLANE('',#1311);
#1167=PLANE('',#1312);
#1168=PLANE('',#1322);
#1169=PLANE('',#1323);
#1170=PLANE('',#1324);
#1171=PLANE('',#1325);
#1172=PLANE('',#1326);
#1173=PLANE('',#1327);
#1174=PLANE('',#1328);
#1175=PLANE('',#1329);
#1176=PLANE('',#1330);
#1177=PLANE('',#1331);
#1178=PLANE('',#1332);
#1179=PLANE('',#1333);
#1180=PLANE('',#1334);
#1181=PLANE('',#1335);
#1182=PLANE('',#1336);
#1183=PLANE('',#1337);
#1184=PLANE('',#1338);
#1185=PLANE('',#1339);
#1186=PLANE('',#1340);
#1187=PLANE('',#1341);
#1188=PLANE('',#1342);
#1189=PLANE('',#1343);
#1190=PLANE('',#1344);
#1191=PLANE('',#1345);
#1192=PLANE('',#1346);
#1193=PLANE('',#1347);
#1194=PLANE('',#1348);
#1195=PLANE('',#1349);
#1196=PLANE('',#1350);
#1197=PLANE('',#1351);
#1198=PLANE('',#1352);
#1199=PLANE('',#1353);
#1200=PLANE('',#1354);
#1201=PLANE('',#1358);
#1202=PLANE('',#1359);
#1203=PLANE('',#1360);
#1204=PLANE('',#1361);
#1205=PLANE('',#1362);
#1206=PLANE('',#1363);
#1207=PLANE('',#1364);
#1208=PLANE('',#1368);
#1209=PLANE('',#1369);
#1210=PLANE('',#1370);
#1211=ADVANCED_FACE('',(#81),#1161,.T.);
#1212=ADVANCED_FACE('',(#82),#1162,.T.);
#1213=ADVANCED_FACE('',(#83),#1163,.T.);
#1214=ADVANCED_FACE('',(#84),#69,.F.);
#1215=ADVANCED_FACE('',(#85),#70,.F.);
#1216=ADVANCED_FACE('',(#86),#71,.F.);
#1217=ADVANCED_FACE('',(#87),#1164,.T.);
#1218=ADVANCED_FACE('',(#88,#19,#20,#21,#22,#23,#24,#25,#26,#27,#28,#29,
#30,#31),#1165,.F.);
#1219=ADVANCED_FACE('',(#89),#1166,.T.);
#1220=ADVANCED_FACE('',(#90,#32,#33,#34,#35,#36,#37,#38,#39,#40,#41,#42,
#43,#44),#1167,.T.);
#1221=ADVANCED_FACE('',(#91),#1168,.T.);
#1222=ADVANCED_FACE('',(#92),#1169,.T.);
#1223=ADVANCED_FACE('',(#93),#1170,.T.);
#1224=ADVANCED_FACE('',(#94),#1171,.T.);
#1225=ADVANCED_FACE('',(#95),#1172,.T.);
#1226=ADVANCED_FACE('',(#96),#1173,.T.);
#1227=ADVANCED_FACE('',(#97),#1174,.T.);
#1228=ADVANCED_FACE('',(#98),#1175,.T.);
#1229=ADVANCED_FACE('',(#99),#1176,.T.);
#1230=ADVANCED_FACE('',(#100),#1177,.T.);
#1231=ADVANCED_FACE('',(#101),#1178,.T.);
#1232=ADVANCED_FACE('',(#102),#1179,.F.);
#1233=ADVANCED_FACE('',(#103),#1180,.T.);
#1234=ADVANCED_FACE('',(#104),#1181,.F.);
#1235=ADVANCED_FACE('',(#105),#1182,.T.);
#1236=ADVANCED_FACE('',(#106),#1183,.T.);
#1237=ADVANCED_FACE('',(#107),#1184,.T.);
#1238=ADVANCED_FACE('',(#108),#1185,.T.);
#1239=ADVANCED_FACE('',(#109),#1186,.T.);
#1240=ADVANCED_FACE('',(#110),#1187,.T.);
#1241=ADVANCED_FACE('',(#111),#1188,.T.);
#1242=ADVANCED_FACE('',(#112),#1189,.T.);
#1243=ADVANCED_FACE('',(#113),#1190,.F.);
#1244=ADVANCED_FACE('',(#114),#1191,.T.);
#1245=ADVANCED_FACE('',(#115),#1192,.F.);
#1246=ADVANCED_FACE('',(#116),#1193,.T.);
#1247=ADVANCED_FACE('',(#117),#1194,.T.);
#1248=ADVANCED_FACE('',(#118),#1195,.T.);
#1249=ADVANCED_FACE('',(#119),#1196,.T.);
#1250=ADVANCED_FACE('',(#120),#1197,.T.);
#1251=ADVANCED_FACE('',(#121),#1198,.T.);
#1252=ADVANCED_FACE('',(#122),#1199,.T.);
#1253=ADVANCED_FACE('',(#123),#1200,.T.);
#1254=ADVANCED_FACE('',(#124),#72,.F.);
#1255=ADVANCED_FACE('',(#125),#73,.F.);
#1256=ADVANCED_FACE('',(#126),#74,.F.);
#1257=ADVANCED_FACE('',(#127),#1201,.F.);
#1258=ADVANCED_FACE('',(#128),#1202,.T.);
#1259=ADVANCED_FACE('',(#129),#1203,.T.);
#1260=ADVANCED_FACE('',(#130),#1204,.T.);
#1261=ADVANCED_FACE('',(#131),#1205,.T.);
#1262=ADVANCED_FACE('',(#132),#1206,.T.);
#1263=ADVANCED_FACE('',(#133),#1207,.T.);
#1264=ADVANCED_FACE('',(#134),#75,.F.);
#1265=ADVANCED_FACE('',(#135),#76,.F.);
#1266=ADVANCED_FACE('',(#136),#77,.F.);
#1267=ADVANCED_FACE('',(#137),#1208,.T.);
#1268=ADVANCED_FACE('',(#138),#1209,.T.);
#1269=ADVANCED_FACE('',(#139),#1210,.T.);
#1270=ADVANCED_FACE('',(#140),#78,.F.);
#1271=ADVANCED_FACE('',(#141),#79,.F.);
#1272=ADVANCED_FACE('',(#142),#80,.F.);
#1273=CLOSED_SHELL('',(#1211,#1212,#1213,#1214,#1215,#1216,#1217,#1218,
#1219,#1220,#1221,#1222,#1223,#1224,#1225,#1226,#1227,#1228,#1229,#1230,
#1231,#1232,#1233,#1234,#1235,#1236,#1237,#1238,#1239,#1240,#1241,#1242,
#1243,#1244,#1245,#1246,#1247,#1248,#1249,#1250,#1251,#1252,#1253,#1254,
#1255,#1256,#1257,#1258,#1259,#1260,#1261,#1262,#1263,#1264,#1265,#1266,
#1267,#1268,#1269,#1270,#1271,#1272));
#1274=DERIVED_UNIT_ELEMENT(#1276,1.);
#1275=DERIVED_UNIT_ELEMENT(#2060,-3.);
#1276=(
MASS_UNIT()
NAMED_UNIT(*)
SI_UNIT(.KILO.,.GRAM.)
);
#1277=DERIVED_UNIT((#1274,#1275));
#1278=MEASURE_REPRESENTATION_ITEM('density measure',
POSITIVE_RATIO_MEASURE(7850.),#1277);
#1279=PROPERTY_DEFINITION_REPRESENTATION(#1284,#1281);
#1280=PROPERTY_DEFINITION_REPRESENTATION(#1285,#1282);
#1281=REPRESENTATION('material name',(#1283),#2057);
#1282=REPRESENTATION('density',(#1278),#2057);
#1283=DESCRIPTIVE_REPRESENTATION_ITEM('Steel','Steel');
#1284=PROPERTY_DEFINITION('material property','material name',#2072);
#1285=PROPERTY_DEFINITION('material property','density of part',#2072);
#1286=AXIS2_PLACEMENT_3D('',#1702,#1375,#1376);
#1287=AXIS2_PLACEMENT_3D('',#1703,#1377,#1378);
#1288=AXIS2_PLACEMENT_3D('',#1704,#1379,#1380);
#1289=AXIS2_PLACEMENT_3D('',#1713,#1385,#1386);
#1290=AXIS2_PLACEMENT_3D('',#1719,#1390,#1391);
#1291=AXIS2_PLACEMENT_3D('',#1725,#1395,#1396);
#1292=AXIS2_PLACEMENT_3D('',#1727,#1397,#1398);
#1293=AXIS2_PLACEMENT_3D('',#1730,#1400,#1401);
#1294=AXIS2_PLACEMENT_3D('',#1731,#1402,#1403);
#1295=AXIS2_PLACEMENT_3D('',#1733,#1404,#1405);
#1296=AXIS2_PLACEMENT_3D('',#1736,#1407,#1408);
#1297=AXIS2_PLACEMENT_3D('',#1737,#1409,#1410);
#1298=AXIS2_PLACEMENT_3D('',#1739,#1411,#1412);
#1299=AXIS2_PLACEMENT_3D('',#1742,#1414,#1415);
#1300=AXIS2_PLACEMENT_3D('',#1743,#1416,#1417);
#1301=AXIS2_PLACEMENT_3D('',#1753,#1423,#1424);
#1302=AXIS2_PLACEMENT_3D('',#1798,#1447,#1448);
#1303=AXIS2_PLACEMENT_3D('',#1800,#1449,#1450);
#1304=AXIS2_PLACEMENT_3D('',#1802,#1451,#1452);
#1305=AXIS2_PLACEMENT_3D('',#1804,#1453,#1454);
#1306=AXIS2_PLACEMENT_3D('',#1806,#1455,#1456);
#1307=AXIS2_PLACEMENT_3D('',#1808,#1457,#1458);
#1308=AXIS2_PLACEMENT_3D('',#1826,#1467,#1468);
#1309=AXIS2_PLACEMENT_3D('',#1828,#1469,#1470);
#1310=AXIS2_PLACEMENT_3D('',#1830,#1471,#1472);
#1311=AXIS2_PLACEMENT_3D('',#1831,#1473,#1474);
#1312=AXIS2_PLACEMENT_3D('',#1835,#1477,#1478);
#1313=AXIS2_PLACEMENT_3D('',#1884,#1503,#1504);
#1314=AXIS2_PLACEMENT_3D('',#1886,#1505,#1506);
#1315=AXIS2_PLACEMENT_3D('',#1888,#1507,#1508);
#1316=AXIS2_PLACEMENT_3D('',#1890,#1509,#1510);
#1317=AXIS2_PLACEMENT_3D('',#1892,#1511,#1512);
#1318=AXIS2_PLACEMENT_3D('',#1894,#1513,#1514);
#1319=AXIS2_PLACEMENT_3D('',#1912,#1523,#1524);
#1320=AXIS2_PLACEMENT_3D('',#1914,#1525,#1526);
#1321=AXIS2_PLACEMENT_3D('',#1916,#1527,#1528);
#1322=AXIS2_PLACEMENT_3D('',#1917,#1529,#1530);
#1323=AXIS2_PLACEMENT_3D('',#1920,#1533,#1534);
#1324=AXIS2_PLACEMENT_3D('',#1923,#1537,#1538);
#1325=AXIS2_PLACEMENT_3D('',#1929,#1542,#1543);
#1326=AXIS2_PLACEMENT_3D('',#1933,#1546,#1547);
#1327=AXIS2_PLACEMENT_3D('',#1937,#1550,#1551);
#1328=AXIS2_PLACEMENT_3D('',#1941,#1554,#1555);
#1329=AXIS2_PLACEMENT_3D('',#1945,#1558,#1559);
#1330=AXIS2_PLACEMENT_3D('',#1949,#1562,#1563);
#1331=AXIS2_PLACEMENT_3D('',#1953,#1566,#1567);
#1332=AXIS2_PLACEMENT_3D('',#1955,#1569,#1570);
#1333=AXIS2_PLACEMENT_3D('',#1961,#1574,#1575);
#1334=AXIS2_PLACEMENT_3D('',#1965,#1578,#1579);
#1335=AXIS2_PLACEMENT_3D('',#1969,#1582,#1583);
#1336=AXIS2_PLACEMENT_3D('',#1973,#1586,#1587);
#1337=AXIS2_PLACEMENT_3D('',#1979,#1591,#1592);
#1338=AXIS2_PLACEMENT_3D('',#1982,#1595,#1596);
#1339=AXIS2_PLACEMENT_3D('',#1984,#1598,#1599);
#1340=AXIS2_PLACEMENT_3D('',#1986,#1601,#1602);
#1341=AXIS2_PLACEMENT_3D('',#1988,#1604,#1605);
#1342=AXIS2_PLACEMENT_3D('',#1990,#1607,#1608);
#1343=AXIS2_PLACEMENT_3D('',#1994,#1611,#1612);
#1344=AXIS2_PLACEMENT_3D('',#1996,#1614,#1615);
#1345=AXIS2_PLACEMENT_3D('',#1998,#1617,#1618);
#1346=AXIS2_PLACEMENT_3D('',#2000,#1620,#1621);
#1347=AXIS2_PLACEMENT_3D('',#2002,#1623,#1624);
#1348=AXIS2_PLACEMENT_3D('',#2003,#1625,#1626);
#1349=AXIS2_PLACEMENT_3D('',#2005,#1628,#1629);
#1350=AXIS2_PLACEMENT_3D('',#2007,#1631,#1632);
#1351=AXIS2_PLACEMENT_3D('',#2009,#1634,#1635);
#1352=AXIS2_PLACEMENT_3D('',#2011,#1637,#1638);
#1353=AXIS2_PLACEMENT_3D('',#2014,#1641,#1642);
#1354=AXIS2_PLACEMENT_3D('',#2016,#1644,#1645);
#1355=AXIS2_PLACEMENT_3D('',#2018,#1647,#1648);
#1356=AXIS2_PLACEMENT_3D('',#2020,#1650,#1651);
#1357=AXIS2_PLACEMENT_3D('',#2022,#1653,#1654);
#1358=AXIS2_PLACEMENT_3D('',#2024,#1656,#1657);
#1359=AXIS2_PLACEMENT_3D('',#2025,#1658,#1659);
#1360=AXIS2_PLACEMENT_3D('',#2026,#1660,#1661);
#1361=AXIS2_PLACEMENT_3D('',#2028,#1663,#1664);
#1362=AXIS2_PLACEMENT_3D('',#2031,#1667,#1668);
#1363=AXIS2_PLACEMENT_3D('',#2033,#1670,#1671);
#1364=AXIS2_PLACEMENT_3D('',#2034,#1672,#1673);
#1365=AXIS2_PLACEMENT_3D('',#2035,#1674,#1675);
#1366=AXIS2_PLACEMENT_3D('',#2037,#1677,#1678);
#1367=AXIS2_PLACEMENT_3D('',#2039,#1680,#1681);
#1368=AXIS2_PLACEMENT_3D('',#2041,#1683,#1684);
#1369=AXIS2_PLACEMENT_3D('',#2044,#1687,#1688);
#1370=AXIS2_PLACEMENT_3D('',#2045,#1689,#1690);
#1371=AXIS2_PLACEMENT_3D('',#2046,#1691,#1692);
#1372=AXIS2_PLACEMENT_3D('',#2048,#1694,#1695);
#1373=AXIS2_PLACEMENT_3D('',#2050,#1697,#1698);
#1374=AXIS2_PLACEMENT_3D('',#2052,#1700,#1701);
#1375=DIRECTION('axis',(0.,0.,1.));
#1376=DIRECTION('refdir',(1.,0.,0.));
#1377=DIRECTION('axis',(0.,0.,1.));
#1378=DIRECTION('refdir',(1.,0.,0.));
#1379=DIRECTION('center_axis',(0.,0.,-1.));
#1380=DIRECTION('ref_axis',(-1.,0.,0.));
#1381=DIRECTION('',(3.32651093520647E-16,-1.,0.));
#1382=DIRECTION('',(1.,0.,0.));
#1383=DIRECTION('',(8.31627733801615E-17,1.,0.));
#1384=DIRECTION('',(-1.,0.,0.));
#1385=DIRECTION('center_axis',(0.707106781186546,-5.88049609993922E-17,
-0.707106781186549));
#1386=DIRECTION('ref_axis',(-0.707106781186549,0.,-0.707106781186546));
#1387=DIRECTION('',(-0.707106781186549,0.,-0.707106781186546));
#1388=DIRECTION('',(0.707106781186549,0.,0.707106781186546));
#1389=DIRECTION('',(-8.31627733801615E-17,-1.,0.));
#1390=DIRECTION('center_axis',(-0.707106781186548,-2.3521984399757E-16,
-0.707106781186548));
#1391=DIRECTION('ref_axis',(-0.707106781186548,0.,0.707106781186548));
#1392=DIRECTION('',(0.707106781186548,0.,-0.707106781186548));
#1393=DIRECTION('',(-0.707106781186548,0.,0.707106781186548));
#1394=DIRECTION('',(-3.32651093520647E-16,1.,0.));
#1395=DIRECTION('center_axis',(1.40413558916231E-9,1.,0.));
#1396=DIRECTION('ref_axis',(1.,-1.40413558916231E-9,0.));
#1397=DIRECTION('center_axis',(0.,-1.,0.));
#1398=DIRECTION('ref_axis',(1.,0.,0.));
#1399=DIRECTION('',(1.40413558916231E-9,1.,0.));
#1400=DIRECTION('center_axis',(0.,-1.,0.));
#1401=DIRECTION('ref_axis',(1.,0.,0.));
#1402=DIRECTION('center_axis',(1.40413558916231E-9,1.,0.));
#1403=DIRECTION('ref_axis',(1.,-1.40413558916231E-9,0.));
#1404=DIRECTION('center_axis',(0.,-1.,0.));
#1405=DIRECTION('ref_axis',(1.,0.,0.));
#1406=DIRECTION('',(1.40413558916231E-9,1.,0.));
#1407=DIRECTION('center_axis',(0.,-1.,0.));
#1408=DIRECTION('ref_axis',(1.,0.,0.));
#1409=DIRECTION('center_axis',(1.40413558916231E-9,1.,0.));
#1410=DIRECTION('ref_axis',(1.,-1.40413558916231E-9,0.));
#1411=DIRECTION('center_axis',(0.,-1.,0.));
#1412=DIRECTION('ref_axis',(1.,0.,0.));
#1413=DIRECTION('',(1.40413558916231E-9,1.,0.));
#1414=DIRECTION('center_axis',(0.,-1.,0.));
#1415=DIRECTION('ref_axis',(1.,0.,0.));
#1416=DIRECTION('center_axis',(1.,-8.31627733801615E-17,0.));
#1417=DIRECTION('ref_axis',(8.31627733801615E-17,1.,0.));
#1418=DIRECTION('',(0.,0.,1.));
#1419=DIRECTION('',(8.31627733801615E-17,1.,0.));
#1420=DIRECTION('',(0.,0.,-1.));
#1421=DIRECTION('',(0.,0.,1.));
#1422=DIRECTION('',(0.,0.,-1.));
#1423=DIRECTION('center_axis',(0.,-1.,0.));
#1424=DIRECTION('ref_axis',(0.,0.,-1.));
#1425=DIRECTION('',(0.,0.,1.));
#1426=DIRECTION('',(0.707106932120983,0.,-0.70710663025208));
#1427=DIRECTION('',(-1.,0.,0.));
#1428=DIRECTION('',(-1.,0.,0.));
#1429=DIRECTION('',(-1.,0.,0.));
#1430=DIRECTION('',(0.707106781186548,0.,-0.707106781186548));
#1431=DIRECTION('',(0.,0.,-1.));
#1432=DIRECTION('',(-0.707106781186541,0.,-0.707106781186554));
#1433=DIRECTION('',(-1.,0.,0.));
#1434=DIRECTION('',(-0.707106781186563,0.,-0.707106781186532));
#1435=DIRECTION('',(0.,0.,-1.));
#1436=DIRECTION('',(-0.707106781186544,0.,-0.707106781186551));
#1437=DIRECTION('',(-1.,0.,0.));
#1438=DIRECTION('',(-0.707106781186543,0.,0.707106781186552));
#1439=DIRECTION('',(0.,0.,1.));
#1440=DIRECTION('',(-0.707106781186548,0.,0.707106781186548));
#1441=DIRECTION('',(-1.,0.,0.));
#1442=DIRECTION('',(-0.707106781186542,0.,0.707106781186553));
#1443=DIRECTION('',(0.,0.,-1.));
#1444=DIRECTION('',(0.707106781186549,0.,0.707106781186546));
#1445=DIRECTION('',(-1.,0.,0.));
#1446=DIRECTION('',(0.707106781186548,0.,0.707106781186547));
#1447=DIRECTION('center_axis',(0.,-1.,0.));
#1448=DIRECTION('ref_axis',(1.,0.,0.));
#1449=DIRECTION('center_axis',(0.,-1.,0.));
#1450=DIRECTION('ref_axis',(1.,0.,0.));
#1451=DIRECTION('center_axis',(0.,-1.,0.));
#1452=DIRECTION('ref_axis',(1.,0.,0.));
#1453=DIRECTION('center_axis',(0.,1.,0.));
#1454=DIRECTION('ref_axis',(-1.,0.,0.));
#1455=DIRECTION('center_axis',(0.,1.,0.));
#1456=DIRECTION('ref_axis',(-1.,0.,0.));
#1457=DIRECTION('center_axis',(0.,1.,0.));
#1458=DIRECTION('ref_axis',(-1.,0.,0.));
#1459=DIRECTION('',(0.,0.,1.));
#1460=DIRECTION('',(-0.707106781186548,0.,0.707106781186548));
#1461=DIRECTION('',(-1.,0.,0.));
#1462=DIRECTION('',(-0.707106781186549,0.,-0.707106781186546));
#1463=DIRECTION('',(0.,0.,-1.));
#1464=DIRECTION('',(0.707106781186551,0.,-0.707106781186544));
#1465=DIRECTION('',(1.,0.,0.));
#1466=DIRECTION('',(0.707106781186548,0.,0.707106781186548));
#1467=DIRECTION('center_axis',(0.,1.,0.));
#1468=DIRECTION('ref_axis',(-1.,0.,0.));
#1469=DIRECTION('center_axis',(0.,1.,0.));
#1470=DIRECTION('ref_axis',(-1.,0.,0.));
#1471=DIRECTION('center_axis',(0.,1.,0.));
#1472=DIRECTION('ref_axis',(-1.,0.,0.));
#1473=DIRECTION('center_axis',(-1.,-3.32651093520647E-16,0.));
#1474=DIRECTION('ref_axis',(3.32651093520647E-16,-1.,0.));
#1475=DIRECTION('',(0.,0.,-1.));
#1476=DIRECTION('',(3.32651093520647E-16,-1.,0.));
#1477=DIRECTION('center_axis',(0.,-1.,0.));
#1478=DIRECTION('ref_axis',(0.,0.,1.));
#1479=DIRECTION('',(-0.707106781186548,0.,-0.707106781186547));
#1480=DIRECTION('',(1.,0.,0.));
#1481=DIRECTION('',(1.,0.,0.));
#1482=DIRECTION('',(1.,0.,0.));
#1483=DIRECTION('',(1.,0.,0.));
#1484=DIRECTION('',(1.,0.,0.));
#1485=DIRECTION('',(1.,0.,0.));
#1486=DIRECTION('',(-0.707106781186549,0.,-0.707106781186546));
#1487=DIRECTION('',(0.,0.,-1.));
#1488=DIRECTION('',(0.707106781186542,0.,-0.707106781186553));
#1489=DIRECTION('',(1.,0.,0.));
#1490=DIRECTION('',(0.707106781186548,0.,-0.707106781186548));
#1491=DIRECTION('',(0.,0.,1.));
#1492=DIRECTION('',(0.707106781186543,0.,-0.707106781186552));
#1493=DIRECTION('',(1.,0.,0.));
#1494=DIRECTION('',(0.707106781186544,0.,0.707106781186551));
#1495=DIRECTION('',(0.,0.,-1.));
#1496=DIRECTION('',(0.707106781186563,0.,0.707106781186532));
#1497=DIRECTION('',(-1.,0.,0.));
#1498=DIRECTION('',(0.707106781186541,0.,0.707106781186554));
#1499=DIRECTION('',(0.,0.,1.));
#1500=DIRECTION('',(-0.707106781186548,0.,0.707106781186548));
#1501=DIRECTION('',(-1.,0.,0.));
#1502=DIRECTION('',(-0.707106932120983,0.,0.70710663025208));
#1503=DIRECTION('center_axis',(0.,-1.,0.));
#1504=DIRECTION('ref_axis',(1.,0.,0.));
#1505=DIRECTION('center_axis',(0.,-1.,0.));
#1506=DIRECTION('ref_axis',(1.,0.,0.));
#1507=DIRECTION('center_axis',(0.,-1.,0.));
#1508=DIRECTION('ref_axis',(1.,0.,0.));
#1509=DIRECTION('center_axis',(0.,1.,0.));
#1510=DIRECTION('ref_axis',(-1.,0.,0.));
#1511=DIRECTION('center_axis',(0.,1.,0.));
#1512=DIRECTION('ref_axis',(-1.,0.,0.));
#1513=DIRECTION('center_axis',(0.,1.,0.));
#1514=DIRECTION('ref_axis',(-1.,0.,0.));
#1515=DIRECTION('',(-1.,0.,0.));
#1516=DIRECTION('',(-0.707106781186551,0.,0.707106781186544));
#1517=DIRECTION('',(0.,0.,1.));
#1518=DIRECTION('',(0.707106781186549,0.,0.707106781186546));
#1519=DIRECTION('',(1.,0.,0.));
#1520=DIRECTION('',(0.707106781186548,0.,-0.707106781186548));
#1521=DIRECTION('',(0.,0.,-1.));
#1522=DIRECTION('',(-0.707106781186548,0.,-0.707106781186548));
#1523=DIRECTION('center_axis',(0.,1.,0.));
#1524=DIRECTION('ref_axis',(-1.,0.,0.));
#1525=DIRECTION('center_axis',(0.,1.,0.));
#1526=DIRECTION('ref_axis',(-1.,0.,0.));
#1527=DIRECTION('center_axis',(0.,1.,0.));
#1528=DIRECTION('ref_axis',(-1.,0.,0.));
#1529=DIRECTION('center_axis',(-1.,-3.32651093520647E-16,0.));
#1530=DIRECTION('ref_axis',(3.32651093520647E-16,-1.,0.));
#1531=DIRECTION('',(-3.32651093520647E-16,1.,0.));
#1532=DIRECTION('',(3.32651093520647E-16,-1.,0.));
#1533=DIRECTION('center_axis',(1.,-8.31627733801615E-17,0.));
#1534=DIRECTION('ref_axis',(8.31627733801615E-17,1.,0.));
#1535=DIRECTION('',(-8.31627733801615E-17,-1.,0.));
#1536=DIRECTION('',(8.31627733801615E-17,1.,0.));
#1537=DIRECTION('center_axis',(0.707106781186554,0.707106781186541,0.));
#1538=DIRECTION('ref_axis',(0.,0.,-1.));
#1539=DIRECTION('',(0.678598344545823,-0.678598344545847,-0.281084637714877));
#1540=DIRECTION('',(0.,0.,-1.));
#1541=DIRECTION('',(0.678598344545848,-0.67859834454586,0.281084637714786));
#1542=DIRECTION('center_axis',(0.499999999999992,0.70710678118656,-0.499999999999992));
#1543=DIRECTION('ref_axis',(-0.707106781186547,0.,-0.707106781186547));
#1544=DIRECTION('',(0.281084637714835,-0.678598344545832,-0.678598344545856));
#1545=DIRECTION('',(-0.707106781186548,0.,-0.707106781186548));
#1546=DIRECTION('center_axis',(0.,0.70710678118656,-0.707106781186535));
#1547=DIRECTION('ref_axis',(-1.,0.,0.));
#1548=DIRECTION('',(-0.281084637714807,-0.678598344545838,-0.678598344545862));
#1549=DIRECTION('',(-1.,0.,0.));
#1550=DIRECTION('center_axis',(-0.499999999999992,0.707106781186555,-0.499999999999997));
#1551=DIRECTION('ref_axis',(-0.707106781186551,0.,0.707106781186544));
#1552=DIRECTION('',(-0.678598344545834,-0.678598344545846,-0.281084637714853));
#1553=DIRECTION('',(-0.707106781186551,0.,0.707106781186544));
#1554=DIRECTION('center_axis',(-0.707106781186554,0.707106781186541,0.));
#1555=DIRECTION('ref_axis',(0.,0.,1.));
#1556=DIRECTION('',(-0.67859834454584,-0.678598344545858,0.281084637714809));
#1557=DIRECTION('',(0.,0.,1.));
#1558=DIRECTION('center_axis',(-0.500000000000014,0.707106781186526,0.500000000000016));
#1559=DIRECTION('ref_axis',(0.707106781186549,0.,0.707106781186546));
#1560=DIRECTION('',(0.707106781186549,0.,0.707106781186546));
#1561=DIRECTION('',(-0.281084637714774,-0.678598344545845,0.678598344545869));
#1562=DIRECTION('center_axis',(0.,0.70710678118656,0.707106781186535));
#1563=DIRECTION('ref_axis',(1.,0.,0.));
#1564=DIRECTION('',(1.,0.,0.));
#1565=DIRECTION('',(0.281084637714735,-0.678598344545853,0.678598344545877));
#1566=DIRECTION('center_axis',(0.500000000000017,0.707106781186524,0.500000000000017));
#1567=DIRECTION('ref_axis',(0.707106781186548,0.,-0.707106781186548));
#1568=DIRECTION('',(0.707106781186548,0.,-0.707106781186548));
#1569=DIRECTION('center_axis',(-0.707106781186546,0.,0.707106781186549));
#1570=DIRECTION('ref_axis',(0.707106781186549,0.,0.707106781186546));
#1571=DIRECTION('',(0.,-1.,0.));
#1572=DIRECTION('',(-0.707106781186549,0.,-0.707106781186546));
#1573=DIRECTION('',(0.,1.,0.));
#1574=DIRECTION('center_axis',(0.,0.,-1.));
#1575=DIRECTION('ref_axis',(-1.,0.,0.));
#1576=DIRECTION('',(0.,1.,0.));
#1577=DIRECTION('',(-1.,0.,0.));
#1578=DIRECTION('center_axis',(0.707106781186548,0.,0.707106781186548));
#1579=DIRECTION('ref_axis',(0.707106781186548,0.,-0.707106781186548));
#1580=DIRECTION('',(0.,-1.,0.));
#1581=DIRECTION('',(-0.707106781186548,0.,0.707106781186548));
#1582=DIRECTION('center_axis',(-1.,0.,0.));
#1583=DIRECTION('ref_axis',(0.,0.,1.));
#1584=DIRECTION('',(0.,1.,0.));
#1585=DIRECTION('',(0.,0.,1.));
#1586=DIRECTION('center_axis',(0.,-0.707106781186535,-0.70710678118656));
#1587=DIRECTION('ref_axis',(-1.,0.,0.));
#1588=DIRECTION('',(0.281084637714855,0.678598344545852,-0.678598344545828));
#1589=DIRECTION('',(1.,0.,0.));
#1590=DIRECTION('',(-0.281084637714844,0.678598344545854,-0.67859834454583));
#1591=DIRECTION('center_axis',(0.500000000000001,-0.707106781186546,-0.500000000000001));
#1592=DIRECTION('ref_axis',(-0.707106781186548,0.,-0.707106781186548));
#1593=DIRECTION('',(0.678598344545834,0.678598344545846,-0.281084637714853));
#1594=DIRECTION('',(0.707106781186548,0.,0.707106781186548));
#1595=DIRECTION('center_axis',(0.707106781186554,-0.707106781186541,0.));
#1596=DIRECTION('ref_axis',(0.,0.,-1.));
#1597=DIRECTION('',(0.678598344545828,0.678598344545852,0.281084637714855));
#1598=DIRECTION('center_axis',(0.500000000000002,-0.707106781186544,0.500000000000002));
#1599=DIRECTION('ref_axis',(0.707106781186548,0.,-0.707106781186548));
#1600=DIRECTION('',(0.281084637714855,0.678598344545852,0.678598344545828));
#1601=DIRECTION('center_axis',(0.,-0.707106781186535,0.70710678118656));
#1602=DIRECTION('ref_axis',(1.,0.,0.));
#1603=DIRECTION('',(-0.281084637714788,0.678598344545866,0.678598344545842));
#1604=DIRECTION('center_axis',(-0.500000000000017,-0.707106781186522,0.500000000000019));
#1605=DIRECTION('ref_axis',(0.707106781186549,0.,0.707106781186546));
#1606=DIRECTION('',(-0.678598344545848,0.67859834454586,0.281084637714786));
#1607=DIRECTION('center_axis',(-0.707106781186554,-0.707106781186541,0.));
#1608=DIRECTION('ref_axis',(0.,0.,1.));
#1609=DIRECTION('',(0.,0.,-1.));
#1610=DIRECTION('',(-0.678598344545839,0.678598344545851,-0.28108463771483));
#1611=DIRECTION('center_axis',(-0.500000000000003,-0.707106781186541,-0.500000000000007));
#1612=DIRECTION('ref_axis',(-0.707106781186551,0.,0.707106781186544));
#1613=DIRECTION('',(0.707106781186551,0.,-0.707106781186544));
#1614=DIRECTION('center_axis',(1.,0.,0.));
#1615=DIRECTION('ref_axis',(0.,0.,-1.));
#1616=DIRECTION('',(0.,-1.,0.));
#1617=DIRECTION('center_axis',(-0.707106781186544,0.,-0.707106781186551));
#1618=DIRECTION('ref_axis',(-0.707106781186551,0.,0.707106781186544));
#1619=DIRECTION('',(0.,1.,0.));
#1620=DIRECTION('center_axis',(0.,0.,1.));
#1621=DIRECTION('ref_axis',(1.,0.,0.));
#1622=DIRECTION('',(0.,-1.,0.));
#1623=DIRECTION('center_axis',(0.707106781186548,0.,-0.707106781186548));
#1624=DIRECTION('ref_axis',(-0.707106781186548,0.,-0.707106781186548));
#1625=DIRECTION('center_axis',(-0.70710663025208,-2.35219793789054E-16,
-0.707106932120983));
#1626=DIRECTION('ref_axis',(-0.707106932120983,0.,0.70710663025208));
#1627=DIRECTION('',(-3.32651093520647E-16,1.,0.));
#1628=DIRECTION('center_axis',(0.707106781186547,-5.88049609993923E-17,
-0.707106781186548));
#1629=DIRECTION('ref_axis',(-0.707106781186548,0.,-0.707106781186547));
#1630=DIRECTION('',(-8.31627733801615E-17,-1.,0.));
#1631=DIRECTION('center_axis',(0.707106781186548,-5.88049609993923E-17,
0.707106781186548));
#1632=DIRECTION('ref_axis',(0.707106781186548,0.,-0.707106781186548));
#1633=DIRECTION('',(8.31627733801615E-17,1.,0.));
#1634=DIRECTION('center_axis',(-0.707106781186532,-2.35219843997565E-16,
0.707106781186563));
#1635=DIRECTION('ref_axis',(0.707106781186563,0.,0.707106781186532));
#1636=DIRECTION('',(3.32651093520647E-16,-1.,0.));
#1637=DIRECTION('center_axis',(1.,0.,0.));
#1638=DIRECTION('ref_axis',(0.,0.,-1.));
#1639=DIRECTION('',(0.,-1.,0.));
#1640=DIRECTION('',(0.,1.,0.));
#1641=DIRECTION('center_axis',(0.707106781186553,0.,0.707106781186542));
#1642=DIRECTION('ref_axis',(0.707106781186542,0.,-0.707106781186553));
#1643=DIRECTION('',(0.,-1.,0.));
#1644=DIRECTION('center_axis',(0.707106781186546,0.,-0.707106781186549));
#1645=DIRECTION('ref_axis',(-0.707106781186549,0.,-0.707106781186546));
#1646=DIRECTION('',(0.,1.,0.));
#1647=DIRECTION('center_axis',(-1.40413563392937E-9,-1.,0.));
#1648=DIRECTION('ref_axis',(-1.,1.40413563392937E-9,0.));
#1649=DIRECTION('',(-1.40413563392937E-9,-1.,0.));
#1650=DIRECTION('center_axis',(-1.40413563392937E-9,-1.,0.));
#1651=DIRECTION('ref_axis',(-1.,1.40413563392937E-9,0.));
#1652=DIRECTION('',(-1.40413563392937E-9,-1.,0.));
#1653=DIRECTION('center_axis',(-1.40413563392937E-9,-1.,0.));
#1654=DIRECTION('ref_axis',(-1.,1.40413563392937E-9,0.));
#1655=DIRECTION('',(-1.40413563392937E-9,-1.,0.));
#1656=DIRECTION('center_axis',(0.,0.,1.));
#1657=DIRECTION('ref_axis',(0.,-1.,0.));
#1658=DIRECTION('center_axis',(0.,0.,1.));
#1659=DIRECTION('ref_axis',(1.,0.,0.));
#1660=DIRECTION('center_axis',(0.,0.,1.));
#1661=DIRECTION('ref_axis',(0.,1.,0.));
#1662=DIRECTION('',(0.,1.,0.));
#1663=DIRECTION('center_axis',(-1.,0.,0.));
#1664=DIRECTION('ref_axis',(0.,0.,1.));
#1665=DIRECTION('',(0.,-1.,0.));
#1666=DIRECTION('',(0.,1.,0.));
#1667=DIRECTION('center_axis',(0.,0.,-1.));
#1668=DIRECTION('ref_axis',(0.,-1.,0.));
#1669=DIRECTION('',(0.,-1.,0.));
#1670=DIRECTION('center_axis',(-0.707106781186548,0.,-0.707106781186548));
#1671=DIRECTION('ref_axis',(-0.707106781186548,0.,0.707106781186548));
#1672=DIRECTION('center_axis',(-0.707106781186554,0.,0.707106781186541));
#1673=DIRECTION('ref_axis',(0.707106781186541,0.,0.707106781186554));
#1674=DIRECTION('center_axis',(-1.40413558916231E-9,-1.,0.));
#1675=DIRECTION('ref_axis',(-1.,1.40413558916231E-9,0.));
#1676=DIRECTION('',(-1.40413558916231E-9,-1.,0.));
#1677=DIRECTION('center_axis',(-1.40413558916231E-9,-1.,0.));
#1678=DIRECTION('ref_axis',(-1.,1.40413558916231E-9,0.));
#1679=DIRECTION('',(-1.40413558916231E-9,-1.,0.));
#1680=DIRECTION('center_axis',(-1.40413558916231E-9,-1.,0.));
#1681=DIRECTION('ref_axis',(-1.,1.40413558916231E-9,0.));
#1682=DIRECTION('',(-1.40413558916231E-9,-1.,0.));
#1683=DIRECTION('center_axis',(0.,0.,1.));
#1684=DIRECTION('ref_axis',(1.,0.,0.));
#1685=DIRECTION('',(-8.31627733801615E-17,-1.,0.));
#1686=DIRECTION('',(-3.32651093520647E-16,1.,0.));
#1687=DIRECTION('center_axis',(-0.707106781186551,-2.35219843997571E-16,
0.707106781186544));
#1688=DIRECTION('ref_axis',(0.707106781186544,0.,0.707106781186551));
#1689=DIRECTION('center_axis',(0.707106781186552,-5.88049609993927E-17,
0.707106781186543));
#1690=DIRECTION('ref_axis',(0.707106781186543,0.,-0.707106781186552));
#1691=DIRECTION('center_axis',(1.40413558916231E-9,1.,0.));
#1692=DIRECTION('ref_axis',(1.,-1.40413558916231E-9,0.));
#1693=DIRECTION('',(1.40413558916231E-9,1.,0.));
#1694=DIRECTION('center_axis',(1.40413558916231E-9,1.,0.));
#1695=DIRECTION('ref_axis',(1.,-1.40413558916231E-9,0.));
#1696=DIRECTION('',(1.40413558916231E-9,1.,0.));
#1697=DIRECTION('center_axis',(1.40413558916231E-9,1.,0.));
#1698=DIRECTION('ref_axis',(1.,-1.40413558916231E-9,0.));
#1699=DIRECTION('',(1.40413558916231E-9,1.,0.));
#1700=DIRECTION('',(0.,0.,1.));
#1701=DIRECTION('',(1.,0.,0.));
#1702=CARTESIAN_POINT('',(0.,0.,0.));
#1703=CARTESIAN_POINT('',(0.,0.,0.));
#1704=CARTESIAN_POINT('Origin',(-29.94,160.85,127.981729985377));
#1705=CARTESIAN_POINT('',(-43.94,140.000002086163,127.981729985377));
#1706=CARTESIAN_POINT('',(-43.94,134.9,127.981729985377));
#1707=CARTESIAN_POINT('',(-43.94,163.775,127.981729985377));
#1708=CARTESIAN_POINT('',(-15.94,140.000002086163,127.981729985377));
#1709=CARTESIAN_POINT('',(-22.44,140.000002086163,127.981729985377));
#1710=CARTESIAN_POINT('',(-15.94,134.9,127.981729985377));
#1711=CARTESIAN_POINT('',(-15.94,150.425,127.981729985377));
#1712=CARTESIAN_POINT('',(-16.55,134.9,127.981729985377));
#1713=CARTESIAN_POINT('Origin',(-15.44,150.425,128.481729985377));
#1714=CARTESIAN_POINT('',(-14.94,134.8999969523,128.981729985377));
#1715=CARTESIAN_POINT('',(-12.3774999999999,134.9,131.544229985377));
#1716=CARTESIAN_POINT('',(-14.94,140.000002086163,128.981729985377));
#1717=CARTESIAN_POINT('',(4.6495681928345,140.000002533197,148.571298178211));
#1718=CARTESIAN_POINT('',(-14.94,150.425,128.981729985377));
#1719=CARTESIAN_POINT('Origin',(-44.44,163.775,128.481729985377));
#1720=CARTESIAN_POINT('',(-44.94,140.000002533197,128.981729985377));
#1721=CARTESIAN_POINT('',(-49.8595681928345,140.000002533197,133.901298178211));
#1722=CARTESIAN_POINT('',(-44.94,134.9,128.981729985377));
#1723=CARTESIAN_POINT('',(-32.8325,134.9,116.874229985377));
#1724=CARTESIAN_POINT('',(-44.94,163.775,128.981729985377));
#1725=CARTESIAN_POINT('Origin',(-19.94,134.900000037797,131.981729985377));
#1726=CARTESIAN_POINT('',(-21.99,134.9,131.981729985377));
#1727=CARTESIAN_POINT('Origin',(-19.94,134.9,131.981729985377));
#1728=CARTESIAN_POINT('',(-21.9899999928389,140.000002533197,131.981729985377));
#1729=CARTESIAN_POINT('',(-21.99,134.900000040675,131.981729985377));
#1730=CARTESIAN_POINT('Origin',(-19.9399999928389,140.000002533197,131.981729985377));
#1731=CARTESIAN_POINT('Origin',(-29.94,134.900000051838,131.981729985377));
#1732=CARTESIAN_POINT('',(-31.99,134.9,131.981729985377));
#1733=CARTESIAN_POINT('Origin',(-29.94,134.9,131.981729985377));
#1734=CARTESIAN_POINT('',(-31.9899999928389,140.000002533197,131.981729985377));
#1735=CARTESIAN_POINT('',(-31.99,134.900000054716,131.981729985377));
#1736=CARTESIAN_POINT('Origin',(-29.9399999928389,140.000002533197,131.981729985377));
#1737=CARTESIAN_POINT('Origin',(-39.94,134.900000065879,131.981729985377));
#1738=CARTESIAN_POINT('',(-41.99,134.9,131.981729985377));
#1739=CARTESIAN_POINT('Origin',(-39.94,134.9,131.981729985377));
#1740=CARTESIAN_POINT('',(-41.9899999928389,140.000002533197,131.981729985377));
#1741=CARTESIAN_POINT('',(-41.99,134.900000068758,131.981729985377));
#1742=CARTESIAN_POINT('Origin',(-39.9399999928389,140.000002533197,131.981729985377));
#1743=CARTESIAN_POINT('Origin',(-14.94,140.,178.981729985377));
#1744=CARTESIAN_POINT('',(-14.94,140.000002533197,141.89174162591));
#1745=CARTESIAN_POINT('',(-14.94,140.000002086163,155.740865938912));
#1746=CARTESIAN_POINT('',(-14.94,134.9,141.89174162591));
#1747=CARTESIAN_POINT('',(-14.94,153.35,141.89174162591));
#1748=CARTESIAN_POINT('',(-14.94,134.899999678521,140.635443014192));
#1749=CARTESIAN_POINT('',(-14.94,134.8999969523,132.481729985377));
#1750=CARTESIAN_POINT('',(-14.94,134.899999678521,138.635443014192));
#1751=CARTESIAN_POINT('',(-14.94,134.899999678521,138.635443014192));
#1752=CARTESIAN_POINT('',(-14.94,134.8999969523,131.481729985377));
#1753=CARTESIAN_POINT('Origin',(0.899999999999981,140.000002533197,195.000002756715));
#1754=CARTESIAN_POINT('',(-44.94,140.000002533197,141.891729985378));
#1755=CARTESIAN_POINT('',(-44.94,140.000002533197,163.740866371046));
#1756=CARTESIAN_POINT('',(-49.9400021345355,140.000002533197,146.891729985377));
#1757=CARTESIAN_POINT('',(-48.3820639942018,140.000002533197,145.333792510138));
#1758=CARTESIAN_POINT('',(-57.1917483759117,140.000002533198,146.891729985377));
#1759=CARTESIAN_POINT('',(-27.6850005336339,140.000002533197,146.891729985377));
#1760=CARTESIAN_POINT('',(-59.1917483759117,140.000002533198,146.891729985377));
#1761=CARTESIAN_POINT('',(-57.1917483759117,140.000002533198,146.891729985377));
#1762=CARTESIAN_POINT('',(-67.0999985560775,140.000002533197,146.891729985377));
#1763=CARTESIAN_POINT('',(-28.6850005336339,140.000002533197,146.891729985377));
#1764=CARTESIAN_POINT('',(-68.1,140.000002533197,147.891729985377));
#1765=CARTESIAN_POINT('',(-63.0020671098925,140.000002533197,142.793798539192));
#1766=CARTESIAN_POINT('',(-68.1,140.000002533197,175.891729985377));
#1767=CARTESIAN_POINT('',(-68.1,140.000002533197,177.97293456388));
#1768=CARTESIAN_POINT('',(-67.0999985560775,140.000002533197,176.891729985377));
#1769=CARTESIAN_POINT('',(-46.447930724224,140.000002533197,197.543797817231));
#1770=CARTESIAN_POINT('',(-49.94,140.000002533197,176.891729985377));
#1771=CARTESIAN_POINT('',(-30.5350002682209,140.000002533197,176.891729985377));
#1772=CARTESIAN_POINT('',(-44.94,140.000002533197,181.891729985377));
#1773=CARTESIAN_POINT('',(-31.827931807165,140.000002533197,195.003798178211));
#1774=CARTESIAN_POINT('',(-44.94,140.000002533197,193.981729985377));
#1775=CARTESIAN_POINT('',(-44.94,140.000002533197,181.731729985377));
#1776=CARTESIAN_POINT('',(-43.94,140.000002533197,194.981729985377));
#1777=CARTESIAN_POINT('',(-32.7254318071656,140.000002533197,206.196298178211));
#1778=CARTESIAN_POINT('',(-15.94,140.000002533197,194.981729985377));
#1779=CARTESIAN_POINT('',(-22.4400031332993,140.000002533197,194.981729985377));
#1780=CARTESIAN_POINT('',(-14.94,140.000002533197,193.981729985377));
#1781=CARTESIAN_POINT('',(-12.4845681928345,140.000002533197,191.526298178211));
#1782=CARTESIAN_POINT('',(-14.94,140.000002533197,181.891729985377));
#1783=CARTESIAN_POINT('',(-14.94,140.000002533197,184.231729985377));
#1784=CARTESIAN_POINT('',(-9.93999999999997,140.000002533197,176.891729985377));
#1785=CARTESIAN_POINT('',(-13.3820681928345,140.000002533197,180.333798178211));
#1786=CARTESIAN_POINT('',(4.39999999999998,140.000002533197,176.891729985377));
#1787=CARTESIAN_POINT('',(-2.43631602061112,140.000002533197,176.891729985377));
#1788=CARTESIAN_POINT('',(5.39999999999998,140.000002086163,175.891729985377));
#1789=CARTESIAN_POINT('',(-0.502068192834496,140.000002533197,181.793798178211));
#1790=CARTESIAN_POINT('',(5.39999999999998,140.000002086163,147.89174162591));
#1791=CARTESIAN_POINT('',(5.39999999999998,140.000002086163,147.000002041459));
#1792=CARTESIAN_POINT('',(4.39999999999998,140.000002533197,146.89174162591));
#1793=CARTESIAN_POINT('',(16.0520652827011,140.000002533197,158.543806908611));
#1794=CARTESIAN_POINT('',(-9.93999999999998,140.000002533197,146.89174162591));
#1795=CARTESIAN_POINT('',(-7.77,140.000002533197,146.89174162591));
#1796=CARTESIAN_POINT('',(3.17206528270116,140.000002533197,160.003806908611));
#1797=CARTESIAN_POINT('',(-21.9899999928389,140.000002533197,190.981729985377));
#1798=CARTESIAN_POINT('Origin',(-19.9399999928389,140.000002533197,190.981729985377));
#1799=CARTESIAN_POINT('',(-31.9899999928389,140.000002533197,190.981729985377));
#1800=CARTESIAN_POINT('Origin',(-29.9399999928389,140.000002533197,190.981729985377));
#1801=CARTESIAN_POINT('',(-41.9899999928389,140.000002533197,190.981729985377));
#1802=CARTESIAN_POINT('Origin',(-39.9399999928389,140.000002533197,190.981729985377));
#1803=CARTESIAN_POINT('',(3.44999999999998,140.000002533197,161.891729985377));
#1804=CARTESIAN_POINT('Origin',(1.39999999999998,140.000002533197,161.891729985377));
#1805=CARTESIAN_POINT('',(3.44999999999999,140.000002533197,171.891729985377));
#1806=CARTESIAN_POINT('Origin',(1.39999999999998,140.000002533197,171.891729985377));
#1807=CARTESIAN_POINT('',(3.44999999999998,140.000002533197,151.891735805644));
#1808=CARTESIAN_POINT('Origin',(1.39999999999998,140.000002533197,151.891735805644));
#1809=CARTESIAN_POINT('',(-55.6000000000001,140.000002533197,155.514736289443));
#1810=CARTESIAN_POINT('',(-55.6000000000001,140.000002533197,164.507109090867));
#1811=CARTESIAN_POINT('',(-55.6000000000001,140.000002533197,174.860922913672));
#1812=CARTESIAN_POINT('',(-54.3071067811865,140.000002533197,154.221843070629));
#1813=CARTESIAN_POINT('',(-51.3980933121147,140.000002533197,151.312829601557));
#1814=CARTESIAN_POINT('',(-39.2928932188135,140.000002533197,154.221843070629));
#1815=CARTESIAN_POINT('',(-19.55,140.000002533197,154.221843070629));
#1816=CARTESIAN_POINT('',(-38.,140.000002533197,155.514736289443));
#1817=CARTESIAN_POINT('',(-19.1019066878853,140.000002533197,174.412829601557));
#1818=CARTESIAN_POINT('',(-38.,140.000002533197,164.507109090867));
#1819=CARTESIAN_POINT('',(-38.,140.000002533197,180.150002533197));
#1820=CARTESIAN_POINT('',(-39.2928932188135,140.000002533197,165.80000230968));
#1821=CARTESIAN_POINT('',(-36.5964467211654,140.000002533197,163.103555812032));
#1822=CARTESIAN_POINT('',(-54.3071067811866,140.000002533197,165.80000230968));
#1823=CARTESIAN_POINT('',(-27.85,140.000002533197,165.80000230968));
#1824=CARTESIAN_POINT('',(-33.9035532788346,140.000002533197,186.203555812032));
#1825=CARTESIAN_POINT('',(-62.05,140.000002533197,161.891729985377));
#1826=CARTESIAN_POINT('Origin',(-64.1,140.000002533197,161.891729985377));
#1827=CARTESIAN_POINT('',(-62.05,140.000002533197,171.891724165111));
#1828=CARTESIAN_POINT('Origin',(-64.1,140.000002533197,171.891724165111));
#1829=CARTESIAN_POINT('',(-62.05,140.000002533197,151.891729985377));
#1830=CARTESIAN_POINT('Origin',(-64.1,140.000002533197,151.891729985377));
#1831=CARTESIAN_POINT('Origin',(-44.94,166.7,178.981729985377));
#1832=CARTESIAN_POINT('',(-44.94,134.9,141.891729985378));
#1833=CARTESIAN_POINT('',(-44.94,134.9,131.481729985377));
#1834=CARTESIAN_POINT('',(-44.94,150.8,141.891729985378));
#1835=CARTESIAN_POINT('Origin',(0.899999999999981,134.9,126.891729985377));
#1836=CARTESIAN_POINT('',(-9.93999999999998,134.9,146.89174162591));
#1837=CARTESIAN_POINT('',(-13.8550029101333,134.9,142.976738715777));
#1838=CARTESIAN_POINT('',(-5.10000000000002,134.8999969523,146.89174162591));
#1839=CARTESIAN_POINT('',(-7.77,134.9,146.89174162591));
#1840=CARTESIAN_POINT('',(-5.0200000000001,134.8999969523,146.891729985377));
#1841=CARTESIAN_POINT('',(-7.77,134.8999969523,146.891729985377));
#1842=CARTESIAN_POINT('',(-1.5200000000001,134.8999969523,146.891729985377));
#1843=CARTESIAN_POINT('',(-5.0200000000001,134.8999969523,146.891729985377));
#1844=CARTESIAN_POINT('',(-1.0200000000001,134.8999969523,146.891729985377));
#1845=CARTESIAN_POINT('',(-5.27,134.8999969523,146.891729985377));
#1846=CARTESIAN_POINT('',(3.39999999999998,134.8999969523,146.891729985377));
#1847=CARTESIAN_POINT('',(-5.27,134.8999969523,146.891729985377));
#1848=CARTESIAN_POINT('',(4.39999999999998,134.9,146.89174162591));
#1849=CARTESIAN_POINT('',(-5.27,134.9,146.89174162591));
#1850=CARTESIAN_POINT('',(5.39999993517995,134.9,147.89174162591));
#1851=CARTESIAN_POINT('',(-0.975002910133308,134.9,141.516738715777));
#1852=CARTESIAN_POINT('',(5.39999993517995,134.9,175.891729985377));
#1853=CARTESIAN_POINT('',(5.39999993517995,134.9,176.891729985377));
#1854=CARTESIAN_POINT('',(4.39999999999998,134.9,176.891729985377));
#1855=CARTESIAN_POINT('',(16.5249999999999,134.9,164.766729985377));
#1856=CARTESIAN_POINT('',(-9.93999999999998,134.9,176.891729985377));
#1857=CARTESIAN_POINT('',(0.063683979388881,134.9,176.891729985377));
#1858=CARTESIAN_POINT('',(-14.94,134.9,181.891729985377));
#1859=CARTESIAN_POINT('',(3.64499999999996,134.9,163.306729985377));
#1860=CARTESIAN_POINT('',(-14.94,134.9,193.981729985377));
#1861=CARTESIAN_POINT('',(-14.94,134.9,191.481729985377));
#1862=CARTESIAN_POINT('',(-15.94,134.9,194.981729985377));
#1863=CARTESIAN_POINT('',(4.54249999999992,134.9,174.499229985377));
#1864=CARTESIAN_POINT('',(-43.94,134.9,194.981729985377));
#1865=CARTESIAN_POINT('',(-14.94,134.9,194.981729985377));
#1866=CARTESIAN_POINT('',(-44.94,134.9,193.981729985377));
#1867=CARTESIAN_POINT('',(-49.7525000000001,134.9,189.169229985377));
#1868=CARTESIAN_POINT('',(-44.94,134.9,181.891729985377));
#1869=CARTESIAN_POINT('',(-44.94,134.9,160.436729985377));
#1870=CARTESIAN_POINT('',(-49.94,134.9,176.891729985377));
#1871=CARTESIAN_POINT('',(-48.8549999999995,134.9,177.976729985378));
#1872=CARTESIAN_POINT('',(-67.0999985560775,134.89999698475,176.891729985377));
#1873=CARTESIAN_POINT('',(-60.0999986790121,134.89999698475,176.891729985377));
#1874=CARTESIAN_POINT('',(-68.0999985560775,134.89999698475,175.891729985377));
#1875=CARTESIAN_POINT('',(-63.4749989170584,134.9,180.516729624396));
#1876=CARTESIAN_POINT('',(-68.0999985560775,134.89999698475,147.891729985377));
#1877=CARTESIAN_POINT('',(-68.0999985560775,134.89999698475,176.891729985377));
#1878=CARTESIAN_POINT('',(-67.0999985560775,134.89999698475,146.891729985377));
#1879=CARTESIAN_POINT('',(-45.9749989170581,134.9,125.766730346358));
#1880=CARTESIAN_POINT('',(-49.9400021345355,134.9,146.891729985377));
#1881=CARTESIAN_POINT('',(-33.5999992780388,134.89999698475,146.891729985377));
#1882=CARTESIAN_POINT('',(-31.3549958013689,134.9,128.30673158628));
#1883=CARTESIAN_POINT('',(-31.99,134.9,190.981729985377));
#1884=CARTESIAN_POINT('Origin',(-29.94,134.9,190.981729985377));
#1885=CARTESIAN_POINT('',(-41.99,134.9,190.981729985377));
#1886=CARTESIAN_POINT('Origin',(-39.94,134.9,190.981729985377));
#1887=CARTESIAN_POINT('',(-21.99,134.9,190.981729985377));
#1888=CARTESIAN_POINT('Origin',(-19.94,134.9,190.981729985377));
#1889=CARTESIAN_POINT('',(-62.0500000071611,134.9,161.891729985377));
#1890=CARTESIAN_POINT('Origin',(-64.1000000071611,134.9,161.891729985377));
#1891=CARTESIAN_POINT('',(-62.0500000071611,134.9,171.891724165111));
#1892=CARTESIAN_POINT('Origin',(-64.1000000071611,134.9,171.891724165111));
#1893=CARTESIAN_POINT('',(-62.050000007161,134.9,151.891729985377));
#1894=CARTESIAN_POINT('Origin',(-64.1000000071611,134.9,151.891729985377));
#1895=CARTESIAN_POINT('',(-39.2928932188135,134.9,165.80000230968));
#1896=CARTESIAN_POINT('',(-54.3071067811866,134.9,165.80000230968));
#1897=CARTESIAN_POINT('',(-27.85,134.9,165.80000230968));
#1898=CARTESIAN_POINT('',(-38.,134.9,164.507109090867));
#1899=CARTESIAN_POINT('',(-19.569378528331,134.9,146.076487619198));
#1900=CARTESIAN_POINT('',(-38.,134.9,155.514736289443));
#1901=CARTESIAN_POINT('',(-38.,134.9,146.095866147529));
#1902=CARTESIAN_POINT('',(-39.2928932188135,134.9,154.221843070629));
#1903=CARTESIAN_POINT('',(-36.1289748807197,134.9,157.385761408723));
#1904=CARTESIAN_POINT('',(-54.3071067811866,134.9,154.221843070629));
#1905=CARTESIAN_POINT('',(-19.55,134.9,154.221843070629));
#1906=CARTESIAN_POINT('',(-55.6,134.9,155.514736289443));
#1907=CARTESIAN_POINT('',(-34.3710251192803,134.9,134.285761408723));
#1908=CARTESIAN_POINT('',(-55.6000000000001,134.9,164.507109090867));
#1909=CARTESIAN_POINT('',(-55.6000000000001,134.9,140.806786528003));
#1910=CARTESIAN_POINT('',(-50.930621471669,134.9,169.176487619198));
#1911=CARTESIAN_POINT('',(3.4499999928389,134.9,171.891729985377));
#1912=CARTESIAN_POINT('Origin',(1.39999999283889,134.9,171.891729985377));
#1913=CARTESIAN_POINT('',(3.44999999283889,134.9,161.891729985377));
#1914=CARTESIAN_POINT('Origin',(1.39999999283889,134.9,161.891729985377));
#1915=CARTESIAN_POINT('',(3.44999999283889,134.9,151.891735805644));
#1916=CARTESIAN_POINT('Origin',(1.39999999283889,134.9,151.891735805644));
#1917=CARTESIAN_POINT('Origin',(-44.94,166.7,178.981729985377));
#1918=CARTESIAN_POINT('',(-44.94,135.8,181.891729985377));
#1919=CARTESIAN_POINT('',(-44.94,154.55,193.981729985377));
#1920=CARTESIAN_POINT('Origin',(-14.94,140.,178.981729985377));
#1921=CARTESIAN_POINT('',(-14.94,131.212847415883,181.891729985377));
#1922=CARTESIAN_POINT('',(-14.94,141.2,193.981729985377));
#1923=CARTESIAN_POINT('Origin',(-55.3500000000001,139.750002533197,174.860922913672));
#1924=CARTESIAN_POINT('',(-55.1000000000001,139.500002533197,164.30000230968));
#1925=CARTESIAN_POINT('',(-55.6,140.000002533197,164.507109090867));
#1926=CARTESIAN_POINT('',(-55.1000000000001,139.500002533197,155.721843070629));
#1927=CARTESIAN_POINT('',(-55.1000000000001,139.500002533197,174.860922913672));
#1928=CARTESIAN_POINT('',(-55.6000000000001,140.000002533197,155.514736289443));
#1929=CARTESIAN_POINT('Origin',(-33.726776583538,139.750002533197,186.026779116735));
#1930=CARTESIAN_POINT('',(-54.1000000000001,139.500002533197,165.30000230968));
#1931=CARTESIAN_POINT('',(-54.3071067811866,140.000002533197,165.80000230968));
#1932=CARTESIAN_POINT('',(-33.5499998882413,139.500002533197,185.850002421439));
#1933=CARTESIAN_POINT('Origin',(-27.85,139.750002533197,165.55000230968));
#1934=CARTESIAN_POINT('',(-39.5,139.500002533197,165.30000230968));
#1935=CARTESIAN_POINT('',(-39.2928932188135,140.000002533197,165.80000230968));
#1936=CARTESIAN_POINT('',(-27.85,139.500002533197,165.30000230968));
#1937=CARTESIAN_POINT('Origin',(-36.773223416462,139.750002533197,162.926779116735));
#1938=CARTESIAN_POINT('',(-38.5,139.500002533197,164.30000230968));
#1939=CARTESIAN_POINT('',(-38.,140.000002533197,164.507109090867));
#1940=CARTESIAN_POINT('',(-36.9500001117587,139.500002533197,162.750002421439));
#1941=CARTESIAN_POINT('Origin',(-38.25,139.750002533197,180.150002533197));
#1942=CARTESIAN_POINT('',(-38.5,139.500002533197,155.721843070629));
#1943=CARTESIAN_POINT('',(-38.,140.000002533197,155.514736289443));
#1944=CARTESIAN_POINT('',(-38.5,139.500002533197,180.150002533197));
#1945=CARTESIAN_POINT('Origin',(-19.2786833831819,139.750002533197,174.589606296854));
#1946=CARTESIAN_POINT('',(-39.5,139.500002533197,154.721843070629));
#1947=CARTESIAN_POINT('',(-19.4554600784786,139.500002533197,174.766382992151));
#1948=CARTESIAN_POINT('',(-39.2928932188135,140.000002533197,154.221843070629));
#1949=CARTESIAN_POINT('Origin',(-19.55,139.750002533197,154.471843070629));
#1950=CARTESIAN_POINT('',(-54.1000000000001,139.500002533197,154.721843070629));
#1951=CARTESIAN_POINT('',(-19.55,139.500002533197,154.721843070629));
#1952=CARTESIAN_POINT('',(-54.3071067811865,140.000002533197,154.221843070629));
#1953=CARTESIAN_POINT('Origin',(-51.2213166168181,139.750002533197,151.489606296854));
#1954=CARTESIAN_POINT('',(-51.0445399215215,139.500002533197,151.666382992151));
#1955=CARTESIAN_POINT('Origin',(-39.,124.000001847744,155.221843070629));
#1956=CARTESIAN_POINT('',(-39.5,135.4,154.721843070629));
#1957=CARTESIAN_POINT('',(-39.5,124.000001847744,154.721843070629));
#1958=CARTESIAN_POINT('',(-38.5,135.4,155.721843070629));
#1959=CARTESIAN_POINT('',(-36.482528271313,135.4,157.739314799316));
#1960=CARTESIAN_POINT('',(-38.5,124.000001847744,155.721843070629));
#1961=CARTESIAN_POINT('Origin',(-38.5,124.000001847744,154.721843070629));
#1962=CARTESIAN_POINT('',(-54.1000000000001,135.4,154.721843070629));
#1963=CARTESIAN_POINT('',(-54.1000000000001,124.000001847744,154.721843070629));
#1964=CARTESIAN_POINT('',(-19.55,135.4,154.721843070629));
#1965=CARTESIAN_POINT('Origin',(-54.6000000000001,124.000001847744,155.221843070629));
#1966=CARTESIAN_POINT('',(-55.1000000000001,135.4,155.721843070629));
#1967=CARTESIAN_POINT('',(-55.1000000000001,124.000001847744,155.721843070629));
#1968=CARTESIAN_POINT('',(-34.017471728687,135.4,134.639314799316));
#1969=CARTESIAN_POINT('Origin',(-55.1000000000001,124.000001847744,154.721843070629));
#1970=CARTESIAN_POINT('',(-55.1000000000001,135.4,164.30000230968));
#1971=CARTESIAN_POINT('',(-55.1000000000001,124.000001847744,164.30000230968));
#1972=CARTESIAN_POINT('',(-55.1000000000001,135.4,140.806786528003));
#1973=CARTESIAN_POINT('Origin',(-27.85,135.15,165.55000230968));
#1974=CARTESIAN_POINT('',(-54.1000000000001,135.4,165.30000230968));
#1975=CARTESIAN_POINT('',(-54.3071067811866,134.9,165.80000230968));
#1976=CARTESIAN_POINT('',(-39.5,135.4,165.30000230968));
#1977=CARTESIAN_POINT('',(-27.85,135.4,165.30000230968));
#1978=CARTESIAN_POINT('',(-39.2928932188135,134.9,165.80000230968));
#1979=CARTESIAN_POINT('Origin',(-50.7538447763724,135.15,168.999710923901));
#1980=CARTESIAN_POINT('',(-55.6000000000001,134.9,164.507109090867));
#1981=CARTESIAN_POINT('',(-50.5770680810758,135.4,168.822934228604));
#1982=CARTESIAN_POINT('Origin',(-55.3500000000001,135.15,140.806786528003));
#1983=CARTESIAN_POINT('',(-55.6,134.9,155.514736289443));
#1984=CARTESIAN_POINT('Origin',(-34.1942484239837,135.15,134.462538104019));
#1985=CARTESIAN_POINT('',(-54.3071067811866,134.9,154.221843070629));
#1986=CARTESIAN_POINT('Origin',(-19.55,135.15,154.471843070629));
#1987=CARTESIAN_POINT('',(-39.2928932188135,134.9,154.221843070629));
#1988=CARTESIAN_POINT('Origin',(-36.3057515760164,135.15,157.56253810402));
#1989=CARTESIAN_POINT('',(-38.,134.9,155.514736289443));
#1990=CARTESIAN_POINT('Origin',(-38.25,135.15,146.095866147529));
#1991=CARTESIAN_POINT('',(-38.5,135.4,164.30000230968));
#1992=CARTESIAN_POINT('',(-38.5,135.4,146.095866147529));
#1993=CARTESIAN_POINT('',(-38.,134.9,164.507109090867));
#1994=CARTESIAN_POINT('Origin',(-19.7461552236276,135.15,145.899710923901));
#1995=CARTESIAN_POINT('',(-19.9229319189242,135.4,145.722934228604));
#1996=CARTESIAN_POINT('Origin',(-38.5,124.000001847744,165.30000230968));
#1997=CARTESIAN_POINT('',(-38.5,124.000001847744,164.30000230968));
#1998=CARTESIAN_POINT('Origin',(-39.,124.000001847744,164.80000230968));
#1999=CARTESIAN_POINT('',(-39.5,124.000001847744,165.30000230968));
#2000=CARTESIAN_POINT('Origin',(-55.1000000000001,124.000001847744,165.30000230968));
#2001=CARTESIAN_POINT('',(-54.1000000000001,124.000001847744,165.30000230968));
#2002=CARTESIAN_POINT('Origin',(-54.6000000000001,124.000001847744,164.80000230968));
#2003=CARTESIAN_POINT('Origin',(-47.4400010672677,150.8,144.391729985377));
#2004=CARTESIAN_POINT('',(-49.9400021345355,150.8,146.891729985377));
#2005=CARTESIAN_POINT('Origin',(-12.44,153.35,144.39174162591));
#2006=CARTESIAN_POINT('',(-9.93999999999997,153.35,146.89174162591));
#2007=CARTESIAN_POINT('Origin',(-12.44,131.212847415883,179.391729985377));
#2008=CARTESIAN_POINT('',(-9.93999999999998,131.212847415883,176.891729985377));
#2009=CARTESIAN_POINT('Origin',(-47.44,135.8,179.391729985377));
#2010=CARTESIAN_POINT('',(-49.94,135.8,176.891729985377));
#2011=CARTESIAN_POINT('Origin',(5.39999999999998,132.483768080364,161.945866013418));
#2012=CARTESIAN_POINT('',(5.39999999999998,149.591884040182,147.89174162591));
#2013=CARTESIAN_POINT('',(5.39999999999998,127.454731456065,175.891729985377));
#2014=CARTESIAN_POINT('Origin',(4.89999999999998,127.454731456065,176.391729985377));
#2015=CARTESIAN_POINT('',(4.39999999999998,127.454731456065,176.891729985377));
#2016=CARTESIAN_POINT('Origin',(4.89999999999998,149.591884040182,147.39174162591));
#2017=CARTESIAN_POINT('',(4.39999999999998,149.591884040182,146.89174162591));
#2018=CARTESIAN_POINT('Origin',(1.39999999999998,140.00000254454,151.891735805644));
#2019=CARTESIAN_POINT('',(3.44999999999998,140.000002541661,151.891735805644));
#2020=CARTESIAN_POINT('Origin',(1.39999999999998,140.00000254454,161.891729985377));
#2021=CARTESIAN_POINT('',(3.44999999999998,140.000002541661,161.891729985377));
#2022=CARTESIAN_POINT('Origin',(1.39999999999998,140.00000254454,171.891729985377));
#2023=CARTESIAN_POINT('',(3.45,140.000002541661,171.891729985377));
#2024=CARTESIAN_POINT('Origin',(-12.44,166.7,146.89174162591));
#2025=CARTESIAN_POINT('Origin',(-1.77263204122222,122.425694831766,176.891729985377));
#2026=CARTESIAN_POINT('Origin',(-1.60000000000002,104.9,176.891729985377));
#2027=CARTESIAN_POINT('',(-67.0999985560775,128.675000633299,176.891729985377));
#2028=CARTESIAN_POINT('Origin',(-68.0999985560775,152.450001266599,160.945866371046));
#2029=CARTESIAN_POINT('',(-68.0999985560775,128.675000633299,175.891729985377));
#2030=CARTESIAN_POINT('',(-68.0999985560775,143.675000633299,147.891729985377));
#2031=CARTESIAN_POINT('Origin',(-1.60000000000002,134.9,146.891729985377));
#2032=CARTESIAN_POINT('',(-67.0999985560775,143.675000633299,146.891729985377));
#2033=CARTESIAN_POINT('Origin',(-67.5999985560775,143.675000633299,147.391729985377));
#2034=CARTESIAN_POINT('Origin',(-67.5999985560775,128.675000633299,176.391729985377));
#2035=CARTESIAN_POINT('Origin',(-64.1,140.000002631596,151.891729985377));
#2036=CARTESIAN_POINT('',(-62.0499999999999,140.000002628718,151.891729985377));
#2037=CARTESIAN_POINT('Origin',(-64.1,140.000002631596,171.891724165111));
#2038=CARTESIAN_POINT('',(-62.05,140.000002628718,171.891724165111));
#2039=CARTESIAN_POINT('Origin',(-64.1,140.000002631596,161.891729985377));
#2040=CARTESIAN_POINT('',(-62.05,140.000002628718,161.891729985377));
#2041=CARTESIAN_POINT('Origin',(-29.9400062665987,142.4,194.981729985377));
#2042=CARTESIAN_POINT('',(-15.94,141.2,194.981729985377));
#2043=CARTESIAN_POINT('',(-43.94,154.55,194.981729985377));
#2044=CARTESIAN_POINT('Origin',(-44.44,154.55,194.481729985377));
#2045=CARTESIAN_POINT('Origin',(-15.44,141.2,194.481729985377));
#2046=CARTESIAN_POINT('Origin',(-19.94,134.900000037797,190.981729985377));
#2047=CARTESIAN_POINT('',(-21.99,134.900000040675,190.981729985377));
#2048=CARTESIAN_POINT('Origin',(-29.94,134.900000051838,190.981729985377));
#2049=CARTESIAN_POINT('',(-31.99,134.900000054716,190.981729985377));
#2050=CARTESIAN_POINT('Origin',(-39.94,134.900000065879,190.981729985377));
#2051=CARTESIAN_POINT('',(-41.99,134.900000068758,190.981729985377));
#2052=CARTESIAN_POINT('',(0.,0.,0.));
#2053=UNCERTAINTY_MEASURE_WITH_UNIT(LENGTH_MEASURE(0.01),#2059,
'DISTANCE_ACCURACY_VALUE',
'Maximum model space distance between geometric entities at asserted c
onnectivities');
#2054=UNCERTAINTY_MEASURE_WITH_UNIT(LENGTH_MEASURE(0.01),#2059,
'DISTANCE_ACCURACY_VALUE',
'Maximum model space distance between geometric entities at asserted c
onnectivities');
#2055=UNCERTAINTY_MEASURE_WITH_UNIT(LENGTH_MEASURE(0.01),#2059,
'DISTANCE_ACCURACY_VALUE',
'Maximum model space distance between geometric entities at asserted c
onnectivities');
#2056=(
GEOMETRIC_REPRESENTATION_CONTEXT(3)
GLOBAL_UNCERTAINTY_ASSIGNED_CONTEXT((#2053))
GLOBAL_UNIT_ASSIGNED_CONTEXT((#2059,#2061,#2062))
REPRESENTATION_CONTEXT('','3D')
);
#2057=(
GEOMETRIC_REPRESENTATION_CONTEXT(3)
GLOBAL_UNCERTAINTY_ASSIGNED_CONTEXT((#2054))
GLOBAL_UNIT_ASSIGNED_CONTEXT((#2059,#2061,#2062))
REPRESENTATION_CONTEXT('','3D')
);
#2058=(
GEOMETRIC_REPRESENTATION_CONTEXT(3)
GLOBAL_UNCERTAINTY_ASSIGNED_CONTEXT((#2055))
GLOBAL_UNIT_ASSIGNED_CONTEXT((#2059,#2061,#2062))
REPRESENTATION_CONTEXT('','3D')
);
#2059=(
LENGTH_UNIT()
NAMED_UNIT(*)
SI_UNIT(.MILLI.,.METRE.)
);
#2060=(
LENGTH_UNIT()
NAMED_UNIT(*)
SI_UNIT($,.METRE.)
);
#2061=(
NAMED_UNIT(*)
PLANE_ANGLE_UNIT()
SI_UNIT($,.RADIAN.)
);
#2062=(
NAMED_UNIT(*)
SI_UNIT($,.STERADIAN.)
SOLID_ANGLE_UNIT()
);
#2063=SHAPE_DEFINITION_REPRESENTATION(#2065,#2068);
#2064=SHAPE_DEFINITION_REPRESENTATION(#2066,#2069);
#2065=PRODUCT_DEFINITION_SHAPE('',$,#2071);
#2066=PRODUCT_DEFINITION_SHAPE('',$,#2072);
#2067=PRODUCT_DEFINITION_SHAPE($,$,#14);
#2068=SHAPE_REPRESENTATION('',(#1286,#1374),#2056);
#2069=SHAPE_REPRESENTATION('',(#1287),#2057);
#2070=PRODUCT_DEFINITION_CONTEXT('part definition',#2078,'design');
#2071=PRODUCT_DEFINITION('Leg V1','Leg V1 v22',#2073,#2070);
#2072=PRODUCT_DEFINITION('Upper Leg conector','Upper Leg conector',#2074,
#2070);
#2073=PRODUCT_DEFINITION_FORMATION('',$,#2080);
#2074=PRODUCT_DEFINITION_FORMATION('',$,#2081);
#2075=PRODUCT_RELATED_PRODUCT_CATEGORY('Leg V1 v22','Leg V1 v22',(#2080));
#2076=PRODUCT_RELATED_PRODUCT_CATEGORY('Upper Leg conector',
'Upper Leg conector',(#2081));
#2077=APPLICATION_PROTOCOL_DEFINITION('international standard',
'automotive_design',2009,#2078);
#2078=APPLICATION_CONTEXT(
'Core Data for Automotive Mechanical Design Process');
#2079=PRODUCT_CONTEXT('part definition',#2078,'mechanical');
#2080=PRODUCT('Leg V1','Leg V1 v22',$,(#2079));
#2081=PRODUCT('Upper Leg conector','Upper Leg conector',$,(#2079));
#2082=PRESENTATION_STYLE_ASSIGNMENT((#2084));
#2083=PRESENTATION_STYLE_ASSIGNMENT((#2085));
#2084=SURFACE_STYLE_USAGE(.BOTH.,#2086);
#2085=SURFACE_STYLE_USAGE(.BOTH.,#2087);
#2086=SURFACE_SIDE_STYLE('',(#2088));
#2087=SURFACE_SIDE_STYLE('',(#2089));
#2088=SURFACE_STYLE_FILL_AREA(#2090);
#2089=SURFACE_STYLE_FILL_AREA(#2091);
#2090=FILL_AREA_STYLE('Steel - Satin',(#2092));
#2091=FILL_AREA_STYLE('ABS (White)',(#2093));
#2092=FILL_AREA_STYLE_COLOUR('Steel - Satin',#2094);
#2093=FILL_AREA_STYLE_COLOUR('ABS (White)',#2095);
#2094=COLOUR_RGB('Steel - Satin',0.627450980392157,0.627450980392157,0.627450980392157);
#2095=COLOUR_RGB('ABS (White)',0.964705882352941,0.964705882352941,0.952941176470588);
ENDSEC;
END-ISO-10303-21;
