ISO-10303-21;
HEADER;
/* Generated by software containing ST-Developer
 * from STEP Tools, Inc. (www.steptools.com) 
 */

FILE_DESCRIPTION(
/* description */ (''),
/* implementation_level */ '2;1');

FILE_NAME(
/* name */ 'Upper Leg lower hoop left.step',
/* time_stamp */ '2025-09-30T07:46:48+02:00',
/* author */ (''),
/* organization */ (''),
/* preprocessor_version */ 'ST-DEVELOPER v20.1',
/* originating_system */ 'Autodesk Translation Framework v14.17.0.0',
/* authorisation */ '');

FILE_SCHEMA (('AUTOMOTIVE_DESIGN { 1 0 10303 214 3 1 1 }'));
ENDSEC;

DATA;
#10=MECHANICAL_DESIGN_GEOMETRIC_PRESENTATION_REPRESENTATION('',(#17),#659);
#11=ITEM_DEFINED_TRANSFORMATION($,$,#400,#435);
#12=(
REPRESENTATION_RELATIONSHIP($,$,#670,#669)
REPRESENTATION_RELATIONSHIP_WITH_TRANSFORMATION(#11)
SHAPE_REPRESENTATION_RELATIONSHIP()
);
#13=CONTEXT_DEPENDENT_SHAPE_REPRESENTATION(#12,#668);
#14=NEXT_ASSEMBLY_USAGE_OCCURRENCE('Upper Leg lower hoop left:1',
'Upper Leg lower hoop left:1','Upper Leg lower hoop left:1',#672,#673,
'Upper Leg lower hoop left:1');
#15=SHAPE_REPRESENTATION_RELATIONSHIP('SRR','None',#670,#16);
#16=ADVANCED_BREP_SHAPE_REPRESENTATION('',(#18),#658);
#17=STYLED_ITEM('',(#684),#18);
#18=MANIFOLD_SOLID_BREP('Body1',#386);
#19=CONICAL_SURFACE('',#420,14.5,0.785398163397447);
#20=FACE_BOUND('',#76,.T.);
#21=FACE_BOUND('',#77,.T.);
#22=FACE_BOUND('',#78,.T.);
#23=FACE_BOUND('',#86,.T.);
#24=FACE_BOUND('',#89,.T.);
#25=PLANE('',#404);
#26=PLANE('',#408);
#27=PLANE('',#412);
#28=PLANE('',#413);
#29=PLANE('',#414);
#30=PLANE('',#415);
#31=PLANE('',#416);
#32=PLANE('',#417);
#33=PLANE('',#418);
#34=PLANE('',#419);
#35=PLANE('',#423);
#36=PLANE('',#424);
#37=PLANE('',#425);
#38=PLANE('',#426);
#39=PLANE('',#428);
#40=PLANE('',#429);
#41=PLANE('',#432);
#42=FACE_OUTER_BOUND('',#65,.T.);
#43=FACE_OUTER_BOUND('',#66,.T.);
#44=FACE_OUTER_BOUND('',#67,.T.);
#45=FACE_OUTER_BOUND('',#68,.T.);
#46=FACE_OUTER_BOUND('',#69,.T.);
#47=FACE_OUTER_BOUND('',#70,.T.);
#48=FACE_OUTER_BOUND('',#71,.T.);
#49=FACE_OUTER_BOUND('',#72,.T.);
#50=FACE_OUTER_BOUND('',#73,.T.);
#51=FACE_OUTER_BOUND('',#74,.T.);
#52=FACE_OUTER_BOUND('',#75,.T.);
#53=FACE_OUTER_BOUND('',#79,.T.);
#54=FACE_OUTER_BOUND('',#80,.T.);
#55=FACE_OUTER_BOUND('',#81,.T.);
#56=FACE_OUTER_BOUND('',#82,.T.);
#57=FACE_OUTER_BOUND('',#83,.T.);
#58=FACE_OUTER_BOUND('',#84,.T.);
#59=FACE_OUTER_BOUND('',#85,.T.);
#60=FACE_OUTER_BOUND('',#87,.T.);
#61=FACE_OUTER_BOUND('',#88,.T.);
#62=FACE_OUTER_BOUND('',#90,.T.);
#63=FACE_OUTER_BOUND('',#91,.T.);
#64=FACE_OUTER_BOUND('',#92,.T.);
#65=EDGE_LOOP('',(#260,#261,#262,#263));
#66=EDGE_LOOP('',(#264));
#67=EDGE_LOOP('',(#265,#266,#267,#268));
#68=EDGE_LOOP('',(#269));
#69=EDGE_LOOP('',(#270,#271,#272,#273));
#70=EDGE_LOOP('',(#274));
#71=EDGE_LOOP('',(#275,#276,#277,#278));
#72=EDGE_LOOP('',(#279,#280,#281,#282,#283,#284));
#73=EDGE_LOOP('',(#285,#286,#287,#288));
#74=EDGE_LOOP('',(#289,#290,#291,#292));
#75=EDGE_LOOP('',(#293,#294,#295,#296,#297,#298));
#76=EDGE_LOOP('',(#299));
#77=EDGE_LOOP('',(#300));
#78=EDGE_LOOP('',(#301));
#79=EDGE_LOOP('',(#302,#303,#304,#305));
#80=EDGE_LOOP('',(#306,#307,#308,#309));
#81=EDGE_LOOP('',(#310,#311,#312,#313));
#82=EDGE_LOOP('',(#314,#315,#316,#317));
#83=EDGE_LOOP('',(#318,#319,#320,#321));
#84=EDGE_LOOP('',(#322,#323,#324,#325));
#85=EDGE_LOOP('',(#326,#327,#328,#329,#330));
#86=EDGE_LOOP('',(#331));
#87=EDGE_LOOP('',(#332,#333,#334,#335,#336,#337));
#88=EDGE_LOOP('',(#338,#339,#340,#341,#342));
#89=EDGE_LOOP('',(#343));
#90=EDGE_LOOP('',(#344,#345,#346,#347,#348,#349));
#91=EDGE_LOOP('',(#350,#351,#352,#353));
#92=EDGE_LOOP('',(#354,#355,#356,#357));
#93=LINE('',#554,#131);
#94=LINE('',#561,#132);
#95=LINE('',#568,#133);
#96=LINE('',#574,#134);
#97=LINE('',#576,#135);
#98=LINE('',#578,#136);
#99=LINE('',#579,#137);
#100=LINE('',#582,#138);
#101=LINE('',#584,#139);
#102=LINE('',#586,#140);
#103=LINE('',#588,#141);
#104=LINE('',#589,#142);
#105=LINE('',#593,#143);
#106=LINE('',#594,#144);
#107=LINE('',#595,#145);
#108=LINE('',#597,#146);
#109=LINE('',#600,#147);
#110=LINE('',#602,#148);
#111=LINE('',#604,#149);
#112=LINE('',#605,#150);
#113=LINE('',#608,#151);
#114=LINE('',#609,#152);
#115=LINE('',#612,#153);
#116=LINE('',#613,#154);
#117=LINE('',#617,#155);
#118=LINE('',#621,#156);
#119=LINE('',#624,#157);
#120=LINE('',#626,#158);
#121=LINE('',#627,#159);
#122=LINE('',#630,#160);
#123=LINE('',#631,#161);
#124=LINE('',#633,#162);
#125=LINE('',#635,#163);
#126=LINE('',#640,#164);
#127=LINE('',#641,#165);
#128=LINE('',#645,#166);
#129=LINE('',#649,#167);
#130=LINE('',#652,#168);
#131=VECTOR('',#444,2.05);
#132=VECTOR('',#453,2.05);
#133=VECTOR('',#462,2.05000000000001);
#134=VECTOR('',#469,10.);
#135=VECTOR('',#470,10.);
#136=VECTOR('',#471,10.);
#137=VECTOR('',#472,10.);
#138=VECTOR('',#475,10.);
#139=VECTOR('',#476,10.);
#140=VECTOR('',#477,10.);
#141=VECTOR('',#478,10.);
#142=VECTOR('',#479,10.);
#143=VECTOR('',#482,10.);
#144=VECTOR('',#483,10.);
#145=VECTOR('',#484,10.);
#146=VECTOR('',#487,10.);
#147=VECTOR('',#490,10.);
#148=VECTOR('',#491,10.);
#149=VECTOR('',#492,10.);
#150=VECTOR('',#493,10.);
#151=VECTOR('',#496,10.);
#152=VECTOR('',#497,10.);
#153=VECTOR('',#500,10.);
#154=VECTOR('',#501,10.);
#155=VECTOR('',#504,10.);
#156=VECTOR('',#507,10.);
#157=VECTOR('',#512,10.);
#158=VECTOR('',#513,10.);
#159=VECTOR('',#514,10.);
#160=VECTOR('',#517,10.);
#161=VECTOR('',#518,10.);
#162=VECTOR('',#521,10.);
#163=VECTOR('',#524,10.);
#164=VECTOR('',#529,10.);
#165=VECTOR('',#530,10.);
#166=VECTOR('',#535,10.);
#167=VECTOR('',#540,10.);
#168=VECTOR('',#545,8.00000000000001);
#169=CIRCLE('',#402,2.05);
#170=CIRCLE('',#403,2.05);
#171=CIRCLE('',#406,2.05);
#172=CIRCLE('',#407,2.05);
#173=CIRCLE('',#410,2.05000000000001);
#174=CIRCLE('',#411,2.05000000000001);
#175=CIRCLE('',#421,15.);
#176=CIRCLE('',#422,14.);
#177=CIRCLE('',#427,8.00000000000001);
#178=CIRCLE('',#430,15.);
#179=CIRCLE('',#431,8.00000000000001);
#180=VERTEX_POINT('',#551);
#181=VERTEX_POINT('',#553);
#182=VERTEX_POINT('',#558);
#183=VERTEX_POINT('',#560);
#184=VERTEX_POINT('',#565);
#185=VERTEX_POINT('',#567);
#186=VERTEX_POINT('',#572);
#187=VERTEX_POINT('',#573);
#188=VERTEX_POINT('',#575);
#189=VERTEX_POINT('',#577);
#190=VERTEX_POINT('',#581);
#191=VERTEX_POINT('',#583);
#192=VERTEX_POINT('',#585);
#193=VERTEX_POINT('',#587);
#194=VERTEX_POINT('',#591);
#195=VERTEX_POINT('',#592);
#196=VERTEX_POINT('',#599);
#197=VERTEX_POINT('',#601);
#198=VERTEX_POINT('',#603);
#199=VERTEX_POINT('',#607);
#200=VERTEX_POINT('',#611);
#201=VERTEX_POINT('',#615);
#202=VERTEX_POINT('',#616);
#203=VERTEX_POINT('',#618);
#204=VERTEX_POINT('',#620);
#205=VERTEX_POINT('',#625);
#206=VERTEX_POINT('',#629);
#207=VERTEX_POINT('',#636);
#208=VERTEX_POINT('',#639);
#209=VERTEX_POINT('',#643);
#210=VERTEX_POINT('',#646);
#211=EDGE_CURVE('',#180,#180,#169,.T.);
#212=EDGE_CURVE('',#180,#181,#93,.T.);
#213=EDGE_CURVE('',#181,#181,#170,.T.);
#214=EDGE_CURVE('',#182,#182,#171,.T.);
#215=EDGE_CURVE('',#182,#183,#94,.T.);
#216=EDGE_CURVE('',#183,#183,#172,.T.);
#217=EDGE_CURVE('',#184,#184,#173,.T.);
#218=EDGE_CURVE('',#184,#185,#95,.T.);
#219=EDGE_CURVE('',#185,#185,#174,.T.);
#220=EDGE_CURVE('',#186,#187,#96,.T.);
#221=EDGE_CURVE('',#187,#188,#97,.T.);
#222=EDGE_CURVE('',#188,#189,#98,.F.);
#223=EDGE_CURVE('',#189,#186,#99,.T.);
#224=EDGE_CURVE('',#190,#189,#100,.T.);
#225=EDGE_CURVE('',#191,#190,#101,.T.);
#226=EDGE_CURVE('',#192,#191,#102,.T.);
#227=EDGE_CURVE('',#192,#193,#103,.T.);
#228=EDGE_CURVE('',#193,#186,#104,.T.);
#229=EDGE_CURVE('',#194,#195,#105,.T.);
#230=EDGE_CURVE('',#195,#191,#106,.T.);
#231=EDGE_CURVE('',#190,#194,#107,.T.);
#232=EDGE_CURVE('',#188,#194,#108,.T.);
#233=EDGE_CURVE('',#195,#196,#109,.T.);
#234=EDGE_CURVE('',#197,#196,#110,.T.);
#235=EDGE_CURVE('',#197,#198,#111,.T.);
#236=EDGE_CURVE('',#198,#192,#112,.T.);
#237=EDGE_CURVE('',#194,#199,#113,.T.);
#238=EDGE_CURVE('',#196,#199,#114,.T.);
#239=EDGE_CURVE('',#200,#188,#115,.T.);
#240=EDGE_CURVE('',#199,#200,#116,.T.);
#241=EDGE_CURVE('',#201,#202,#117,.F.);
#242=EDGE_CURVE('',#202,#203,#175,.T.);
#243=EDGE_CURVE('',#203,#204,#118,.T.);
#244=EDGE_CURVE('',#204,#201,#176,.T.);
#245=EDGE_CURVE('',#200,#204,#119,.T.);
#246=EDGE_CURVE('',#203,#205,#120,.T.);
#247=EDGE_CURVE('',#205,#200,#121,.T.);
#248=EDGE_CURVE('',#206,#197,#122,.T.);
#249=EDGE_CURVE('',#199,#206,#123,.T.);
#250=EDGE_CURVE('',#205,#206,#124,.T.);
#251=EDGE_CURVE('',#201,#187,#125,.T.);
#252=EDGE_CURVE('',#207,#207,#177,.T.);
#253=EDGE_CURVE('',#203,#208,#126,.T.);
#254=EDGE_CURVE('',#208,#198,#127,.T.);
#255=EDGE_CURVE('',#209,#208,#178,.T.);
#256=EDGE_CURVE('',#209,#193,#128,.T.);
#257=EDGE_CURVE('',#210,#210,#179,.T.);
#258=EDGE_CURVE('',#202,#209,#129,.T.);
#259=EDGE_CURVE('',#210,#207,#130,.T.);
#260=ORIENTED_EDGE('',*,*,#211,.F.);
#261=ORIENTED_EDGE('',*,*,#212,.T.);
#262=ORIENTED_EDGE('',*,*,#213,.T.);
#263=ORIENTED_EDGE('',*,*,#212,.F.);
#264=ORIENTED_EDGE('',*,*,#213,.F.);
#265=ORIENTED_EDGE('',*,*,#214,.F.);
#266=ORIENTED_EDGE('',*,*,#215,.T.);
#267=ORIENTED_EDGE('',*,*,#216,.T.);
#268=ORIENTED_EDGE('',*,*,#215,.F.);
#269=ORIENTED_EDGE('',*,*,#216,.F.);
#270=ORIENTED_EDGE('',*,*,#217,.F.);
#271=ORIENTED_EDGE('',*,*,#218,.T.);
#272=ORIENTED_EDGE('',*,*,#219,.T.);
#273=ORIENTED_EDGE('',*,*,#218,.F.);
#274=ORIENTED_EDGE('',*,*,#219,.F.);
#275=ORIENTED_EDGE('',*,*,#220,.T.);
#276=ORIENTED_EDGE('',*,*,#221,.T.);
#277=ORIENTED_EDGE('',*,*,#222,.T.);
#278=ORIENTED_EDGE('',*,*,#223,.T.);
#279=ORIENTED_EDGE('',*,*,#223,.F.);
#280=ORIENTED_EDGE('',*,*,#224,.F.);
#281=ORIENTED_EDGE('',*,*,#225,.F.);
#282=ORIENTED_EDGE('',*,*,#226,.F.);
#283=ORIENTED_EDGE('',*,*,#227,.T.);
#284=ORIENTED_EDGE('',*,*,#228,.T.);
#285=ORIENTED_EDGE('',*,*,#229,.T.);
#286=ORIENTED_EDGE('',*,*,#230,.T.);
#287=ORIENTED_EDGE('',*,*,#225,.T.);
#288=ORIENTED_EDGE('',*,*,#231,.T.);
#289=ORIENTED_EDGE('',*,*,#224,.T.);
#290=ORIENTED_EDGE('',*,*,#222,.F.);
#291=ORIENTED_EDGE('',*,*,#232,.T.);
#292=ORIENTED_EDGE('',*,*,#231,.F.);
#293=ORIENTED_EDGE('',*,*,#230,.F.);
#294=ORIENTED_EDGE('',*,*,#233,.T.);
#295=ORIENTED_EDGE('',*,*,#234,.F.);
#296=ORIENTED_EDGE('',*,*,#235,.T.);
#297=ORIENTED_EDGE('',*,*,#236,.T.);
#298=ORIENTED_EDGE('',*,*,#226,.T.);
#299=ORIENTED_EDGE('',*,*,#211,.T.);
#300=ORIENTED_EDGE('',*,*,#214,.T.);
#301=ORIENTED_EDGE('',*,*,#217,.T.);
#302=ORIENTED_EDGE('',*,*,#229,.F.);
#303=ORIENTED_EDGE('',*,*,#237,.T.);
#304=ORIENTED_EDGE('',*,*,#238,.F.);
#305=ORIENTED_EDGE('',*,*,#233,.F.);
#306=ORIENTED_EDGE('',*,*,#232,.F.);
#307=ORIENTED_EDGE('',*,*,#239,.F.);
#308=ORIENTED_EDGE('',*,*,#240,.F.);
#309=ORIENTED_EDGE('',*,*,#237,.F.);
#310=ORIENTED_EDGE('',*,*,#241,.T.);
#311=ORIENTED_EDGE('',*,*,#242,.T.);
#312=ORIENTED_EDGE('',*,*,#243,.T.);
#313=ORIENTED_EDGE('',*,*,#244,.T.);
#314=ORIENTED_EDGE('',*,*,#245,.T.);
#315=ORIENTED_EDGE('',*,*,#243,.F.);
#316=ORIENTED_EDGE('',*,*,#246,.T.);
#317=ORIENTED_EDGE('',*,*,#247,.T.);
#318=ORIENTED_EDGE('',*,*,#248,.T.);
#319=ORIENTED_EDGE('',*,*,#234,.T.);
#320=ORIENTED_EDGE('',*,*,#238,.T.);
#321=ORIENTED_EDGE('',*,*,#249,.T.);
#322=ORIENTED_EDGE('',*,*,#250,.T.);
#323=ORIENTED_EDGE('',*,*,#249,.F.);
#324=ORIENTED_EDGE('',*,*,#240,.T.);
#325=ORIENTED_EDGE('',*,*,#247,.F.);
#326=ORIENTED_EDGE('',*,*,#221,.F.);
#327=ORIENTED_EDGE('',*,*,#251,.F.);
#328=ORIENTED_EDGE('',*,*,#244,.F.);
#329=ORIENTED_EDGE('',*,*,#245,.F.);
#330=ORIENTED_EDGE('',*,*,#239,.T.);
#331=ORIENTED_EDGE('',*,*,#252,.T.);
#332=ORIENTED_EDGE('',*,*,#246,.F.);
#333=ORIENTED_EDGE('',*,*,#253,.T.);
#334=ORIENTED_EDGE('',*,*,#254,.T.);
#335=ORIENTED_EDGE('',*,*,#235,.F.);
#336=ORIENTED_EDGE('',*,*,#248,.F.);
#337=ORIENTED_EDGE('',*,*,#250,.F.);
#338=ORIENTED_EDGE('',*,*,#254,.F.);
#339=ORIENTED_EDGE('',*,*,#255,.F.);
#340=ORIENTED_EDGE('',*,*,#256,.T.);
#341=ORIENTED_EDGE('',*,*,#227,.F.);
#342=ORIENTED_EDGE('',*,*,#236,.F.);
#343=ORIENTED_EDGE('',*,*,#257,.F.);
#344=ORIENTED_EDGE('',*,*,#220,.F.);
#345=ORIENTED_EDGE('',*,*,#228,.F.);
#346=ORIENTED_EDGE('',*,*,#256,.F.);
#347=ORIENTED_EDGE('',*,*,#258,.F.);
#348=ORIENTED_EDGE('',*,*,#241,.F.);
#349=ORIENTED_EDGE('',*,*,#251,.T.);
#350=ORIENTED_EDGE('',*,*,#242,.F.);
#351=ORIENTED_EDGE('',*,*,#258,.T.);
#352=ORIENTED_EDGE('',*,*,#255,.T.);
#353=ORIENTED_EDGE('',*,*,#253,.F.);
#354=ORIENTED_EDGE('',*,*,#257,.T.);
#355=ORIENTED_EDGE('',*,*,#259,.T.);
#356=ORIENTED_EDGE('',*,*,#252,.F.);
#357=ORIENTED_EDGE('',*,*,#259,.F.);
#358=CYLINDRICAL_SURFACE('',#401,2.05);
#359=CYLINDRICAL_SURFACE('',#405,2.05);
#360=CYLINDRICAL_SURFACE('',#409,2.05000000000001);
#361=CYLINDRICAL_SURFACE('',#433,15.);
#362=CYLINDRICAL_SURFACE('',#434,8.00000000000001);
#363=ADVANCED_FACE('',(#42),#358,.F.);
#364=ADVANCED_FACE('',(#43),#25,.T.);
#365=ADVANCED_FACE('',(#44),#359,.F.);
#366=ADVANCED_FACE('',(#45),#26,.T.);
#367=ADVANCED_FACE('',(#46),#360,.F.);
#368=ADVANCED_FACE('',(#47),#27,.T.);
#369=ADVANCED_FACE('',(#48),#28,.T.);
#370=ADVANCED_FACE('',(#49),#29,.T.);
#371=ADVANCED_FACE('',(#50),#30,.T.);
#372=ADVANCED_FACE('',(#51),#31,.T.);
#373=ADVANCED_FACE('',(#52,#20,#21,#22),#32,.F.);
#374=ADVANCED_FACE('',(#53),#33,.T.);
#375=ADVANCED_FACE('',(#54),#34,.T.);
#376=ADVANCED_FACE('',(#55),#19,.T.);
#377=ADVANCED_FACE('',(#56),#35,.T.);
#378=ADVANCED_FACE('',(#57),#36,.T.);
#379=ADVANCED_FACE('',(#58),#37,.T.);
#380=ADVANCED_FACE('',(#59,#23),#38,.T.);
#381=ADVANCED_FACE('',(#60),#39,.T.);
#382=ADVANCED_FACE('',(#61,#24),#40,.T.);
#383=ADVANCED_FACE('',(#62),#41,.T.);
#384=ADVANCED_FACE('',(#63),#361,.T.);
#385=ADVANCED_FACE('',(#64),#362,.F.);
#386=CLOSED_SHELL('',(#363,#364,#365,#366,#367,#368,#369,#370,#371,#372,
#373,#374,#375,#376,#377,#378,#379,#380,#381,#382,#383,#384,#385));
#387=DERIVED_UNIT_ELEMENT(#389,1.);
#388=DERIVED_UNIT_ELEMENT(#661,-3.);
#389=(
MASS_UNIT()
NAMED_UNIT(*)
SI_UNIT(.KILO.,.GRAM.)
);
#390=DERIVED_UNIT((#387,#388));
#391=MEASURE_REPRESENTATION_ITEM('density measure',
POSITIVE_RATIO_MEASURE(7850.),#390);
#392=PROPERTY_DEFINITION_REPRESENTATION(#397,#394);
#393=PROPERTY_DEFINITION_REPRESENTATION(#398,#395);
#394=REPRESENTATION('material name',(#396),#658);
#395=REPRESENTATION('density',(#391),#658);
#396=DESCRIPTIVE_REPRESENTATION_ITEM('Steel','Steel');
#397=PROPERTY_DEFINITION('material property','material name',#673);
#398=PROPERTY_DEFINITION('material property','density of part',#673);
#399=AXIS2_PLACEMENT_3D('',#548,#436,#437);
#400=AXIS2_PLACEMENT_3D('',#549,#438,#439);
#401=AXIS2_PLACEMENT_3D('',#550,#440,#441);
#402=AXIS2_PLACEMENT_3D('',#552,#442,#443);
#403=AXIS2_PLACEMENT_3D('',#555,#445,#446);
#404=AXIS2_PLACEMENT_3D('',#556,#447,#448);
#405=AXIS2_PLACEMENT_3D('',#557,#449,#450);
#406=AXIS2_PLACEMENT_3D('',#559,#451,#452);
#407=AXIS2_PLACEMENT_3D('',#562,#454,#455);
#408=AXIS2_PLACEMENT_3D('',#563,#456,#457);
#409=AXIS2_PLACEMENT_3D('',#564,#458,#459);
#410=AXIS2_PLACEMENT_3D('',#566,#460,#461);
#411=AXIS2_PLACEMENT_3D('',#569,#463,#464);
#412=AXIS2_PLACEMENT_3D('',#570,#465,#466);
#413=AXIS2_PLACEMENT_3D('',#571,#467,#468);
#414=AXIS2_PLACEMENT_3D('',#580,#473,#474);
#415=AXIS2_PLACEMENT_3D('',#590,#480,#481);
#416=AXIS2_PLACEMENT_3D('',#596,#485,#486);
#417=AXIS2_PLACEMENT_3D('',#598,#488,#489);
#418=AXIS2_PLACEMENT_3D('',#606,#494,#495);
#419=AXIS2_PLACEMENT_3D('',#610,#498,#499);
#420=AXIS2_PLACEMENT_3D('',#614,#502,#503);
#421=AXIS2_PLACEMENT_3D('',#619,#505,#506);
#422=AXIS2_PLACEMENT_3D('',#622,#508,#509);
#423=AXIS2_PLACEMENT_3D('',#623,#510,#511);
#424=AXIS2_PLACEMENT_3D('',#628,#515,#516);
#425=AXIS2_PLACEMENT_3D('',#632,#519,#520);
#426=AXIS2_PLACEMENT_3D('',#634,#522,#523);
#427=AXIS2_PLACEMENT_3D('',#637,#525,#526);
#428=AXIS2_PLACEMENT_3D('',#638,#527,#528);
#429=AXIS2_PLACEMENT_3D('',#642,#531,#532);
#430=AXIS2_PLACEMENT_3D('',#644,#533,#534);
#431=AXIS2_PLACEMENT_3D('',#647,#536,#537);
#432=AXIS2_PLACEMENT_3D('',#648,#538,#539);
#433=AXIS2_PLACEMENT_3D('',#650,#541,#542);
#434=AXIS2_PLACEMENT_3D('',#651,#543,#544);
#435=AXIS2_PLACEMENT_3D('',#653,#546,#547);
#436=DIRECTION('axis',(0.,0.,1.));
#437=DIRECTION('refdir',(1.,0.,0.));
#438=DIRECTION('axis',(0.,0.,1.));
#439=DIRECTION('refdir',(1.,0.,0.));
#440=DIRECTION('center_axis',(-1.40413558916231E-9,-1.,0.));
#441=DIRECTION('ref_axis',(-1.,1.40413558916231E-9,0.));
#442=DIRECTION('center_axis',(0.,-1.,0.));
#443=DIRECTION('ref_axis',(-1.,0.,0.));
#444=DIRECTION('',(-1.40413558916231E-9,-1.,0.));
#445=DIRECTION('center_axis',(-1.40413562721431E-9,-1.,0.));
#446=DIRECTION('ref_axis',(-1.,1.40413562382948E-9,0.));
#447=DIRECTION('center_axis',(1.40413562721431E-9,1.,0.));
#448=DIRECTION('ref_axis',(-1.,1.40413562721431E-9,0.));
#449=DIRECTION('center_axis',(-1.40413558916231E-9,-1.,0.));
#450=DIRECTION('ref_axis',(-1.,1.40413558916231E-9,0.));
#451=DIRECTION('center_axis',(0.,-1.,0.));
#452=DIRECTION('ref_axis',(-1.,0.,0.));
#453=DIRECTION('',(-1.40413558916231E-9,-1.,0.));
#454=DIRECTION('center_axis',(-1.40413562721431E-9,-1.,0.));
#455=DIRECTION('ref_axis',(-1.,1.40413562382948E-9,0.));
#456=DIRECTION('center_axis',(1.40413562721431E-9,1.,0.));
#457=DIRECTION('ref_axis',(-1.,1.40413562721431E-9,0.));
#458=DIRECTION('center_axis',(-1.40413558916231E-9,-1.,0.));
#459=DIRECTION('ref_axis',(-1.,1.40413558916231E-9,0.));
#460=DIRECTION('center_axis',(0.,-1.,0.));
#461=DIRECTION('ref_axis',(-1.,0.,0.));
#462=DIRECTION('',(-1.40413558916231E-9,-1.,0.));
#463=DIRECTION('center_axis',(-1.4041356341532E-9,-1.,0.));
#464=DIRECTION('ref_axis',(-1.,1.40413564075361E-9,0.));
#465=DIRECTION('center_axis',(1.4041356341532E-9,1.,0.));
#466=DIRECTION('ref_axis',(-1.,1.4041356341532E-9,0.));
#467=DIRECTION('center_axis',(-0.707106781186548,0.,-0.707106781186548));
#468=DIRECTION('ref_axis',(-0.707106781186548,0.,0.707106781186548));
#469=DIRECTION('',(-0.707106781186548,0.,0.707106781186548));
#470=DIRECTION('',(0.,1.,0.));
#471=DIRECTION('',(-0.678598344545847,-0.281084637714822,0.678598344545847));
#472=DIRECTION('',(0.,-1.,0.));
#473=DIRECTION('center_axis',(1.22464679914735E-16,0.,-1.));
#474=DIRECTION('ref_axis',(-1.,0.,-1.22464679914735E-16));
#475=DIRECTION('',(0.707106781186548,-0.707106781186547,8.65956056235494E-17));
#476=DIRECTION('',(0.,-1.,0.));
#477=DIRECTION('',(-1.,0.,-1.22464679914735E-16));
#478=DIRECTION('',(0.,-1.,0.));
#479=DIRECTION('',(-1.,0.,-1.22464679914735E-16));
#480=DIRECTION('center_axis',(-0.70710678118656,0.,-0.707106781186535));
#481=DIRECTION('ref_axis',(-0.707106781186535,0.,0.70710678118656));
#482=DIRECTION('',(0.,1.,0.));
#483=DIRECTION('',(0.707106781186535,0.,-0.70710678118656));
#484=DIRECTION('',(-0.678598344545847,-0.281084637714822,0.678598344545847));
#485=DIRECTION('center_axis',(-0.499999999999999,-0.5,-0.707106781186548));
#486=DIRECTION('ref_axis',(-0.816496580927727,0.,0.577350269189625));
#487=DIRECTION('',(-0.707106781186548,0.707106781186547,-8.65956056235494E-17));
#488=DIRECTION('center_axis',(0.,-1.,0.));
#489=DIRECTION('ref_axis',(1.,0.,1.22464679914735E-16));
#490=DIRECTION('',(-1.22464679914735E-16,0.,1.));
#491=DIRECTION('',(-0.707106781186541,0.,-0.707106781186554));
#492=DIRECTION('',(1.,0.,1.22464679914735E-16));
#493=DIRECTION('',(1.22464679914735E-16,0.,-1.));
#494=DIRECTION('center_axis',(-1.,0.,-1.22464679914735E-16));
#495=DIRECTION('ref_axis',(-1.22464679914735E-16,0.,1.));
#496=DIRECTION('',(-1.22464679914735E-16,0.,1.));
#497=DIRECTION('',(0.,-1.,0.));
#498=DIRECTION('center_axis',(-0.707106781186547,-0.707106781186548,-8.65956056235493E-17));
#499=DIRECTION('ref_axis',(-1.22464679914735E-16,0.,1.));
#500=DIRECTION('',(1.22464679914735E-16,0.,-1.));
#501=DIRECTION('',(0.707106781186548,-0.707106781186547,8.65956056235494E-17));
#502=DIRECTION('center_axis',(1.,0.,0.));
#503=DIRECTION('ref_axis',(0.,-1.,0.));
#504=DIRECTION('',(-0.70710479204343,0.,0.70710877032407));
#505=DIRECTION('center_axis',(-1.,0.,-1.22464679914735E-16));
#506=DIRECTION('ref_axis',(0.,-1.,0.));
#507=DIRECTION('',(-0.707106781186554,0.,-0.707106781186541));
#508=DIRECTION('center_axis',(1.,0.,1.22464679914735E-16));
#509=DIRECTION('ref_axis',(0.,-1.,0.));
#510=DIRECTION('center_axis',(-0.707106781186554,0.,0.707106781186541));
#511=DIRECTION('ref_axis',(0.707106781186541,0.,0.707106781186554));
#512=DIRECTION('',(0.,-1.,0.));
#513=DIRECTION('',(0.,1.,0.));
#514=DIRECTION('',(-0.678598344545834,-0.281084637714853,-0.678598344545846));
#515=DIRECTION('center_axis',(-0.707106781186554,0.,0.707106781186541));
#516=DIRECTION('ref_axis',(0.707106781186541,0.,0.707106781186554));
#517=DIRECTION('',(0.,1.,0.));
#518=DIRECTION('',(0.678598344545837,0.281084637714842,0.678598344545849));
#519=DIRECTION('center_axis',(-0.499999999999998,-0.499999999999998,0.707106781186551));
#520=DIRECTION('ref_axis',(0.816496580927729,0.,0.577350269189622));
#521=DIRECTION('',(-0.707106781186548,0.707106781186547,-8.65956056235494E-17));
#522=DIRECTION('center_axis',(-1.,0.,-1.22464679914735E-16));
#523=DIRECTION('ref_axis',(0.,1.,0.));
#524=DIRECTION('',(1.22464679914735E-16,0.,-1.));
#525=DIRECTION('center_axis',(1.,0.,1.22464679914735E-16));
#526=DIRECTION('ref_axis',(0.,1.,0.));
#527=DIRECTION('center_axis',(-1.22464679914735E-16,0.,1.));
#528=DIRECTION('ref_axis',(0.,-1.,0.));
#529=DIRECTION('',(1.,0.,1.22464679914735E-16));
#530=DIRECTION('',(0.,1.,0.));
#531=DIRECTION('center_axis',(1.,0.,1.22464679914735E-16));
#532=DIRECTION('ref_axis',(0.,-1.,0.));
#533=DIRECTION('center_axis',(-1.,0.,-1.22464679914735E-16));
#534=DIRECTION('ref_axis',(0.,1.,0.));
#535=DIRECTION('',(1.22464679914735E-16,0.,-1.));
#536=DIRECTION('center_axis',(1.,0.,1.22464679914735E-16));
#537=DIRECTION('ref_axis',(0.,1.,0.));
#538=DIRECTION('center_axis',(0.,-1.,0.));
#539=DIRECTION('ref_axis',(-1.,0.,-1.22464679914735E-16));
#540=DIRECTION('',(1.,0.,1.22464679914735E-16));
#541=DIRECTION('center_axis',(1.,0.,1.22464679914735E-16));
#542=DIRECTION('ref_axis',(-1.98435237035684E-19,-0.999998687237463,0.00162034667606891));
#543=DIRECTION('center_axis',(1.,0.,1.22464679914735E-16));
#544=DIRECTION('ref_axis',(0.,1.,0.));
#545=DIRECTION('',(-1.,0.,-1.22464679914735E-16));
#546=DIRECTION('',(8.63323788707703E-17,-4.26248564863949E-17,1.));
#547=DIRECTION('',(1.,-1.7347234759768E-18,-6.14799708640921E-17));
#548=CARTESIAN_POINT('',(0.,0.,0.));
#549=CARTESIAN_POINT('',(0.,0.,0.));
#550=CARTESIAN_POINT('Origin',(-63.1,140.000002631596,161.891729985377));
#551=CARTESIAN_POINT('',(-61.0500000071611,134.9,161.891729985377));
#552=CARTESIAN_POINT('Origin',(-63.1000000071611,134.9,161.891729985377));
#553=CARTESIAN_POINT('',(-61.0500000217641,124.500002628718,161.891729985377));
#554=CARTESIAN_POINT('',(-61.05,140.000002628718,161.891729985377));
#555=CARTESIAN_POINT('Origin',(-63.1000000217641,124.500002631596,161.891729985377));
#556=CARTESIAN_POINT('Origin',(-63.1000000217641,124.500002631596,161.891729985377));
#557=CARTESIAN_POINT('Origin',(-63.1,140.000002631596,171.891724165111));
#558=CARTESIAN_POINT('',(-61.0500000071611,134.9,171.891724165111));
#559=CARTESIAN_POINT('Origin',(-63.1000000071611,134.9,171.891724165111));
#560=CARTESIAN_POINT('',(-61.0500000217641,124.500002628718,171.891724165111));
#561=CARTESIAN_POINT('',(-61.05,140.000002628718,171.891724165111));
#562=CARTESIAN_POINT('Origin',(-63.1000000217641,124.500002631596,171.891724165111));
#563=CARTESIAN_POINT('Origin',(-63.1000000217641,124.500002631596,171.891724165111));
#564=CARTESIAN_POINT('Origin',(-63.1,140.000002631596,151.891729985377));
#565=CARTESIAN_POINT('',(-61.050000007161,134.9,151.891729985377));
#566=CARTESIAN_POINT('Origin',(-63.1000000071611,134.9,151.891729985377));
#567=CARTESIAN_POINT('',(-61.0500000217641,124.500002628718,151.891729985377));
#568=CARTESIAN_POINT('',(-61.05,140.000002628718,151.891729985377));
#569=CARTESIAN_POINT('Origin',(-63.1000000217641,124.500002631596,151.891729985377));
#570=CARTESIAN_POINT('Origin',(-63.1000000217641,124.500002631596,151.891729985377));
#571=CARTESIAN_POINT('Origin',(-63.1,117.412847415883,147.391729985377));
#572=CARTESIAN_POINT('',(-62.6,104.851389663532,146.891729985377));
#573=CARTESIAN_POINT('',(-63.6,104.851389663532,147.891729985377));
#574=CARTESIAN_POINT('',(-61.98,104.851389663532,146.271729985377));
#575=CARTESIAN_POINT('',(-63.6,121.467534074566,147.891729985377));
#576=CARTESIAN_POINT('',(-63.6,117.412847415883,147.891729985377));
#577=CARTESIAN_POINT('',(-62.6,121.881747636939,146.891729985377));
#578=CARTESIAN_POINT('',(-63.552694247544,121.487128758811,147.844424232921));
#579=CARTESIAN_POINT('',(-62.6,117.412847415883,146.891729985377));
#580=CARTESIAN_POINT('Origin',(-59.9273679587778,122.425694831766,146.891729985377));
#581=CARTESIAN_POINT('',(-66.1,125.381747636939,146.891729985377));
#582=CARTESIAN_POINT('',(-63.0892753978079,122.371023034747,146.891729985377));
#583=CARTESIAN_POINT('',(-66.1,134.9,146.891729985377));
#584=CARTESIAN_POINT('',(-66.1,127.454731456065,146.891729985377));
#585=CARTESIAN_POINT('',(-59.1,134.9,146.891729985377));
#586=CARTESIAN_POINT('',(-67.09999993518,134.9,146.891729985377));
#587=CARTESIAN_POINT('',(-59.1,104.851389663532,146.891729985377));
#588=CARTESIAN_POINT('',(-59.1,117.412847415883,146.891729985377));
#589=CARTESIAN_POINT('',(-70.5947359175556,104.851389663532,146.891729985377));
#590=CARTESIAN_POINT('Origin',(-66.6,127.454731456065,147.391729985377));
#591=CARTESIAN_POINT('',(-67.1,124.967534074566,147.891729985377));
#592=CARTESIAN_POINT('',(-67.09999993518,134.9,147.891729985377));
#593=CARTESIAN_POINT('',(-67.1,127.454731456065,147.891729985377));
#594=CARTESIAN_POINT('',(-66.599999983795,134.9,147.391729969172));
#595=CARTESIAN_POINT('',(-66.1,125.381747636939,146.891729985377));
#596=CARTESIAN_POINT('Origin',(-63.4428287884012,122.017469644154,147.391729985377));
#597=CARTESIAN_POINT('',(-63.7963821789945,121.66391625356,147.891729985377));
#598=CARTESIAN_POINT('Origin',(-67.09999993518,134.9,146.891729985377));
#599=CARTESIAN_POINT('',(-67.09999993518,134.9,175.891729985377));
#600=CARTESIAN_POINT('',(-67.09999993518,134.9,146.891729985377));
#601=CARTESIAN_POINT('',(-66.1,134.9,176.891729985377));
#602=CARTESIAN_POINT('',(-74.0999999837949,134.9,168.891730001582));
#603=CARTESIAN_POINT('',(-59.1,134.9,176.891729985377));
#604=CARTESIAN_POINT('',(-65.34999996759,134.9,176.891729985377));
#605=CARTESIAN_POINT('',(-59.1,134.9,146.891729985377));
#606=CARTESIAN_POINT('Origin',(-67.1,132.483768080364,161.837593957336));
#607=CARTESIAN_POINT('',(-67.1,124.967534074566,175.891729985377));
#608=CARTESIAN_POINT('',(-67.1,124.967534074566,146.891729985377));
#609=CARTESIAN_POINT('',(-67.1,133.691884040182,175.891729985377));
#610=CARTESIAN_POINT('Origin',(-65.35,123.217534074566,154.391729985377));
#611=CARTESIAN_POINT('',(-63.6,121.467534074566,175.891729985377));
#612=CARTESIAN_POINT('',(-63.6,121.467534074566,169.337593957336));
#613=CARTESIAN_POINT('',(-67.8331164813585,125.700650555924,175.891729985377));
#614=CARTESIAN_POINT('Origin',(-63.1,104.9,161.891729985377));
#615=CARTESIAN_POINT('',(-63.6,104.851389663532,147.891814377232));
#616=CARTESIAN_POINT('',(-62.6,104.851389663532,146.891808751078));
#617=CARTESIAN_POINT('',(-63.1,104.851389663532,147.391811564155));
#618=CARTESIAN_POINT('',(-62.6,104.9,176.891729985377));
#619=CARTESIAN_POINT('Origin',(-62.6,104.9,161.891729985377));
#620=CARTESIAN_POINT('',(-63.6,104.9,175.891729985377));
#621=CARTESIAN_POINT('',(-62.6,104.9,176.891729985377));
#622=CARTESIAN_POINT('Origin',(-63.6,104.9,161.891729985377));
#623=CARTESIAN_POINT('Origin',(-63.1,123.65,176.391729985377));
#624=CARTESIAN_POINT('',(-63.6,123.65,175.891729985377));
#625=CARTESIAN_POINT('',(-62.6,121.881747636939,176.891729985377));
#626=CARTESIAN_POINT('',(-62.6,123.65,176.891729985377));
#627=CARTESIAN_POINT('',(-62.6,121.881747636939,176.891729985377));
#628=CARTESIAN_POINT('Origin',(-66.6,133.691884040182,176.391729985377));
#629=CARTESIAN_POINT('',(-66.1,125.381747636939,176.891729985377));
#630=CARTESIAN_POINT('',(-66.1,133.691884040182,176.891729985377));
#631=CARTESIAN_POINT('',(-67.1,124.967534074566,175.891729985377));
#632=CARTESIAN_POINT('Origin',(-67.4795630907653,126.054203946518,176.391729985377));
#633=CARTESIAN_POINT('',(-67.126009700172,126.407757337111,176.891729985377));
#634=CARTESIAN_POINT('Origin',(-63.6,112.4,161.891729985377));
#635=CARTESIAN_POINT('',(-63.6,104.851389663532,146.911729985377));
#636=CARTESIAN_POINT('',(-63.6,96.9,161.891729985377));
#637=CARTESIAN_POINT('Origin',(-63.6,104.9,161.891729985377));
#638=CARTESIAN_POINT('Origin',(-63.6,134.9,176.891729985377));
#639=CARTESIAN_POINT('',(-59.1,104.9,176.891729985377));
#640=CARTESIAN_POINT('',(-63.6,104.9,176.891729985377));
#641=CARTESIAN_POINT('',(-59.1,133.9,176.891729985377));
#642=CARTESIAN_POINT('Origin',(-59.1,112.4,161.891729985377));
#643=CARTESIAN_POINT('',(-59.1,104.851389663532,146.891808751078));
#644=CARTESIAN_POINT('Origin',(-59.1,104.9,161.891729985377));
#645=CARTESIAN_POINT('',(-59.1,104.851389663532,146.911729985377));
#646=CARTESIAN_POINT('',(-59.1,96.9,161.891729985377));
#647=CARTESIAN_POINT('Origin',(-59.1,104.9,161.891729985377));
#648=CARTESIAN_POINT('Origin',(-59.1,104.851389663532,146.911729985377));
#649=CARTESIAN_POINT('',(-63.6,104.851389663532,146.891808751078));
#650=CARTESIAN_POINT('Origin',(-63.6,104.9,161.891729985377));
#651=CARTESIAN_POINT('Origin',(-63.6,104.9,161.891729985377));
#652=CARTESIAN_POINT('',(-63.6,96.9,161.891729985377));
#653=CARTESIAN_POINT('',(-0.975454691920109,-0.128685897336396,0.0566014508869281));
#654=UNCERTAINTY_MEASURE_WITH_UNIT(LENGTH_MEASURE(0.01),#660,
'DISTANCE_ACCURACY_VALUE',
'Maximum model space distance between geometric entities at asserted c
onnectivities');
#655=UNCERTAINTY_MEASURE_WITH_UNIT(LENGTH_MEASURE(0.01),#660,
'DISTANCE_ACCURACY_VALUE',
'Maximum model space distance between geometric entities at asserted c
onnectivities');
#656=UNCERTAINTY_MEASURE_WITH_UNIT(LENGTH_MEASURE(0.01),#660,
'DISTANCE_ACCURACY_VALUE',
'Maximum model space distance between geometric entities at asserted c
onnectivities');
#657=(
GEOMETRIC_REPRESENTATION_CONTEXT(3)
GLOBAL_UNCERTAINTY_ASSIGNED_CONTEXT((#654))
GLOBAL_UNIT_ASSIGNED_CONTEXT((#660,#662,#663))
REPRESENTATION_CONTEXT('','3D')
);
#658=(
GEOMETRIC_REPRESENTATION_CONTEXT(3)
GLOBAL_UNCERTAINTY_ASSIGNED_CONTEXT((#655))
GLOBAL_UNIT_ASSIGNED_CONTEXT((#660,#662,#663))
REPRESENTATION_CONTEXT('','3D')
);
#659=(
GEOMETRIC_REPRESENTATION_CONTEXT(3)
GLOBAL_UNCERTAINTY_ASSIGNED_CONTEXT((#656))
GLOBAL_UNIT_ASSIGNED_CONTEXT((#660,#662,#663))
REPRESENTATION_CONTEXT('','3D')
);
#660=(
LENGTH_UNIT()
NAMED_UNIT(*)
SI_UNIT(.MILLI.,.METRE.)
);
#661=(
LENGTH_UNIT()
NAMED_UNIT(*)
SI_UNIT($,.METRE.)
);
#662=(
NAMED_UNIT(*)
PLANE_ANGLE_UNIT()
SI_UNIT($,.RADIAN.)
);
#663=(
NAMED_UNIT(*)
SI_UNIT($,.STERADIAN.)
SOLID_ANGLE_UNIT()
);
#664=SHAPE_DEFINITION_REPRESENTATION(#666,#669);
#665=SHAPE_DEFINITION_REPRESENTATION(#667,#670);
#666=PRODUCT_DEFINITION_SHAPE('',$,#672);
#667=PRODUCT_DEFINITION_SHAPE('',$,#673);
#668=PRODUCT_DEFINITION_SHAPE($,$,#14);
#669=SHAPE_REPRESENTATION('',(#399,#435),#657);
#670=SHAPE_REPRESENTATION('',(#400),#658);
#671=PRODUCT_DEFINITION_CONTEXT('part definition',#679,'design');
#672=PRODUCT_DEFINITION('Leg V1','Leg V1 v22',#674,#671);
#673=PRODUCT_DEFINITION('Upper Leg lower hoop left',
'Upper Leg lower hoop left',#675,#671);
#674=PRODUCT_DEFINITION_FORMATION('',$,#681);
#675=PRODUCT_DEFINITION_FORMATION('',$,#682);
#676=PRODUCT_RELATED_PRODUCT_CATEGORY('Leg V1 v22','Leg V1 v22',(#681));
#677=PRODUCT_RELATED_PRODUCT_CATEGORY('Upper Leg lower hoop left',
'Upper Leg lower hoop left',(#682));
#678=APPLICATION_PROTOCOL_DEFINITION('international standard',
'automotive_design',2009,#679);
#679=APPLICATION_CONTEXT(
'Core Data for Automotive Mechanical Design Process');
#680=PRODUCT_CONTEXT('part definition',#679,'mechanical');
#681=PRODUCT('Leg V1','Leg V1 v22',$,(#680));
#682=PRODUCT('Upper Leg lower hoop left','Upper Leg lower hoop left',$,
(#680));
#683=PRESENTATION_STYLE_ASSIGNMENT((#685));
#684=PRESENTATION_STYLE_ASSIGNMENT((#686));
#685=SURFACE_STYLE_USAGE(.BOTH.,#687);
#686=SURFACE_STYLE_USAGE(.BOTH.,#688);
#687=SURFACE_SIDE_STYLE('',(#689));
#688=SURFACE_SIDE_STYLE('',(#690));
#689=SURFACE_STYLE_FILL_AREA(#691);
#690=SURFACE_STYLE_FILL_AREA(#692);
#691=FILL_AREA_STYLE('Steel - Satin',(#693));
#692=FILL_AREA_STYLE('ABS (White)',(#694));
#693=FILL_AREA_STYLE_COLOUR('Steel - Satin',#695);
#694=FILL_AREA_STYLE_COLOUR('ABS (White)',#696);
#695=COLOUR_RGB('Steel - Satin',0.627450980392157,0.627450980392157,0.627450980392157);
#696=COLOUR_RGB('ABS (White)',0.964705882352941,0.964705882352941,0.952941176470588);
ENDSEC;
END-ISO-10303-21;
