ISO-10303-21;
HEADER;
/* Generated by software containing ST-Developer
 * from STEP Tools, Inc. (www.steptools.com) 
 */

FILE_DESCRIPTION(
/* description */ (''),
/* implementation_level */ '2;1');

FILE_NAME(
/* name */ 'Upper Leg upper hoop bottom.step',
/* time_stamp */ '2025-09-30T07:46:39+02:00',
/* author */ (''),
/* organization */ (''),
/* preprocessor_version */ 'ST-DEVELOPER v20.1',
/* originating_system */ 'Autodesk Translation Framework v14.17.0.0',
/* authorisation */ '');

FILE_SCHEMA (('AUTOMOTIVE_DESIGN { 1 0 10303 214 3 1 1 }'));
ENDSEC;

DATA;
#10=MECHANICAL_DESIGN_GEOMETRIC_PRESENTATION_REPRESENTATION('',(#17),#752);
#11=ITEM_DEFINED_TRANSFORMATION($,$,#448,#494);
#12=(
REPRESENTATION_RELATIONSHIP($,$,#763,#762)
REPRESENTATION_RELATIONSHIP_WITH_TRANSFORMATION(#11)
SHAPE_REPRESENTATION_RELATIONSHIP()
);
#13=CONTEXT_DEPENDENT_SHAPE_REPRESENTATION(#12,#761);
#14=NEXT_ASSEMBLY_USAGE_OCCURRENCE('Upper Leg upper hoop bottom:1',
'Upper Leg upper hoop bottom:1','Upper Leg upper hoop bottom:1',#765,#766,
'Upper Leg upper hoop bottom:1');
#15=SHAPE_REPRESENTATION_RELATIONSHIP('SRR','None',#763,#16);
#16=ADVANCED_BREP_SHAPE_REPRESENTATION('',(#18),#751);
#17=STYLED_ITEM('',(#777),#18);
#18=MANIFOLD_SOLID_BREP('Body1',#434);
#19=CONICAL_SURFACE('',#485,14.5,0.785398163397457);
#20=FACE_BOUND('',#77,.T.);
#21=FACE_BOUND('',#82,.T.);
#22=FACE_BOUND('',#85,.T.);
#23=FACE_BOUND('',#87,.T.);
#24=FACE_BOUND('',#93,.T.);
#25=FACE_BOUND('',#94,.T.);
#26=FACE_BOUND('',#95,.T.);
#27=FACE_BOUND('',#99,.T.);
#28=PLANE('',#452);
#29=PLANE('',#456);
#30=PLANE('',#460);
#31=PLANE('',#465);
#32=PLANE('',#467);
#33=PLANE('',#470);
#34=PLANE('',#471);
#35=PLANE('',#476);
#36=PLANE('',#477);
#37=PLANE('',#478);
#38=PLANE('',#479);
#39=PLANE('',#481);
#40=PLANE('',#482);
#41=PLANE('',#483);
#42=PLANE('',#484);
#43=PLANE('',#486);
#44=PLANE('',#487);
#45=PLANE('',#488);
#46=PLANE('',#491);
#47=FACE_OUTER_BOUND('',#75,.T.);
#48=FACE_OUTER_BOUND('',#76,.T.);
#49=FACE_OUTER_BOUND('',#78,.T.);
#50=FACE_OUTER_BOUND('',#79,.T.);
#51=FACE_OUTER_BOUND('',#80,.T.);
#52=FACE_OUTER_BOUND('',#81,.T.);
#53=FACE_OUTER_BOUND('',#83,.T.);
#54=FACE_OUTER_BOUND('',#84,.T.);
#55=FACE_OUTER_BOUND('',#86,.T.);
#56=FACE_OUTER_BOUND('',#88,.T.);
#57=FACE_OUTER_BOUND('',#89,.T.);
#58=FACE_OUTER_BOUND('',#90,.T.);
#59=FACE_OUTER_BOUND('',#91,.T.);
#60=FACE_OUTER_BOUND('',#92,.T.);
#61=FACE_OUTER_BOUND('',#96,.T.);
#62=FACE_OUTER_BOUND('',#97,.T.);
#63=FACE_OUTER_BOUND('',#98,.T.);
#64=FACE_OUTER_BOUND('',#100,.T.);
#65=FACE_OUTER_BOUND('',#101,.T.);
#66=FACE_OUTER_BOUND('',#102,.T.);
#67=FACE_OUTER_BOUND('',#103,.T.);
#68=FACE_OUTER_BOUND('',#104,.T.);
#69=FACE_OUTER_BOUND('',#105,.T.);
#70=FACE_OUTER_BOUND('',#106,.T.);
#71=FACE_OUTER_BOUND('',#107,.T.);
#72=FACE_OUTER_BOUND('',#108,.T.);
#73=FACE_OUTER_BOUND('',#109,.T.);
#74=FACE_OUTER_BOUND('',#110,.T.);
#75=EDGE_LOOP('',(#290,#291,#292,#293));
#76=EDGE_LOOP('',(#294));
#77=EDGE_LOOP('',(#295));
#78=EDGE_LOOP('',(#296,#297,#298,#299));
#79=EDGE_LOOP('',(#300));
#80=EDGE_LOOP('',(#301,#302,#303,#304));
#81=EDGE_LOOP('',(#305));
#82=EDGE_LOOP('',(#306));
#83=EDGE_LOOP('',(#307,#308,#309,#310));
#84=EDGE_LOOP('',(#311));
#85=EDGE_LOOP('',(#312));
#86=EDGE_LOOP('',(#313,#314,#315,#316));
#87=EDGE_LOOP('',(#317));
#88=EDGE_LOOP('',(#318,#319,#320,#321,#322,#323));
#89=EDGE_LOOP('',(#324,#325,#326,#327,#328,#329));
#90=EDGE_LOOP('',(#330,#331,#332,#333));
#91=EDGE_LOOP('',(#334,#335,#336,#337));
#92=EDGE_LOOP('',(#338,#339,#340,#341,#342,#343));
#93=EDGE_LOOP('',(#344));
#94=EDGE_LOOP('',(#345));
#95=EDGE_LOOP('',(#346));
#96=EDGE_LOOP('',(#347,#348,#349,#350));
#97=EDGE_LOOP('',(#351,#352,#353,#354));
#98=EDGE_LOOP('',(#355,#356,#357,#358));
#99=EDGE_LOOP('',(#359));
#100=EDGE_LOOP('',(#360,#361,#362,#363));
#101=EDGE_LOOP('',(#364,#365,#366,#367));
#102=EDGE_LOOP('',(#368,#369,#370,#371));
#103=EDGE_LOOP('',(#372,#373,#374,#375));
#104=EDGE_LOOP('',(#376,#377,#378,#379));
#105=EDGE_LOOP('',(#380,#381,#382,#383));
#106=EDGE_LOOP('',(#384,#385,#386,#387));
#107=EDGE_LOOP('',(#388));
#108=EDGE_LOOP('',(#389,#390,#391,#392));
#109=EDGE_LOOP('',(#393));
#110=EDGE_LOOP('',(#394,#395,#396,#397));
#111=LINE('',#634,#148);
#112=LINE('',#641,#149);
#113=LINE('',#648,#150);
#114=LINE('',#657,#151);
#115=LINE('',#665,#152);
#116=LINE('',#669,#153);
#117=LINE('',#670,#154);
#118=LINE('',#676,#155);
#119=LINE('',#677,#156);
#120=LINE('',#679,#157);
#121=LINE('',#681,#158);
#122=LINE('',#682,#159);
#123=LINE('',#686,#160);
#124=LINE('',#687,#161);
#125=LINE('',#689,#162);
#126=LINE('',#691,#163);
#127=LINE('',#692,#164);
#128=LINE('',#698,#165);
#129=LINE('',#701,#166);
#130=LINE('',#703,#167);
#131=LINE('',#704,#168);
#132=LINE('',#707,#169);
#133=LINE('',#709,#170);
#134=LINE('',#710,#171);
#135=LINE('',#713,#172);
#136=LINE('',#715,#173);
#137=LINE('',#716,#174);
#138=LINE('',#719,#175);
#139=LINE('',#722,#176);
#140=LINE('',#724,#177);
#141=LINE('',#725,#178);
#142=LINE('',#727,#179);
#143=LINE('',#728,#180);
#144=LINE('',#731,#181);
#145=LINE('',#733,#182);
#146=LINE('',#740,#183);
#147=LINE('',#745,#184);
#148=VECTOR('',#503,2.05);
#149=VECTOR('',#512,1.55);
#150=VECTOR('',#521,2.05000000000001);
#151=VECTOR('',#532,2.05);
#152=VECTOR('',#541,10.);
#153=VECTOR('',#544,10.);
#154=VECTOR('',#545,10.);
#155=VECTOR('',#550,10.);
#156=VECTOR('',#551,10.);
#157=VECTOR('',#552,10.);
#158=VECTOR('',#553,10.);
#159=VECTOR('',#554,10.);
#160=VECTOR('',#557,10.);
#161=VECTOR('',#558,10.);
#162=VECTOR('',#559,10.);
#163=VECTOR('',#560,10.);
#164=VECTOR('',#561,10.);
#165=VECTOR('',#570,8.);
#166=VECTOR('',#573,10.);
#167=VECTOR('',#574,10.);
#168=VECTOR('',#575,10.);
#169=VECTOR('',#578,10.);
#170=VECTOR('',#579,10.);
#171=VECTOR('',#580,10.);
#172=VECTOR('',#583,10.);
#173=VECTOR('',#584,10.);
#174=VECTOR('',#585,10.);
#175=VECTOR('',#588,10.);
#176=VECTOR('',#591,10.);
#177=VECTOR('',#594,10.);
#178=VECTOR('',#595,10.);
#179=VECTOR('',#598,10.);
#180=VECTOR('',#599,10.);
#181=VECTOR('',#604,10.);
#182=VECTOR('',#607,10.);
#183=VECTOR('',#618,1.55);
#184=VECTOR('',#625,1.55000000000001);
#185=CIRCLE('',#450,2.05);
#186=CIRCLE('',#451,2.05);
#187=CIRCLE('',#453,1.55);
#188=CIRCLE('',#455,1.55);
#189=CIRCLE('',#458,2.05000000000001);
#190=CIRCLE('',#459,2.05000000000001);
#191=CIRCLE('',#461,1.55000000000001);
#192=CIRCLE('',#463,2.05);
#193=CIRCLE('',#464,2.05);
#194=CIRCLE('',#466,1.55);
#195=CIRCLE('',#468,15.);
#196=CIRCLE('',#469,8.);
#197=CIRCLE('',#473,15.);
#198=CIRCLE('',#475,8.);
#199=CIRCLE('',#480,14.);
#200=CIRCLE('',#489,1.55);
#201=CIRCLE('',#492,1.55000000000001);
#202=VERTEX_POINT('',#631);
#203=VERTEX_POINT('',#633);
#204=VERTEX_POINT('',#637);
#205=VERTEX_POINT('',#640);
#206=VERTEX_POINT('',#645);
#207=VERTEX_POINT('',#647);
#208=VERTEX_POINT('',#651);
#209=VERTEX_POINT('',#654);
#210=VERTEX_POINT('',#656);
#211=VERTEX_POINT('',#660);
#212=VERTEX_POINT('',#663);
#213=VERTEX_POINT('',#664);
#214=VERTEX_POINT('',#666);
#215=VERTEX_POINT('',#668);
#216=VERTEX_POINT('',#671);
#217=VERTEX_POINT('',#674);
#218=VERTEX_POINT('',#675);
#219=VERTEX_POINT('',#678);
#220=VERTEX_POINT('',#680);
#221=VERTEX_POINT('',#684);
#222=VERTEX_POINT('',#685);
#223=VERTEX_POINT('',#688);
#224=VERTEX_POINT('',#690);
#225=VERTEX_POINT('',#696);
#226=VERTEX_POINT('',#700);
#227=VERTEX_POINT('',#702);
#228=VERTEX_POINT('',#706);
#229=VERTEX_POINT('',#708);
#230=VERTEX_POINT('',#712);
#231=VERTEX_POINT('',#714);
#232=VERTEX_POINT('',#718);
#233=VERTEX_POINT('',#720);
#234=VERTEX_POINT('',#737);
#235=VERTEX_POINT('',#742);
#236=EDGE_CURVE('',#202,#202,#185,.T.);
#237=EDGE_CURVE('',#202,#203,#111,.T.);
#238=EDGE_CURVE('',#203,#203,#186,.T.);
#239=EDGE_CURVE('',#204,#204,#187,.T.);
#240=EDGE_CURVE('',#204,#205,#112,.T.);
#241=EDGE_CURVE('',#205,#205,#188,.T.);
#242=EDGE_CURVE('',#206,#206,#189,.T.);
#243=EDGE_CURVE('',#206,#207,#113,.T.);
#244=EDGE_CURVE('',#207,#207,#190,.T.);
#245=EDGE_CURVE('',#208,#208,#191,.T.);
#246=EDGE_CURVE('',#209,#209,#192,.T.);
#247=EDGE_CURVE('',#209,#210,#114,.T.);
#248=EDGE_CURVE('',#210,#210,#193,.T.);
#249=EDGE_CURVE('',#211,#211,#194,.T.);
#250=EDGE_CURVE('',#212,#213,#115,.T.);
#251=EDGE_CURVE('',#214,#212,#195,.T.);
#252=EDGE_CURVE('',#215,#214,#116,.T.);
#253=EDGE_CURVE('',#213,#215,#117,.T.);
#254=EDGE_CURVE('',#216,#216,#196,.T.);
#255=EDGE_CURVE('',#217,#218,#118,.T.);
#256=EDGE_CURVE('',#215,#217,#119,.T.);
#257=EDGE_CURVE('',#214,#219,#120,.T.);
#258=EDGE_CURVE('',#220,#219,#121,.T.);
#259=EDGE_CURVE('',#218,#220,#122,.T.);
#260=EDGE_CURVE('',#221,#222,#123,.T.);
#261=EDGE_CURVE('',#212,#221,#124,.T.);
#262=EDGE_CURVE('',#223,#213,#125,.T.);
#263=EDGE_CURVE('',#224,#223,#126,.T.);
#264=EDGE_CURVE('',#222,#224,#127,.T.);
#265=EDGE_CURVE('',#219,#221,#197,.T.);
#266=EDGE_CURVE('',#225,#225,#198,.T.);
#267=EDGE_CURVE('',#225,#216,#128,.T.);
#268=EDGE_CURVE('',#226,#217,#129,.T.);
#269=EDGE_CURVE('',#226,#227,#130,.T.);
#270=EDGE_CURVE('',#223,#227,#131,.T.);
#271=EDGE_CURVE('',#228,#226,#132,.T.);
#272=EDGE_CURVE('',#229,#228,#133,.T.);
#273=EDGE_CURVE('',#227,#229,#134,.T.);
#274=EDGE_CURVE('',#230,#228,#135,.T.);
#275=EDGE_CURVE('',#230,#231,#136,.T.);
#276=EDGE_CURVE('',#229,#231,#137,.T.);
#277=EDGE_CURVE('',#232,#230,#138,.T.);
#278=EDGE_CURVE('',#233,#232,#199,.T.);
#279=EDGE_CURVE('',#231,#233,#139,.T.);
#280=EDGE_CURVE('',#230,#220,#140,.T.);
#281=EDGE_CURVE('',#218,#228,#141,.T.);
#282=EDGE_CURVE('',#229,#224,#142,.T.);
#283=EDGE_CURVE('',#222,#231,#143,.T.);
#284=EDGE_CURVE('',#221,#233,#144,.T.);
#285=EDGE_CURVE('',#219,#232,#145,.T.);
#286=EDGE_CURVE('',#234,#234,#200,.T.);
#287=EDGE_CURVE('',#211,#234,#146,.T.);
#288=EDGE_CURVE('',#235,#235,#201,.T.);
#289=EDGE_CURVE('',#208,#235,#147,.T.);
#290=ORIENTED_EDGE('',*,*,#236,.F.);
#291=ORIENTED_EDGE('',*,*,#237,.T.);
#292=ORIENTED_EDGE('',*,*,#238,.T.);
#293=ORIENTED_EDGE('',*,*,#237,.F.);
#294=ORIENTED_EDGE('',*,*,#238,.F.);
#295=ORIENTED_EDGE('',*,*,#239,.F.);
#296=ORIENTED_EDGE('',*,*,#239,.T.);
#297=ORIENTED_EDGE('',*,*,#240,.T.);
#298=ORIENTED_EDGE('',*,*,#241,.T.);
#299=ORIENTED_EDGE('',*,*,#240,.F.);
#300=ORIENTED_EDGE('',*,*,#241,.F.);
#301=ORIENTED_EDGE('',*,*,#242,.F.);
#302=ORIENTED_EDGE('',*,*,#243,.T.);
#303=ORIENTED_EDGE('',*,*,#244,.T.);
#304=ORIENTED_EDGE('',*,*,#243,.F.);
#305=ORIENTED_EDGE('',*,*,#244,.F.);
#306=ORIENTED_EDGE('',*,*,#245,.F.);
#307=ORIENTED_EDGE('',*,*,#246,.F.);
#308=ORIENTED_EDGE('',*,*,#247,.T.);
#309=ORIENTED_EDGE('',*,*,#248,.T.);
#310=ORIENTED_EDGE('',*,*,#247,.F.);
#311=ORIENTED_EDGE('',*,*,#248,.F.);
#312=ORIENTED_EDGE('',*,*,#249,.F.);
#313=ORIENTED_EDGE('',*,*,#250,.F.);
#314=ORIENTED_EDGE('',*,*,#251,.F.);
#315=ORIENTED_EDGE('',*,*,#252,.F.);
#316=ORIENTED_EDGE('',*,*,#253,.F.);
#317=ORIENTED_EDGE('',*,*,#254,.F.);
#318=ORIENTED_EDGE('',*,*,#255,.F.);
#319=ORIENTED_EDGE('',*,*,#256,.F.);
#320=ORIENTED_EDGE('',*,*,#252,.T.);
#321=ORIENTED_EDGE('',*,*,#257,.T.);
#322=ORIENTED_EDGE('',*,*,#258,.F.);
#323=ORIENTED_EDGE('',*,*,#259,.F.);
#324=ORIENTED_EDGE('',*,*,#260,.F.);
#325=ORIENTED_EDGE('',*,*,#261,.F.);
#326=ORIENTED_EDGE('',*,*,#250,.T.);
#327=ORIENTED_EDGE('',*,*,#262,.F.);
#328=ORIENTED_EDGE('',*,*,#263,.F.);
#329=ORIENTED_EDGE('',*,*,#264,.F.);
#330=ORIENTED_EDGE('',*,*,#265,.F.);
#331=ORIENTED_EDGE('',*,*,#257,.F.);
#332=ORIENTED_EDGE('',*,*,#251,.T.);
#333=ORIENTED_EDGE('',*,*,#261,.T.);
#334=ORIENTED_EDGE('',*,*,#266,.F.);
#335=ORIENTED_EDGE('',*,*,#267,.T.);
#336=ORIENTED_EDGE('',*,*,#254,.T.);
#337=ORIENTED_EDGE('',*,*,#267,.F.);
#338=ORIENTED_EDGE('',*,*,#268,.F.);
#339=ORIENTED_EDGE('',*,*,#269,.T.);
#340=ORIENTED_EDGE('',*,*,#270,.F.);
#341=ORIENTED_EDGE('',*,*,#262,.T.);
#342=ORIENTED_EDGE('',*,*,#253,.T.);
#343=ORIENTED_EDGE('',*,*,#256,.T.);
#344=ORIENTED_EDGE('',*,*,#236,.T.);
#345=ORIENTED_EDGE('',*,*,#242,.T.);
#346=ORIENTED_EDGE('',*,*,#246,.T.);
#347=ORIENTED_EDGE('',*,*,#271,.F.);
#348=ORIENTED_EDGE('',*,*,#272,.F.);
#349=ORIENTED_EDGE('',*,*,#273,.F.);
#350=ORIENTED_EDGE('',*,*,#269,.F.);
#351=ORIENTED_EDGE('',*,*,#274,.F.);
#352=ORIENTED_EDGE('',*,*,#275,.T.);
#353=ORIENTED_EDGE('',*,*,#276,.F.);
#354=ORIENTED_EDGE('',*,*,#272,.T.);
#355=ORIENTED_EDGE('',*,*,#277,.F.);
#356=ORIENTED_EDGE('',*,*,#278,.F.);
#357=ORIENTED_EDGE('',*,*,#279,.F.);
#358=ORIENTED_EDGE('',*,*,#275,.F.);
#359=ORIENTED_EDGE('',*,*,#266,.T.);
#360=ORIENTED_EDGE('',*,*,#259,.T.);
#361=ORIENTED_EDGE('',*,*,#280,.F.);
#362=ORIENTED_EDGE('',*,*,#274,.T.);
#363=ORIENTED_EDGE('',*,*,#281,.F.);
#364=ORIENTED_EDGE('',*,*,#264,.T.);
#365=ORIENTED_EDGE('',*,*,#282,.F.);
#366=ORIENTED_EDGE('',*,*,#276,.T.);
#367=ORIENTED_EDGE('',*,*,#283,.F.);
#368=ORIENTED_EDGE('',*,*,#263,.T.);
#369=ORIENTED_EDGE('',*,*,#270,.T.);
#370=ORIENTED_EDGE('',*,*,#273,.T.);
#371=ORIENTED_EDGE('',*,*,#282,.T.);
#372=ORIENTED_EDGE('',*,*,#279,.T.);
#373=ORIENTED_EDGE('',*,*,#284,.F.);
#374=ORIENTED_EDGE('',*,*,#260,.T.);
#375=ORIENTED_EDGE('',*,*,#283,.T.);
#376=ORIENTED_EDGE('',*,*,#284,.T.);
#377=ORIENTED_EDGE('',*,*,#278,.T.);
#378=ORIENTED_EDGE('',*,*,#285,.F.);
#379=ORIENTED_EDGE('',*,*,#265,.T.);
#380=ORIENTED_EDGE('',*,*,#258,.T.);
#381=ORIENTED_EDGE('',*,*,#285,.T.);
#382=ORIENTED_EDGE('',*,*,#277,.T.);
#383=ORIENTED_EDGE('',*,*,#280,.T.);
#384=ORIENTED_EDGE('',*,*,#271,.T.);
#385=ORIENTED_EDGE('',*,*,#268,.T.);
#386=ORIENTED_EDGE('',*,*,#255,.T.);
#387=ORIENTED_EDGE('',*,*,#281,.T.);
#388=ORIENTED_EDGE('',*,*,#286,.F.);
#389=ORIENTED_EDGE('',*,*,#249,.T.);
#390=ORIENTED_EDGE('',*,*,#287,.T.);
#391=ORIENTED_EDGE('',*,*,#286,.T.);
#392=ORIENTED_EDGE('',*,*,#287,.F.);
#393=ORIENTED_EDGE('',*,*,#288,.F.);
#394=ORIENTED_EDGE('',*,*,#245,.T.);
#395=ORIENTED_EDGE('',*,*,#289,.T.);
#396=ORIENTED_EDGE('',*,*,#288,.T.);
#397=ORIENTED_EDGE('',*,*,#289,.F.);
#398=CYLINDRICAL_SURFACE('',#449,2.05);
#399=CYLINDRICAL_SURFACE('',#454,1.55);
#400=CYLINDRICAL_SURFACE('',#457,2.05000000000001);
#401=CYLINDRICAL_SURFACE('',#462,2.05);
#402=CYLINDRICAL_SURFACE('',#472,15.);
#403=CYLINDRICAL_SURFACE('',#474,8.);
#404=CYLINDRICAL_SURFACE('',#490,1.55);
#405=CYLINDRICAL_SURFACE('',#493,1.55000000000001);
#406=ADVANCED_FACE('',(#47),#398,.F.);
#407=ADVANCED_FACE('',(#48,#20),#28,.T.);
#408=ADVANCED_FACE('',(#49),#399,.F.);
#409=ADVANCED_FACE('',(#50),#29,.T.);
#410=ADVANCED_FACE('',(#51),#400,.F.);
#411=ADVANCED_FACE('',(#52,#21),#30,.T.);
#412=ADVANCED_FACE('',(#53),#401,.F.);
#413=ADVANCED_FACE('',(#54,#22),#31,.T.);
#414=ADVANCED_FACE('',(#55,#23),#32,.F.);
#415=ADVANCED_FACE('',(#56),#33,.T.);
#416=ADVANCED_FACE('',(#57),#34,.T.);
#417=ADVANCED_FACE('',(#58),#402,.T.);
#418=ADVANCED_FACE('',(#59),#403,.F.);
#419=ADVANCED_FACE('',(#60,#24,#25,#26),#35,.F.);
#420=ADVANCED_FACE('',(#61),#36,.T.);
#421=ADVANCED_FACE('',(#62),#37,.T.);
#422=ADVANCED_FACE('',(#63,#27),#38,.T.);
#423=ADVANCED_FACE('',(#64),#39,.T.);
#424=ADVANCED_FACE('',(#65),#40,.T.);
#425=ADVANCED_FACE('',(#66),#41,.T.);
#426=ADVANCED_FACE('',(#67),#42,.T.);
#427=ADVANCED_FACE('',(#68),#19,.T.);
#428=ADVANCED_FACE('',(#69),#43,.T.);
#429=ADVANCED_FACE('',(#70),#44,.T.);
#430=ADVANCED_FACE('',(#71),#45,.T.);
#431=ADVANCED_FACE('',(#72),#404,.F.);
#432=ADVANCED_FACE('',(#73),#46,.T.);
#433=ADVANCED_FACE('',(#74),#405,.F.);
#434=CLOSED_SHELL('',(#406,#407,#408,#409,#410,#411,#412,#413,#414,#415,
#416,#417,#418,#419,#420,#421,#422,#423,#424,#425,#426,#427,#428,#429,#430,
#431,#432,#433));
#435=DERIVED_UNIT_ELEMENT(#437,1.);
#436=DERIVED_UNIT_ELEMENT(#754,-3.);
#437=(
MASS_UNIT()
NAMED_UNIT(*)
SI_UNIT(.KILO.,.GRAM.)
);
#438=DERIVED_UNIT((#435,#436));
#439=MEASURE_REPRESENTATION_ITEM('density measure',
POSITIVE_RATIO_MEASURE(7850.),#438);
#440=PROPERTY_DEFINITION_REPRESENTATION(#445,#442);
#441=PROPERTY_DEFINITION_REPRESENTATION(#446,#443);
#442=REPRESENTATION('material name',(#444),#751);
#443=REPRESENTATION('density',(#439),#751);
#444=DESCRIPTIVE_REPRESENTATION_ITEM('Steel','Steel');
#445=PROPERTY_DEFINITION('material property','material name',#766);
#446=PROPERTY_DEFINITION('material property','density of part',#766);
#447=AXIS2_PLACEMENT_3D('',#628,#495,#496);
#448=AXIS2_PLACEMENT_3D('',#629,#497,#498);
#449=AXIS2_PLACEMENT_3D('',#630,#499,#500);
#450=AXIS2_PLACEMENT_3D('',#632,#501,#502);
#451=AXIS2_PLACEMENT_3D('',#635,#504,#505);
#452=AXIS2_PLACEMENT_3D('',#636,#506,#507);
#453=AXIS2_PLACEMENT_3D('',#638,#508,#509);
#454=AXIS2_PLACEMENT_3D('',#639,#510,#511);
#455=AXIS2_PLACEMENT_3D('',#642,#513,#514);
#456=AXIS2_PLACEMENT_3D('',#643,#515,#516);
#457=AXIS2_PLACEMENT_3D('',#644,#517,#518);
#458=AXIS2_PLACEMENT_3D('',#646,#519,#520);
#459=AXIS2_PLACEMENT_3D('',#649,#522,#523);
#460=AXIS2_PLACEMENT_3D('',#650,#524,#525);
#461=AXIS2_PLACEMENT_3D('',#652,#526,#527);
#462=AXIS2_PLACEMENT_3D('',#653,#528,#529);
#463=AXIS2_PLACEMENT_3D('',#655,#530,#531);
#464=AXIS2_PLACEMENT_3D('',#658,#533,#534);
#465=AXIS2_PLACEMENT_3D('',#659,#535,#536);
#466=AXIS2_PLACEMENT_3D('',#661,#537,#538);
#467=AXIS2_PLACEMENT_3D('',#662,#539,#540);
#468=AXIS2_PLACEMENT_3D('',#667,#542,#543);
#469=AXIS2_PLACEMENT_3D('',#672,#546,#547);
#470=AXIS2_PLACEMENT_3D('',#673,#548,#549);
#471=AXIS2_PLACEMENT_3D('',#683,#555,#556);
#472=AXIS2_PLACEMENT_3D('',#693,#562,#563);
#473=AXIS2_PLACEMENT_3D('',#694,#564,#565);
#474=AXIS2_PLACEMENT_3D('',#695,#566,#567);
#475=AXIS2_PLACEMENT_3D('',#697,#568,#569);
#476=AXIS2_PLACEMENT_3D('',#699,#571,#572);
#477=AXIS2_PLACEMENT_3D('',#705,#576,#577);
#478=AXIS2_PLACEMENT_3D('',#711,#581,#582);
#479=AXIS2_PLACEMENT_3D('',#717,#586,#587);
#480=AXIS2_PLACEMENT_3D('',#721,#589,#590);
#481=AXIS2_PLACEMENT_3D('',#723,#592,#593);
#482=AXIS2_PLACEMENT_3D('',#726,#596,#597);
#483=AXIS2_PLACEMENT_3D('',#729,#600,#601);
#484=AXIS2_PLACEMENT_3D('',#730,#602,#603);
#485=AXIS2_PLACEMENT_3D('',#732,#605,#606);
#486=AXIS2_PLACEMENT_3D('',#734,#608,#609);
#487=AXIS2_PLACEMENT_3D('',#735,#610,#611);
#488=AXIS2_PLACEMENT_3D('',#736,#612,#613);
#489=AXIS2_PLACEMENT_3D('',#738,#614,#615);
#490=AXIS2_PLACEMENT_3D('',#739,#616,#617);
#491=AXIS2_PLACEMENT_3D('',#741,#619,#620);
#492=AXIS2_PLACEMENT_3D('',#743,#621,#622);
#493=AXIS2_PLACEMENT_3D('',#744,#623,#624);
#494=AXIS2_PLACEMENT_3D('',#746,#626,#627);
#495=DIRECTION('axis',(0.,0.,1.));
#496=DIRECTION('refdir',(1.,0.,0.));
#497=DIRECTION('axis',(0.,0.,1.));
#498=DIRECTION('refdir',(1.,0.,0.));
#499=DIRECTION('center_axis',(1.40413558916231E-9,1.,0.));
#500=DIRECTION('ref_axis',(1.,-1.40413558916231E-9,0.));
#501=DIRECTION('center_axis',(0.,1.,0.));
#502=DIRECTION('ref_axis',(1.,0.,0.));
#503=DIRECTION('',(1.40413558916231E-9,1.,0.));
#504=DIRECTION('center_axis',(1.40413562721431E-9,1.,0.));
#505=DIRECTION('ref_axis',(1.,-1.40413562382948E-9,0.));
#506=DIRECTION('center_axis',(-1.40413562721431E-9,-1.,0.));
#507=DIRECTION('ref_axis',(1.,-1.40413562721431E-9,0.));
#508=DIRECTION('center_axis',(-1.40413562721431E-9,-1.,0.));
#509=DIRECTION('ref_axis',(-1.,1.40413562721431E-9,-1.22464679914735E-16));
#510=DIRECTION('center_axis',(0.,1.,0.));
#511=DIRECTION('ref_axis',(-1.,0.,-1.22464679914735E-16));
#512=DIRECTION('',(0.,1.,0.));
#513=DIRECTION('center_axis',(0.,1.,0.));
#514=DIRECTION('ref_axis',(-1.,0.,-1.22464679914735E-16));
#515=DIRECTION('center_axis',(0.,-1.,0.));
#516=DIRECTION('ref_axis',(-1.,0.,-1.22464679914735E-16));
#517=DIRECTION('center_axis',(1.40413558916231E-9,1.,0.));
#518=DIRECTION('ref_axis',(1.,-1.40413558916231E-9,0.));
#519=DIRECTION('center_axis',(0.,1.,0.));
#520=DIRECTION('ref_axis',(1.,0.,0.));
#521=DIRECTION('',(1.40413558916231E-9,1.,0.));
#522=DIRECTION('center_axis',(1.4041356341532E-9,1.,0.));
#523=DIRECTION('ref_axis',(1.,-1.40413564075361E-9,0.));
#524=DIRECTION('center_axis',(-1.4041356341532E-9,-1.,0.));
#525=DIRECTION('ref_axis',(1.,-1.4041356341532E-9,0.));
#526=DIRECTION('center_axis',(-1.4041356341532E-9,-1.,0.));
#527=DIRECTION('ref_axis',(-1.,1.4041356341532E-9,-1.22464679914735E-16));
#528=DIRECTION('center_axis',(1.40413558916231E-9,1.,0.));
#529=DIRECTION('ref_axis',(1.,-1.40413558916231E-9,0.));
#530=DIRECTION('center_axis',(0.,1.,0.));
#531=DIRECTION('ref_axis',(1.,0.,0.));
#532=DIRECTION('',(1.40413558916231E-9,1.,0.));
#533=DIRECTION('center_axis',(1.40413562721431E-9,1.,0.));
#534=DIRECTION('ref_axis',(1.,-1.40413562382948E-9,0.));
#535=DIRECTION('center_axis',(-1.40413562721431E-9,-1.,0.));
#536=DIRECTION('ref_axis',(1.,-1.40413562721431E-9,0.));
#537=DIRECTION('center_axis',(-1.40413562721431E-9,-1.,0.));
#538=DIRECTION('ref_axis',(-1.,1.40413562721431E-9,-1.22464679914735E-16));
#539=DIRECTION('center_axis',(1.22464679914735E-16,0.,-1.));
#540=DIRECTION('ref_axis',(1.,0.,1.22464679914735E-16));
#541=DIRECTION('',(0.,-1.,0.));
#542=DIRECTION('center_axis',(1.22464679914735E-16,0.,-1.));
#543=DIRECTION('ref_axis',(1.,0.,1.22464679914735E-16));
#544=DIRECTION('',(-8.31627733801615E-17,1.,-1.01845024228232E-32));
#545=DIRECTION('',(-1.,0.,-1.22464679914735E-16));
#546=DIRECTION('center_axis',(-1.22464679914735E-16,0.,1.));
#547=DIRECTION('ref_axis',(1.,0.,1.22464679914735E-16));
#548=DIRECTION('center_axis',(-1.,-8.31627733801615E-17,-1.22464679914735E-16));
#549=DIRECTION('ref_axis',(-8.31627733801615E-17,1.,-1.01845024228232E-32));
#550=DIRECTION('',(-8.31627733801615E-17,1.,-1.01845024228232E-32));
#551=DIRECTION('',(1.22464679914735E-16,0.,-1.));
#552=DIRECTION('',(1.22464679914735E-16,0.,-1.));
#553=DIRECTION('',(-8.31627733801615E-17,1.,-1.01845024228232E-32));
#554=DIRECTION('',(-1.45400566622942E-16,0.707106781186548,0.707106781186548));
#555=DIRECTION('center_axis',(1.,-3.32651093520647E-16,1.22464679914735E-16));
#556=DIRECTION('ref_axis',(-3.32651093520647E-16,-1.,-4.07380096912927E-32));
#557=DIRECTION('',(-3.32651093520647E-16,-1.,-4.07380096912927E-32));
#558=DIRECTION('',(1.22464679914735E-16,0.,-1.));
#559=DIRECTION('',(-1.22464679914735E-16,0.,1.));
#560=DIRECTION('',(-3.32651093520647E-16,-1.,-4.07380096912927E-32));
#561=DIRECTION('',(-1.48624238374021E-16,-0.707106781186547,-0.707106781186547));
#562=DIRECTION('center_axis',(1.22464679914735E-16,0.,-1.));
#563=DIRECTION('ref_axis',(1.,0.,1.22464679914735E-16));
#564=DIRECTION('center_axis',(1.22464679914735E-16,0.,-1.));
#565=DIRECTION('ref_axis',(1.,0.,1.22464679914735E-16));
#566=DIRECTION('center_axis',(1.22464679914735E-16,0.,-1.));
#567=DIRECTION('ref_axis',(1.,0.,1.22464679914735E-16));
#568=DIRECTION('center_axis',(-1.22464679914735E-16,0.,1.));
#569=DIRECTION('ref_axis',(1.,0.,1.22464679914735E-16));
#570=DIRECTION('',(-1.22464679914735E-16,0.,1.));
#571=DIRECTION('center_axis',(0.,1.,0.));
#572=DIRECTION('ref_axis',(-1.22464679914735E-16,0.,1.));
#573=DIRECTION('',(-0.707106781186551,0.,0.707106781186544));
#574=DIRECTION('',(1.,0.,1.22464679914735E-16));
#575=DIRECTION('',(-0.707106781186539,0.,-0.707106781186556));
#576=DIRECTION('center_axis',(1.22464679914735E-16,0.,-1.));
#577=DIRECTION('ref_axis',(-1.,0.,-1.22464679914735E-16));
#578=DIRECTION('',(8.31627733801615E-17,-1.,1.01845024228232E-32));
#579=DIRECTION('',(-1.,0.,-1.22464679914735E-16));
#580=DIRECTION('',(3.32651093520647E-16,1.,4.07380096912927E-32));
#581=DIRECTION('center_axis',(8.65956056235493E-17,0.707106781186548,-0.707106781186548));
#582=DIRECTION('ref_axis',(-1.,0.,-1.22464679914735E-16));
#583=DIRECTION('',(1.45400566622942E-16,-0.707106781186548,-0.707106781186548));
#584=DIRECTION('',(1.,0.,1.22464679914735E-16));
#585=DIRECTION('',(1.48624238374021E-16,0.707106781186548,0.707106781186548));
#586=DIRECTION('center_axis',(1.22464679914735E-16,0.,-1.));
#587=DIRECTION('ref_axis',(1.,0.,1.22464679914735E-16));
#588=DIRECTION('',(8.31627733801615E-17,-1.,1.01845024228232E-32));
#589=DIRECTION('center_axis',(-1.22464679914735E-16,0.,1.));
#590=DIRECTION('ref_axis',(1.,0.,1.22464679914735E-16));
#591=DIRECTION('',(3.32651093520647E-16,1.,4.07380096912927E-32));
#592=DIRECTION('center_axis',(-0.707106781186545,0.500000000000002,-0.500000000000002));
#593=DIRECTION('ref_axis',(-0.577350269189629,0.,0.816496580927724));
#594=DIRECTION('',(-0.678598344545845,-0.281084637714843,0.678598344545839));
#595=DIRECTION('',(0.678598344545845,0.281084637714843,-0.678598344545839));
#596=DIRECTION('center_axis',(0.707106781186533,0.50000000000001,-0.500000000000011));
#597=DIRECTION('ref_axis',(-0.577350269189642,0.,-0.816496580927714));
#598=DIRECTION('',(0.678598344545839,-0.281084637714814,0.678598344545857));
#599=DIRECTION('',(-0.678598344545843,0.281084637714798,-0.67859834454586));
#600=DIRECTION('center_axis',(0.707106781186556,-2.35219843997573E-16,-0.707106781186539));
#601=DIRECTION('ref_axis',(-0.707106781186539,0.,-0.707106781186556));
#602=DIRECTION('center_axis',(0.707106781186555,-2.35219843997572E-16,-0.70710678118654));
#603=DIRECTION('ref_axis',(-0.70710678118654,0.,-0.707106781186555));
#604=DIRECTION('',(-0.707106781186549,0.,-0.707106781186546));
#605=DIRECTION('center_axis',(0.,0.,1.));
#606=DIRECTION('ref_axis',(1.,0.,1.22464679914735E-16));
#607=DIRECTION('',(0.707106781186551,0.,-0.707106781186544));
#608=DIRECTION('center_axis',(-0.707106781186544,-5.88049609993921E-17,
-0.707106781186551));
#609=DIRECTION('ref_axis',(-0.707106781186551,0.,0.707106781186544));
#610=DIRECTION('center_axis',(-0.707106781186544,-5.88049609993921E-17,
-0.707106781186551));
#611=DIRECTION('ref_axis',(-0.707106781186551,0.,0.707106781186544));
#612=DIRECTION('center_axis',(0.,-1.,0.));
#613=DIRECTION('ref_axis',(-1.,0.,-1.22464679914735E-16));
#614=DIRECTION('center_axis',(0.,1.,0.));
#615=DIRECTION('ref_axis',(-1.,0.,-1.22464679914735E-16));
#616=DIRECTION('center_axis',(0.,1.,0.));
#617=DIRECTION('ref_axis',(-1.,0.,-1.22464679914735E-16));
#618=DIRECTION('',(0.,1.,0.));
#619=DIRECTION('center_axis',(0.,-1.,0.));
#620=DIRECTION('ref_axis',(-1.,0.,-1.22464679914735E-16));
#621=DIRECTION('center_axis',(0.,1.,0.));
#622=DIRECTION('ref_axis',(-1.,0.,-1.22464679914735E-16));
#623=DIRECTION('center_axis',(0.,1.,0.));
#624=DIRECTION('ref_axis',(-1.,0.,-1.22464679914735E-16));
#625=DIRECTION('',(0.,1.,0.));
#626=DIRECTION('',(0.,0.,1.));
#627=DIRECTION('',(1.,0.,0.));
#628=CARTESIAN_POINT('',(0.,0.,0.));
#629=CARTESIAN_POINT('',(0.,0.,0.));
#630=CARTESIAN_POINT('Origin',(-39.94,134.900000065879,132.981729985377));
#631=CARTESIAN_POINT('',(-41.9899999928389,140.000002533197,132.981729985377));
#632=CARTESIAN_POINT('Origin',(-39.9399999928389,140.000002533197,132.981729985377));
#633=CARTESIAN_POINT('',(-41.9899999782359,150.400000068758,132.981729985377));
#634=CARTESIAN_POINT('',(-41.99,134.900000068758,132.981729985377));
#635=CARTESIAN_POINT('Origin',(-39.9399999782359,150.400000065879,132.981729985377));
#636=CARTESIAN_POINT('Origin',(-39.9399999782359,150.400000065879,132.981729985377));
#637=CARTESIAN_POINT('',(-38.39,150.400000063703,132.981729985377));
#638=CARTESIAN_POINT('Origin',(-39.94,150.400000065879,132.981729985377));
#639=CARTESIAN_POINT('Origin',(-39.94,134.9,132.981729985377));
#640=CARTESIAN_POINT('',(-38.39,151.9,132.981729985377));
#641=CARTESIAN_POINT('',(-38.39,134.9,132.981729985377));
#642=CARTESIAN_POINT('Origin',(-39.94,151.9,132.981729985377));
#643=CARTESIAN_POINT('Origin',(-39.94,151.9,132.981729985377));
#644=CARTESIAN_POINT('Origin',(-29.94,134.900000051838,132.981729985377));
#645=CARTESIAN_POINT('',(-31.9899999928389,140.000002533197,132.981729985377));
#646=CARTESIAN_POINT('Origin',(-29.9399999928389,140.000002533197,132.981729985377));
#647=CARTESIAN_POINT('',(-31.9899999782359,150.400000054716,132.981729985377));
#648=CARTESIAN_POINT('',(-31.99,134.900000054716,132.981729985377));
#649=CARTESIAN_POINT('Origin',(-29.9399999782359,150.400000051838,132.981729985377));
#650=CARTESIAN_POINT('Origin',(-29.9399999782359,150.400000051838,132.981729985377));
#651=CARTESIAN_POINT('',(-28.39,150.400000049661,132.981729985377));
#652=CARTESIAN_POINT('Origin',(-29.94,150.400000051838,132.981729985377));
#653=CARTESIAN_POINT('Origin',(-19.94,134.900000037797,132.981729985377));
#654=CARTESIAN_POINT('',(-21.9899999928389,140.000002533197,132.981729985377));
#655=CARTESIAN_POINT('Origin',(-19.9399999928389,140.000002533197,132.981729985377));
#656=CARTESIAN_POINT('',(-21.9899999782359,150.400000040675,132.981729985377));
#657=CARTESIAN_POINT('',(-21.99,134.900000040675,132.981729985377));
#658=CARTESIAN_POINT('Origin',(-19.9399999782359,150.400000037797,132.981729985377));
#659=CARTESIAN_POINT('Origin',(-19.9399999782359,150.400000037797,132.981729985377));
#660=CARTESIAN_POINT('',(-18.39,150.40000003562,132.981729985377));
#661=CARTESIAN_POINT('Origin',(-19.94,150.400000037797,132.981729985377));
#662=CARTESIAN_POINT('Origin',(-29.94,160.85,136.981729985377));
#663=CARTESIAN_POINT('',(-14.94,166.7,136.981729985377));
#664=CARTESIAN_POINT('',(-14.94,140.000002533197,136.981729985377));
#665=CARTESIAN_POINT('',(-14.94,141.000002533197,136.981729985377));
#666=CARTESIAN_POINT('',(-44.94,166.7,136.981729985377));
#667=CARTESIAN_POINT('Origin',(-29.94,166.7,136.981729985377));
#668=CARTESIAN_POINT('',(-44.94,140.000002533197,136.981729985377));
#669=CARTESIAN_POINT('',(-44.94,150.425,136.981729985377));
#670=CARTESIAN_POINT('',(-37.44,140.000002533197,136.981729985377));
#671=CARTESIAN_POINT('',(-37.94,166.7,136.981729985377));
#672=CARTESIAN_POINT('Origin',(-29.94,166.7,136.981729985377));
#673=CARTESIAN_POINT('Origin',(-44.94,140.,142.481729985377));
#674=CARTESIAN_POINT('',(-44.94,140.000002533197,129.981729985377));
#675=CARTESIAN_POINT('',(-44.94,150.485786437627,129.981729985377));
#676=CARTESIAN_POINT('',(-44.94,141.2,129.981729985377));
#677=CARTESIAN_POINT('',(-44.94,140.000002533197,135.731729985377));
#678=CARTESIAN_POINT('',(-44.94,166.7,133.481729985377));
#679=CARTESIAN_POINT('',(-44.94,166.7,142.481729985377));
#680=CARTESIAN_POINT('',(-44.94,153.985786437627,133.481729985377));
#681=CARTESIAN_POINT('',(-44.94,150.425,133.481729985377));
#682=CARTESIAN_POINT('',(-44.94,151.717893218813,131.213836766563));
#683=CARTESIAN_POINT('Origin',(-14.94,166.7,142.481729985377));
#684=CARTESIAN_POINT('',(-14.94,166.7,133.481729985377));
#685=CARTESIAN_POINT('',(-14.94,153.985786437627,133.481729985377));
#686=CARTESIAN_POINT('',(-14.94,163.775,133.481729985377));
#687=CARTESIAN_POINT('',(-14.94,166.7,142.481729985377));
#688=CARTESIAN_POINT('',(-14.94,140.000002533197,129.981729985377));
#689=CARTESIAN_POINT('',(-14.94,140.000002533197,135.731729985377));
#690=CARTESIAN_POINT('',(-14.94,150.485786437627,129.981729985377));
#691=CARTESIAN_POINT('',(-14.94,154.55,129.981729985377));
#692=CARTESIAN_POINT('',(-14.94,158.392893218813,137.888836766563));
#693=CARTESIAN_POINT('Origin',(-29.94,166.7,142.481729985377));
#694=CARTESIAN_POINT('Origin',(-29.94,166.7,133.481729985377));
#695=CARTESIAN_POINT('Origin',(-29.94,166.7,142.481729985377));
#696=CARTESIAN_POINT('',(-37.94,166.7,132.481729985377));
#697=CARTESIAN_POINT('Origin',(-29.94,166.7,132.481729985377));
#698=CARTESIAN_POINT('',(-37.94,166.7,142.481729985377));
#699=CARTESIAN_POINT('Origin',(-44.94,140.000002533197,128.981729985377));
#700=CARTESIAN_POINT('',(-43.94,140.000002533197,128.981729985377));
#701=CARTESIAN_POINT('',(-44.44,140.000002533197,129.481729985377));
#702=CARTESIAN_POINT('',(-15.94,140.000002533197,128.981729985377));
#703=CARTESIAN_POINT('',(-37.4399968667007,140.000002533197,128.981729985377));
#704=CARTESIAN_POINT('',(-22.9399999999998,140.000002533197,121.981729985377));
#705=CARTESIAN_POINT('Origin',(-29.9399937334013,142.4,128.981729985377));
#706=CARTESIAN_POINT('',(-43.94,150.9,128.981729985377));
#707=CARTESIAN_POINT('',(-43.94,141.2,128.981729985377));
#708=CARTESIAN_POINT('',(-15.94,150.9,128.981729985377));
#709=CARTESIAN_POINT('',(-44.94,150.9,128.981729985377));
#710=CARTESIAN_POINT('',(-15.94,154.55,128.981729985377));
#711=CARTESIAN_POINT('Origin',(-37.44,152.65,130.731729985377));
#712=CARTESIAN_POINT('',(-43.94,154.4,132.481729985377));
#713=CARTESIAN_POINT('',(-43.94,152.425,130.506729985377));
#714=CARTESIAN_POINT('',(-15.94,154.4,132.481729985377));
#715=CARTESIAN_POINT('',(-37.44,154.4,132.481729985377));
#716=CARTESIAN_POINT('',(-15.94,159.1,137.181729985377));
#717=CARTESIAN_POINT('Origin',(-29.94,160.85,132.481729985377));
#718=CARTESIAN_POINT('',(-43.94,166.7,132.481729985377));
#719=CARTESIAN_POINT('',(-43.94,150.425,132.481729985377));
#720=CARTESIAN_POINT('',(-15.94,166.7,132.481729985377));
#721=CARTESIAN_POINT('Origin',(-29.94,166.7,132.481729985377));
#722=CARTESIAN_POINT('',(-15.94,163.775,132.481729985377));
#723=CARTESIAN_POINT('Origin',(-44.44,152.071446609407,130.86028337597));
#724=CARTESIAN_POINT('',(-43.94,154.4,132.481729985377));
#725=CARTESIAN_POINT('',(-44.94,150.485786437627,129.981729985377));
#726=CARTESIAN_POINT('Origin',(-15.44,158.746446609407,137.53528337597));
#727=CARTESIAN_POINT('',(-15.94,150.9,128.981729985377));
#728=CARTESIAN_POINT('',(-14.94,153.985786437627,133.481729985377));
#729=CARTESIAN_POINT('Origin',(-15.44,154.55,129.481729985377));
#730=CARTESIAN_POINT('Origin',(-15.44,163.775,132.981729985377));
#731=CARTESIAN_POINT('',(-14.94,166.7,133.481729985377));
#732=CARTESIAN_POINT('Origin',(-29.94,166.7,132.981729985377));
#733=CARTESIAN_POINT('',(-44.94,166.7,133.481729985377));
#734=CARTESIAN_POINT('Origin',(-44.44,150.425,132.981729985377));
#735=CARTESIAN_POINT('Origin',(-44.44,141.2,129.481729985377));
#736=CARTESIAN_POINT('Origin',(-19.94,151.9,132.981729985377));
#737=CARTESIAN_POINT('',(-18.39,151.9,132.981729985377));
#738=CARTESIAN_POINT('Origin',(-19.94,151.9,132.981729985377));
#739=CARTESIAN_POINT('Origin',(-19.94,134.9,132.981729985377));
#740=CARTESIAN_POINT('',(-18.39,134.9,132.981729985377));
#741=CARTESIAN_POINT('Origin',(-29.94,151.9,132.981729985377));
#742=CARTESIAN_POINT('',(-28.39,151.9,132.981729985377));
#743=CARTESIAN_POINT('Origin',(-29.94,151.9,132.981729985377));
#744=CARTESIAN_POINT('Origin',(-29.94,134.9,132.981729985377));
#745=CARTESIAN_POINT('',(-28.39,134.9,132.981729985377));
#746=CARTESIAN_POINT('',(0.,0.,-0.999999999999996));
#747=UNCERTAINTY_MEASURE_WITH_UNIT(LENGTH_MEASURE(0.01),#753,
'DISTANCE_ACCURACY_VALUE',
'Maximum model space distance between geometric entities at asserted c
onnectivities');
#748=UNCERTAINTY_MEASURE_WITH_UNIT(LENGTH_MEASURE(0.01),#753,
'DISTANCE_ACCURACY_VALUE',
'Maximum model space distance between geometric entities at asserted c
onnectivities');
#749=UNCERTAINTY_MEASURE_WITH_UNIT(LENGTH_MEASURE(0.01),#753,
'DISTANCE_ACCURACY_VALUE',
'Maximum model space distance between geometric entities at asserted c
onnectivities');
#750=(
GEOMETRIC_REPRESENTATION_CONTEXT(3)
GLOBAL_UNCERTAINTY_ASSIGNED_CONTEXT((#747))
GLOBAL_UNIT_ASSIGNED_CONTEXT((#753,#755,#756))
REPRESENTATION_CONTEXT('','3D')
);
#751=(
GEOMETRIC_REPRESENTATION_CONTEXT(3)
GLOBAL_UNCERTAINTY_ASSIGNED_CONTEXT((#748))
GLOBAL_UNIT_ASSIGNED_CONTEXT((#753,#755,#756))
REPRESENTATION_CONTEXT('','3D')
);
#752=(
GEOMETRIC_REPRESENTATION_CONTEXT(3)
GLOBAL_UNCERTAINTY_ASSIGNED_CONTEXT((#749))
GLOBAL_UNIT_ASSIGNED_CONTEXT((#753,#755,#756))
REPRESENTATION_CONTEXT('','3D')
);
#753=(
LENGTH_UNIT()
NAMED_UNIT(*)
SI_UNIT(.MILLI.,.METRE.)
);
#754=(
LENGTH_UNIT()
NAMED_UNIT(*)
SI_UNIT($,.METRE.)
);
#755=(
NAMED_UNIT(*)
PLANE_ANGLE_UNIT()
SI_UNIT($,.RADIAN.)
);
#756=(
NAMED_UNIT(*)
SI_UNIT($,.STERADIAN.)
SOLID_ANGLE_UNIT()
);
#757=SHAPE_DEFINITION_REPRESENTATION(#759,#762);
#758=SHAPE_DEFINITION_REPRESENTATION(#760,#763);
#759=PRODUCT_DEFINITION_SHAPE('',$,#765);
#760=PRODUCT_DEFINITION_SHAPE('',$,#766);
#761=PRODUCT_DEFINITION_SHAPE($,$,#14);
#762=SHAPE_REPRESENTATION('',(#447,#494),#750);
#763=SHAPE_REPRESENTATION('',(#448),#751);
#764=PRODUCT_DEFINITION_CONTEXT('part definition',#772,'design');
#765=PRODUCT_DEFINITION('Leg V1','Leg V1 v22',#767,#764);
#766=PRODUCT_DEFINITION('Upper Leg upper hoop bottom',
'Upper Leg upper hoop bottom',#768,#764);
#767=PRODUCT_DEFINITION_FORMATION('',$,#774);
#768=PRODUCT_DEFINITION_FORMATION('',$,#775);
#769=PRODUCT_RELATED_PRODUCT_CATEGORY('Leg V1 v22','Leg V1 v22',(#774));
#770=PRODUCT_RELATED_PRODUCT_CATEGORY('Upper Leg upper hoop bottom',
'Upper Leg upper hoop bottom',(#775));
#771=APPLICATION_PROTOCOL_DEFINITION('international standard',
'automotive_design',2009,#772);
#772=APPLICATION_CONTEXT(
'Core Data for Automotive Mechanical Design Process');
#773=PRODUCT_CONTEXT('part definition',#772,'mechanical');
#774=PRODUCT('Leg V1','Leg V1 v22',$,(#773));
#775=PRODUCT('Upper Leg upper hoop bottom',
'Upper Leg upper hoop bottom',$,(#773));
#776=PRESENTATION_STYLE_ASSIGNMENT((#778));
#777=PRESENTATION_STYLE_ASSIGNMENT((#779));
#778=SURFACE_STYLE_USAGE(.BOTH.,#780);
#779=SURFACE_STYLE_USAGE(.BOTH.,#781);
#780=SURFACE_SIDE_STYLE('',(#782));
#781=SURFACE_SIDE_STYLE('',(#783));
#782=SURFACE_STYLE_FILL_AREA(#784);
#783=SURFACE_STYLE_FILL_AREA(#785);
#784=FILL_AREA_STYLE('Steel - Satin',(#786));
#785=FILL_AREA_STYLE('ABS (White)',(#787));
#786=FILL_AREA_STYLE_COLOUR('Steel - Satin',#788);
#787=FILL_AREA_STYLE_COLOUR('ABS (White)',#789);
#788=COLOUR_RGB('Steel - Satin',0.627450980392157,0.627450980392157,0.627450980392157);
#789=COLOUR_RGB('ABS (White)',0.964705882352941,0.964705882352941,0.952941176470588);
ENDSEC;
END-ISO-10303-21;
